<svg xmlns="http://www.w3.org/2000/svg" viewBox="0 0 350.39 73.86"><rect width="327.59" height="62.09" rx="31.04" fill="#8b6657"/><path d="M72.58,43.21H47.23V40.62h7.41A66.81,66.81,0,0,0,51,27.18l2-1.41H48.26V23.15H58.84a23.72,23.72,0,0,0-1.92-4.06l2.8-.95a36.39,36.39,0,0,1,2.21,5h9.89v2.62H66.63l2.13,1.38a73.63,73.63,0,0,1-3.47,13.47h7.29Zm-6.3-17.44H53.44a80.21,80.21,0,0,1,3.89,14.85h5.15A77.68,77.68,0,0,0,66.28,25.77Z" fill="#fff"/><path d="M92.41,41.87l-2.28.9a29.49,29.49,0,0,0-1.08-3c-3.14,1.35-6,2.44-8.57,3.29l-.9-2.34a1.26,1.26,0,0,0,.67-1.11V19h11v13.6H82.87v7q2.44-.84,5.22-2a16.26,16.26,0,0,0-1.49-2.95l2.25-1A38.86,38.86,0,0,1,92.41,41.87ZM88.65,24.46V21.37H82.87v3.09Zm0,5.7V26.82H82.87v3.34Zm15.45,7.9c0,1.34-.33,2.22-1,2.64a6.34,6.34,0,0,1-3.29.63c-.59,0-1.22,0-1.88,0l-.73-2.62c1.18.06,2.37.09,3.56.09a.67.67,0,0,0,.5-.26.85.85,0,0,0,.23-.57V21.54H96.42V44H93.86V19H104.1Z" fill="#fff"/><path d="M115.12,37.09A27.17,27.17,0,0,1,113.31,44l-2.07-.9A31,31,0,0,0,113,36.59ZM122,23.93a44,44,0,0,1-6.65,9.4,28.68,28.68,0,0,0,3.12-.75,6.65,6.65,0,0,0-.56-1.33l1.9-.7a19.42,19.42,0,0,1,1.69,4.62l-2,.7a6.79,6.79,0,0,0-.33-1.29,65.61,65.61,0,0,1-7.2,1.54l-.53-2a28.59,28.59,0,0,0,5-5.76c-1.24.23-2.67.44-4.32.64l-.47-1.84a33,33,0,0,0,5.22-8.9l2.3.89a39.26,39.26,0,0,1-4.11,7.21A27.23,27.23,0,0,0,118,26a25.7,25.7,0,0,0,1.67-2.91ZM119,42.8l-2.3.47a27.92,27.92,0,0,0-.73-6.15l2.12-.47A40.67,40.67,0,0,1,119,42.8Zm3.21-3.55-1.9.7a13.81,13.81,0,0,0-1.25-3.36L121,36A26.07,26.07,0,0,1,122.24,39.25Zm5-6.89q.24,5.72-5.27,11l-1.72-1.63a12.67,12.67,0,0,0,4.57-7.06h-3V32.36Zm10,8.73-1.75,2.21a21.29,21.29,0,0,1-5-6V41.6a2,2,0,0,1-1,1.9,9.48,9.48,0,0,1-4.11.58l-.7-2.65c1.3,0,2.17,0,2.6,0s.66-.19.66-.48V30.55h-5.45V20.9h3.61a12.16,12.16,0,0,0,1.33-2.62l2.53.56a10.5,10.5,0,0,1-1,2.06h6.45v9.65h-4.92V32.8c.21.42.51,1,.92,1.61a22.52,22.52,0,0,0,3.06-2.83l1.78,1.61a33.91,33.91,0,0,1-3.56,3.26A25.06,25.06,0,0,0,137.2,41.09Zm-4.31-16.42V23H125v1.66Zm0,3.82V26.77H125v1.72Z" fill="#fff"/><path d="M168.84,43.27H143.41V40.65h10.46V18.51h2.72v8.76h11v2.56h-11V40.65h12.25Z" fill="#fff"/><path d="M184.3,23.62h-8.7V21.23H179a14,14,0,0,0-1-2.14l2.61-.72a18.64,18.64,0,0,1,1.09,2.86h2.61Zm-.64,4.23h-7.39V25.46h7.39Zm0,4.31H176.3V29.77h7.39Zm0,11.41h-2.54V42.34h-2.24V44.1h-2.59v-10h7.37ZM181.17,40V36.53h-2.24V40Zm8.92-10.62H185V27h5.12Zm0-7.52h-4.51v-2.3h4.51Zm11.35,9.94L200.13,34a11.94,11.94,0,0,1-6.39-4.56,12.58,12.58,0,0,1-6.74,4.5l-1.33-2.16a11.54,11.54,0,0,0,5-2.39q1.94-1.66,2.08-5.3h2.35A11.12,11.12,0,0,0,195,26a4.33,4.33,0,0,0,1.8,3.29A13.27,13.27,0,0,0,201.41,31.75Zm-2,12.25h-2.62V42.57h-8.07V44H186V34.5h13.32Zm1.3-23.18a32.86,32.86,0,0,1-1.75,6l-2.42-.75c.43-1.09.78-2.07,1-2.95h-4.72A15.22,15.22,0,0,1,190.45,26L188.5,24.4a20.52,20.52,0,0,0,4.26-6.18l2.42.67a15.29,15.29,0,0,1-.91,1.93Zm-3.92,19.45V36.81h-8.07v3.46Z" fill="#fff"/><path d="M217.66,23.53H207.59V21.2h3.79a14.22,14.22,0,0,0-.84-2.19l2.56-.7a23.59,23.59,0,0,1,1.05,2.89h3.51Zm-1,4.35h-8.34V25.54h8.34Zm0,4.2h-8.34V29.77h8.34Zm0,11.46H214V42.23h-3.18V44h-2.57V34.09h8.34ZM214,39.9V36.42h-3.18V39.9Zm18.6-18q0,7.52-.2,13.1a38,38,0,0,1-.58,6.76,2.85,2.85,0,0,1-1.3,1.7,7,7,0,0,1-3.26.54c-.69,0-1.33,0-1.93-.06l-.92-2.48q1.62.09,4.14.09a1,1,0,0,0,.59-.25,1,1,0,0,0,.37-.68l.29-5.18c.18-3.15.26-6.86.26-11.12h-8a27.07,27.07,0,0,1-1.63,2.5h7.29V39.31h-8.52v-11a5.53,5.53,0,0,1-.84.84L217,26.91a25.39,25.39,0,0,0,5.27-8.69l2.42.79a23.43,23.43,0,0,1-1.28,2.89Zm-7.38,9.94V29.19h-3.37v2.65Zm0,5.08V34.11h-3.37v2.81Z" fill="#fff"/><path d="M251.07,28a25.32,25.32,0,0,1-1.66,7.49l-2.15-1.25a18.44,18.44,0,0,0,1-3.79h-1.93V41.76a2.17,2.17,0,0,1-.76,1.61c-.5.48-2,.66-4.45.54l-.74-2.51q2.15.06,2.79,0c.44,0,.66-.24.66-.61V30.47h-4V28h4.53a51.21,51.21,0,0,0-3.42-4.4l2.16-1.25c.55.62,1.07,1.26,1.57,1.92a18.72,18.72,0,0,0,2.25-2.75h-6.48V19.06h9.43v2.48a30.46,30.46,0,0,1-3.68,4.81c.47.68.83,1.23,1.09,1.67Zm14.08-6.54H259.5a24.63,24.63,0,0,1-.78,2.4h5.54V38.43h-8l1.32,1.28a27.44,27.44,0,0,1-6.34,4.53l-1.69-2.08a19.28,19.28,0,0,0,5.55-3.73h-3.24V23.88h4a18.9,18.9,0,0,0,.84-2.4h-5.86V19.06h14.31Zm-3.5,6.4V26.21h-7.29v1.67Zm0,4.08V30.18h-7.29V32Zm0,4.08V34.23h-7.29V36Zm3.89,6-1.64,2a29.71,29.71,0,0,0-5.4-2.9L260,39A27.44,27.44,0,0,1,265.54,42.05Z" fill="#fff"/><path d="M275.83,37.32a30.32,30.32,0,0,1-1.86,6.8L271.66,43a31.63,31.63,0,0,0,1.78-6.45Zm8.6-2.29-2.22.92a13.51,13.51,0,0,0-.64-1.69A80.71,80.71,0,0,1,272.8,36l-.91-2.34a38.13,38.13,0,0,0,5.63-6c-1.3.26-2.85.49-4.67.7l-.61-2.4a26.8,26.8,0,0,0,4.87-7.67l2.39,1.05a28.41,28.41,0,0,1-4.14,6.24c1.36-.13,2.72-.34,4.09-.61a33.76,33.76,0,0,0,2-3.12l2.22,1.28A40.3,40.3,0,0,1,275.77,33a38.73,38.73,0,0,0,4.76-.89,4.86,4.86,0,0,0-.71-1.31l2.25-.89A20.51,20.51,0,0,1,284.43,35Zm-4,7.6-2.49.64a31.05,31.05,0,0,0-1.22-5.91l2.45-.44A33.43,33.43,0,0,1,280.47,42.63Zm3.76-1.45L282,41.9A19.24,19.24,0,0,0,280.47,37l2.21-.53A24.27,24.27,0,0,1,284.23,41.18Zm12.62-18.31q0,4.32-.28,11.39c-.18,4.72-.5,7.4-1,8a3.84,3.84,0,0,1-1.51,1.31,10,10,0,0,1-3.31.34c-.61,0-1.26,0-1.94,0l-1.07-2.56h4.4a1.44,1.44,0,0,0,.86-.25,1.15,1.15,0,0,0,.45-.61,27.44,27.44,0,0,0,.32-3.33q.21-3,.32-6t.12-5.7h-7.05a25.51,25.51,0,0,1-2.31,4.11l-2.13-1.52a30.32,30.32,0,0,0,4.17-9.77l2.53.5a26.71,26.71,0,0,1-1.22,4.06Zm-4.26,13.25-2.12,1.44A29.1,29.1,0,0,0,285.66,31l2-1.53A27.74,27.74,0,0,1,292.59,36.12Z" fill="#fff"/><path d="M315,54.15c-1.1-2.34-2.23-4.68-3.33-7q-3-6.41-6-12.82a8.6,8.6,0,0,1-.87-4.05,4.77,4.77,0,0,1,6.71-4.1,6.05,6.05,0,0,1,3.18,2.9c1.5,2.88,3,5.77,4.49,8.64.11.22.25.41.4.65a6.6,6.6,0,0,1,6.37-.78,1,1,0,0,0,.67-.12,7.62,7.62,0,0,1,6.65-.32.84.84,0,0,0,.66,0,6.76,6.76,0,0,1,8.86,2.08,32.31,32.31,0,0,1,4.26,8.07c.94,2.46,1.82,5,2.61,7.47a12,12,0,0,1-1.8,11.35,18.8,18.8,0,0,1-18.48,7.59c-2.89-.4-5.37-2-7.88-3.43q-5.16-2.88-10.25-5.84A34.65,34.65,0,0,1,307.61,62a5.24,5.24,0,0,1-2.17-4.73,4.88,4.88,0,0,1,5.73-4.15A36,36,0,0,1,315,54.15ZM327.93,40c.88,1.59,1.72,3.11,2.55,4.63.44.8.32,1.36-.35,1.75s-1.26.21-1.73-.62c-.82-1.47-1.71-2.91-2.42-4.43a2.46,2.46,0,0,0-2.42-1.41,3.63,3.63,0,0,0-2.32.76.74.74,0,0,0-.27,1.14c1,2,2.06,4,3.07,6.08a1.18,1.18,0,0,1-1.13,1.8c-.61,0-.85-.48-1.1-1l-9.49-18.26a3.42,3.42,0,0,0-1.89-1.75,1.93,1.93,0,0,0-2.74,2.05,9,9,0,0,0,.78,2.73Q314,45.37,319.62,57.22c.26.56.45,1.11-.09,1.61s-1,.28-1.55,0c-1.58-.77-3.16-1.56-4.78-2.23a9.67,9.67,0,0,0-2.88-.72,1.85,1.85,0,0,0-1.81,2.79,4.62,4.62,0,0,0,1.41,1.54c1.08.75,2.24,1.39,3.39,2,2.47,1.4,4.94,2.77,7.43,4.14,2.3,1.27,4.61,2.55,6.95,3.75a7.45,7.45,0,0,0,2.5.79c6.44.65,11.73-1.54,15.6-6.75a9.17,9.17,0,0,0,1.31-8.32c-.45-1.58-1-3.12-1.53-4.67a45.6,45.6,0,0,0-4.44-9.62,5.21,5.21,0,0,0-3-2.41,3,3,0,0,0-2.72.42c.56,1.08,1.09,2.09,1.61,3.11.41.81.27,1.38-.42,1.74s-1.26.16-1.68-.63c-.56-1.06-1.09-2.13-1.67-3.18a1.64,1.64,0,0,0-.61-.69A4.63,4.63,0,0,0,327.93,40Z" fill="#8b6657"/><path d="M327.93,40a4.63,4.63,0,0,1,4.69,0,1.64,1.64,0,0,1,.61.69c.58,1.05,1.11,2.12,1.67,3.18.42.79,1,1,1.68.63s.83-.93.42-1.74c-.52-1-1.05-2-1.61-3.11a3,3,0,0,1,2.72-.42,5.21,5.21,0,0,1,3,2.41,45.6,45.6,0,0,1,4.44,9.62c.54,1.55,1.08,3.09,1.53,4.67a9.17,9.17,0,0,1-1.31,8.32c-3.87,5.21-9.16,7.4-15.6,6.75a7.45,7.45,0,0,1-2.5-.79c-2.34-1.2-4.65-2.48-6.95-3.75-2.49-1.37-5-2.74-7.43-4.14-1.15-.64-2.31-1.28-3.39-2a4.62,4.62,0,0,1-1.41-1.54,1.85,1.85,0,0,1,1.81-2.79,9.67,9.67,0,0,1,2.88.72c1.62.67,3.2,1.46,4.78,2.23.54.27,1,.44,1.55,0s.35-1,.09-1.61Q314,45.36,308.47,33.49a9,9,0,0,1-.78-2.73,1.93,1.93,0,0,1,2.74-2.05,3.42,3.42,0,0,1,1.89,1.75l9.49,18.26c.25.47.49.92,1.1,1a1.18,1.18,0,0,0,1.13-1.8c-1-2-2-4.07-3.07-6.08a.74.74,0,0,1,.27-1.14,3.63,3.63,0,0,1,2.32-.76A2.46,2.46,0,0,1,326,41.3c.71,1.52,1.6,3,2.42,4.43.47.83,1,1,1.73.62s.79-1,.35-1.75C329.65,43.08,328.81,41.56,327.93,40Z" fill="#fff"/></svg>