<svg xmlns="http://www.w3.org/2000/svg" xmlns:xlink="http://www.w3.org/1999/xlink" viewBox="0 0 47.83 47.76"><defs><linearGradient id="a" y1="23.88" x2="47.83" y2="23.88" gradientUnits="userSpaceOnUse"><stop offset="0" stop-color="#ddbc82"/><stop offset="0.31" stop-color="#9b7860"/><stop offset="0.65" stop-color="#ddbc82"/><stop offset="1" stop-color="#9b7860"/></linearGradient><linearGradient id="b" x1="10.52" y1="18.42" x2="40.96" y2="18.42" xlink:href="#a"/><linearGradient id="c" x1="17.11" y1="18.66" x2="34.67" y2="18.66" xlink:href="#a"/></defs><path d="M9.51,27.19A18.44,18.44,0,1,1,40.07,30c.11.14.23.3.36.45l7,8.52c.28.34.5.68.26,1.13s-.65.44-1.08.4c-2.09-.21-4.19-.4-6.28-.6l-.58-.06-.06.58q-.3,3.13-.59,6.28c0,.43-.11.83-.6,1s-.78-.13-1.06-.47Q33.27,42.15,29.05,37a.86.86,0,0,0-.88-.36,17.76,17.76,0,0,1-8.37-.82.68.68,0,0,0-.75.17Q14,40.22,8.91,44.4l-.3.25a.82.82,0,0,1-1,.13.86.86,0,0,1-.41-.89c.2-2.08.4-4.15.59-6.23,0-.24.05-.49.08-.82l-.54-.05L1,36.18c-.43,0-.8-.14-.94-.59s.11-.75.44-1L9,27.5A5.46,5.46,0,0,1,9.51,27.19ZM27.34,1.71A16.8,16.8,0,1,0,42.45,20.09,16.83,16.83,0,0,0,27.34,1.71ZM37.69,44.8l.05-.5c.16-1.73.32-3.46.49-5.18.07-.75.37-1,1.12-.92l5.27.5H45l-6.11-7.39a18.92,18.92,0,0,1-8.31,4.89ZM10.45,28.69,3.11,34.75l5.56.53c.71.07,1,.38.9,1.09-.15,1.69-.32,3.38-.48,5.07,0,.21,0,.42-.06.56l8.56-7A18.56,18.56,0,0,1,10.45,28.69Z" fill="url(#a)"/><path d="M10.59,17A15.22,15.22,0,1,1,24.21,33.57,15.21,15.21,0,0,1,10.59,17Zm28.68,2.69A13.59,13.59,0,1,0,24.51,32,13.61,13.61,0,0,0,39.27,19.67Z" fill="url(#b)"/><path d="M20.65,15.52c.8.07,1.6.13,2.39.23a.54.54,0,0,0,.68-.38c.6-1.41,1.23-2.8,1.84-4.2.19-.43.43-.78,1-.71s.66.43.75.86c.34,1.51.7,3,1,4.53a.48.48,0,0,0,.51.45c1.63.14,3.25.31,4.88.45.46,0,.83.18.94.66s-.17.78-.57,1c-1.4.77-2.79,1.56-4.19,2.32a.48.48,0,0,0-.29.66c.34,1.41.65,2.82,1,4.23.1.43.12.84-.31,1.11s-.81.08-1.16-.22c-1.15-1-2.32-1.91-3.44-2.9a.62.62,0,0,0-.86-.06c-1.3.74-2.62,1.45-3.93,2.19a.86.86,0,0,1-1.26-1.15c.6-1.34,1.18-2.68,1.79-4a.46.46,0,0,0-.16-.66c-1.22-1-2.42-2-3.64-3-.36-.3-.64-.63-.43-1.11s.62-.54,1.09-.48C19.06,15.38,19.86,15.44,20.65,15.52Z" fill="url(#c)"/></svg>