<svg width="337" height="229" viewBox="0 0 337 229" fill="none" xmlns="http://www.w3.org/2000/svg">
<path d="M209.9 44.4609C212.1 38.9609 213.9 33.6609 216.5 28.7609C218.5 24.9609 221.2 21.3609 224.2 18.2609C231.2 10.8609 239.8 9.16092 249.2 12.9609C257.9 16.4609 265.7 21.5609 271.8 28.6609C281.6 40.0609 291 51.6609 300.7 63.0609C311.8 76.0609 323.2 88.9609 334.4 101.961C335.2 102.861 335.9 103.861 336.7 104.761C336.4 105.061 336.1 105.361 335.8 105.561C334.8 104.561 333.8 103.661 332.8 102.661C318.8 88.0609 306.1 72.4609 293.4 56.7609C285.4 46.9609 277.1 37.3609 268.7 27.8609C263.8 22.2609 257.4 18.4609 250.7 15.3609C239.6 10.2609 231 12.2609 223 21.6609C215.3 30.7609 211.8 41.5609 210.7 53.1609C209 70.1609 206 86.8609 201.6 103.361C196.5 121.861 191.3 140.361 183 157.761C174.2 176.261 161.2 190.961 142.5 199.861C139.2 201.461 135.8 203.061 132.7 204.861C124.3 209.761 115.2 211.361 105.7 211.661C104.2 211.661 102.6 211.561 101.3 212.061C100.2 212.461 98.9 213.661 98.7 214.761C98.5 215.761 99.1 217.461 100 218.161C100.6 218.661 102.4 218.361 103.1 217.761C104.9 216.161 106.5 214.861 109.9 215.161C107.8 216.461 106.3 217.261 104.9 218.161C103.7 218.961 102.4 220.061 103.8 221.361C104.4 221.961 106.3 221.661 107.3 221.161C108.7 220.461 109.8 219.061 111.1 218.161C111.7 217.761 112.5 217.761 113.5 218.161C112.2 219.261 110.9 220.261 109.6 221.361C108.7 222.161 107.7 223.261 108.9 224.461C110.2 225.761 111.1 224.661 111.9 223.761C113.6 221.861 115.4 220.161 117.8 219.561C118 219.761 118.2 220.061 118.3 220.261C116.6 221.761 114.8 223.261 112.9 224.961C115 226.861 116.5 226.261 118.2 225.061C119.9 223.761 121.8 222.661 123.7 221.661C124.2 221.361 124.9 221.561 125.7 222.161C123.9 223.161 122.2 224.261 119.8 225.661C126.5 227.461 132.4 226.861 138.2 225.761C148.5 223.861 158.7 221.361 169 219.461C175.3 218.361 181.7 217.761 188 217.161C191.7 216.761 195.2 216.161 198.3 213.861C201.7 211.361 203.3 208.061 202.7 203.961C202.3 201.061 201.7 197.961 200.5 195.261C198.1 189.861 198.7 184.961 202 180.261C213.6 163.961 225 147.561 236.9 131.461C244.3 121.561 250.8 111.261 253.9 99.1609C258.2 82.2609 256.4 65.9609 249 50.1609C248.5 49.0609 248 47.9609 247.5 46.8609C247.5 46.7609 247.6 46.6609 248 46.1609C248.6 46.8609 249.2 47.3609 249.6 48.0609C255.9 60.4609 258.7 73.6609 257.3 87.5609C256.8 92.2609 255.4 96.8609 254.8 101.561C254.4 105.161 254.4 108.861 254.7 112.561C256.5 130.961 262.6 147.761 272.7 163.261C273.2 164.061 273.7 165.061 274.4 166.461C271.1 164.561 267.6 159.561 263.2 149.461C260.4 143.161 258 136.561 256.2 129.861C254.4 123.361 253.6 116.561 252.3 109.661C251.8 110.361 251.3 111.061 251 111.861C247 121.161 240.9 128.961 234.7 136.661C232.8 138.961 232.6 140.861 233.8 143.561C242.2 162.561 256.6 175.061 275.6 182.661C276.8 183.161 278 183.661 279.8 184.461C274.1 185.261 259 177.161 250.3 169.361C241.9 161.761 235.7 152.661 231.2 141.561C228 145.961 225.2 149.761 222.5 153.661C216.1 162.761 209.8 172.061 203.4 181.161C200.3 185.561 199.6 189.961 201.9 194.961C203.1 197.461 203.7 200.361 204 203.261C204.9 210.261 201.9 215.061 195.2 217.561C193.2 218.261 191 218.861 188.8 218.961C175.8 219.361 163.1 222.161 150.5 225.061C140.2 227.461 130 229.661 119.4 227.961C116.5 227.461 113.6 227.161 110.6 227.061C108.8 226.961 107.4 226.661 106.4 225.061C106.2 224.761 105.8 224.361 105.5 224.261C101.3 223.861 99.5 220.161 96.7 217.861C94.9 216.461 92.9 215.361 90.8 214.461C84.8 211.761 78.5 211.361 72 212.661C58 215.361 43.9 217.961 29.8 220.261C26.5 220.861 23 220.861 19.6 220.461C17.3 220.161 14.9 219.061 13 217.661C9.49996 215.061 9.89996 210.861 13.4 208.461C17.5 205.661 21.9 203.261 26.6 201.661C29.7 200.561 33.1 200.061 36.4 199.261C37.3 199.061 38.2 198.861 39.1 198.561C39.7 198.361 40.3 197.661 40.9 197.661C46.2 197.761 49.7 194.261 53.8 191.661C55.9 190.261 58.4 189.261 60.9 188.561C77.1 184.061 89.7 174.061 101.3 162.461C113.4 150.261 122.6 135.961 131.8 121.661C141.5 106.561 151.5 91.5609 161.1 76.3609C164.9 70.2609 168 63.6609 171.5 57.3609C173.3 54.1609 174.9 50.7609 177.1 47.9609C183.1 40.3609 191 38.3609 200.1 41.1609C203.8 41.7609 206.8 43.2609 209.9 44.4609ZM96.3 214.761C97.8 210.661 101.1 210.361 104.9 210.361C109.3 210.361 113.8 209.961 118.6 208.161C118.6 203.561 118.6 198.961 118.6 194.461C118.6 190.661 119.1 186.961 121.7 184.161C129.1 175.761 136.2 167.161 145.4 160.661C152.9 155.261 160.5 149.961 168.1 144.661C174.6 140.261 180.1 134.861 185.1 128.861C193.5 118.661 198.4 107.361 195.9 93.7609C195.8 93.0609 195.9 92.2609 196 91.3609C196.5 91.5609 196.8 91.6609 196.9 91.8609C197.1 92.1609 197.3 92.5609 197.4 92.9609C198.9 100.961 198.2 108.661 194.8 116.161C189.4 128.161 180.8 137.461 170.3 145.061C165.1 148.761 159.9 152.561 154.5 156.061C142.5 163.761 132.7 173.661 123.6 184.361C122 186.261 120.6 188.761 120.3 191.161C119.7 195.661 119.9 200.361 119.8 204.961C119.8 205.961 120 206.961 120.1 208.361C122.1 207.661 123.8 207.161 125.4 206.361C130.9 203.661 136.3 200.861 141.9 198.261C158.8 190.161 170.9 177.161 179.4 160.861C188.1 144.161 193.6 126.161 198.6 108.061C203.3 90.9609 207.1 73.6609 208.6 56.0609C208.9 52.8609 211.4 49.0609 208.7 46.4609C206.4 44.2609 202.7 43.2609 199.5 42.2609C190.9 39.6609 183.6 42.0609 178.2 49.2609C176.4 51.6609 175.1 54.3609 173.7 56.9609C169.6 64.3609 165.9 71.9609 161.5 79.0609C151 95.7609 140.3 112.361 129.3 128.761C122.4 138.961 115.2 149.261 107.2 158.561C94.9 172.761 80.5 184.561 61.8 189.861C56.6 191.361 52.3 194.361 48.4 198.161C41.7 204.861 33.7 208.761 24 208.661C22.8 208.661 21.6 208.861 20.3 208.961C20.1 213.061 17.8 214.961 13.8 215.461C15.7 217.661 17.8 218.661 20.2 218.661C23.5 218.761 26.8 218.961 30 218.361C44.1 215.961 58.1 213.361 72.2 210.761C78.4 209.561 84.4 209.661 90.2 212.061C92.1 212.761 94 213.761 96.3 214.761ZM41.3 201.561C36.7 199.061 32.9 201.961 28.8 202.961C30.4 203.061 32 203.161 33.7 203.261C29.5 206.361 24.1 203.661 20 206.661C27.6 207.361 34.8 206.361 41.3 201.561ZM18 208.961C14 209.361 13.6 209.661 13.2 212.861C17.1 213.361 17.6 213.061 18 208.961ZM44.7 199.461C44.6 199.161 44.6 198.761 44.5 198.461C44 198.561 43.4 198.661 42.9 198.861C42.9 198.861 43 199.461 43.1 199.761C43.6 199.661 44.1 199.561 44.7 199.461Z" fill="#B88A5E" fill-opacity="0.1"/>
<path d="M195 188.961C194.3 193.061 193.8 197.361 190.8 200.661C188.4 203.261 186.1 203.061 183.2 200.161C183.6 200.061 184 199.761 184.2 199.861C188.3 201.261 189.7 200.761 191.3 196.761C192.3 194.161 193 191.461 193.9 188.761C194.2 188.761 194.6 188.861 195 188.961Z" fill="#B88A5E" fill-opacity="0.1"/>
<path d="M94.2002 184.261C102 187.961 104.9 188.061 110.4 180.461C110.9 183.461 108.9 186.061 105.2 187.561C101.1 189.261 97.0002 188.261 94.2002 184.261Z" fill="#B88A5E" fill-opacity="0.1"/>
<path d="M199.9 34.3999C202.1 28.8999 203.9 23.5999 206.5 18.6999C208.5 14.8999 211.2 11.2999 214.2 8.19989C221.2 0.799887 229.8 -0.900113 239.2 2.89989C247.9 6.39989 255.7 11.4999 261.8 18.5999C271.6 29.9999 281 41.5999 290.7 52.9999C301.8 65.9999 313.2 78.8999 324.4 91.8999C325.2 92.7999 325.9 93.7999 326.7 94.6999C326.4 94.9999 326.1 95.2999 325.8 95.4999C324.8 94.4999 323.8 93.5999 322.8 92.5999C308.8 77.9999 296.1 62.3999 283.4 46.6999C275.4 36.8999 267.1 27.2999 258.7 17.7999C253.8 12.1999 247.4 8.39989 240.7 5.29989C229.6 0.199888 221 2.19989 213 11.5999C205.3 20.6999 201.8 31.4999 200.7 43.0999C199 60.0999 196 76.7999 191.6 93.2999C186.5 111.8 181.3 130.3 173 147.7C164.2 166.2 151.2 180.9 132.5 189.8C129.2 191.4 125.8 193 122.7 194.8C114.3 199.7 105.2 201.3 95.7 201.6C94.2 201.6 92.6 201.5 91.3 202C90.2 202.4 88.9 203.6 88.7 204.7C88.5 205.7 89.1 207.4 90 208.1C90.6 208.6 92.4 208.3 93.1 207.7C94.9 206.1 96.5 204.8 99.9 205.1C97.8 206.4 96.3 207.2 94.9 208.1C93.7 208.9 92.4 210 93.8 211.3C94.4 211.9 96.3 211.6 97.3 211.1C98.7 210.4 99.8 209 101.1 208.1C101.7 207.7 102.5 207.7 103.5 208.1C102.2 209.2 100.9 210.2 99.6 211.3C98.7 212.1 97.7 213.2 98.9 214.4C100.2 215.7 101.1 214.6 101.9 213.7C103.6 211.8 105.4 210.1 107.8 209.5C108 209.7 108.2 210 108.3 210.2C106.6 211.7 104.8 213.2 102.9 214.9C105 216.8 106.5 216.2 108.2 215C109.9 213.7 111.8 212.6 113.7 211.6C114.2 211.3 114.9 211.5 115.7 212.1C113.9 213.1 112.2 214.2 109.8 215.6C116.5 217.4 122.4 216.8 128.2 215.7C138.5 213.8 148.7 211.3 159 209.4C165.3 208.3 171.7 207.7 178 207.1C181.7 206.7 185.2 206.1 188.3 203.8C191.7 201.3 193.3 198 192.7 193.9C192.3 191 191.7 187.9 190.5 185.2C188.1 179.8 188.7 174.9 192 170.2C203.6 153.9 215 137.5 226.9 121.4C234.3 111.5 240.8 101.2 243.9 89.0999C248.2 72.1999 246.4 55.8999 239 40.0999C238.5 38.9999 238 37.8999 237.5 36.7999C237.5 36.6999 237.6 36.5999 238 36.0999C238.6 36.7999 239.2 37.2999 239.6 37.9999C245.9 50.3999 248.7 63.5999 247.3 77.4999C246.8 82.1999 245.4 86.7999 244.8 91.4999C244.4 95.0999 244.4 98.7999 244.7 102.5C246.5 120.9 252.6 137.7 262.7 153.2C263.2 154 263.7 155 264.4 156.4C261.1 154.5 257.6 149.5 253.2 139.4C250.4 133.1 248 126.5 246.2 119.8C244.4 113.3 243.6 106.5 242.3 99.5999C241.8 100.3 241.3 101 241 101.8C237 111.1 230.9 118.9 224.7 126.6C222.8 128.9 222.6 130.8 223.8 133.5C232.2 152.5 246.6 165 265.6 172.6C266.8 173.1 268 173.6 269.8 174.4C264.1 175.2 249 167.1 240.3 159.3C231.9 151.7 225.7 142.6 221.2 131.5C218 135.9 215.2 139.7 212.5 143.6C206.1 152.7 199.8 162 193.4 171.1C190.3 175.5 189.6 179.9 191.9 184.9C193.1 187.4 193.7 190.3 194 193.2C194.9 200.2 191.9 205 185.2 207.5C183.2 208.2 181 208.8 178.8 208.9C165.8 209.3 153.1 212.1 140.5 215C130.2 217.4 120 219.6 109.4 217.9C106.5 217.4 103.6 217.1 100.6 217C98.8 216.9 97.4 216.6 96.4 215C96.2 214.7 95.8 214.3 95.5 214.2C91.3 213.8 89.5 210.1 86.7 207.8C84.9 206.4 82.9 205.3 80.8 204.4C74.8 201.7 68.5 201.3 62 202.6C48 205.3 33.9 207.9 19.8 210.2C16.5 210.8 13 210.8 9.59996 210.4C7.29996 210.1 4.89996 209 2.99996 207.6C-0.500041 205 -0.100041 200.8 3.39996 198.4C7.49996 195.6 11.9 193.2 16.6 191.6C19.7 190.5 23.1 190 26.4 189.2C27.3 189 28.2 188.8 29.1 188.5C29.7 188.3 30.3 187.6 30.9 187.6C36.2 187.7 39.7 184.2 43.8 181.6C45.9 180.2 48.4 179.2 50.9 178.5C67.1 174 79.7 164 91.3 152.4C103.4 140.2 112.6 125.9 121.8 111.6C131.5 96.4999 141.5 81.4999 151.1 66.2999C154.9 60.1999 158 53.5999 161.5 47.2999C163.3 44.0999 164.9 40.6999 167.1 37.8999C173.1 30.2999 181 28.2999 190.1 31.0999C193.8 31.6999 196.8 33.1999 199.9 34.3999ZM86.3 204.7C87.8 200.6 91.1 200.3 94.9 200.3C99.3 200.3 103.8 199.9 108.6 198.1C108.6 193.5 108.6 188.9 108.6 184.4C108.6 180.6 109.1 176.9 111.7 174.1C119.1 165.7 126.2 157.1 135.4 150.6C142.9 145.2 150.5 139.9 158.1 134.6C164.6 130.2 170.1 124.8 175.1 118.8C183.5 108.6 188.4 97.2999 185.9 83.6999C185.8 82.9999 185.9 82.1999 186 81.2999C186.5 81.4999 186.8 81.5999 186.9 81.7999C187.1 82.0999 187.3 82.4999 187.4 82.8999C188.9 90.8999 188.2 98.5999 184.8 106.1C179.4 118.1 170.8 127.4 160.3 135C155.1 138.7 149.9 142.5 144.5 146C132.5 153.7 122.7 163.6 113.6 174.3C112 176.2 110.6 178.7 110.3 181.1C109.7 185.6 109.9 190.3 109.8 194.9C109.8 195.9 110 196.9 110.1 198.3C112.1 197.6 113.8 197.1 115.4 196.3C120.9 193.6 126.3 190.8 131.9 188.2C148.8 180.1 160.9 167.1 169.4 150.8C178.1 134.1 183.6 116.1 188.6 97.9999C193.3 80.8999 197.1 63.5999 198.6 45.9999C198.9 42.7999 201.4 38.9999 198.7 36.3999C196.4 34.1999 192.7 33.1999 189.5 32.1999C180.9 29.5999 173.6 31.9999 168.2 39.1999C166.4 41.5999 165.1 44.2999 163.7 46.8999C159.6 54.2999 155.9 61.8999 151.5 68.9999C141 85.6999 130.3 102.3 119.3 118.7C112.4 128.9 105.2 139.2 97.2 148.5C84.9 162.7 70.5 174.5 51.8 179.8C46.6 181.3 42.3 184.3 38.4 188.1C31.7 194.8 23.7 198.7 14 198.6C12.8 198.6 11.6 198.8 10.3 198.9C10.1 203 7.79996 204.9 3.79996 205.4C5.69996 207.6 7.79996 208.6 10.2 208.6C13.5 208.7 16.8 208.9 20 208.3C34.1 205.9 48.1 203.3 62.2 200.7C68.4 199.5 74.4 199.6 80.2 202C82.1 202.7 84 203.7 86.3 204.7ZM31.3 191.5C26.7 189 22.9 191.9 18.8 192.9C20.4 193 22 193.1 23.7 193.2C19.5 196.3 14.1 193.6 9.99996 196.6C17.6 197.3 24.8 196.3 31.3 191.5ZM7.99996 198.9C3.99996 199.3 3.59996 199.6 3.19996 202.8C7.09996 203.3 7.59996 203 7.99996 198.9ZM34.7 189.4C34.6 189.1 34.6 188.7 34.5 188.4C34 188.5 33.4 188.6 32.9 188.8C32.9 188.8 33 189.4 33.1 189.7C33.6 189.6 34.1 189.5 34.7 189.4Z" fill="#B88A5E"/>
<path d="M185 178.9C184.3 183 183.8 187.3 180.8 190.6C178.4 193.2 176.1 193 173.2 190.1C173.6 190 174 189.7 174.2 189.8C178.3 191.2 179.7 190.7 181.3 186.7C182.3 184.1 183 181.4 183.9 178.7C184.2 178.7 184.6 178.8 185 178.9Z" fill="#B88A5E"/>
<path d="M84.2002 174.2C92.0002 177.9 94.9002 178 100.4 170.4C100.9 173.4 98.9002 176 95.2002 177.5C91.1002 179.2 87.0002 178.2 84.2002 174.2Z" fill="#B88A5E"/>
</svg>
