<svg xmlns="http://www.w3.org/2000/svg" xmlns:xlink="http://www.w3.org/1999/xlink" viewBox="0 0 410.9 68.53"><defs><linearGradient id="a" x1="91.27" y1="139.74" x2="320.37" y2="-89.36" gradientUnits="userSpaceOnUse"><stop offset="0.01" stop-color="#49191c"/><stop offset="0.08" stop-color="#76522f"/><stop offset="0.38" stop-color="#a88c5c"/><stop offset="0.56" stop-color="#b49a6c"/><stop offset="0.8" stop-color="#9a8065"/><stop offset="0.96" stop-color="#845c34"/></linearGradient></defs><path d="M354.2,62.07c-1.14,1.69-4.37,3.09-7.36,3.2-24.41.85-46.65,1.18-68,1-7.34-.06-14.78,0-22,.13-12.23.16-24.89.32-37.29-.3-21.19-1.06-42.72-.7-61.71-.38-16.74.29-33.76.28-50.22.27H97c-8.67,0-18,.09-27.65.75a46.38,46.38,0,0,1-7.19-.45c-1.55-.18-3.48-.8-4.23-2A4.67,4.67,0,0,1,57.79,61l0-.21a30.53,30.53,0,0,0-1.49-16.17c-.94-2.64-.61-5.25-.26-8a28.09,28.09,0,0,0,.31-5.76l-.13-1.62c-.1-1.39-.2-2.67-.36-4.18a12.26,12.26,0,0,1,.43-5.86c.14-.36.25-.7.36-1.05a8.58,8.58,0,0,0,4.13.91c18,.6,36.37.53,51.51-.19,14.41,0,29-.21,43.12-.45,24.77-.42,50.38-.86,75.62.27,20.54.91,41.61,1.15,66.33.74h1.06c10.95-.18,22.27-.37,33.42.12l.72,0c6.25.27,14,.62,20.17-.29a7.45,7.45,0,0,0,1.35-.32,11.06,11.06,0,0,1,.09,2.65,9.77,9.77,0,0,0,.32,3.89c.93,2.62.9,4.75.87,7.7,0,1.21,0,2.53,0,4a48,48,0,0,1-.21,5.26,39.25,39.25,0,0,0-.15,6.44,27.06,27.06,0,0,0,.75,4.13c.21.91.43,1.83.57,2.75C356.72,58,355.3,60.43,354.2,62.07Zm47.22-24.78c-3.37-3.73-6.86-7.59-10.71-11.29a6.37,6.37,0,0,1-2-2.65c-.4-1.73,1.54-3.45,3.38-4.92,3.44-2.74,6.76-5.67,10-8.51,2.67-2.35,5.43-4.79,8.23-7.09A1.31,1.31,0,0,0,410.66,1a2.63,2.63,0,0,0-2.25-1,149.71,149.71,0,0,0-15.26,1.26c-8.92.42-18.18.44-27.52.06l-1.39-.06c-12.35-.5-18-.72-30.93.57a41.43,41.43,0,0,0-6.17,1c-1,.22-2.07.46-4,.81-2.82.5-4.34,1.41-4.5,2.69a1.33,1.33,0,0,0,0,.4c0,1.5-.07,2.93-.13,4.32a59.87,59.87,0,0,0,0,6.43c-6.76,0-13.49.06-20.09.17l-1.06,0c-24.64.4-45.65.16-66.11-.75-25.35-1.13-51-.69-75.84-.27-14.1.24-28.68.49-43.14.45-5.85.28-12.16.46-18.74.54a45.48,45.48,0,0,1-.18-6.18c0-1.71.06-3.48-.07-5.32h0c.08-2.13-4.62-2.9-6.48-3s-9-.35-11-.35C62.49,2.69,50.75,2.35,39.4,2S16.28,1.34,2.9,1.3a3.55,3.55,0,0,0-2.22.57C.25,2.21-.3,3,.86,4.23c5.94,6.35,11.29,10.9,15.88,13.52,2.84,1.62,7.58,4.83,7.49,8.17,0,1.87-1.77,3.53-3.86,5.35a58.12,58.12,0,0,1-8.73,6A59.67,59.67,0,0,0,2.57,43.5,8,8,0,0,0,.19,46.33,2.81,2.81,0,0,0,1.78,50a8.5,8.5,0,0,0,3.27.62c11.18.5,22.46.76,33.73.76q8.36,0,16.67-.19a28.63,28.63,0,0,1-.13,9.41l0,.2A5.69,5.69,0,0,0,55.66,65c1,1.57,3.27,2.7,6.12,3a60.67,60.67,0,0,0,6.56.5c.45,0,.88,0,1.29,0,9.52-.65,18.8-.74,27.41-.74h10.64c16.47,0,33.51,0,50.28-.27,18.94-.32,40.4-.68,61.47.37,12.52.63,25.23.47,37.52.31,7.18-.09,14.6-.19,21.9-.13,21.37.19,43.65-.14,68.12-1,3.9-.13,8-1.94,9.5-4.21,1.24-1.83,2.83-4.57,2.4-7.23-.15-1-.37-1.89-.6-2.84-.12-.5-.22-1-.33-1.48,4.7.1,14.17,0,21.95,0,3.95,0,7.32,0,9.09,0a155.35,155.35,0,0,0,18.16-1.28l1.13,0a3,3,0,0,0,2.33-1.06,1.47,1.47,0,0,0-.22-2C407.24,43.72,404.28,40.45,401.42,37.29ZM321.05,11.07c0-.69.06-1.38.08-2.08a12.25,12.25,0,0,0,1.58.51,113.06,113.06,0,0,0,11.57,2.31c2.39.38,4.87.77,8.21,1.45a28.69,28.69,0,0,1,7.87,2.47c.68.31,1.46.65,2.43,1.07.55.23.64.35.67.33a2.77,2.77,0,0,1-1.22.39c-5.82.86-13.4.52-19.49.25l-.72,0c-3.67-.17-7.35-.24-11-.28A59.14,59.14,0,0,1,321.05,11.07ZM58.76,15.17a10.07,10.07,0,0,1,3.25-1c3.57-.66,7.76-1.29,11.82-1.9s8.31-1.24,11.93-1.91a20.81,20.81,0,0,0,5.07-1.48c0,.84,0,1.67,0,2.49A52.36,52.36,0,0,0,91,17.62c-9.7.09-19.91,0-30-.37-1.14,0-2.35-.14-2.77-.6S58.18,15.54,58.76,15.17ZM5.21,48.8a5.69,5.69,0,0,1-2-.31,1.33,1.33,0,0,1-.59-1.7,6.75,6.75,0,0,1,1.92-2.18,56.68,56.68,0,0,1,8.73-6,59.67,59.67,0,0,0,9.07-6.23c1.83-1.6,4.34-3.8,4.41-6.43.11-4.09-5.23-7.75-8.42-9.57C13.93,13.87,8.77,9.46,3,3.25a.86.86,0,0,1-.16-.18h.08c13.33,0,25.06.38,36.41.71s23.13.68,36.51.72c1.89,0,9,.23,10.73.34,2.23.14,4.24.87,4.2,1.23-.17,1.43-3.29,2.17-5.62,2.61-3.57.66-7.76,1.29-11.82,1.89S65,11.82,61.37,12.49a15.94,15.94,0,0,0-3.37.9h0c-2.68.9-3.21,2.56-3.72,4.17-.12.37-.24.75-.39,1.14a13.52,13.52,0,0,0-.52,6.47c.16,1.49.26,2.76.37,4.14l.13,1.62a28,28,0,0,1-.31,5.5c-.35,2.79-.71,5.67.32,8.6a35.47,35.47,0,0,1,1.24,4.35C38.54,49.73,21.76,49.55,5.21,48.8Zm349,13.27c-1.14,1.69-4.37,3.09-7.36,3.2-24.41.85-46.65,1.18-68,1-7.34-.06-14.78,0-22,.13-12.23.16-24.89.32-37.29-.3-21.19-1.06-42.72-.7-61.71-.38-16.74.29-33.76.28-50.22.27H97c-8.67,0-18,.09-27.65.75a46.38,46.38,0,0,1-7.19-.45c-1.55-.18-3.48-.8-4.23-2A4.67,4.67,0,0,1,57.79,61l0-.21a30.53,30.53,0,0,0-1.49-16.17c-.94-2.64-.61-5.25-.26-8a28.09,28.09,0,0,0,.31-5.76l-.13-1.62c-.1-1.39-.2-2.67-.36-4.18a12.26,12.26,0,0,1,.43-5.86c.14-.36.25-.7.36-1.05a8.58,8.58,0,0,0,4.13.91c18,.6,36.37.53,51.51-.19,14.41,0,29-.21,43.12-.45,24.77-.42,50.38-.86,75.62.27,20.54.91,41.61,1.15,66.33.74h1.06c10.95-.18,22.27-.37,33.42.12l.72,0c6.25.27,14,.62,20.17-.29a7.45,7.45,0,0,0,1.35-.32,11.06,11.06,0,0,1,.09,2.65,9.77,9.77,0,0,0,.32,3.89c.93,2.62.9,4.75.87,7.7,0,1.21,0,2.53,0,4a48,48,0,0,1-.21,5.26,39.25,39.25,0,0,0-.15,6.44,27.06,27.06,0,0,0,.75,4.13c.21.91.43,1.83.57,2.75C356.72,58,355.3,60.43,354.2,62.07Zm54.14-14a.19.19,0,0,1-.17.08l-1.31.06A155.81,155.81,0,0,1,389,49.45c-1.79,0-5.17,0-9.13,0-7.58,0-17.71.12-22.22,0,0-.23-.08-.45-.1-.68a39.46,39.46,0,0,1,.15-6.24,47.78,47.78,0,0,0,.22-5.4c-.05-1.49,0-2.79,0-4,0-3,.08-5.3-.93-8.15a8.47,8.47,0,0,1-.25-3.39,7.78,7.78,0,0,0-.82-4.84c-.26-.85-1.36-1.34-1.8-1.53-1-.4-1.72-.74-2.39-1a31.39,31.39,0,0,0-8.52-2.68c-3.41-.69-5.93-1.09-8.36-1.48a109.16,109.16,0,0,1-11.26-2.24c-1.21-.31-2.48-.84-2.41-1.39s1.67-1,2.61-1.14c2-.35,3.18-.62,4.14-.84a38.74,38.74,0,0,1,5.76-.89c12.69-1.27,18.25-1,30.43-.55l1.39.06c9.44.38,18.8.36,27.95-.07,4.89-.58,9.93-1.17,15-1.34-2.83,2.32-5.61,4.77-8.29,7.14-3.19,2.82-6.5,5.74-9.89,8.44-2.22,1.78-4.55,3.88-4,6.37A7.64,7.64,0,0,0,388.68,27c3.79,3.65,7.26,7.49,10.62,11.2,2.87,3.18,5.85,6.46,9,9.63A.13.13,0,0,1,408.34,48.05Z" fill="url(#a)"/><path d="M94,33.93a1.51,1.51,0,0,1-1.09.34,46.09,46.09,0,0,1-3.64,5.49,7.29,7.29,0,0,1,3.4,5.91c0,2.34-.82,3.74-3.45,3.79A6.71,6.71,0,0,0,89,47.33a1.85,1.85,0,0,0-1-.57v6.1a2.45,2.45,0,0,1-2.17.89h-.49V31.69l3,1.13h1.64l1.42-1.4Zm-4.9,12.49a1.08,1.08,0,0,0,.56-.12c.31-.19.5-.63.5-1.38a8.72,8.72,0,0,0-1.51-5.08c.45-1.57,1.08-4.42,1.39-6.32H88v12.9Zm8.59-.34c-.1.24-.34.31-.8.27a14.66,14.66,0,0,1-5.81,5.42l-.19-.29a16.76,16.76,0,0,0,3.57-6.77ZM101.23,32c-.08.29-.32.44-1,.51,1.44,2.29,4.55,3.54,7.09,4.29v.31a3.17,3.17,0,0,0-2,2.63,12.69,12.69,0,0,1-5.38-7c-1.59,3.18-5.11,6.15-8.58,7.79l-.17-.22c2.75-2.29,5.55-6.39,6.15-9.21Zm-.61,11.38v7.06c0,1.81-.41,3-3.28,3.26a3.58,3.58,0,0,0-.41-1.86A2.51,2.51,0,0,0,95.15,51v-.34s1.93.12,2.36.12.46-.14.46-.41v-7H92.76l-.17-.7H98V39.6H94.72l-.2-.7h6l1.35-1.67s1.52,1.14,2.46,2c-.07.27-.31.39-.65.39h-3.09v3.08h2.12l1.4-1.86s1.57,1.31,2.51,2.17c-.07.27-.34.39-.67.39Zm1.11,1.54c7.35,2.8,5.11,8.1,2.51,6A18.3,18.3,0,0,0,101.49,45Z" fill="#fff"/><path d="M134.71,49.79c1,.36,1.26.73,1.26,1.33,0,1.35-1.26,1.83-6.68,1.83h-3.18c-3,0-4.13-.5-4.13-2.92v-4.6l-8.58,1-.26-.65L122,44.75V40.42l-7.06.89-.27-.65,7.33-.92V35.67c-2.65.38-5.4.67-8,.82l0-.37c5.79-1.06,12.88-3.2,16.44-5l2.87,2.58c-.26.24-.79.29-1.56,0A66.81,66.81,0,0,1,125,35.18v4.17l3.62-.45,1.49-2.39s2.1,1.16,3.45,2A.66.66,0,0,1,133,39L125,40v4.36l5.91-.72,1.49-2.39s2.17,1.16,3.52,2c0,.29-.29.46-.62.51L125,45.07v4.22c0,.65.31.84,1.45.84h3.11c1.08,0,2,0,2.48,0a1.07,1.07,0,0,0,.87-.46A19.7,19.7,0,0,0,134.38,46h.24Z" fill="#fff"/><path d="M148.12,38.27c-.07.22-.27.39-.73.46V52.9a3.28,3.28,0,0,1-2.26.82h-.51V41.38A21.35,21.35,0,0,1,142.16,44l-.31-.2a47.17,47.17,0,0,0,4.41-12.72l4,1.15c-.1.32-.41.51-1,.51A36.12,36.12,0,0,1,147,37.84Zm0,15.16a19,19,0,0,0,5.77-4.31l3.3,1.86c-.19.26-.63.4-1.35.28a23.26,23.26,0,0,1-7.6,2.44Zm11.58-19.74v1.9H161l1.21-1.3,2.53,1.91a1.21,1.21,0,0,1-.77.38v3.18a4.35,4.35,0,0,1-2,.63l1.83,1.4a1.3,1.3,0,0,1-.84.46v6.92a4.25,4.25,0,0,1-2.29.72h-.48v-1h-7.09v.51c0,.24-1.18.84-2.29.84h-.39V40.68a2.81,2.81,0,0,1-.65.07h-.36V34.48l2.82,1.11h1.3v-1.9h-3.9l-.19-.7h11.06L162,31.06s1.73,1.3,2.82,2.24c-.07.27-.34.39-.68.39Zm1.52,6.15v-.1H152V40c0,.09-.29.29-.72.46l1.91.77h6.72ZM152,36.27V39h1.47V36.27Zm8.13,7.21V41.86h-7.09v1.62Zm-7.09,2.34h7.09V44.15h-7.09Zm7.09,2.36V46.49h-7.09v1.69Zm-2.82-14.49h-1.5v1.9h1.5Zm0,5.35V36.27h-1.5V39Zm.09,10.63c11.41.61,6.54,5.67,4.32,3.52a9.79,9.79,0,0,0-4.41-3.2Zm2.25-13.4V39h1.52V36.27Z" fill="#fff"/><path d="M191.44,33.79a1.65,1.65,0,0,1-1.06.55V52.49a4.07,4.07,0,0,1-2.6.94h-.46v-2h-9.77v1.16c0,.38-1.18,1.11-2.48,1.11h-.5V31.81l3.18,1.3h9.3l1.47-1.69Zm-13.89,0v5.08h9.77V33.79Zm0,5.76v5.18h9.77V39.55Zm9.77,11.18v-5.3h-9.77v5.3Z" fill="#fff"/><path d="M222.13,44.13c-.14.22-.36.36-.89.24A32.55,32.55,0,0,1,216,46.68a13.67,13.67,0,0,0,6.73,3l-.05.34a3.89,3.89,0,0,0-2.27,3.06c-4.29-1.81-6.89-5.43-8.15-11.38a14.61,14.61,0,0,1-3.45,3.21v5.37c1.5-.41,3.31-.89,5.12-1.4l.09.27c-1.4.94-3.93,2.63-7,4.39a2.45,2.45,0,0,1-.53.5l-1.85-2.84c1.11-.61,1.28-.87,1.28-1.3V46.54a32.37,32.37,0,0,1-6,2.24l-.14-.31a22.43,22.43,0,0,0,8.44-6.9h-7.72l-.19-.7h9.5V38.05h-6.92l-.19-.67h7.11V34.7h-8.08l-.22-.7h8.3V31l3.81.31c-.05.34-.27.58-.9.68v2h4.63l1.47-2s1.67,1.36,2.66,2.3c-.08.26-.32.38-.66.38h-8.1v2.68h3.81l1.43-2s1.64,1.33,2.6,2.25c-.07.26-.34.38-.68.38h-7.16v2.82h5.45l1.52-2s1.69,1.37,2.7,2.34c-.07.26-.34.38-.67.38h-9a11.9,11.9,0,0,0,2.72,4.58A26.63,26.63,0,0,0,218.9,42Z" fill="#fff"/><path d="M272.41,40.31s1.14.92,1.8,1.57c0,.17-.21.25-.43.25h-1.35v8.22c0,.11-.55.49-1.49.49h-.32V42.13h-1.51v.57c0,2.81-.26,6.08-3.77,8.14l-.17-.18c1.95-2.26,2.17-5.13,2.17-8v-.44a.54.54,0,0,1-.35.11h-3v1.87h.73l.82-1.12s.91.77,1.45,1.3c-.05.18-.19.26-.41.26H264v5.78c0,.09-.54.39-1.45.39h-.31V46.26h-.05a10.74,10.74,0,0,1-2.71,3.48l-.15-.18a13.73,13.73,0,0,0,1.4-4.43l1.51.66V44.65H259.7l-.13-.44h2.68V42.34H259.4l-.13-.46h4.22a23.45,23.45,0,0,0,.7-3h-3.33c3.21,1.44,1.57,3.82.39,2.61a6.58,6.58,0,0,0-.64-2.57l.1,0h-1.07l-.13-.45h3.3a2.17,2.17,0,0,1-.38-.22,4.47,4.47,0,0,0-.83-2.11l.13-.08c2.84.41,2.7,2,1.84,2.41h1l.8-1.12s.95.77,1.51,1.32c-.05.18-.2.25-.42.25h-2l1.89.59a.5.5,0,0,1-.58.28,19.27,19.27,0,0,1-1.84,2.09H265l.87-1.16s.88.73,1.46,1.29V37.38l1.84.59A16,16,0,0,0,272,36.1l1.94,1.54c-.18.15-.49.18-1,0a22.92,22.92,0,0,1-3.84.82v3.18h2.3Zm-8.18,5c3.5,1.47,1.94,4.19.67,3a6.08,6.08,0,0,0-.83-2.89Z" fill="#fff"/><path d="M287.3,41a1.32,1.32,0,0,1-.78.24,12.13,12.13,0,0,1-2.61,2.31A23.22,23.22,0,0,0,290,44.87l0,.18a2,2,0,0,0-1.45,1.69c-.42-.1-.83-.19-1.24-.3l0,0a1,1,0,0,1-.53.28v3.52a3.08,3.08,0,0,1-1.54.44h-.31v-1h-4.61v.6a1.75,1.75,0,0,1-1.48.55h-.33V46.12a26.26,26.26,0,0,1-3.2.8l-.1-.17a21.35,21.35,0,0,0,6.45-3.25,10.2,10.2,0,0,1-1.39-1.79,13.08,13.08,0,0,1-4.1,2.42l-.14-.19a13.93,13.93,0,0,0,4.16-5.24h-2.43a2.23,2.23,0,0,1-.83,2.22.92.92,0,1,1-.85-1.57,2.29,2.29,0,0,0,1.14-2h.22a5.72,5.72,0,0,1,.26.88h4.62a1.28,1.28,0,0,1-.29-.14,3,3,0,0,0-1.08-1.87l.11-.1c3.14-.17,3.05,1.7,2.07,2.11h4.18l.93-.94,1.64,1.55c-.13.14-.3.17-.62.19a11.57,11.57,0,0,1-2,1.6l-.15-.11a15.18,15.18,0,0,0,.33-1.84h-6.88l2.06.92a.62.62,0,0,1-.68.25c-.12.17-.25.33-.37.49h2.76l1.21-1Zm-2.21,4.68a12,12,0,0,1-2.44-1.36,22.09,22.09,0,0,1-3,1.38l.88.33h4.25Zm-.17,3.52V46.5h-4.61v2.73Zm-3.76-8.42q-.29.31-.57.6a7.52,7.52,0,0,0,1.83,1.44,10.56,10.56,0,0,0,1.82-2Z" fill="#fff"/><path d="M297.5,43.67a1,1,0,0,1-.63.31v5.08c0,1-.21,1.53-1.72,1.67a1.71,1.71,0,0,0-.23-.93,1.38,1.38,0,0,0-.91-.44v-.24s.95.08,1.21.08.26-.09.26-.28v-2c-.26.3-.58.64-.91,1a.59.59,0,0,1-.33.4l-.55-1.13a4.61,4.61,0,0,1-2.37,3.6l-.16-.19c1.1-1.35,1.16-3.09,1.16-4.76V42.79a.94.94,0,0,1-.26.44A.71.71,0,0,1,291,43a.79.79,0,0,1,.44-1,1.5,1.5,0,0,0,.38-1.31l.25,0a3.84,3.84,0,0,1,.2.6h.17V36.63l1.34.57h1.62l.6-.79,1.51,1.08a1,1,0,0,1-.73.3v3.38l.46-.45.88.86V37.34l1.55.61h.49V36.16l1.37.16c0,.15-.13.28-.38.33V38h.68V36.16l1.43.16c0,.18-.14.29-.44.36V38h.63l.67-.79,1.4,1.06a.78.78,0,0,1-.58.26v3.78s-.14.12-.38.22c.32.23.8.61,1.17.92-.05.18-.21.25-.43.25h-7.5l-.12-.45h5.78l.51-.61h-.48v-.28h-4v.16c0,.11-.43.37-1.15.37h-.22V42a1.47,1.47,0,0,1-.32,0c-.26.31-.7.81-1,1.08L296.6,43c0-.28.08-.77.11-1.16h-4.34a2.34,2.34,0,0,1,0,.88l1.63.62h1.35l.63-.76Zm-3.89-2.29h.55V38.55l1.06.47h.34V37.65h-1.95Zm.16,4.51c0,.3,0,.61,0,.94l1.74-.58v-.63a.67.67,0,0,1-.7.16,4.55,4.55,0,0,0-1-.82Zm0-2.12v.8c.94-.14,1.48,0,1.71.3v-1.1ZM295,41.38h.56V39.47H295Zm9.38,7.23s1,.73,1.56,1.27c-.05.17-.21.25-.44.25h-8.27l-.13-.46H300a1,1,0,0,1-.46-.28,4.34,4.34,0,0,0-.3-1.57,2.67,2.67,0,0,1-.42,0h-.27v-4l1.68.66h2.45l.73-.82,1.46,1.09c-.08.14-.24.22-.57.28V47.3a1.76,1.76,0,0,1-1.16.35l1.16.39c-.06.17-.25.3-.6.27a17,17,0,0,1-1.47,1.36h1.25Zm-4.9-10.22V39.9h.67V38.39Zm.67,2h-.67v1.52h.67Zm-.06,7.13s-.08.13-.25.19c1.6.74,1.3,1.79.64,2h1.27a17.79,17.79,0,0,0,.7-2.27l.29.09v-.3h-2.65Zm0-2.51v1.76h2.65V45Zm1.05-6.59V39.9h.68V38.39Zm0,3.49h.68V40.36h-.68Zm1.67-3.49V39.9h.67V38.39Zm.67,3.49V40.36h-.67v1.52Z" fill="#fff"/><path d="M307.94,45.89c1.35,4.54-2.08,3.89-1,2.35a3.29,3.29,0,0,0,.75-2.35Zm10.43-9.13c0,.17-.18.26-.64.31a7.37,7.37,0,0,0,4.18,2.22l0,.2c-.59.24-.84,1-.94,1.74a8.8,8.8,0,0,1-3.39-4A11.15,11.15,0,0,1,313,41.42l.54.51c0,.17-.19.25-.41.25h-1.86V44h.38l.77-.77,1.21,1v-2.8L315,42h.63l.59-.69,1.25,1a.92.92,0,0,1-.57.25v2.89a1.49,1.49,0,0,1-1,.31h-.21v-.61h-.85v.41c0,.09-.37.33-1,.33h-.2V44.54a3.83,3.83,0,0,1-.41.11c-.12,3.69-.41,5.09-1.08,5.67a2.36,2.36,0,0,1-1.61.52,1.49,1.49,0,0,0-.22-1,1.5,1.5,0,0,0-.91-.45v-.25c.38,0,1,.07,1.26.07a.59.59,0,0,0,.47-.14A4.19,4.19,0,0,0,311.6,47a.55.55,0,0,1-.42-.12,3.1,3.1,0,0,0-1-1.62l.16-.13a2.64,2.64,0,0,1,1.39.71c0-.43.05-.88.07-1.4h-2.82V45a1.4,1.4,0,0,1-1.17.44h-.24V36.71l1.6.64h2.42l.79-1s.89.71,1.44,1.23c0,.17-.18.25-.4.25h-2.16v1.73h.36l.68-.91s.77.64,1.24,1.1c0,.17-.19.25-.41.25h-1.87v1.74h.33l.69-.91s.29.24.62.54l0,0a12.53,12.53,0,0,0,3.25-5.17Zm-9.74,9c1.79,1.92.64,3.72-.08,2.81a7.14,7.14,0,0,0-.13-2.75Zm.31-7.92v1.73h.88V37.81Zm.88,2.17h-.88v1.74h.88Zm0,2.2h-.88V44h.88Zm-.33,3.25c2.24,1.53,1.29,3.25.52,2.5a5.33,5.33,0,0,0-.72-2.42Zm11,1.13c-.07.16-.19.27-.55.27a8.79,8.79,0,0,1-.6,1.24c3.41.83,2.4,3.38,1,2.53a6.85,6.85,0,0,0-1.29-2,6.32,6.32,0,0,1-2.91,2.3l-.11-.19a4.87,4.87,0,0,0,1-1,.9.9,0,0,1-1-.13,2.57,2.57,0,0,0-.47-1.3,7.13,7.13,0,0,1-3,2.69l-.11-.21a8.37,8.37,0,0,0,2.32-4.76l2.06.72c-.06.17-.19.27-.55.25-.13.29-.25.57-.41.85,1.23.24,1.62.82,1.59,1.29a9.18,9.18,0,0,0,1-3.13Zm-5.76-4.16v2.21h.85V42.4Zm3.49-3s.88.66,1.42,1.15c-.05.18-.21.25-.43.25H315l-.13-.44h2.61Zm.44,6.12c0,.09-.41.33-1,.33h-.21V41.38l1.4.58h.68l.59-.73,1.28,1a.86.86,0,0,1-.57.25v2.89a1.53,1.53,0,0,1-1,.31h-.21v-.61h-.88Zm0-3.08v2.21h.88V42.4Z" fill="#fff"/><path d="M326.73,40.78c-.05.14-.18.25-.48.3v9.24a2.17,2.17,0,0,1-1.47.53h-.33v-8a13.87,13.87,0,0,1-1.61,1.71l-.2-.13a31.12,31.12,0,0,0,2.88-8.29l2.59.75c-.06.2-.27.33-.63.33A23,23,0,0,1,326,40.5Zm0,9.88a12.31,12.31,0,0,0,3.76-2.81l2.15,1.21c-.13.17-.41.27-.88.19a15.17,15.17,0,0,1-4.95,1.59Zm7.54-12.87V39h.87l.78-.84,1.65,1.24a.79.79,0,0,1-.5.25v2.07a2.79,2.79,0,0,1-1.32.41l1.2.91a.88.88,0,0,1-.55.3v4.51a2.83,2.83,0,0,1-1.5.47h-.31v-.67H330V48c0,.16-.77.55-1.5.55h-.25V42.35a2,2,0,0,1-.42,0h-.24V38.31l1.84.72h.85V37.79h-2.55l-.12-.45h7.21l1-1.26s1.14.85,1.84,1.46c0,.17-.22.25-.44.25Zm1,4v-.06h-6v.14c0,.06-.19.19-.47.3l1.24.5h4.39Zm-6-2.33v1.81h1V39.47Zm5.3,4.7V43.12H330v1.05ZM330,45.7h4.62V44.61H330Zm4.62,1.54v-1.1H330v1.1Zm-1.84-9.45h-1V39h1Zm0,3.49V39.47h-1v1.81Zm.06,6.93c7.44.4,4.26,3.7,2.82,2.3a6.45,6.45,0,0,0-2.88-2.09Zm1.46-8.74v1.81h1V39.47Z" fill="#fff"/><path d="M238,46.11a8.24,8.24,0,1,1,13.65,1.27,1.56,1.56,0,0,0,.16.2L255,51.39c.13.15.23.3.12.5s-.29.2-.48.18l-2.81-.27-.26,0,0,.26-.27,2.8c0,.2,0,.38-.26.45s-.35-.06-.48-.21c-1.25-1.52-2.51-3-3.76-4.57a.41.41,0,0,0-.4-.16,7.93,7.93,0,0,1-3.74-.37.29.29,0,0,0-.33.08l-4.53,3.74-.14.12a.37.37,0,0,1-.61-.35c.08-.92.17-1.85.26-2.78,0-.11,0-.22,0-.37l-.24,0-2.84-.27c-.2,0-.36-.06-.42-.27s0-.33.19-.45l3.83-3.16Zm8-11.38a7.5,7.5,0,1,0,6.75,8.21A7.51,7.51,0,0,0,246,34.73ZM250.58,54l0-.22c.07-.78.14-1.55.22-2.32,0-.33.16-.44.5-.41l2.35.23h.17L251.12,48a8.38,8.38,0,0,1-3.71,2.18Zm-12.17-7.2-3.27,2.71,2.48.24c.32,0,.43.17.4.48l-.21,2.27,0,.25,3.82-3.15A8.46,8.46,0,0,1,238.41,46.78Z" fill="#fff"/><path d="M238.48,41.55A6.8,6.8,0,1,1,244.57,49,6.8,6.8,0,0,1,238.48,41.55Zm12.81,1.2a6.07,6.07,0,1,0-6.59,5.49A6.07,6.07,0,0,0,251.29,42.75Z" fill="#fff"/><path d="M243,40.9,244,41a.22.22,0,0,0,.3-.17c.27-.62.56-1.25.83-1.87.08-.19.19-.35.42-.32s.3.19.34.38c.15.68.32,1.35.46,2a.22.22,0,0,0,.23.2l2.18.2c.21,0,.37.08.42.3s-.07.34-.25.44l-1.88,1a.21.21,0,0,0-.12.29c.15.63.29,1.26.44,1.89,0,.19.05.38-.14.5s-.36,0-.52-.1c-.51-.43-1-.85-1.54-1.3a.27.27,0,0,0-.38,0l-1.75,1c-.18.1-.35.15-.52,0s-.13-.32-.05-.51c.27-.59.53-1.2.8-1.79.07-.13,0-.2-.07-.3l-1.63-1.35c-.16-.14-.28-.28-.19-.5s.28-.24.49-.21Z" fill="#fff"/></svg>