<svg width="210" height="364" viewBox="0 0 210 364" fill="none" xmlns="http://www.w3.org/2000/svg">
<path d="M11.6402 30.8C-0.0598478 50.1 -1.25985 73.5 4.54015 94.8C6.24015 100.8 8.74015 106.6 10.9402 112.4C13.2402 118.4 15.3402 124.5 17.3402 130.6C19.3402 136.7 21.0402 142.9 22.4402 149.1C23.1402 152.1 23.8402 155.2 24.4402 158.3C24.7402 159.7 24.9402 161.1 25.5402 162.4C26.1402 163.8 26.8402 165.2 27.5402 166.6C28.8402 169.3 30.2402 171.9 31.8402 174.4C33.4402 176.9 35.4402 179.3 37.0402 181.8C40.0402 186.6 42.2402 191.8 43.8402 197.2C44.6402 199.8 45.2402 202.5 45.8402 205.1C46.1402 206.5 46.4402 207.8 46.6402 209.2C46.9402 210.6 47.0401 212.2 47.5401 213.5C47.9401 214.6 48.8402 215.6 49.2402 216.7C49.7402 218 49.6402 219.5 49.8402 220.9C50.3402 223.6 51.1402 226.2 51.4402 229C52.5402 240.4 57.6402 250.8 62.6402 261C65.1402 266.1 67.9401 271.3 69.0401 277C70.0401 282.5 69.2401 287.9 66.9401 293C66.0401 295.1 64.7401 297.1 63.0401 298.7C62.0401 299.7 60.7402 300.3 59.9402 301.4C58.9402 302.6 58.0402 303.8 57.1402 305C53.6402 309.6 50.3402 314.3 47.3402 319.2C41.3402 328.9 36.5402 339.3 33.2402 350.1C32.4402 352.8 31.7402 355.6 31.1402 358.3C31.0402 358.5 29.8402 358.4 29.8402 358.3C32.3402 347.2 36.4402 336.6 41.8402 326.5C44.5402 321.4 47.6402 316.6 50.8402 311.8C52.4402 309.5 54.1402 307.2 55.8402 304.9C56.6402 303.8 57.4402 302.8 58.3402 301.8C58.6402 301.4 59.0402 300.8 59.4402 300.4C59.9402 300 60.6402 299.7 61.1402 299.2C65.2402 295.9 67.4402 290.1 68.1402 285.1C68.9402 279.5 67.5402 273.8 65.1402 268.7C60.4402 258.3 54.6402 248.4 51.8402 237.3C51.1402 234.6 50.6402 231.8 50.3402 228.9C50.0402 226.1 49.2402 223.6 48.7402 220.8C48.5402 219.5 48.6402 218 48.2402 216.8C47.7402 215.5 46.7402 214.5 46.3402 213.2C45.5402 210.6 45.3402 207.7 44.7402 205C43.5402 199.6 42.0402 194.2 39.8402 189.1C38.7402 186.5 37.4402 184 35.9402 181.6C34.3402 179 32.4402 176.7 30.7402 174.2C29.1402 171.7 27.7402 169.1 26.4402 166.4C25.8402 165.1 25.2402 163.8 24.6402 162.4C24.0402 161 23.7402 159.5 23.4402 158C22.1402 151.8 20.7402 145.6 19.0402 139.4C15.6402 127 11.0402 114.9 6.34015 102.8C-1.65985 82.2 -2.65985 58.2 6.64015 37.8C7.74015 35.3 9.04015 32.9 10.5402 30.5C10.5402 30.6 11.6402 30.9 11.6402 30.8Z" fill="#B88A5E" fill-opacity="0.1"/>
<path d="M187.74 239.9C187.54 240.1 187.24 240.3 187.04 240.5C186.94 240.6 186.14 241 186.04 240.7C185.44 239.2 185.74 237.7 186.14 236.2C186.54 234.6 186.84 232.9 187.24 231.3C187.64 229.4 188.14 227.6 188.44 225.7C188.74 223.8 188.54 221.8 188.84 219.9C189.14 218.1 191.44 191.1 191.44 189.2C191.44 187.1 191.44 185 191.44 182.9C191.44 179.2 191.44 175.4 191.04 171.7C190.44 165.7 189.04 159.8 188.44 153.7C188.24 151.3 188.24 149.1 188.64 146.8C189.04 144.2 189.44 141.7 189.84 139.1C190.14 137 190.44 134.9 190.54 132.8C190.54 129.6 190.94 126.4 190.94 123.2C190.94 119.8 190.34 116.6 189.44 113.4C188.54 110.2 188.04 106.8 187.64 103.5C186.74 96.2998 186.14 88.9998 184.84 81.7998C183.44 74.1998 181.54 66.7998 179.64 59.2998C177.74 51.6998 175.74 44.1998 173.94 36.5998C172.34 29.5998 171.44 22.3998 168.44 15.7998C167.04 12.5998 165.14 9.29984 162.34 7.09984C161.04 6.09984 159.54 5.19984 158.04 4.39984C156.64 3.59984 155.24 2.69984 153.84 1.99984C150.74 0.39984 146.24 0.59984 143.34 2.59984C140.74 4.39984 138.64 6.99984 136.44 9.19984C133.74 11.8998 131.74 14.9998 130.14 18.3998C128.54 21.6998 126.64 24.8998 124.54 27.9998C122.34 31.0998 120.04 34.0998 117.84 37.1998C116.74 38.6998 115.54 40.1998 114.54 41.7998C113.64 43.2998 112.84 44.6998 111.64 45.8998C110.14 47.3998 108.84 48.7998 107.74 50.4998C106.64 52.0998 105.64 53.7998 104.64 55.3998C102.44 58.6998 99.9401 61.7998 97.8401 65.0998C95.7401 68.3998 93.7401 71.5998 91.5401 74.7998C89.3401 77.8998 87.6401 81.2998 85.3401 84.3998C83.2401 87.2998 80.8401 89.8998 78.3401 92.3998C75.9401 94.6998 73.7401 97.1998 72.8401 100.3C71.8401 103.9 71.5401 107.8 69.9401 111.3C68.6401 114.3 65.9401 116.5 63.7401 118.9C62.5401 120.2 61.3401 121.4 60.0401 122.6C58.6401 123.9 57.0401 125.2 55.9401 126.7C54.9401 128.1 54.1401 129.7 53.3401 131.3C52.4401 133 51.7401 134.9 51.2401 136.8C50.4401 140.5 50.5401 144.4 50.7401 148.1C50.9401 152.1 51.2401 156.2 51.4401 160.2C51.5401 161.9 52.2401 163.5 52.5401 165.2C52.7401 166.4 53.1401 166.8 54.1401 167.5C54.4401 167.7 53.3401 168.4 53.0401 168.1C52.2401 167.5 51.5401 167.1 51.3401 166.1C51.0401 164.6 50.4401 163.1 50.2401 161.5C50.0401 159.6 50.0401 157.6 49.8401 155.6C49.7401 153.5 49.5401 151.4 49.4401 149.4C49.2401 145.5 49.0401 141.6 49.8401 137.8C50.5401 134.3 52.2401 130.9 54.1401 127.8C56.1401 124.7 59.2401 122.7 61.7401 120C64.0401 117.5 66.9401 115.1 68.5401 112C70.3401 108.4 70.4401 104.2 71.6401 100.4C72.5401 97.4998 74.4401 95.1998 76.6401 92.9998C79.3401 90.2998 81.9401 87.5998 84.2401 84.4998C86.5401 81.2998 88.3401 77.7998 90.6401 74.5998C92.9401 71.3998 94.8401 67.9998 97.0401 64.6998C99.2401 61.3998 101.84 58.2998 103.94 54.8998C105.04 53.1998 106.04 51.4998 107.24 49.8998C108.34 48.3998 109.64 47.0998 110.84 45.7998C112.14 44.3998 112.94 42.5998 114.04 40.9998C115.14 39.3998 116.24 37.8998 117.44 36.3998C119.74 33.2998 122.04 30.1998 124.24 26.9998C126.34 23.7998 128.04 20.3998 129.84 16.9998C131.54 13.7998 133.74 10.9998 136.34 8.49984C138.54 6.39984 140.44 3.99984 143.04 2.29984C145.54 0.599841 148.74 0.0998405 151.74 0.49984C153.34 0.69984 154.74 1.29984 156.14 2.09984C157.54 2.99984 159.14 3.79984 160.64 4.59984C163.74 6.39984 165.94 8.59984 167.84 11.5998C169.74 14.6998 171.14 18.0998 172.04 21.4998C173.04 24.9998 173.64 28.6998 174.44 32.2998C175.34 36.0998 176.24 39.8998 177.14 43.6998C179.14 51.4998 181.14 59.1998 183.04 66.9998C184.84 74.2998 186.54 81.7998 187.44 89.1998C188.34 96.3998 188.74 103.8 190.34 111C191.04 114.3 192.14 117.4 192.24 120.8C192.44 123.9 192.14 126.9 191.94 130C191.84 132.5 191.84 134.9 191.44 137.3C191.04 139.9 190.64 142.5 190.24 145.1C189.94 147.2 189.54 149.4 189.74 151.6C189.94 155.1 190.44 158.6 191.04 162C191.54 164.8 192.04 167.6 192.34 170.4C192.74 174.1 192.84 177.8 192.84 181.5C192.84 185.5 193.14 189.6 192.44 193.6C192.14 195.5 190.14 222.6 189.94 224.5C189.74 226.5 189.24 228.4 188.84 230.3C188.44 232 188.14 233.7 187.74 235.3C187.34 236.9 186.84 238.7 187.44 240.3C187.14 240.4 186.74 240.4 186.44 240.5C186.64 240.3 186.94 240.1 187.14 239.9C187.24 239.5 188.44 239.4 187.74 239.9Z" fill="#B88A5E" fill-opacity="0.1"/>
<path d="M139.64 140.9C140.94 137.5 142.44 134.1 143.34 130.5C143.74 128.7 144.04 126.9 144.04 125.1C144.04 123.3 144.44 121.5 144.74 119.7C145.04 117.8 145.04 115.9 145.04 114C145.04 112 145.04 110 145.04 108C145.04 104 145.14 99.9997 145.24 96.0997C145.34 92.0997 145.34 87.9997 145.14 83.9997C145.04 82.1997 144.64 80.3997 144.34 78.5997C144.04 76.6997 144.14 74.8997 144.14 72.9997C144.14 69.1997 144.34 65.3997 144.74 61.5997C144.94 59.6997 145.24 57.8997 145.74 56.0997C146.24 54.3997 146.54 52.5997 147.24 50.8997C147.94 49.1997 148.94 47.6997 149.84 45.9997C150.84 44.1997 151.44 42.1997 152.54 40.3997C153.24 39.2997 153.64 37.9997 154.54 36.9997C155.44 35.8997 156.74 35.5997 158.24 35.6997C158.34 35.6997 158.54 35.7997 158.54 35.9997C159.84 39.9997 157.14 43.5997 154.64 46.5997C153.24 48.1997 152.04 49.8997 150.54 51.3997C149.64 52.2997 148.74 53.1997 147.84 54.0997C146.94 55.0997 146.14 56.0997 145.44 57.1997C144.74 58.1997 144.04 59.1997 143.24 60.1997C142.44 61.1997 141.44 62.0997 140.54 62.9997C138.74 64.8997 136.84 66.5997 134.74 68.1997C132.54 69.7997 130.54 71.3997 128.64 73.3997C126.84 75.2997 125.14 77.3997 123.54 79.4997C120.24 83.6997 116.64 87.5997 113.04 91.4997C109.44 95.3997 105.74 99.1997 102.34 103.3C100.84 105.2 99.3401 107.1 97.7401 109.1C97.0401 110 96.2401 110.9 95.9401 112C95.6401 113.1 95.8401 114.3 95.9401 115.4C96.1401 121 95.5401 126.7 96.3401 132.3C96.7401 135 97.3401 137.6 97.8401 140.3C98.0401 141.7 98.4401 143 98.6401 144.4C98.8401 145.6 98.6401 146.8 98.6401 148.1C98.6401 149.5 99.1401 150.8 99.5401 152.2C99.9401 153.5 100.14 154.9 100.34 156.3C100.84 159 101.54 161.8 102.24 164.5C102.54 165.7 103.04 166.9 103.14 168C103.24 168.8 102.84 169.6 102.14 170.1C100.44 171.3 98.3401 170.5 96.9401 169.4C95.2401 168.1 94.0401 166.4 93.3401 164.5C92.5401 162.4 92.3401 160.1 92.0401 157.9C91.3401 153.2 89.5401 148.3 86.6401 144.4C85.4401 142.8 83.6401 141.5 81.4401 142.3C79.5401 143.1 78.3401 145 77.7401 146.8C76.8401 149.6 75.0401 151.9 73.8401 154.6C72.2401 158.1 72.5401 161.7 72.8401 165.4C73.1401 169.5 72.8401 173.6 71.9401 177.6C71.7401 178.7 71.6401 180.1 70.9401 181.1C70.4401 181.9 69.5401 182.3 68.6401 182.4C67.8401 182.5 66.7401 182.4 66.0401 182C65.4401 181.7 65.2401 181.1 64.9401 180.5C64.1401 178.2 63.5401 176.1 63.5401 173.7C63.4401 171 63.5401 168.2 63.5401 165.5C63.5401 160 64.5401 154.7 65.3401 149.3C65.7401 146.6 66.1401 143.9 66.2401 141.1C66.6401 141.1 66.9401 141 67.3401 141C66.7401 145.8 65.8401 150.5 65.6401 155.3C65.5401 157.7 65.6401 160 65.6401 162.4C65.6401 163.5 65.5401 164.6 65.2401 165.6C65.0401 166.6 64.6401 167.6 64.5401 168.6C64.4401 169.5 64.5401 170.4 64.6401 171.3C64.6401 171.7 64.9401 172.3 64.7401 172.8C64.6401 173.1 64.3401 173.4 64.0401 173.3C63.7401 173.2 63.6401 173 63.5401 172.7C63.3401 172.1 63.1401 171.4 62.8401 170.7C62.3401 169.1 61.7401 167.5 61.1401 165.9C60.3401 163.7 59.5401 161.4 58.5401 159.2C58.0401 158.1 57.6401 156.9 56.8401 156C56.6401 155.8 56.7401 155.9 56.6401 155.8C56.5401 155.7 56.6401 155.8 56.6401 155.8C56.6401 155.8 56.7401 155.8 56.8401 155.8C56.9401 155.8 56.8401 155.8 56.9401 155.7C56.9401 155.9 56.8401 156 56.7401 156.2C56.6401 156.7 56.6401 157.4 56.5401 157.9C56.5401 158.3 56.5401 158.7 56.5401 159C56.5401 159.1 56.5401 159.6 56.5401 159.3C56.1401 159.4 55.8401 159.5 55.4401 159.5C55.5401 158.8 55.4401 158.1 55.5401 157.4C55.6401 155.9 55.6401 154.4 55.7401 152.9C55.8401 151.4 55.9401 150 56.1401 148.5C56.3401 147.2 56.2401 145.9 56.3401 144.6C56.4401 143.8 56.5401 141.1 58.0401 141.5C58.7401 141.7 58.3401 142.8 57.6401 142.7C57.4401 142.6 57.8401 142.7 57.8401 142.6C57.8401 142.6 57.7401 142.7 57.7401 142.8C57.7401 143.1 57.6401 143.3 57.5401 143.6C57.4401 144.3 57.4401 145 57.3401 145.7C57.3401 146.8 57.2401 147.9 57.1401 149C56.8401 151.8 56.7401 154.5 56.6401 157.3C56.6401 158 56.6401 158.8 56.5401 159.5C56.4401 160 55.4401 160.5 55.4401 159.7C55.3401 158.6 55.4401 157.4 55.6401 156.4C55.7401 155.7 56.0401 154.5 57.0401 154.6C57.9401 154.7 58.4401 156 58.8401 156.7C59.7401 158.5 60.5401 160.5 61.2401 162.4C61.8401 164.1 62.4401 165.7 63.0401 167.4C63.4401 168.4 63.7401 169.5 64.1401 170.5C64.2401 170.9 64.4401 171.3 64.5401 171.7C64.5401 171.8 64.6401 171.9 64.6401 171.9C64.6401 172.2 64.9401 172 64.4401 171.9C64.2401 172.1 63.9401 172.2 63.7401 172.4C63.6401 172.5 63.7401 172.7 63.7401 172.5C63.7401 172.4 63.7401 172.3 63.7401 172.2C63.7401 171.9 63.6401 171.6 63.6401 171.3C63.5401 170.5 63.5401 169.7 63.5401 168.9C63.6401 166.9 64.5401 165 64.6401 163C64.7401 160.7 64.5401 158.3 64.6401 156C64.7401 153.7 65.0401 151.4 65.3401 149.1C65.7401 146.4 66.1401 143.7 66.4401 141.1C66.5401 140.4 67.6401 140.2 67.5401 141C67.2401 146.5 66.1401 151.8 65.4401 157.3C64.7401 162.5 64.7401 167.8 64.8401 173.1C64.9401 175.6 65.3401 177.8 66.2401 180.1C66.5401 180.8 66.8401 181.1 67.5401 181.2C68.4401 181.4 69.9401 181.4 70.3401 180.4C70.8401 179.2 70.9401 177.8 71.2401 176.5C71.4401 175.4 71.6401 174.2 71.7401 173.1C71.9401 171.2 72.0401 169.3 71.9401 167.4C71.7401 163.7 71.0401 160 72.1401 156.3C72.9401 153.6 74.6401 151.4 75.8401 148.9C76.6401 147.3 76.9401 145.5 78.0401 143.9C78.9401 142.5 80.3401 141.2 82.1401 140.9C84.0401 140.5 85.7401 141.4 87.0401 142.8C88.5401 144.5 89.7401 146.6 90.6401 148.7C91.5401 150.8 92.2401 153.1 92.8401 155.4C93.4401 157.7 93.4401 160 94.0401 162.2C94.5401 164.3 95.5401 166.3 97.1401 167.8C97.8401 168.5 98.7401 169.1 99.6401 169.4C100.34 169.6 101.94 169.7 102.24 168.8C102.34 168.4 102.14 167.9 102.04 167.6C101.84 166.9 101.64 166.2 101.44 165.5C101.04 164.2 100.74 162.9 100.44 161.6C99.8401 158.9 99.4401 156.2 98.7401 153.5C98.4401 152.2 98.0401 151 97.7401 149.7C97.5401 148.5 97.7401 147.3 97.7401 146.1C97.7401 144.8 97.2401 143.4 97.0401 142.1C96.7401 140.8 96.5401 139.5 96.3401 138.2C95.8401 135.6 95.2401 133 95.0401 130.3C94.8401 127.6 94.9401 124.8 94.9401 122C94.9401 119.4 94.9401 116.7 94.8401 114.1C94.8401 113.1 94.8401 112.1 95.3401 111.1C95.8401 110.1 96.4401 109.2 97.1401 108.4C100.24 104.5 103.34 100.6 106.64 96.8997C110.14 93.0997 113.74 89.3997 117.24 85.4997C120.74 81.5997 123.74 77.3997 127.14 73.5997C128.84 71.6997 130.74 69.9997 132.74 68.4997C134.84 66.8997 136.94 65.3997 138.84 63.4997C140.54 61.6997 142.44 59.8997 143.84 57.7997C144.54 56.7997 145.14 55.7997 145.94 54.8997C146.74 53.8997 147.64 52.9997 148.54 52.0997C150.04 50.5997 151.34 48.8997 152.74 47.2997C154.14 45.6997 155.54 44.1997 156.54 42.3997C157.54 40.6997 158.04 38.7997 157.44 36.8997C157.54 36.9997 157.64 37.0997 157.74 37.1997C156.34 37.0997 155.44 37.5997 154.74 38.7997C154.14 39.8997 153.54 40.9997 152.94 42.0997C152.14 43.6997 151.54 45.3997 150.64 46.9997C149.84 48.3997 149.04 49.7997 148.34 51.1997C147.64 52.7997 147.34 54.4997 146.84 56.1997C146.34 58.0997 146.04 59.8997 145.84 61.7997C145.44 65.4997 145.24 69.1997 145.24 72.9997C145.24 74.8997 145.14 76.6997 145.44 78.5997C145.74 80.3997 146.14 82.0997 146.24 83.8997C146.44 87.6997 146.44 91.4997 146.34 95.2997C146.24 99.1997 146.14 103.1 146.14 107C146.14 109 146.14 111 146.14 113C146.14 114.9 146.24 116.8 146.14 118.6C145.94 120.6 145.34 122.5 145.24 124.5C145.14 126.5 145.14 128.3 144.64 130.3C143.74 134.2 142.14 138 140.74 141.7C140.44 141.7 139.34 141.6 139.64 140.9Z" fill="#B88A5E" fill-opacity="0.1"/>
<path d="M141.54 140.7C140.64 142.5 139.84 144.2 139.54 146.2C139.54 146.4 139.24 146.7 139.04 146.8C139.04 146.8 138.54 147.1 138.54 146.9C138.84 144.9 139.64 143.1 140.54 141.3C140.64 141 140.94 140.8 141.14 140.7C141.34 140.6 141.74 140.4 141.54 140.7Z" fill="#B88A5E" fill-opacity="0.1"/>
<path d="M10.64 32.1C10.74 32.7 11.64 32.5 12.14 32.4C13.14 32.2 14.14 31.9 15.04 31.6C15.84 31.4 16.74 31 17.64 31C19.04 31 20.54 31.4 21.84 31.9C23.24 32.5 24.44 33.3 25.74 34.1C27.24 35.1 28.74 36 30.34 37C33.34 38.9 36.34 40.9 38.84 43.4C41.14 45.7 43.14 48.4 45.14 51C46.14 52.3 47.24 53.6 48.44 54.9C49.64 56.1 50.94 57.3 52.14 58.6C53.14 59.7 54.04 61 55.04 62.1C56.14 63.3 57.54 64.3 58.74 65.3C60.04 66.4 61.34 67.6 62.64 68.9C63.84 70.1 64.84 71.4 65.94 72.7C67.04 73.9 68.34 75 69.24 76.4C70.14 77.7 70.54 79.2 71.24 80.5C72.14 82 73.54 83.1 74.84 84.3C76.04 85.4 77.14 86.6 78.14 87.8C78.54 88.3 79.04 88.8 79.34 89.4C79.44 89.7 78.2399 90.1 78.0399 89.7C77.7399 89.1 77.24 88.5 76.74 88C76.24 87.4 75.74 86.9 75.14 86.3C73.94 85 72.54 83.8 71.34 82.5C70.14 81.3 69.54 80 68.94 78.5C68.24 77 67.34 75.8 66.24 74.6C65.64 74 65.14 73.4 64.54 72.8C63.94 72.2 63.44 71.5 62.94 70.9C61.74 69.6 60.54 68.3 59.24 67.1C57.94 65.9 56.64 64.9 55.34 63.7C54.14 62.7 53.24 61.6 52.24 60.4C51.24 59.1 50.04 57.9 48.84 56.7C47.64 55.5 46.34 54.3 45.34 52.9C43.24 50.3 41.34 47.6 39.14 45.1C36.84 42.5 34.04 40.4 31.14 38.5C29.64 37.5 28.14 36.5 26.54 35.5C25.14 34.6 23.84 33.7 22.44 32.9C21.14 32.2 19.74 31.6 18.14 31.4C17.84 31.4 17.54 31.3 17.24 31.3C17.34 31.3 17.14 31.3 17.14 31.3C16.94 31.3 17.14 31.3 16.94 31.3C16.54 31.4 16.04 31.5 15.64 31.6C14.64 31.9 13.64 32.2 12.64 32.4C11.84 32.6 10.84 32.8 10.04 32.5C9.73995 32.4 9.53995 32.2 9.53995 31.9C9.23995 32 10.54 31.7 10.64 32.1Z" fill="#B88A5E" fill-opacity="0.1"/>
<path d="M97.8403 113.5C103.44 118.9 110.84 123.9 112.64 131.7C113.14 134 113.04 136.3 113.04 138.6C113.04 141.4 113.14 144.1 113.14 146.9C113.14 149.6 113.24 152.3 112.94 154.9C112.64 157.4 111.84 159.8 111.34 162.3C110.84 164.7 110.64 167.2 111.64 169.4C112.64 171.6 114.34 173.3 116.14 174.8C118.04 176.4 119.84 178 121.54 179.8C122.34 180.7 123.14 181.6 123.64 182.7C124.04 183.7 124.34 184.7 124.64 185.7C125.04 186.7 125.64 187.6 126.04 188.6C126.34 189.5 126.44 190.4 126.54 191.4C126.64 192.8 126.64 194.8 125.14 195.6C123.94 196.2 122.44 195.8 121.34 195.2C120.04 194.5 118.84 193.4 117.84 192.3C116.84 191.3 115.94 190.1 115.14 189C114.34 187.9 113.54 186.7 112.64 185.7C110.34 183.3 106.94 181 106.44 177.5C106.34 176.7 106.34 175.8 106.54 175C106.64 174.7 107.24 174.8 107.44 174.8C108.84 175.2 109.44 176.2 110.04 177.4C110.74 178.8 111.74 179.9 112.74 181.1C113.84 182.5 114.64 184 115.44 185.5C116.34 187.1 117.14 188.8 117.94 190.4C118.34 191.2 118.74 192.1 119.14 192.9C119.44 193.6 119.84 194.4 120.14 195.1C120.34 195.6 120.44 196.2 120.24 196.8C120.04 197.4 119.44 197.9 118.84 198.1C116.14 199.3 113.24 196.7 111.74 194.8C110.74 193.6 110.04 192.2 109.04 190.9C108.04 189.6 106.84 188.6 105.74 187.5C103.44 185.2 101.74 182.4 99.3403 180.2C98.1403 179.1 96.8403 178.1 95.5403 177.1C94.4403 176.2 93.6403 175.3 93.1403 174C92.1403 171.4 89.9403 169.5 89.0403 166.8C88.5403 165.3 88.6403 163.6 88.6403 162C88.6403 160.1 88.6403 158.2 88.6403 156.3C88.6403 154.5 88.7403 152.6 88.6403 150.8C88.6403 150 88.4403 149.2 88.1403 148.4C87.8403 147.6 87.4403 146.9 87.2403 146.2C86.9403 145.5 86.8403 144.7 86.8403 144C86.8403 143.6 88.1403 143.7 88.1403 144.2C87.9403 145.8 88.9403 147.2 89.4403 148.6C89.9403 150.1 89.9403 151.6 89.9403 153.1C89.9403 156.7 89.8403 160.4 89.9403 164C89.9403 164.8 89.9403 165.5 90.1403 166.3C90.3403 166.9 90.5403 167.5 90.8403 168.1C91.4403 169.3 92.2403 170.3 92.9403 171.4C93.3403 172 93.6403 172.5 93.9403 173.1C94.2403 173.7 94.4403 174.3 94.7403 174.9C95.4403 176.1 96.5403 176.9 97.6403 177.7C98.8403 178.6 100.04 179.6 101.14 180.7C102.24 181.8 103.24 183.1 104.24 184.3C105.14 185.5 106.14 186.6 107.24 187.7C108.34 188.8 109.54 189.7 110.44 191C112.04 193.3 113.34 195.8 115.94 197.3C116.44 197.6 116.94 197.8 117.54 197.8C118.14 197.7 118.84 197.3 119.14 196.7C119.44 196.2 119.34 195.6 119.14 195.1C118.84 194.4 118.54 193.7 118.14 193C116.64 189.8 115.04 186.6 113.34 183.5C112.54 182.1 111.54 180.9 110.54 179.7C110.14 179.2 109.64 178.6 109.34 178C109.04 177.5 108.84 176.9 108.54 176.4C108.24 176 107.84 175.5 107.34 175.3C107.64 175.2 107.94 175.2 108.24 175.1C107.84 176.8 108.14 178.4 109.04 179.9C109.94 181.3 111.14 182.5 112.44 183.7C113.74 184.9 115.04 186.1 116.04 187.6C116.64 188.5 117.24 189.4 117.94 190.3C118.84 191.5 119.94 192.6 121.04 193.6C121.54 194 122.14 194.5 122.74 194.8C122.94 194.9 123.24 195.1 123.44 195.1C123.54 195.1 123.74 195.2 123.74 195.2C123.84 195.2 123.84 195.2 123.94 195.2C124.04 195.2 123.84 195.2 124.04 195.2C124.24 195.2 124.34 195.2 124.64 195.1C124.94 195 125.14 194.8 125.34 194.6C125.84 193.9 125.94 193 125.94 192.2C125.94 191.3 125.94 190.4 125.74 189.6C125.54 188.6 125.04 187.8 124.64 186.9C124.14 185.9 123.84 184.8 123.44 183.8C123.14 182.7 122.64 181.8 121.94 180.9C120.44 179.1 118.74 177.5 116.94 175.9C115.14 174.4 113.44 172.9 112.14 170.9C111.54 170 111.04 169 110.74 167.9C110.44 166.8 110.44 165.6 110.54 164.5C110.74 162 111.44 159.7 112.04 157.3C112.54 154.8 112.64 152.3 112.64 149.8C112.64 147.1 112.64 144.4 112.54 141.7C112.54 140.4 112.54 139 112.44 137.7C112.44 136.5 112.44 135.3 112.44 134.1C111.94 126.1 105.14 120.7 99.4403 115.6C98.7403 115 98.0403 114.3 97.3403 113.6C97.1403 113.4 97.4403 113.2 97.6403 113.2C97.2403 113.2 97.6403 113.3 97.8403 113.5Z" fill="#B88A5E" fill-opacity="0.1"/>
<path d="M63.24 118.4C62.34 118.4 61.54 118 60.94 117.3C60.44 116.7 60.04 115.9 59.64 115.3C59.04 114.4 58.24 113.6 57.44 112.9C56.54 112.1 55.64 111.4 54.84 110.6C52.94 108.9 51.64 106.9 49.94 105.1C48.24 103.2 46.34 101.5 44.44 99.7997C40.64 96.3997 36.84 93.1997 32.54 90.3997C31.54 89.6997 30.64 88.9997 29.84 88.1997C29.04 87.3997 28.34 86.5997 27.64 85.6997C26.14 83.9997 24.34 82.4997 22.94 80.6997C21.64 79.0997 20.64 77.2997 20.44 75.1997C20.34 73.6997 20.34 71.4997 22.04 70.7997C23.54 70.1997 25.04 71.1997 26.14 72.0997C27.34 72.9997 28.34 74.1997 29.34 75.2997C32.54 78.9997 34.34 83.4997 36.84 87.5997C38.14 89.6997 39.54 91.7997 40.74 93.9997C41.94 96.2997 42.94 98.6997 44.04 101.1C45.04 103.5 45.94 105.9 47.14 108.2C47.74 109.2 48.34 110.3 48.84 111.4C49.34 112.6 49.64 113.8 50.04 115C50.44 116.1 51.04 117.1 51.54 118.2C52.04 119.2 52.44 120.3 52.74 121.4C53.34 123.1 54.64 124.5 55.34 126.1C55.64 126.8 55.94 127.6 55.84 128.4C55.74 129.1 54.44 129 54.54 128.3C54.64 127.6 54.24 126.8 53.94 126.2C53.54 125.4 53.04 124.6 52.54 123.9C52.14 123.2 51.64 122.4 51.44 121.6C51.14 120.5 50.74 119.5 50.24 118.5C49.74 117.5 49.14 116.4 48.74 115.4C48.34 114.3 48.04 113.1 47.54 112C47.04 110.9 46.44 109.9 45.94 108.9C45.34 107.8 44.84 106.7 44.34 105.6C43.34 103.2 42.34 100.9 41.34 98.5997C40.34 96.3997 39.34 94.1997 38.04 92.0997C36.84 90.0997 35.44 88.0997 34.24 85.9997C33.14 83.9997 32.14 81.8997 30.94 79.8997C29.84 78.1997 28.64 76.5997 27.24 75.0997C26.24 74.0997 25.24 72.9997 23.94 72.2997C23.74 72.1997 23.44 71.9997 23.14 71.9997C22.94 71.8997 22.64 71.8997 22.54 71.9997C21.94 72.1997 21.74 72.8997 21.64 73.4997C21.34 75.2997 21.74 77.0997 22.64 78.5997C23.74 80.4997 25.24 82.0997 26.84 83.5997C28.44 85.0997 29.64 86.8997 31.24 88.2997C32.04 89.0997 33.04 89.6997 33.94 90.2997C34.94 90.9997 35.94 91.6997 36.94 92.4997C38.84 93.9997 40.74 95.4997 42.64 97.0997C44.44 98.6997 46.34 100.4 48.04 102C48.94 102.8 49.74 103.7 50.54 104.6C51.34 105.5 52.14 106.5 52.84 107.4C53.54 108.3 54.34 109.1 55.14 109.9C56.04 110.7 56.94 111.4 57.74 112.2C58.54 112.9 59.34 113.7 59.94 114.5C60.44 115.1 60.74 115.9 61.24 116.5C61.64 117.1 62.14 117.5 62.94 117.5C64.24 117.4 64.04 118.4 63.24 118.4Z" fill="#B88A5E" fill-opacity="0.1"/>
<path d="M93.3403 172.4C93.5403 173.6 94.3403 174.4 94.8403 175.5C95.3403 176.7 95.5403 178 95.7403 179.3C96.2403 182 96.7403 184.7 97.4403 187.3C97.8403 188.6 98.1403 190 98.6403 191.3C98.9403 192.1 99.6403 192.9 100.44 193.4C101.34 193.9 102.24 193.8 102.94 193C103.44 192.3 103.54 191.4 103.54 190.7C103.54 188.5 102.64 186.3 102.24 184.1C102.14 183.5 103.04 182.9 103.24 183.6C103.64 185.7 104.44 187.7 104.54 189.9C104.64 191 104.54 192 104.04 193C103.54 194 102.64 194.9 101.44 194.9C100.34 194.9 99.4403 194.3 98.7403 193.5C97.9403 192.6 97.6403 191.4 97.2403 190.3C96.3403 187.4 95.6403 184.5 95.0403 181.5C94.7403 179.9 94.6403 178.4 94.1403 176.8C93.6403 175.4 92.5403 174.3 92.3403 172.9C92.3403 172.6 92.4403 172.3 92.7403 172.1C93.0403 172 93.2403 172.1 93.3403 172.4Z" fill="#B88A5E" fill-opacity="0.1"/>
<path d="M144.44 77.3997C144.24 76.5997 143.44 75.7997 142.94 75.0997C142.64 74.6997 142.34 74.2997 142.04 73.8997C141.64 73.4997 141.14 73.0997 140.74 72.6997C140.24 72.2997 139.94 71.6997 139.54 71.1997C139.14 70.6997 138.74 70.2997 138.24 69.9997C137.74 69.5997 137.24 69.2997 136.64 68.9997C136.24 68.7997 135.84 68.4997 135.34 68.3997C134.34 68.1997 133.34 68.1997 133.04 67.0997C133.04 66.9997 133.44 66.6997 133.44 66.5997C133.44 66.5997 133.94 66.1997 134.04 66.2997C134.24 67.1997 135.04 67.3997 135.94 67.4997C137.04 67.6997 137.84 68.1997 138.74 68.7997C139.24 69.0997 139.74 69.4997 140.14 69.8997C140.54 70.3997 140.84 70.8997 141.24 71.3997C141.64 71.8997 142.14 72.2997 142.54 72.6997C142.94 73.0997 143.24 73.4997 143.54 73.8997C143.84 74.2997 144.24 74.7997 144.54 75.1997C144.84 75.5997 145.14 75.9997 145.24 76.4997C145.24 76.5997 144.84 76.8997 144.84 76.9997C144.94 77.0997 144.44 77.4997 144.44 77.3997Z" fill="#B88A5E" fill-opacity="0.1"/>
<path d="M103.54 54.0998C102.84 54.0998 102.24 54.2998 101.64 54.5998C100.94 54.8998 100.34 55.0998 99.6403 55.2998C98.1403 55.5998 96.6403 55.6998 95.2403 56.2998C92.5403 57.2998 90.0403 58.5998 87.7403 60.1998C86.6403 60.9998 85.6403 61.8998 84.5403 62.6998C83.4403 63.4998 82.3403 64.2998 81.2403 65.1998C80.1403 65.9998 79.1403 66.8998 78.2403 67.9998C77.2403 69.0998 76.4403 70.3998 75.5403 71.4998C74.5403 72.7998 73.6403 74.1998 72.6403 75.4998C72.3403 75.8998 72.0403 76.2998 71.7403 76.7998C71.4403 77.3998 71.4403 77.9998 71.4403 78.5998C71.4403 79.0998 70.3403 79.6998 70.3403 78.9998C70.3403 77.7998 70.6403 76.7998 71.3403 75.7998C72.1403 74.6998 72.9403 73.4998 73.7403 72.3998C74.6403 71.0998 75.7403 69.8998 76.6403 68.5998C77.5403 67.3998 78.5403 66.3998 79.6403 65.3998C80.7403 64.4998 81.8403 63.5998 83.0403 62.7998C84.2403 61.8998 85.2403 60.9998 86.4403 60.0998C88.7403 58.2998 91.4403 56.7998 94.2403 55.6998C95.0403 55.3998 95.8403 55.0998 96.7403 54.8998C97.5403 54.6998 98.4403 54.5998 99.3403 54.3998C100.14 54.2998 100.84 53.9998 101.64 53.6998C102.44 53.3998 103.14 53.0998 103.94 53.1998C104.24 53.1998 104.24 53.5998 104.14 53.7998C104.14 53.9998 103.84 54.1998 103.54 54.0998Z" fill="#B88A5E" fill-opacity="0.1"/>
<path d="M140.24 143.8C140.24 150.3 138.94 157.2 142.04 163.3C144.64 168.3 149.24 171.8 153.64 175.4C155.84 177.2 158.04 179.2 159.84 181.4C161.54 183.5 163.04 185.9 164.14 188.3C166.44 193.1 167.64 198.5 167.24 203.8C166.84 209.1 164.64 214.2 160.74 218.1C160.24 218.6 159.74 219.1 159.14 219.5C158.84 219.7 158.54 219.8 158.24 219.6C158.04 219.4 157.94 219 158.24 218.8C162.44 215.3 165.04 210.5 165.84 205.2C166.54 200 165.54 194.7 163.54 189.8C162.54 187.4 161.14 185 159.54 182.9C157.84 180.6 155.84 178.7 153.64 176.9C149.34 173.3 144.64 170 141.74 165.2C140.94 163.9 140.24 162.5 139.74 161.1C139.24 159.5 138.94 157.9 138.84 156.3C138.54 153 138.84 149.6 138.94 146.3C138.94 145.5 138.94 144.7 138.94 143.9C138.94 143.2 140.24 143 140.24 143.8Z" fill="#B88A5E" fill-opacity="0.1"/>
<path d="M155.74 191.6C156.04 193.8 156.64 196.1 156.44 198.4C156.34 199.7 155.84 200.8 155.54 202C155.14 203.2 154.94 204.5 154.54 205.7C154.24 206.9 153.74 208.1 153.04 209.1C152.44 210.1 151.74 211 150.94 211.8C149.34 213.6 147.54 215.2 145.24 216C142.74 216.9 139.84 216.7 137.54 218.2C137.34 218.3 136.94 218.5 136.74 218.3C136.54 218.1 136.84 217.9 136.94 217.8C138.94 216.5 141.34 216.3 143.64 215.8C144.74 215.6 145.84 215.2 146.84 214.6C147.74 214 148.64 213.2 149.34 212.4C150.94 210.7 152.44 208.8 153.14 206.6C153.54 205.4 153.74 204.2 154.14 203C154.44 201.8 154.94 200.6 155.14 199.3C155.54 196.8 154.94 194.4 154.54 191.9C154.44 191.5 155.64 191.1 155.74 191.6Z" fill="#B88A5E" fill-opacity="0.1"/>
<path d="M113.34 217.4C107.94 217.5 102.44 217.2 97.04 216.6C91.64 216 86.24 215 80.84 214.4C77.74 214.1 74.64 213.9 71.54 214C70.74 214 70.94 213 71.74 212.9C77.24 212.7 82.74 213.5 88.14 214.3C93.44 215.1 98.84 215.8 104.24 216.1C107.34 216.3 110.34 216.3 113.44 216.3C114.34 216.3 114.04 217.4 113.34 217.4Z" fill="#B88A5E" fill-opacity="0.1"/>
<path d="M71.1401 212.7C71.1401 209.8 71.1401 207 71.4401 204.1C71.5401 202.7 71.7401 201.3 72.0401 200C72.3401 198.7 72.8401 197.5 73.3401 196.3C73.9401 194.9 74.4401 193.6 74.6401 192.1C74.6401 191.8 74.9401 191.6 75.1401 191.5C75.1401 191.5 75.6401 191.2 75.6401 191.4C75.3401 193.9 73.9401 196.2 73.2401 198.6C72.8401 200 72.6401 201.4 72.5401 202.8C72.3401 204.2 72.2401 205.6 72.2401 207.1C72.1401 208.7 72.1401 210.4 72.1401 212C72.1401 212.2 71.8401 212.5 71.6401 212.6C71.6401 212.6 71.1401 212.9 71.1401 212.7Z" fill="#B88A5E" fill-opacity="0.1"/>
<path d="M27.7998 35.8C16.0998 55.1 14.8998 78.5 20.6998 99.8C22.3998 105.8 24.8998 111.6 27.0998 117.4C29.3998 123.4 31.4998 129.5 33.4998 135.6C35.4998 141.7 37.1998 147.9 38.5998 154.1C39.2998 157.1 39.9998 160.2 40.5998 163.3C40.8998 164.7 41.0998 166.1 41.6998 167.4C42.2998 168.8 42.9998 170.2 43.6998 171.6C44.9998 174.3 46.3998 176.9 47.9998 179.4C49.5998 181.9 51.5998 184.3 53.1998 186.8C56.1998 191.6 58.3998 196.8 59.9998 202.2C60.7998 204.8 61.3998 207.5 61.9998 210.1C62.2998 211.5 62.5998 212.8 62.7998 214.2C63.0998 215.6 63.1998 217.2 63.6998 218.5C64.0998 219.6 64.9998 220.6 65.3998 221.7C65.8998 223 65.7998 224.5 65.9998 225.9C66.4998 228.6 67.2998 231.2 67.5998 234C68.6998 245.4 73.7998 255.8 78.7998 266C81.2998 271.1 84.0998 276.3 85.1998 282C86.1998 287.5 85.3998 292.9 83.0998 298C82.1998 300.1 80.8998 302.1 79.1998 303.7C78.1998 304.7 76.8998 305.3 76.0998 306.4C75.0998 307.6 74.1998 308.8 73.2998 310C69.7998 314.6 66.4998 319.3 63.4998 324.2C57.4998 333.9 52.6998 344.3 49.3998 355.1C48.5998 357.8 47.8998 360.6 47.2998 363.3C47.1998 363.5 45.9998 363.4 45.9998 363.3C48.4998 352.2 52.5998 341.6 57.9998 331.5C60.6998 326.4 63.7998 321.6 66.9998 316.8C68.5998 314.5 70.2998 312.2 71.9998 309.9C72.7998 308.8 73.5998 307.8 74.4998 306.8C74.7998 306.4 75.1998 305.8 75.5998 305.4C76.0998 305 76.7998 304.7 77.2998 304.2C81.3998 300.9 83.5998 295.1 84.2998 290.1C85.0998 284.5 83.6998 278.8 81.2998 273.7C76.5998 263.3 70.7998 253.4 67.9998 242.3C67.2998 239.6 66.7998 236.8 66.4998 233.9C66.1998 231.1 65.3998 228.6 64.8998 225.8C64.6998 224.5 64.7998 223 64.3998 221.8C63.8998 220.5 62.8998 219.5 62.4998 218.2C61.6998 215.6 61.4998 212.7 60.8998 210C59.6998 204.6 58.1998 199.2 55.9998 194.1C54.8998 191.5 53.5998 189 52.0998 186.6C50.4998 184 48.5998 181.7 46.8998 179.2C45.2998 176.7 43.8998 174.1 42.5998 171.4C41.9998 170.1 41.3998 168.8 40.7998 167.4C40.1998 166 39.8998 164.5 39.5998 163C38.2998 156.8 36.8998 150.6 35.1998 144.4C31.7998 132 27.1998 119.9 22.4998 107.8C14.4998 87.2 13.4998 63.2 22.7998 42.8C23.8998 40.3 25.1998 37.9 26.6998 35.5C26.6998 35.6 27.7998 35.9 27.7998 35.8Z" fill="#B88A5E"/>
<path d="M203.9 244.9C203.7 245.1 203.4 245.3 203.2 245.5C203.1 245.6 202.3 246 202.2 245.7C201.6 244.2 201.9 242.7 202.3 241.2C202.7 239.6 203 237.9 203.4 236.3C203.8 234.4 204.3 232.6 204.6 230.7C204.9 228.8 204.7 226.8 205 224.9C205.3 223.1 207.6 196.1 207.6 194.2C207.6 192.1 207.6 190 207.6 187.9C207.6 184.2 207.6 180.4 207.2 176.7C206.6 170.7 205.2 164.8 204.6 158.7C204.4 156.3 204.4 154.1 204.8 151.8C205.2 149.2 205.6 146.7 206 144.1C206.3 142 206.6 139.9 206.7 137.8C206.7 134.6 207.1 131.4 207.1 128.2C207.1 124.8 206.5 121.6 205.6 118.4C204.7 115.2 204.2 111.8 203.8 108.5C202.9 101.3 202.3 93.9998 201 86.7998C199.6 79.1998 197.7 71.7998 195.8 64.2998C193.9 56.6998 191.9 49.1998 190.1 41.5998C188.5 34.5998 187.6 27.3998 184.6 20.7998C183.2 17.5998 181.3 14.2998 178.5 12.0998C177.2 11.0998 175.7 10.1998 174.2 9.39984C172.8 8.59984 171.4 7.69984 170 6.99984C166.9 5.39984 162.4 5.59984 159.5 7.59984C156.9 9.39984 154.8 11.9998 152.6 14.1998C149.9 16.8998 147.9 19.9998 146.3 23.3998C144.7 26.6998 142.8 29.8998 140.7 32.9998C138.5 36.0998 136.2 39.0998 134 42.1998C132.9 43.6998 131.7 45.1998 130.7 46.7998C129.8 48.2998 129 49.6998 127.8 50.8998C126.3 52.3998 125 53.7998 123.9 55.4998C122.8 57.0998 121.8 58.7998 120.8 60.3998C118.6 63.6998 116.1 66.7998 114 70.0998C111.9 73.3998 109.9 76.5998 107.7 79.7998C105.5 82.8998 103.8 86.2998 101.5 89.3998C99.3998 92.2998 96.9998 94.8998 94.4998 97.3998C92.0998 99.6998 89.8998 102.2 88.9998 105.3C87.9998 108.9 87.6998 112.8 86.0998 116.3C84.7998 119.3 82.0998 121.5 79.8998 123.9C78.6998 125.2 77.4998 126.4 76.1998 127.6C74.7998 128.9 73.1998 130.2 72.0998 131.7C71.0998 133.1 70.2998 134.7 69.4998 136.3C68.5998 138 67.8998 139.9 67.3998 141.8C66.5998 145.5 66.6998 149.4 66.8998 153.1C67.0998 157.1 67.3998 161.2 67.5998 165.2C67.6998 166.9 68.3998 168.5 68.6998 170.2C68.8998 171.4 69.2998 171.8 70.2998 172.5C70.5998 172.7 69.4998 173.4 69.1998 173.1C68.3998 172.5 67.6998 172.1 67.4998 171.1C67.1998 169.6 66.5998 168.1 66.3998 166.5C66.1998 164.6 66.1998 162.6 65.9998 160.6C65.8998 158.5 65.6998 156.4 65.5998 154.4C65.3998 150.5 65.1998 146.6 65.9998 142.8C66.6998 139.3 68.3998 135.9 70.2998 132.8C72.2998 129.7 75.3998 127.7 77.8998 125C80.1998 122.5 83.0998 120.1 84.6998 117C86.4998 113.4 86.5998 109.2 87.7998 105.4C88.6998 102.5 90.5998 100.2 92.7998 97.9998C95.4998 95.2998 98.0998 92.5998 100.4 89.4998C102.7 86.2998 104.5 82.7998 106.8 79.5998C109.1 76.3998 111 72.9998 113.2 69.6998C115.4 66.3998 118 63.2998 120.1 59.8998C121.2 58.1998 122.2 56.4998 123.4 54.8998C124.5 53.3998 125.8 52.0998 127 50.7998C128.3 49.3998 129.1 47.5998 130.2 45.9998C131.3 44.3998 132.4 42.8998 133.6 41.3998C135.9 38.2998 138.2 35.1998 140.4 31.9998C142.5 28.7998 144.2 25.3998 146 21.9998C147.7 18.7998 149.9 15.9998 152.5 13.4998C154.7 11.3998 156.6 8.99984 159.2 7.29984C161.7 5.59984 164.9 5.09984 167.9 5.49984C169.5 5.69984 170.9 6.29984 172.3 7.09984C173.7 7.99984 175.3 8.79984 176.8 9.59984C179.9 11.3998 182.1 13.5998 184 16.5998C185.9 19.6998 187.3 23.0998 188.2 26.4998C189.2 29.9998 189.8 33.6998 190.6 37.2998C191.5 41.0998 192.4 44.8998 193.3 48.6998C195.3 56.4998 197.3 64.1998 199.2 71.9998C201 79.2998 202.7 86.7998 203.6 94.1998C204.5 101.4 204.9 108.8 206.5 116C207.2 119.3 208.3 122.4 208.4 125.8C208.6 128.9 208.3 131.9 208.1 135C208 137.5 208 139.9 207.6 142.3C207.2 144.9 206.8 147.5 206.4 150.1C206.1 152.2 205.7 154.4 205.9 156.6C206.1 160.1 206.6 163.6 207.2 167C207.7 169.8 208.2 172.6 208.5 175.4C208.9 179.1 209 182.8 209 186.5C209 190.5 209.3 194.6 208.6 198.6C208.3 200.5 206.3 227.6 206.1 229.5C205.9 231.5 205.4 233.4 205 235.3C204.6 237 204.3 238.7 203.9 240.3C203.5 241.9 203 243.7 203.6 245.3C203.3 245.4 202.9 245.4 202.6 245.5C202.8 245.3 203.1 245.1 203.3 244.9C203.4 244.5 204.6 244.4 203.9 244.9Z" fill="#B88A5E"/>
<path d="M155.8 145.9C157.1 142.5 158.6 139.1 159.5 135.5C159.9 133.7 160.2 131.9 160.2 130.1C160.2 128.3 160.6 126.5 160.9 124.7C161.2 122.8 161.2 120.9 161.2 119C161.2 117 161.2 115 161.2 113C161.2 109 161.3 105 161.4 101.1C161.5 97.0997 161.5 92.9997 161.3 88.9997C161.2 87.1997 160.8 85.3997 160.5 83.5997C160.2 81.6997 160.3 79.8997 160.3 77.9997C160.3 74.1997 160.5 70.3997 160.9 66.5997C161.1 64.6997 161.4 62.8997 161.9 61.0997C162.4 59.3997 162.7 57.5997 163.4 55.8997C164.1 54.1997 165.1 52.6997 166 50.9997C167 49.1997 167.6 47.1997 168.7 45.3997C169.4 44.2997 169.8 42.9997 170.7 41.9997C171.6 40.8997 172.9 40.5997 174.4 40.6997C174.5 40.6997 174.7 40.7997 174.7 40.9997C176 44.9997 173.3 48.5997 170.8 51.5997C169.4 53.1997 168.2 54.8997 166.7 56.3997C165.8 57.2997 164.9 58.1997 164 59.0997C163.1 60.0997 162.3 61.0997 161.6 62.1997C160.9 63.1997 160.2 64.1997 159.4 65.1997C158.6 66.1997 157.6 67.0997 156.7 67.9997C154.9 69.8997 153 71.5997 150.9 73.1997C148.7 74.7997 146.7 76.3997 144.8 78.3997C143 80.2997 141.3 82.3997 139.7 84.4997C136.4 88.6997 132.8 92.5997 129.2 96.4997C125.6 100.4 121.9 104.2 118.5 108.3C117 110.2 115.5 112.1 113.9 114.1C113.2 115 112.4 115.9 112.1 117C111.8 118.1 112 119.3 112.1 120.4C112.3 126 111.7 131.7 112.5 137.3C112.9 140 113.5 142.6 114 145.3C114.2 146.7 114.6 148 114.8 149.4C115 150.6 114.8 151.8 114.8 153.1C114.8 154.5 115.3 155.8 115.7 157.2C116.1 158.5 116.3 159.9 116.5 161.3C117 164 117.7 166.8 118.4 169.5C118.7 170.7 119.2 171.9 119.3 173C119.4 173.8 119 174.6 118.3 175.1C116.6 176.3 114.5 175.5 113.1 174.4C111.4 173.1 110.2 171.4 109.5 169.5C108.7 167.4 108.5 165.1 108.2 162.9C107.5 158.2 105.7 153.3 102.8 149.4C101.6 147.8 99.7998 146.5 97.5998 147.3C95.6998 148.1 94.4998 150 93.8998 151.8C92.9998 154.6 91.1998 156.9 89.9998 159.6C88.3998 163.1 88.6998 166.7 88.9998 170.4C89.2998 174.5 88.9998 178.6 88.0998 182.6C87.8998 183.7 87.7998 185.1 87.0998 186.1C86.5998 186.9 85.6998 187.3 84.7998 187.4C83.9998 187.5 82.8998 187.4 82.1998 187C81.5998 186.7 81.3998 186.1 81.0998 185.5C80.2998 183.2 79.6998 181.1 79.6998 178.7C79.5998 176 79.6998 173.2 79.6998 170.5C79.6998 165 80.6998 159.7 81.4998 154.3C81.8998 151.6 82.2998 148.9 82.3998 146.1C82.7998 146.1 83.0998 146 83.4998 146C82.8998 150.8 81.9998 155.5 81.7998 160.3C81.6998 162.7 81.7998 165 81.7998 167.4C81.7998 168.5 81.6998 169.6 81.3998 170.6C81.1998 171.6 80.7998 172.6 80.6998 173.6C80.5998 174.5 80.6998 175.4 80.7998 176.3C80.7998 176.7 81.0998 177.3 80.8998 177.8C80.7998 178.1 80.4998 178.4 80.1998 178.3C79.8998 178.2 79.7998 178 79.6998 177.7C79.4998 177.1 79.2998 176.4 78.9998 175.7C78.4998 174.1 77.8998 172.5 77.2998 170.9C76.4998 168.7 75.6998 166.4 74.6998 164.2C74.1998 163.1 73.7998 161.9 72.9998 161C72.7998 160.8 72.8998 160.9 72.7998 160.8C72.6998 160.7 72.7998 160.8 72.7998 160.8C72.7998 160.8 72.8998 160.8 72.9998 160.8C73.0998 160.8 72.9998 160.8 73.0998 160.7C73.0998 160.9 72.9998 161 72.8998 161.2C72.7998 161.7 72.7998 162.4 72.6998 162.9C72.6998 163.3 72.6998 163.7 72.6998 164C72.6998 164.1 72.6998 164.6 72.6998 164.3C72.2998 164.4 71.9998 164.5 71.5998 164.5C71.6998 163.8 71.5998 163.1 71.6998 162.4C71.7998 160.9 71.7998 159.4 71.8998 157.9C71.9998 156.4 72.0998 155 72.2998 153.5C72.4998 152.2 72.3998 150.9 72.4998 149.6C72.5998 148.8 72.6998 146.1 74.1998 146.5C74.8998 146.7 74.4998 147.8 73.7998 147.7C73.5998 147.6 73.9998 147.7 73.9998 147.6C73.9998 147.6 73.8998 147.7 73.8998 147.8C73.8998 148.1 73.7998 148.3 73.6998 148.6C73.5998 149.3 73.5998 150 73.4998 150.7C73.4998 151.8 73.3998 152.9 73.2998 154C72.9998 156.8 72.8998 159.5 72.7998 162.3C72.7998 163 72.7998 163.8 72.6998 164.5C72.5998 165 71.5998 165.5 71.5998 164.7C71.4998 163.6 71.5998 162.4 71.7998 161.4C71.8998 160.7 72.1998 159.5 73.1998 159.6C74.0998 159.7 74.5998 161 74.9998 161.7C75.8998 163.5 76.6998 165.5 77.3998 167.4C77.9998 169.1 78.5998 170.7 79.1998 172.4C79.5998 173.4 79.8998 174.5 80.2998 175.5C80.3998 175.9 80.5998 176.3 80.6998 176.7C80.6998 176.8 80.7998 176.9 80.7998 176.9C80.7998 177.2 81.0998 177 80.5998 176.9C80.3998 177.1 80.0998 177.2 79.8998 177.4C79.7998 177.5 79.8998 177.7 79.8998 177.5C79.8998 177.4 79.8998 177.3 79.8998 177.2C79.8998 176.9 79.7998 176.6 79.7998 176.3C79.6998 175.5 79.6998 174.7 79.6998 173.9C79.7998 171.9 80.6998 170 80.7998 168C80.8998 165.7 80.6998 163.3 80.7998 161C80.8998 158.7 81.1998 156.4 81.4998 154.1C81.8998 151.4 82.2998 148.7 82.5998 146.1C82.6998 145.4 83.7998 145.2 83.6998 146C83.3998 151.5 82.2998 156.8 81.5998 162.3C80.8998 167.5 80.8998 172.8 80.9998 178.1C81.0998 180.6 81.4998 182.8 82.3998 185.1C82.6998 185.8 82.9998 186.1 83.6998 186.2C84.5998 186.4 86.0998 186.4 86.4998 185.4C86.9998 184.2 87.0998 182.8 87.3998 181.5C87.5998 180.4 87.7998 179.2 87.8998 178.1C88.0998 176.2 88.1998 174.3 88.0998 172.4C87.8998 168.7 87.1998 165 88.2998 161.3C89.0998 158.6 90.7998 156.4 91.9998 153.9C92.7998 152.3 93.0998 150.5 94.1998 148.9C95.0998 147.5 96.4998 146.2 98.2998 145.9C100.2 145.5 101.9 146.4 103.2 147.8C104.7 149.5 105.9 151.6 106.8 153.7C107.7 155.8 108.4 158.1 109 160.4C109.6 162.7 109.6 165 110.2 167.2C110.7 169.3 111.7 171.3 113.3 172.8C114 173.5 114.9 174.1 115.8 174.4C116.5 174.6 118.1 174.7 118.4 173.8C118.5 173.4 118.3 172.9 118.2 172.6C118 171.9 117.8 171.2 117.6 170.5C117.2 169.2 116.9 167.9 116.6 166.6C116 163.9 115.6 161.2 114.9 158.5C114.6 157.2 114.2 156 113.9 154.7C113.7 153.5 113.9 152.3 113.9 151.1C113.9 149.8 113.4 148.4 113.2 147.1C112.9 145.8 112.7 144.5 112.5 143.2C112 140.6 111.4 138 111.2 135.3C111 132.6 111.1 129.8 111.1 127C111.1 124.4 111.1 121.7 111 119.1C111 118.1 111 117.1 111.5 116.1C112 115.1 112.6 114.2 113.3 113.4C116.4 109.5 119.5 105.6 122.8 101.9C126.3 98.0997 129.9 94.3997 133.4 90.4997C136.9 86.5997 139.9 82.3997 143.3 78.5997C145 76.6997 146.9 74.9997 148.9 73.4997C151 71.8997 153.1 70.3997 155 68.4997C156.7 66.6997 158.6 64.8997 160 62.7997C160.7 61.7997 161.3 60.7997 162.1 59.8997C162.9 58.8997 163.8 57.9997 164.7 57.0997C166.2 55.5997 167.5 53.8997 168.9 52.2997C170.3 50.6997 171.7 49.1997 172.7 47.3997C173.7 45.6997 174.2 43.7997 173.6 41.8997C173.7 41.9997 173.8 42.0997 173.9 42.1997C172.5 42.0997 171.6 42.5997 170.9 43.7997C170.3 44.8997 169.7 45.9997 169.1 47.0997C168.3 48.6997 167.7 50.3997 166.8 51.9997C166 53.3997 165.2 54.7997 164.5 56.1997C163.8 57.7997 163.5 59.4997 163 61.1997C162.5 63.0997 162.2 64.8997 162 66.7997C161.6 70.4997 161.4 74.1997 161.4 77.9997C161.4 79.8997 161.3 81.6997 161.6 83.5997C161.9 85.3997 162.3 87.0997 162.4 88.8997C162.6 92.6997 162.6 96.4997 162.5 100.3C162.4 104.2 162.3 108.1 162.3 112C162.3 114 162.3 116 162.3 118C162.3 119.9 162.4 121.8 162.3 123.6C162.1 125.6 161.5 127.5 161.4 129.5C161.3 131.5 161.3 133.3 160.8 135.3C159.9 139.2 158.3 143 156.9 146.7C156.6 146.7 155.5 146.6 155.8 145.9Z" fill="#B88A5E"/>
<path d="M157.7 145.7C156.8 147.5 156 149.2 155.7 151.2C155.7 151.4 155.4 151.7 155.2 151.8C155.2 151.8 154.7 152.1 154.7 151.9C155 149.9 155.8 148.1 156.7 146.3C156.8 146 157.1 145.8 157.3 145.7C157.5 145.6 157.9 145.4 157.7 145.7Z" fill="#B88A5E"/>
<path d="M26.7996 37.1C26.8996 37.7 27.7996 37.5 28.2996 37.4C29.2996 37.2 30.2996 36.9 31.1996 36.6C31.9996 36.4 32.8996 36 33.7996 36C35.1996 36 36.6996 36.4 37.9996 36.9C39.3996 37.5 40.5996 38.3 41.8996 39.1C43.3996 40.1 44.8996 41 46.4996 42C49.4996 43.9 52.4996 45.9 54.9996 48.4C57.2996 50.7 59.2996 53.4 61.2996 56C62.2996 57.3 63.3996 58.6 64.5996 59.9C65.7996 61.1 67.0996 62.3 68.2996 63.6C69.2996 64.7 70.1996 66 71.1996 67.1C72.2996 68.3 73.6996 69.3 74.8996 70.3C76.1996 71.4 77.4996 72.6 78.7996 73.9C79.9996 75.1 80.9996 76.4 82.0996 77.7C83.1996 78.9 84.4996 80 85.3996 81.4C86.2996 82.7 86.6996 84.2 87.3996 85.5C88.2996 87 89.6996 88.1 90.9996 89.3C92.1996 90.4 93.2996 91.6 94.2996 92.8C94.6996 93.3 95.1996 93.8 95.4996 94.4C95.5996 94.7 94.3996 95.1 94.1996 94.7C93.8996 94.1 93.3996 93.5 92.8996 93C92.3996 92.4 91.8996 91.9 91.2996 91.3C90.0996 90 88.6996 88.8 87.4996 87.5C86.2996 86.3 85.6996 85 85.0996 83.5C84.3996 82 83.4996 80.8 82.3996 79.6C81.7996 79 81.2996 78.4 80.6996 77.8C80.0996 77.2 79.5996 76.5 79.0996 75.9C77.8996 74.6 76.6996 73.3 75.3996 72.1C74.0996 70.9 72.7996 69.9 71.4996 68.7C70.2996 67.7 69.3996 66.6 68.3996 65.4C67.3996 64.1 66.1996 62.9 64.9996 61.7C63.7996 60.5 62.4996 59.3 61.4996 57.9C59.3996 55.3 57.4996 52.6 55.2996 50.1C52.9996 47.5 50.1996 45.4 47.2996 43.5C45.7996 42.5 44.2996 41.5 42.6996 40.5C41.2996 39.6 39.9996 38.7 38.5996 37.9C37.2996 37.2 35.8996 36.6 34.2996 36.4C33.9996 36.4 33.6996 36.3 33.3996 36.3C33.4996 36.3 33.2996 36.3 33.2996 36.3C33.0996 36.3 33.2996 36.3 33.0996 36.3C32.6996 36.4 32.1996 36.5 31.7996 36.6C30.7996 36.9 29.7996 37.2 28.7996 37.4C27.9996 37.6 26.9996 37.8 26.1996 37.5C25.8996 37.4 25.6996 37.2 25.6996 36.9C25.3996 37 26.6996 36.7 26.7996 37.1Z" fill="#B88A5E"/>
<path d="M114 118.5C119.6 123.9 127 128.9 128.8 136.7C129.3 139 129.2 141.3 129.2 143.6C129.2 146.4 129.3 149.1 129.3 151.9C129.3 154.6 129.4 157.3 129.1 159.9C128.8 162.4 128 164.8 127.5 167.3C127 169.7 126.8 172.2 127.8 174.4C128.8 176.6 130.5 178.3 132.3 179.8C134.2 181.4 136 183 137.7 184.8C138.5 185.7 139.3 186.6 139.8 187.7C140.2 188.7 140.5 189.7 140.8 190.7C141.2 191.7 141.8 192.6 142.2 193.6C142.5 194.5 142.6 195.4 142.7 196.4C142.8 197.8 142.8 199.8 141.3 200.6C140.1 201.2 138.6 200.8 137.5 200.2C136.2 199.5 135 198.4 134 197.3C133 196.3 132.1 195.1 131.3 194C130.5 192.9 129.7 191.7 128.8 190.7C126.5 188.3 123.1 186 122.6 182.5C122.5 181.7 122.5 180.8 122.7 180C122.8 179.7 123.4 179.8 123.6 179.8C125 180.2 125.6 181.2 126.2 182.4C126.9 183.8 127.9 184.9 128.9 186.1C130 187.5 130.8 189 131.6 190.5C132.5 192.1 133.3 193.8 134.1 195.4C134.5 196.2 134.9 197.1 135.3 197.9C135.6 198.6 136 199.4 136.3 200.1C136.5 200.6 136.6 201.2 136.4 201.8C136.2 202.4 135.6 202.9 135 203.1C132.3 204.3 129.4 201.7 127.9 199.8C126.9 198.6 126.2 197.2 125.2 195.9C124.2 194.6 123 193.6 121.9 192.5C119.6 190.2 117.9 187.4 115.5 185.2C114.3 184.1 113 183.1 111.7 182.1C110.6 181.2 109.8 180.3 109.3 179C108.3 176.4 106.1 174.5 105.2 171.8C104.7 170.3 104.8 168.6 104.8 167C104.8 165.1 104.8 163.2 104.8 161.3C104.8 159.5 104.9 157.6 104.8 155.8C104.8 155 104.6 154.2 104.3 153.4C104 152.6 103.6 151.9 103.4 151.2C103.1 150.5 103 149.7 103 149C103 148.6 104.3 148.7 104.3 149.2C104.1 150.8 105.1 152.2 105.6 153.6C106.1 155.1 106.1 156.6 106.1 158.1C106.1 161.7 106 165.4 106.1 169C106.1 169.8 106.1 170.5 106.3 171.3C106.5 171.9 106.7 172.5 107 173.1C107.6 174.3 108.4 175.3 109.1 176.4C109.5 177 109.8 177.5 110.1 178.1C110.4 178.7 110.6 179.3 110.9 179.9C111.6 181.1 112.7 181.9 113.8 182.7C115 183.6 116.2 184.6 117.3 185.7C118.4 186.8 119.4 188.1 120.4 189.3C121.3 190.5 122.3 191.6 123.4 192.7C124.5 193.8 125.7 194.7 126.6 196C128.2 198.3 129.5 200.8 132.1 202.3C132.6 202.6 133.1 202.8 133.7 202.8C134.3 202.7 135 202.3 135.3 201.7C135.6 201.2 135.5 200.6 135.3 200.1C135 199.4 134.7 198.7 134.3 198C132.8 194.8 131.2 191.6 129.5 188.5C128.7 187.1 127.7 185.9 126.7 184.7C126.3 184.2 125.8 183.6 125.5 183C125.2 182.5 125 181.9 124.7 181.4C124.4 181 124 180.5 123.5 180.3C123.8 180.2 124.1 180.2 124.4 180.1C124 181.8 124.3 183.4 125.2 184.9C126.1 186.3 127.3 187.5 128.6 188.7C129.9 189.9 131.2 191.1 132.2 192.6C132.8 193.5 133.4 194.4 134.1 195.3C135 196.5 136.1 197.6 137.2 198.6C137.7 199 138.3 199.5 138.9 199.8C139.1 199.9 139.4 200.1 139.6 200.1C139.7 200.1 139.9 200.2 139.9 200.2C140 200.2 140 200.2 140.1 200.2C140.2 200.2 140 200.2 140.2 200.2C140.4 200.2 140.5 200.2 140.8 200.1C141.1 200 141.3 199.8 141.5 199.6C142 198.9 142.1 198 142.1 197.2C142.1 196.3 142.1 195.4 141.9 194.6C141.7 193.6 141.2 192.8 140.8 191.9C140.3 190.9 140 189.8 139.6 188.8C139.3 187.7 138.8 186.8 138.1 185.9C136.6 184.1 134.9 182.5 133.1 180.9C131.3 179.4 129.6 177.9 128.3 175.9C127.7 175 127.2 174 126.9 172.9C126.6 171.8 126.6 170.6 126.7 169.5C126.9 167 127.6 164.7 128.2 162.3C128.7 159.8 128.8 157.3 128.8 154.8C128.8 152.1 128.8 149.4 128.7 146.7C128.7 145.4 128.7 144 128.6 142.7C128.6 141.5 128.6 140.3 128.6 139.1C128.1 131.1 121.3 125.7 115.6 120.6C114.9 120 114.2 119.3 113.5 118.6C113.3 118.4 113.6 118.2 113.8 118.2C113.4 118.2 113.8 118.3 114 118.5Z" fill="#B88A5E"/>
<path d="M79.3997 123.4C78.4997 123.4 77.6997 123 77.0997 122.3C76.5997 121.7 76.1997 120.9 75.7997 120.3C75.1997 119.4 74.3997 118.6 73.5997 117.9C72.6997 117.1 71.7997 116.4 70.9997 115.6C69.0997 113.9 67.7997 111.9 66.0997 110.1C64.3997 108.2 62.4997 106.5 60.5997 104.8C56.7997 101.4 52.9997 98.1997 48.6997 95.3997C47.6997 94.6997 46.7997 93.9997 45.9997 93.1997C45.1997 92.3997 44.4997 91.5997 43.7997 90.6997C42.2997 88.9997 40.4997 87.4997 39.0997 85.6997C37.7997 84.0997 36.7997 82.2997 36.5997 80.1997C36.4997 78.6997 36.4997 76.4997 38.1997 75.7997C39.6997 75.1997 41.1997 76.1997 42.2997 77.0997C43.4997 77.9997 44.4997 79.1997 45.4997 80.2997C48.6997 83.9997 50.4997 88.4997 52.9997 92.5997C54.2997 94.6997 55.6997 96.7997 56.8997 98.9997C58.0997 101.3 59.0997 103.7 60.1997 106.1C61.1997 108.5 62.0997 110.9 63.2997 113.2C63.8997 114.2 64.4997 115.3 64.9997 116.4C65.4997 117.6 65.7997 118.8 66.1997 120C66.5997 121.1 67.1997 122.1 67.6997 123.2C68.1997 124.2 68.5997 125.3 68.8997 126.4C69.4997 128.1 70.7997 129.5 71.4997 131.1C71.7997 131.8 72.0997 132.6 71.9997 133.4C71.8997 134.1 70.5997 134 70.6997 133.3C70.7997 132.6 70.3997 131.8 70.0997 131.2C69.6997 130.4 69.1997 129.6 68.6997 128.9C68.2997 128.2 67.7997 127.4 67.5997 126.6C67.2997 125.5 66.8997 124.5 66.3997 123.5C65.8997 122.5 65.2997 121.4 64.8997 120.4C64.4997 119.3 64.1997 118.1 63.6997 117C63.1997 115.9 62.5997 114.9 62.0997 113.9C61.4997 112.8 60.9997 111.7 60.4997 110.6C59.4997 108.2 58.4997 105.9 57.4997 103.6C56.4997 101.4 55.4997 99.1997 54.1997 97.0997C52.9997 95.0997 51.5997 93.0997 50.3997 90.9997C49.2997 88.9997 48.2997 86.8997 47.0997 84.8997C45.9997 83.1997 44.7997 81.5997 43.3997 80.0997C42.3997 79.0997 41.3997 77.9997 40.0997 77.2997C39.8997 77.1997 39.5997 76.9997 39.2997 76.9997C39.0997 76.8997 38.7997 76.8997 38.6997 76.9997C38.0997 77.1997 37.8997 77.8997 37.7997 78.4997C37.4997 80.2997 37.8997 82.0997 38.7997 83.5997C39.8997 85.4997 41.3997 87.0997 42.9997 88.5997C44.5997 90.0997 45.7997 91.8997 47.3997 93.2997C48.1997 94.0997 49.1997 94.6997 50.0997 95.2997C51.0997 95.9997 52.0997 96.6997 53.0997 97.4997C54.9997 98.9997 56.8997 100.5 58.7997 102.1C60.5997 103.7 62.4997 105.4 64.1997 107C65.0997 107.8 65.8997 108.7 66.6997 109.6C67.4997 110.5 68.2997 111.5 68.9997 112.4C69.6997 113.3 70.4997 114.1 71.2997 114.9C72.1997 115.7 73.0997 116.4 73.8997 117.2C74.6997 117.9 75.4997 118.7 76.0997 119.5C76.5997 120.1 76.8997 120.9 77.3997 121.5C77.7997 122.1 78.2997 122.5 79.0997 122.5C80.3997 122.4 80.1997 123.4 79.3997 123.4Z" fill="#B88A5E"/>
<path d="M109.5 177.4C109.7 178.6 110.5 179.4 111 180.5C111.5 181.7 111.7 183 111.9 184.3C112.4 187 112.9 189.7 113.6 192.3C114 193.6 114.3 195 114.8 196.3C115.1 197.1 115.8 197.9 116.6 198.4C117.5 198.9 118.4 198.8 119.1 198C119.6 197.3 119.7 196.4 119.7 195.7C119.7 193.5 118.8 191.3 118.4 189.1C118.3 188.5 119.2 187.9 119.4 188.6C119.8 190.7 120.6 192.7 120.7 194.9C120.8 196 120.7 197 120.2 198C119.7 199 118.8 199.9 117.6 199.9C116.5 199.9 115.6 199.3 114.9 198.5C114.1 197.6 113.8 196.4 113.4 195.3C112.5 192.4 111.8 189.5 111.2 186.5C110.9 184.9 110.8 183.4 110.3 181.8C109.8 180.4 108.7 179.3 108.5 177.9C108.5 177.6 108.6 177.3 108.9 177.1C109.2 177 109.4 177.1 109.5 177.4Z" fill="#B88A5E"/>
<path d="M160.6 82.3997C160.4 81.5997 159.6 80.7997 159.1 80.0997C158.8 79.6997 158.5 79.2997 158.2 78.8997C157.8 78.4997 157.3 78.0997 156.9 77.6997C156.4 77.2997 156.1 76.6997 155.7 76.1997C155.3 75.6997 154.9 75.2997 154.4 74.9997C153.9 74.5997 153.4 74.2997 152.8 73.9997C152.4 73.7997 152 73.4997 151.5 73.3997C150.5 73.1997 149.5 73.1997 149.2 72.0997C149.2 71.9997 149.6 71.6997 149.6 71.5997C149.6 71.5997 150.1 71.1997 150.2 71.2997C150.4 72.1997 151.2 72.3997 152.1 72.4997C153.2 72.6997 154 73.1997 154.9 73.7997C155.4 74.0997 155.9 74.4997 156.3 74.8997C156.7 75.3997 157 75.8997 157.4 76.3997C157.8 76.8997 158.3 77.2997 158.7 77.6997C159.1 78.0997 159.4 78.4997 159.7 78.8997C160 79.2997 160.4 79.7997 160.7 80.1997C161 80.5997 161.3 80.9997 161.4 81.4997C161.4 81.5997 161 81.8997 161 81.9997C161.1 82.0997 160.6 82.4997 160.6 82.3997Z" fill="#B88A5E"/>
<path d="M119.7 59.0998C119 59.0998 118.4 59.2998 117.8 59.5998C117.1 59.8998 116.5 60.0998 115.8 60.2998C114.3 60.5998 112.8 60.6998 111.4 61.2998C108.7 62.2998 106.2 63.5998 103.9 65.1998C102.8 65.9998 101.8 66.8998 100.7 67.6998C99.6 68.4998 98.5 69.2998 97.4 70.1998C96.3 70.9998 95.3 71.8998 94.4 72.9998C93.4 74.0998 92.6 75.3998 91.7 76.4998C90.7 77.7998 89.8 79.1998 88.8 80.4998C88.5 80.8998 88.2 81.2998 87.9 81.7998C87.6 82.3998 87.6 82.9998 87.6 83.5998C87.6 84.0998 86.5 84.6998 86.5 83.9998C86.5 82.7998 86.8 81.7998 87.5 80.7998C88.3 79.6998 89.1 78.4998 89.9 77.3998C90.8 76.0998 91.9 74.8998 92.8 73.5998C93.7 72.3998 94.7 71.3998 95.8 70.3998C96.9 69.4998 98 68.5998 99.2 67.7998C100.4 66.8998 101.4 65.9998 102.6 65.0998C104.9 63.2998 107.6 61.7998 110.4 60.6998C111.2 60.3998 112 60.0998 112.9 59.8998C113.7 59.6998 114.6 59.5998 115.5 59.3998C116.3 59.2998 117 58.9998 117.8 58.6998C118.6 58.3998 119.3 58.0998 120.1 58.1998C120.4 58.1998 120.4 58.5998 120.3 58.7998C120.3 58.9998 120 59.1998 119.7 59.0998Z" fill="#B88A5E"/>
<path d="M156.4 148.8C156.4 155.3 155.1 162.2 158.2 168.3C160.8 173.3 165.4 176.8 169.8 180.4C172 182.2 174.2 184.2 176 186.4C177.7 188.5 179.2 190.9 180.3 193.3C182.6 198.1 183.8 203.5 183.4 208.8C183 214.1 180.8 219.2 176.9 223.1C176.4 223.6 175.9 224.1 175.3 224.5C175 224.7 174.7 224.8 174.4 224.6C174.2 224.4 174.1 224 174.4 223.8C178.6 220.3 181.2 215.5 182 210.2C182.7 205 181.7 199.7 179.7 194.8C178.7 192.4 177.3 190 175.7 187.9C174 185.6 172 183.7 169.8 181.9C165.5 178.3 160.8 175 157.9 170.2C157.1 168.9 156.4 167.5 155.9 166.1C155.4 164.5 155.1 162.9 155 161.3C154.7 158 155 154.6 155.1 151.3C155.1 150.5 155.1 149.7 155.1 148.9C155.1 148.2 156.4 148 156.4 148.8Z" fill="#B88A5E"/>
<path d="M171.9 196.6C172.2 198.8 172.8 201.1 172.6 203.4C172.5 204.7 172 205.8 171.7 207C171.3 208.2 171.1 209.5 170.7 210.7C170.4 211.9 169.9 213.1 169.2 214.1C168.6 215.1 167.9 216 167.1 216.8C165.5 218.6 163.7 220.2 161.4 221C158.9 221.9 156 221.7 153.7 223.2C153.5 223.3 153.1 223.5 152.9 223.3C152.7 223.1 153 222.9 153.1 222.8C155.1 221.5 157.5 221.3 159.8 220.8C160.9 220.6 162 220.2 163 219.6C163.9 219 164.8 218.2 165.5 217.4C167.1 215.7 168.6 213.8 169.3 211.6C169.7 210.4 169.9 209.2 170.3 208C170.6 206.8 171.1 205.6 171.3 204.3C171.7 201.8 171.1 199.4 170.7 196.9C170.6 196.5 171.8 196.1 171.9 196.6Z" fill="#B88A5E"/>
<path d="M129.5 222.4C124.1 222.5 118.6 222.2 113.2 221.6C107.8 221 102.4 220 96.9997 219.4C93.8997 219.1 90.7997 218.9 87.6997 219C86.8997 219 87.0997 218 87.8997 217.9C93.3997 217.7 98.8997 218.5 104.3 219.3C109.6 220.1 115 220.8 120.4 221.1C123.5 221.3 126.5 221.3 129.6 221.3C130.5 221.3 130.2 222.4 129.5 222.4Z" fill="#B88A5E"/>
<path d="M87.2998 217.7C87.2998 214.8 87.2998 212 87.5998 209.1C87.6998 207.7 87.8998 206.3 88.1998 205C88.4998 203.7 88.9998 202.5 89.4998 201.3C90.0998 199.9 90.5998 198.6 90.7998 197.1C90.7998 196.8 91.0998 196.6 91.2998 196.5C91.2998 196.5 91.7998 196.2 91.7998 196.4C91.4998 198.9 90.0998 201.2 89.3998 203.6C88.9998 205 88.7998 206.4 88.6998 207.8C88.4998 209.2 88.3998 210.6 88.3998 212.1C88.2998 213.7 88.2998 215.4 88.2998 217C88.2998 217.2 87.9998 217.5 87.7998 217.6C87.7998 217.6 87.2998 217.9 87.2998 217.7Z" fill="#B88A5E"/>
</svg>
