<svg width="275" height="327" viewBox="0 0 275 327" fill="none" xmlns="http://www.w3.org/2000/svg">
<path d="M74.425 34C75.425 36.3 76.825 38.6 77.425 41.1C78.025 43.2 78.525 45.4 78.725 47.6C78.925 49.6 78.725 51.7 78.125 53.6C77.425 55.8 76.025 57.4001 74.125 58.7001C72.125 60.1001 70.225 61.4 67.925 62.3C65.625 63.2 63.525 64.4 61.225 65.6C58.925 66.8 56.625 67.8 54.225 68.7C51.825 69.6 49.325 70.6 46.925 71.1C44.325 71.7 41.725 71.9001 39.125 72.4001C36.625 72.9001 34.225 73.5001 31.825 74.3001C29.525 75.1001 27.225 76.2001 25.125 77.4001C23.225 78.5001 21.825 79.9 20.325 81.5C17.025 85.2 13.425 88.8 11.725 93.5C10.825 95.8 10.625 98.4 9.925 100.8C9.125 103.4 8.425 106 8.025 108.7C7.125 114 7.025 119.3 7.025 124.7C7.025 130.3 6.925 136 7.125 141.6C7.325 147.2 7.925 152.7 7.925 158.3C7.925 163.9 8.025 169.5 7.725 175C7.525 177.7 7.225 180.3 7.125 183C7.025 185.8 7.025 188.6 6.725 191.4C6.225 197 5.225 202.6 4.625 208.1C3.325 219.3 3.425 230.6 1.625 241.7C0.825 247.3 0.025 252.7 0.025 258.2C0.025 263.7 -0.075 269.3 0.125 274.8C0.225 277.6 0.625 280.4 0.725 283.2C0.825 285.9 0.725 288.6 0.825 291.3C0.925 293.8 1.525 296.2 1.625 298.7C1.725 299.9 1.825 301.1 2.025 302.3C2.225 303.6 2.025 305 2.125 306.3C2.125 307.5 2.425 308.6 2.525 309.8C2.625 311.1 2.625 312.5 2.625 313.8C2.625 314 3.825 314.1 3.825 314C3.825 312.7 3.825 311.5 3.725 310.2C3.625 308.9 3.325 307.5 3.325 306.2C3.325 304.9 3.425 303.7 3.225 302.4C3.225 301.3 3.025 300 3.025 298.7C2.825 296.3 2.325 293.9 2.225 291.5C2.125 288.7 2.225 285.9 2.125 283.1C1.825 277.6 1.325 272.1 1.325 266.5C1.325 260.9 1.225 255.3 1.825 249.8C2.425 244.4 3.525 239 4.025 233.5C4.525 227.9 4.525 222.3 5.025 216.8C5.525 211.1 6.225 205.4 7.025 199.7C7.425 197 7.825 194.2 8.025 191.5C8.325 188.7 8.325 185.9 8.425 183.1C8.525 180.3 8.925 177.6 9.025 174.8C9.225 172.1 9.225 169.5 9.225 166.8C9.225 161.1 9.425 155.5 8.925 149.8C8.425 144.3 8.325 138.7 8.325 133.1C8.325 127.6 8.225 122.1 8.525 116.6C8.725 111.2 9.625 106 11.125 100.9C11.925 98.4001 12.125 95.8001 13.025 93.4001C13.925 91.2001 15.225 89.1 16.625 87.2C18.125 85.2 19.825 83.4 21.525 81.5C23.225 79.5 24.925 78.1001 27.325 76.8001C31.825 74.4001 36.725 73 41.825 72.1C44.325 71.7 46.925 71.5 49.325 70.7C51.825 70 54.225 69.1 56.625 68.1C61.325 66.3 65.525 63.6001 70.225 61.7001C72.425 60.8001 74.425 59.4001 76.225 57.9001C77.725 56.7001 78.825 55.3001 79.425 53.4001C80.725 49.3001 79.825 44.8001 78.625 40.7001C77.925 38.3001 76.725 36.1 75.625 33.8C75.525 33.9 74.425 34.1 74.425 34Z" fill="#B88A5E" fill-opacity="0.1"/>
<path d="M118.225 28.5001C118.125 29.9001 118.525 31.3001 119.025 32.6001C119.525 34.1001 119.925 35.7001 120.525 37.1001C121.625 39.6001 123.325 42.1001 125.025 44.3001C128.025 48.0001 132.025 50.6001 136.325 52.6001C146.325 57.1001 157.425 58.4001 168.125 60.4001C170.725 60.9001 173.325 61.4001 175.925 62.1001C178.625 62.8001 181.425 64.3001 184.225 64.4001C186.125 64.5001 187.725 65.3001 189.625 65.7001C191.625 66.2001 193.325 66.7001 195.025 67.9001C198.125 70.1001 201.125 72.4001 203.525 75.5001C208.225 81.7001 208.625 89.9001 208.425 97.3001C208.325 105.3 207.825 113.2 207.825 121.2C207.825 125.4 207.925 129.5 207.825 133.7C207.825 135.6 207.525 137.5 207.425 139.4C207.325 141.6 207.425 143.8 207.425 146C207.425 150.3 207.525 154.6 207.425 158.9C207.425 160.9 207.025 162.7 206.725 164.6C206.425 166.4 206.425 168.3 206.025 170.1C205.825 171.1 205.425 172 205.225 173C205.025 173.8 205.225 174.6 205.125 175.5C205.125 176.4 204.825 177.2 204.625 178.1C204.425 179.4 204.225 180.8 203.625 182C203.025 183.4 201.925 184.5 201.125 185.8C200.125 187.3 199.425 188.9 198.325 190.2C197.725 190.9 197.025 191.6 196.225 192.2C195.825 192.5 195.225 193 194.725 193C193.725 193 194.025 191.8 194.225 191.2C195.225 187.7 197.225 184.4 198.725 181.2C200.425 177.6 202.225 174.1 203.925 170.5C205.625 166.9 207.025 163.2 208.525 159.6C210.125 155.8 212.025 152 213.425 148.1C214.025 146.4 214.725 144.7 215.425 143.1C216.225 141.2 216.725 139.3 217.525 137.4C218.225 135.7 219.125 134.2 220.025 132.7C220.925 131.1 221.525 129.3 222.125 127.6C223.425 123.9 224.625 120.2 226.425 116.7C227.225 115.2 227.925 113.6 228.725 112.1C229.425 110.7 230.325 109.1 229.725 107.6C228.925 105.2 225.925 104.1 223.825 103C220.025 101 218.225 97.0001 215.925 93.6001C213.925 90.7001 213.725 87.2001 212.225 84.1001C211.025 81.7001 209.425 80.7001 206.825 80.3001C204.925 80.0001 203.125 80.0001 201.225 79.9001C199.125 79.8001 197.125 79.1001 194.925 79.0001C193.725 78.9001 192.925 79.3001 192.025 80.0001C190.525 81.3001 188.625 81.8001 186.825 82.7001C186.125 83.1001 185.525 83.6001 184.825 84.0001C184.025 84.4001 183.125 84.6001 182.325 84.9001C181.825 85.0001 181.125 85.4001 180.625 85.4001C180.025 85.4001 180.025 85.5001 180.125 84.8001C180.225 84.5001 180.425 84.1001 180.625 83.8001C181.425 82.4001 182.325 81.5001 183.725 80.7001C185.425 79.8001 187.025 78.8001 188.825 77.9001C190.325 77.2001 191.925 76.6001 193.425 75.8001C195.225 74.9001 196.925 74.1001 198.925 74.0001C201.025 73.8001 203.225 74.4001 205.325 74.7001C206.325 74.8001 207.225 75.1001 208.125 75.2001C208.925 75.4001 209.725 75.2001 210.525 75.4001C210.225 75.1001 209.925 74.9001 209.625 74.6001C208.325 74.8001 207.025 74.9001 205.725 75.0001C203.325 75.1001 200.925 74.6001 198.525 74.6001C196.025 74.6001 193.325 74.3001 190.925 74.8001C188.425 75.3001 186.425 76.8001 184.725 78.7001C182.125 81.5001 180.125 85.3001 175.925 86.0001C173.125 86.5001 174.825 83.7001 175.825 82.7001C176.825 81.6001 178.125 80.8001 179.125 79.7001C180.025 78.7001 180.825 77.6001 181.925 76.7001C183.025 75.8001 184.225 75.0001 185.425 74.1001C186.525 73.3001 187.425 72.4001 188.625 71.7001C189.525 71.2001 190.625 70.6001 190.825 69.6001C190.925 69.3001 190.425 69.1001 190.325 69.0001C189.525 68.5001 188.525 68.7001 187.625 69.0001C186.225 69.4001 184.825 70.0001 183.425 70.6001C181.725 71.4001 180.125 71.8001 178.325 72.2001C177.025 72.5001 175.725 72.8001 174.525 73.0001C174.025 73.1001 173.225 73.4001 172.725 73.2001C172.325 73.1001 172.525 73.2001 172.325 72.8001C172.225 72.4001 172.325 71.9001 172.425 71.6001C173.025 69.4001 175.625 68.2001 177.425 67.1001C179.625 65.7001 182.125 64.8001 184.625 64.0001C187.025 63.2001 189.425 62.3001 191.825 61.6001C192.825 61.3001 193.825 60.8001 194.825 60.4001C196.125 59.9001 197.625 59.8001 199.025 60.0001C201.825 60.3001 204.425 61.6001 207.025 62.7001C209.725 63.8001 212.625 64.5001 215.225 65.7001C215.025 65.5001 214.825 65.2001 214.725 65.0001C213.625 64.9001 212.625 65.3001 211.425 65.5001C209.025 66.0001 209.625 63.7001 209.225 62.3001C209.025 61.4001 208.325 60.8001 207.825 60.1001C207.225 59.2001 206.625 58.3001 206.025 57.3001C205.025 55.6001 204.025 54.1001 202.325 52.9001C200.225 51.4001 197.825 50.6001 195.625 49.4001C194.525 48.8001 193.025 47.3001 193.325 45.8001C193.525 44.5001 195.125 44.9001 196.125 45.0001C197.225 45.2001 198.325 45.5001 199.325 45.9001C200.725 46.4001 202.325 46.7001 203.525 47.6001C204.625 48.4001 205.725 49.3001 206.825 50.2001C208.325 51.3001 209.825 52.5001 211.025 54.0001C212.825 56.3001 214.025 59.0001 215.825 61.3001C217.525 63.6001 219.625 65.5001 221.725 67.4001C224.125 69.5001 226.225 72.0001 228.425 74.3001C230.725 76.7001 232.725 79.4001 234.925 82.0001C236.925 84.3001 239.025 86.5001 241.225 88.5001C243.725 90.8001 246.225 93.0001 248.625 95.4001C249.525 96.3001 250.625 97.2001 251.525 98.1001C252.925 99.6001 253.725 101.3 254.025 103.4C254.525 106.3 254.225 109.4 253.925 112.3C253.625 115.5 253.125 118.7 252.525 121.9C250.025 134.9 245.425 147.2 241.425 159.8C237.825 171.5 235.025 183.5 230.525 194.9C226.925 204.1 222.525 213.6 216.225 221.3C213.125 225.1 209.725 228 205.225 230C203.025 231 201.325 232.9 199.225 234.1C196.825 235.4 194.225 234.7 191.725 234.4C189.125 234.1 186.325 233.6 184.025 232C181.525 230.3 180.025 227.3 178.525 224.8C177.025 222.4 175.325 220 174.225 217.4C173.225 215 172.625 212.4 172.125 209.9C171.025 204.6 169.425 199.5 168.425 194.2C167.325 188.3 166.725 182.3 166.725 176.3C166.725 163.8 168.825 151.4 172.425 139.5C174.225 133.7 176.325 127.9 178.725 122.3C179.825 119.8 181.525 116.9 181.125 114.1C180.825 111.8 179.125 110 177.525 108.5C175.325 106.5 172.925 104.6 170.525 102.9C168.425 101.4 165.425 99.1001 162.625 99.2001C161.425 99.2001 160.525 100 160.325 101.2C159.825 103.5 161.825 105.8 163.125 107.4C166.325 111.2 170.225 114.4 173.625 118C177.525 122.2 180.225 127 180.025 132.8C179.825 139.3 176.625 145.2 173.925 150.9C168.425 162.3 164.225 174.4 162.025 186.9C159.825 199.2 159.725 211.8 162.725 224C165.525 235.6 170.425 246.6 174.125 258C175.825 263.2 177.125 268.5 178.625 273.7C179.625 277.1 180.625 280.5 181.525 284C183.325 290.5 184.525 297.1 185.225 303.9C185.725 309.3 186.125 314.6 186.425 320C186.425 320.3 187.525 320.9 187.525 320.6C187.025 311.3 186.425 301.9 184.625 292.7C183.225 285.9 181.125 279.3 179.225 272.6C177.725 267.3 176.425 262 174.625 256.8C172.625 250.8 170.325 245 168.325 239.1C166.225 233.2 164.325 227.2 163.025 221C161.725 214.7 161.325 208.3 161.625 201.9C162.125 188.6 165.325 175.5 170.225 163.1C172.625 157 175.725 151.1 178.225 145.1C180.525 139.6 182.325 133.5 180.425 127.6C179.025 123 175.625 119.3 172.225 116C170.325 114.2 168.425 112.4 166.625 110.5C164.725 108.6 161.825 105.9 161.525 103.1C161.325 101.4 162.325 99.9001 164.025 100.1C165.625 100.2 167.225 101.2 168.525 102C171.225 103.7 173.525 105.7 176.025 107.7C178.725 109.9 180.925 112.4 180.125 116C179.425 119.1 177.625 122.1 176.425 125C174.025 130.8 172.025 136.8 170.425 142.9C167.125 154.9 165.425 167.4 165.925 179.9C166.225 186.1 167.025 192.2 168.525 198.2C169.125 200.8 169.925 203.3 170.525 205.9C171.125 208.5 171.525 211.1 172.325 213.6C173.725 218.6 176.825 223 179.625 227.4C180.925 229.4 182.325 231.3 184.425 232.6C186.225 233.7 188.125 234.3 190.225 234.7C192.625 235.2 195.325 235.7 197.725 235.6C200.125 235.5 202.025 233.7 203.825 232.4C205.725 231 207.925 230.2 209.925 228.9C211.925 227.6 213.725 226 215.425 224.3C222.225 217.1 226.825 207.6 230.625 198.5C235.525 186.8 238.525 174.5 242.125 162.5C245.925 149.9 250.625 137.7 253.325 124.8C254.025 121.5 254.525 118.3 254.925 115C255.325 111.9 255.625 108.6 255.425 105.5C255.225 102.8 254.425 100.4 252.525 98.4001C250.525 96.2001 248.225 94.2001 246.025 92.2001C243.425 89.9001 240.825 87.6001 238.525 85.1001C236.025 82.5001 233.925 79.6001 231.625 76.9001C229.725 74.6001 227.525 72.5001 225.525 70.3001C223.325 68.0001 220.825 66.1001 218.625 63.8001C216.425 61.5001 215.025 58.7001 213.325 56.1001C211.825 53.8001 209.925 52.0001 207.725 50.4001C205.625 48.8001 203.725 46.9001 201.125 46.1001C199.225 45.6001 197.325 44.7001 195.325 44.4001C193.625 44.1001 192.125 44.6001 192.825 46.6001C193.425 48.3001 194.825 49.5001 196.325 50.3001C199.025 51.7001 202.225 52.5001 204.125 55.0001C205.425 56.7001 206.325 58.6001 207.625 60.4001C208.125 61.0001 208.525 61.5001 208.625 62.3001C208.725 62.9001 208.625 63.4001 208.725 64.0001C208.925 64.8001 209.425 65.4001 210.025 65.9001C211.825 67.3001 213.725 65.7001 215.725 65.9001C216.125 65.9001 215.325 65.2001 215.225 65.2001C212.625 64.0001 209.825 63.3001 207.225 62.3001C205.025 61.4001 202.825 60.3001 200.425 59.7001C197.925 59.1001 195.525 59.1001 193.225 60.2001C192.025 60.7001 190.725 61.0001 189.425 61.4001C188.025 61.8001 186.625 62.4001 185.225 62.9001C182.525 63.8001 179.825 64.7001 177.325 66.1001C175.425 67.2001 172.625 68.5001 171.725 70.7001C171.225 71.9001 171.425 73.5001 172.725 74.1001C173.325 74.4001 173.925 74.3001 174.525 74.2001C176.225 74.0001 177.825 73.5001 179.525 73.2001C181.625 72.7001 183.425 72.1001 185.425 71.2001C186.325 70.8001 187.225 70.4001 188.125 70.1001C188.625 69.9001 190.125 69.3001 190.625 69.6001C190.425 69.4001 190.225 69.2001 190.125 69.0001C189.825 70.1001 188.625 70.7001 187.725 71.3001C186.625 72.0001 185.725 72.8001 184.725 73.6001C183.725 74.4001 182.625 75.1001 181.625 75.9001C180.425 76.9001 179.525 78.1001 178.425 79.2001C177.125 80.6001 172.025 83.7001 174.025 86.0001C176.225 88.6001 180.325 86.0001 182.225 84.2001C184.025 82.4001 185.325 80.2001 187.225 78.4001C189.825 76.0001 192.625 75.5001 196.025 75.5001C201.025 75.6001 205.925 76.3001 210.925 75.6001C211.225 75.6001 210.225 74.8001 210.025 74.8001C209.025 74.6001 208.025 74.6001 207.025 74.4001C206.325 74.2001 205.525 74.1001 204.825 74.0001C202.825 73.8001 200.725 73.2001 198.725 73.3001C196.925 73.4001 195.125 73.9001 193.525 74.7001C191.725 75.6001 189.925 76.4001 188.125 77.3001C186.525 78.1001 185.025 79.0001 183.425 79.9001C182.125 80.6001 181.025 81.3001 180.225 82.6001C179.725 83.4001 178.925 84.4001 179.425 85.3001C179.825 86.0001 180.625 86.4001 181.425 86.4001C182.625 86.4001 184.125 85.8001 185.225 85.4001C185.925 85.1001 186.525 84.8001 187.125 84.3001C188.125 83.6001 189.125 83.1001 190.225 82.7001C191.625 82.1001 192.625 81.4001 193.925 80.5001C195.725 79.2001 198.325 80.5001 200.225 80.8001C202.225 81.1001 204.125 80.9001 206.125 81.1001C206.925 81.2001 207.625 81.3001 208.425 81.4001C210.225 81.7001 211.125 82.7001 211.825 84.2001C213.225 87.3001 213.425 90.6001 215.425 93.4001C217.425 96.3001 218.825 99.4001 221.525 101.7C222.525 102.6 223.625 103.3 224.725 103.8C226.725 104.8 229.525 105.9 229.125 108.6C228.825 110.3 227.725 112.1 226.925 113.7C226.025 115.6 224.925 117.4 224.125 119.4C222.625 123 221.725 126.8 220.125 130.3C219.425 132 218.325 133.5 217.525 135.2C216.625 136.9 216.225 138.8 215.525 140.6C214.825 142.5 213.925 144.2 213.325 146.1C212.625 148.2 211.825 150.2 211.025 152.2C207.725 159.8 204.625 167.5 200.925 174.9C199.025 178.7 197.225 182.5 195.525 186.4C194.725 188.1 192.425 191.6 193.925 193.4C197.225 197.3 201.825 188 203.025 186.4C204.025 185 205.025 183.7 205.525 182C205.725 181.2 205.925 180.5 206.025 179.7C206.225 178.7 206.525 177.6 206.625 176.6C206.725 175.4 206.625 174.4 207.025 173.2C207.225 172.5 207.425 171.9 207.525 171.2C207.925 169.2 207.925 167.2 208.325 165.2C209.825 156.7 208.425 148 209.025 139.5C209.625 131 209.025 122.4 209.625 113.9C209.825 109.9 209.825 105.9 210.025 101.9C210.125 98.0001 210.225 94.2001 209.925 90.3001C209.625 86.6001 208.825 83.0001 207.225 79.7001C205.825 76.9001 203.825 74.4001 201.425 72.3001C199.125 70.2001 196.525 68.0001 193.725 66.6001C192.425 65.9001 191.025 65.7001 189.525 65.3001C187.725 64.8001 186.125 64.1001 184.225 64.0001C182.425 63.9001 180.725 63.1001 179.025 62.5001C177.825 62.1001 176.625 61.8001 175.325 61.5001C172.825 60.9001 170.325 60.4001 167.725 59.9001C162.025 58.8001 156.325 57.9001 150.625 56.7001C144.925 55.4001 139.225 53.9001 134.125 51.0001C129.025 48.2001 125.125 43.9001 122.625 38.6001C122.025 37.3001 121.625 35.9001 121.225 34.5001C120.625 32.9001 120.025 31.3001 120.125 29.5001C119.325 28.8001 118.325 28.2001 118.225 28.5001Z" fill="#B88A5E" fill-opacity="0.1"/>
<path d="M41.6248 125.2C45.6248 139.4 50.2248 153.4 55.0248 167.4C56.2248 170.8 57.2248 174.3 58.3248 177.7C59.4248 181 60.6248 184.3 61.4248 187.7C62.3248 191.3 62.4248 195 63.1248 198.6C63.4248 200.1 64.0248 201.6 64.1248 203.1C64.2248 204.6 63.3248 206.1 62.7248 207.4C62.0248 208.9 61.0248 210.2 60.1248 211.6C59.3248 213.1 58.6248 214.6 57.6248 216.1C55.9248 218.7 54.2248 221.3 52.7248 224C49.5248 229.7 46.8248 235.5 44.2248 241.5C41.6248 247.6 39.3248 253.8 37.0248 260.1C34.8248 266.4 32.5248 272.7 30.6248 279.1C26.6248 292.6 24.1248 306.7 24.5248 320.9C24.5248 322.7 24.6248 324.4 24.8248 326.2C24.8248 326.8 26.1248 326.8 26.1248 326.2C25.0248 311.8 27.0248 297.4 30.7248 283.6C32.5248 277 34.7248 270.6 36.9248 264.2C39.1248 258 41.3248 251.8 43.8248 245.7C46.3248 239.6 49.0248 233.5 52.0248 227.7C53.5248 224.9 55.1248 222 56.8248 219.3C57.7248 217.9 58.7248 216.6 59.5248 215.2C60.4248 213.7 61.0248 212.2 62.0248 210.7C62.9248 209.4 63.6248 208.1 64.2248 206.7C64.8248 205.4 65.4248 204.2 65.1248 202.8C64.8248 201.2 64.3248 199.7 64.1248 198.2C63.8248 196.4 63.6248 194.5 63.4248 192.7C63.0248 189.3 62.1248 186 61.1248 182.8C60.0248 179.4 58.9248 176.1 57.8248 172.7C55.5248 165.7 53.0248 158.8 50.7248 151.8C48.4248 144.7 46.2248 137.6 44.1248 130.5C43.6248 128.7 43.1248 127 42.6248 125.2C42.7248 124.5 41.4248 124.6 41.6248 125.2Z" fill="#B88A5E" fill-opacity="0.1"/>
<path d="M185.225 63.4999C183.725 63.4999 182.225 63.4999 180.725 63.4999C179.325 63.4999 177.925 63.0999 176.525 62.8999C175.825 62.7999 175.125 62.7999 174.425 62.6999C173.725 62.5999 173.125 62.4999 172.425 62.2999C171.125 61.8999 169.825 61.7999 168.525 61.5999C163.125 60.9999 157.725 60.9999 152.325 61.6999C147.025 62.3999 141.825 63.5999 136.725 65.1999C131.625 66.7999 126.525 68.7999 121.625 71.0999C119.125 72.1999 116.625 73.3999 114.225 74.5999C113.025 75.1999 111.825 75.6999 110.625 76.3999C109.725 76.9999 108.825 77.7999 108.825 78.9999C108.925 80.1999 110.025 80.4999 111.025 80.4999C111.925 80.4999 112.825 80.3999 113.625 80.0999C115.225 79.6999 116.725 78.7999 118.025 77.5999C120.425 75.3999 121.625 72.0999 122.425 68.9999C122.825 67.3999 123.125 65.7999 123.325 64.0999C123.625 62.3999 123.825 60.5999 124.025 58.8999C124.525 52.9999 123.425 47.0999 122.225 41.2999C121.125 36.0999 119.225 31.0999 118.625 25.7999C118.425 24.4999 118.425 23.2999 118.525 21.9999C118.525 21.7999 117.425 22.1999 117.425 22.4999C117.125 27.4999 118.825 32.4999 120.125 37.2999C120.825 39.7999 121.325 42.3999 121.825 44.9999C122.325 47.8999 122.825 50.7999 123.025 53.6999C123.325 57.7999 122.825 61.8999 122.125 65.8999C121.625 68.9999 120.825 72.2999 119.225 74.9999C118.525 76.1999 117.625 77.3999 116.425 78.1999C115.125 79.0999 113.625 79.3999 112.125 79.4999C111.525 79.4999 110.925 79.4999 110.425 79.0999C110.025 78.7999 109.925 78.1999 110.025 77.7999C110.225 76.5999 111.425 76.0999 112.325 75.5999C114.725 74.3999 117.025 73.2999 119.425 72.1999C124.125 69.9999 128.925 67.9999 133.925 66.2999C138.825 64.5999 143.825 63.2999 148.825 62.4999C154.025 61.6999 159.225 61.3999 164.525 61.7999C165.925 61.8999 167.225 61.9999 168.625 62.1999C169.225 62.2999 169.825 62.2999 170.425 62.4999C171.025 62.5999 171.625 62.8999 172.225 63.0999C172.825 63.2999 173.525 63.2999 174.125 63.2999C174.825 63.3999 175.525 63.3999 176.325 63.4999C177.625 63.6999 178.925 63.9999 180.225 63.9999C181.625 63.9999 183.125 63.9999 184.525 63.9999C184.825 63.9999 185.125 63.7999 185.325 63.5999C185.225 63.7999 185.525 63.4999 185.225 63.4999Z" fill="#B88A5E" fill-opacity="0.1"/>
<path d="M48.6248 146.7C48.6248 150.1 48.4248 153.5 48.1248 156.9C47.8248 160.3 47.3248 163.7 47.0248 167C46.7248 170.4 46.6248 173.8 46.2248 177.1C45.8248 180.4 44.9248 183.6 44.3248 186.8C43.6248 190.1 43.1248 193.4 42.5248 196.7C41.9248 200 41.5248 203.4 41.3248 206.7C41.2248 208.4 41.0248 210.1 40.9248 211.7C40.8248 213.4 40.9248 215.1 40.9248 216.8C40.9248 218.5 40.9248 220.1 40.9248 221.8C40.9248 223.5 40.8248 225.2 40.9248 226.9C41.0248 228.5 41.3248 230.1 41.4248 231.7C41.4248 233.3 41.3248 235 41.6248 236.6C41.9248 238.2 41.8248 239.9 41.8248 241.6C41.8248 243.3 41.8248 245 41.8248 246.7C41.8248 247.5 41.8248 248.4 41.8248 249.2C41.8248 249.6 43.0248 249.7 43.0248 249.5C43.0248 246.1 43.0248 242.7 43.0248 239.4C43.0248 237.7 42.6248 236.1 42.6248 234.5C42.6248 232.9 42.6248 231.3 42.4248 229.6C42.0248 226.3 42.1248 222.9 42.1248 219.6C42.1248 216.2 42.0248 212.9 42.3248 209.5C42.5248 207.8 42.5248 206.1 42.7248 204.4C42.8248 202.7 43.1248 201.1 43.3248 199.4C43.8248 196.1 44.4248 192.7 45.0248 189.4C45.6248 186.1 46.4248 182.9 47.0248 179.6C47.6248 176.3 47.7248 172.9 47.9248 169.6C48.1248 166.2 48.6248 162.8 49.0248 159.5C49.4248 156.1 49.6248 152.7 49.7248 149.3C49.7248 148.5 49.7248 147.6 49.7248 146.8C49.8248 146.7 48.6248 146.5 48.6248 146.7Z" fill="#B88A5E" fill-opacity="0.1"/>
<path d="M52.8248 0.900061C54.6248 6.60006 55.2248 12.7001 56.8248 18.5001C57.6248 21.3001 58.7248 24.0001 59.6248 26.8001C60.0248 27.9001 60.4248 29.1001 61.2248 29.9001C62.0248 30.8001 63.2248 31.2001 64.4248 31.4001C65.9248 31.7001 67.3248 32.0001 68.8248 32.3001C70.1248 32.6001 71.5248 32.6001 72.8248 32.4001C75.6248 32.1001 78.2248 31.1001 80.8248 30.2001C83.6248 29.2001 86.4248 28.1001 89.1248 26.8001C91.8248 25.5001 94.3248 24.0001 96.8248 22.4001C99.2248 20.8001 101.725 19.3001 103.925 17.5001C105.025 16.6001 106.225 15.7001 107.525 14.9001C108.025 14.6001 108.625 14.3001 109.125 13.9001C109.625 13.5001 110.025 13.2001 110.525 12.9001C111.025 12.6001 111.525 12.3001 111.925 11.8001C112.225 11.4001 111.025 11.5001 110.825 11.7001C110.425 12.2001 109.925 12.4001 109.425 12.7001C108.925 13.0001 108.525 13.3001 108.025 13.7001C107.525 14.1001 106.925 14.3001 106.425 14.6001C105.825 15.0001 105.225 15.4001 104.725 15.8001C103.625 16.6001 102.525 17.5001 101.425 18.4001C100.325 19.2001 99.1248 20.0001 98.0248 20.7001C95.6248 22.3001 93.2248 23.9001 90.7248 25.2001C88.2248 26.6001 85.5248 27.7001 82.8248 28.7001C80.2248 29.7001 77.6248 30.7001 75.0248 31.3001C73.7248 31.6001 72.4248 31.8001 71.1248 31.7001C69.7248 31.6001 68.3248 31.3001 67.0248 31.0001C65.8248 30.7001 64.4248 30.7001 63.3248 30.1001C62.2248 29.5001 61.6248 28.4001 61.2248 27.3001C60.8248 26.1001 60.3248 24.9001 59.9248 23.7001C59.4248 22.3001 58.9248 20.9001 58.5248 19.5001C56.8248 14.0001 56.2248 8.20006 54.7248 2.60006C54.5248 1.90006 54.3248 1.20006 54.1248 0.500061C53.9248 0.300061 52.7248 0.600061 52.8248 0.900061Z" fill="#B88A5E" fill-opacity="0.1"/>
<path d="M61.0248 7.29999C61.9248 8.19999 63.0248 8.89999 64.2248 9.19999C65.5248 9.49999 66.8248 9.49999 68.1248 9.39999C68.9248 9.39999 69.5248 9.59999 70.2248 9.89999C70.8248 10.2 71.5248 10.5 72.1248 10.8C72.7248 11.1 73.3248 11.5 73.9248 11.8C74.5248 12.1 75.2248 12.2 75.8248 12.6C76.4248 12.9 76.8248 13.4 77.4248 13.8C77.9248 14.1 78.5248 14.2 79.1248 14.2C79.4248 14.2 79.4248 13.9 79.3248 13.7C79.2248 13.5 78.9248 13.2 78.6248 13.2C78.2248 13.2 77.8248 13.2 77.4248 12.9C76.9248 12.5 76.5248 12.1 76.0248 11.8C75.4248 11.5 74.8248 11.4 74.2248 11.1C73.6248 10.8 73.0248 10.5 72.4248 10.1C71.8248 9.79999 71.3248 9.49999 70.7248 9.29999C70.1248 8.99999 69.5248 8.69999 68.8248 8.49999C68.1248 8.29999 67.5248 8.39999 66.8248 8.39999C66.2248 8.39999 65.6248 8.39999 65.0248 8.39999C63.7248 8.29999 62.5248 7.69999 61.6248 6.79999C61.5248 6.69999 61.1248 6.39999 60.9248 6.59999C60.6248 6.79999 60.9248 7.19999 61.0248 7.29999Z" fill="#B88A5E" fill-opacity="0.1"/>
<path d="M64.5251 8.30005C64.4251 8.30005 64.3251 8.30005 64.2251 8.40005C64.0251 8.40005 63.6251 8.60005 63.5251 8.80005C63.3251 9.60005 63.2251 10.7 63.6251 11.5C64.0251 12.4 65.2251 12.7 66.1251 12.8C67.3251 12.9 68.6251 12.9 69.8251 12.9C71.1251 12.9 72.4251 13 73.7251 12.9C74.5251 12.9 75.8251 12.5 76.4251 13.2C76.7251 13.5 77.8251 13.1 77.5251 12.7C77.0251 12.1 75.9251 12.1 75.2251 12.1C74.1251 12.1 73.1251 12.2 72.0251 12.2C70.6251 12.2 69.3251 12.2 67.9251 12.2C67.0251 12.2 65.8251 12.2 65.1251 11.6C64.3251 10.9 64.5251 9.50005 64.7251 8.70005C64.5251 8.80005 64.2251 9.00005 64.0251 9.10005C64.1251 9.10005 64.2251 9.10005 64.3251 9.00005C64.5251 9.00005 65.0251 8.80005 65.0251 8.60005C65.1251 8.30005 64.7251 8.30005 64.5251 8.30005Z" fill="#B88A5E" fill-opacity="0.1"/>
<path d="M62.9252 14.9999C64.3252 16.3999 66.0252 17.8999 68.1252 18.1999C69.3252 18.3999 70.6252 18.1999 71.8252 18.1999C72.3252 18.1999 72.9252 18.2999 73.5252 18.1999C74.1252 18.0999 74.7252 17.7999 75.3252 17.7999C75.6252 17.7999 75.2252 16.5999 74.9252 16.5999C74.4252 16.5999 73.9252 16.7999 73.4252 16.8999C72.8252 17.0999 72.2252 16.9999 71.6252 16.9999C70.4252 16.9999 69.2252 17.0999 68.0252 16.9999C65.9252 16.8999 64.3252 15.3999 62.9252 13.9999C62.7252 13.7999 62.6252 13.8999 62.6252 14.0999C62.5252 14.4999 62.7252 14.7999 62.9252 14.9999Z" fill="#B88A5E" fill-opacity="0.1"/>
<path d="M53.0249 0.0999925C53.2249 2.89999 53.7249 5.69999 53.4249 8.59999C53.2249 11.2 52.3249 13.6 51.0249 15.8C48.6249 20.2 44.9249 23.6 42.0249 27.7C40.5249 29.7 39.3249 31.9 38.5249 34.3C37.7249 36.8 37.2249 39.5 37.1249 42.1C37.0249 46 38.0249 50 41.1249 52.7C42.5249 54 44.3249 54.9 46.1249 55.4C47.2249 55.7 48.3249 56 49.4249 56.1C50.5249 56.3 51.6249 56.3 52.7249 55.9C53.3249 55.7 53.8249 55.4 54.2249 55C54.3249 54.9 53.3249 54.4 53.0249 54.6C52.1249 55.4 51.1249 55.8 50.0249 55.7C49.0249 55.7 47.9249 55.4 46.9249 55.2C45.2249 54.7 43.6249 53.9 42.3249 52.7C39.4249 50 38.4249 46.1 38.5249 42.3C38.6249 39.8 39.0249 37.2 39.8249 34.8C40.5249 32.5 41.7249 30.4 43.0249 28.4C45.7249 24.5 49.2249 21.2 51.7249 17.1C52.9249 15.1 53.9249 12.9 54.4249 10.6C55.0249 7.89999 54.7249 5.19999 54.4249 2.49999C54.3249 1.79999 54.3249 1.09999 54.2249 0.499993C54.2249 -7.48038e-06 53.0249 -0.100007 53.0249 0.0999925Z" fill="#B88A5E" fill-opacity="0.1"/>
<path d="M44.5248 71.8001C50.3248 73.0001 56.1248 74.2 61.9248 74.5C64.8248 74.7 67.7248 74.6 70.6248 74.2C73.4248 73.8 76.3248 72.6 79.3248 73.2C80.6248 73.5 81.7248 74.3 82.9248 74.9C84.1248 75.6 85.4248 76.1 86.8248 76.1C87.6248 76.1 87.4248 75.1 86.7248 75.1C84.3248 75.2 82.4248 73.2 80.2248 72.5C77.4248 71.6 74.5248 72.4 71.8248 73C66.0248 74.3 60.0248 73.7 54.3248 72.7C51.1248 72.2 47.9248 71.5 44.8248 70.9C44.5248 70.8 44.2248 70.9 44.1248 71.2C43.9248 71.5 44.3248 71.8001 44.5248 71.8001Z" fill="#B88A5E" fill-opacity="0.1"/>
<path d="M77.9249 13.1999C77.7249 12.5999 77.1249 12.2999 76.8249 11.8999C76.6249 11.5999 76.4248 11.3999 76.2248 11.0999C76.0248 10.7999 75.7248 10.5999 75.5248 10.2999C75.1248 9.69991 74.8249 9.19991 74.3249 8.69991C73.8249 8.19991 73.2248 7.79991 72.6248 7.49991C72.0248 7.09991 71.2248 6.69991 70.5248 6.49991C69.8248 6.29991 68.9248 6.29991 68.2248 6.19991C67.3248 5.99991 66.5248 5.99991 65.6248 5.99991C64.9248 5.99991 64.2248 5.79991 63.5248 5.59991C62.9248 5.39991 62.2248 5.19991 61.5248 5.49991C60.9248 5.69991 60.7248 6.29991 60.8248 6.89991C60.9248 7.39991 62.1248 7.69991 62.0248 7.19991C62.0248 6.69991 62.0248 6.29991 62.5248 6.19991C63.0248 6.09991 63.5248 6.39991 64.0248 6.49991C65.3248 6.89991 66.7248 6.79991 68.1248 6.89991C68.8248 6.99991 69.5248 6.99991 70.2248 7.09991C70.8248 7.19991 71.4249 7.49991 71.9249 7.79991C72.4249 8.09991 72.9249 8.49991 73.4249 8.89991C73.8249 9.29991 74.1249 9.69991 74.4249 10.2999C74.7249 10.8999 75.2248 11.3999 75.7248 11.8999C75.9248 12.1999 76.1249 12.3999 76.3249 12.5999C76.5249 12.7999 76.8249 12.8999 76.8249 13.1999C76.9249 13.5999 78.1249 13.7999 77.9249 13.1999Z" fill="#B88A5E" fill-opacity="0.1"/>
<path d="M62.8249 11.6C62.8249 11.8 62.9249 11.6 62.8249 11.6C62.9249 11.5 62.9249 11.5 62.9249 11.4C62.9249 11.3 62.8249 11.5 62.9249 11.4C63.0249 11.3 63.1249 11.2 63.1249 11.2C63.3249 11 63.5249 10.8 63.6249 10.5C63.7249 10.2 63.7249 9.8 63.7249 9.4C63.7249 9 63.7249 8.6 63.7249 8.2C63.7249 7.9 63.4249 7.6 63.1249 7.5C62.8249 7.5 62.6249 7.6 62.6249 8C62.6249 8.4 62.6249 8.7 62.6249 9.1C62.6249 9.3 62.6249 9.5 62.6249 9.6C62.6249 9.5 62.6249 9.6 62.6249 9.7V9.8V9.9C62.6249 10 62.6249 9.8 62.6249 9.9C62.6249 10 62.5249 10 62.5249 10C62.5249 10.1 62.5249 10 62.5249 10C62.5249 10 62.5249 10 62.4249 10.1C62.3249 10.2 62.2249 10.2 62.2249 10.3C62.0249 10.5 61.8249 10.7 61.7249 11C61.6249 11.3 61.9249 11.7 62.1249 11.8C62.5249 12 62.8249 12 62.8249 11.6Z" fill="#B88A5E" fill-opacity="0.1"/>
<path d="M93.4001 34C94.4001 36.3 95.8001 38.6 96.4001 41.1C97.0001 43.2 97.5001 45.4 97.7001 47.6C97.9001 49.6 97.7001 51.7 97.1001 53.6C96.4001 55.8 95.0001 57.4001 93.1001 58.7001C91.1001 60.1001 89.2001 61.4 86.9001 62.3C84.6001 63.2 82.5001 64.4 80.2001 65.6C77.9001 66.8 75.6001 67.8 73.2001 68.7C70.8001 69.6 68.3001 70.6 65.9001 71.1C63.3001 71.7 60.7001 71.9001 58.1001 72.4001C55.6001 72.9001 53.2001 73.5001 50.8001 74.3001C48.5001 75.1001 46.2001 76.2001 44.1001 77.4001C42.2001 78.5001 40.8001 79.9 39.3001 81.5C36.0001 85.2 32.4001 88.8 30.7001 93.5C29.8001 95.8 29.6001 98.4 28.9001 100.8C28.1001 103.4 27.4001 106 27.0001 108.7C26.1001 114 26.0001 119.3 26.0001 124.7C26.0001 130.3 25.9001 136 26.1001 141.6C26.3001 147.2 26.9001 152.7 26.9001 158.3C26.9001 163.9 27.0001 169.5 26.7001 175C26.5001 177.7 26.2001 180.3 26.1001 183C26.0001 185.8 26.0001 188.6 25.7001 191.4C25.2001 197 24.2001 202.6 23.6001 208.1C22.3001 219.3 22.4001 230.6 20.6001 241.7C19.8001 247.3 19.0001 252.7 19.0001 258.2C19.0001 263.7 18.9001 269.3 19.1001 274.8C19.2001 277.6 19.6001 280.4 19.7001 283.2C19.8001 285.9 19.7001 288.6 19.8001 291.3C19.9001 293.8 20.5001 296.2 20.6001 298.7C20.7001 299.9 20.8001 301.1 21.0001 302.3C21.2001 303.6 21.0001 305 21.1001 306.3C21.1001 307.5 21.4001 308.6 21.5001 309.8C21.6001 311.1 21.6001 312.5 21.6001 313.8C21.6001 314 22.8001 314.1 22.8001 314C22.8001 312.7 22.8001 311.5 22.7001 310.2C22.6001 308.9 22.3001 307.5 22.3001 306.2C22.3001 304.9 22.4001 303.7 22.2001 302.4C22.2001 301.3 22.0001 300 22.0001 298.7C21.8001 296.3 21.3001 293.9 21.2001 291.5C21.1001 288.7 21.2001 285.9 21.1001 283.1C20.8001 277.6 20.3001 272.1 20.3001 266.5C20.3001 260.9 20.2001 255.3 20.8001 249.8C21.4001 244.4 22.5001 239 23.0001 233.5C23.5001 227.9 23.5001 222.3 24.0001 216.8C24.5001 211.1 25.2001 205.4 26.0001 199.7C26.4001 197 26.8001 194.2 27.0001 191.5C27.3001 188.7 27.3001 185.9 27.4001 183.1C27.5001 180.3 27.9001 177.6 28.0001 174.8C28.2001 172.1 28.2001 169.5 28.2001 166.8C28.2001 161.1 28.4001 155.5 27.9001 149.8C27.4001 144.3 27.3001 138.7 27.3001 133.1C27.3001 127.6 27.2001 122.1 27.5001 116.6C27.7001 111.2 28.6001 106 30.1001 100.9C30.9001 98.4001 31.1001 95.8001 32.0001 93.4001C32.9001 91.2001 34.2001 89.1 35.6001 87.2C37.1001 85.2 38.8001 83.4 40.5001 81.5C42.2001 79.5 43.9001 78.1001 46.3001 76.8001C50.8001 74.4001 55.7001 73 60.8001 72.1C63.3001 71.7 65.9001 71.5 68.3001 70.7C70.8001 70 73.2001 69.1 75.6001 68.1C80.3001 66.3 84.5001 63.6001 89.2001 61.7001C91.4001 60.8001 93.4001 59.4001 95.2001 57.9001C96.7001 56.7001 97.8001 55.3001 98.4001 53.4001C99.7001 49.3001 98.8001 44.8001 97.6001 40.7001C96.9001 38.3001 95.7001 36.1 94.6001 33.8C94.5001 33.9 93.4001 34.1 93.4001 34Z" fill="#B88A5E"/>
<path d="M137.2 28.5001C137.1 29.9001 137.5 31.3001 138 32.6001C138.5 34.1001 138.9 35.7001 139.5 37.1001C140.6 39.6001 142.3 42.1001 144 44.3001C147 48.0001 151 50.6001 155.3 52.6001C165.3 57.1001 176.4 58.4001 187.1 60.4001C189.7 60.9001 192.3 61.4001 194.9 62.1001C197.6 62.8001 200.4 64.3001 203.2 64.4001C205.1 64.5001 206.7 65.3001 208.6 65.7001C210.6 66.2001 212.3 66.7001 214 67.9001C217.1 70.1001 220.1 72.4001 222.5 75.5001C227.2 81.7001 227.6 89.9001 227.4 97.3001C227.3 105.3 226.8 113.2 226.8 121.2C226.8 125.4 226.9 129.5 226.8 133.7C226.8 135.6 226.5 137.5 226.4 139.4C226.3 141.6 226.4 143.8 226.4 146C226.4 150.3 226.5 154.6 226.4 158.9C226.4 160.9 226 162.7 225.7 164.6C225.4 166.4 225.4 168.3 225 170.1C224.8 171.1 224.4 172 224.2 173C224 173.8 224.2 174.6 224.1 175.5C224.1 176.4 223.8 177.2 223.6 178.1C223.4 179.4 223.2 180.8 222.6 182C222 183.4 220.9 184.5 220.1 185.8C219.1 187.3 218.4 188.9 217.3 190.2C216.7 190.9 216 191.6 215.2 192.2C214.8 192.5 214.2 193 213.7 193C212.7 193 213 191.8 213.2 191.2C214.2 187.7 216.2 184.4 217.7 181.2C219.4 177.6 221.2 174.1 222.9 170.5C224.6 166.9 226 163.2 227.5 159.6C229.1 155.8 231 152 232.4 148.1C233 146.4 233.7 144.7 234.4 143.1C235.2 141.2 235.7 139.3 236.5 137.4C237.2 135.7 238.1 134.2 239 132.7C239.9 131.1 240.5 129.3 241.1 127.6C242.4 123.9 243.6 120.2 245.4 116.7C246.2 115.2 246.9 113.6 247.7 112.1C248.4 110.7 249.3 109.1 248.7 107.6C247.9 105.2 244.9 104.1 242.8 103C239 101 237.2 97.0001 234.9 93.6001C232.9 90.7001 232.7 87.2001 231.2 84.1001C230 81.7001 228.4 80.7001 225.8 80.3001C223.9 80.0001 222.1 80.0001 220.2 79.9001C218.1 79.8001 216.1 79.1001 213.9 79.0001C212.7 78.9001 211.9 79.3001 211 80.0001C209.5 81.3001 207.6 81.8001 205.8 82.7001C205.1 83.1001 204.5 83.6001 203.8 84.0001C203 84.4001 202.1 84.6001 201.3 84.9001C200.8 85.0001 200.1 85.4001 199.6 85.4001C199 85.4001 199 85.5001 199.1 84.8001C199.2 84.5001 199.4 84.1001 199.6 83.8001C200.4 82.4001 201.3 81.5001 202.7 80.7001C204.4 79.8001 206 78.8001 207.8 77.9001C209.3 77.2001 210.9 76.6001 212.4 75.8001C214.2 74.9001 215.9 74.1001 217.9 74.0001C220 73.8001 222.2 74.4001 224.3 74.7001C225.3 74.8001 226.2 75.1001 227.1 75.2001C227.9 75.4001 228.7 75.2001 229.5 75.4001C229.2 75.1001 228.9 74.9001 228.6 74.6001C227.3 74.8001 226 74.9001 224.7 75.0001C222.3 75.1001 219.9 74.6001 217.5 74.6001C215 74.6001 212.3 74.3001 209.9 74.8001C207.4 75.3001 205.4 76.8001 203.7 78.7001C201.1 81.5001 199.1 85.3001 194.9 86.0001C192.1 86.5001 193.8 83.7001 194.8 82.7001C195.8 81.6001 197.1 80.8001 198.1 79.7001C199 78.7001 199.8 77.6001 200.9 76.7001C202 75.8001 203.2 75.0001 204.4 74.1001C205.5 73.3001 206.4 72.4001 207.6 71.7001C208.5 71.2001 209.6 70.6001 209.8 69.6001C209.9 69.3001 209.4 69.1001 209.3 69.0001C208.5 68.5001 207.5 68.7001 206.6 69.0001C205.2 69.4001 203.8 70.0001 202.4 70.6001C200.7 71.4001 199.1 71.8001 197.3 72.2001C196 72.5001 194.7 72.8001 193.5 73.0001C193 73.1001 192.2 73.4001 191.7 73.2001C191.3 73.1001 191.5 73.2001 191.3 72.8001C191.2 72.4001 191.3 71.9001 191.4 71.6001C192 69.4001 194.6 68.2001 196.4 67.1001C198.6 65.7001 201.1 64.8001 203.6 64.0001C206 63.2001 208.4 62.3001 210.8 61.6001C211.8 61.3001 212.8 60.8001 213.8 60.4001C215.1 59.9001 216.6 59.8001 218 60.0001C220.8 60.3001 223.4 61.6001 226 62.7001C228.7 63.8001 231.6 64.5001 234.2 65.7001C234 65.5001 233.8 65.2001 233.7 65.0001C232.6 64.9001 231.6 65.3001 230.4 65.5001C228 66.0001 228.6 63.7001 228.2 62.3001C228 61.4001 227.3 60.8001 226.8 60.1001C226.2 59.2001 225.6 58.3001 225 57.3001C224 55.6001 223 54.1001 221.3 52.9001C219.2 51.4001 216.8 50.6001 214.6 49.4001C213.5 48.8001 212 47.3001 212.3 45.8001C212.5 44.5001 214.1 44.9001 215.1 45.0001C216.2 45.2001 217.3 45.5001 218.3 45.9001C219.7 46.4001 221.3 46.7001 222.5 47.6001C223.6 48.4001 224.7 49.3001 225.8 50.2001C227.3 51.3001 228.8 52.5001 230 54.0001C231.8 56.3001 233 59.0001 234.8 61.3001C236.5 63.6001 238.6 65.5001 240.7 67.4001C243.1 69.5001 245.2 72.0001 247.4 74.3001C249.7 76.7001 251.7 79.4001 253.9 82.0001C255.9 84.3001 258 86.5001 260.2 88.5001C262.7 90.8001 265.2 93.0001 267.6 95.4001C268.5 96.3001 269.6 97.2001 270.5 98.1001C271.9 99.6001 272.7 101.3 273 103.4C273.5 106.3 273.2 109.4 272.9 112.3C272.6 115.5 272.1 118.7 271.5 121.9C269 134.9 264.4 147.2 260.4 159.8C256.8 171.5 254 183.5 249.5 194.9C245.9 204.1 241.5 213.6 235.2 221.3C232.1 225.1 228.7 228 224.2 230C222 231 220.3 232.9 218.2 234.1C215.8 235.4 213.2 234.7 210.7 234.4C208.1 234.1 205.3 233.6 203 232C200.5 230.3 199 227.3 197.5 224.8C196 222.4 194.3 220 193.2 217.4C192.2 215 191.6 212.4 191.1 209.9C190 204.6 188.4 199.5 187.4 194.2C186.3 188.3 185.7 182.3 185.7 176.3C185.7 163.8 187.8 151.4 191.4 139.5C193.2 133.7 195.3 127.9 197.7 122.3C198.8 119.8 200.5 116.9 200.1 114.1C199.8 111.8 198.1 110 196.5 108.5C194.3 106.5 191.9 104.6 189.5 102.9C187.4 101.4 184.4 99.1001 181.6 99.2001C180.4 99.2001 179.5 100 179.3 101.2C178.8 103.5 180.8 105.8 182.1 107.4C185.3 111.2 189.2 114.4 192.6 118C196.5 122.2 199.2 127 199 132.8C198.8 139.3 195.6 145.2 192.9 150.9C187.4 162.3 183.2 174.4 181 186.9C178.8 199.2 178.7 211.8 181.7 224C184.5 235.6 189.4 246.6 193.1 258C194.8 263.2 196.1 268.5 197.6 273.7C198.6 277.1 199.6 280.5 200.5 284C202.3 290.5 203.5 297.1 204.2 303.9C204.7 309.3 205.1 314.6 205.4 320C205.4 320.3 206.5 320.9 206.5 320.6C206 311.3 205.4 301.9 203.6 292.7C202.2 285.9 200.1 279.3 198.2 272.6C196.7 267.3 195.4 262 193.6 256.8C191.6 250.8 189.3 245 187.3 239.1C185.2 233.2 183.3 227.2 182 221C180.7 214.7 180.3 208.3 180.6 201.9C181.1 188.6 184.3 175.5 189.2 163.1C191.6 157 194.7 151.1 197.2 145.1C199.5 139.6 201.3 133.5 199.4 127.6C198 123 194.6 119.3 191.2 116C189.3 114.2 187.4 112.4 185.6 110.5C183.7 108.6 180.8 105.9 180.5 103.1C180.3 101.4 181.3 99.9001 183 100.1C184.6 100.2 186.2 101.2 187.5 102C190.2 103.7 192.5 105.7 195 107.7C197.7 109.9 199.9 112.4 199.1 116C198.4 119.1 196.6 122.1 195.4 125C193 130.8 191 136.8 189.4 142.9C186.1 154.9 184.4 167.4 184.9 179.9C185.2 186.1 186 192.2 187.5 198.2C188.1 200.8 188.9 203.3 189.5 205.9C190.1 208.5 190.5 211.1 191.3 213.6C192.7 218.6 195.8 223 198.6 227.4C199.9 229.4 201.3 231.3 203.4 232.6C205.2 233.7 207.1 234.3 209.2 234.7C211.6 235.2 214.3 235.7 216.7 235.6C219.1 235.5 221 233.7 222.8 232.4C224.7 231 226.9 230.2 228.9 228.9C230.9 227.6 232.7 226 234.4 224.3C241.2 217.1 245.8 207.6 249.6 198.5C254.5 186.8 257.5 174.5 261.1 162.5C264.9 149.9 269.6 137.7 272.3 124.8C273 121.5 273.5 118.3 273.9 115C274.3 111.9 274.6 108.6 274.4 105.5C274.2 102.8 273.4 100.4 271.5 98.4001C269.5 96.2001 267.2 94.2001 265 92.2001C262.4 89.9001 259.8 87.6001 257.5 85.1001C255 82.5001 252.9 79.6001 250.6 76.9001C248.7 74.6001 246.5 72.5001 244.5 70.3001C242.3 68.0001 239.8 66.1001 237.6 63.8001C235.4 61.5001 234 58.7001 232.3 56.1001C230.8 53.8001 228.9 52.0001 226.7 50.4001C224.6 48.8001 222.7 46.9001 220.1 46.1001C218.2 45.6001 216.3 44.7001 214.3 44.4001C212.6 44.1001 211.1 44.6001 211.8 46.6001C212.4 48.3001 213.8 49.5001 215.3 50.3001C218 51.7001 221.2 52.5001 223.1 55.0001C224.4 56.7001 225.3 58.6001 226.6 60.4001C227.1 61.0001 227.5 61.5001 227.6 62.3001C227.7 62.9001 227.6 63.4001 227.7 64.0001C227.9 64.8001 228.4 65.4001 229 65.9001C230.8 67.3001 232.7 65.7001 234.7 65.9001C235.1 65.9001 234.3 65.2001 234.2 65.2001C231.6 64.0001 228.8 63.3001 226.2 62.3001C224 61.4001 221.8 60.3001 219.4 59.7001C216.9 59.1001 214.5 59.1001 212.2 60.2001C211 60.7001 209.7 61.0001 208.4 61.4001C207 61.8001 205.6 62.4001 204.2 62.9001C201.5 63.8001 198.8 64.7001 196.3 66.1001C194.4 67.2001 191.6 68.5001 190.7 70.7001C190.2 71.9001 190.4 73.5001 191.7 74.1001C192.3 74.4001 192.9 74.3001 193.5 74.2001C195.2 74.0001 196.8 73.5001 198.5 73.2001C200.6 72.7001 202.4 72.1001 204.4 71.2001C205.3 70.8001 206.2 70.4001 207.1 70.1001C207.6 69.9001 209.1 69.3001 209.6 69.6001C209.4 69.4001 209.2 69.2001 209.1 69.0001C208.8 70.1001 207.6 70.7001 206.7 71.3001C205.6 72.0001 204.7 72.8001 203.7 73.6001C202.7 74.4001 201.6 75.1001 200.6 75.9001C199.4 76.9001 198.5 78.1001 197.4 79.2001C196.1 80.6001 191 83.7001 193 86.0001C195.2 88.6001 199.3 86.0001 201.2 84.2001C203 82.4001 204.3 80.2001 206.2 78.4001C208.8 76.0001 211.6 75.5001 215 75.5001C220 75.6001 224.9 76.3001 229.9 75.6001C230.2 75.6001 229.2 74.8001 229 74.8001C228 74.6001 227 74.6001 226 74.4001C225.3 74.2001 224.5 74.1001 223.8 74.0001C221.8 73.8001 219.7 73.2001 217.7 73.3001C215.9 73.4001 214.1 73.9001 212.5 74.7001C210.7 75.6001 208.9 76.4001 207.1 77.3001C205.5 78.1001 204 79.0001 202.4 79.9001C201.1 80.6001 200 81.3001 199.2 82.6001C198.7 83.4001 197.9 84.4001 198.4 85.3001C198.8 86.0001 199.6 86.4001 200.4 86.4001C201.6 86.4001 203.1 85.8001 204.2 85.4001C204.9 85.1001 205.5 84.8001 206.1 84.3001C207.1 83.6001 208.1 83.1001 209.2 82.7001C210.6 82.1001 211.6 81.4001 212.9 80.5001C214.7 79.2001 217.3 80.5001 219.2 80.8001C221.2 81.1001 223.1 80.9001 225.1 81.1001C225.9 81.2001 226.6 81.3001 227.4 81.4001C229.2 81.7001 230.1 82.7001 230.8 84.2001C232.2 87.3001 232.4 90.6001 234.4 93.4001C236.4 96.3001 237.8 99.4001 240.5 101.7C241.5 102.6 242.6 103.3 243.7 103.8C245.7 104.8 248.5 105.9 248.1 108.6C247.8 110.3 246.7 112.1 245.9 113.7C245 115.6 243.9 117.4 243.1 119.4C241.6 123 240.7 126.8 239.1 130.3C238.4 132 237.3 133.5 236.5 135.2C235.6 136.9 235.2 138.8 234.5 140.6C233.8 142.5 232.9 144.2 232.3 146.1C231.6 148.2 230.8 150.2 230 152.2C226.7 159.8 223.6 167.5 219.9 174.9C218 178.7 216.2 182.5 214.5 186.4C213.7 188.1 211.4 191.6 212.9 193.4C216.2 197.3 220.8 188 222 186.4C223 185 224 183.7 224.5 182C224.7 181.2 224.9 180.5 225 179.7C225.2 178.7 225.5 177.6 225.6 176.6C225.7 175.4 225.6 174.4 226 173.2C226.2 172.5 226.4 171.9 226.5 171.2C226.9 169.2 226.9 167.2 227.3 165.2C228.8 156.7 227.4 148 228 139.5C228.6 131 228 122.4 228.6 113.9C228.8 109.9 228.8 105.9 229 101.9C229.1 98.0001 229.2 94.2001 228.9 90.3001C228.6 86.6001 227.8 83.0001 226.2 79.7001C224.8 76.9001 222.8 74.4001 220.4 72.3001C218.1 70.2001 215.5 68.0001 212.7 66.6001C211.4 65.9001 210 65.7001 208.5 65.3001C206.7 64.8001 205.1 64.1001 203.2 64.0001C201.4 63.9001 199.7 63.1001 198 62.5001C196.8 62.1001 195.6 61.8001 194.3 61.5001C191.8 60.9001 189.3 60.4001 186.7 59.9001C181 58.8001 175.3 57.9001 169.6 56.7001C163.9 55.4001 158.2 53.9001 153.1 51.0001C148 48.2001 144.1 43.9001 141.6 38.6001C141 37.3001 140.6 35.9001 140.2 34.5001C139.6 32.9001 139 31.3001 139.1 29.5001C138.3 28.8001 137.3 28.2001 137.2 28.5001Z" fill="#B88A5E"/>
<path d="M60.5999 125.2C64.5999 139.4 69.1999 153.4 73.9999 167.4C75.1999 170.8 76.1999 174.3 77.2999 177.7C78.3999 181 79.5999 184.3 80.3999 187.7C81.2999 191.3 81.3999 195 82.0999 198.6C82.3999 200.1 82.9999 201.6 83.0999 203.1C83.1999 204.6 82.2999 206.1 81.6999 207.4C80.9999 208.9 79.9999 210.2 79.0999 211.6C78.2999 213.1 77.5999 214.6 76.5999 216.1C74.8999 218.7 73.1999 221.3 71.6999 224C68.4999 229.7 65.7999 235.5 63.1999 241.5C60.5999 247.6 58.2999 253.8 55.9999 260.1C53.7999 266.4 51.4999 272.7 49.5999 279.1C45.5999 292.6 43.0999 306.7 43.4999 320.9C43.4999 322.7 43.5999 324.4 43.7999 326.2C43.7999 326.8 45.0999 326.8 45.0999 326.2C43.9999 311.8 45.9999 297.4 49.6999 283.6C51.4999 277 53.6999 270.6 55.8999 264.2C58.0999 258 60.2999 251.8 62.7999 245.7C65.2999 239.6 67.9999 233.5 70.9999 227.7C72.4999 224.9 74.0999 222 75.7999 219.3C76.6999 217.9 77.6999 216.6 78.4999 215.2C79.3999 213.7 79.9999 212.2 80.9999 210.7C81.8999 209.4 82.5999 208.1 83.1999 206.7C83.7999 205.4 84.3999 204.2 84.0999 202.8C83.7999 201.2 83.2999 199.7 83.0999 198.2C82.7999 196.4 82.5999 194.5 82.3999 192.7C81.9999 189.3 81.0999 186 80.0999 182.8C78.9999 179.4 77.8999 176.1 76.7999 172.7C74.4999 165.7 71.9999 158.8 69.6999 151.8C67.3999 144.7 65.1999 137.6 63.0999 130.5C62.5999 128.7 62.0999 127 61.5999 125.2C61.6999 124.5 60.3999 124.6 60.5999 125.2Z" fill="#B88A5E"/>
<path d="M204.2 63.4999C202.7 63.4999 201.2 63.4999 199.7 63.4999C198.3 63.4999 196.9 63.0999 195.5 62.8999C194.8 62.7999 194.1 62.7999 193.4 62.6999C192.7 62.5999 192.1 62.4999 191.4 62.2999C190.1 61.8999 188.8 61.7999 187.5 61.5999C182.1 60.9999 176.7 60.9999 171.3 61.6999C166 62.3999 160.8 63.5999 155.7 65.1999C150.6 66.7999 145.5 68.7999 140.6 71.0999C138.1 72.1999 135.6 73.3999 133.2 74.5999C132 75.1999 130.8 75.6999 129.6 76.3999C128.7 76.9999 127.8 77.7999 127.8 78.9999C127.9 80.1999 129 80.4999 130 80.4999C130.9 80.4999 131.8 80.3999 132.6 80.0999C134.2 79.6999 135.7 78.7999 137 77.5999C139.4 75.3999 140.6 72.0999 141.4 68.9999C141.8 67.3999 142.1 65.7999 142.3 64.0999C142.6 62.3999 142.8 60.5999 143 58.8999C143.5 52.9999 142.4 47.0999 141.2 41.2999C140.1 36.0999 138.2 31.0999 137.6 25.7999C137.4 24.4999 137.4 23.2999 137.5 21.9999C137.5 21.7999 136.4 22.1999 136.4 22.4999C136.1 27.4999 137.8 32.4999 139.1 37.2999C139.8 39.7999 140.3 42.3999 140.8 44.9999C141.3 47.8999 141.8 50.7999 142 53.6999C142.3 57.7999 141.8 61.8999 141.1 65.8999C140.6 68.9999 139.8 72.2999 138.2 74.9999C137.5 76.1999 136.6 77.3999 135.4 78.1999C134.1 79.0999 132.6 79.3999 131.1 79.4999C130.5 79.4999 129.9 79.4999 129.4 79.0999C129 78.7999 128.9 78.1999 129 77.7999C129.2 76.5999 130.4 76.0999 131.3 75.5999C133.7 74.3999 136 73.2999 138.4 72.1999C143.1 69.9999 147.9 67.9999 152.9 66.2999C157.8 64.5999 162.8 63.2999 167.8 62.4999C173 61.6999 178.2 61.3999 183.5 61.7999C184.9 61.8999 186.2 61.9999 187.6 62.1999C188.2 62.2999 188.8 62.2999 189.4 62.4999C190 62.5999 190.6 62.8999 191.2 63.0999C191.8 63.2999 192.5 63.2999 193.1 63.2999C193.8 63.3999 194.5 63.3999 195.3 63.4999C196.6 63.6999 197.9 63.9999 199.2 63.9999C200.6 63.9999 202.1 63.9999 203.5 63.9999C203.8 63.9999 204.1 63.7999 204.3 63.5999C204.2 63.7999 204.5 63.4999 204.2 63.4999Z" fill="#B88A5E"/>
<path d="M67.5999 146.7C67.5999 150.1 67.3999 153.5 67.0999 156.9C66.7999 160.3 66.2999 163.7 65.9999 167C65.6999 170.4 65.5999 173.8 65.1999 177.1C64.7999 180.4 63.8999 183.6 63.2999 186.8C62.5999 190.1 62.0999 193.4 61.4999 196.7C60.8999 200 60.4999 203.4 60.2999 206.7C60.1999 208.4 59.9999 210.1 59.8999 211.7C59.7999 213.4 59.8999 215.1 59.8999 216.8C59.8999 218.5 59.8999 220.1 59.8999 221.8C59.8999 223.5 59.7999 225.2 59.8999 226.9C59.9999 228.5 60.2999 230.1 60.3999 231.7C60.3999 233.3 60.2999 235 60.5999 236.6C60.8999 238.2 60.7999 239.9 60.7999 241.6C60.7999 243.3 60.7999 245 60.7999 246.7C60.7999 247.5 60.7999 248.4 60.7999 249.2C60.7999 249.6 61.9999 249.7 61.9999 249.5C61.9999 246.1 61.9999 242.7 61.9999 239.4C61.9999 237.7 61.5999 236.1 61.5999 234.5C61.5999 232.9 61.5999 231.3 61.3999 229.6C60.9999 226.3 61.0999 222.9 61.0999 219.6C61.0999 216.2 60.9999 212.9 61.2999 209.5C61.4999 207.8 61.4999 206.1 61.6999 204.4C61.7999 202.7 62.0999 201.1 62.2999 199.4C62.7999 196.1 63.3999 192.7 63.9999 189.4C64.5999 186.1 65.3999 182.9 65.9999 179.6C66.5999 176.3 66.6999 172.9 66.8999 169.6C67.0999 166.2 67.5999 162.8 67.9999 159.5C68.3999 156.1 68.5999 152.7 68.6999 149.3C68.6999 148.5 68.6999 147.6 68.6999 146.8C68.7999 146.7 67.5999 146.5 67.5999 146.7Z" fill="#B88A5E"/>
<path d="M71.7999 0.900061C73.5999 6.60006 74.1999 12.7001 75.7999 18.5001C76.5999 21.3001 77.6999 24.0001 78.5999 26.8001C78.9999 27.9001 79.3999 29.1001 80.1999 29.9001C80.9999 30.8001 82.1999 31.2001 83.3999 31.4001C84.8999 31.7001 86.2999 32.0001 87.7999 32.3001C89.0999 32.6001 90.4999 32.6001 91.7999 32.4001C94.5999 32.1001 97.1999 31.1001 99.7999 30.2001C102.6 29.2001 105.4 28.1001 108.1 26.8001C110.8 25.5001 113.3 24.0001 115.8 22.4001C118.2 20.8001 120.7 19.3001 122.9 17.5001C124 16.6001 125.2 15.7001 126.5 14.9001C127 14.6001 127.6 14.3001 128.1 13.9001C128.6 13.5001 129 13.2001 129.5 12.9001C130 12.6001 130.5 12.3001 130.9 11.8001C131.2 11.4001 130 11.5001 129.8 11.7001C129.4 12.2001 128.9 12.4001 128.4 12.7001C127.9 13.0001 127.5 13.3001 127 13.7001C126.5 14.1001 125.9 14.3001 125.4 14.6001C124.8 15.0001 124.2 15.4001 123.7 15.8001C122.6 16.6001 121.5 17.5001 120.4 18.4001C119.3 19.2001 118.1 20.0001 117 20.7001C114.6 22.3001 112.2 23.9001 109.7 25.2001C107.2 26.6001 104.5 27.7001 101.8 28.7001C99.1999 29.7001 96.5999 30.7001 93.9999 31.3001C92.6999 31.6001 91.3999 31.8001 90.0999 31.7001C88.6999 31.6001 87.2999 31.3001 85.9999 31.0001C84.7999 30.7001 83.3999 30.7001 82.2999 30.1001C81.1999 29.5001 80.5999 28.4001 80.1999 27.3001C79.7999 26.1001 79.2999 24.9001 78.8999 23.7001C78.3999 22.3001 77.8999 20.9001 77.4999 19.5001C75.7999 14.0001 75.1999 8.20006 73.6999 2.60006C73.4999 1.90006 73.2999 1.20006 73.0999 0.500061C72.8999 0.300061 71.6999 0.600061 71.7999 0.900061Z" fill="#B88A5E"/>
<path d="M79.9999 7.29999C80.8999 8.19999 81.9999 8.89999 83.1999 9.19999C84.4999 9.49999 85.7999 9.49999 87.0999 9.39999C87.8999 9.39999 88.4999 9.59999 89.1999 9.89999C89.7999 10.2 90.4999 10.5 91.0999 10.8C91.6999 11.1 92.2999 11.5 92.8999 11.8C93.4999 12.1 94.1999 12.2 94.7999 12.6C95.3999 12.9 95.7999 13.4 96.3999 13.8C96.8999 14.1 97.4999 14.2 98.0999 14.2C98.3999 14.2 98.3999 13.9 98.2999 13.7C98.1999 13.5 97.8999 13.2 97.5999 13.2C97.1999 13.2 96.7999 13.2 96.3999 12.9C95.8999 12.5 95.4999 12.1 94.9999 11.8C94.3999 11.5 93.7999 11.4 93.1999 11.1C92.5999 10.8 91.9999 10.5 91.3999 10.1C90.7999 9.79999 90.2999 9.49999 89.6999 9.29999C89.0999 8.99999 88.4999 8.69999 87.7999 8.49999C87.0999 8.29999 86.4999 8.39999 85.7999 8.39999C85.1999 8.39999 84.5999 8.39999 83.9999 8.39999C82.6999 8.29999 81.4999 7.69999 80.5999 6.79999C80.4999 6.69999 80.0999 6.39999 79.8999 6.59999C79.5999 6.79999 79.8999 7.19999 79.9999 7.29999Z" fill="#B88A5E"/>
<path d="M83.5002 8.30005C83.4002 8.30005 83.3002 8.30005 83.2002 8.40005C83.0002 8.40005 82.6002 8.60005 82.5002 8.80005C82.3002 9.60005 82.2002 10.7 82.6002 11.5C83.0002 12.4 84.2002 12.7 85.1002 12.8C86.3002 12.9 87.6002 12.9 88.8002 12.9C90.1002 12.9 91.4002 13 92.7002 12.9C93.5002 12.9 94.8002 12.5 95.4002 13.2C95.7002 13.5 96.8002 13.1 96.5002 12.7C96.0002 12.1 94.9002 12.1 94.2002 12.1C93.1002 12.1 92.1002 12.2 91.0002 12.2C89.6002 12.2 88.3002 12.2 86.9002 12.2C86.0002 12.2 84.8002 12.2 84.1002 11.6C83.3002 10.9 83.5002 9.50005 83.7002 8.70005C83.5002 8.80005 83.2002 9.00005 83.0002 9.10005C83.1002 9.10005 83.2002 9.10005 83.3002 9.00005C83.5002 9.00005 84.0002 8.80005 84.0002 8.60005C84.1002 8.30005 83.7002 8.30005 83.5002 8.30005Z" fill="#B88A5E"/>
<path d="M81.9003 14.9999C83.3003 16.3999 85.0003 17.8999 87.1003 18.1999C88.3003 18.3999 89.6003 18.1999 90.8003 18.1999C91.3003 18.1999 91.9003 18.2999 92.5003 18.1999C93.1003 18.0999 93.7003 17.7999 94.3003 17.7999C94.6003 17.7999 94.2003 16.5999 93.9003 16.5999C93.4003 16.5999 92.9003 16.7999 92.4003 16.8999C91.8003 17.0999 91.2003 16.9999 90.6003 16.9999C89.4003 16.9999 88.2003 17.0999 87.0003 16.9999C84.9003 16.8999 83.3003 15.3999 81.9003 13.9999C81.7003 13.7999 81.6003 13.8999 81.6003 14.0999C81.5003 14.4999 81.7003 14.7999 81.9003 14.9999Z" fill="#B88A5E"/>
<path d="M72 0.0999925C72.2 2.89999 72.7 5.69999 72.4 8.59999C72.2 11.2 71.3 13.6 70 15.8C67.6 20.2 63.9 23.6 61 27.7C59.5 29.7 58.3 31.9 57.5 34.3C56.7 36.8 56.2 39.5 56.1 42.1C56 46 57 50 60.1 52.7C61.5 54 63.3 54.9 65.1 55.4C66.2 55.7 67.3 56 68.4 56.1C69.5 56.3 70.6 56.3 71.7 55.9C72.3 55.7 72.8 55.4 73.2 55C73.3 54.9 72.3 54.4 72 54.6C71.1 55.4 70.1 55.8 69 55.7C68 55.7 66.9 55.4 65.9 55.2C64.2 54.7 62.6 53.9 61.3 52.7C58.4 50 57.4 46.1 57.5 42.3C57.6 39.8 58 37.2 58.8 34.8C59.5 32.5 60.7 30.4 62 28.4C64.7 24.5 68.2 21.2 70.7 17.1C71.9 15.1 72.9 12.9 73.4 10.6C74 7.89999 73.7 5.19999 73.4 2.49999C73.3 1.79999 73.3 1.09999 73.2 0.499993C73.2 -7.48038e-06 72 -0.100007 72 0.0999925Z" fill="#B88A5E"/>
<path d="M63.4999 71.8001C69.2999 73.0001 75.0999 74.2 80.8999 74.5C83.7999 74.7 86.6999 74.6 89.5999 74.2C92.3999 73.8 95.2999 72.6 98.2999 73.2C99.5999 73.5 100.7 74.3 101.9 74.9C103.1 75.6 104.4 76.1 105.8 76.1C106.6 76.1 106.4 75.1 105.7 75.1C103.3 75.2 101.4 73.2 99.1999 72.5C96.3999 71.6 93.4999 72.4 90.7999 73C84.9999 74.3 78.9999 73.7 73.2999 72.7C70.0999 72.2 66.8999 71.5 63.7999 70.9C63.4999 70.8 63.1999 70.9 63.0999 71.2C62.8999 71.5 63.2999 71.8001 63.4999 71.8001Z" fill="#B88A5E"/>
<path d="M96.8999 13.1999C96.6999 12.5999 96.0999 12.2999 95.7999 11.8999C95.5999 11.5999 95.3999 11.3999 95.1999 11.0999C94.9999 10.7999 94.6999 10.5999 94.4999 10.2999C94.0999 9.69991 93.7999 9.19991 93.2999 8.69991C92.7999 8.19991 92.1999 7.79991 91.5999 7.49991C90.9999 7.09991 90.1999 6.69991 89.4999 6.49991C88.7999 6.29991 87.8999 6.29991 87.1999 6.19991C86.2999 5.99991 85.4999 5.99991 84.5999 5.99991C83.8999 5.99991 83.1999 5.79991 82.4999 5.59991C81.8999 5.39991 81.1999 5.19991 80.4999 5.49991C79.8999 5.69991 79.6999 6.29991 79.7999 6.89991C79.8999 7.39991 81.0999 7.69991 80.9999 7.19991C80.9999 6.69991 80.9999 6.29991 81.4999 6.19991C81.9999 6.09991 82.4999 6.39991 82.9999 6.49991C84.2999 6.89991 85.6999 6.79991 87.0999 6.89991C87.7999 6.99991 88.4999 6.99991 89.1999 7.09991C89.7999 7.19991 90.3999 7.49991 90.8999 7.79991C91.3999 8.09991 91.8999 8.49991 92.3999 8.89991C92.7999 9.29991 93.0999 9.69991 93.3999 10.2999C93.6999 10.8999 94.1999 11.3999 94.6999 11.8999C94.8999 12.1999 95.0999 12.3999 95.2999 12.5999C95.4999 12.7999 95.7999 12.8999 95.7999 13.1999C95.8999 13.5999 97.0999 13.7999 96.8999 13.1999Z" fill="#B88A5E"/>
<path d="M81.8 11.6C81.8 11.8 81.9 11.6 81.8 11.6C81.9 11.5 81.9 11.5 81.9 11.4C81.9 11.3 81.8 11.5 81.9 11.4C82 11.3 82.1 11.2 82.1 11.2C82.3 11 82.5 10.8 82.6 10.5C82.7 10.2 82.7 9.8 82.7 9.4C82.7 9 82.7 8.6 82.7 8.2C82.7 7.9 82.4 7.6 82.1 7.5C81.8 7.5 81.6 7.6 81.6 8C81.6 8.4 81.6 8.7 81.6 9.1C81.6 9.3 81.6 9.5 81.6 9.6C81.6 9.5 81.6 9.6 81.6 9.7V9.8V9.9C81.6 10 81.6 9.8 81.6 9.9C81.6 10 81.5 10 81.5 10C81.5 10.1 81.5 10 81.5 10C81.5 10 81.5 10 81.4 10.1C81.3 10.2 81.2 10.2 81.2 10.3C81 10.5 80.8 10.7 80.7 11C80.6 11.3 80.9 11.7 81.1 11.8C81.5 12 81.8 12 81.8 11.6Z" fill="#B88A5E"/>
</svg>
