<svg xmlns="http://www.w3.org/2000/svg" viewBox="0 0 459.25 503.3"><path d="M229.76,273.82l59.38,221.61c4.9-1.31,10.53-3,15.32-4.68Z" transform="translate(0)" fill="#d69f8f"/><path d="M229.76,273.82l-12,229.12a218.2,218.2,0,0,0,71.38-7.51Z" transform="translate(0)" fill="#cbb79a"/><path d="M229.76,273.82,23.56,374.4c37.77,77.44,108.15,124,194.2,128.54Z" transform="translate(0)" fill="#e9e0ca"/><path d="M229.76,273.82,269.6,47.88C144.82,25.88,25.83,109.2,3.82,234-5,283.9,1.34,328.84,23.56,374.4Z" transform="translate(0)" fill="#e6bd8e"/><path d="M229.76,273.82l74.7,216.93c119.8-41.25,183.48-171.81,142.23-291.62C418.64,117.66,354.46,62.85,269.6,47.88Z" transform="translate(0)" fill="#f3c3b1"/><path d="M352,278.09H347.4v9.53h-3.8v-9.53H326.83v-2.52l15.85-23.44h4.72v22.8H352Zm-8.38-3.16V259.3q0-1.62.09-3.69h-.09c-.13.34-.58,1.25-1.36,2.73l-11.15,16.59Z" transform="translate(0)" fill="#fff"/><path d="M377.32,287.62H356.08v-3.46l10.34-10.4q5.13-5.17,6.31-7.51a10.82,10.82,0,0,0,1.18-4.93,6.35,6.35,0,0,0-1.78-4.84,7.09,7.09,0,0,0-5.1-1.69q-4.74,0-9.11,4.1v-4.08a15,15,0,0,1,9.62-3.28,10.39,10.39,0,0,1,7.34,2.55,8.9,8.9,0,0,1,2.76,6.89,13.26,13.26,0,0,1-1.82,6.59,42.84,42.84,0,0,1-6.88,8.31L360.67,284v.1h16.65Z" transform="translate(0)" fill="#fff"/><path d="M382.15,270.83a6.23,6.23,0,0,1,1.45-4.35,5,5,0,0,1,3.92-1.61,4.66,4.66,0,0,1,3.69,1.5,6,6,0,0,1,1.33,4.15,6.16,6.16,0,0,1-1.47,4.27,4.93,4.93,0,0,1-3.87,1.64,4.66,4.66,0,0,1-3.68-1.54A5.9,5.9,0,0,1,382.15,270.83Zm2-.14a4.72,4.72,0,0,0,.86,3,2.84,2.84,0,0,0,2.34,1.08,2.77,2.77,0,0,0,2.34-1.11,5,5,0,0,0,.84-3.07,4.81,4.81,0,0,0-.83-3,2.73,2.73,0,0,0-2.29-1.07,2.85,2.85,0,0,0-2.38,1.14A4.84,4.84,0,0,0,384.16,270.69Zm18-5.49-14.36,22.59h-2.14L400,265.2Zm-6.64,17.17a6.39,6.39,0,0,1,1.44-4.38,4.93,4.93,0,0,1,3.9-1.64,4.63,4.63,0,0,1,3.69,1.52,6.2,6.2,0,0,1,1.33,4.21,6.09,6.09,0,0,1-1.49,4.27,5,5,0,0,1-3.84,1.62,4.66,4.66,0,0,1-3.65-1.54A5.84,5.84,0,0,1,395.48,282.37Zm2-.13a4.6,4.6,0,0,0,.87,3,2.84,2.84,0,0,0,2.33,1.09,2.78,2.78,0,0,0,2.34-1.12,5.05,5.05,0,0,0,.84-3.08,4.71,4.71,0,0,0-.82-3,2.76,2.76,0,0,0-2.29-1.05,2.87,2.87,0,0,0-2.4,1.13A4.84,4.84,0,0,0,397.46,282.24Z" transform="translate(0)" fill="#fff"/><path d="M86.89,221.16a12.88,12.88,0,0,0,8.2,2.88,9.18,9.18,0,0,0,6-1.85,6.19,6.19,0,0,0,2.3-5.11q0-7.11-10-7.1H90.42V206.7h2.79q8.9,0,8.89-6.64,0-6.17-6.78-6.17a11.26,11.26,0,0,0-7,2.59v-3.82a15.24,15.24,0,0,1,8-2,10.49,10.49,0,0,1,7,2.31,7.61,7.61,0,0,1,2.76,6.14q0,7-7.12,9v.09a9.3,9.3,0,0,1,6.08,2.66,8,8,0,0,1,2.3,5.82,9.51,9.51,0,0,1-3.49,7.74,13.54,13.54,0,0,1-8.93,2.89,14.73,14.73,0,0,1-8-1.9Z" transform="translate(0)" fill="#fff"/><path d="M114.93,221.68a13.35,13.35,0,0,0,7.38,2.36,8.7,8.7,0,0,0,6.12-2.16,7.43,7.43,0,0,0,2.36-5.74,6.87,6.87,0,0,0-2.36-5.57q-2.36-2-6.8-2c-.94,0-2.79.09-5.57.28V191.21h17v3.49H119.7v10.63c1.33-.08,2.34-.12,3-.12q5.59,0,8.77,2.81a10,10,0,0,1,3.17,7.89,10.54,10.54,0,0,1-3.44,8.34,13.1,13.1,0,0,1-9,3.05q-4.9,0-7.27-1.47Z" transform="translate(0)" fill="#fff"/><path d="M139.31,209.92a6.24,6.24,0,0,1,1.45-4.36,5,5,0,0,1,3.91-1.6,4.66,4.66,0,0,1,3.7,1.49,6.06,6.06,0,0,1,1.32,4.15,6.15,6.15,0,0,1-1.46,4.27,4.93,4.93,0,0,1-3.87,1.65,4.7,4.7,0,0,1-3.69-1.54A5.9,5.9,0,0,1,139.31,209.92Zm2-.15a4.62,4.62,0,0,0,.86,3,3.06,3.06,0,0,0,4.68,0,5,5,0,0,0,.84-3.08,4.85,4.85,0,0,0-.83-3,2.77,2.77,0,0,0-2.3-1.07,2.85,2.85,0,0,0-2.37,1.14A4.86,4.86,0,0,0,141.32,209.77Zm18-5.48-14.35,22.59h-2.14l14.35-22.59Zm-6.64,17.16a6.38,6.38,0,0,1,1.45-4.38,4.93,4.93,0,0,1,3.89-1.64,4.67,4.67,0,0,1,3.69,1.52,6.16,6.16,0,0,1,1.33,4.21,6.06,6.06,0,0,1-1.48,4.27,5,5,0,0,1-3.84,1.62,4.7,4.7,0,0,1-3.66-1.53A5.87,5.87,0,0,1,152.63,221.45Zm2-.13a4.65,4.65,0,0,0,.88,3,2.84,2.84,0,0,0,2.32,1.08,2.76,2.76,0,0,0,2.35-1.12,5,5,0,0,0,.84-3.08,4.71,4.71,0,0,0-.83-3,2.73,2.73,0,0,0-2.28-1,2.87,2.87,0,0,0-2.41,1.12A4.88,4.88,0,0,0,154.61,221.32Z" transform="translate(0)" fill="#fff"/><path d="M130.2,419.33H110.26v-3.41h8.07V388l-8.27,2.5v-3.69L122.15,383v32.88h8Z" transform="translate(0)" fill="#fff"/><path d="M158,385l-14.15,34.37h-3.95l13.34-32h-18v-3.48H158Z" transform="translate(0)" fill="#fff"/><path d="M161.53,402.55a6.24,6.24,0,0,1,1.46-4.36,5,5,0,0,1,3.91-1.61,4.69,4.69,0,0,1,3.7,1.5,6.06,6.06,0,0,1,1.32,4.15,6.16,6.16,0,0,1-1.47,4.27,4.93,4.93,0,0,1-3.87,1.65,4.67,4.67,0,0,1-3.68-1.55A5.88,5.88,0,0,1,161.53,402.55Zm2-.15a4.72,4.72,0,0,0,.86,3,2.85,2.85,0,0,0,2.34,1.08,2.79,2.79,0,0,0,2.35-1.11,5,5,0,0,0,.83-3.07,4.77,4.77,0,0,0-.83-3,2.75,2.75,0,0,0-2.29-1.07,2.83,2.83,0,0,0-2.37,1.14A4.84,4.84,0,0,0,163.54,402.4Zm18-5.48L167.15,419.5H165l14.36-22.58Zm-6.64,17.16a6.38,6.38,0,0,1,1.45-4.38,4.93,4.93,0,0,1,3.89-1.64,4.67,4.67,0,0,1,3.69,1.52,6.15,6.15,0,0,1,1.33,4.21,6.08,6.08,0,0,1-1.48,4.27,5,5,0,0,1-3.85,1.62,4.66,4.66,0,0,1-3.65-1.54A5.83,5.83,0,0,1,174.86,414.08Zm2-.13a4.54,4.54,0,0,0,.88,3A2.8,2.8,0,0,0,180,418a2.75,2.75,0,0,0,2.34-1.12,5,5,0,0,0,.84-3.08,4.71,4.71,0,0,0-.82-3,2.74,2.74,0,0,0-2.29-1,2.86,2.86,0,0,0-2.4,1.12A4.88,4.88,0,0,0,176.84,414Z" transform="translate(0)" fill="#fff"/><path d="M227.29,439.83a13.3,13.3,0,0,0,7.37,2.36,8.7,8.7,0,0,0,6.12-2.16,7.44,7.44,0,0,0,2.36-5.74,6.86,6.86,0,0,0-2.36-5.57q-2.35-2-6.8-2c-.93,0-2.79.09-5.57.28V409.36h17v3.48H232.05v10.63c1.33-.07,2.34-.11,3-.11q5.58,0,8.76,2.81c2.12,1.87,3.17,4.5,3.17,7.89a10.57,10.57,0,0,1-3.43,8.34,13.11,13.11,0,0,1-9,3.05q-4.91,0-7.26-1.47Z" transform="translate(0)" fill="#fff"/><path d="M251.66,428.06a6.23,6.23,0,0,1,1.45-4.35A5,5,0,0,1,257,422.1a4.66,4.66,0,0,1,3.69,1.5,6,6,0,0,1,1.33,4.15,6.16,6.16,0,0,1-1.47,4.27,4.93,4.93,0,0,1-3.87,1.64,4.65,4.65,0,0,1-3.68-1.54A5.84,5.84,0,0,1,251.66,428.06Zm2-.14a4.72,4.72,0,0,0,.86,3,2.82,2.82,0,0,0,2.34,1.08,2.77,2.77,0,0,0,2.34-1.11,5,5,0,0,0,.84-3.07,4.83,4.83,0,0,0-.83-3,2.77,2.77,0,0,0-2.3-1.07,2.85,2.85,0,0,0-2.37,1.14A4.84,4.84,0,0,0,253.67,427.92Zm18-5.48L257.27,445h-2.14l14.35-22.58ZM265,439.6a6.41,6.41,0,0,1,1.45-4.38,4.94,4.94,0,0,1,3.89-1.64A4.61,4.61,0,0,1,274,435.1a6.15,6.15,0,0,1,1.34,4.21,6.09,6.09,0,0,1-1.49,4.27A5,5,0,0,1,270,445.2a4.66,4.66,0,0,1-3.65-1.54A5.78,5.78,0,0,1,265,439.6Zm2-.13a4.6,4.6,0,0,0,.87,3,2.83,2.83,0,0,0,2.32,1.09,2.76,2.76,0,0,0,2.35-1.12,5.05,5.05,0,0,0,.84-3.08,4.71,4.71,0,0,0-.83-3,2.73,2.73,0,0,0-2.28-1,2.84,2.84,0,0,0-2.4,1.12A4.84,4.84,0,0,0,267,439.47Z" transform="translate(0)" fill="#fff"/><path d="M301,480.25H281.09v-3.42h8.07v-27.9l-8.27,2.5v-3.69L293,444v32.87h8Z" transform="translate(0)" fill="#fff"/><path d="M305.17,463.46a6.23,6.23,0,0,1,1.45-4.35,5,5,0,0,1,3.91-1.61,4.66,4.66,0,0,1,3.7,1.5,6.05,6.05,0,0,1,1.32,4.14,6.16,6.16,0,0,1-1.46,4.28,5,5,0,0,1-3.87,1.64,4.67,4.67,0,0,1-3.69-1.54A5.9,5.9,0,0,1,305.17,463.46Zm2-.14a4.66,4.66,0,0,0,.86,3,2.82,2.82,0,0,0,2.33,1.08,2.77,2.77,0,0,0,2.35-1.11,5,5,0,0,0,.84-3.07,4.81,4.81,0,0,0-.83-3,2.74,2.74,0,0,0-2.3-1.07,2.85,2.85,0,0,0-2.37,1.14A4.82,4.82,0,0,0,307.18,463.32Zm17.95-5.49-14.35,22.59h-2.14L323,457.83ZM318.49,475a6.34,6.34,0,0,1,1.45-4.38,4.9,4.9,0,0,1,3.89-1.64,4.66,4.66,0,0,1,3.69,1.51,6.19,6.19,0,0,1,1.33,4.22,6.05,6.05,0,0,1-1.48,4.26,5,5,0,0,1-3.84,1.62,4.7,4.7,0,0,1-3.66-1.53A5.84,5.84,0,0,1,318.49,475Zm2-.14a4.61,4.61,0,0,0,.88,3,2.85,2.85,0,0,0,2.32,1.09A2.78,2.78,0,0,0,326,477.8a5.05,5.05,0,0,0,.84-3.08,4.76,4.76,0,0,0-.83-3,2.76,2.76,0,0,0-2.28-1,2.89,2.89,0,0,0-2.41,1.12A4.88,4.88,0,0,0,320.47,474.86Z" transform="translate(0)" fill="#fff"/><path d="M138.84,42.38l2,5.78c0,.25-.78,1.4-2.58,2l-.64.23-2.38-6.78-5,1.77-.58-.81L135,42.73l-1.48-4.2-1.2.42.4,1.13c.1.3-.92,1.45-2.19,1.9l-.47.16-5-14.33,3.6.2,1.07-.37-1-2.88-4.84,1.7-.6-.84,5.11-1.79L126.61,19l4.82-1.24c.13.48,0,.87-.8,1.25l1.26,3.57,1-.35,1-3.08s2.69.93,4.34,1.67c.06.39-.25.68-.72.85l-5.27,1.85,1,2.87.94-.33.94-2.13L139,25.21a2.67,2.67,0,0,1-1,1.08l3.56,10.15c.08.31-1.14,1.56-2.17,1.93l-.5.17-.6-1.7-1.24.43,1.48,4.21,1.4-.49,1-3.05s2.71.89,4.39,1.61c0,.37-.26.65-.69.8ZM128.79,29,130.17,33l1.5-.53-1.38-3.94Zm3.15,9,1.5-.53L132,33.38l-1.5.52Zm1.29-10.54,1.38,3.94,1.57-.55-1.38-3.94ZM138,35.9l-1.44-4.11-1.57.55,1.44,4.11Zm-1.34-16.11-.6-.87,12.45-4.37,1-3.11s2.77.94,4.55,1.63c0,.4-.24.69-.75.86Zm7.39-.11a.86.86,0,0,1-.84.81c-.58,1.33-2,4.63-3.12,6.61,9.28.8,7.47,7.51,4.12,6.29a13.68,13.68,0,0,0-4.88-5.9,55.5,55.5,0,0,0-.05-7.61Zm14.87,17.89s2.93,1.07,4.71,1.87c0,.4-.25.69-.72.85L144.59,46.7l-.59-.84,7.48-2.62-2.84-8.09-5.74,2-.6-.84L154.69,32l.86-2.81a2.37,2.37,0,0,1-.63-.08,13,13,0,0,0-5.82-5.24,58.91,58.91,0,0,0,.29-7.42l5-.12c0,.38-.27.73-.88.83-.66,1.21-2.39,4.41-3.59,6.33,8.79-.27,8.79,5.06,6.19,5.67.82.31,2.56,1,3.75,1.49,0,.41-.25.69-.71.85l-6.45,2.27,2.84,8.08,2.3-.81Zm-9.77-19.5c0,.42-.27.74-.9.85-.61,1.26-2.27,4.54-3.35,6.5,9.71.19,8.11,7.06,4.58,6a12.57,12.57,0,0,0-5.37-5.58,69,69,0,0,0,.12-7.58Z" transform="translate(0)" fill="#e6bd8e"/><path d="M173.1,28.55c7.36.17,5.47,5.88,2.37,4.26a7.83,7.83,0,0,0-2.18-3.32L175,37.93c.06.31-1.41,1.29-2.73,1.55l-.69.14-1.42-7.15a24,24,0,0,1-4.64,5.9l-.44-.42a24.62,24.62,0,0,0,3-10.06l-4.27.85-.47-.92L169,26.7l-.84-4.23c-.92.43-1.85.87-2.84,1.32a1.66,1.66,0,0,1-.53.94l-2.53-3.29a3.8,3.8,0,0,0,.82-.38,7.17,7.17,0,0,0,2.16-2.74l-4.68.93-.48-.95,4-.8-1.93-9.69,3.9.71,5.34-1.06,1.17-2.11s2.06.93,3.36,1.64c0,.41-.31.64-.79.74l-9,1.79.36,1.81,5.59-1.11,1-1.72s1.69.71,2.87,1.37c0,.41-.31.64-.79.74l-8.51,1.69L167,14l5.55-1.1,1-1.72s1.74.73,2.92,1.4c0,.4-.31.64-.79.74L167.2,15l.36,1.8,6.63-1.32,1.19-2s2,.87,3.27,1.59c0,.39-.27.63-.75.72l-8.41,1.67a33.4,33.4,0,0,1-3.73,3.2c2.07-.49,4.79-1.13,7.61-1.87a11.32,11.32,0,0,0-1.48-1.26l.27-.27c7.68-.56,6.12,5.38,2.88,4a6.41,6.41,0,0,0-1-1.67c-1.5.77-3.57,1.83-5.84,2.89L173,22c0,.46-.19.83-1,1.13l.57,2.89.56-.11,1.17-2.65s2.23,1.25,3.6,2.13c0,.4-.31.64-.79.74l-4.34.86Zm3.25-18a40.2,40.2,0,0,0,8-7.65l4.06,1.94c-.15.35-.48.49-1.22.42a55.37,55.37,0,0,1-10.36,5.77Zm.75,18.83a24.92,24.92,0,0,0,2.32-8.69l4.58.9c-.1.41-.5.78-1.28.86a17,17,0,0,1-5.14,7.16Zm1.38-15.21A41.16,41.16,0,0,0,186.17,7l4,1.9c-.21.41-.55.51-1.25.43a55.9,55.9,0,0,1-10,5.38Zm13.89-1.28c-.17.39-.54.54-1.3.51a37.9,37.9,0,0,1-12.17,6.49l-.39-.5a29.54,29.54,0,0,0,9.41-8.4Zm-4.55,15.23c9.42,1.84,7.35,8.86,3.72,6.73a11.13,11.13,0,0,0-1.16-2.55c-2.2,1.27-5.16,2.9-8.51,4.58a2.16,2.16,0,0,1-.8.88L179,33.85a4.89,4.89,0,0,0,.93-.55c1.4-1.68,2.73-6.24,2.89-8.51l5.2,1.28c-.08.34-.41.66-1.08.72a38.8,38.8,0,0,1-5.08,6.6l8-2.05a25.86,25.86,0,0,0-2.28-2.91Zm2.27-9.44A4.13,4.13,0,0,1,187.65,20a10.42,10.42,0,0,0,7.48,3.85l.08.42a4.49,4.49,0,0,0-2,3.46c-3.06-1.41-5.05-4-6.31-7.62l-2.67.53-.48-.95,2.22-.44.7-1.94Z" transform="translate(0)" fill="#e6bd8e"/><path d="M208.4,3.21c-.15.37-.46.6-1.31.5a42.57,42.57,0,0,1-3.15,4.5c2.24,3.32,3.06,7.24,3.41,11.62.41,4.76.3,9.73-1.32,12.41-.78,1.25-2.27,1.83-4.39,1.95a4.62,4.62,0,0,0-.8-2.83,4.74,4.74,0,0,0-2.22-1l0-.5s2.2.09,3.37,0a1.07,1.07,0,0,0,1-.52c.87-1.5.9-5.37.68-9.36l-.06-1.13a26,26,0,0,1-7,5.6l-.34-.3a27.5,27.5,0,0,0,6.45-11.46c-.22-.8-.44-1.57-.7-2.33a29.63,29.63,0,0,1-4.94,4.17l-.34-.37a34.12,34.12,0,0,0,4.11-6.39A18.88,18.88,0,0,0,197,2.93l.37-.38a19.24,19.24,0,0,1,4.43,3.16A36.2,36.2,0,0,0,203.57,1Zm21.33,19.9c-.23.33-.61.46-1.46.58a17.13,17.13,0,0,1-4.18,4.41,48.63,48.63,0,0,0,7.39.4l0,.43a4.28,4.28,0,0,0-2.66,3.8,34.17,34.17,0,0,1-8.7-2.24,40.27,40.27,0,0,1-12,3.4l-.21-.52a37.76,37.76,0,0,0,9.84-4.1,15.47,15.47,0,0,1-5.37-5.33l-3.29.18-.37-1,15.16-.85,2-1.92L214.08,21v.21c0,.25-1.06,1.16-3,1.27l-.64,0L210,14a23.76,23.76,0,0,1-2.28,1.65l-.44-.33a31.57,31.57,0,0,0,4.17-9.1l1.63.62L213,4.69,208.22,5l-.38-1,5.06-.28L212.71.38l4.69.16c0,.4-.24.69-1,.84l.23,4.17a8.23,8.23,0,0,1,3.15.39L219.46,0l4.76.16c-.05.39-.28.69-1,.84l.11,2.08,1.91-.1,1.4-2.21s1.85,1.42,2.94,2.42c-.09.4-.39.59-.89.62l-5.3.3.08,1.52c0,.21-1.33.82-2.64,1,1.36,1.45-.74,3.73-2.92,2.29a5,5,0,0,0-1.29-2.83,5.94,5.94,0,0,1-2.89.87l-.43,0,2.76,1c-.16.4-.57.71-1.35.65A12.51,12.51,0,0,1,214,9.71l10.46-.59L226,7s2,1.31,3.18,2.31c0,.39-.39.59-.89.61l-7,.4.13,2.36,2.65-.15,1.49-2s1.77,1.25,2.95,2.18a.83.83,0,0,1-.88.61l-6.15.35.13,2.37,2.65-.15,1.49-2s1.8,1.24,2.95,2.17c-.08.39-.39.59-.88.62l-6.15.34.13,2.44,3.75-.21L227.15,17s2.21,1.44,3.58,2.5c-.08.39-.46.59-1,.62l-3.46.19Zm-16.37.78a15,15,0,0,0,7,3.47,16,16,0,0,0,3.49-4.06Zm4.32-13.36-4.17.23.13,2.37,4.17-.24Zm.19,3.39-4.17.23.13,2.37,4.17-.23ZM214,20l4.17-.23-.14-2.44-4.17.24Z" transform="translate(0)" fill="#e6bd8e"/><path d="M246.32,10.16c-.2.3-.54.52-1.38.34a38.33,38.33,0,0,1-3.11,3.26l1.44.69a1.41,1.41,0,0,1-1.16.62l-1.4,17c-.06.32-1.73,1.14-3.38,1l-.74-.06L237.9,17.1a35.52,35.52,0,0,1-4.8,3l-.28-.38a48.22,48.22,0,0,0,8.67-12.61Zm-.06-7.08c-.2.34-.5.49-1.34.32A43,43,0,0,1,234.1,9.79l-.29-.38A47.79,47.79,0,0,0,241.62,0Zm17.06,17.08s2.08,2,3.27,3.43c-.14.38-.5.52-1,.48l-5.22-.43-.54,6.56c-.22,2.69-1,4.33-5.61,4.3a5.27,5.27,0,0,0-.38-2.73,4.18,4.18,0,0,0-2.68-1.5l0-.42s3,.42,3.69.48.73-.16.76-.54l.53-6.49-12.66-1.05-.2-1,12.95,1.07.32-3.88-11-.91-.2-1,14.32,1.18,2-2.25a8.36,8.36,0,0,1-2.07.08l-.7-.06.1-1.2-7.8-.64-.07.88c0,.28-1.28.85-3.29.69l-.71-.06L248.3,1.19l4.17,2,7.27.6,2.08-2,3.44,3.12a1.87,1.87,0,0,1-1.36.53L263.11,15c0,.07-.26.19-.73.33.66.63,2.27,2.18,3.31,3.33-.14.38-.51.53-1,.48l-3.89-.32-.32,3.88.67.06Zm-16.4,2.94c9.21,1.65,5.47,8.16,2.07,5.46a12.86,12.86,0,0,0-2.37-5.27Zm12.18-9.83.31-3.74-7.8-.64-.31,3.74ZM252,4.16l-.31,3.74,7.8.64.31-3.73Z" transform="translate(0)" fill="#e6bd8e"/><path d="M279.64,15.41c-1.82,3.54-4,7.94-4.6,9.22a12.72,12.72,0,0,0-1.07,3c-.36,1.88.73,3.5-.11,6.54a2.78,2.78,0,0,1-3.41,2.24c-.76-.17-1.4-.86-1.35-2.19,1.44-3.48,2-6.79,1.4-7.48a3.37,3.37,0,0,0-1.6-.95l.16-.69,1.48.34c.45.1.63.14,1.13-.47.93-1.06.93-1.06,8.72-12.39l.53.22-1.16,2.39c.91.17,2.27.41,3.89.63l.56-2.49-2.59-.58-.05-1,2.86.65L285,9.87l-3.49-.79L281.46,8l3.76.85.69-3,4.59,1.52c-.17.46-.53.75-1.49.67l-.37,1.63,1.07.24,1.73-1.39a28.36,28.36,0,0,1,2,2.7.75.75,0,0,1-.95.36l-4-.91-.56,2.48.69.16,1.74-1.42s1.27,1.59,2,2.7a.78.78,0,0,1-1,.36l-3.66-.83-.5,2.21c1.66.19,3.43.38,5.14.54l0,.5q-2.22.43-5.52.82l-.54,2.38c-.07.31-1.69.56-3,.27l-.62-.15.48-2.14-1.85.17a1.34,1.34,0,0,1-1.07.55Zm-8-3.95c8.29,3.15,3.93,8.73,1.21,5.68a12,12,0,0,0-1.54-5.5Zm21.76,16c9.43,2,6.28,8.65,3.06,6.21a7.76,7.76,0,0,0-.88-2.52c-1.33-.05-2.95-.09-4.79-.18l-1.26,5.59c-.54,2.35-1.42,3.53-5.46,2.94a3.66,3.66,0,0,0-.13-2.32,4.11,4.11,0,0,0-2.33-1.58l.11-.48s2.8.81,3.45,1,.66,0,.74-.37l1.11-4.91c-1.32-.08-2.72-.18-4.18-.29l2.82,2.63c-.28.27-.62.33-1.39,0a25.28,25.28,0,0,1-9.83,2.71l-.22-.49a24.26,24.26,0,0,0,7.2-5l-1.9-.14a1.54,1.54,0,0,1-.62.37l-1.05-3.87a7.4,7.4,0,0,0,1.29.08,40.62,40.62,0,0,0,10-1.68c-2.23.07-5.07.12-8,.07a1.12,1.12,0,0,1-.46.26l-1-3.13s.57,0,.91,0c2.86-.15,7-2,8.66-3l2.7,3.12a1.27,1.27,0,0,1-1.52-.17,38.71,38.71,0,0,1-5.91.95c2,.35,4.47.76,7,1.14a24.21,24.21,0,0,0,3.27-1.29l3.05,3.67c-.27.23-.87.31-1.59-.18a75.59,75.59,0,0,1-13,1.37c3.19.65,7.44,1.43,11.91,2.22a13.76,13.76,0,0,0-2.07-2.54ZM275.8,3.83c8.72,3.32,4.16,9.18,1.33,6A13.86,13.86,0,0,0,275.47,4Zm29.62,9.91A2.21,2.21,0,0,1,304,14c-1.61,6.31-2.54,8.49-4.13,9.26a5.58,5.58,0,0,1-3.69.1,3.11,3.11,0,0,0,0-2.1,3.92,3.92,0,0,0-1.78-1.46l.1-.44c.78.24,2.08.61,2.63.74a1.1,1.1,0,0,0,1-.08c.64-.4,1.37-2.52,2.6-7.32l-1.79-.4a14,14,0,0,1-7.68,8.89l-.35-.55c2.71-2.8,3.75-6.27,4.47-9.15l-1.86-.42-.09-1,7.21,1.64,2.15-1.33ZM291.5,32.25c10.46,4,7.2,10.63,4,8a22.33,22.33,0,0,0-4.32-7.84Z" transform="translate(0)" fill="#f3c3b1"/><path d="M319.48,22.26c-2.82,3.43-8,9.9-9.1,11.45a12.46,12.46,0,0,0-1.72,2.91c-.61,1.81.3,3.49-1,6.41a2.86,2.86,0,0,1-3.81,1.74,2,2,0,0,1-1.11-2.44c2-3.23,3-6.37,2.39-7.19a3.89,3.89,0,0,0-1.55-1.2l.26-.66,1.52.58c.46.18.63.24,1.24-.28,1.24-1,1.24-1,12.37-11.69Zm-11.06-2.21c8.51,3.81,3.28,9.2.69,5.76a11.69,11.69,0,0,0-1-5.64ZM335.1,36.73s1,2.27,1.44,3.69a.81.81,0,0,1-1.06.2l-3.18-1.21-2.24,5.89a5.6,5.6,0,0,1-3.22-.2l-.6-.23.66-1.72-3.41-1.3-1.69,4.44c-.94,2.48-2.21,4-6.46,2.73a4.78,4.78,0,0,0,.26-2.86,4.86,4.86,0,0,0-2.45-2.33l.17-.43s3.28,1.51,4,1.79c.5.19.75,0,.9-.38l1.65-4.33-6.21-2.37.06-1.07,6.52,2.48,1.56-4.1-7.87-3,.1-1.06,8.14,3.1,1.5-3.94-6.22-2.37.05-1,13.27,5.06L333,31.11l2.29,3.63a1.92,1.92,0,0,1-1.22.14l-1.36,3.57.16.07ZM313.92,13.47c8.88,4.33,3.36,9.88.75,6.2a14.22,14.22,0,0,0-1.05-6.09Zm24.94,12.8a2.29,2.29,0,0,1-2.16-.79A116.11,116.11,0,0,1,319.8,20l.11-.49a86.49,86.49,0,0,0,16.45,1.76Zm-17.89-5c6.45,4.73,1.16,8.78-.66,5.4a11.45,11.45,0,0,0,.25-5.33Zm7.86,16.86-3.41-1.3-1.56,4.1,3.4,1.3Zm-2.43-15.4c6.55,4.89,1.07,9.32-.73,5.79a8.86,8.86,0,0,0,.33-5.75Zm-.62,13.14,3.41,1.3,1.5-3.94-3.41-1.29Zm2.91-5.14A56.94,56.94,0,0,0,334.2,25L338,28.76a1.38,1.38,0,0,1-1.56,0A28.58,28.58,0,0,1,329,31.14Z" transform="translate(0)" fill="#f3c3b1"/><path d="M368.7,48.79s1.22,3.06,1.82,5.05c-.25.31-.68.27-1.11,0l-2.66-1.47-9,16.2c-.12.21-1.62.36-3.48-.67l-.62-.34,9.5-17.16-3-1.65-.62,1.12c-3.06,5.54-7.15,11.69-16.31,11.93l-.15-.53c6.31-2.33,9.88-7.76,13-13.4l.48-.87a1.05,1.05,0,0,1-.8-.16l-5.89-3.25-2,3.68,1.46.81,2.83-1.31s.95,2.51,1.42,4.15a.82.82,0,0,1-1.08,0l-5.11-2.83-6.3,11.4c-.11.18-1.48.19-3.28-.8l-.62-.35,5-9-.09,0a24.56,24.56,0,0,1-9.12,3.9l-.12-.51a31.2,31.2,0,0,0,7.59-7.21l2.25,2.94,1.25-2.26-5-2.78.23-1,5.26,2.91,2-3.68-5.6-3.1.25-1,8.3,4.59a52.86,52.86,0,0,0,4.61-5l-6.56-3.63c4.75,6.31-1.07,9.24-2.07,5.57a15.18,15.18,0,0,0,1.54-5.79l.22,0L345,32.13l.25-1,6.5,3.59a3.59,3.59,0,0,1-.5-.84,10.28,10.28,0,0,0,.65-5.06l.34,0c5.16,3.91,3.11,7,1,6.75l2,1.09,2.8-1.32s1,2.54,1.53,4.24a.86.86,0,0,1-1.11,0l-3.93-2.18,3.08,3.2c-.33.31-.84.35-1.45-.07a39.76,39.76,0,0,1-5.91,2.11l2.14,1.18,3-1.35s.93,2.42,1.48,4.14l5-9.11,3,3.15a35.66,35.66,0,0,0,7.55-.63l2.13,5.14c-.51.12-1.17-.16-1.94-.95a53.16,53.16,0,0,1-8.45-2.57l-3.46,6.25,4.52,2.51Zm-21.62,1c5.3,6.73-.73,10.4-1.9,6.59a13.91,13.91,0,0,0,1.51-6.6Z" transform="translate(0)" fill="#f3c3b1"/><path d="M375.14,75.66c-1.53,2-2.8,2.89-6.18.79a4.41,4.41,0,0,0,1-2.41,3.51,3.51,0,0,0-1.25-2.45l.32-.42s2.07,1.83,2.58,2.21.69.2,1-.16l6.06-8.06c-1.11.36-2.47.75-3.9,1.18a1.32,1.32,0,0,1-1.17.49l.38-3c-3.23,3.77-7.19,7.26-12.48,8.28l-.24-.5c5.19-3.31,9.54-9.2,13.48-14.43l7.55-10,2.4,3.71,2.8,2.1,2.42-.52L391,56.71a2.49,2.49,0,0,1-1.45-.25Zm15.18,11.07a1.58,1.58,0,0,1-.15,2c-1,1.27-2.51,1.21-5.22-.83l-1.27-1c-2.15-1.61-2-2.6-.45-4.63l14.43-19.17-3-2.26-6.41,8.51c-3.79,5-8.4,10.51-16.74,10.3l-.16-.44c5.75-2,9.87-7,13.76-12.22l8-10.63,2.64,4L397.93,62l3-.67,1.17,4.86a2.39,2.39,0,0,1-1.56-.33L387.18,83.61c-.32.43-.36.66,0,.92l.53.4a3.84,3.84,0,0,0,.53.36c.17.12.33.15.73-.08a45.28,45.28,0,0,0,4.84-4l.31.23ZM377.5,59.28c-.83,1.1-1.72,2.29-2.71,3.49,1.17.26,3,.59,4.91.95l2.15-2.86a1.91,1.91,0,0,1-1.33-.64,12.9,12.9,0,0,0-1.08-3.52Zm6-8-3.24,4.3c2,1,2.92,2.24,3.11,3.23l3.66-4.87Z" transform="translate(0)" fill="#f3c3b1"/><path d="M414.36,111.93c-.85,2.35-1.6,3.4-2.4,3.25-2.25-.3-2.91-3.5-2.61-5.55A28.09,28.09,0,0,1,413,99.21a27.24,27.24,0,0,1-5.13-2l.07-.53a20.78,20.78,0,0,0,6.18.63,71.22,71.22,0,0,1,8.06-10l-10.05-10-4.62,4.64c-4.25,4.25-10.58,10.29-18.64,10.39l-.1-.5c6.08-2.58,11.58-8,16.11-12.52l6.45-6.46,2,4.15,9.59,9.58c1.1-1.15,2.2-2.3,3.32-3.43l3.26,4,.05-.35.37.13c3.56,5.3-1.57,5.93-1.7,2.9a5.66,5.66,0,0,0,1.2-2.35,1.45,1.45,0,0,1-1.37-.38c-.78.73-1.55,1.51-2.33,2.28l2.78,2.78,3.08-.53s.2,2.7.18,4.43c-.33.22-.71.1-1.06-.25L425,90.12a67.39,67.39,0,0,0-5.63,6.44,25.26,25.26,0,0,0,6.36-2.66l2.13,5a1.35,1.35,0,0,1-1.5-.6,22.51,22.51,0,0,1-9.24,1.58,19.83,19.83,0,0,0-3.19,8.91c-.1.75,0,.9.75.7a45.85,45.85,0,0,0,4.4-1.6l.23.32ZM400.21,90.09c-1.5,3.3-3.58,5-5.11,5.11-1,.07-2.2-1-1.87-2A1.92,1.92,0,0,1,395.6,92a6.61,6.61,0,0,0,4.21-2.35Zm4.48,12.48a1.24,1.24,0,0,1-.25,1.6c-.92.93-2.22.58-5.23-2.42l-1.83-1.83c-1.92-1.92-1.77-2.67-.32-4.12l5.4-5.41,2.65,3.2a1.08,1.08,0,0,1-1.37-.13l-3.93,3.94c-.3.3-.3.45.28,1l1.42,1.43a15.38,15.38,0,0,0,1.33,1.22.59.59,0,0,0,.7.2,22.93,22.93,0,0,0,3.55-1.85l.3.3Zm.95-11.51c-.2.2-1.91-.35-3-1.4l-.37-.37,7.2-7.22,1.63,3.73,2.6,2.6,2.43-.07.68,4.38a2,2,0,0,1-1.33-.43l-3.8,3.81a6.25,6.25,0,0,1-2.78-1.53l-.45-.45,1-1-3-3Zm.7,1.45c2.58,7-3.4,8.16-3.33,4.73a10.49,10.49,0,0,0,2.88-4.88Zm2.93,5.88c2.26,7.86-3.85,9.56-3.88,5.93a16.86,16.86,0,0,0,3.5-6.1Zm1-12-3.05,3.05,3,2.95,3-3Zm8.89-.83s.35,2.75.45,4.6a.87.87,0,0,1-1.08-.27l-8.84-8.83.53-.93,5.81,5.8Z" transform="translate(0)" fill="#f3c3b1"/></svg>