<svg width="100" height="100" viewBox="0 0 100 100" fill="none" xmlns="http://www.w3.org/2000/svg">
<path d="M99.1626 58.9657C97.3808 55.7595 93.3374 54.6047 90.1312 56.3865L81.075 60.2843L78.7528 55.6401C78.406 54.9505 78.2242 54.1896 78.2221 53.4175V35.0728C78.2078 23.445 69.5952 13.6204 58.0694 12.0838L64.7041 2.86172C65.2359 2.11595 65.0625 1.08012 64.3168 0.548315C64.019 0.336008 63.6595 0.227988 63.2942 0.24105H36.7557C35.8398 0.245196 35.1006 0.991383 35.1048 1.90737C35.1064 2.24968 35.2138 2.58307 35.4122 2.86172L42.0469 12.0838C30.4948 13.5899 21.8465 23.4228 21.8279 35.0728V53.7658C20.9082 54.5114 20.0689 55.3506 19.3233 56.2704L11.9921 65.4427L9.93533 62.3576C9.69006 61.9676 9.29343 61.6971 8.84062 61.6112C8.39009 61.5469 7.9323 61.6599 7.56346 61.9264L0.928846 66.9023C0.506511 67.2191 0.260201 67.718 0.265385 68.2458V98.1016C0.265385 99.0176 1.00805 99.7602 1.92404 99.7602H23.4865C23.9273 99.7627 24.3511 99.5896 24.6642 99.2792L29.6401 94.3033C30.195 93.7427 30.2783 92.8687 29.8392 92.2134L29.0098 90.9694L67.3745 82.1453C69.4528 81.6645 71.4639 80.9291 73.3622 79.9559L96.5834 67.997C99.7895 66.2152 100.944 62.1718 99.1626 58.9657ZM39.9735 3.55836H60.0764L54.155 11.8516H45.8618L39.9735 3.55836ZM25.1452 35.0728C25.1452 24.0803 34.0565 15.1689 45.049 15.1689H55.0009C65.9935 15.1689 74.9048 24.0803 74.9048 35.0728V53.4175C74.9075 54.7019 75.2083 55.9681 75.7839 57.1163L78.0065 61.6112L66.6115 66.4545C66.4069 66.5416 66.1869 66.5868 65.9646 66.5872H36.7557C35.8398 66.5872 35.0971 65.8445 35.0971 64.9285C35.0971 64.0125 35.8398 63.2699 36.7557 63.2699H50.025C56.4373 63.2699 61.6355 58.0717 61.6355 51.6593C61.6355 50.7433 60.8929 50.0006 59.9769 50.0006H57.8372C58.1491 49.2891 58.3126 48.5218 58.3182 47.7449C58.3114 45.4226 56.8736 43.3447 54.7024 42.5201L51.6836 41.3922V35.0728H52.7452C53.991 35.0728 55.0009 36.0827 55.0009 37.3285V38.3901H58.3182V37.3285C58.3091 34.2544 55.8193 31.7646 52.7452 31.7555H51.6836V28.4382H48.3663V31.7555H47.3048C44.2269 31.7455 41.7236 34.2327 41.7139 37.3105C41.7064 39.6469 43.1571 41.7401 45.3476 42.5533L48.3663 43.6812V50.0006H47.3048C46.0589 50.0006 45.049 48.9907 45.049 47.7449V46.6833H41.7317V47.7449C41.7373 48.5218 41.9009 49.2891 42.2127 50.0006H32.3769C29.8719 50.0004 27.3995 50.5675 25.1452 51.6593V35.0728ZM55.0009 47.7449C55.0009 48.9907 53.991 50.0006 52.7452 50.0006H51.6836V44.9252L53.5413 45.6218C54.4177 45.9625 54.9966 46.8046 55.0009 47.7449ZM48.3663 35.0728V40.1482L46.5086 39.4516C45.6322 39.111 45.0534 38.2688 45.049 37.3285C45.049 36.0827 46.0589 35.0728 47.3048 35.0728H48.3663ZM22.8065 96.4429H3.58269V69.0752L8.14399 65.6417L26.3892 92.91L22.8065 96.4429ZM94.9745 65.111L71.8529 77.0035C70.1909 77.8525 68.4304 78.4932 66.6115 78.911L27.0526 88.017L13.9327 68.3288L21.9108 58.2939C24.4604 55.1288 28.3128 53.2972 32.3769 53.318H58.1524C57.3641 57.1799 53.9666 59.9534 50.025 59.9526H36.7557C34.0076 59.9526 31.7798 62.1803 31.7798 64.9285C31.7798 67.6767 34.0076 69.9045 36.7557 69.9045H65.9315C66.604 69.9055 67.2698 69.7699 67.8887 69.5064L91.5742 59.3886C93.1545 58.4496 95.1965 58.9696 96.1355 60.5497C97.0745 62.1298 96.5548 64.172 94.9745 65.111Z" fill="#603813"/>
<path d="M16.8519 84.8323C14.1037 84.8323 11.876 87.0601 11.876 89.8082C11.876 92.5564 14.1037 94.7842 16.8519 94.7842C19.6001 94.7842 21.8279 92.5564 21.8279 89.8082C21.8279 87.0601 19.6001 84.8323 16.8519 84.8323ZM16.8519 91.4669C15.9359 91.4669 15.1933 90.7242 15.1933 89.8082C15.1933 88.8922 15.9359 88.1496 16.8519 88.1496C17.7679 88.1496 18.5106 88.8922 18.5106 89.8082C18.5106 90.7242 17.7679 91.4669 16.8519 91.4669Z" fill="#603813"/>
<path d="M90.0981 10.1927C87.4168 9.73286 85.3166 7.63259 84.8567 4.95138C84.8567 4.03539 84.114 3.29272 83.1981 3.29272C82.2821 3.29272 81.5394 4.03539 81.5394 4.95138C81.0795 7.63259 78.9793 9.73286 76.2981 10.1927C75.3821 10.1927 74.6394 10.9354 74.6394 11.8514C74.6394 12.7674 75.3821 13.51 76.2981 13.51C78.9793 13.9699 81.0795 16.0702 81.5394 18.7514C81.5394 19.6674 82.2821 20.41 83.1981 20.41C84.114 20.41 84.8567 19.6674 84.8567 18.7514C85.3166 16.0702 87.4168 13.9699 90.0981 13.51C91.014 13.51 91.7567 12.7674 91.7567 11.8514C91.7567 10.9354 91.014 10.1927 90.0981 10.1927ZM83.1981 14.2232C82.5545 13.2979 81.7515 12.4949 80.8262 11.8514C81.7515 11.2078 82.5545 10.4048 83.1981 9.4795C83.8416 10.4048 84.6446 11.2078 85.5699 11.8514C84.6446 12.4949 83.8416 13.2979 83.1981 14.2232Z" fill="#603813"/>
<path d="M15.4586 43.3658C12.7774 42.906 10.6772 40.8057 10.2173 38.1245C10.2173 37.2085 9.47464 36.4658 8.55865 36.4658C7.64266 36.4658 6.9 37.2085 6.9 38.1245C6.44014 40.8057 4.33987 42.906 1.65865 43.3658C0.742662 43.3658 0 44.1085 0 45.0245C0 45.9405 0.742662 46.6831 1.65865 46.6831C4.33987 47.143 6.44014 49.2432 6.9 51.9245C6.9 52.8404 7.64266 53.5831 8.55865 53.5831C9.47464 53.5831 10.2173 52.8404 10.2173 51.9245C10.6772 49.2432 12.7774 47.143 15.4586 46.6831C16.3746 46.6831 17.1173 45.9405 17.1173 45.0245C17.1173 44.1085 16.3746 43.3658 15.4586 43.3658ZM8.55865 47.3963C7.91509 46.471 7.1121 45.668 6.18678 45.0245C7.1121 44.3809 7.91509 43.5779 8.55865 42.6526C9.20221 43.5779 10.0052 44.3809 10.9305 45.0245C10.0052 45.668 9.20221 46.471 8.55865 47.3963Z" fill="#603813"/>
</svg>
