<svg width="100" height="100" viewBox="0 0 100 100" fill="none" xmlns="http://www.w3.org/2000/svg">
<g clip-path="url(#clip0_503_7377)">
<path d="M98.2357 54.8678C96.3367 52.4516 93.3229 51.3602 90.4416 51.8159C87.8149 48.8796 83.4327 48.1929 80.0211 50.2554L79.4405 50.5923C76.7836 48.1866 72.7751 47.7384 69.6268 49.6384L52.4987 59.5719L46.689 58.846L54.7999 53.0344C56.9577 51.4897 58.2462 48.9817 58.2462 46.3257C58.2462 45.7753 58.1903 45.2206 58.0798 44.6755C57.181 40.2706 53.0073 37.4243 48.579 38.1931L46.8271 38.4978C39.6794 39.7409 33.0109 42.4353 27.0062 46.5057C26.3365 46.9597 26.1617 47.8706 26.6156 48.5403C27.0695 49.21 27.9802 49.3848 28.6502 48.9309C34.3089 45.0948 40.5933 42.5558 47.3292 41.3843L49.081 41.0796C51.9376 40.5829 54.6296 42.4198 55.2089 45.2595C55.2804 45.6116 55.3165 45.9704 55.3165 46.3259C55.3165 48.0389 54.486 49.6565 53.0942 50.6526L41.94 58.6448C41.4497 58.996 41.2249 59.6118 41.3734 60.1961C41.5218 60.7805 42.0132 61.2143 42.6115 61.2891L72.5157 65.0254C72.8432 65.0666 73.1749 64.9956 73.4567 64.8245L88.9782 55.4124C91.2787 54.0173 94.2684 54.5616 95.9317 56.6778C96.6764 57.6262 97.0701 58.7643 97.0701 59.9684C97.0701 61.2911 96.582 62.56 95.6957 63.5415L81.5377 79.2231C80.1903 80.7152 78.3499 81.6772 76.3559 81.9315L34.3417 87.2805L33.0869 85.099L17.2553 57.5772L24.0234 52.378C24.665 51.8852 24.7855 50.9655 24.2927 50.3239C23.8002 49.6825 22.8802 49.5618 22.2386 50.0546L14.5066 55.9942L0.675988 64.835C0.0168098 65.2565 -0.194909 66.1213 0.195325 66.7997L18.4082 98.4613C18.6078 98.8084 18.9408 99.0586 19.3297 99.1537C19.4445 99.1818 19.5615 99.1957 19.6779 99.1957C19.9551 99.1957 20.2293 99.117 20.467 98.965L34.0728 90.2682L76.7264 84.8373C79.4149 84.4945 81.8957 83.1977 83.7123 81.1861L97.8703 65.5047C99.2438 63.984 100 62.0176 100 59.9682C100 58.1282 99.3734 56.3171 98.2357 54.8678ZM71.1085 52.1659C71.1167 52.1612 71.1247 52.1565 71.1327 52.1516C72.8794 51.0932 75.0385 51.1571 76.7004 52.1815L61.9274 60.7501L57.3034 60.1723L71.1085 52.1659ZM72.3733 62.0551L66.7317 61.3503L81.503 52.7827C81.5114 52.7778 81.5198 52.7729 81.5282 52.7678C83.3741 51.6473 85.6627 51.7768 87.3577 52.9686L72.3733 62.0551ZM20.1822 95.6699L3.43184 66.5504L14.8414 59.2575L30.6494 86.7371L31.5925 88.3766L20.1822 95.6699Z" fill="#603813"/>
<path d="M22.7252 82.4978C20.2701 82.4978 18.2727 84.4953 18.2727 86.9503C18.2727 89.4054 20.2701 91.4029 22.7252 91.4029C25.1803 91.4029 27.1778 89.4054 27.1778 86.9503C27.1778 84.4953 25.1803 82.4978 22.7252 82.4978ZM22.7252 88.4732C21.8856 88.4732 21.2024 87.79 21.2024 86.9503C21.2024 86.1107 21.8856 85.4275 22.7252 85.4275C23.5649 85.4275 24.2481 86.1107 24.2481 86.9503C24.2481 87.79 23.5649 88.4732 22.7252 88.4732Z" fill="#603813"/>
<path d="M45.0543 23.8575C45.681 24.4679 45.9666 25.3466 45.8181 26.2091L45.074 30.5505C44.7115 32.6616 45.5625 34.7552 47.2951 36.014C48.2742 36.7253 49.4193 37.0866 50.5728 37.0866C51.4605 37.0866 52.3531 36.8724 53.1775 36.439L57.0803 34.3888C57.8525 33.9813 58.7748 33.981 59.5494 34.3899L63.4492 36.4386C65.3445 37.4353 67.5978 37.2728 69.3299 36.0151C71.0629 34.7567 71.9146 32.663 71.5533 30.5509L70.809 26.2079C70.6607 25.3466 70.9459 24.4675 71.5711 23.8573L74.7281 20.7825C76.2617 19.2868 76.8029 17.0925 76.1406 15.0558C75.4785 13.0198 73.7511 11.5642 71.6332 11.2567L70.1703 11.0438C69.3687 10.9272 68.6261 11.4819 68.5097 12.2825C68.3933 13.0831 68.9478 13.8265 69.7484 13.9431L71.2121 14.156C72.2342 14.3042 73.0351 14.9792 73.3547 15.9616C73.6744 16.9448 73.4232 17.9628 72.6834 18.6843L69.526 21.7595C68.2095 23.0442 67.6097 24.8931 67.9217 26.7038L68.6658 31.0452C68.8404 32.0651 68.4451 33.0368 67.6086 33.6444C66.7728 34.2515 65.7279 34.3267 64.8125 33.8452L60.9144 31.7976C59.2861 30.9384 57.3418 30.9382 55.7156 31.7964L51.8144 33.8456C50.899 34.3269 49.8533 34.2517 49.0172 33.6438C48.181 33.0364 47.7865 32.0653 47.9615 31.0458L48.7054 26.7052C49.0178 24.8921 48.417 23.0429 47.0986 21.7589L43.9447 18.6851C43.2043 17.963 42.9531 16.9448 43.2728 15.9618C43.5924 14.9794 44.3933 14.3044 45.4162 14.156L49.7775 13.5212C51.5978 13.2563 53.1697 12.1138 53.9816 10.4663L55.9336 6.51357C56.3896 5.5874 57.2791 5.03447 58.3129 5.03447C59.3467 5.03447 60.2371 5.58779 60.6947 6.51514L62.6457 10.4659C62.8455 10.8708 63.0929 11.2493 63.381 11.5907C63.9027 12.2091 64.8269 12.287 65.4453 11.7653C66.0636 11.2437 66.1418 10.3194 65.6199 9.70107C65.4847 9.54092 65.3679 9.36221 65.2728 9.16924L63.3217 5.21826C62.3736 3.29775 60.4545 2.10498 58.3129 2.10498C56.1699 2.10498 54.2512 3.29853 53.306 5.21807L51.3543 9.17021C50.9683 9.95342 50.2213 10.4962 49.3556 10.6222L44.9951 11.2569C42.8763 11.5644 41.149 13.02 40.4869 15.056C39.8246 17.0927 40.3658 19.287 41.8998 20.7831L45.0543 23.8575Z" fill="#603813"/>
<path d="M27.6243 9.44075L31.4579 11.3167C32.0331 11.5982 32.6458 11.732 33.251 11.732C34.677 11.732 36.062 10.9888 36.8163 9.68235L37.0129 9.34153C38.0874 7.48059 37.5323 5.08313 35.7491 3.88391L32.2079 1.50208C31.2676 0.869849 30.0954 0.653638 28.9915 0.909106C27.8875 1.16477 26.9295 1.87395 26.3629 2.8554L25.8743 3.70188C25.3079 4.68313 25.1723 5.86731 25.503 6.9511C25.8334 8.03528 26.6065 8.94251 27.6243 9.44075ZM28.4114 5.16692L28.9 4.32043C29.0645 4.03547 29.3317 3.83762 29.6524 3.7634C29.7418 3.7427 29.8317 3.73254 29.9209 3.73254C30.1512 3.73254 30.376 3.80071 30.5727 3.93313L34.1143 6.31497C34.6245 6.65813 34.7834 7.34426 34.476 7.87688L34.2793 8.2177C33.9717 8.75032 33.2983 8.95579 32.7459 8.68547L28.9124 6.8095C28.6168 6.66477 28.4012 6.41184 28.3053 6.09719C28.2094 5.78254 28.2467 5.45188 28.4114 5.16692Z" fill="#603813"/>
<path d="M89.0025 33.3785L85.169 31.5025C83.2387 30.5583 80.8852 31.2759 79.8108 33.1367L79.6141 33.4773C79.6141 33.4773 79.6141 33.4775 79.6139 33.4775C78.5397 35.3384 79.0947 37.7357 80.8777 38.9349L84.4192 41.3169C85.1004 41.7751 85.9037 42.0148 86.7143 42.0148C87.0225 42.0148 87.3316 41.9802 87.6356 41.9097C88.7395 41.654 89.6975 40.9447 90.2641 39.9634L90.7527 39.1169C91.3193 38.1357 91.4547 36.9513 91.124 35.8675C90.7936 34.7837 90.0203 33.8765 89.0025 33.3785ZM88.2154 37.6521L87.7268 38.4986C87.5623 38.7835 87.2951 38.9814 86.9746 39.0556C86.6543 39.1296 86.3273 39.0695 86.0541 38.8859L82.5127 36.5039C82.0025 36.1607 81.8436 35.4748 82.1508 34.9421L82.3477 34.6013C82.6553 34.0687 83.3287 33.8632 83.8811 34.1335L87.7147 36.0095C88.0102 36.154 88.2258 36.407 88.3217 36.7216C88.4178 37.0369 88.3801 37.3671 88.2154 37.6521Z" fill="#603813"/>
<path d="M22.5635 24.898C23.3239 25.608 24.3327 26.0023 25.3674 26.0023C25.4598 26.0023 25.5528 25.9992 25.6454 25.9928L29.9032 25.7006C32.0473 25.5537 33.7266 23.7551 33.7266 21.606V21.2127C33.7266 19.0639 32.0471 17.2652 29.9032 17.1182L25.6452 16.8262C24.5141 16.7475 23.3913 17.1477 22.5631 17.9209C21.735 18.6941 21.26 19.7875 21.26 20.9205V21.898C21.2604 23.0314 21.7354 24.1248 22.5635 24.898ZM24.1901 20.9207C24.1901 20.5916 24.3225 20.2869 24.5629 20.0623C24.7831 19.8568 25.0641 19.7461 25.362 19.7461C25.3895 19.7461 25.4172 19.7471 25.445 19.749L29.703 20.041C30.3165 20.083 30.7971 20.5978 30.7971 21.2129V21.6062C30.7971 22.2211 30.3166 22.7359 29.703 22.7779L25.445 23.0701C25.1155 23.0924 24.8034 22.9812 24.5629 22.7568C24.3225 22.5322 24.1901 22.2275 24.1901 21.8984V20.9207Z" fill="#603813"/>
<path d="M90.9816 16.8265L86.7236 17.1184C84.5797 17.2655 82.9004 19.0641 82.9004 21.213V21.6063C82.9004 23.7554 84.5799 25.5538 86.7236 25.7009L90.9816 25.9931C91.0744 25.9995 91.1672 26.0026 91.2596 26.0026C92.2943 26.0026 93.3031 25.6081 94.0635 24.8983C94.8916 24.1251 95.3666 23.0317 95.3666 21.8987V20.9212C95.3666 19.7882 94.8916 18.6948 94.0635 17.9216C93.2354 17.1479 92.1127 16.7487 90.9816 16.8265ZM92.0641 20.0624C92.3045 20.287 92.4369 20.5917 92.4369 20.9208V21.8983C92.4369 22.2274 92.3045 22.5321 92.0641 22.7567C91.8236 22.9813 91.5111 23.0933 91.182 23.07L86.9238 22.7778C86.3103 22.7358 85.8299 22.221 85.8299 21.6061V21.2128C85.8299 20.5977 86.3103 20.0831 86.924 20.0409L91.182 19.7489C91.21 19.747 91.2375 19.746 91.265 19.746C91.5629 19.7464 91.844 19.8569 92.0641 20.0624Z" fill="#603813"/>
<path d="M31.458 31.5023L27.6244 33.3783C26.6068 33.8763 25.8336 34.7836 25.5029 35.8674C25.1724 36.9511 25.3076 38.1355 25.8742 39.1168L26.3631 39.9634C26.9297 40.9447 27.8877 41.6541 28.9916 41.9097C29.2957 41.98 29.6049 42.0148 29.9129 42.0148C30.7236 42.0148 31.5267 41.7752 32.2078 41.317L35.7494 38.9349C37.5326 37.7357 38.0877 35.3384 37.0131 33.4771L36.8164 33.1365V33.1367C35.7418 31.2758 33.3885 30.558 31.458 31.5023ZM34.1142 36.5041L30.5726 38.8861C30.2996 39.0695 29.9726 39.1297 29.6523 39.0558C29.3316 38.9816 29.0646 38.7838 28.9002 38.499L28.4113 37.6523C28.2469 37.3674 28.2092 37.0371 28.3051 36.7224C28.4012 36.4078 28.6166 36.1549 28.9121 36.0103L32.7457 34.1344C32.9101 34.0537 33.0855 34.0156 33.2586 34.0156C33.6668 34.0156 34.0631 34.2283 34.2789 34.6021V34.6023L34.4756 34.9427C34.7834 35.4748 34.6244 36.1609 34.1142 36.5041Z" fill="#603813"/>
<path d="M79.8105 9.68242C80.5648 10.9891 81.9496 11.7322 83.3758 11.732C83.9811 11.732 84.5938 11.598 85.1689 11.3168L89.0025 9.44062C90.0203 8.94257 90.7936 8.03535 91.124 6.95136C91.4545 5.86757 91.3191 4.68339 90.7527 3.70214L90.2639 2.85546C89.6973 1.87421 88.7393 1.16484 87.6353 0.909175C86.5312 0.653706 85.3592 0.869526 84.4189 1.50195L80.8773 3.88398C79.0943 5.08339 78.5393 7.48066 79.6137 9.3416L79.8105 9.68242ZM82.5127 6.31503L86.0543 3.933C86.251 3.80058 86.4758 3.73242 86.7061 3.73242C86.7953 3.73242 86.8852 3.74257 86.9746 3.76328C87.2951 3.8375 87.5623 4.03535 87.7268 4.32011L88.2156 5.16679C88.3801 5.45175 88.4178 5.78183 88.3219 6.09667C88.226 6.41152 88.0104 6.66445 87.7148 6.80898L83.8814 8.68496C83.3295 8.95546 82.6557 8.74999 82.3479 8.21718L82.1512 7.87656C81.8436 7.34433 82.0023 6.6582 82.5127 6.31503Z" fill="#603813"/>
</g>
<defs>
<clipPath id="clip0_503_7377">
<rect width="100" height="100" fill="white"/>
</clipPath>
</defs>
</svg>
