<svg width="400" height="300" viewBox="0 0 400 300" fill="none" xmlns="http://www.w3.org/2000/svg">
<path fill-rule="evenodd" clip-rule="evenodd" d="M160.012 100.746H313.588C361.312 100.746 400 139.434 400 187.158C400 234.882 361.312 273.57 313.588 273.57H28.9608V231.797C28.9608 159.419 87.6345 100.746 160.012 100.746Z" fill="#FEEBD2"/>
<path fill-rule="evenodd" clip-rule="evenodd" d="M47.4446 147.433H26.9679C17.9207 147.433 10.5864 154.767 10.5864 163.814C10.5864 172.861 17.9207 180.196 26.9679 180.196H80.2075C80.2075 162.101 65.5391 147.433 47.4446 147.433Z" stroke="#18233D" stroke-width="1.04" stroke-linecap="round"/>
<path d="M59.9138 167.091C58.2056 167.091 56.8208 165.807 56.8208 164.224C56.8208 162.641 58.2056 161.357 59.9138 161.357C61.6221 161.357 63.0069 162.641 63.0069 164.224C63.0069 165.807 61.6221 167.091 59.9138 167.091Z" fill="#18233D"/>
<path d="M46.216 167.09C44.5077 167.09 43.1229 165.807 43.1229 164.224C43.1229 162.64 44.5077 161.357 46.216 161.357C47.9242 161.357 49.3091 162.64 49.3091 164.224C49.3091 165.807 47.9242 167.09 46.216 167.09Z" fill="#18233D"/>
<path d="M32.518 167.09C30.8097 167.09 29.4249 165.807 29.4249 164.224C29.4249 162.64 30.8097 161.357 32.518 161.357C34.2262 161.357 35.6111 162.64 35.6111 164.224C35.6111 165.807 34.2262 167.09 32.518 167.09Z" fill="#18233D"/>
<path fill-rule="evenodd" clip-rule="evenodd" d="M69.9144 15.5623H32.2371C15.9521 15.5623 2.75056 28.7638 2.75056 45.0488C2.75056 61.3338 15.9521 74.5354 32.2371 74.5354H128.888C128.888 41.9654 102.484 15.5623 69.9144 15.5623Z" fill="#FEEBD2"/>
<path fill-rule="evenodd" clip-rule="evenodd" d="M248.088 9.82886H344.295C348.366 9.82886 351.667 13.1293 351.667 17.2005C351.667 17.2059 351.667 17.2112 351.667 17.2166L351.24 212.975C351.231 217.04 347.934 220.33 343.869 220.33H247.661C243.59 220.33 240.29 217.03 240.29 212.958C240.29 212.953 240.29 212.948 240.29 212.942L240.716 17.1844C240.725 13.1195 244.023 9.82886 248.088 9.82886Z" fill="#18233D"/>
<path d="M348.399 32.7629C348.399 31.8582 347.665 31.1248 346.761 31.1248C345.856 31.1248 345.122 31.8582 345.122 32.7629V73.7165C345.122 74.6212 345.856 75.3546 346.761 75.3546C347.665 75.3546 348.399 74.6212 348.399 73.7165V32.7629Z" fill="#603813"/>
<path d="M349.218 32.7629C349.218 31.8582 348.484 31.1248 347.58 31.1248C346.675 31.1248 345.942 31.8582 345.942 32.7629V73.7165C345.942 74.6212 346.675 75.3546 347.58 75.3546C348.484 75.3546 349.218 74.6212 349.218 73.7165V32.7629Z" fill="white"/>
<path fill-rule="evenodd" clip-rule="evenodd" d="M239.897 10.2385C236.058 10.2385 232.943 13.3463 232.935 17.1855L232.508 212.943C232.508 212.951 232.508 212.951 232.508 212.959C232.508 216.804 235.625 219.921 239.47 219.921H335.678C339.517 219.921 342.632 216.813 342.64 212.974L343.067 17.2158C343.067 17.2082 343.067 17.2082 343.067 17.2006C343.067 13.3556 339.95 10.2385 336.104 10.2385H239.897Z" fill="white" stroke="#18233D" stroke-width="1.3"/>
<mask id="mask0_503_7282" style="mask-type:alpha" maskUnits="userSpaceOnUse" x="280" y="205" width="12" height="13">
<path d="M286.149 217.054C289.316 217.054 291.883 214.487 291.883 211.32C291.883 208.154 289.316 205.587 286.149 205.587C282.983 205.587 280.416 208.154 280.416 211.32C280.416 214.487 282.983 217.054 286.149 217.054Z" fill="white"/>
</mask>
<g mask="url(#mask0_503_7282)">
<path d="M286.149 217.054C289.316 217.054 291.883 214.487 291.883 211.32C291.883 208.154 289.316 205.587 286.149 205.587C282.983 205.587 280.416 208.154 280.416 211.32C280.416 214.487 282.983 217.054 286.149 217.054Z" fill="#603813"/>
<path d="M287.788 217.054C290.954 217.054 293.521 214.487 293.521 211.32C293.521 208.154 290.954 205.587 287.788 205.587C284.621 205.587 282.054 208.154 282.054 211.32C282.054 214.487 284.621 217.054 287.788 217.054Z" fill="white"/>
</g>
<mask id="mask1_503_7282" style="mask-type:alpha" maskUnits="userSpaceOnUse" x="235" y="13" width="106" height="190">
<path d="M242.747 13.1052H267.385C268.783 13.1052 270.018 14.0174 270.43 15.3543C270.841 16.6911 272.076 17.6033 273.475 17.6033H298.971C300.786 17.6033 302.502 16.7752 303.632 15.3543C304.761 13.9333 306.477 13.1052 308.293 13.1052H332.459C336.524 13.1052 339.822 16.3961 339.83 20.4613L340.2 194.923C340.208 198.995 336.915 202.302 332.844 202.311C332.838 202.311 332.833 202.311 332.828 202.311H243.116C239.051 202.311 235.753 199.02 235.744 194.955L235.375 20.4925C235.366 16.4212 238.66 13.1139 242.731 13.1052C242.736 13.1052 242.742 13.1052 242.747 13.1052Z" fill="white"/>
</mask>
<g mask="url(#mask1_503_7282)">
<path d="M242.747 13.1052H267.385C268.783 13.1052 270.018 14.0174 270.43 15.3543C270.841 16.6911 272.076 17.6033 273.475 17.6033H298.971C300.786 17.6033 302.502 16.7752 303.632 15.3543C304.761 13.9333 306.477 13.1052 308.293 13.1052H332.459C336.524 13.1052 339.822 16.3961 339.83 20.4613L340.2 194.923C340.208 198.995 336.915 202.302 332.844 202.311C332.838 202.311 332.833 202.311 332.828 202.311H243.116C239.051 202.311 235.753 199.02 235.744 194.955L235.375 20.4925C235.366 16.4212 238.66 13.1139 242.731 13.1052C242.736 13.1052 242.742 13.1052 242.747 13.1052Z" fill="#F9E2BC"/>
<path fill-rule="evenodd" clip-rule="evenodd" d="M243.651 92.5552H332.11C334.372 92.5552 336.206 94.3887 336.206 96.6505V131.052C336.206 133.313 334.372 135.147 332.11 135.147H243.651C241.389 135.147 239.555 133.313 239.555 131.052V96.6505C239.555 94.3887 241.389 92.5552 243.651 92.5552Z" stroke="#18233D" stroke-width="1.04" stroke-linecap="round"/>
<path d="M290.672 106.07H267.494" stroke="#18233D" stroke-width="1.3" stroke-linecap="round"/>
<path d="M290.672 114.26H251.113" stroke="#18233D" stroke-width="1.3" stroke-linecap="round"/>
<path d="M290.672 122.451H282.481" stroke="#18233D" stroke-width="1.3" stroke-linecap="round"/>
<path d="M312.498 126.137C305.712 126.137 300.212 120.636 300.212 113.851C300.212 107.066 305.712 101.565 312.498 101.565C319.283 101.565 324.784 107.066 324.784 113.851C324.784 120.636 319.283 126.137 312.498 126.137Z" fill="white"/>
<path fill-rule="evenodd" clip-rule="evenodd" d="M243.651 39.3154H332.11C334.372 39.3154 336.206 41.149 336.206 43.4108V77.8118C336.206 80.0736 334.372 81.9071 332.11 81.9071H243.651C241.389 81.9071 239.555 80.0736 239.555 77.8118V43.4108C239.555 41.149 241.389 39.3154 243.651 39.3154Z" stroke="#18233D" stroke-width="1.04" stroke-linecap="round"/>
<path fill-rule="evenodd" clip-rule="evenodd" d="M243.651 145.795H332.11C334.372 145.795 336.206 147.628 336.206 149.89V184.291C336.206 186.553 334.372 188.387 332.11 188.387H243.651C241.389 188.387 239.555 186.553 239.555 184.291V149.89C239.555 147.628 241.389 145.795 243.651 145.795Z" stroke="#18233D" stroke-width="1.04" stroke-linecap="round"/>
<path d="M290.672 159.309H267.494" stroke="#18233D" stroke-width="1.3" stroke-linecap="round"/>
<path d="M290.672 167.5H251.113" stroke="#18233D" stroke-width="1.3" stroke-linecap="round"/>
<path d="M290.672 175.691H282.481" stroke="#18233D" stroke-width="1.3" stroke-linecap="round"/>
<path d="M312.498 179.377C305.712 179.377 300.212 173.876 300.212 167.091C300.212 160.305 305.712 154.804 312.498 154.804C319.283 154.804 324.784 160.305 324.784 167.091C324.784 173.876 319.283 179.377 312.498 179.377Z" fill="white"/>
</g>
<path d="M297.207 13.9243H280.006C279.78 13.9243 279.597 14.1077 279.597 14.3339C279.597 14.56 279.78 14.7434 280.006 14.7434H297.207C297.433 14.7434 297.616 14.56 297.616 14.3339C297.616 14.1077 297.433 13.9243 297.207 13.9243Z" fill="#19243D"/>
<path d="M275.092 15.5624C275.77 15.5624 276.32 15.0124 276.32 14.3338C276.32 13.6553 275.77 13.1052 275.092 13.1052C274.413 13.1052 273.863 13.6553 273.863 14.3338C273.863 15.0124 274.413 15.5624 275.092 15.5624Z" fill="#19243D"/>
<path d="M345.942 53.2395H349.218" stroke="#FFD1AB" stroke-width="2.34"/>
<path d="M325.055 46.2776H76.8766C73.7101 46.2776 71.1431 48.8446 71.1431 52.0111V119.175C71.1431 122.341 73.7101 124.908 76.8766 124.908H325.055C328.222 124.908 330.789 122.341 330.789 119.175V52.0111C330.789 48.8446 328.222 46.2776 325.055 46.2776Z" fill="white" stroke="#18233D" stroke-width="1.3" stroke-linecap="round"/>
<path d="M161.015 69.2117H184.193" stroke="#18233D" stroke-width="1.3" stroke-linecap="round"/>
<path d="M161.015 77.4021H200.574" stroke="#18233D" stroke-width="1.3" stroke-linecap="round"/>
<path d="M161.015 85.593H169.205" stroke="#18233D" stroke-width="1.3" stroke-linecap="round"/>
<path d="M161.015 93.7837H200.574" stroke="#18233D" stroke-width="1.3" stroke-linecap="round"/>
<path d="M161.015 101.975H193.778" stroke="#18233D" stroke-width="1.3" stroke-linecap="round"/>
<path d="M236.392 91.0356L251.044 118.559L307.896 68.7548" stroke="#603813" stroke-width="13"/>
<path fill-rule="evenodd" clip-rule="evenodd" d="M91.689 79.5025C96.8596 77.8884 102.858 77.0813 109.684 77.0813C118.617 77.0813 126.96 78.4633 134.713 81.2273C140.117 83.1538 143.912 88.0403 144.442 93.7529L145.619 106.445H82.3898L81.3932 94.8372C80.8012 87.9429 85.0837 81.5645 91.689 79.5025Z" fill="#FF9B6F"/>
<path d="M116.279 24.3542C122.967 24.3542 128.389 18.9023 128.389 12.1771C128.389 5.45187 122.967 0 116.279 0C109.591 0 104.17 5.45187 104.17 12.1771C104.17 18.9023 109.591 24.3542 116.279 24.3542Z" fill="#18233D"/>
<path d="M114.803 33.2642C120.022 33.2642 124.254 29.0091 124.254 23.7602C124.254 18.5112 120.022 14.2561 114.803 14.2561C109.583 14.2561 105.351 18.5112 105.351 23.7602C105.351 29.0091 109.583 33.2642 114.803 33.2642Z" fill="#E5E9F3"/>
<path fill-rule="evenodd" clip-rule="evenodd" d="M100.932 51.6142C102.396 57.1398 102.762 62.6368 102.03 68.1052C100.932 76.3079 99.4179 78.2194 97.0812 79.221L109.684 101.575L123.073 78.627C118.668 78.3206 116.465 75.0524 116.465 68.8223C116.465 62.5922 116.904 55.6895 117.781 48.1143L100.932 51.6142Z" fill="#FFD1AB"/>
<path fill-rule="evenodd" clip-rule="evenodd" d="M100.513 85.1003C105.018 88.4122 111.331 88.4122 119.453 85.1003L109.684 101.575L100.513 85.1003Z" fill="#F9E2BC"/>
<path fill-rule="evenodd" clip-rule="evenodd" d="M96.0795 48.6907C91.5091 41.5972 89.6036 26.3201 99.5552 23.3726C110.18 10.7275 124.522 16.1114 127.403 26.8569C130.285 37.6024 126.721 50.7688 118.381 52.5907C110.04 54.4125 100.65 55.7842 96.0795 48.6907Z" fill="#18233D"/>
<path fill-rule="evenodd" clip-rule="evenodd" d="M117.249 54.8669C117.096 56.0883 116.91 58.8522 116.604 63.7329C116.346 67.8294 116.431 70.7847 116.858 72.5989C108.192 68.6671 103.353 65.5619 102.342 63.2835C102.411 60.9162 102.337 58.7635 102.119 56.8254L117.249 54.8669Z" fill="#CF8B54"/>
<path fill-rule="evenodd" clip-rule="evenodd" d="M97.0912 40.6667C99.8232 39.073 102.102 35.6155 103.927 30.2942C102.862 35.5521 114.465 40.8363 123.122 41.7801C123.407 41.6937 123.709 41.6474 124.021 41.6474C125.781 41.6474 127.208 43.1219 127.208 44.9407C127.208 46.7596 125.781 48.2341 124.021 48.2341C123.2 48.2341 122.452 47.9135 121.887 47.387C119.305 55.1086 113.875 65.0192 107.775 64.0918C103.366 63.4215 99.906 57.7771 97.395 47.1586C97.1786 47.2065 96.9541 47.2317 96.7238 47.2317C94.9637 47.2317 93.5369 45.7573 93.5369 43.9384C93.5369 42.1196 94.9637 40.6451 96.7238 40.6451C96.8481 40.6451 96.9707 40.6524 97.0912 40.6667Z" fill="#FFD1AB"/>
<path d="M108.487 43.0581C108.904 44.6469 108.313 47.5486 106.716 51.7633L109.233 52.6616" stroke="#18233D" stroke-width="1.3" stroke-linecap="round"/>
<path d="M112.033 40.3733C113.89 39.4802 115.774 39.6506 117.686 40.8844" stroke="#18233D" stroke-width="1.3" stroke-linecap="round"/>
<path d="M100.644 40.6577C102.398 39.5743 104.29 39.5456 106.319 40.5717" stroke="#18233D" stroke-width="1.3" stroke-linecap="round"/>
<path d="M114.507 43.9561C114.997 43.9561 115.393 43.5572 115.393 43.0651C115.393 42.573 114.997 42.1741 114.507 42.1741C114.018 42.1741 113.621 42.573 113.621 43.0651C113.621 43.5572 114.018 43.9561 114.507 43.9561Z" fill="#18233D"/>
<path d="M103.874 43.9561C104.364 43.9561 104.76 43.5572 104.76 43.0651C104.76 42.573 104.364 42.1741 103.874 42.1741C103.385 42.1741 102.988 42.573 102.988 43.0651C102.988 43.5572 103.385 43.9561 103.874 43.9561Z" fill="#18233D"/>
<path fill-rule="evenodd" clip-rule="evenodd" d="M105.942 55.0594L111.348 54.6484C110.836 56.4715 109.935 57.383 108.645 57.383C107.355 57.383 106.454 56.6085 105.942 55.0594Z" fill="white"/>
<path d="M123.073 45.7383L124.845 45.1443" stroke="#18233D" stroke-width="1.3" stroke-linecap="round"/>
<path d="M97.0812 44.5503L95.3091 43.9563" stroke="#18233D" stroke-width="1.3" stroke-linecap="round"/>
<path d="M107.123 28.5122C110.258 33.9836 115.18 37.3496 121.891 38.6103" stroke="white" stroke-width="1.3" stroke-linecap="round"/>
<path d="M229.295 166.012C199.365 157.992 181.697 126.872 189.834 96.5045C197.971 66.1367 228.831 48.0202 258.762 56.0401C288.693 64.0601 306.36 95.1795 298.223 125.547C290.086 155.915 259.226 174.032 229.295 166.012Z" fill="#603813"/>
<path d="M226.019 158.64C196.088 150.62 178.421 119.5 186.558 89.1327C194.695 58.7649 225.555 40.6484 255.486 48.6683C285.417 56.6882 303.084 87.8077 294.947 118.175C286.81 148.543 255.95 166.66 226.019 158.64Z" fill="white"/>
<mask id="mask2_503_7282" style="mask-type:alpha" maskUnits="userSpaceOnUse" x="193" y="56" width="96" height="97">
<path d="M228.874 150.751C203.514 143.956 188.493 117.784 195.323 92.2949C202.152 66.8056 228.247 51.651 253.607 58.4461C278.967 65.2412 293.988 91.4129 287.158 116.902C280.328 142.391 254.234 157.546 228.874 150.751Z" fill="white"/>
</mask>
<g mask="url(#mask2_503_7282)">
<path d="M228.874 150.751C203.514 143.956 188.493 117.784 195.323 92.2949C202.152 66.8056 228.247 51.651 253.607 58.4461C278.967 65.2412 293.988 91.4129 287.158 116.902C280.328 142.391 254.234 157.546 228.874 150.751Z" stroke="#19243D" stroke-width="1.3"/>
<path d="M217.911 87.7885L233.042 115.052L289.016 64.2631" stroke="#603813" stroke-width="20.8"/>
</g>
<path d="M205.733 150.746L212.222 155.816C212.935 156.373 213.061 157.402 212.504 158.115L189.529 187.523C188.972 188.236 187.942 188.362 187.229 187.805L180.741 182.736C180.028 182.179 179.901 181.149 180.458 180.436L203.434 151.029C203.991 150.316 205.02 150.189 205.733 150.746Z" fill="#F9E2BC"/>
<path d="M194.788 164.16L201.939 169.747C203.722 171.14 204.038 173.713 202.645 175.496L136.081 260.693C134.689 262.476 132.115 262.792 130.333 261.399L123.182 255.812C121.399 254.42 121.083 251.846 122.476 250.064L189.039 164.866C190.432 163.084 193.006 162.768 194.788 164.16Z" fill="#19243D"/>
<path fill-rule="evenodd" clip-rule="evenodd" d="M68.6855 238.143L118.279 199.466C118.701 199.137 119.127 198.812 119.556 198.492L145.518 179.16C152.595 173.89 161.704 172.173 170.214 174.504L180.488 177.319L208.701 170.064C211.592 169.32 214.537 171.061 215.281 173.952C215.35 174.221 215.399 174.496 215.426 174.774C215.804 178.658 214.071 182.447 210.884 184.701L202.395 190.705C207.132 192.993 209.117 198.688 206.829 203.425C206.179 204.77 205.222 205.943 204.035 206.85L198.848 210.814C202.691 213.197 203.875 218.244 201.492 222.087C200.944 222.971 200.233 223.742 199.396 224.36L191.878 229.909C192.834 234.756 190.388 239.635 185.934 241.771L184.815 242.308C179.094 245.052 172.839 246.503 166.495 246.56L129.417 246.894L95.6088 285.123L68.6855 238.143Z" fill="#FFB391"/>
<path fill-rule="evenodd" clip-rule="evenodd" d="M162.14 184.277L153.728 188.748L156.243 184.411C158.113 181.188 161.431 179.075 165.142 178.743L180.074 177.409L162.14 184.277Z" fill="#FF9B6F"/>
<path d="M180.074 177.409L161.798 184.703" stroke="#18233D" stroke-width="1.3" stroke-linecap="round"/>
<path fill-rule="evenodd" clip-rule="evenodd" d="M169.818 182.098L166.545 181.984C164.62 181.917 162.763 182.7 161.467 184.125L160.333 185.373L169.818 182.098Z" fill="#18233D"/>
<path d="M202.685 190.457L188.009 197.877" stroke="#18233D" stroke-width="1.3" stroke-linecap="round"/>
<path d="M199.1 210.523L191.98 214.173" stroke="#18233D" stroke-width="1.3" stroke-linecap="round"/>
<path d="M192.687 229.048L185.566 232.699" stroke="#18233D" stroke-width="1.3" stroke-linecap="round"/>
<path fill-rule="evenodd" clip-rule="evenodd" d="M-6.31418e-06 291.687L88.7392 220.33C107.368 233.514 116.955 248.284 117.499 264.639L98.675 291.687L-6.31418e-06 291.687Z" fill="#F9E2BC"/>
</svg>
