<svg width="48" height="48" viewBox="0 0 48 48" fill="none" xmlns="http://www.w3.org/2000/svg">
<path d="M39 30L36.5 32.5L38 36L34 34L30 36L31.5 32.5L29 30H32L34 27L36 30H39Z" fill="#E1E7F7"/>
<path d="M19 30L16.5 32.5L18 36L14 34L10 36L11.5 32.5L9 30H12L14 27L16 30H19Z" fill="#E1E7F7"/>
<path d="M32 15L28 19L30 26L24 22L18 26L20 19L16 15H21L24 10L27 15H32Z" fill="#FFDF64"/>
<path d="M44 3.99998V5.99998C44.001 6.2195 43.9287 6.43309 43.7947 6.60696C43.6607 6.78082 43.4725 6.90505 43.26 6.95998C43.1764 6.98861 43.0884 7.00215 43 6.99998H5C4.91165 7.00215 4.82362 6.98861 4.74 6.95998C4.52746 6.90505 4.3393 6.78082 4.20528 6.60696C4.07126 6.43309 3.99902 6.2195 4 5.99998V3.99998C3.99902 3.78046 4.07126 3.56687 4.20528 3.39301C4.3393 3.21914 4.52746 3.09492 4.74 3.03998C4.82362 3.01135 4.91165 2.99781 5 2.99998H43C43.0884 2.99781 43.1764 3.01135 43.26 3.03998C43.4725 3.09492 43.6607 3.21914 43.7947 3.39301C43.9287 3.56687 44.001 3.78046 44 3.99998Z" fill="#E1E7F7"/>
<path d="M4.74 3.04C4.52746 3.09493 4.3393 3.21916 4.20528 3.39303C4.07125 3.56689 3.99902 3.78048 4 4V6C3.99902 6.21952 4.07125 6.43311 4.20528 6.60697C4.3393 6.78084 4.52746 6.90507 4.74 6.96L4.73 7C4.39 8.2 3.74 9 3 9C1.9 9 1 7.21 1 5C1 2.79 1.9 1 3 1C3.74 1 4.39 1.8 4.73 3L4.74 3.04Z" fill="#FFDF64"/>
<path d="M45 1C46.1 1 47 2.79 47 5C47 7.21 46.1 9 45 9C44.26 9 43.61 8.2 43.27 7L43.26 6.96C43.4725 6.90507 43.6607 6.78084 43.7947 6.60697C43.9287 6.43311 44.001 6.21952 44 6V4C44.001 3.78048 43.9287 3.56689 43.7947 3.39303C43.6607 3.21916 43.4725 3.09493 43.26 3.04L43.27 3C43.61 1.8 44.26 1 45 1Z" fill="#FFDF64"/>
<path d="M9 30L11.5 32.5L10 36L14 34L18 36L16.5 32.5L19 30H16L14 27L12 30H9ZM24 10L21 15H16L20 19L18 26L24 22L30 26L28 19L32 15H27L24 10ZM39 30H36L34 27L32 30H29L31.5 32.5L30 36L34 34L38 36L36.5 32.5L39 30ZM42 7V47L24 37L6 47V7H42Z" fill="#BB938B"/>
<path d="M43.26 4.96C43.1764 4.98863 43.0884 5.00217 43 5H5C4.91165 5.00217 4.82362 4.98863 4.74 4.96C4.52746 4.90507 4.3393 4.78084 4.20528 4.60697C4.07126 4.43311 3.99902 4.21952 4 4V6C3.99902 6.21952 4.07126 6.43311 4.20528 6.60697C4.3393 6.78084 4.52746 6.90507 4.74 6.96C4.82362 6.98863 4.91165 7.00217 5 7H43C43.0884 7.00217 43.1764 6.98863 43.26 6.96C43.4725 6.90507 43.6607 6.78084 43.7947 6.60697C43.9287 6.43311 44.001 6.21952 44 6V4C44.001 4.21952 43.9287 4.43311 43.7947 4.60697C43.6607 4.78084 43.4725 4.90507 43.26 4.96Z" fill="#C7CCF0"/>
<path d="M6 47L24 37L42 47V7H6V47ZM7.5 8.5H40.5V44.451L24.729 35.689C24.506 35.565 24.2551 35.4999 24 35.4999C23.7449 35.4999 23.494 35.565 23.271 35.689L7.5 44.451V8.5Z" fill="#FFCE54"/>
<path d="M27 15L24 10V18L27 15Z" fill="#FFDF64"/>
<path d="M24 10L21 15L24 18V10Z" fill="#FFCE54"/>
<path d="M21 15H16L24 18L21 15Z" fill="#FFDF64"/>
<path d="M32 15H27L24 18L32 15Z" fill="#FFCE54"/>
<path d="M28 19L32 15L24 18L28 19Z" fill="#FFB844"/>
<path d="M24 22L30 26L24 18V22Z" fill="#FFB844"/>
<path d="M24 18L30 26L28 19L24 18Z" fill="#FFCE54"/>
<path d="M18 26L24 22V18L18 26Z" fill="#FFCE54"/>
<path d="M20 19L18 26L24 18L20 19Z" fill="#FFB844"/>
<path d="M16 15L20 19L24 18L16 15Z" fill="#FFCE54"/>
<path d="M36 30L34 27V32L36 30Z" fill="white"/>
<path d="M34 27L32 30L34 32V27Z" fill="#F7F7FF"/>
<path d="M34 32L38 36L36.5 32.5L34 32Z" fill="#F7F7FF"/>
<path d="M32 30H29L34 32L32 30Z" fill="#E1E7F7"/>
<path d="M36.5 32.5L39 30L34 32L36.5 32.5Z" fill="#E1E7F7"/>
<path d="M39 30H36L34 32L39 30Z" fill="#F7F7FF"/>
<path d="M34 34L38 36L34 32V34Z" fill="#E1E7F7"/>
<path d="M29 30L31.5 32.5L34 32L29 30Z" fill="#D3D9F2"/>
<path d="M30 36L34 34V32L30 36Z" fill="#F7F7FF"/>
<path d="M31.5 32.5L30 36L34 32L31.5 32.5Z" fill="#E1E7F7"/>
<path d="M16 30L14 27V32L16 30Z" fill="white"/>
<path d="M14 27L12 30L14 32V27Z" fill="#F7F7FF"/>
<path d="M14 32L18 36L16.5 32.5L14 32Z" fill="#F7F7FF"/>
<path d="M12 30H9L14 32L12 30Z" fill="#E1E7F7"/>
<path d="M16.5 32.5L19 30L14 32L16.5 32.5Z" fill="#E1E7F7"/>
<path d="M19 30H16L14 32L19 30Z" fill="#F7F7FF"/>
<path d="M14 34L18 36L14 32V34Z" fill="#E1E7F7"/>
<path d="M9 30L11.5 32.5L14 32L9 30Z" fill="#D3D9F2"/>
<path d="M10 36L14 34V32L10 36Z" fill="#F7F7FF"/>
<path d="M11.5 32.5L10 36L14 32L11.5 32.5Z" fill="#E1E7F7"/>
<path d="M23.682 4.5C23.682 4.63261 23.7347 4.75979 23.8284 4.85355C23.9222 4.94732 24.0494 5 24.182 5H39.182C39.3146 5 39.4418 4.94732 39.5356 4.85355C39.6293 4.75979 39.682 4.63261 39.682 4.5C39.682 4.36739 39.6293 4.24021 39.5356 4.14645C39.4418 4.05268 39.3146 4 39.182 4H24.182C24.0494 4 23.9222 4.05268 23.8284 4.14645C23.7347 4.24021 23.682 4.36739 23.682 4.5Z" fill="#F6FAFD"/>
<path d="M40.682 4.5C40.682 4.63261 40.7347 4.75979 40.8284 4.85355C40.9222 4.94732 41.0494 5 41.182 5H42.182C42.3146 5 42.4418 4.94732 42.5356 4.85355C42.6293 4.75979 42.682 4.63261 42.682 4.5C42.682 4.36739 42.6293 4.24021 42.5356 4.14645C42.4418 4.05268 42.3146 4 42.182 4H41.182C41.0494 4 40.9222 4.05268 40.8284 4.14645C40.7347 4.24021 40.682 4.36739 40.682 4.5Z" fill="#F6FAFD"/>
<path d="M38.3013 14.3109C38.9423 13.6694 38.738 12.426 37.845 11.5335C36.9519 10.6411 35.7083 10.4377 35.0673 11.0791C34.4263 11.7206 34.6306 12.9641 35.5236 13.8565C36.4167 14.7489 37.6603 14.9524 38.3013 14.3109Z" fill="#F6FAFD"/>
<path d="M38.4934 17.5192C38.8155 17.1969 38.713 16.5724 38.2645 16.1242C37.816 15.676 37.1914 15.574 36.8693 15.8963C36.5472 16.2186 36.6497 16.8432 37.0982 17.2913C37.5467 17.7395 38.1713 17.8415 38.4934 17.5192Z" fill="#F6FAFD"/>
<path d="M7.83341 4.6137C7.99464 4.45236 7.94357 4.13991 7.71933 3.91582C7.49509 3.69174 7.1826 3.64088 7.02137 3.80222C6.86014 3.96357 6.91122 4.27602 7.13546 4.5001C7.3597 4.72418 7.67218 4.77504 7.83341 4.6137Z" fill="#F6FAFD"/>
<path d="M32 14H27.566L24.857 9.48502C24.7616 9.3458 24.6337 9.23193 24.4843 9.15325C24.335 9.07457 24.1688 9.03345 24 9.03345C23.8312 9.03345 23.665 9.07457 23.5157 9.15325C23.3663 9.23193 23.2384 9.3458 23.143 9.48502L20.434 14H16C15.8023 14.0001 15.609 14.0587 15.4445 14.1686C15.2801 14.2785 15.152 14.4347 15.0763 14.6174C15.0007 14.8001 14.9808 15.0011 15.0194 15.1951C15.058 15.389 15.1532 15.5672 15.293 15.707L18.877 19.291L17.038 25.726C16.9818 25.9229 16.9874 26.1322 17.054 26.3258C17.1206 26.5194 17.2451 26.6879 17.4105 26.8085C17.5759 26.9291 17.7744 26.996 17.979 27.0002C18.1837 27.0044 18.3848 26.9457 18.555 26.832L24 23.2L29.445 26.83C29.6152 26.9437 29.8163 27.0024 30.021 26.9982C30.2256 26.994 30.4241 26.9271 30.5895 26.8065C30.7549 26.6859 30.8794 26.5174 30.946 26.3238C31.0126 26.1302 31.0182 25.9209 30.962 25.724L29.123 19.289L32.707 15.705C32.8461 15.5651 32.9407 15.3871 32.9789 15.1935C33.0171 14.9998 32.9971 14.7993 32.9215 14.617C32.8459 14.4347 32.7181 14.2788 32.5541 14.1691C32.3901 14.0593 32.1973 14.0005 32 14ZM27.293 18.293C27.1668 18.4191 27.0766 18.5766 27.0317 18.7493C26.9869 18.9219 26.989 19.1035 27.038 19.275L28.291 23.659L24.555 21.168C24.3907 21.0584 24.1975 20.9999 24 20.9999C23.8025 20.9999 23.6093 21.0584 23.445 21.168L19.709 23.659L20.962 19.275C21.011 19.1035 21.0131 18.9219 20.9683 18.7493C20.9234 18.5766 20.8332 18.4191 20.707 18.293L18.414 16H21C21.1726 16 21.3422 15.9553 21.4923 15.8703C21.6425 15.7853 21.7681 15.6629 21.857 15.515L24 11.944L26.143 15.515C26.2319 15.6629 26.3575 15.7853 26.5077 15.8703C26.6578 15.9553 26.8274 16 27 16H29.586L27.293 18.293Z" fill="black"/>
<path d="M45 0C44.4416 0.0529873 43.9117 0.271722 43.4785 0.628105C43.0454 0.984489 42.7286 1.46224 42.569 2H39V4H43V6H5V4H37V2H5.431C5.27139 1.46224 4.95464 0.984489 4.52146 0.628105C4.08828 0.271722 3.55844 0.0529873 3 0C1.29 0 0 2.149 0 5C0 7.851 1.29 10 3 10C3.55834 9.94708 4.0881 9.72836 4.52113 9.37195C4.95417 9.01554 5.27069 8.53774 5.43 8H42.57C42.7293 8.53774 43.0458 9.01554 43.4789 9.37195C43.9119 9.72836 44.4417 9.94708 45 10C46.71 10 48 7.851 48 5C48 2.149 46.71 0 45 0ZM3 8C2.751 8 2 6.936 2 5C2 3.064 2.751 2 3 2C3.063 2 3.3 2.176 3.534 2.65C3.19192 3.01643 3.00115 3.49872 3 4V6C3.00155 6.50121 3.19226 6.98336 3.534 7.35C3.3 7.824 3.063 8 3 8ZM45 8C44.937 8 44.7 7.824 44.466 7.35C44.8081 6.98357 44.9988 6.50128 45 6V4C44.9988 3.49872 44.8081 3.01643 44.466 2.65C44.7 2.176 44.937 2 45 2C45.249 2 46 3.064 46 5C46 6.936 45.249 8 45 8Z" fill="black"/>
<path d="M7 10H5V35H7V10Z" fill="black"/>
<path d="M41 45.3L24.485 36.126C24.3366 36.0437 24.1697 36.0005 24 36.0005C23.8303 36.0005 23.6634 36.0437 23.515 36.126L7 45.3V37H5V47C5.00009 47.174 5.0456 47.345 5.13202 47.4961C5.21844 47.6471 5.34279 47.773 5.49278 47.8613C5.64276 47.9496 5.81318 47.9972 5.9872 47.9994C6.16122 48.0016 6.33281 47.9584 6.485 47.874L24 38.144L41.515 47.874C41.6672 47.9584 41.8388 48.0016 42.0128 47.9994C42.1868 47.9972 42.3572 47.9496 42.5072 47.8613C42.6572 47.773 42.7816 47.6471 42.868 47.4961C42.9544 47.345 42.9999 47.174 43 47V14H41V45.3Z" fill="black"/>
<path d="M43 10H41V12H43V10Z" fill="black"/>
<path d="M13.168 26.445L11.465 29H9C8.80225 29.0001 8.60895 29.0588 8.44454 29.1686C8.28013 29.2785 8.15199 29.4347 8.07632 29.6174C8.00065 29.8001 7.98085 30.0011 8.01942 30.1951C8.05798 30.389 8.15319 30.5672 8.293 30.707L10.314 32.729L9.081 35.606C8.9985 35.7946 8.97617 36.0039 9.01704 36.2056C9.05792 36.4073 9.16001 36.5914 9.3094 36.7329C9.45879 36.8745 9.64819 36.9664 9.85178 36.9963C10.0554 37.0262 10.2632 36.9926 10.447 36.9L14 35.118L17.553 36.9C17.6922 36.9677 17.8452 37.002 18 37C18.1655 37 18.3284 36.9589 18.4741 36.8805C18.6198 36.802 18.7437 36.6886 18.8348 36.5505C18.9259 36.4123 18.9812 36.2537 18.9959 36.0889C19.0106 35.924 18.9842 35.7581 18.919 35.606L17.686 32.729L19.707 30.707C19.8468 30.5672 19.942 30.389 19.9806 30.1951C20.0192 30.0011 19.9993 29.8001 19.9237 29.6174C19.848 29.4347 19.7199 29.2785 19.5555 29.1686C19.391 29.0588 19.1978 29.0001 19 29H16.535L14.835 26.445C14.7383 26.3151 14.6126 26.2096 14.4679 26.1369C14.3232 26.0642 14.1634 26.0264 14.0015 26.0264C13.8396 26.0264 13.6798 26.0642 13.5351 26.1369C13.3904 26.2096 13.2647 26.3151 13.168 26.445ZM16 31H16.586L15.793 31.793C15.6519 31.9343 15.5563 32.1145 15.5185 32.3106C15.4807 32.5066 15.5025 32.7095 15.581 32.893L16.006 33.884L14.447 33.104C14.3082 33.0347 14.1552 32.9986 14 32.9986C13.8448 32.9986 13.6918 33.0347 13.553 33.104L11.994 33.884L12.419 32.893C12.4975 32.7095 12.5193 32.5066 12.4815 32.3106C12.4437 32.1145 12.3481 31.9343 12.207 31.793L11.414 31H12C12.1646 31.0001 12.3266 30.9595 12.4718 30.8818C12.6169 30.8042 12.7407 30.692 12.832 30.555L14 28.8L15.168 30.552C15.259 30.6895 15.3826 30.8024 15.5277 30.8805C15.6729 30.9587 15.8351 30.9997 16 31Z" fill="black"/>
<path d="M39.924 29.617C39.8483 29.4343 39.72 29.2782 39.5556 29.1684C39.3911 29.0585 39.1978 28.9999 39 29H36.535L34.835 26.445C34.7383 26.3156 34.6127 26.2106 34.4683 26.1383C34.3238 26.066 34.1645 26.0283 34.003 26.0283C33.8415 26.0283 33.6822 26.066 33.5378 26.1383C33.3933 26.2106 33.2678 26.3156 33.171 26.445L31.465 29H29C28.8022 29 28.609 29.0587 28.4445 29.1686C28.2801 29.2785 28.152 29.4346 28.0763 29.6173C28.0007 29.8 27.9808 30.0011 28.0194 30.195C28.058 30.389 28.1532 30.5671 28.293 30.707L30.314 32.729L29.081 35.606C28.9985 35.7945 28.9762 36.0039 29.017 36.2055C29.0579 36.4072 29.16 36.5914 29.3094 36.7329C29.4588 36.8744 29.6482 36.9664 29.8518 36.9963C30.0554 37.0262 30.2632 36.9926 30.447 36.9L34 35.118L37.553 36.9C37.6922 36.9677 37.8452 37.0019 38 37C38.1655 37 38.3284 36.9589 38.4741 36.8804C38.6198 36.802 38.7437 36.6886 38.8348 36.5504C38.9259 36.4122 38.9812 36.2536 38.9959 36.0888C39.0106 35.924 38.9842 35.7581 38.919 35.606L37.686 32.729L39.707 30.707C39.8469 30.5671 39.9422 30.3889 39.9809 30.1949C40.0195 30.0009 39.9997 29.7998 39.924 29.617ZM35.581 32.894L36.006 33.885L34.447 33.105C34.3082 33.0356 34.1552 32.9995 34 32.9995C33.8448 32.9995 33.6918 33.0356 33.553 33.105L31.994 33.885L32.419 32.894C32.4975 32.7104 32.5193 32.5076 32.4815 32.3115C32.4437 32.1155 32.3481 31.9352 32.207 31.794L31.414 31H32C32.1646 31 32.3266 30.9594 32.4718 30.8818C32.6169 30.8042 32.7407 30.6919 32.832 30.555L34 28.8L35.168 30.552C35.259 30.6895 35.3826 30.8023 35.5277 30.8805C35.6729 30.9586 35.8351 30.9997 36 31H36.586L35.793 31.793C35.6517 31.9343 35.556 32.1147 35.5182 32.311C35.4804 32.5072 35.5023 32.7103 35.581 32.894Z" fill="black"/>
</svg>
