<svg width="100" height="100" viewBox="0 0 100 100" fill="none" xmlns="http://www.w3.org/2000/svg">
<g clip-path="url(#clip0_503_7415)">
<path d="M98.0469 92.8834H94.0822V87.785C94.0822 82.1504 90.4535 77.3477 85.4103 75.5906C88.4543 73.0566 90.3951 69.2402 90.3951 64.9791C90.3951 57.3678 84.2027 51.1754 76.5914 51.1754C72.8187 51.1754 69.3947 52.6967 66.9006 55.1582C66.0062 46.623 58.768 39.9482 50 39.9482C41.232 39.9482 33.9937 46.623 33.0994 55.1582C30.6053 52.6967 27.1812 51.1754 23.4086 51.1754C15.7973 51.1754 9.60488 57.3678 9.60488 64.9791C9.60488 69.2402 11.5457 73.0564 14.5896 75.5906C9.54648 77.3477 5.91758 82.1506 5.91758 87.785V92.8834H1.95312C0.874414 92.8834 0 93.7578 0 94.8365C0 95.9152 0.874414 96.7896 1.95312 96.7896H41.1705C42.2492 96.7896 43.1236 95.9152 43.1236 94.8365C43.1236 93.7578 42.2492 92.8834 41.1705 92.8834H32.2328V85.8867C32.2328 79.2967 37.5941 73.9355 44.184 73.9355H55.8158C62.4057 73.9355 67.767 79.2969 67.767 85.8867V92.8834H58.8291C57.7506 92.8834 56.876 93.7578 56.876 94.8365C56.876 95.9152 57.7506 96.7896 58.8291 96.7896H98.0469C99.1254 96.7896 100 95.9152 100 94.8365C100 93.7578 99.1254 92.8834 98.0469 92.8834ZM76.5914 55.0816C82.0488 55.0816 86.4889 59.5215 86.4889 64.9791C86.4889 70.4367 82.049 74.8766 76.5914 74.8766C71.1338 74.8766 66.6939 70.4367 66.6939 64.9791C66.6939 59.5215 71.134 55.0816 76.5914 55.0816ZM50 43.8545C57.2164 43.8545 63.0875 49.7256 63.0875 56.9418C63.0875 64.158 57.2164 70.0293 50 70.0293C42.7836 70.0293 36.9127 64.1582 36.9127 56.942C36.9127 49.7258 42.7836 43.8545 50 43.8545ZM13.5111 64.9791C13.5111 59.5217 17.951 55.0816 23.4086 55.0816C28.8662 55.0816 33.3061 59.5215 33.3061 64.9791C33.3061 70.4367 28.8662 74.8766 23.4086 74.8766C17.951 74.8766 13.5111 70.4365 13.5111 64.9791ZM9.82383 87.785C9.82383 82.8211 13.8623 78.7828 18.8262 78.7828H27.9908C28.6742 78.7828 29.2723 78.8541 29.8902 79.0228C28.8883 81.101 28.3264 83.4295 28.3264 85.8869V92.8836H9.82383V87.785ZM34.2037 73.5725C35.5285 71.9117 36.4787 69.9396 36.9254 67.7855C37.8043 68.8436 38.809 69.7936 39.9162 70.6125C37.8018 71.2041 35.8643 72.224 34.2037 73.5725ZM60.0838 70.6125C61.191 69.7936 62.1957 68.8436 63.0746 67.7855C63.5213 69.9396 64.4717 71.9117 65.7963 73.5725C64.1357 72.2242 62.1984 71.2041 60.0838 70.6125ZM71.6734 92.8834V85.8867C71.6734 83.4295 71.1115 81.1008 70.1096 79.0228C70.7275 78.8541 71.3256 78.7828 72.009 78.7828H81.1738C86.1377 78.7828 90.176 82.8211 90.176 87.785V92.8834H71.6734Z" fill="#603813"/>
<path d="M51.0488 93.2129C50.3738 92.7625 49.4664 92.784 48.8109 93.2609C48.1551 93.7381 47.8633 94.6041 48.0898 95.3816C48.3147 96.1529 49.0098 96.7188 49.8106 96.7826C50.6342 96.8484 51.4277 96.3693 51.7559 95.6115C52.124 94.7621 51.8281 93.723 51.0488 93.2129Z" fill="#603813"/>
<path d="M28.1219 41.628C27.7127 41.628 27.3002 41.5459 26.9067 41.3792L22.4049 39.4719L17.9031 41.3792C16.8924 41.8075 15.7588 41.6778 14.8709 41.0327C13.983 40.3874 13.5096 39.3495 13.6045 38.2559L14.0272 33.3852L10.8221 29.6932C10.1026 28.8641 9.8756 27.7459 10.2149 26.7022C10.5541 25.6584 11.3949 24.8874 12.4645 24.6399L17.2272 23.5368L19.7483 19.3477C20.3143 18.4073 21.3074 17.8459 22.4051 17.8459C23.5026 17.8459 24.4959 18.4075 25.0617 19.3477L27.5828 23.5368L32.3459 24.6399C33.415 24.8875 34.2561 25.6584 34.5953 26.7024C34.9346 27.7463 34.7074 28.8643 33.9879 29.6932L30.783 33.3852L31.2057 38.2559C31.3006 39.3495 30.8272 40.3876 29.9391 41.0327C29.3967 41.4262 28.7633 41.628 28.1219 41.628ZM14.6494 28.143L17.5193 31.4493C17.866 31.8487 18.036 32.3715 17.9902 32.8985L17.6117 37.2602L21.643 35.5524C22.1299 35.3459 22.6799 35.3459 23.1668 35.5524L27.1981 37.2602L26.8195 32.8985C26.7738 32.3715 26.9438 31.8487 27.2904 31.4493L30.1604 28.143L25.8951 27.1551C25.3799 27.0358 24.935 26.7125 24.6623 26.2594L22.4047 22.5083L20.1473 26.2594C19.8746 26.7125 19.4297 27.0358 18.9145 27.1551L14.6494 28.143Z" fill="#603813"/>
<path d="M83.3123 41.628C82.9031 41.628 82.4908 41.546 82.0971 41.3792L77.5951 39.472L73.0936 41.3792C72.0826 41.8071 70.9492 41.678 70.0613 41.0327C69.1733 40.3876 68.6998 39.3497 68.7947 38.2562L69.2174 33.3855L66.0125 29.6935C65.2928 28.8642 65.066 27.746 65.4055 26.7022C65.7447 25.6585 66.5858 24.8876 67.6551 24.6401L72.4178 23.537L74.9387 19.3479C75.5045 18.4075 76.4977 17.8462 77.5955 17.8462C78.6934 17.8462 79.6863 18.4077 80.2524 19.3481L82.7734 23.537L87.5363 24.6401C88.6057 24.8878 89.4465 25.6587 89.7858 26.7026C90.125 27.7466 89.8979 28.8646 89.1785 29.6935L85.9736 33.3855L86.3963 38.2562C86.491 39.3497 86.0178 40.3878 85.1297 41.0329C84.5871 41.4263 83.9535 41.628 83.3123 41.628ZM69.8397 28.1431L72.7096 31.4493C73.0563 31.8487 73.2262 32.3716 73.1805 32.8985L72.802 37.2603L76.8332 35.5524C77.3203 35.346 77.8701 35.3462 78.3572 35.5524L82.3885 37.2603L82.01 32.8987C81.9645 32.3718 82.1342 31.8489 82.4809 31.4495L85.3508 28.1433L81.0858 27.1554C80.5703 27.036 80.1256 26.7128 79.8527 26.2599L77.5951 22.5087L75.3377 26.2599C75.0651 26.713 74.6201 27.0362 74.1049 27.1556L69.8397 28.1431Z" fill="#603813"/>
<path d="M42.9322 31.6907C42.235 31.6907 41.5459 31.4714 40.9564 31.0431C39.9908 30.3415 39.4758 29.2126 39.5791 28.0235L40.1185 21.8065L36.0277 17.094C35.2453 16.1929 34.9984 14.9771 35.3672 13.8417C35.7359 12.7065 36.6504 11.8679 37.8133 11.5985L43.8928 10.1907L47.1109 4.84385C47.7264 3.82119 48.8066 3.21045 50 3.21045H50.0002C51.1937 3.21045 52.2738 3.82119 52.8893 4.84385L56.107 10.1905L62.1863 11.5983C63.3494 11.8677 64.2639 12.7063 64.6326 13.8417C65.0014 14.9769 64.7543 16.1929 63.9717 17.094L59.8812 21.8063L60.4209 28.0233C60.524 29.2124 60.0092 30.3413 59.0434 31.0429C58.0775 31.7442 56.8445 31.8853 55.7459 31.4196L50 28.9856L44.2541 31.42C43.8258 31.6015 43.3773 31.6907 42.9322 31.6907ZM50 24.9114C50.2592 24.9114 50.5184 24.963 50.7617 25.0661L56.4523 27.4769L55.918 21.32C55.8725 20.7931 56.0422 20.2702 56.3889 19.8708L60.44 15.2038L54.4195 13.8095C53.9041 13.6901 53.4594 13.3669 53.1865 12.9138L50 7.61846L46.8133 12.9136C46.5406 13.3667 46.0959 13.6899 45.5805 13.8093L39.5598 15.2036L43.6111 19.8706C43.9578 20.2698 44.1277 20.7929 44.082 21.3198L43.5477 27.4767L49.2381 25.0659C49.4816 24.963 49.7408 24.9114 50 24.9114Z" fill="#603813"/>
</g>
<defs>
<clipPath id="clip0_503_7415">
<rect width="100" height="100" fill="white"/>
</clipPath>
</defs>
</svg>
