<svg width="48" height="48" viewBox="0 0 48 48" fill="none" xmlns="http://www.w3.org/2000/svg">
<path d="M32 41L34 47H14L16 41H18H30H32Z" fill="#BB938B"/>
<path d="M27.3 8L27.15 7.85L27 8L28 13L24 10L20 13L21 8L18 5H21.6L14 1L16.37 22.29L18 37H30L31.69 22.31L33 11L27.3 8Z" fill="#F7F7FF"/>
<path d="M30 37H18V41H30V37Z" fill="#FEA740"/>
<path d="M30 5L27 8L28 13L24 10L20 13L21 8L18 5H22L24 1L26 5H30Z" fill="#FEA740"/>
<path d="M22 5H18L24 7L22 5Z" fill="#FFCE54"/>
<path d="M26 5L24 1V7L26 5Z" fill="#FFCE54"/>
<path d="M24 1L22 5L24 7V1Z" fill="#FFB844"/>
<path d="M30 5H26L24 7L30 5Z" fill="#FFB844"/>
<path d="M27 8L30 5L24 7L27 8Z" fill="#FF942C"/>
<path d="M21 8L20 13L24 7L21 8Z" fill="#FE792C"/>
<path d="M24 10L28 13L24 7V10Z" fill="#FF942C"/>
<path d="M24 7L28 13L27 8L24 7Z" fill="#FFB844"/>
<path d="M20 13L24 10V7L20 13Z" fill="#FEA740"/>
<path d="M18 5L21 8L24 7L18 5Z" fill="#FF942C"/>
<path d="M23 18H19V20H23V18Z" fill="#BB938B"/>
<path d="M29 18H25V20H29V18Z" fill="#BB938B"/>
<path d="M23 21H19V23H23V21Z" fill="#BB938B"/>
<path d="M29 21H25V23H29V21Z" fill="#BB938B"/>
<path d="M19.6 31.454L16.25 2.184L14 1L16.37 22.29L18 37H30L30.23 35H23.569C22.5876 34.9987 21.641 34.6367 20.9091 33.9829C20.1773 33.3291 19.7114 32.429 19.6 31.454Z" fill="#E1E7F7"/>
<path d="M31.69 22.31L33 11L31.81 10.374L28.414 35H30.23L31.69 22.31Z" fill="white"/>
<path d="M22 40C21.4696 40 20.9609 39.7893 20.5858 39.4142C20.2107 39.0391 20 38.5304 20 38V37H18V41H30V40H22Z" fill="#FE792C"/>
<path d="M19.954 45C19.6274 44.9995 19.3059 44.9191 19.0175 44.7657C18.7292 44.6123 18.4828 44.3906 18.2999 44.12C18.117 43.8494 18.0031 43.5381 17.9683 43.2133C17.9334 42.8886 17.9787 42.5602 18.1 42.257L18.6 41H16L14 47H34L33.333 45H19.954Z" fill="#603813"/>
<path d="M27.5 42H22.5C22.2239 42 22 42.2239 22 42.5C22 42.7761 22.2239 43 22.5 43H27.5C27.7761 43 28 42.7761 28 42.5C28 42.2239 27.7761 42 27.5 42Z" fill="#D7BCB6"/>
<path d="M30.5 42H29.5C29.2239 42 29 42.2239 29 42.5C29 42.7761 29.2239 43 29.5 43H30.5C30.7761 43 31 42.7761 31 42.5C31 42.2239 30.7761 42 30.5 42Z" fill="#D7BCB6"/>
<path d="M17.076 4.61707C17.0003 4.79984 16.9805 5.00097 17.0191 5.19499C17.0578 5.38902 17.1531 5.56722 17.293 5.70707L19.915 8.32907L19.02 12.8001C18.9794 12.9989 19.0002 13.2053 19.0797 13.392C19.1591 13.5786 19.2935 13.7367 19.465 13.8452C19.6364 13.9537 19.8368 14.0075 20.0395 13.9995C20.2422 13.9914 20.4377 13.9219 20.6 13.8001L24 11.2501L27.4 13.8001C27.5623 13.9219 27.7578 13.9914 27.9605 13.9995C28.1632 14.0075 28.3636 13.9537 28.535 13.8452C28.7065 13.7367 28.8409 13.5786 28.9203 13.392C28.9998 13.2053 29.0206 12.9989 28.98 12.8001L28.085 8.32507L30.707 5.70307C30.8454 5.56301 30.9395 5.3852 30.9772 5.19192C31.015 4.99865 30.9949 4.79852 30.9194 4.61664C30.8439 4.43476 30.7164 4.27922 30.5528 4.16953C30.3892 4.05984 30.1969 4.00089 30 4.00007H26.618L24.9 0.553068C24.8076 0.398092 24.6765 0.269764 24.5197 0.180647C24.3628 0.0915295 24.1854 0.0446777 24.005 0.0446777C23.8246 0.0446777 23.6472 0.0915295 23.4903 0.180647C23.3335 0.269764 23.2024 0.398092 23.11 0.553068L21.382 4.00007H18C17.8022 4.00002 17.6089 4.05861 17.4444 4.16843C17.28 4.27826 17.1517 4.43438 17.076 4.61707ZM22 6.00007C22.1858 6.00015 22.368 5.94846 22.5261 5.85078C22.6842 5.7531 22.8119 5.6133 22.895 5.44707L24 3.23607L25.105 5.44707C25.1881 5.6133 25.3158 5.7531 25.4739 5.85078C25.632 5.94846 25.8142 6.00015 26 6.00007H27.586L26.293 7.29307C26.1772 7.40919 26.0917 7.55202 26.0441 7.70897C25.9965 7.86592 25.9882 8.03217 26.02 8.19307L26.506 10.6261L24.6 9.20007C24.4269 9.07025 24.2164 9.00007 24 9.00007C23.7836 9.00007 23.5731 9.07025 23.4 9.20007L21.494 10.6291L21.98 8.20007C22.0118 8.03917 22.0035 7.87292 21.9559 7.71597C21.9083 7.55902 21.8228 7.41619 21.707 7.30007L20.414 6.00007H22Z" fill="black"/>
<path d="M28.74 9.88799L31.928 11.566L31.199 17.886L33.186 18.115L33.994 11.115C34.0172 10.9145 33.9792 10.7117 33.8849 10.5332C33.7907 10.3547 33.6446 10.2089 33.466 10.115L29.666 8.11499L28.74 9.88799Z" fill="black"/>
<path d="M17.9941 27.8891L16.0063 28.1099L16.2285 30.1106L18.2163 29.8898L17.9941 27.8891Z" fill="black"/>
<path d="M17.771 25.8901L15.2 2.76307L17.333 3.88507L18.265 2.11607L14.465 0.116074C14.3039 0.0310704 14.1227 -0.00832479 13.9408 0.00214073C13.759 0.0126062 13.5835 0.072535 13.4332 0.175459C13.2829 0.278382 13.1636 0.420392 13.0882 0.58616C13.0127 0.751928 12.9839 0.935158 13.005 1.11607L15.783 26.1161L17.771 25.8901Z" fill="black"/>
<path d="M34.949 46.684L32.949 40.684C32.8827 40.4848 32.7553 40.3116 32.585 40.1888C32.4146 40.066 32.21 40 32 40H31V37.06L32.955 20.114L30.968 19.884L29.109 36H18.9L18.443 31.889L16.456 32.11L17 37.053V40H16C15.79 40 15.5854 40.066 15.4151 40.1888C15.2447 40.3116 15.1174 40.4848 15.051 40.684L13.051 46.684C13.0009 46.8344 12.9873 46.9944 13.0112 47.1511C13.0352 47.3077 13.096 47.4564 13.1887 47.5849C13.2813 47.7135 13.4032 47.8181 13.5443 47.8903C13.6854 47.9625 13.8416 48.0001 14 48H34C34.1585 48.0001 34.3146 47.9625 34.4557 47.8903C34.5968 47.8181 34.7187 47.7135 34.8113 47.5849C34.904 47.4564 34.9648 47.3077 34.9888 47.1511C35.0127 46.9944 34.9991 46.8344 34.949 46.684ZM19 38H29V40H19V38ZM15.387 46L16.721 42H31.279L32.613 46H15.387Z" fill="black"/>
<path d="M23 18H19V20H23V18Z" fill="black"/>
<path d="M29 18H25V20H29V18Z" fill="black"/>
<path d="M23 21H19V23H23V21Z" fill="black"/>
<path d="M29 21H25V23H29V21Z" fill="black"/>
</svg>
