<svg width="48" height="48" viewBox="0 0 48 48" fill="none" xmlns="http://www.w3.org/2000/svg">
<g clip-path="url(#clip0_503_8086)">
<path d="M36 1L32 5H16L12 1H36Z" fill="#603813"/>
<path d="M26 11L25.86 11.12L24 9L22.14 11.12L22 11L16 5H32L26 11Z" fill="white"/>
<path d="M22.14 11.12L19.8 13.8L7 1H12L16 5L22 11L22.14 11.12Z" fill="#603813"/>
<path d="M41 1L28.2 13.8L25.86 11.12L26 11L32 5L36 1H41Z" fill="#603813"/>
<path d="M19.8 13.8L17 17L1 1H7L19.8 13.8Z" fill="#D7BCB6"/>
<path d="M47 1L31 17L28.2 13.8L41 1H47Z" fill="#D7BCB6"/>
<path d="M21 28L24 38L20.9 34.13L16 28H21Z" fill="#C7CCF0"/>
<path d="M24 38L27 28H32L27.1 34.13L24 38Z" fill="#C7CCF0"/>
<path d="M24 18L21 28H16L20.9 21.88L24 18Z" fill="#E1E7F7"/>
<path d="M24 18L27 28L24 38L21 28L24 18Z" fill="white"/>
<path d="M27.1 21.88L32 28H27L24 18L27.1 21.88Z" fill="#E1E7F7"/>
<path d="M17 17L20.9 21.88L16 28H11L7 19L17 17Z" fill="#FFF978"/>
<path d="M16 28L20.9 34.13L17 39L7 37L11 28H16Z" fill="#FFF978"/>
<path d="M27.1 34.13L31 39L24 47L17 39L20.9 34.13L24 38L27.1 34.13Z" fill="#FFF978"/>
<path d="M37 28L41 37L31 39L27.1 34.13L32 28H37Z" fill="#FFF978"/>
<path d="M41 19L37 28H32L27.1 21.88L31 17L41 19Z" fill="#FFF978"/>
<path d="M28.2 13.8L31 17L27.1 21.88L24 18L20.9 21.88L17 17L19.8 13.8L22.14 11.12L24 9L25.86 11.12L28.2 13.8Z" fill="#FFF978"/>
<path d="M20.9 21.88L17 17L7 19L18.382 25.026L20.9 21.88Z" fill="#FFDF64"/>
<path d="M18.382 25.026L7 19L11 28H16L18.382 25.026Z" fill="#FFCE54"/>
<path d="M18.379 30.976L7 37L17 39L20.9 34.13L18.379 30.976Z" fill="#FFCE54"/>
<path d="M16 28H11L7 37L18.379 30.976L16 28Z" fill="#FFDF64"/>
<path d="M20.9 34.13L17 39L24 47V38L20.9 34.13Z" fill="#FFDF64"/>
<path d="M24 38V47L31 39L27.1 34.13L24 38Z" fill="#FFF978"/>
<path d="M27.1 34.13L31 39L41 37L29.621 30.976L27.1 34.13Z" fill="#FFDF64"/>
<path d="M32 28L29.621 30.976L41 37L37 28H32Z" fill="#FFF978"/>
<path d="M29.618 25.026L41 19L31 17L27.1 21.88L29.618 25.026Z" fill="#FFF978"/>
<path d="M32 28H37L41 19L29.618 25.026L32 28Z" fill="#FFDF64"/>
<path d="M24 18V9L22.14 11.12L19.8 13.8L17 17L20.9 21.88L24 18Z" fill="#FFCE54"/>
<path d="M27.1 21.88L31 17L28.2 13.8L25.86 11.12L24 9V18L27.1 21.88Z" fill="#FFDF64"/>
<path d="M27 28L24 18L21 28L24 25L27 28Z" fill="#F7F7FF"/>
<path d="M24 31L21 28L24 38L27 28L24 31Z" fill="#F7F7FF"/>
<path d="M32.781 27.375L24.781 17.375C24.6838 17.2634 24.5637 17.1739 24.429 17.1127C24.2943 17.0514 24.148 17.0197 24 17.0197C23.852 17.0197 23.7057 17.0514 23.571 17.1127C23.4363 17.1739 23.3162 17.2634 23.219 17.375L15.219 27.375C15.077 27.5523 14.9996 27.7728 14.9996 28C14.9996 28.2272 15.077 28.4476 15.219 28.625L23.219 38.625C23.3127 38.7421 23.4315 38.8367 23.5667 38.9017C23.7019 38.9667 23.85 39.0004 24 39.0004C24.15 39.0004 24.2981 38.9667 24.4333 38.9017C24.5685 38.8367 24.6873 38.7421 24.781 38.625L32.781 28.625C32.923 28.4476 33.0004 28.2272 33.0004 28C33.0004 27.7728 32.923 27.5523 32.781 27.375ZM24 38L16 28L24 18L32 28L24 38Z" fill="#FB9881"/>
<path d="M32 1L31.553 1.894C31.3869 2.22631 31.1316 2.50581 30.8156 2.70116C30.4996 2.89651 30.1355 2.99999 29.764 3H18.236C17.8645 2.99999 17.5004 2.89651 17.1844 2.70116C16.8684 2.50581 16.6131 2.22631 16.447 1.894L16 1H12L16 5H32L36 1H32Z" fill="#603813"/>
<path d="M19.5 8.5L17 11L19.8 13.8L22.14 11.12L22 11L19.5 8.5Z" fill="#603813"/>
<path d="M28.529 8.47095L26 10.9999L25.86 11.1199L28.2 13.7999L31.176 10.8239L28.529 8.47095Z" fill="#603813"/>
<path d="M14 14L17 17L19.8 13.8L17 11L14 14Z" fill="#BB938B"/>
<path d="M28.2 13.8L31 17L34.353 13.647L31.176 10.824L28.2 13.8Z" fill="#BB938B"/>
<path d="M16.682 3.5C16.682 3.776 16.85 4 17.057 4H28.307C28.514 4 28.682 3.776 28.682 3.5C28.682 3.224 28.514 3 28.307 3H17.057C16.85 3 16.682 3.224 16.682 3.5Z" fill="#C3623B"/>
<path d="M29.682 3.5C29.682 3.63261 29.7347 3.75979 29.8284 3.85355C29.9222 3.94732 30.0494 4 30.182 4H31.182C31.3146 4 31.4418 3.94732 31.5356 3.85355C31.6293 3.75979 31.682 3.63261 31.682 3.5C31.682 3.36739 31.6293 3.24021 31.5356 3.14645C31.4418 3.05268 31.3146 3 31.182 3H30.182C30.0494 3 29.9222 3.05268 29.8284 3.14645C29.7347 3.24021 29.682 3.36739 29.682 3.5Z" fill="#C3623B"/>
<path d="M28.4936 25.5186C28.8157 25.1963 28.7132 24.5718 28.2647 24.1236C27.8163 23.6754 27.1916 23.5734 26.8695 23.8957C26.5475 24.218 26.6499 24.8426 27.0984 25.2907C27.5469 25.7389 28.1716 25.8409 28.4936 25.5186Z" fill="#F6FAFD"/>
<path d="M27.8334 26.6136C27.9946 26.4522 27.9435 26.1398 27.7193 25.9157C27.4951 25.6916 27.1826 25.6408 27.0213 25.8021C26.8601 25.9634 26.9112 26.2759 27.1354 26.5C27.3597 26.7241 27.6722 26.7749 27.8334 26.6136Z" fill="#F6FAFD"/>
<path d="M24.781 17.375C24.6838 17.2634 24.5637 17.1739 24.429 17.1127C24.2943 17.0514 24.148 17.0197 24 17.0197C23.852 17.0197 23.7057 17.0514 23.571 17.1127C23.4363 17.1739 23.3162 17.2634 23.219 17.375L15.219 27.375C15.077 27.5523 14.9996 27.7728 14.9996 28C14.9996 28.2272 15.077 28.4476 15.219 28.625L23.219 38.625C23.3127 38.7421 23.4315 38.8367 23.5667 38.9017C23.7019 38.9667 23.85 39.0004 24 39.0004C24.15 39.0004 24.2981 38.9667 24.4333 38.9017C24.5685 38.8367 24.6873 38.7421 24.781 38.625L32.781 28.625C32.923 28.4476 33.0004 28.2272 33.0004 28C33.0004 27.7728 32.923 27.5523 32.781 27.375L24.781 17.375ZM24 34.52L22.044 28L24 21.48L25.956 28L24 34.52ZM20.256 27H18.08L21.561 22.649L20.256 27ZM20.256 29L21.556 33.351L18.08 29H20.256ZM27.744 29H29.92L26.439 33.351L27.744 29ZM27.744 27L26.444 22.649L29.92 27H27.744Z" fill="black"/>
<path d="M47.924 0.617C47.8483 0.434314 47.72 0.278189 47.5556 0.168365C47.3911 0.0585414 47.1978 -4.9735e-05 47 3.16771e-08H1C0.80225 4.2256e-05 0.608952 0.0587141 0.444542 0.168598C0.280132 0.278483 0.151993 0.434646 0.0763226 0.617346C0.000652529 0.800045 -0.0191504 1.00108 0.0194171 1.19503C0.0579847 1.38898 0.153191 1.56715 0.293001 1.707L3.293 4.707L4.707 3.293L3.414 2H6.586L18.431 13.845L16.951 15.537L10.708 9.294L9.294 10.708L14.972 16.386L6.8 18.02C6.65305 18.0494 6.51458 18.1114 6.39484 18.2015C6.27509 18.2917 6.17713 18.4075 6.1082 18.5406C6.03927 18.6737 6.00112 18.8205 5.99659 18.9703C5.99205 19.1201 6.02124 19.269 6.082 19.406L9.9 28L6.086 36.594C6.02523 36.7307 5.99592 36.8793 6.00021 37.0289C6.00451 37.1784 6.04231 37.3251 6.11083 37.4581C6.17934 37.5911 6.27683 37.7071 6.39611 37.7974C6.51538 37.8877 6.6534 37.9501 6.8 37.98L16.467 39.914L23.243 47.658C23.3369 47.7654 23.4526 47.8515 23.5825 47.9105C23.7124 47.9695 23.8534 48 23.996 48C24.1386 48 24.2796 47.9695 24.4095 47.9105C24.5394 47.8515 24.6551 47.7654 24.749 47.658L31.525 39.914L41.2 37.98C41.347 37.9506 41.4854 37.8886 41.6052 37.7985C41.7249 37.7083 41.8229 37.5925 41.8918 37.4594C41.9607 37.3263 41.9989 37.1795 42.0034 37.0297C42.0079 36.8799 41.9788 36.731 41.918 36.594L38.1 28L41.919 19.406C41.9798 19.2689 42.0089 19.12 42.0043 18.9701C41.9997 18.8203 41.9615 18.6734 41.8925 18.5403C41.8234 18.4072 41.7253 18.2913 41.6055 18.2013C41.4856 18.1112 41.347 18.0493 41.2 18.02L33.032 16.386L47.707 1.707C47.8469 1.56716 47.9422 1.38895 47.9809 1.19492C48.0195 1.0009 47.9997 0.799775 47.924 0.617ZM24.753 8.341C24.6562 8.2384 24.5395 8.15665 24.4101 8.10078C24.2806 8.0449 24.141 8.01608 24 8.01608C23.859 8.01608 23.7194 8.0449 23.5899 8.10078C23.4605 8.15665 23.3438 8.2384 23.247 8.341L22.084 9.67L14.414 2H33.586L25.916 9.67L24.753 8.341ZM9.414 2H11.586L20.765 11.179L19.751 12.337L9.414 2ZM36.35 27H34V29H36.35L39.579 36.265L31.4 37.9L29.38 35.373L27.817 36.623L29.7 38.972L24 45.481L18.3 38.972L20.178 36.625L18.615 35.375L16.6 37.9L8.421 36.265L11.65 29H14V27H11.65L8.421 19.735L16.6 18.1L18.621 20.627L20.184 19.378L18.3 17.029L24 10.519L29.7 17.029L27.822 19.375L29.385 20.625L31.4 18.1L39.578 19.735L36.35 27ZM31.05 15.537L29.57 13.845L36.708 6.707L35.293 5.293L28.249 12.337L27.235 11.179L36.414 2H38.586L37.293 3.293L38.707 4.707L41.414 2H44.586L31.05 15.537Z" fill="black"/>
<path d="M6.70613 5.29191L5.29209 6.7063L7.29133 8.70505L8.70537 7.29066L6.70613 5.29191Z" fill="black"/>
<path d="M29 4H20V6H29V4Z" fill="black"/>
</g>
<defs>
<clipPath id="clip0_503_8086">
<rect width="48" height="48" fill="white"/>
</clipPath>
</defs>
</svg>
