<svg width="48" height="48" viewBox="0 0 48 48" fill="none" xmlns="http://www.w3.org/2000/svg">
<g clip-path="url(#clip0_503_7852)">
<path d="M24 38.9999L20 46.9999L18 42.9999L14 44.9999L17.82 36.4099C17.9226 36.561 18.0398 36.7017 18.17 36.8299C18.5837 37.239 19.0816 37.553 19.6291 37.7499C20.1766 37.9468 20.7605 38.0219 21.34 37.9699C22.0694 38.6294 23.0167 38.9963 24 38.9999Z" fill="#FFB37D"/>
<path d="M30.18 36.4099L34 44.9999L30 42.9999L28 46.9999L24 38.9999C24.9833 38.9963 25.9306 38.6294 26.66 37.9699C27.2395 38.0219 27.8234 37.9468 28.3709 37.7499C28.9184 37.553 29.4163 37.239 29.83 36.8299C29.9602 36.7017 30.0774 36.561 30.18 36.4099Z" fill="#FFB37D"/>
<path d="M24 35C26.2091 35 28 33.2091 28 31C28 28.7909 26.2091 27 24 27C21.7909 27 20 28.7909 20 31C20 33.2091 21.7909 35 24 35Z" fill="#BB938B"/>
<path d="M31.45 28.9999C31.81 29.6049 32.0001 30.2959 32.0001 30.9999C32.0001 31.7039 31.81 32.3949 31.45 32.9999C31.313 33.2358 31.1522 33.4569 30.97 33.6599C31.0592 34.6431 30.7774 35.624 30.18 36.4099C30.0774 36.5611 29.9602 36.7017 29.83 36.8299C29.4163 37.239 28.9184 37.553 28.3709 37.7499C27.8234 37.9468 27.2395 38.0219 26.66 37.9699C25.9326 38.6326 24.984 38.9998 24 38.9998C23.016 38.9998 22.0674 38.6326 21.34 37.9699C20.7605 38.0219 20.1766 37.9468 19.6291 37.7499C19.0816 37.553 18.5837 37.239 18.17 36.8299C18.0398 36.7017 17.9226 36.5611 17.82 36.4099C17.2226 35.624 16.9408 34.6431 17.03 33.6599C16.8478 33.4569 16.687 33.2358 16.55 32.9999C16.19 32.3949 15.9999 31.7039 15.9999 30.9999C15.9999 30.2959 16.19 29.6049 16.55 28.9999C16.687 28.7641 16.8478 28.5429 17.03 28.3399C16.9748 27.7602 17.0483 27.1754 17.2454 26.6274C17.4425 26.0794 17.7582 25.5817 18.17 25.1699C18.5818 24.7581 19.0795 24.4424 19.6275 24.2453C20.1755 24.0483 20.7603 23.9747 21.34 24.0299C22.0674 23.3673 23.016 23 24 23C24.984 23 25.9326 23.3673 26.66 24.0299C27.2397 23.9747 27.8245 24.0483 28.3725 24.2453C28.9205 24.4424 29.4182 24.7581 29.83 25.1699C30.2418 25.5817 30.5575 26.0794 30.7546 26.6274C30.9517 27.1754 31.0252 27.7602 30.97 28.3399C31.1522 28.5429 31.313 28.7641 31.45 28.9999ZM28 30.9999C28 30.2088 27.7654 29.4354 27.3259 28.7776C26.8864 28.1198 26.2616 27.6071 25.5307 27.3044C24.7998 27.0016 23.9956 26.9224 23.2196 27.0768C22.4437 27.2311 21.731 27.6121 21.1716 28.1715C20.6122 28.7309 20.2312 29.4436 20.0769 30.2196C19.9225 30.9955 20.0017 31.7997 20.3045 32.5306C20.6072 33.2616 21.1199 33.8863 21.7777 34.3258C22.4355 34.7653 23.2089 34.9999 24 34.9999C25.0609 34.9999 26.0783 34.5785 26.8284 33.8283C27.5786 33.0782 28 32.0608 28 30.9999Z" fill="#FFF978"/>
<path d="M24 16C25.1046 16 26 15.1046 26 14C26 12.8954 25.1046 12 24 12C22.8954 12 22 12.8954 22 14C22 15.1046 22.8954 16 24 16Z" fill="#BB938B"/>
<path d="M43 9V25C41.9391 25 40.9217 25.4214 40.1716 26.1716C39.4214 26.9217 39 27.9391 39 29H31.45C31.313 28.7641 31.1522 28.543 30.97 28.34C31.0252 27.7603 30.9517 27.1755 30.7546 26.6275C30.5575 26.0795 30.2418 25.5818 29.83 25.17C29.4182 24.7582 28.9205 24.4425 28.3725 24.2454C27.8245 24.0483 27.2397 23.9748 26.66 24.03C25.9326 23.3674 24.984 23.0001 24 23.0001C23.016 23.0001 22.0674 23.3674 21.34 24.03C20.7603 23.9748 20.1755 24.0483 19.6275 24.2454C19.0795 24.4425 18.5818 24.7582 18.17 25.17C17.7582 25.5818 17.4425 26.0795 17.2454 26.6275C17.0483 27.1755 16.9748 27.7603 17.03 28.34C16.8478 28.543 16.687 28.7641 16.55 29H9C9 27.9391 8.57857 26.9217 7.82843 26.1716C7.07828 25.4214 6.06087 25 5 25V9C6.06087 9 7.07828 8.57857 7.82843 7.82843C8.57857 7.07828 9 6.06087 9 5H39C39 6.06087 39.4214 7.07828 40.1716 7.82843C40.9217 8.57857 41.9391 9 43 9ZM26 14C26 13.6044 25.8827 13.2178 25.6629 12.8889C25.4432 12.56 25.1308 12.3036 24.7654 12.1522C24.3999 12.0009 23.9978 11.9613 23.6098 12.0384C23.2219 12.1156 22.8655 12.3061 22.5858 12.5858C22.3061 12.8655 22.1156 13.2219 22.0384 13.6098C21.9613 13.9978 22.0009 14.3999 22.1522 14.7654C22.3036 15.1308 22.56 15.4432 22.8889 15.6629C23.2178 15.8827 23.6044 16 24 16C24.5299 15.9984 25.0377 15.7872 25.4125 15.4125C25.7872 15.0377 25.9984 14.5299 26 14Z" fill="white"/>
<path d="M47 1V33H31.45C31.81 32.395 32.0001 31.704 32.0001 31C32.0001 30.296 31.81 29.605 31.45 29H39C39 27.9391 39.4214 26.9217 40.1716 26.1716C40.9217 25.4214 41.9391 25 43 25V9C41.9391 9 40.9217 8.57857 40.1716 7.82843C39.4214 7.07828 39 6.06087 39 5H9C9 6.06087 8.57857 7.07828 7.82843 7.82843C7.07828 8.57857 6.06087 9 5 9V25C6.06087 25 7.07828 25.4214 7.82843 26.1716C8.57857 26.9217 9 27.9391 9 29H16.55C16.19 29.605 15.9999 30.296 15.9999 31C15.9999 31.704 16.19 32.395 16.55 33H1V1H47Z" fill="#BB938B"/>
<path d="M26.4937 30.5186C26.8158 30.1963 26.7133 29.5718 26.2648 29.1236C25.8163 28.6754 25.1917 28.5734 24.8696 28.8957C24.5475 29.218 24.65 29.8426 25.0985 30.2907C25.547 30.7389 26.1716 30.8409 26.4937 30.5186Z" fill="#F6FAFD"/>
<path d="M22.8329 31.6136C22.9941 31.4522 22.943 31.1398 22.7188 30.9157C22.4945 30.6916 22.182 30.6408 22.0208 30.8021C21.8596 30.9634 21.9107 31.2759 22.1349 31.5C22.3591 31.7241 22.6716 31.7749 22.8329 31.6136Z" fill="#F6FAFD"/>
<path d="M24 33C23.1151 32.9988 22.2558 32.7034 21.5572 32.1603C20.8586 31.6172 20.3604 30.8572 20.141 30C19.9791 30.5934 19.9563 31.2161 20.0742 31.8198C20.1922 32.4234 20.4478 32.9918 20.8211 33.4806C21.1944 33.9694 21.6755 34.3655 22.2268 34.6382C22.7781 34.9108 23.3849 35.0527 24 35.0527C24.6151 35.0527 25.2219 34.9108 25.7732 34.6382C26.3245 34.3655 26.8056 33.9694 27.1789 33.4806C27.5522 32.9918 27.8078 32.4234 27.9258 31.8198C28.0437 31.2161 28.0209 30.5934 27.859 30C27.6396 30.8572 27.1414 31.6172 26.4428 32.1603C25.7442 32.7034 24.8849 32.9988 24 33Z" fill="#C3623B"/>
<path d="M19.627 39.7461L18 43.0001L20 47.0001L23.064 40.8731C22.425 40.7169 21.8335 40.408 21.34 39.9731C20.7594 40.0183 20.1758 39.941 19.627 39.7461Z" fill="#FB9881"/>
<path d="M26.66 39.9701C26.1665 40.405 25.575 40.7139 24.936 40.8701L28 47.0001L30 43.0001L28.373 39.7461C27.824 39.94 27.2404 40.0163 26.66 39.9701Z" fill="#FB9881"/>
<path d="M21.34 37.9699C21.0681 37.9907 20.7948 37.985 20.524 37.9529L19.624 39.7459C20.173 39.9397 20.7566 40.0161 21.337 39.9699C21.8305 40.4048 22.422 40.7136 23.061 40.8699L24 38.9999C23.0167 38.9962 22.0694 38.6294 21.34 37.9699Z" fill="#FF8488"/>
<path d="M18.17 38.8299C18.5812 39.2402 19.079 39.5532 19.627 39.7459L20.527 37.9529C19.6365 37.8576 18.8051 37.4614 18.17 36.8299C18.0398 36.7017 17.9226 36.561 17.82 36.4099L17.327 37.5199C17.4509 37.8372 17.6167 38.1366 17.82 38.4099C17.9226 38.561 18.0398 38.7017 18.17 38.8299Z" fill="#FB9881"/>
<path d="M28.373 39.7459L27.473 37.9529C27.2022 37.985 26.9289 37.9907 26.657 37.9699C25.9284 38.6287 24.9823 38.9955 24 38.9999L24.936 40.8729C25.575 40.7166 26.1665 40.4078 26.66 39.9729C27.2406 40.0181 27.8242 39.9408 28.373 39.7459Z" fill="#FF8488"/>
<path d="M29.83 36.8299C29.1957 37.4608 28.3655 37.8569 27.476 37.9529L28.376 39.7459C28.9239 39.5532 29.4218 39.2402 29.833 38.8299C29.9632 38.7017 30.0804 38.561 30.183 38.4099C30.3863 38.1366 30.5521 37.8372 30.676 37.5199L30.183 36.4099C30.0794 36.5612 29.9612 36.7019 29.83 36.8299Z" fill="#FB9881"/>
<path d="M33.312 28.5001C33.1411 28.205 32.9401 27.9286 32.712 27.6751C32.7808 26.9504 32.6887 26.2195 32.4422 25.5345C32.1958 24.8496 31.8011 24.2275 31.2864 23.7128C30.7716 23.198 30.1495 22.8033 29.4646 22.5569C28.7796 22.3104 28.0487 22.2183 27.324 22.2871C26.4146 21.4591 25.2289 21.0002 23.999 21.0002C22.7691 21.0002 21.5834 21.4591 20.674 22.2871C19.9493 22.2183 19.2184 22.3104 18.5334 22.5569C17.8485 22.8033 17.2264 23.198 16.7116 23.7128C16.1969 24.2275 15.8022 24.8496 15.5558 25.5345C15.3093 26.2195 15.2172 26.9504 15.286 27.6751C14.9346 28.07 14.6465 28.517 14.432 29.0001H16.55C16.687 28.7643 16.8478 28.5431 17.03 28.3401C16.9748 27.7604 17.0483 27.1756 17.2454 26.6276C17.4425 26.0796 17.7582 25.5819 18.17 25.1701C18.5818 24.7583 19.0795 24.4426 19.6275 24.2455C20.1755 24.0484 20.7603 23.9749 21.34 24.0301C22.0674 23.3675 23.016 23.0002 24 23.0002C24.984 23.0002 25.9326 23.3675 26.66 24.0301C27.2397 23.9749 27.8245 24.0484 28.3725 24.2455C28.9205 24.4426 29.4182 24.7583 29.83 25.1701C30.2418 25.5819 30.5575 26.0796 30.7546 26.6276C30.9517 27.1756 31.0252 27.7604 30.97 28.3401C31.1522 28.5431 31.313 28.7643 31.45 29.0001H33.568C33.4923 28.8287 33.4068 28.6617 33.312 28.5001Z" fill="#E1E7F7"/>
<path d="M16.306 32.514C16.2362 32.3469 16.1781 32.1751 16.132 32C15.912 31.166 15.9732 30.2827 16.306 29.487C16.3765 29.3195 16.458 29.1568 16.55 29H14.432C14.1545 29.6303 14.0112 30.3114 14.0112 31C14.0112 31.6886 14.1545 32.3697 14.432 33H16.55C16.4583 32.8443 16.3771 32.6826 16.307 32.516L16.306 32.514Z" fill="#BB938B"/>
<path d="M33.887 30C33.8172 29.6561 33.7103 29.3208 33.568 29H31.45C31.5415 29.1555 31.6227 29.3168 31.693 29.483C31.8932 29.9625 31.9963 30.4769 31.9963 30.9965C31.9963 31.5161 31.8932 32.0305 31.693 32.51C31.6231 32.6786 31.5419 32.8423 31.45 33H33.568C33.9996 32.0618 34.1117 31.008 33.887 30Z" fill="#BB938B"/>
<path d="M46 32H34V34H47C47.2652 34 47.5196 33.8946 47.7071 33.7071C47.8946 33.5196 48 33.2652 48 33V22H46V32Z" fill="black"/>
<path d="M48 18H46V20H48V18Z" fill="black"/>
<path d="M47 0H1C0.734784 0 0.48043 0.105357 0.292893 0.292893C0.105357 0.48043 0 0.734784 0 1L0 33C0 33.2652 0.105357 33.5196 0.292893 33.7071C0.48043 33.8946 0.734784 34 1 34H14V32H2V2H46V16H48V1C48 0.734784 47.8946 0.48043 47.7071 0.292893C47.5196 0.105357 47.2652 0 47 0V0Z" fill="black"/>
<path d="M40 29C40 28.2044 40.3161 27.4413 40.8787 26.8787C41.4413 26.3161 42.2044 26 43 26C43.2652 26 43.5196 25.8946 43.7071 25.7071C43.8946 25.5196 44 25.2652 44 25V22H42V24.1C41.0398 24.2975 40.1586 24.7723 39.4654 25.4654C38.7723 26.1586 38.2975 27.0398 38.1 28H34V30H39C39.2652 30 39.5196 29.8946 39.7071 29.7071C39.8946 29.5196 40 29.2652 40 29Z" fill="black"/>
<path d="M44 9C44 8.73478 43.8946 8.48043 43.7071 8.29289C43.5196 8.10536 43.2652 8 43 8C42.2043 8 41.4413 7.68393 40.8787 7.12132C40.3161 6.55871 40 5.79565 40 5C40 4.73478 39.8946 4.48043 39.7071 4.29289C39.5196 4.10536 39.2652 4 39 4H9C8.73478 4 8.48043 4.10536 8.29289 4.29289C8.10536 4.48043 8 4.73478 8 5C8 5.79565 7.68393 6.55871 7.12132 7.12132C6.55871 7.68393 5.79565 8 5 8C4.73478 8 4.48043 8.10536 4.29289 8.29289C4.10536 8.48043 4 8.73478 4 9V12H6V9.9C6.96019 9.70246 7.84139 9.22773 8.53456 8.53456C9.22773 7.84139 9.70246 6.96019 9.9 6H38.1C38.2975 6.96019 38.7723 7.84139 39.4654 8.53456C40.1586 9.22773 41.0398 9.70246 42 9.9V20H44V9Z" fill="black"/>
<path d="M4 25C4 25.2652 4.10536 25.5196 4.29289 25.7071C4.48043 25.8946 4.73478 26 5 26C5.79565 26 6.55871 26.3161 7.12132 26.8787C7.68393 27.4413 8 28.2044 8 29C8 29.2652 8.10536 29.5196 8.29289 29.7071C8.48043 29.8946 8.73478 30 9 30H14V28H9.9C9.70246 27.0398 9.22773 26.1586 8.53456 25.4654C7.84139 24.7723 6.96019 24.2975 6 24.1V14H4V25Z" fill="black"/>
<path d="M27 14C27 13.4067 26.8241 12.8266 26.4944 12.3333C26.1648 11.8399 25.6962 11.4554 25.1481 11.2284C24.5999 11.0013 23.9967 10.9419 23.4147 11.0576C22.8328 11.1734 22.2982 11.4591 21.8787 11.8787C21.4591 12.2982 21.1734 12.8328 21.0576 13.4147C20.9419 13.9967 21.0013 14.5999 21.2284 15.1481C21.4554 15.6962 21.8399 16.1648 22.3333 16.4944C22.8266 16.8241 23.4067 17 24 17C24.7957 17 25.5587 16.6839 26.1213 16.1213C26.6839 15.5587 27 14.7957 27 14ZM23 14C23 13.8022 23.0586 13.6089 23.1685 13.4444C23.2784 13.28 23.4346 13.1518 23.6173 13.0761C23.8 13.0004 24.0011 12.9806 24.1951 13.0192C24.3891 13.0578 24.5673 13.153 24.7071 13.2929C24.847 13.4327 24.9422 13.6109 24.9808 13.8049C25.0194 13.9989 24.9996 14.2 24.9239 14.3827C24.8482 14.5654 24.72 14.7216 24.5556 14.8315C24.3911 14.9414 24.1978 15 24 15C23.7348 15 23.4804 14.8946 23.2929 14.7071C23.1054 14.5196 23 14.2652 23 14Z" fill="black"/>
<path d="M37 10H29V12H37V10Z" fill="black"/>
<path d="M19 10H11V12H19V10Z" fill="black"/>
<path d="M37 14H29V16H37V14Z" fill="black"/>
<path d="M19 14H11V16H19V14Z" fill="black"/>
<path d="M37 18H11V20H37V18Z" fill="black"/>
<path d="M24 36C24.9889 36 25.9556 35.7068 26.7779 35.1574C27.6001 34.6079 28.241 33.8271 28.6194 32.9134C28.9978 31.9998 29.0969 30.9945 28.9039 30.0246C28.711 29.0546 28.2348 28.1637 27.5355 27.4645C26.8363 26.7652 25.9454 26.289 24.9755 26.0961C24.0055 25.9031 23.0002 26.0022 22.0866 26.3806C21.173 26.759 20.3921 27.3999 19.8427 28.2222C19.2932 29.0444 19 30.0111 19 31C19.0016 32.3256 19.5289 33.5964 20.4662 34.5338C21.4036 35.4711 22.6744 35.9984 24 36ZM24 28C24.5933 28 25.1734 28.1759 25.6667 28.5056C26.1601 28.8352 26.5446 29.3038 26.7716 29.852C26.9987 30.4001 27.0581 31.0033 26.9424 31.5853C26.8266 32.1672 26.5409 32.7018 26.1213 33.1213C25.7018 33.5409 25.1672 33.8266 24.5853 33.9424C24.0033 34.0581 23.4001 33.9987 22.8519 33.7716C22.3038 33.5446 21.8352 33.1601 21.5056 32.6667C21.1759 32.1734 21 31.5933 21 31C21 30.2044 21.3161 29.4413 21.8787 28.8787C22.4413 28.3161 23.2044 28 24 28Z" fill="black"/>
<path d="M31.31 36.4859C31.7475 35.7303 31.9792 34.8731 31.982 33.9999C32.6423 33.1392 33.0001 32.0847 33.0001 30.9999C33.0001 29.9152 32.6423 28.8607 31.982 27.9999C31.988 27.3451 31.8636 26.6957 31.6162 26.0894C31.3688 25.4831 31.0032 24.9321 30.5408 24.4684C30.0783 24.0048 29.5283 23.6378 28.9226 23.3887C28.317 23.1397 27.6678 23.0137 27.013 23.0179H27C26.1315 22.376 25.08 22.0295 24 22.0295C22.92 22.0295 21.8685 22.376 21 23.0179H20.988C20.3331 23.0135 19.6838 23.1395 19.0781 23.3884C18.4723 23.6374 17.9221 24.0044 17.4596 24.4681C16.9971 24.9317 16.6314 25.4828 16.3839 26.0891C16.1364 26.6955 16.012 27.345 16.018 27.9999C15.3578 28.8607 14.9999 29.9152 14.9999 30.9999C14.9999 32.0847 15.3578 33.1392 16.018 33.9999C16.0211 34.8731 16.2528 35.7302 16.69 36.4859L13.09 44.5939C13.0065 44.7822 12.9832 44.9916 13.0232 45.1936C13.0632 45.3955 13.1645 45.5802 13.3134 45.7225C13.4623 45.8647 13.6515 45.9575 13.8551 45.9882C14.0587 46.0189 14.2668 45.986 14.451 45.8939L17.557 44.3409L19.109 47.4459C19.1919 47.6124 19.3196 47.7523 19.4777 47.8502C19.6358 47.948 19.8181 47.9999 20.004 47.9999C20.1899 47.9999 20.3722 47.948 20.5303 47.8502C20.6884 47.7523 20.8161 47.6124 20.899 47.4459L24 41.2359L27.105 47.4469C27.1879 47.6133 27.3156 47.7533 27.4737 47.8512C27.6318 47.949 27.8141 48.0009 28 48.0009C28.1859 48.0009 28.3682 47.949 28.5263 47.8512C28.6844 47.7533 28.8121 47.6133 28.895 47.4469L30.447 44.3419L33.553 45.8999C33.7372 45.992 33.9453 46.0249 34.1489 45.9942C34.3525 45.9635 34.5417 45.8707 34.6906 45.7285C34.8395 45.5862 34.9408 45.4015 34.9808 45.1996C35.0208 44.9976 34.9975 44.7882 34.914 44.5999L31.31 36.4859ZM17.777 29.0079C17.8682 28.9063 17.9376 28.787 17.9809 28.6575C18.0243 28.528 18.0406 28.391 18.029 28.2549C17.9859 27.8206 18.0397 27.3821 18.1866 26.9711C18.3334 26.5601 18.5697 26.1869 18.8783 25.8783C19.1869 25.5696 19.5602 25.3334 19.9712 25.1865C20.3822 25.0396 20.8207 24.9858 21.255 25.0289C21.3911 25.0406 21.5281 25.0242 21.6576 24.9809C21.7871 24.9375 21.9063 24.8681 22.008 24.7769C22.5586 24.2924 23.267 24.0251 24.0005 24.0251C24.734 24.0251 25.4424 24.2924 25.993 24.7769C26.0943 24.8683 26.2134 24.9378 26.3428 24.9812C26.4722 25.0245 26.6091 25.0408 26.745 25.0289C27.1793 24.9858 27.6178 25.0396 28.0288 25.1865C28.4398 25.3334 28.8131 25.5696 29.1217 25.8783C29.4303 26.1869 29.6666 26.5601 29.8135 26.9711C29.9603 27.3821 30.0141 27.8206 29.971 28.2549C29.9594 28.391 29.9757 28.528 30.0191 28.6575C30.0624 28.787 30.1318 28.9063 30.223 29.0079C30.7227 29.551 31 30.262 31 30.9999C31 31.7379 30.7227 32.4489 30.223 32.9919C30.1318 33.0936 30.0624 33.2129 30.0191 33.3424C29.9757 33.4719 29.9594 33.6089 29.971 33.7449C30.0141 34.1793 29.9603 34.6177 29.8135 35.0287C29.6666 35.4397 29.4303 35.813 29.1217 36.1216C28.8131 36.4303 28.4398 36.6665 28.0288 36.8134C27.6178 36.9603 27.1793 37.0141 26.745 36.9709C26.609 36.96 26.4721 36.9766 26.3427 37.0199C26.2133 37.0632 26.094 37.1323 25.992 37.2229C25.4414 37.7075 24.733 37.9748 23.9995 37.9748C23.266 37.9748 22.5576 37.7075 22.007 37.2229C21.8238 37.0584 21.5863 36.9672 21.34 36.9669C21.3117 36.9654 21.2833 36.9654 21.255 36.9669C20.8207 37.0101 20.3822 36.9563 19.9712 36.8094C19.5602 36.6625 19.1869 36.4263 18.8783 36.1176C18.5697 35.809 18.3334 35.4357 18.1866 35.0247C18.0397 34.6137 17.9859 34.1753 18.029 33.7409C18.0406 33.6049 18.0243 33.4679 17.9809 33.3384C17.9376 33.2089 17.8682 33.0896 17.777 32.9879C17.2773 32.4449 17 31.7339 17 30.9959C17 30.258 17.2773 29.547 17.777 29.0039V29.0079ZM20 44.7639L18.9 42.5529C18.8413 42.4354 18.7601 42.3305 18.6609 42.2444C18.5617 42.1582 18.4465 42.0924 18.3218 42.0508C18.1972 42.0092 18.0656 41.9926 17.9345 42.0019C17.8035 42.0112 17.6755 42.0462 17.558 42.1049L16.051 42.8589L18.16 38.1119C18.987 38.7067 19.9868 39.0124 21.005 38.9819C21.4576 39.3237 21.9647 39.5864 22.505 39.7589L20 44.7639ZM30.447 42.1049C30.3295 42.0462 30.2015 42.0112 30.0705 42.0019C29.9394 41.9926 29.8078 42.0092 29.6832 42.0508C29.5585 42.0924 29.4433 42.1582 29.3441 42.2444C29.2449 42.3305 29.1637 42.4354 29.105 42.5529L28 44.7639L25.5 39.7589C26.0404 39.5867 26.5476 39.3239 27 38.9819H27.013C28.0228 38.9825 29.0091 38.6764 29.841 38.1039L31.954 42.8589L30.447 42.1049Z" fill="black"/>
</g>
<defs>
<clipPath id="clip0_503_7852">
<rect width="48" height="48" fill="white"/>
</clipPath>
</defs>
</svg>
