<svg width="100" height="100" viewBox="0 0 100 100" fill="none" xmlns="http://www.w3.org/2000/svg">
<path d="M50 97.2972C49.803 97.2974 49.6084 97.2545 49.4297 97.1716C25.9257 86.231 11.8919 67.3689 11.8919 46.7162V18.1891C11.8918 18.0009 11.9311 17.8146 12.0072 17.6424C12.0833 17.4702 12.1945 17.3158 12.3338 17.1891C12.4729 17.0616 12.6374 16.9648 12.8164 16.9052C12.9955 16.8456 13.1852 16.8244 13.373 16.8432C28.2257 18.2675 39.8757 13.7959 48.973 3.17561C49.0998 3.02728 49.2574 2.90819 49.4346 2.82654C49.6119 2.7449 49.8048 2.70262 50 2.70264C50.1954 2.70296 50.3884 2.74565 50.5657 2.82777C50.743 2.90989 50.9004 3.02949 51.027 3.17831C59.927 13.6283 71.5851 18.108 86.6446 16.8418C86.8313 16.8263 87.0191 16.8497 87.1962 16.9106C87.3734 16.9715 87.5359 17.0686 87.6735 17.1957C87.8111 17.3227 87.9208 17.477 87.9956 17.6488C88.0705 17.8205 88.1087 18.0059 88.1081 18.1932V46.7162C88.1125 48.0699 88.0476 49.4231 87.9135 50.7702C87.6131 54.0775 86.9446 57.3409 85.9203 60.4999C85.4831 61.9024 84.9725 63.2808 84.3905 64.6297C82.9368 68.0501 81.1196 71.3044 78.9703 74.3364C78.7 74.7418 78.3838 75.1743 78.0662 75.6053C70.8077 84.9397 61.3652 92.3459 50.5703 97.1716C50.3916 97.2545 50.197 97.2974 50 97.2972ZM14.5946 19.658V46.7162C14.5946 66.1243 27.8176 83.931 50 94.4594C60.1478 89.8366 69.0261 82.8268 75.877 74.0283C76.1824 73.6229 76.4716 73.2283 76.7351 72.827C78.7853 69.9404 80.5179 66.8409 81.9027 63.5824C82.4505 62.3123 82.9318 61.0146 83.3446 59.6945C84.311 56.7143 84.9406 53.6352 85.2216 50.5148C85.349 49.2527 85.4104 47.9847 85.4054 46.7162V19.6418C70.6757 20.5405 59.0635 16.0945 50 6.09858C40.7541 16.2553 29.1446 20.7013 14.5946 19.658Z" fill="#603813"/>
<path d="M78.4203 51.9865C78.3638 51.9869 78.3073 51.9833 78.2514 51.9757C77.8959 51.9312 77.5726 51.7473 77.3527 51.4645C77.1327 51.1817 77.034 50.8231 77.0784 50.4676C77.2296 49.223 77.3027 47.9701 77.2973 46.7163C77.2955 46.3579 77.4362 46.0134 77.6883 45.7588C77.9405 45.5041 78.2835 45.36 78.6419 45.3582C79.0003 45.3564 79.3447 45.497 79.5994 45.7492C79.8541 46.0014 79.9982 46.3444 80 46.7028V46.7163C80.0057 48.0821 79.9254 49.447 79.7595 50.8028C79.7187 51.1293 79.5601 51.4297 79.3135 51.6477C79.067 51.8656 78.7494 51.9861 78.4203 51.9865Z" fill="#603813"/>
<path d="M74.2284 65.4594C73.9957 65.4593 73.767 65.399 73.5645 65.2845C73.3619 65.17 73.1923 65.0052 73.0722 64.8059C72.952 64.6067 72.8854 64.3798 72.8786 64.1472C72.8719 63.9146 72.9254 63.6842 73.0338 63.4784C73.6987 62.2234 74.2907 60.9312 74.8068 59.6081C74.8706 59.4425 74.9665 59.2912 75.0889 59.1626C75.2113 59.0341 75.3578 58.931 75.52 58.8591C75.6823 58.7871 75.8571 58.7479 76.0345 58.7436C76.2119 58.7392 76.3885 58.7699 76.5541 58.8338C76.7196 58.8977 76.871 58.9935 76.9995 59.1159C77.128 59.2383 77.2312 59.3848 77.3031 59.547C77.375 59.7093 77.4142 59.8841 77.4186 60.0615C77.4229 60.239 77.3923 60.4155 77.3284 60.5811C76.7747 62.0024 76.139 63.3903 75.4243 64.7378C75.3096 64.9556 75.1376 65.138 74.9268 65.2651C74.716 65.3923 74.4745 65.4595 74.2284 65.4594Z" fill="#603813"/>
<path d="M50 88.2567C49.7806 88.2562 49.5646 88.2029 49.3702 88.1012C30.9797 78.4161 20 62.9445 20 46.7161V26.4999C19.9996 26.1525 20.133 25.8182 20.3726 25.5666C20.6121 25.3149 20.9394 25.1652 21.2865 25.1485C31.506 24.7976 41.3107 21.0204 49.1243 14.4242C49.3679 14.2191 49.6761 14.1067 49.9946 14.1067C50.313 14.1067 50.6212 14.2191 50.8648 14.4242C58.7169 20.9544 68.5117 24.6982 78.7175 25.0702C79.0631 25.0889 79.3884 25.2394 79.6263 25.4909C79.8641 25.7423 79.9964 26.0754 79.9959 26.4215V37.2458C79.9959 37.6042 79.8535 37.948 79.6001 38.2014C79.3467 38.4548 79.003 38.5972 78.6446 38.5972C78.2862 38.5972 77.9425 38.4548 77.689 38.2014C77.4356 37.948 77.2932 37.6042 77.2932 37.2458V27.685C67.3368 27.0718 57.8093 23.4145 50 17.208C42.2208 23.4825 32.679 27.1755 22.7027 27.7729V46.7161C22.7027 61.9661 32.6405 76.0242 50 85.3742C56.2059 82.1195 61.8045 77.8196 66.55 72.6634C66.6676 72.5275 66.8111 72.4164 66.9721 72.3367C67.1331 72.2569 67.3085 72.2101 67.4878 72.1989C67.6672 72.1877 67.847 72.2124 68.0167 72.2716C68.1864 72.3307 68.3426 72.4231 68.4761 72.5434C68.6097 72.6636 68.7179 72.8093 68.7945 72.9719C68.871 73.1345 68.9144 73.3107 68.922 73.4902C68.9297 73.6698 68.9014 73.849 68.8389 74.0175C68.7764 74.186 68.6809 74.3404 68.5581 74.4715C63.4344 80.0385 57.3643 84.6532 50.6297 88.1012C50.4353 88.2029 50.2193 88.2562 50 88.2567Z" fill="#603813"/>
</svg>
