<svg width="1440" height="650" viewBox="0 0 1440 650" fill="none" xmlns="http://www.w3.org/2000/svg">
<g clip-path="url(#clip0_1_174)">
<rect width="1440" height="650" fill="white"/>
<g filter="url(#filter0_f_1_174)">
<path d="M730.5 342.5C611.7 242.5 524.667 70.1667 496 -3.49998C485 -89 482 -252.4 558 -222C634 -191.6 888 -189 1005.5 -191.5L1567 -100.5V558.5L1519.5 846L1350 910.5C1174.83 922 832.5 920.2 864.5 821C904.5 697 879 467.5 730.5 342.5Z" fill="url(#paint0_linear_1_174)"/>
</g>
<g filter="url(#filter1_f_1_174)">
<path d="M528.5 513.5C403.7 347.9 118.5 300.167 -8.5 297L-81 355.5L-36.5 855.5C259.667 889.667 825.5 937.5 719.5 855.5C587 753 684.5 720.5 528.5 513.5Z" fill="url(#paint1_linear_1_174)"/>
</g>
<circle cx="61.5" cy="97.5" r="19" stroke="#FDD8E3"/>
<circle cx="58" cy="101" r="20.5" stroke="#FF6F89"/>
<circle cx="58" cy="101" r="20.5" stroke="black" stroke-opacity="0.2"/>
<circle cx="679.818" cy="546.182" r="13.6818" stroke="#FDD8E3"/>
<circle cx="675.273" cy="550.727" r="14.7727" stroke="#FF6F89"/>
<circle cx="675.273" cy="550.727" r="14.7727" stroke="black" stroke-opacity="0.2"/>
<path d="M-28.7172 647.251C-14.7758 645.118 -0.54628 642.47 10.8655 634.265C20.3279 627.462 27.2691 617.242 35.9176 609.265C40.3832 605.145 45.3586 601.566 48.8571 596.386C50.9722 593.255 52.4838 589.628 54.3067 586.251C57.2619 580.776 61.055 575.948 65.3288 571.761" stroke="#FF6F89" stroke-miterlimit="10"/>
<path d="M-28.7172 647.251C-14.7758 645.118 -0.54628 642.47 10.8655 634.265C20.3279 627.462 27.2691 617.242 35.9176 609.265C40.3832 605.145 45.3586 601.566 48.8571 596.386C50.9722 593.255 52.4838 589.628 54.3067 586.251C57.2619 580.776 61.055 575.948 65.3288 571.761" stroke="black" stroke-opacity="0.2" stroke-miterlimit="10"/>
<path d="M36.5593 608.998C39.3582 610.846 44.3569 608.979 47.4846 606.104C50.6112 603.23 52.5272 595.75 56.7257 595.227" stroke="#FF6F89" stroke-miterlimit="10"/>
<path d="M36.5593 608.998C39.3582 610.846 44.3569 608.979 47.4846 606.104C50.6112 603.23 52.5272 595.75 56.7257 595.227" stroke="black" stroke-opacity="0.2" stroke-miterlimit="10"/>
<path d="M1.95306 639.545C1.91885 631.155 4.07405 623.084 8.08749 616.575C9.97058 613.52 12.2517 610.8 13.9037 607.563C15.8421 603.766 16.8785 599.323 19.1466 595.79C20.2781 594.028 22.341 592.881 22.7685 590.69" stroke="#FF6F89" stroke-miterlimit="10"/>
<path d="M1.95306 639.545C1.91885 631.155 4.07405 623.084 8.08749 616.575C9.97058 613.52 12.2517 610.8 13.9037 607.563C15.8421 603.766 16.8785 599.323 19.1466 595.79C20.2781 594.028 22.341 592.881 22.7685 590.69" stroke="black" stroke-opacity="0.2" stroke-miterlimit="10"/>
<path d="M18.2597 627.829C29.4504 631.798 42.1103 631.204 51.6243 625.593C54.9022 623.659 58.0578 621.144 61.9208 620.941" stroke="#FF6F89" stroke-miterlimit="10"/>
<path d="M18.2597 627.829C29.4504 631.798 42.1103 631.204 51.6243 625.593C54.9022 623.659 58.0578 621.144 61.9208 620.941" stroke="black" stroke-opacity="0.2" stroke-miterlimit="10"/>
<path d="M45.4147 628.493C46.7243 627.43 48.0604 626.334 48.904 624.778C49.5574 623.571 49.8828 622.146 50.4349 620.867C51.1534 619.203 52.2443 617.814 53.3993 616.529C55.1235 614.61 57.0152 612.88 59.0458 611.366" stroke="#FF6F89" stroke-miterlimit="10"/>
<path d="M45.4147 628.493C46.7243 627.43 48.0604 626.334 48.904 624.778C49.5574 623.571 49.8828 622.146 50.4349 620.867C51.1534 619.203 52.2443 617.814 53.3993 616.529C55.1235 614.61 57.0152 612.88 59.0458 611.366" stroke="black" stroke-opacity="0.2" stroke-miterlimit="10"/>
<path d="M48.5895 627.083C48.4165 628.39 54.1669 627.227 55.7565 628.777C56.4366 629.441 56.9502 630.33 57.7051 630.87C58.3349 631.32 59.0629 631.479 59.7692 631.626C60.5175 631.782 61.2654 631.939 62.0137 632.095C62.4545 632.187 62.9331 632.274 63.2918 632.039" stroke="#FF6F89" stroke-miterlimit="10"/>
<path d="M48.5895 627.083C48.4165 628.39 54.1669 627.227 55.7565 628.777C56.4366 629.441 56.9502 630.33 57.7051 630.87C58.3349 631.32 59.0629 631.479 59.7692 631.626C60.5175 631.782 61.2654 631.939 62.0137 632.095C62.4545 632.187 62.9331 632.274 63.2918 632.039" stroke="black" stroke-opacity="0.2" stroke-miterlimit="10"/>
<path d="M14.2879 606.676C16.7464 606.711 19.2428 606.358 21.2047 604.957C22.2012 604.246 23.0252 603.289 23.9447 602.467C25.4178 601.15 26.7082 599.982 28.2989 599.479" stroke="#FF6F89" stroke-miterlimit="10"/>
<path d="M14.2879 606.676C16.7464 606.711 19.2428 606.358 21.2047 604.957C22.2012 604.246 23.0252 603.289 23.9447 602.467C25.4178 601.15 26.7082 599.982 28.2989 599.479" stroke="black" stroke-opacity="0.2" stroke-miterlimit="10"/>
<path d="M14.7333 604.962C12.9452 603.388 13.4299 600.541 13.156 598.804C12.8814 597.067 12.6525 596.43 13.7487 594.723C15.3245 592.269 13.9469 588.239 15.5226 585.784" stroke="#FF6F89" stroke-miterlimit="10"/>
<path d="M14.7333 604.962C12.9452 603.388 13.4299 600.541 13.156 598.804C12.8814 597.067 12.6525 596.43 13.7487 594.723C15.3245 592.269 13.9469 588.239 15.5226 585.784" stroke="black" stroke-opacity="0.2" stroke-miterlimit="10"/>
<path d="M63.7734 585.371C61.3338 587.484 58.7914 589.757 57.8187 593.124C57.5776 593.958 56.3596 594.146 56.0471 595.229C56.9349 595.467 58.4146 595.081 59.421 595.291C60.4274 595.502 61.4301 595.84 62.4356 595.922C63.4411 596.004 64.0424 596.217 64.6996 595.46" stroke="#FF6F89" stroke-miterlimit="10"/>
<path d="M63.7734 585.371C61.3338 587.484 58.7914 589.757 57.8187 593.124C57.5776 593.958 56.3596 594.146 56.0471 595.229C56.9349 595.467 58.4146 595.081 59.421 595.291C60.4274 595.502 61.4301 595.84 62.4356 595.922C63.4411 596.004 64.0424 596.217 64.6996 595.46" stroke="black" stroke-opacity="0.2" stroke-miterlimit="10"/>
<path d="M70.3257 555.418C70.2805 556.687 69.3379 557.692 68.6991 558.661C68.0614 559.629 67.3043 560.488 66.7115 561.496C65.422 563.689 64.9789 566.481 65.0595 569.271C65.0884 570.243 65.1098 570.686 65.1225 571.663C66.6474 570.319 68.4671 569.83 70.3577 569.159C71.2307 568.85 72.1366 568.615 72.9527 568.179C73.9398 567.652 74.1917 567.424 75.006 566.628" stroke="#FF6F89" stroke-miterlimit="10"/>
<path d="M70.3257 555.418C70.2805 556.687 69.3379 557.692 68.6991 558.661C68.0614 559.629 67.3043 560.488 66.7115 561.496C65.422 563.689 64.9789 566.481 65.0595 569.271C65.0884 570.243 65.1098 570.686 65.1225 571.663C66.6474 570.319 68.4671 569.83 70.3577 569.159C71.2307 568.85 72.1366 568.615 72.9527 568.179C73.9398 567.652 74.1917 567.424 75.006 566.628" stroke="black" stroke-opacity="0.2" stroke-miterlimit="10"/>
<path d="M65.1309 572.029C66.9634 571.79 68.9449 572.276 70.666 573.387C71.2493 573.764 71.8044 574.209 72.4087 574.528C73.4666 575.086 74.6267 575.228 75.7227 575.135C76.8188 575.042 77.8646 574.728 78.9037 574.415" stroke="#FF6F89" stroke-miterlimit="10"/>
<path d="M65.1309 572.029C66.9634 571.79 68.9449 572.276 70.666 573.387C71.2493 573.764 71.8044 574.209 72.4087 574.528C73.4666 575.086 74.6267 575.228 75.7227 575.135C76.8188 575.042 77.8646 574.728 78.9037 574.415" stroke="black" stroke-opacity="0.2" stroke-miterlimit="10"/>
<path d="M27.9015 590.485C27.3074 590.979 26.7056 591.477 26.0065 591.743C25.3085 592.009 24.4938 592.024 23.7334 591.571C23.0553 591.167 22.4706 590.418 22.0531 589.581C21.6346 588.744 21.3685 587.82 21.1704 586.901C21.0849 586.507 21.0109 586.098 21.0556 585.727C21.1046 585.313 21.2984 584.987 21.5291 584.736C22.0446 584.172 22.7561 583.932 23.4897 583.918C23.9522 583.909 24.4593 583.999 24.8847 584.391C25.4808 584.942 25.7553 585.932 26.2929 586.587C26.8899 587.315 27.813 587.649 28.126 588.599C28.2293 588.912 28.2425 589.244 28.2106 589.546C28.1534 590.096 27.9955 590.377 27.9015 590.485Z" stroke="#FF6F89" stroke-miterlimit="10"/>
<path d="M27.9015 590.485C27.3074 590.979 26.7056 591.477 26.0065 591.743C25.3085 592.009 24.4938 592.024 23.7334 591.571C23.0553 591.167 22.4706 590.418 22.0531 589.581C21.6346 588.744 21.3685 587.82 21.1704 586.901C21.0849 586.507 21.0109 586.098 21.0556 585.727C21.1046 585.313 21.2984 584.987 21.5291 584.736C22.0446 584.172 22.7561 583.932 23.4897 583.918C23.9522 583.909 24.4593 583.999 24.8847 584.391C25.4808 584.942 25.7553 585.932 26.2929 586.587C26.8899 587.315 27.813 587.649 28.126 588.599C28.2293 588.912 28.2425 589.244 28.2106 589.546C28.1534 590.096 27.9955 590.377 27.9015 590.485Z" stroke="black" stroke-opacity="0.2" stroke-miterlimit="10"/>
<path d="M18.3935 580.985C18.3948 581.866 18.3955 582.756 18.1863 583.554C17.976 584.353 17.531 585.062 16.8009 585.371C16.149 585.648 15.3159 585.583 14.5163 585.31C13.7168 585.038 12.9435 584.57 12.2118 584.047C11.8981 583.823 11.5798 583.579 11.353 583.262C11.1002 582.908 10.9881 582.495 10.9468 582.11C10.8544 581.243 11.088 580.454 11.4877 579.814C11.7405 579.411 12.0845 579.044 12.5867 578.976C13.2921 578.88 14.114 579.392 14.8583 579.424C15.6834 579.46 16.4258 578.922 17.2432 579.37C17.5126 579.517 17.7443 579.756 17.931 580.011C18.2704 580.475 18.3726 580.824 18.3935 580.985Z" stroke="#FF6F89" stroke-miterlimit="10"/>
<path d="M18.3935 580.985C18.3948 581.866 18.3955 582.756 18.1863 583.554C17.976 584.353 17.531 585.062 16.8009 585.371C16.149 585.648 15.3159 585.583 14.5163 585.31C13.7168 585.038 12.9435 584.57 12.2118 584.047C11.8981 583.823 11.5798 583.579 11.353 583.262C11.1002 582.908 10.9881 582.495 10.9468 582.11C10.8544 581.243 11.088 580.454 11.4877 579.814C11.7405 579.411 12.0845 579.044 12.5867 578.976C13.2921 578.88 14.114 579.392 14.8583 579.424C15.6834 579.46 16.4258 578.922 17.2432 579.37C17.5126 579.517 17.7443 579.756 17.931 580.011C18.2704 580.475 18.3726 580.824 18.3935 580.985Z" stroke="black" stroke-opacity="0.2" stroke-miterlimit="10"/>
<path d="M33.9275 601.837C33.2168 602.119 32.4976 602.401 31.7371 602.439C30.9767 602.478 30.1603 602.247 29.5078 601.598C28.9259 601.018 28.5206 600.147 28.3011 599.242C28.0817 598.337 28.0345 597.399 28.054 596.486C28.0627 596.093 28.0851 595.691 28.2168 595.359C28.3642 594.988 28.635 594.743 28.9241 594.577C29.5733 594.207 30.3389 594.198 31.0755 594.405C31.5396 594.534 32.0254 594.77 32.3563 595.262C32.8212 595.954 32.8604 596.956 33.2427 597.727C33.6663 598.583 34.5093 599.171 34.5969 600.149C34.6253 600.472 34.5595 600.784 34.4567 601.056C34.2724 601.55 34.0469 601.765 33.9275 601.837Z" stroke="#FF6F89" stroke-miterlimit="10"/>
<path d="M33.9275 601.837C33.2168 602.119 32.4976 602.401 31.7371 602.439C30.9767 602.478 30.1603 602.247 29.5078 601.598C28.9259 601.018 28.5206 600.147 28.3011 599.242C28.0817 598.337 28.0345 597.399 28.054 596.486C28.0627 596.093 28.0851 595.691 28.2168 595.359C28.3642 594.988 28.635 594.743 28.9241 594.577C29.5733 594.207 30.3389 594.198 31.0755 594.405C31.5396 594.534 32.0254 594.77 32.3563 595.262C32.8212 595.954 32.8604 596.956 33.2427 597.727C33.6663 598.583 34.5093 599.171 34.5969 600.149C34.6253 600.472 34.5595 600.784 34.4567 601.056C34.2724 601.55 34.0469 601.765 33.9275 601.837Z" stroke="black" stroke-opacity="0.2" stroke-miterlimit="10"/>
<path d="M76.0751 554.993C75.6152 555.643 75.1494 556.298 74.5452 556.747C73.941 557.195 73.1748 557.421 72.3643 557.165C71.6411 556.936 70.9365 556.336 70.37 555.606C69.8034 554.875 69.3626 554.018 68.9875 553.148C68.826 552.774 68.672 552.384 68.6382 552.001C68.6 551.572 68.7153 551.194 68.8811 550.883C69.2522 550.184 69.8743 549.759 70.5635 549.554C70.9989 549.424 71.4959 549.383 71.9765 549.665C72.6526 550.063 73.1136 550.984 73.7565 551.502C74.4697 552.076 75.4096 552.171 75.9001 553.043C76.0615 553.33 76.142 553.66 76.1744 553.972C76.2333 554.538 76.142 554.861 76.0751 554.993Z" stroke="#FF6F89" stroke-miterlimit="10"/>
<path d="M76.0751 554.993C75.6152 555.643 75.1494 556.298 74.5452 556.747C73.941 557.195 73.1748 557.421 72.3643 557.165C71.6411 556.936 70.9365 556.336 70.37 555.606C69.8034 554.875 69.3626 554.018 68.9875 553.148C68.826 552.774 68.672 552.384 68.6382 552.001C68.6 551.572 68.7153 551.194 68.8811 550.883C69.2522 550.184 69.8743 549.759 70.5635 549.554C70.9989 549.424 71.4959 549.383 71.9765 549.665C72.6526 550.063 73.1136 550.984 73.7565 551.502C74.4697 552.076 75.4096 552.171 75.9001 553.043C76.0615 553.33 76.142 553.66 76.1744 553.972C76.2333 554.538 76.142 554.861 76.0751 554.993Z" stroke="black" stroke-opacity="0.2" stroke-miterlimit="10"/>
<path d="M79.8932 567.497C79.1785 567.769 78.4566 568.044 77.695 568.072C76.934 568.102 76.1171 567.863 75.4705 567.207C74.8928 566.621 74.4946 565.747 74.283 564.841C74.0721 563.936 74.0322 562.998 74.0598 562.085C74.072 561.693 74.0979 561.292 74.2318 560.962C74.3823 560.594 74.656 560.351 74.946 560.19C75.5985 559.828 76.3664 559.827 77.1011 560.041C77.5649 560.175 78.0493 560.417 78.3754 560.913C78.8343 561.609 78.8655 562.61 79.2412 563.385C79.6582 564.245 80.4971 564.841 80.5756 565.818C80.6024 566.141 80.5331 566.451 80.4279 566.723C80.2406 567.214 80.0132 567.426 79.8932 567.497Z" stroke="#FF6F89" stroke-miterlimit="10"/>
<path d="M79.8932 567.497C79.1785 567.769 78.4566 568.044 77.695 568.072C76.934 568.102 76.1171 567.863 75.4705 567.207C74.8928 566.621 74.4946 565.747 74.283 564.841C74.0721 563.936 74.0322 562.998 74.0598 562.085C74.072 561.693 74.0979 561.292 74.2318 560.962C74.3823 560.594 74.656 560.351 74.946 560.19C75.5985 559.828 76.3664 559.827 77.1011 560.041C77.5649 560.175 78.0493 560.417 78.3754 560.913C78.8343 561.609 78.8655 562.61 79.2412 563.385C79.6582 564.245 80.4971 564.841 80.5756 565.818C80.6024 566.141 80.5331 566.451 80.4279 566.723C80.2406 567.214 80.0132 567.426 79.8932 567.497Z" stroke="black" stroke-opacity="0.2" stroke-miterlimit="10"/>
<path d="M82.3127 579.924C81.5603 579.548 80.7997 579.168 80.1572 578.6C79.514 578.031 78.9897 577.247 78.8594 576.325C78.7424 575.501 78.9483 574.629 79.3274 573.882C79.7048 573.135 80.245 572.5 80.8245 571.932C81.0733 571.689 81.3387 571.45 81.6506 571.341C81.9992 571.221 82.3713 571.275 82.7072 571.396C83.4647 571.666 84.0944 572.258 84.5675 572.963C84.8655 573.408 85.1163 573.937 85.0825 574.509C85.0343 575.312 84.4496 575.982 84.2859 576.772C84.1041 577.648 84.4283 578.681 83.8989 579.373C83.7236 579.601 83.4782 579.749 83.2261 579.842C82.7702 580.01 82.4541 579.972 82.3127 579.924Z" stroke="#FF6F89" stroke-miterlimit="10"/>
<path d="M82.3127 579.924C81.5603 579.548 80.7997 579.168 80.1572 578.6C79.514 578.031 78.9897 577.247 78.8594 576.325C78.7424 575.501 78.9483 574.629 79.3274 573.882C79.7048 573.135 80.245 572.5 80.8245 571.932C81.0733 571.689 81.3387 571.45 81.6506 571.341C81.9992 571.221 82.3713 571.275 82.7072 571.396C83.4647 571.666 84.0944 572.258 84.5675 572.963C84.8655 573.408 85.1163 573.937 85.0825 574.509C85.0343 575.312 84.4496 575.982 84.2859 576.772C84.1041 577.648 84.4283 578.681 83.8989 579.373C83.7236 579.601 83.4782 579.749 83.2261 579.842C82.7702 580.01 82.4541 579.972 82.3127 579.924Z" stroke="black" stroke-opacity="0.2" stroke-miterlimit="10"/>
<path d="M67.5315 585.189C66.8451 585.525 66.1515 585.864 65.4007 585.96C64.651 586.055 63.8292 585.886 63.1454 585.282C62.5352 584.742 62.0821 583.896 61.8116 583.002C61.54 582.108 61.4387 581.168 61.4027 580.246C61.3881 579.851 61.3858 579.444 61.4974 579.101C61.6208 578.716 61.8743 578.448 62.1508 578.261C62.7708 577.84 63.5279 577.773 64.2691 577.924C64.7368 578.02 65.2301 578.221 65.5864 578.691C66.0863 579.352 66.1859 580.358 66.6105 581.106C67.0813 581.934 67.9502 582.464 68.0946 583.441C68.1417 583.763 68.0962 584.082 68.0104 584.364C67.8543 584.874 67.6452 585.107 67.5315 585.189Z" stroke="#FF6F89" stroke-miterlimit="10"/>
<path d="M67.5315 585.189C66.8451 585.525 66.1515 585.864 65.4007 585.96C64.651 586.055 63.8292 585.886 63.1454 585.282C62.5352 584.742 62.0821 583.896 61.8116 583.002C61.54 582.108 61.4387 581.168 61.4027 580.246C61.3881 579.851 61.3858 579.444 61.4974 579.101C61.6208 578.716 61.8743 578.448 62.1508 578.261C62.7708 577.84 63.5279 577.773 64.2691 577.924C64.7368 578.02 65.2301 578.221 65.5864 578.691C66.0863 579.352 66.1859 580.358 66.6105 581.106C67.0813 581.934 67.9502 582.464 68.0946 583.441C68.1417 583.763 68.0962 584.082 68.0104 584.364C67.8543 584.874 67.6452 585.107 67.5315 585.189Z" stroke="black" stroke-opacity="0.2" stroke-miterlimit="10"/>
<path d="M68.9905 597.762C68.2015 597.647 67.4028 597.53 66.6613 597.186C65.9199 596.841 65.229 596.243 64.8595 595.372C64.5297 594.596 64.4831 593.659 64.6266 592.787C64.7701 591.916 65.0923 591.101 65.4678 590.34C65.6286 590.013 65.8082 589.686 66.0643 589.471C66.3501 589.231 66.7045 589.158 67.0458 589.161C67.8102 589.171 68.5471 589.542 69.1707 590.08C69.5646 590.421 69.936 590.859 70.0599 591.438C70.2335 592.25 69.8791 593.116 69.9443 593.956C70.0155 594.888 70.5914 595.802 70.2932 596.669C70.1952 596.955 70.0099 597.186 69.8044 597.365C69.4317 597.69 69.1328 597.76 68.9905 597.762Z" stroke="#FF6F89" stroke-miterlimit="10"/>
<path d="M68.9905 597.762C68.2015 597.647 67.4028 597.53 66.6613 597.186C65.9199 596.841 65.229 596.243 64.8595 595.372C64.5297 594.596 64.4831 593.659 64.6266 592.787C64.7701 591.916 65.0923 591.101 65.4678 590.34C65.6286 590.013 65.8082 589.686 66.0643 589.471C66.3501 589.231 66.7045 589.158 67.0458 589.161C67.8102 589.171 68.5471 589.542 69.1707 590.08C69.5646 590.421 69.936 590.859 70.0599 591.438C70.2335 592.25 69.8791 593.116 69.9443 593.956C70.0155 594.888 70.5914 595.802 70.2932 596.669C70.1952 596.955 70.0099 597.186 69.8044 597.365C69.4317 597.69 69.1328 597.76 68.9905 597.762Z" stroke="black" stroke-opacity="0.2" stroke-miterlimit="10"/>
<path d="M62.4973 613.422C61.7083 613.307 60.9096 613.19 60.1681 612.846C59.4267 612.502 58.7347 611.904 58.3663 611.033C58.0365 610.256 57.9888 609.32 58.1323 608.448C58.2758 607.577 58.5981 606.762 58.9735 606.001C59.1355 605.674 59.3139 605.347 59.57 605.132C59.8559 604.892 60.2102 604.819 60.5515 604.822C61.3159 604.832 62.0528 605.203 62.6765 605.741C63.0703 606.082 63.4417 606.52 63.5656 607.099C63.7392 607.912 63.3848 608.777 63.45 609.617C63.5212 610.549 64.0971 611.463 63.7989 612.33C63.7009 612.616 63.5156 612.847 63.3101 613.026C62.9385 613.35 62.6396 613.42 62.4973 613.422Z" stroke="#FF6F89" stroke-miterlimit="10"/>
<path d="M62.4973 613.422C61.7083 613.307 60.9096 613.19 60.1681 612.846C59.4267 612.502 58.7347 611.904 58.3663 611.033C58.0365 610.256 57.9888 609.32 58.1323 608.448C58.2758 607.577 58.5981 606.762 58.9735 606.001C59.1355 605.674 59.3139 605.347 59.57 605.132C59.8559 604.892 60.2102 604.819 60.5515 604.822C61.3159 604.832 62.0528 605.203 62.6765 605.741C63.0703 606.082 63.4417 606.52 63.5656 607.099C63.7392 607.912 63.3848 608.777 63.45 609.617C63.5212 610.549 64.0971 611.463 63.7989 612.33C63.7009 612.616 63.5156 612.847 63.3101 613.026C62.9385 613.35 62.6396 613.42 62.4973 613.422Z" stroke="black" stroke-opacity="0.2" stroke-miterlimit="10"/>
<path d="M66.7146 624.464C65.9256 624.349 65.1269 624.232 64.3854 623.888C63.644 623.543 62.9531 622.945 62.5836 622.074C62.2538 621.298 62.2072 620.361 62.3496 619.49C62.4931 618.619 62.8154 617.804 63.1908 617.043C63.3517 616.716 63.5312 616.388 63.7873 616.173C64.0732 615.933 64.4275 615.861 64.7688 615.864C65.5332 615.873 66.2701 616.245 66.8938 616.783C67.2876 617.123 67.659 617.561 67.7829 618.14C67.9565 618.953 67.6021 619.819 67.6673 620.659C67.7385 621.59 68.3144 622.504 68.0162 623.371C67.9182 623.657 67.7329 623.889 67.5274 624.067C67.1558 624.392 66.8569 624.462 66.7146 624.464Z" stroke="#FF6F89" stroke-miterlimit="10"/>
<path d="M66.7146 624.464C65.9256 624.349 65.1269 624.232 64.3854 623.888C63.644 623.543 62.9531 622.945 62.5836 622.074C62.2538 621.298 62.2072 620.361 62.3496 619.49C62.4931 618.619 62.8154 617.804 63.1908 617.043C63.3517 616.716 63.5312 616.388 63.7873 616.173C64.0732 615.933 64.4275 615.861 64.7688 615.864C65.5332 615.873 66.2701 616.245 66.8938 616.783C67.2876 617.123 67.659 617.561 67.7829 618.14C67.9565 618.953 67.6021 619.819 67.6673 620.659C67.7385 621.59 68.3144 622.504 68.0162 623.371C67.9182 623.657 67.7329 623.889 67.5274 624.067C67.1558 624.392 66.8569 624.462 66.7146 624.464Z" stroke="black" stroke-opacity="0.2" stroke-miterlimit="10"/>
<path d="M67.337 635.392C66.5481 635.277 65.7493 635.161 65.0079 634.816C64.2664 634.472 63.5756 633.873 63.206 633.003C62.8762 632.226 62.8296 631.289 62.9727 630.42C63.1162 629.549 63.4384 628.733 63.8139 627.973C63.9758 627.645 64.1543 627.318 64.4104 627.103C64.6963 626.863 65.0506 626.79 65.3919 626.794C66.1563 626.803 66.8932 627.175 67.5169 627.713C67.9101 628.052 68.2821 628.491 68.406 629.07C68.5796 629.883 68.2252 630.749 68.2904 631.589C68.3616 632.52 68.9375 633.434 68.6393 634.301C68.5413 634.587 68.356 634.819 68.1505 634.997C67.7776 635.319 67.4788 635.389 67.337 635.392Z" stroke="#FF6F89" stroke-miterlimit="10"/>
<path d="M67.337 635.392C66.5481 635.277 65.7493 635.161 65.0079 634.816C64.2664 634.472 63.5756 633.873 63.206 633.003C62.8762 632.226 62.8296 631.289 62.9727 630.42C63.1162 629.549 63.4384 628.733 63.8139 627.973C63.9758 627.645 64.1543 627.318 64.4104 627.103C64.6963 626.863 65.0506 626.79 65.3919 626.794C66.1563 626.803 66.8932 627.175 67.5169 627.713C67.9101 628.052 68.2821 628.491 68.406 629.07C68.5796 629.883 68.2252 630.749 68.2904 631.589C68.3616 632.52 68.9375 633.434 68.6393 634.301C68.5413 634.587 68.356 634.819 68.1505 634.997C67.7776 635.319 67.4788 635.389 67.337 635.392Z" stroke="black" stroke-opacity="0.2" stroke-miterlimit="10"/>
<path d="M678.061 649.761C671.705 648.624 666.901 643.744 663.724 638.301C660.545 632.859 658.62 626.715 655.659 621.142C648.568 607.796 635.334 598.14 620.157 595.242C616.358 594.517 612.447 594.192 608.736 593.184" stroke="#FF6F89" stroke-miterlimit="10"/>
<path d="M678.061 649.761C671.705 648.624 666.901 643.744 663.724 638.301C660.545 632.859 658.62 626.715 655.659 621.142C648.568 607.796 635.334 598.14 620.157 595.242C616.358 594.517 612.447 594.192 608.736 593.184" stroke="black" stroke-opacity="0.2" stroke-miterlimit="10"/>
<path d="M673.578 648.179C673.97 647.134 670.547 641.956 670.496 638.516C670.446 635.076 670.943 631.592 670.703 628.174C670.585 626.499 670.258 624.776 669.207 623.529C668.692 622.918 667.749 622.446 667.062 622.971C666.804 623.168 666.646 623.469 666.519 623.764C665.811 625.408 665.754 627.212 665.894 628.932C666.247 633.259 668.343 637.348 670.886 640.718" stroke="#FF6F89" stroke-miterlimit="10"/>
<path d="M673.578 648.179C673.97 647.134 670.547 641.956 670.496 638.516C670.446 635.076 670.943 631.592 670.703 628.174C670.585 626.499 670.258 624.776 669.207 623.529C668.692 622.918 667.749 622.446 667.062 622.971C666.804 623.168 666.646 623.469 666.519 623.764C665.811 625.408 665.754 627.212 665.894 628.932C666.247 633.259 668.343 637.348 670.886 640.718" stroke="black" stroke-opacity="0.2" stroke-miterlimit="10"/>
<path d="M668.619 644.708C666.186 644.48 663.593 645.832 661.146 645.694C659.958 645.627 658.847 645.214 657.77 644.778C656.929 644.438 656.073 644.064 655.474 643.4C654.875 642.736 654.595 641.705 655.038 640.854C655.508 639.954 656.623 639.539 657.611 639.548C658.937 639.56 660.154 640.167 661.128 640.989C662.102 641.812 662.867 642.846 663.641 643.859C664.022 644.357 664.434 644.872 665.03 645.096" stroke="#FF6F89" stroke-miterlimit="10"/>
<path d="M668.619 644.708C666.186 644.48 663.593 645.832 661.146 645.694C659.958 645.627 658.847 645.214 657.77 644.778C656.929 644.438 656.073 644.064 655.474 643.4C654.875 642.736 654.595 641.705 655.038 640.854C655.508 639.954 656.623 639.539 657.611 639.548C658.937 639.56 660.154 640.167 661.128 640.989C662.102 641.812 662.867 642.846 663.641 643.859C664.022 644.357 664.434 644.872 665.03 645.096" stroke="black" stroke-opacity="0.2" stroke-miterlimit="10"/>
<path d="M659.76 630.084C659.054 630.654 655.947 630.199 654.152 630.928C652.617 631.551 651.067 632.156 649.466 632.499C647.865 632.842 646.197 632.912 644.686 632.464C643.659 632.161 642.681 631.581 642.194 630.645C642.01 630.291 641.908 629.839 642.127 629.472C642.267 629.236 642.514 629.082 642.753 628.945C643.399 628.572 644.071 628.241 644.774 628.021C645.363 627.837 645.97 627.733 646.576 627.676C649.824 627.374 653.069 628.485 655.288 630.661" stroke="#FF6F89" stroke-miterlimit="10"/>
<path d="M659.76 630.084C659.054 630.654 655.947 630.199 654.152 630.928C652.617 631.551 651.067 632.156 649.466 632.499C647.865 632.842 646.197 632.912 644.686 632.464C643.659 632.161 642.681 631.581 642.194 630.645C642.01 630.291 641.908 629.839 642.127 629.472C642.267 629.236 642.514 629.082 642.753 628.945C643.399 628.572 644.071 628.241 644.774 628.021C645.363 627.837 645.97 627.733 646.576 627.676C649.824 627.374 653.069 628.485 655.288 630.661" stroke="black" stroke-opacity="0.2" stroke-miterlimit="10"/>
<path d="M658.916 628.124C658.21 626.288 658.443 624.603 658.799 622.59C659.155 620.578 659.732 618.583 659.906 616.561C660.122 614.05 659.705 611.56 658.911 609.244C658.094 606.859 656.716 604.491 654.355 603.586C653.955 603.433 653.445 603.344 653.099 603.646C652.95 603.776 652.86 603.96 652.795 604.144C652.564 604.812 652.627 605.52 652.735 606.192C653.12 608.585 654.028 610.822 654.93 613.036C655.367 614.112 655.812 615.199 656.486 616.132C657.318 617.284 658.466 618.157 659.6 619.017" stroke="#FF6F89" stroke-miterlimit="10"/>
<path d="M658.916 628.124C658.21 626.288 658.443 624.603 658.799 622.59C659.155 620.578 659.732 618.583 659.906 616.561C660.122 614.05 659.705 611.56 658.911 609.244C658.094 606.859 656.716 604.491 654.355 603.586C653.955 603.433 653.445 603.344 653.099 603.646C652.95 603.776 652.86 603.96 652.795 604.144C652.564 604.812 652.627 605.52 652.735 606.192C653.12 608.585 654.028 610.822 654.93 613.036C655.367 614.112 655.812 615.199 656.486 616.132C657.318 617.284 658.466 618.157 659.6 619.017" stroke="black" stroke-opacity="0.2" stroke-miterlimit="10"/>
<path d="M655.782 621.3C654.771 621.024 653.942 620.098 652.701 619.835C650.806 619.433 648.827 619.393 646.857 619.427C645.607 619.447 644.341 619.496 643.138 619.246C640.624 618.725 638.549 616.83 637.812 614.402C637.783 614.303 637.754 614.199 637.776 614.092C637.822 613.872 638.058 613.741 638.27 613.653C639.952 612.963 641.8 613.022 643.514 613.344C644.348 613.501 645.176 613.721 645.895 614.135C646.42 614.438 646.877 614.836 647.33 615.233C648.778 616.5 650.277 617.628 650.908 619.468" stroke="#FF6F89" stroke-miterlimit="10"/>
<path d="M655.782 621.3C654.771 621.024 653.942 620.098 652.701 619.835C650.806 619.433 648.827 619.393 646.857 619.427C645.607 619.447 644.341 619.496 643.138 619.246C640.624 618.725 638.549 616.83 637.812 614.402C637.783 614.303 637.754 614.199 637.776 614.092C637.822 613.872 638.058 613.741 638.27 613.653C639.952 612.963 641.8 613.022 643.514 613.344C644.348 613.501 645.176 613.721 645.895 614.135C646.42 614.438 646.877 614.836 647.33 615.233C648.778 616.5 650.277 617.628 650.908 619.468" stroke="black" stroke-opacity="0.2" stroke-miterlimit="10"/>
<path d="M648.923 611.465C648.418 609.777 647.391 607.812 647.165 605.875C646.874 603.367 647.078 600.791 646.941 598.258C646.763 594.965 645.955 591.65 643.927 589.175C643.173 588.256 642.268 587.471 641.318 586.752C640.673 586.264 639.984 585.795 639.172 585.631C638.488 585.492 637.646 585.641 637.224 586.24C636.694 586.994 637.096 587.953 637.42 588.754C638.15 590.559 638.395 592.566 639.204 594.332C640.63 597.443 643.674 599.482 646.925 600.645" stroke="#FF6F89" stroke-miterlimit="10"/>
<path d="M648.923 611.465C648.418 609.777 647.391 607.812 647.165 605.875C646.874 603.367 647.078 600.791 646.941 598.258C646.763 594.965 645.955 591.65 643.927 589.175C643.173 588.256 642.268 587.471 641.318 586.752C640.673 586.264 639.984 585.795 639.172 585.631C638.488 585.492 637.646 585.641 637.224 586.24C636.694 586.994 637.096 587.953 637.42 588.754C638.15 590.559 638.395 592.566 639.204 594.332C640.63 597.443 643.674 599.482 646.925 600.645" stroke="black" stroke-opacity="0.2" stroke-miterlimit="10"/>
<path d="M643.281 606.1C639.683 605.238 635.728 606.21 631.95 606.429C630.731 606.5 629.479 606.492 628.386 606.042C627.536 605.691 626.831 605.091 626.142 604.498C625.495 603.94 624.829 603.353 624.513 602.551C624.478 602.462 624.447 602.362 624.485 602.269C624.53 602.16 624.65 602.102 624.757 602.054C625.142 601.884 625.526 601.716 625.911 601.547C626.704 601.199 627.5 600.849 628.328 600.621C631.167 599.839 634.274 600.645 636.178 602.656C637.041 603.569 637.655 604.686 638.261 605.792" stroke="#FF6F89" stroke-miterlimit="10"/>
<path d="M643.281 606.1C639.683 605.238 635.728 606.21 631.95 606.429C630.731 606.5 629.479 606.492 628.386 606.042C627.536 605.691 626.831 605.091 626.142 604.498C625.495 603.94 624.829 603.353 624.513 602.551C624.478 602.462 624.447 602.362 624.485 602.269C624.53 602.16 624.65 602.102 624.757 602.054C625.142 601.884 625.526 601.716 625.911 601.547C626.704 601.199 627.5 600.849 628.328 600.621C631.167 599.839 634.274 600.645 636.178 602.656C637.041 603.569 637.655 604.686 638.261 605.792" stroke="black" stroke-opacity="0.2" stroke-miterlimit="10"/>
<path d="M635.916 601.114C635.152 598.614 635.159 595.894 634.673 593.306C634.186 590.717 633.05 588.086 630.736 586.897C630.1 586.57 629.258 586.388 628.646 586.847C627.988 587.341 627.959 588.279 628.033 589.057C628.247 591.319 628.846 593.693 630.597 595.051C632.075 596.198 633.73 596.154 635.164 597.353" stroke="#FF6F89" stroke-miterlimit="10"/>
<path d="M635.916 601.114C635.152 598.614 635.159 595.894 634.673 593.306C634.186 590.717 633.05 588.086 630.736 586.897C630.1 586.57 629.258 586.388 628.646 586.847C627.988 587.341 627.959 588.279 628.033 589.057C628.247 591.319 628.846 593.693 630.597 595.051C632.075 596.198 633.73 596.154 635.164 597.353" stroke="black" stroke-opacity="0.2" stroke-miterlimit="10"/>
<path d="M618.168 594.928C617.004 592.333 616.416 589.177 615.403 586.259C614.568 583.852 613.056 581.728 611.072 580.173C610.117 579.425 608.94 578.783 607.68 578.994C606.93 579.119 606.112 579.749 606.215 580.479C606.251 580.73 606.39 580.945 606.526 581.152C607.063 581.968 607.601 582.784 608.138 583.6C608.573 584.26 609.01 584.923 609.547 585.5C611.123 587.194 613.498 588.042 615.905 588.077" stroke="#FF6F89" stroke-miterlimit="10"/>
<path d="M618.168 594.928C617.004 592.333 616.416 589.177 615.403 586.259C614.568 583.852 613.056 581.728 611.072 580.173C610.117 579.425 608.94 578.783 607.68 578.994C606.93 579.119 606.112 579.749 606.215 580.479C606.251 580.73 606.39 580.945 606.526 581.152C607.063 581.968 607.601 582.784 608.138 583.6C608.573 584.26 609.01 584.923 609.547 585.5C611.123 587.194 613.498 588.042 615.905 588.077" stroke="black" stroke-opacity="0.2" stroke-miterlimit="10"/>
<path d="M617.322 594.706C615.651 597.109 612.678 599.312 609.861 599.873C608.307 600.183 606.716 600.148 605.181 600.569C604.441 600.771 603.726 601.077 602.998 601.33C602.792 601.401 602.503 601.433 602.439 601.236C602.404 601.131 602.461 601.012 602.518 600.909C604.287 597.745 608.112 595.753 611.568 596.197C612.384 596.301 613.17 596.526 613.951 596.75C614.343 596.863 614.734 596.975 615.126 597.088" stroke="#FF6F89" stroke-miterlimit="10"/>
<path d="M617.322 594.706C615.651 597.109 612.678 599.312 609.861 599.873C608.307 600.183 606.716 600.148 605.181 600.569C604.441 600.771 603.726 601.077 602.998 601.33C602.792 601.401 602.503 601.433 602.439 601.236C602.404 601.131 602.461 601.012 602.518 600.909C604.287 597.745 608.112 595.753 611.568 596.197C612.384 596.301 613.17 596.526 613.951 596.75C614.343 596.863 614.734 596.975 615.126 597.088" stroke="black" stroke-opacity="0.2" stroke-miterlimit="10"/>
<path d="M608.902 593.229C607.758 592.927 606.653 588.442 605.195 586.388C604.544 585.471 603.688 584.724 602.795 584.038C601.685 583.184 600.479 582.401 599.091 582.058C598.189 581.834 597.238 581.802 596.313 581.665C595.703 581.574 595.099 581.438 594.474 581.451C593.85 581.464 593.184 581.648 592.724 582.104C592.264 582.56 592.086 583.325 592.444 583.805C592.591 584.004 592.81 584.137 593.024 584.265C595.682 585.857 598.341 587.449 600.999 589.041C602.361 589.856 603.735 590.678 605.268 591.163C605.823 591.338 606.398 591.47 606.924 591.709C607.76 592.092 608.243 593.247 608.902 593.229Z" stroke="#FF6F89" stroke-miterlimit="10"/>
<path d="M608.902 593.229C607.758 592.927 606.653 588.442 605.195 586.388C604.544 585.471 603.688 584.724 602.795 584.038C601.685 583.184 600.479 582.401 599.091 582.058C598.189 581.834 597.238 581.802 596.313 581.665C595.703 581.574 595.099 581.438 594.474 581.451C593.85 581.464 593.184 581.648 592.724 582.104C592.264 582.56 592.086 583.325 592.444 583.805C592.591 584.004 592.81 584.137 593.024 584.265C595.682 585.857 598.341 587.449 600.999 589.041C602.361 589.856 603.735 590.678 605.268 591.163C605.823 591.338 606.398 591.47 606.924 591.709C607.76 592.092 608.243 593.247 608.902 593.229Z" stroke="black" stroke-opacity="0.2" stroke-miterlimit="10"/>
</g>
<defs>
<filter id="filter0_f_1_174" x="474.176" y="-241.72" width="1108.82" height="1173.04" filterUnits="userSpaceOnUse" color-interpolation-filters="sRGB">
<feFlood flood-opacity="0" result="BackgroundImageFix"/>
<feBlend mode="normal" in="SourceGraphic" in2="BackgroundImageFix" result="shape"/>
<feGaussianBlur stdDeviation="8" result="effect1_foregroundBlur_1_174"/>
</filter>
<filter id="filter1_f_1_174" x="-97" y="281" width="845.549" height="635.776" filterUnits="userSpaceOnUse" color-interpolation-filters="sRGB">
<feFlood flood-opacity="0" result="BackgroundImageFix"/>
<feBlend mode="normal" in="SourceGraphic" in2="BackgroundImageFix" result="shape"/>
<feGaussianBlur stdDeviation="8" result="effect1_foregroundBlur_1_174"/>
</filter>
<linearGradient id="paint0_linear_1_174" x1="1426" y1="-262" x2="616" y2="516.5" gradientUnits="userSpaceOnUse">
<stop stop-color="#FFACC0"/>
<stop offset="1" stop-color="#FFC1D0" stop-opacity="0"/>
</linearGradient>
<linearGradient id="paint1_linear_1_174" x1="-246" y1="1252.5" x2="552" y2="206" gradientUnits="userSpaceOnUse">
<stop stop-color="#A5E9EF"/>
<stop offset="1" stop-color="#BEF3F8" stop-opacity="0"/>
</linearGradient>
<clipPath id="clip0_1_174">
<rect width="1440" height="650" fill="white"/>
</clipPath>
</defs>
</svg>
