<svg width="250" height="64" viewBox="0 0 250 64" fill="none" xmlns="http://www.w3.org/2000/svg">
<rect width="250" height="64" rx="32" fill="#212121"/>
<path d="M43 44C49.6274 44 55 38.6274 55 32C55 25.3726 49.6274 20 43 20C36.3726 20 31 25.3726 31 32C31 38.6274 36.3726 44 43 44Z" stroke="#FDD8E3" stroke-width="2" stroke-miterlimit="10"/>
<path d="M47 32L41 28V36L47 32Z" stroke="#FDD8E3" stroke-width="2" stroke-linecap="round" stroke-linejoin="round"/>
<path d="M88.68 26.88L85.384 38H83.32L80.984 29.584L78.504 38L76.456 38.016L73.304 26.88H75.24L77.544 35.936L80.04 26.88H82.088L84.408 35.888L86.728 26.88H88.68ZM89.5764 33.552C89.5764 32.6667 89.7577 31.8827 90.1204 31.2C90.4937 30.5173 90.995 29.9893 91.6244 29.616C92.2644 29.232 92.9684 29.04 93.7364 29.04C94.4297 29.04 95.0324 29.1787 95.5444 29.456C96.067 29.7227 96.483 30.0587 96.7924 30.464V29.184H98.6324V38H96.7924V36.688C96.483 37.104 96.0617 37.4507 95.5284 37.728C94.995 38.0053 94.387 38.144 93.7044 38.144C92.947 38.144 92.2537 37.952 91.6244 37.568C90.995 37.1733 90.4937 36.6293 90.1204 35.936C89.7577 35.232 89.5764 34.4373 89.5764 33.552ZM96.7924 33.584C96.7924 32.976 96.6644 32.448 96.4084 32C96.163 31.552 95.8377 31.2107 95.4324 30.976C95.027 30.7413 94.5897 30.624 94.1204 30.624C93.651 30.624 93.2137 30.7413 92.8084 30.976C92.403 31.2 92.0724 31.536 91.8164 31.984C91.571 32.4213 91.4484 32.944 91.4484 33.552C91.4484 34.16 91.571 34.6933 91.8164 35.152C92.0724 35.6107 92.403 35.9627 92.8084 36.208C93.2244 36.4427 93.6617 36.56 94.1204 36.56C94.5897 36.56 95.027 36.4427 95.4324 36.208C95.8377 35.9733 96.163 35.632 96.4084 35.184C96.6644 34.7253 96.7924 34.192 96.7924 33.584ZM103.156 30.672V35.552C103.156 35.8827 103.231 36.1227 103.38 36.272C103.54 36.4107 103.807 36.48 104.18 36.48H105.3V38H103.86C103.039 38 102.409 37.808 101.972 37.424C101.535 37.04 101.316 36.416 101.316 35.552V30.672H100.276V29.184H101.316V26.992H103.156V29.184H105.3V30.672H103.156ZM106.373 33.584C106.373 32.6773 106.555 31.8827 106.917 31.2C107.291 30.5067 107.803 29.9733 108.453 29.6C109.104 29.2267 109.851 29.04 110.693 29.04C111.76 29.04 112.64 29.296 113.333 29.808C114.037 30.3093 114.512 31.0293 114.757 31.968H112.789C112.629 31.5307 112.373 31.1893 112.021 30.944C111.669 30.6987 111.227 30.576 110.693 30.576C109.947 30.576 109.349 30.8427 108.901 31.376C108.464 31.8987 108.245 32.6347 108.245 33.584C108.245 34.5333 108.464 35.2747 108.901 35.808C109.349 36.3413 109.947 36.608 110.693 36.608C111.749 36.608 112.448 36.144 112.789 35.216H114.757C114.501 36.112 114.021 36.8267 113.317 37.36C112.613 37.8827 111.739 38.144 110.693 38.144C109.851 38.144 109.104 37.9573 108.453 37.584C107.803 37.2 107.291 36.6667 106.917 35.984C106.555 35.2907 106.373 34.4907 106.373 33.584ZM121.135 29.04C121.807 29.04 122.404 29.184 122.927 29.472C123.46 29.76 123.876 30.1867 124.175 30.752C124.484 31.3173 124.639 32 124.639 32.8V38H122.831V33.072C122.831 32.2827 122.634 31.68 122.239 31.264C121.844 30.8373 121.306 30.624 120.623 30.624C119.94 30.624 119.396 30.8373 118.991 31.264C118.596 31.68 118.399 32.2827 118.399 33.072V38H116.575V26.16H118.399V30.208C118.708 29.8347 119.098 29.5467 119.567 29.344C120.047 29.1413 120.57 29.04 121.135 29.04ZM134.946 38.144C134.114 38.144 133.362 37.9573 132.69 37.584C132.018 37.2 131.49 36.6667 131.106 35.984C130.722 35.2907 130.53 34.4907 130.53 33.584C130.53 32.688 130.727 31.8933 131.122 31.2C131.517 30.5067 132.055 29.9733 132.738 29.6C133.421 29.2267 134.183 29.04 135.026 29.04C135.869 29.04 136.631 29.2267 137.314 29.6C137.997 29.9733 138.535 30.5067 138.93 31.2C139.325 31.8933 139.522 32.688 139.522 33.584C139.522 34.48 139.319 35.2747 138.914 35.968C138.509 36.6613 137.954 37.2 137.25 37.584C136.557 37.9573 135.789 38.144 134.946 38.144ZM134.946 36.56C135.415 36.56 135.853 36.448 136.258 36.224C136.674 36 137.01 35.664 137.266 35.216C137.522 34.768 137.65 34.224 137.65 33.584C137.65 32.944 137.527 32.4053 137.282 31.968C137.037 31.52 136.711 31.184 136.306 30.96C135.901 30.736 135.463 30.624 134.994 30.624C134.525 30.624 134.087 30.736 133.682 30.96C133.287 31.184 132.973 31.52 132.738 31.968C132.503 32.4053 132.386 32.944 132.386 33.584C132.386 34.5333 132.626 35.2693 133.106 35.792C133.597 36.304 134.21 36.56 134.946 36.56ZM145.773 29.04C146.466 29.04 147.085 29.184 147.629 29.472C148.184 29.76 148.616 30.1867 148.925 30.752C149.234 31.3173 149.389 32 149.389 32.8V38H147.581V33.072C147.581 32.2827 147.384 31.68 146.989 31.264C146.594 30.8373 146.056 30.624 145.373 30.624C144.69 30.624 144.146 30.8373 143.741 31.264C143.346 31.68 143.149 32.2827 143.149 33.072V38H141.325V29.184H143.149V30.192C143.448 29.8293 143.826 29.5467 144.285 29.344C144.754 29.1413 145.25 29.04 145.773 29.04ZM164.112 26.88L160.432 33.968V38H158.608V33.968L154.912 26.88H156.944L159.52 32.336L162.096 26.88H164.112ZM169.383 38.144C168.551 38.144 167.799 37.9573 167.127 37.584C166.455 37.2 165.927 36.6667 165.543 35.984C165.159 35.2907 164.967 34.4907 164.967 33.584C164.967 32.688 165.165 31.8933 165.559 31.2C165.954 30.5067 166.493 29.9733 167.175 29.6C167.858 29.2267 168.621 29.04 169.463 29.04C170.306 29.04 171.069 29.2267 171.751 29.6C172.434 29.9733 172.973 30.5067 173.367 31.2C173.762 31.8933 173.959 32.688 173.959 33.584C173.959 34.48 173.757 35.2747 173.351 35.968C172.946 36.6613 172.391 37.2 171.687 37.584C170.994 37.9573 170.226 38.144 169.383 38.144ZM169.383 36.56C169.853 36.56 170.29 36.448 170.695 36.224C171.111 36 171.447 35.664 171.703 35.216C171.959 34.768 172.087 34.224 172.087 33.584C172.087 32.944 171.965 32.4053 171.719 31.968C171.474 31.52 171.149 31.184 170.743 30.96C170.338 30.736 169.901 30.624 169.431 30.624C168.962 30.624 168.525 30.736 168.119 30.96C167.725 31.184 167.41 31.52 167.175 31.968C166.941 32.4053 166.823 32.944 166.823 33.584C166.823 34.5333 167.063 35.2693 167.543 35.792C168.034 36.304 168.647 36.56 169.383 36.56ZM183.747 29.184V38H181.923V36.96C181.635 37.3227 181.256 37.6107 180.787 37.824C180.328 38.0267 179.837 38.128 179.315 38.128C178.621 38.128 177.997 37.984 177.443 37.696C176.899 37.408 176.467 36.9813 176.147 36.416C175.837 35.8507 175.683 35.168 175.683 34.368V29.184H177.491V34.096C177.491 34.8853 177.688 35.4933 178.083 35.92C178.477 36.336 179.016 36.544 179.699 36.544C180.381 36.544 180.92 36.336 181.315 35.92C181.72 35.4933 181.923 34.8853 181.923 34.096V29.184H183.747ZM188.281 30.672V35.552C188.281 35.8827 188.356 36.1227 188.505 36.272C188.665 36.4107 188.932 36.48 189.305 36.48H190.425V38H188.985C188.164 38 187.534 37.808 187.097 37.424C186.66 37.04 186.441 36.416 186.441 35.552V30.672H185.401V29.184H186.441V26.992H188.281V29.184H190.425V30.672H188.281ZM200.09 29.184V38H198.266V36.96C197.978 37.3227 197.6 37.6107 197.13 37.824C196.672 38.0267 196.181 38.128 195.658 38.128C194.965 38.128 194.341 37.984 193.786 37.696C193.242 37.408 192.81 36.9813 192.49 36.416C192.181 35.8507 192.026 35.168 192.026 34.368V29.184H193.834V34.096C193.834 34.8853 194.032 35.4933 194.426 35.92C194.821 36.336 195.36 36.544 196.042 36.544C196.725 36.544 197.264 36.336 197.658 35.92C198.064 35.4933 198.266 34.8853 198.266 34.096V29.184H200.09ZM204.321 30.496C204.63 30.0693 205.052 29.7227 205.585 29.456C206.129 29.1787 206.732 29.04 207.393 29.04C208.172 29.04 208.876 29.2267 209.505 29.6C210.134 29.9733 210.63 30.5067 210.993 31.2C211.356 31.8827 211.537 32.6667 211.537 33.552C211.537 34.4373 211.356 35.232 210.993 35.936C210.63 36.6293 210.129 37.1733 209.489 37.568C208.86 37.952 208.161 38.144 207.393 38.144C206.71 38.144 206.102 38.0107 205.569 37.744C205.046 37.4773 204.63 37.136 204.321 36.72V38H202.497V26.16H204.321V30.496ZM209.681 33.552C209.681 32.944 209.553 32.4213 209.297 31.984C209.052 31.536 208.721 31.2 208.305 30.976C207.9 30.7413 207.462 30.624 206.993 30.624C206.534 30.624 206.097 30.7413 205.681 30.976C205.276 31.2107 204.945 31.552 204.689 32C204.444 32.448 204.321 32.976 204.321 33.584C204.321 34.192 204.444 34.7253 204.689 35.184C204.945 35.632 205.276 35.9733 205.681 36.208C206.097 36.4427 206.534 36.56 206.993 36.56C207.462 36.56 207.9 36.4427 208.305 36.208C208.721 35.9627 209.052 35.6107 209.297 35.152C209.553 34.6933 209.681 34.16 209.681 33.552ZM221.421 33.376C221.421 33.7067 221.399 34.0053 221.357 34.272H214.621C214.674 34.976 214.935 35.5413 215.405 35.968C215.874 36.3947 216.45 36.608 217.133 36.608C218.114 36.608 218.807 36.1973 219.213 35.376H221.181C220.914 36.1867 220.429 36.8533 219.725 37.376C219.031 37.888 218.167 38.144 217.133 38.144C216.29 38.144 215.533 37.9573 214.861 37.584C214.199 37.2 213.677 36.6667 213.293 35.984C212.919 35.2907 212.733 34.4907 212.733 33.584C212.733 32.6773 212.914 31.8827 213.277 31.2C213.65 30.5067 214.167 29.9733 214.829 29.6C215.501 29.2267 216.269 29.04 217.133 29.04C217.965 29.04 218.706 29.2213 219.357 29.584C220.007 29.9467 220.514 30.4587 220.877 31.12C221.239 31.7707 221.421 32.5227 221.421 33.376ZM219.517 32.8C219.506 32.128 219.266 31.5893 218.797 31.184C218.327 30.7787 217.746 30.576 217.053 30.576C216.423 30.576 215.885 30.7787 215.437 31.184C214.989 31.5787 214.722 32.1173 214.637 32.8H219.517Z" fill="#FDD8E3"/>
</svg>
