<svg width="231" height="103" viewBox="0 0 231 103" fill="none" xmlns="http://www.w3.org/2000/svg">
<path d="M54.799 1.71948C58.8157 1.71948 61.8487 1.88323 63.857 2.1698C66.2752 2.53824 67.4638 3.39794 67.4638 4.66702C67.4638 8.35144 67.3818 11.9949 67.1769 15.5975C67.1769 21.3697 67.4228 26.446 67.9557 30.8264C68.2016 33.8149 68.7344 36.4349 69.5541 38.7274C70.087 39.9965 70.3329 40.9381 70.3329 41.4703C70.2099 42.1253 69.8 42.4528 69.0623 42.4528C68.3655 42.4528 67.8737 42.1253 67.6687 41.4703C65.8244 37.6221 64.9227 28.9842 64.9227 15.6384C64.9636 11.7902 64.9636 8.51519 64.9636 5.81328C64.9636 4.95358 63.898 4.50327 61.7257 4.50327C59.8813 4.2167 57.4631 4.05295 54.4301 4.05295C51.643 4.05295 49.1838 4.13482 47.0935 4.29858C45.1262 4.5442 44.1425 5.03546 44.1425 5.77234C44.1425 9.53864 44.1425 13.264 44.1425 16.9894C44.1425 28.6567 43.1588 36.8443 41.2324 41.634C41.1505 42.1662 40.7816 42.4118 40.1258 42.4118C39.2241 42.4118 38.7733 42.0434 38.7733 41.2656C40.8226 36.2712 41.8472 28.1654 41.8472 16.9894C41.8472 10.3165 41.7653 6.14079 41.5603 4.46233C41.6423 3.19325 42.8309 2.33355 45.1672 1.92417C47.5034 1.80136 50.6593 1.71948 54.799 1.71948ZM49.8396 15.27C51.1102 15.1471 52.3398 15.0653 53.4464 15.0653C53.4054 14.6968 53.4054 14.2874 53.4054 13.8781C53.3235 11.7084 53.2415 10.3165 53.2415 9.66145C51.9709 9.90708 50.6593 10.1118 49.3478 10.2346C48.0772 10.7668 47.1755 11.0533 46.6837 11.0533C46.0689 11.0533 45.741 10.603 45.7 9.66145C45.7 9.29301 46.9296 8.80176 49.3478 8.10581C52.2168 7.73737 55.0039 7.4508 57.668 7.32799C58.2828 7.32799 58.7747 6.95955 59.1026 6.18172C59.2255 5.56765 59.5534 5.28109 60.1272 5.28109C60.9879 5.28109 61.4388 5.64953 61.4388 6.42735C61.3568 7.53268 60.783 8.3105 59.7993 8.71988C59.2665 9.21113 57.914 9.45676 55.6597 9.45676C55.6597 11.258 55.6597 13.1412 55.6597 15.1062C56.6844 15.1062 57.709 15.1062 58.7337 15.1062C58.7747 14.7378 58.7747 14.3284 58.7747 13.919C58.9386 13.1821 59.3895 12.8137 60.1272 12.8137C60.865 12.9365 61.2339 13.4277 61.2339 14.2874C61.2339 16.8665 61.0289 18.7906 60.6601 20.0597C60.3731 22.516 58.6517 23.9488 55.4958 24.2763C55.1679 25.832 54.4711 26.9782 53.3645 27.797C51.766 28.6976 50.9462 29.5983 50.9462 30.458C51.0282 32.1774 52.3398 32.9961 54.9629 32.9961C57.5451 32.9961 58.8566 32.1364 58.9796 30.458C58.9796 29.5983 58.5288 28.9023 57.6271 28.3292C56.8073 28.1245 56.4384 27.797 56.4384 27.4285C56.6024 26.7735 57.0532 26.4051 57.791 26.4051C58.4468 26.4051 59.3485 26.8554 60.4961 27.797C61.1929 28.5748 61.5618 29.3936 61.5618 30.2533C61.5618 33.4874 59.3895 35.1658 55.0859 35.2886C50.7413 35.2886 48.569 33.6511 48.569 30.417C48.569 29.1479 49.1838 28.0426 50.4544 27.1829C51.4381 26.6507 52.1349 25.9957 52.6267 25.2588C52.8316 25.0132 53.0366 24.6857 53.1595 24.2354C49.8396 23.8669 48.0772 22.3932 47.7903 19.8141C47.5854 18.2994 47.4624 16.3343 47.4624 13.8371C47.6263 13.2231 47.9542 12.9365 48.4871 12.9365C49.3068 12.9365 49.7167 13.2231 49.7986 13.8371C49.8396 14.4103 49.8396 14.8606 49.8396 15.27ZM53.4874 22.1475C53.4874 20.3872 53.4874 18.7497 53.4464 17.194C52.3808 17.194 51.1922 17.2759 49.8806 17.3987C49.9216 18.1356 49.9626 18.7906 50.0445 19.3228C50.0855 20.9603 51.2332 21.9019 53.4874 22.1475ZM58.7337 17.194C57.75 17.194 56.7663 17.194 55.7007 17.194C55.7007 18.8725 55.7007 20.51 55.7007 22.1475C57.4221 21.7791 58.3238 20.8375 58.4878 19.3228C58.6107 18.7497 58.6927 18.0537 58.7337 17.194Z" fill="white"/>
<path d="M87.0964 18.9134C87.1374 28.9432 87.2603 36.353 87.4243 41.2655C87.4243 42.248 86.9324 42.7393 85.9897 42.7393C85.252 42.7393 84.8421 41.9205 84.8011 40.283C84.8011 34.3879 84.8011 28.4519 84.8011 22.5159C83.8584 23.785 83.0387 24.8903 82.3419 25.8319C81.4812 26.9782 80.8254 27.5513 80.4156 27.5513C79.7598 27.4285 79.3909 27.0191 79.3089 26.3641C79.3089 25.9957 79.5549 25.5044 80.0877 24.8903C80.9074 24.1125 81.6862 23.0891 82.4649 21.82C84.4732 18.9953 85.4569 17.1121 85.4569 16.1705C85.4569 15.188 84.2273 13.9599 81.8091 12.568C80.6615 11.913 80.0877 11.258 80.0877 10.6439C80.3336 9.98889 80.7844 9.62045 81.3992 9.62045C82.3419 9.62045 83.6125 10.3164 85.252 11.7492C87.1783 13.3049 88.162 14.7786 88.162 16.1705C88.0391 16.8665 87.7522 17.7671 87.0964 18.9134ZM87.0964 8.51512V9.62045C87.0964 10.4392 86.7275 10.8077 85.9897 10.8077C85.4569 10.8077 85.088 10.3573 84.8831 9.41576V8.51512C81.8501 8.22856 80.1287 6.42729 79.6778 3.11131C79.8008 2.4563 80.2106 2.1288 80.8254 2.1288C81.3992 2.1288 81.7271 2.4563 81.8501 3.11131C82.137 5.11727 83.1207 6.30447 84.8421 6.59104L84.8011 1.55567C84.8011 1.18722 85.17 0.900657 85.9078 0.655029C86.7685 0.655029 87.2193 0.941595 87.2193 1.55567L87.1783 6.59104C88.6539 6.18166 89.5556 5.07633 89.9244 3.27506C90.1704 2.78381 90.5392 2.49724 90.9901 2.37443C91.8098 2.37443 92.2607 2.74287 92.2607 3.47975C91.6869 6.42729 90.0064 8.10574 87.0964 8.51512ZM105.622 13.6733V13.878C105.499 16.8255 105.417 20.6328 105.417 25.2997C105.417 29.5163 103.409 32.9551 99.3513 35.4933C96.9741 37.4174 95.2527 39.5871 94.187 42.0433C93.9821 42.4118 93.6542 42.6165 93.1214 42.6165C92.5476 42.6165 92.2197 42.248 92.1377 41.4702C92.1377 40.2011 93.3263 38.1952 95.7035 35.4933C96.8102 34.2242 98.2037 32.9961 99.8022 31.8498C101.77 30.1713 102.794 27.9197 102.917 25.095C102.917 21.0012 102.999 17.194 103.204 13.6733C101.933 13.6733 100.622 13.6733 99.2694 13.6733C96.8512 13.6733 94.0641 13.7552 90.9491 13.878C90.0474 13.878 89.5556 13.4277 89.5146 12.568C89.5146 12.1586 89.8835 11.8311 90.6212 11.5445C92.3836 11.4627 95.1707 11.3398 98.9005 11.217C101.278 11.217 104.229 11.2989 107.713 11.4217C108.573 11.5036 109.024 11.913 109.024 12.568C109.024 13.3049 108.573 13.6733 107.713 13.6733C107.016 13.6733 106.319 13.6733 105.622 13.6733ZM93.0394 18.7087H97.5889V16.3752C97.8758 15.843 98.2037 15.5974 98.6136 15.5974C99.2694 15.5974 99.6792 15.843 99.7612 16.3752V25.095C99.6792 27.101 98.2447 28.1244 95.4166 28.1244C92.4656 28.1244 90.9901 27.101 90.9901 25.095V16.6208C91.195 16.0887 91.5229 15.8021 91.9738 15.8021C92.6705 15.8021 93.0394 16.0887 93.0394 16.6208V18.7087ZM97.5889 20.8375H92.9984V24.6447C93.0804 25.5453 93.8182 25.9957 95.2937 25.9957C96.8102 25.9138 97.5479 25.4635 97.5479 24.6447V20.8375H97.5889ZM102.917 8.51512V9.41576C102.917 10.2345 102.548 10.603 101.852 10.603C101.237 10.603 100.827 10.1526 100.663 9.25201V8.47419C97.7939 8.06481 96.1544 6.26354 95.7035 3.07037C95.8675 2.41536 96.2364 2.08786 96.8102 2.08786C97.466 2.08786 97.7938 2.41536 97.8758 3.07037C98.1627 4.95352 99.0644 6.09978 100.622 6.5501L100.581 1.67848C100.581 1.31004 100.991 0.982533 101.77 0.777843C102.589 0.777843 103.04 1.06441 103.04 1.67848L102.917 6.59104C104.311 6.18166 105.212 5.07633 105.622 3.27506C105.909 2.78381 106.237 2.49724 106.647 2.37443C107.549 2.37443 107.999 2.74287 107.999 3.47975C107.426 6.5501 105.745 8.22856 102.917 8.51512Z" fill="white"/>
<path d="M131.075 15.0652H127.181C127.181 16.7436 127.181 18.3402 127.181 19.814C129.067 19.9368 130.747 20.0596 132.141 20.1824C132.96 20.3053 133.452 20.7146 133.534 21.3696C133.534 21.9837 133.165 22.2703 132.386 22.2703C130.419 22.1475 128.698 22.0656 127.181 22.0656C127.181 24.0306 127.222 26.0775 127.263 28.2472L129.394 28.0425V26.4869C129.558 25.9956 129.927 25.7091 130.542 25.5863C131.403 25.7091 131.854 26.1185 131.854 26.7325L131.649 35.9845C131.649 38.932 129.845 40.4058 126.279 40.4058C122.427 40.4058 120.5 38.8502 120.5 35.7798L120.295 26.7325C120.5 25.9547 120.869 25.5863 121.484 25.5863C122.181 25.5863 122.591 25.8728 122.632 26.4869V28.2063H124.845C124.927 26.446 125.009 24.44 125.009 22.2293C123.369 22.2293 121.73 22.3931 120.132 22.6797C119.599 22.5159 119.271 22.0656 119.148 21.3287C119.148 20.6737 119.599 20.2643 120.541 20.1415C122.017 20.0187 123.492 19.8959 124.968 19.7731C124.927 18.2584 124.886 16.7436 124.804 15.188L121.074 15.3927L120.295 17.3168C120.091 17.6852 119.722 17.849 119.189 17.849C118.533 17.849 118.164 17.4805 118.164 16.7437C118.246 16.2115 120.377 11.1761 124.64 1.67847C125.009 1.0644 125.378 0.777832 125.747 0.777832C126.484 0.777832 127.017 1.14627 127.386 1.88316C131.895 11.0123 134.149 15.884 134.149 16.5799C134.149 17.3168 133.78 17.6852 133.042 17.6852C132.591 17.6852 132.182 17.4396 131.854 16.9483L131.075 15.0652ZM122.181 12.9364L130.05 12.7317L125.952 3.4388L122.181 12.9364ZM122.714 30.4169L122.755 35.8617C122.837 37.5401 124.066 38.3589 126.361 38.3589C128.247 38.3589 129.19 37.5811 129.19 36.0664L129.271 30.2532L122.714 30.4169ZM142.018 11.4217C142.141 11.6264 142.223 11.872 142.223 12.1586C142.223 12.2814 142.182 12.4452 142.059 12.6089C144.437 12.6089 145.994 12.7317 146.732 12.9774C147.961 13.1002 148.576 13.6324 148.576 14.533C148.494 15.9658 147.551 17.7262 145.748 19.8959C144.518 21.3287 143.535 22.1884 142.715 22.5978C143.084 23.744 143.289 25.095 143.289 26.6506C143.207 31.7679 141.895 36.0254 139.354 39.4233C137.059 42.248 135.256 43.6399 133.985 43.6399C133.452 43.6399 133.083 43.2715 132.96 42.4937C132.96 41.7158 133.452 41.0608 134.436 40.5696C136.034 39.2595 137.469 37.663 138.657 35.7389C140.133 33.2826 140.871 30.2122 140.871 26.446C140.871 23.8669 139.887 21.6971 137.961 19.8959C136.526 18.6268 135.788 17.6852 135.788 17.0712C135.87 16.539 136.157 16.1705 136.772 16.0477C137.92 16.0477 139.19 16.9483 140.543 18.7906C140.994 19.3227 141.363 19.814 141.69 20.2643C142.387 19.7731 143.043 19.1999 143.617 18.5449C145.01 16.8665 145.748 15.7202 145.748 15.1471C145.748 14.9014 144.641 14.7786 142.387 14.7786C140.379 14.7786 137.838 14.8605 134.723 14.9833C134.108 14.9833 133.739 14.5739 133.616 13.7961C133.616 13.182 134.067 12.7317 135.01 12.4452C137.141 12.6089 138.985 12.6908 140.584 12.6908C139.928 12.2814 139.067 11.5036 137.961 10.3164C136.69 8.92449 136.075 7.90104 136.075 7.28697C136.157 7.04135 136.321 6.75478 136.649 6.50915C136.813 6.3454 137.018 6.26352 137.223 6.26352C137.879 6.26352 138.944 7.16416 140.297 9.00637C140.584 9.252 140.83 9.5795 141.035 9.90701C141.322 9.53856 141.69 9.252 142.141 9.00637C144.109 7.04135 145.092 5.77227 145.092 5.1582C145.092 4.78976 144.682 4.58507 143.904 4.58507C142.182 4.58507 139.272 4.58507 135.092 4.58507C134.272 4.58507 133.903 4.25756 133.903 3.56162C133.985 2.82473 134.395 2.45629 135.215 2.45629C139.436 2.33348 142.797 2.2516 145.174 2.2516C146.773 2.37441 147.592 3.23411 147.592 4.74882C147.592 5.89508 147.019 7.2051 145.871 8.59699C144.314 10.0708 143.043 11.0123 142.018 11.4217Z" fill="white"/>
<path d="M171.283 30.2122C170.627 30.2122 170.258 30.4987 170.176 31.0309C170.012 31.8906 169.725 32.9141 169.315 34.1013C168.782 35.616 168.127 36.885 167.43 37.9494C166.405 39.6279 165.872 40.5695 165.872 40.7742C165.954 41.5929 166.282 41.9614 166.897 41.9614C167.43 41.9614 167.881 41.7157 168.25 41.1835C169.151 40.0373 170.012 38.5226 170.791 36.7213C171.897 34.0194 172.43 32.2591 172.43 31.3584C172.43 30.6215 172.02 30.2122 171.283 30.2122Z" fill="white"/>
<path d="M185.915 17.8899C185.054 17.5215 184.193 17.1121 183.415 16.5799C184.685 15.5564 185.341 14.9833 185.341 14.8605C185.341 13.9599 184.89 13.4686 184.029 13.3048C183.866 13.3048 183.333 13.7552 182.39 14.6558C182.021 14.9014 181.775 15.1061 181.611 15.2289C181.078 14.8605 180.546 14.4511 180.054 14.0417C178.496 12.7727 177.636 11.6264 177.513 10.6439C178.619 10.7667 179.603 10.9714 180.464 11.217C181.734 11.5855 182.636 11.9539 183.169 12.3223C183.661 12.6089 184.152 12.7727 184.603 12.7727C185.259 12.7727 185.628 12.4452 185.628 11.7492C185.628 11.5445 185.341 11.217 184.767 10.8486C183.907 10.3164 182.964 9.82512 181.98 9.45668C180.628 8.96542 179.152 8.67885 177.513 8.55604V7.20509C177.513 6.83665 177.431 6.55008 177.308 6.42727C180.996 6.42727 184.111 6.50914 186.612 6.63196C187.308 6.63196 187.677 6.30445 187.677 5.60851C187.677 4.74881 187.062 4.29849 185.833 4.29849C182.841 4.13474 179.849 4.01192 176.816 3.84817C176.406 2.16971 175.832 1.02345 175.094 0.450318C174.726 0.163752 174.275 0 173.742 0C173.168 0.163752 172.84 0.532194 172.758 1.14626C173.25 2.08784 173.701 3.02941 174.111 4.05286C171.447 4.05286 168.823 4.21661 166.282 4.50318C164.11 4.74881 162.921 5.69038 162.798 7.3279C162.88 8.14666 162.88 9.0473 162.88 10.0298L162.921 12.1586C162.962 13.4277 162.962 14.9424 162.962 16.6208C162.88 17.8899 162.839 19.0771 162.757 20.2234L162.675 22.3521C162.266 29.4344 161.856 33.5692 161.487 34.6745C161.118 36.2301 160.626 37.8267 159.929 39.5461C159.397 40.5286 159.11 41.2655 159.11 41.6749C159.233 42.4118 159.602 42.7802 160.175 42.7802C160.831 42.7802 161.241 42.5346 161.487 42.0433C162.02 41.5111 162.471 40.3649 162.88 38.5227C163.413 36.7623 163.823 34.4698 164.151 31.6451C164.766 27.4285 165.135 22.3931 165.217 16.6208V8.10572C165.299 7.36884 165.831 6.91852 166.856 6.79571C169.602 6.55008 172.184 6.42727 174.562 6.42727H175.422C175.299 6.55008 175.217 6.75477 175.176 7.0004V8.55604C173.619 8.67885 171.938 9.0473 170.053 9.66137C167.963 10.7258 166.938 11.4217 166.938 11.7901C167.061 12.4452 167.471 12.8545 168.086 12.9773C168.537 12.9773 168.823 12.8545 168.946 12.6089C169.233 12.4452 169.643 12.2405 170.135 11.9948C171.815 11.2579 173.496 10.8076 175.176 10.6848V10.8895C175.176 11.6264 174.357 12.7727 172.758 14.2874C172.389 14.6967 171.979 15.0242 171.57 15.3108C171.365 15.188 171.078 14.9424 170.709 14.533C169.807 14.0008 169.192 13.6733 168.823 13.5505C168.209 13.6324 167.84 14.0827 167.758 14.9014C167.758 15.2699 168.291 15.8021 169.356 16.3752C169.561 16.3752 169.766 16.4571 169.93 16.6208C169.11 17.153 168.25 17.6443 167.389 18.0946C166.897 18.3402 166.446 18.5449 166.036 18.7087C165.586 18.9543 165.381 19.2409 165.381 19.4865C165.381 20.1006 165.749 20.469 166.528 20.6328C166.979 20.6328 167.594 20.4281 168.414 20.0187C169.52 19.5274 170.545 18.9543 171.529 18.2993C173.701 16.9074 175.258 15.3517 176.283 13.6733C177.39 14.9424 179.029 16.3752 181.119 17.8899C183.825 19.7321 185.669 20.6328 186.653 20.6328C187.39 20.6328 187.759 20.1824 187.759 19.2818C187.841 18.9134 187.185 18.463 185.915 17.8899Z" fill="white"/>
<path d="M182.554 30.8262C182.513 30.4578 182.185 30.2122 181.488 30.0894C180.833 30.294 180.505 30.7034 180.423 31.2356C180.505 31.6041 180.874 32.7503 181.611 34.6335C183.169 37.9904 184.48 40.2829 185.505 41.4292C185.751 41.6748 186.12 41.7976 186.571 41.7976C187.226 41.7976 187.554 41.4701 187.554 40.7742C187.554 40.1601 187.144 39.3004 186.284 38.1132C184.931 36.2301 183.661 33.8147 182.554 30.8262Z" fill="white"/>
<path d="M182.308 28.2881C183.333 27.9197 183.866 26.364 183.866 23.5393C183.866 20.9602 182.964 19.6092 181.16 19.4864C180.505 19.3636 178.865 19.2817 176.16 19.2817C173.783 19.2817 172.061 19.4046 170.996 19.6502C169.602 20.1414 168.905 21.5333 168.905 23.8668C168.987 26.3231 169.52 27.8378 170.545 28.4518C170.914 28.8612 172.512 29.1478 175.258 29.2706C175.258 36.3119 175.217 40.242 175.176 40.9789C175.176 42.1251 175.586 42.6983 176.365 42.6983C177.267 42.6983 177.718 42.207 177.718 41.2245C177.595 39.6689 177.513 35.6569 177.431 29.2706C179.849 29.1887 181.488 28.8612 182.308 28.2881ZM172.266 21.6152C173.25 21.3696 174.521 21.1649 176.119 21.0421C178.209 21.0421 179.685 21.1649 180.546 21.4105C181.119 21.4105 181.447 22.0655 181.529 23.3346L171.16 23.1299C171.324 22.1474 171.693 21.6152 172.266 21.6152ZM176.283 27.1828C173.619 27.1828 172.102 26.8553 171.734 26.1593C171.529 26.0365 171.324 25.6681 171.201 25.054H181.447C181.324 25.9137 180.996 26.405 180.546 26.5278C180.054 26.9781 178.619 27.1828 176.283 27.1828Z" fill="white"/>
<path d="M100.745 41.4702C101.36 41.4292 102.097 41.3883 103.081 41.3883C108.163 41.3883 111.032 42.5346 111.77 44.7862C112.016 45.4821 111.934 46.0962 111.647 46.7102L110.91 47.4881C110.787 47.6109 110.787 47.7746 110.869 47.8975C110.951 48.225 111.237 48.3887 111.77 48.3887C112.59 48.3887 113.246 48.1021 113.82 47.5699C114.803 47.4881 115.582 46.9559 116.197 45.9734C116.689 45.1955 116.853 44.3358 116.607 43.4352C115.91 40.5695 112.139 39.1367 105.294 39.1367H104.065C103.942 39.1367 103.655 39.1367 103.245 39.1777C97.5479 39.587 92.5886 40.8561 88.285 42.9849C87.5472 43.3124 86.8094 43.6399 86.1127 44.0083C81.0303 46.6284 77.7514 50.149 76.2759 54.5294C75.7431 56.126 75.4562 57.8044 75.4562 59.5238C75.4562 61.407 75.7841 63.6586 76.4399 66.2786C76.7677 67.6705 77.0547 68.653 77.2596 69.1852C78.0793 71.6006 78.6531 73.3609 78.94 74.5481C79.2679 75.899 79.4729 77.1681 79.4729 78.3144C79.4729 80.7297 78.3252 83.1451 76.071 85.5195C74.9234 86.7476 73.4478 87.812 71.6854 88.7126C68.1196 90.1864 63.5291 91.128 57.914 91.5374C56.7253 91.6192 55.9056 91.6602 55.4548 91.6602C51.643 91.6602 49.0199 90.7595 47.6263 88.9583C47.4624 88.8354 47.3804 88.6717 47.3804 88.5079C47.2575 88.0167 47.5034 87.5664 48.1592 87.157C48.3231 87.116 48.528 87.0342 48.692 86.9932C49.1428 86.8295 49.4297 86.6657 49.5527 86.502C49.7986 86.4201 50.1265 86.2973 50.4134 86.2154C51.1102 85.9698 51.4381 85.6832 51.3561 85.3557C51.2741 85.0691 50.9872 84.9463 50.4954 84.9463C49.4707 84.9463 48.3641 85.3148 47.1345 86.0517C46.4377 86.2564 45.7 86.6248 44.9622 87.1161C43.4457 88.0576 42.7899 89.122 42.9539 90.2683C43.3637 92.7246 46.6836 93.9527 52.9546 93.9527C54.0612 93.9527 55.2088 93.9118 56.3565 93.8299C61.7257 93.4205 66.4801 92.438 70.6198 90.8414C71.5625 90.473 72.4642 90.0636 73.3249 89.6542C78.3662 87.5254 81.6451 84.6598 83.1617 81.0163C83.7355 79.6653 84.0224 78.3144 84.0224 76.9634C84.0224 75.6944 83.8174 74.2206 83.4076 72.5831C83.2846 72.1327 83.1207 71.4777 82.8747 70.659C81.3992 66.033 80.5795 63.372 80.4565 62.717C80.1696 61.4889 80.0467 60.056 80.0467 58.4185C80.0467 53.465 81.8911 49.535 85.5799 46.5465C86.6865 45.6459 87.9571 44.8271 89.3506 44.1312C92.5066 42.7802 96.3183 41.9205 100.745 41.4702Z" fill="white"/>
<path d="M131.28 69.1034C128.739 69.2262 125.706 70.659 122.222 73.4428L131.69 60.3426C131.813 60.1789 131.895 60.0151 131.854 59.8514C131.854 59.7695 131.813 59.6876 131.731 59.6058C131.567 59.3601 131.239 59.2373 130.788 59.2373C129.599 59.2373 128.862 59.4829 128.452 60.0561L109.188 86.8295C108.491 87.7711 107.918 88.6308 107.426 89.3267L103.368 94.8943C100.95 98.2103 99.3103 100.544 98.5316 101.895C98.4496 102.018 98.3676 102.14 98.3676 102.386V102.509C98.4086 102.673 98.5726 103 99.1874 103C100.13 103 100.868 102.754 101.36 102.222L101.401 102.181C103.245 99.9706 104.598 98.1693 105.499 96.9003C107.262 94.403 108.614 92.479 109.516 91.2099C111.073 89.0811 113.123 86.5839 115.582 83.7182C115.582 83.8001 115.582 83.882 115.623 83.9639C115.746 84.537 116.32 84.8645 117.303 84.9054C118.533 84.9464 120.418 84.4142 122.96 83.2679C124.763 82.4901 126.238 81.6713 127.386 80.8526C133.083 76.9225 135.542 73.6884 134.928 70.9456C134.6 69.5946 133.37 69.0215 131.28 69.1034ZM123.492 75.1622C125.788 73.1153 128.042 71.8462 130.214 71.355C130.665 71.2731 130.911 71.2321 131.034 71.2321C131.649 71.2321 131.731 71.4778 131.772 71.5596C131.813 71.6415 131.854 71.969 131.362 72.8697C129.927 75.6534 127.427 78.1916 123.902 80.3204C123.328 80.6888 122.468 81.1391 121.402 81.6713C120.541 82.0807 120.009 82.2854 119.681 82.4082C119.845 82.2445 120.05 82.0807 120.295 81.8351C120.5 81.6713 120.705 81.4666 120.705 81.1801V81.0573L120.623 80.9344C120.377 80.5251 119.763 80.5251 119.558 80.5251C118.984 80.5251 118.533 80.566 118.205 80.6888C120.5 78.1097 122.304 76.2266 123.492 75.1622Z" fill="white"/>
<path d="M173.906 78.6829C173.701 78.4782 173.332 78.3963 172.758 78.3963C172.061 78.3963 171.57 78.4782 171.242 78.7238L169.028 79.7882C167.225 80.8526 165.749 81.7123 164.684 82.2854C164.684 81.0163 165.176 79.7063 166.159 78.3963C166.979 77.25 168.291 75.8172 170.012 74.0978C170.217 73.8931 170.299 73.6475 170.299 73.4019V73.32L170.258 73.2381C170.135 72.9106 169.807 72.7469 169.315 72.7469C168.373 72.7469 167.717 72.9106 167.225 73.32L167.143 73.4019C166.774 73.8522 166.446 74.2206 166.118 74.5481C164.233 76.4722 162.02 78.3144 159.479 80.0338C156.364 82.1217 155.011 82.572 154.396 82.572C154.273 82.572 154.232 82.531 154.232 82.572C154.232 82.4492 154.232 82.0807 154.642 81.1391C155.38 79.5016 156.691 77.7822 158.536 76.0219C160.216 74.4253 161.979 73.0744 163.782 72.0509C165.668 70.9865 167.184 70.3724 168.209 70.2087C168.332 70.2087 168.864 70.1268 168.905 70.2906C168.946 70.4543 168.823 70.7 168.537 70.9456C168.004 71.2321 167.758 71.6006 167.799 72.01V72.0509C167.881 72.3784 168.168 72.7878 169.11 72.7878C169.479 72.7878 169.889 72.665 170.217 72.4603C171.447 71.7643 172.061 70.7818 172.061 69.5946C172.061 69.0215 171.775 67.998 169.766 67.998C169.274 67.998 168.701 68.039 168.004 68.1618C163.126 68.9806 158.7 71.8462 154.765 76.6769C152.347 79.6654 151.322 81.7941 151.609 83.227C151.773 84.0457 152.347 85.0282 154.027 85.0282C155.544 85.0282 158.044 83.841 161.61 81.4257C161.323 82.1626 161.2 82.7767 161.2 83.3089C161.2 84.7007 161.979 85.4786 163.372 85.4786C164.274 85.4786 165.668 84.8236 167.594 83.5135C168.496 82.8995 169.11 82.572 169.93 82.1217C170.75 81.6713 171.734 81.1391 173.455 80.0748C173.906 79.7882 174.07 79.5835 174.111 79.2969C174.111 78.9694 174.029 78.8057 173.906 78.6829Z" fill="white"/>
<path d="M22.6245 41.6748C27.174 39.7917 31.9285 39.9964 36.6009 41.0198C42.2571 42.248 47.8312 43.7627 53.4874 45.0317C58.7746 46.2189 64.0619 45.9324 69.2672 44.4586C69.759 44.3358 70.2099 44.2539 70.7427 44.2539C65.0046 48.3477 58.5287 49.0846 51.8889 47.8565C46.8886 46.9149 42.0112 45.3592 37.0928 43.9674C33.322 42.903 29.5513 42.1251 25.6166 42.3298C24.6329 42.3708 23.6492 42.3298 22.6655 42.3298C22.6245 42.0842 22.6245 41.8795 22.6245 41.6748Z" fill="white"/>
<path d="M48.0772 48.7571C42.2571 50.804 36.7649 50.9268 31.2727 49.8215C27.0101 48.9618 22.8295 47.6927 18.6899 46.3008C12.7468 44.2949 6.80376 43.3533 0.573811 44.5405C0.409865 44.5814 0.245919 44.4586 0 44.4177C1.2296 43.1486 3.19695 42.4117 6.02502 42.0433C11.6402 41.3064 17.0504 42.248 22.2967 44.1311C30.535 47.1196 38.8552 49.1256 48.0772 48.7571Z" fill="white"/>
<path d="M182.882 41.6748C187.431 39.7917 192.186 39.9964 196.858 41.0198C202.514 42.248 208.089 43.7627 213.745 45.0317C219.032 46.2189 224.319 45.9324 229.524 44.4586C230.016 44.3358 230.467 44.2539 231 44.2539C225.262 48.3477 218.786 49.0846 212.146 47.8565C207.146 46.9149 202.268 45.3592 197.35 43.9674C193.579 42.903 189.809 42.1251 185.874 42.3298C184.89 42.3708 183.907 42.3298 182.923 42.3298C182.882 42.0842 182.882 41.8795 182.882 41.6748Z" fill="white"/>
<path d="M208.334 48.7571C202.514 50.804 197.022 50.9268 191.53 49.8215C187.267 48.9618 183.087 47.6927 178.947 46.3008C173.004 44.2949 167.061 43.3533 160.831 44.5405C160.667 44.5814 160.503 44.4586 160.257 44.4177C161.487 43.1486 163.454 42.4117 166.282 42.0433C171.897 41.3064 177.308 42.248 182.554 44.1311C190.792 47.1196 199.113 49.1256 208.334 48.7571Z" fill="white"/>
<path d="M169.725 79.7473C172.225 77.8642 174.808 78.0689 177.39 79.0923C180.505 80.3205 183.579 81.8352 186.653 83.1043C189.563 84.2915 192.432 84.0049 195.301 82.5311C195.547 82.4083 195.834 82.3264 196.12 82.3264C192.965 86.4202 189.44 87.1571 185.792 85.929C183.046 84.9874 180.382 83.4318 177.677 82.0399C175.627 80.9755 173.537 80.1977 171.365 80.4023C170.832 80.4433 170.299 80.4023 169.725 80.4023C169.52 80.1158 169.52 80.1158 169.725 79.7473Z" fill="white"/>
<path d="M161.938 22.6386C160.995 23.9077 160.175 25.013 159.479 25.9546C158.618 27.1009 157.962 27.674 157.552 27.674C156.896 27.5512 156.528 27.1418 156.446 26.4868C156.446 26.1184 156.691 25.6271 157.224 25.013C158.044 24.2352 158.823 23.2118 159.601 21.9427C161.61 19.118 162.594 17.2348 162.594 16.2932C162.594 15.3107 161.364 14.0826 158.946 12.6907C157.798 12.0357 157.224 11.3807 157.224 10.7666C157.47 10.1116 157.921 9.74316 158.536 9.74316C159.479 9.74316 160.749 10.4391 162.389 11.8719C164.315 13.4276 165.299 14.9014 165.299 16.2932C165.299 16.9483 164.971 17.8898 164.315 19.0361" fill="white"/>
</svg>
