<svg width="100" height="100" viewBox="0 0 100 100" fill="none" xmlns="http://www.w3.org/2000/svg">
<g clip-path="url(#clip0_113_128)">
<path d="M20.1407 99.0279C20.8634 93.7119 21.2446 88.355 21.282 82.9903V52.69C21.282 51.3243 20.3689 41.8828 33.7776 41.8828C38.4767 41.8828 67.2618 41.2177 67.2618 16.4981C67.2618 13.9753 64.9909 0.983887 52.1254 0.983887C39.2599 0.983887 35.8556 11.5786 35.8556 17.1199C35.8556 22.6612 35.6037 35.0309 29.8026 41.8395" stroke="#4F4F4F" stroke-width="2" stroke-linecap="round" stroke-linejoin="round"/>
<path d="M46.7415 22.7635C46.7415 22.7635 46.7415 34.8498 37.8981 41.5994" stroke="#4F4F4F" stroke-width="2" stroke-linecap="round" stroke-linejoin="round"/>
<path d="M57.8123 19.5914C57.8123 19.5914 57.8123 33.7006 45.1239 40.5132" stroke="#4F4F4F" stroke-width="2" stroke-linecap="round" stroke-linejoin="round"/>
<path d="M59.544 39.911C59.544 39.911 61.8109 42.0913 64.558 42.0913H70.7015C71.9963 42.0913 81.2961 41.4459 81.2961 52.7647V83.3287C81.2961 88.6654 82.1029 96.4264 83.075 99.0121" stroke="#4F4F4F" stroke-width="2" stroke-linecap="round" stroke-linejoin="round"/>
<path d="M29.2241 63.8435C29.2241 63.8435 37.3117 73.4621 37.3117 85.513C37.3117 89.055 36.8237 96.1824 35.5329 99.0122" stroke="#4F4F4F" stroke-width="2" stroke-linecap="round" stroke-linejoin="round"/>
<path d="M31.0856 99.0161L32.4591 69.2589" stroke="#4F4F4F" stroke-width="2" stroke-linecap="round" stroke-linejoin="round"/>
<path d="M73.7752 63.8435C73.7752 63.8435 65.6836 73.4464 65.6836 85.513C65.6836 89.055 66.1677 96.1824 67.4625 99.0122" stroke="#4F4F4F" stroke-width="2" stroke-linecap="round" stroke-linejoin="round"/>
<path d="M71.9137 99.0161L70.5401 69.2589" stroke="#4F4F4F" stroke-width="2" stroke-linecap="round" stroke-linejoin="round"/>
<path d="M15.1424 30.934H18.4601" stroke="#4F4F4F" stroke-width="2" stroke-linecap="round" stroke-linejoin="round"/>
<path d="M24.7414 30.934H28.0552" stroke="#4F4F4F" stroke-width="2" stroke-linecap="round" stroke-linejoin="round"/>
<path d="M21.6008 24.4795V27.7933" stroke="#4F4F4F" stroke-width="2" stroke-linecap="round" stroke-linejoin="round"/>
<path d="M21.6008 34.0746V37.3923" stroke="#4F4F4F" stroke-width="2" stroke-linecap="round" stroke-linejoin="round"/>
<path d="M6.98392 49.9115H9.61291" stroke="#4F4F4F" stroke-width="2" stroke-linecap="round" stroke-linejoin="round"/>
<path d="M14.5914 49.9115H17.2204" stroke="#4F4F4F" stroke-width="2" stroke-linecap="round" stroke-linejoin="round"/>
<path d="M12.1002 44.7952V47.4202" stroke="#4F4F4F" stroke-width="2" stroke-linecap="round" stroke-linejoin="round"/>
<path d="M12.1002 52.4027V55.0278" stroke="#4F4F4F" stroke-width="2" stroke-linecap="round" stroke-linejoin="round"/>
<path d="M82.3666 38.8091H85.1019" stroke="#4F4F4F" stroke-width="2" stroke-linecap="round" stroke-linejoin="round"/>
<path d="M90.2812 38.8091H93.0125" stroke="#4F4F4F" stroke-width="2" stroke-linecap="round" stroke-linejoin="round"/>
<path d="M87.6915 33.4843V36.2195" stroke="#4F4F4F" stroke-width="2" stroke-linecap="round" stroke-linejoin="round"/>
<path d="M87.6915 41.3987V44.1339" stroke="#4F4F4F" stroke-width="2" stroke-linecap="round" stroke-linejoin="round"/>
</g>
<defs>
<clipPath id="clip0_113_128">
<rect width="100" height="100" fill="white"/>
</clipPath>
</defs>
</svg>
