<svg width="808" height="214" viewBox="0 0 808 214" fill="none" xmlns="http://www.w3.org/2000/svg">
<path d="M797.103 1C793.595 4.69075 787.159 14.2867 789.474 23.1445C792.368 34.2167 804.996 55.834 804.996 65.5881C804.996 75.3422 803.417 82.4601 795.262 90.8961C789.474 96.4322 780.003 101.441 779.74 90.8961C779.476 80.3511 792.894 81.9328 800.523 94.0596C808.153 106.186 808.942 132.285 803.417 144.148C799.12 153.551 786.738 172.198 771.584 171.565C766.322 171.565 762.902 167.611 762.902 163.393C762.902 161.811 763.165 159.439 761.587 159.439C760.008 159.439 759.482 160.493 759.482 161.548C759.482 162.602 759.745 166.029 763.691 164.447C767.638 162.866 765.007 155.748 761.587 156.011C758.167 156.275 756.588 156.802 752.905 161.284C749.222 165.766 748.432 167.611 747.117 169.72C745.802 171.829 741.855 176.311 736.857 176.311C735.804 176.311 733.173 175.783 733.173 173.411C733.173 171.513 734.927 171.038 735.804 171.038C736.681 171.038 738.435 171.513 738.435 173.411C738.435 175.783 735.278 176.311 731.858 176.311C728.438 176.311 723.965 174.465 719.756 174.465C715.547 174.465 704.234 176.838 701.077 178.42C697.92 180.001 690.291 182.374 687.397 182.11C684.503 181.847 676.873 179.738 673.979 172.62C671.085 165.502 660.825 163.92 654.511 165.766C648.197 167.611 648.986 169.984 653.722 170.511C658.457 171.038 668.191 169.193 671.348 163.129C674.505 157.066 679.504 139.403 688.975 141.776C698.446 144.148 706.865 150.739 712.916 156.539C718.967 162.338 722.913 167.875 726.859 169.72C730.806 171.565 731.332 170.247 731.332 167.875C731.332 165.502 736.067 120.686 690.554 90.8961C686.081 89.3143 681.346 87.469 682.398 94.8504C683.45 102.232 688.975 111.986 688.975 115.413C688.975 118.84 685.818 126.749 684.503 128.858C683.187 130.967 683.713 139.139 685.555 139.403C687.397 139.667 690.291 138.085 693.711 139.93C697.131 141.776 703.971 143.885 728.438 166.82C730.28 168.402 734.489 171.302 737.646 167.347C740.803 163.393 748.959 146.785 748.959 127.804C748.959 108.823 746.591 86.4145 738.698 86.4145C735.541 86.4145 731.595 90.1052 729.49 101.441C727.386 112.777 716.599 118.049 714.231 120.158C711.864 122.267 708.443 125.695 708.707 128.858C708.97 132.022 711.6 139.139 718.441 148.103C725.281 157.066 731.858 168.929 723.965 172.62C716.073 176.311 707.391 179.474 703.971 181.319C700.551 183.165 695.289 186.592 702.656 187.383C710.022 188.174 719.756 180.529 721.072 179.738C722.387 178.947 726.333 177.365 722.65 181.319C718.967 185.274 698.709 204.518 663.456 204.518C650.302 204.518 631.886 201.355 625.835 191.337C623.467 188.437 621.625 185.801 621.625 183.165C621.625 180.529 623.204 178.156 627.676 178.156C632.149 178.156 633.727 181.847 633.727 183.165C633.727 184.483 632.149 191.337 626.098 194.237C620.047 197.137 618.205 196.873 614.522 196.873C610.839 196.873 595.843 194.764 580.058 187.91C564.273 181.056 552.697 181.056 545.331 182.638C537.964 184.219 523.231 192.919 523.231 201.882C523.231 204.518 525.073 209 528.23 209C531.387 209 534.544 206.627 534.544 201.882C534.544 197.137 523.494 188.174 504.289 190.019C485.084 191.864 478.507 195.292 475.876 196.082C473.245 196.873 439 209 400.5 209C341.349 209 344 204.5 289.5 199.5C235 194.5 212.5 192.928 157 204C94.3055 216.508 25.5 220.5 0.5 190.019" stroke="white" stroke-linecap="round"/>
</svg>
