<svg width="100" height="100" viewBox="0 0 100 100" fill="none" xmlns="http://www.w3.org/2000/svg">
<path d="M68.0733 1.047C68.0733 1.047 67.6545 11.6965 48.8095 28.0372C29.9645 44.378 41.2254 67.3061 41.8117 68.3111C42.398 69.3162 52.3147 87.5749 37.871 98.9489" stroke="#4F4F4F" stroke-width="2" stroke-linecap="round" stroke-linejoin="round"/>
<path d="M51.586 13.8867C51.586 13.8867 49.2534 17.9698 43.1225 22.346C36.9916 26.7223 28.0967 35.0434 26.7902 40.7346C25.4836 46.4258 25.1862 47.59 25.1862 61.5981C25.1862 66.5606 26.2081 69.7685 19.0553 81.1508" stroke="#4F4F4F" stroke-width="2" stroke-linecap="round" stroke-linejoin="round"/>
<path d="M33.0551 73.7091C33.0551 76.4814 33.6414 79.5427 31.5977 83.341C29.5541 87.1393 26.9284 91.369 22.5521 95.4521" stroke="#4F4F4F" stroke-width="2" stroke-linecap="round" stroke-linejoin="round"/>
<path d="M66.0338 8.4845C66.0338 8.4845 72.7343 11.55 72.7343 21.9105C72.7343 24.976 72.7343 29.9343 72.0056 33.1463C71.5868 34.6037 73.174 38.5444 74.3424 40.2949C75.5108 42.0454 77.5502 45.9861 79.1541 47.59C80.7581 49.1939 82.2196 51.6773 80.3225 52.988C79.2334 53.7545 78.0584 54.3912 76.8216 54.8851C77.3297 56.192 77.6252 57.572 77.6968 58.9724C77.6968 60.8694 76.3274 62.6283 73.1196 62.4943C70.9533 62.417 69.2772 62.3439 67.137 62.0001C67.137 62.0001 68.379 62.6995 73.1824 62.9215C74.2963 62.9633 76.8216 63.0387 76.8216 65.9576C76.8216 67.5615 74.4931 69.6303 74.0576 70.359C74.3508 71.9671 74.9329 74.7394 74.7863 75.9036C74.6397 77.0678 73.3289 80.5729 70.4101 80.5729C67.4912 80.5729 55.2335 79.1156 51.7326 79.4087C48.2316 79.7019 45.7524 80.129 45.7524 80.129" stroke="#4F4F4F" stroke-width="2" stroke-linecap="round" stroke-linejoin="round"/>
<path d="M52.1723 33.8749C52.1723 33.8749 57.4238 25.558 67.3446 28.3303" stroke="#4F4F4F" stroke-width="2" stroke-linecap="round" stroke-linejoin="round"/>
<path d="M68.2199 36.9404C68.2199 36.9404 64.2791 41.8988 55.2377 38.6909" stroke="#4F4F4F" stroke-width="2" stroke-linecap="round" stroke-linejoin="round"/>
</svg>
