<svg width="100" height="100" viewBox="0 0 100 100" fill="none" xmlns="http://www.w3.org/2000/svg">
<g clip-path="url(#clip0_113_83)">
<path d="M34.7256 0.956665C34.7256 0.956665 36.6429 13.3317 25.314 17.8664C13.9851 22.4011 -1.70342 28.4953 5.96585 52.0281V57.2706" stroke="#4F4F4F" stroke-width="2" stroke-linecap="round" stroke-linejoin="round"/>
<path d="M3.41073 71.7302V80.2123L0.972271 84.8559" stroke="#4F4F4F" stroke-width="2" stroke-linecap="round" stroke-linejoin="round"/>
<path d="M22.7006 43.5033L5.50305 58.3752C5.50305 58.3752 3.41072 60.1175 3.41072 62.2098V66.0405" stroke="#4F4F4F" stroke-width="2" stroke-linecap="round" stroke-linejoin="round"/>
<path d="M22.6928 40.6021V62.7309C22.6928 64.1816 24.4351 69.2957 25.0768 69.7585" stroke="#4F4F4F" stroke-width="2" stroke-linecap="round" stroke-linejoin="round"/>
<path d="M22.4633 52.6271L16.3653 59.363C16.3653 59.363 17.9909 70.4546 18.1076 71.0963C18.2242 71.738 18.1659 73.7681 20.9505 73.7681C23.7351 73.7681 24.4934 71.7341 24.7851 71.0963C25.0768 70.4585 27.2819 65.9239 30.0704 65.9239C32.8589 65.9239 34.1345 68.7123 34.1345 69.8752C34.1345 71.038 28.3281 84.2648 26.7024 85.4315C25.0768 86.5982 23.1595 88.57 19.9082 89.904C18.6287 91.1835 12.939 99.0238 12.939 99.0238" stroke="#4F4F4F" stroke-width="2" stroke-linecap="round" stroke-linejoin="round"/>
<path d="M24.264 98.74V87.7611" stroke="#4F4F4F" stroke-width="2" stroke-linecap="round" stroke-linejoin="round"/>
<path d="M27.7681 58.5151C29.6001 58.0254 31.5286 58.0254 33.3606 58.5151" stroke="#4F4F4F" stroke-width="2" stroke-linecap="round" stroke-linejoin="round"/>
<path d="M37.798 60.7358C37.798 60.7358 44.3083 65.7139 40.2481 74.5927" stroke="#4F4F4F" stroke-width="2" stroke-linecap="round" stroke-linejoin="round"/>
<path d="M91.2807 28.4681C95.2903 33.4851 96.9821 40.7576 93.3069 52.0438V57.2707" stroke="#4F4F4F" stroke-width="2" stroke-linecap="round" stroke-linejoin="round"/>
<path d="M64.5316 0.956665C64.5316 0.956665 62.6143 13.3317 73.9432 17.8664C78.19 19.5659 83.0514 21.4833 87.0649 24.4778" stroke="#4F4F4F" stroke-width="2" stroke-linecap="round" stroke-linejoin="round"/>
<path d="M76.5566 43.5033L93.7541 58.3752C93.7541 58.3752 95.8465 60.1175 95.8465 62.2098V80.2123L98.2849 84.8792" stroke="#4F4F4F" stroke-width="2" stroke-linecap="round" stroke-linejoin="round"/>
<path d="M76.5644 40.6021V62.7309C76.5644 64.1816 74.8221 69.2957 74.1804 69.7585" stroke="#4F4F4F" stroke-width="2" stroke-linecap="round" stroke-linejoin="round"/>
<path d="M81.4063 69.4473C81.2702 70.3379 81.1768 70.9563 81.1496 71.0963C81.0368 71.7341 81.0913 73.7681 78.3067 73.7681C75.5221 73.7681 74.7637 71.7341 74.4721 71.0963C74.1804 70.4585 71.9753 65.9238 69.1868 65.9238C66.3983 65.9238 65.1227 68.7123 65.1227 69.8752C65.1227 71.038 70.9291 84.2648 72.5547 85.4315C74.1804 86.5982 76.0977 88.57 79.349 89.9039C80.6285 91.1834 86.3221 99.0238 86.3221 99.0238" stroke="#4F4F4F" stroke-width="2" stroke-linecap="round" stroke-linejoin="round"/>
<path d="M76.7938 52.6271L82.8919 59.363L82.1141 64.7182" stroke="#4F4F4F" stroke-width="2" stroke-linecap="round" stroke-linejoin="round"/>
<path d="M74.9932 98.74V87.7611" stroke="#4F4F4F" stroke-width="2" stroke-linecap="round" stroke-linejoin="round"/>
<path d="M71.4891 58.5152C69.6584 58.0255 67.7312 58.0255 65.9005 58.5152" stroke="#4F4F4F" stroke-width="2" stroke-linecap="round" stroke-linejoin="round"/>
<path d="M61.4592 60.7358C61.4592 60.7358 54.9489 65.7139 59.0091 74.5927" stroke="#4F4F4F" stroke-width="2" stroke-linecap="round" stroke-linejoin="round"/>
<path d="M49.9086 1.05786V9.36883" stroke="#4F4F4F" stroke-width="2" stroke-linecap="round" stroke-linejoin="round"/>
<path d="M49.9086 18.9165V27.2275" stroke="#4F4F4F" stroke-width="2" stroke-linecap="round" stroke-linejoin="round"/>
<path d="M49.9086 36.7712V45.0861" stroke="#4F4F4F" stroke-width="2" stroke-linecap="round" stroke-linejoin="round"/>
<path d="M49.9086 54.63V62.941" stroke="#4F4F4F" stroke-width="2" stroke-linecap="round" stroke-linejoin="round"/>
<path d="M49.9086 72.4886V80.7996" stroke="#4F4F4F" stroke-width="2" stroke-linecap="round" stroke-linejoin="round"/>
<path d="M49.9086 90.3473V98.6583" stroke="#4F4F4F" stroke-width="2" stroke-linecap="round" stroke-linejoin="round"/>
</g>
<defs>
<clipPath id="clip0_113_83">
<rect width="100" height="100" fill="white"/>
</clipPath>
</defs>
</svg>
