<svg xmlns="http://www.w3.org/2000/svg" xmlns:xlink="http://www.w3.org/1999/xlink" viewBox="0 0 598.17 103.14"><defs><linearGradient id="a" x1="74.2" y1="43.47" x2="511.05" y2="43.47" gradientUnits="userSpaceOnUse"><stop offset="0.02" stop-color="#653f25"/><stop offset="0.16" stop-color="#93803e"/><stop offset="0.51" stop-color="#93803e"/><stop offset="1" stop-color="#653f25"/></linearGradient><linearGradient id="b" x1="585.53" y1="66.5" x2="461.28" y2="66.5" gradientUnits="userSpaceOnUse"><stop offset="0.02" stop-color="#653f25"/><stop offset="0.16" stop-color="#93803e"/><stop offset="0.33" stop-color="#ccb77d"/><stop offset="0.51" stop-color="#93803e"/><stop offset="1" stop-color="#653f25"/></linearGradient><clipPath id="c" transform="translate(6.32)"><path d="M581.39,103.14q-60-3.69-120.11-5.85,1.22-33.72,2.42-67.44Q524.65,32,585.53,35.79q-12,16.78-23.76,33.63Q571.66,86.27,581.39,103.14Z" fill="none"/></clipPath><linearGradient id="d" x1="454.97" y1="65.9" x2="591.85" y2="65.9" gradientUnits="userSpaceOnUse"><stop offset="0" stop-color="#c59864"/><stop offset="0.16" stop-color="#93803e"/><stop offset="0.33" stop-color="#ccb77d"/><stop offset="0.53" stop-color="#653f25"/><stop offset="0.68" stop-color="#93803e"/><stop offset="0.82" stop-color="#ccb77d"/><stop offset="1" stop-color="#c59864"/></linearGradient><linearGradient id="e" x1="6387.53" y1="66.5" x2="6263.28" y2="66.5" gradientTransform="matrix(-1, 0, 0, 1, 6387.53, 0)" xlink:href="#b"/><clipPath id="f" transform="translate(6.32)"><path d="M4.14,103.14q60-3.69,120.11-5.85Q123,63.57,121.83,29.85,60.89,32,0,35.79,12,52.58,23.76,69.42,13.88,86.27,4.14,103.14Z" fill="none"/></clipPath><linearGradient id="g" x1="6256.97" y1="65.9" x2="6393.85" y2="65.9" gradientTransform="matrix(-1, 0, 0, 1, 6387.53, 0)" xlink:href="#d"/><linearGradient id="h" x1="511.19" y1="43.47" x2="74.06" y2="43.47" xlink:href="#a"/><clipPath id="j" transform="translate(6.32)"><path d="M507.59,83.81Q292.75,74,77.66,83.82,75.92,46,74.2,8.12q218.31-10,436.85,0Q509.32,46,507.59,83.81Z" fill="url(#a)"/></clipPath><linearGradient id="k" x1="56.02" y1="44.32" x2="529.22" y2="44.32" xlink:href="#a"/></defs><path d="M581.39,103.14q-60-3.69-120.11-5.85,1.22-33.72,2.42-67.44Q524.65,32,585.53,35.79,573.65,52.35,561.91,69,571.72,86,581.39,103.14Z" transform="translate(6.32)" fill="url(#b)"/><g clip-path="url(#c)"><path d="M586.81,96.74q-65.12-4.08-130.3-6.35,1-27.68,1.93-55.37,65.94,2.29,131.83,6.42Q588.55,69.1,586.81,96.74Z" transform="translate(6.32)" fill="none" stroke-miterlimit="10" stroke-width="2.98" stroke="url(#d)"/></g><path d="M461.28,97.29Q484.5,86.57,508,76.07q-22.74-2-45.5-3.73Z" transform="translate(6.32)" fill="#281012"/><path d="M4.14,103.14q60-3.69,120.11-5.85Q123,63.57,121.83,29.85,60.89,32,0,35.79,11.9,52.35,23.63,69,13.8,86,4.14,103.14Z" transform="translate(6.32)" fill="url(#e)"/><g clip-path="url(#f)"><path d="M-1.28,96.74Q63.84,92.66,129,90.39q-1-27.68-1.93-55.37Q61.15,37.32-4.74,41.44-3,69.1-1.28,96.74Z" transform="translate(6.32)" fill="none" stroke-miterlimit="10" stroke-width="2.98" stroke="url(#g)"/></g><path d="M124.25,97.29Q101,86.57,77.58,76.07q22.74-2,45.5-3.73Z" transform="translate(6.32)" fill="#281012"/><path d="M507.45,86.93Q292.74,77.14,77.8,87,75.93,46,74.06,5,292.51-5,511.19,5,509.32,46,507.45,86.93Z" transform="translate(6.32)" fill="url(#h)"/><path d="M507.59,83.81Q292.75,74,77.66,83.82,75.92,46,74.2,8.12q218.31-10,436.85,0Q509.32,46,507.59,83.81Z" transform="translate(6.32)" fill="url(#a)"/><g clip-path="url(#j)"><path d="M525.79,82q-233-11.52-466.33,0Q57.75,47.25,56,12.52,292.48.8,529.22,12.5,527.51,47.24,525.79,82Z" transform="translate(6.32)" fill="url(#k)"/></g><path d="M147.74,19.54c-.1.23-.32.41-.79.48V35.37a3.16,3.16,0,0,1-2.14.75h-.5V22.75a18.24,18.24,0,0,1-2.49,2.85l-.32-.2a44.12,44.12,0,0,0,4.13-12.95l3.88.81a.89.89,0,0,1-.92.6,37.32,37.32,0,0,1-2.09,5.2Zm17.76,3.28c-.17.23-.45.25-.95.28a21.84,21.84,0,0,1-1.84,1.21c2.14,1.44.87,3.76-.77,2.73a7.56,7.56,0,0,0-2.43-3.51l.24-.2a7.85,7.85,0,0,1,2.07.5c.1-.38.22-.78.3-1.16H150.38a2.93,2.93,0,0,1-.85,2.63,1.35,1.35,0,0,1-2-.51,1.39,1.39,0,0,1,.84-1.72,2.79,2.79,0,0,0,1.12-2.34h.38a10.19,10.19,0,0,1,.37,1.21H151V15.18l3,1.16h.87c0-.48.1-1,.1-1.54h-5.59l-.2-.74h11.44l1.54-1.76s1.72,1.21,2.81,2.09c-.07.28-.35.41-.69.41h-6.55a17.89,17.89,0,0,1-1.91,1.54H159l1.3-1.37,2.58,2a1.71,1.71,0,0,1-.92.46v4.54h0l1.27-1.29Zm-2.31,6.92c-.2.23-.45.3-1.05.35a10.9,10.9,0,0,1-2.73,2.73,44.16,44.16,0,0,0,5.74.38l0,.3A2.66,2.66,0,0,0,163.44,36a23,23,0,0,1-7-1.54,30,30,0,0,1-8,1.74l-.12-.35a23.93,23.93,0,0,0,6.47-2.27,10.07,10.07,0,0,1-2.27-2,15.09,15.09,0,0,1-3.85,2.2l-.23-.25a16.26,16.26,0,0,0,3-3.38,16.19,16.19,0,0,1-1-1.69l.25-.38a8.08,8.08,0,0,0,1.12,1.46,12.37,12.37,0,0,0,1.12-2.2l3.73.71c-.07.3-.32.46-1.07.51-.1.12-.2.27-.32.4h3.85l1.57-1.46ZM151.75,23.3c.54,2.07-.05,3.59-.85,4.19a1.25,1.25,0,0,1-1.84-.28,1.24,1.24,0,0,1,.7-1.54,3.46,3.46,0,0,0,1.59-2.39Zm3.55.05c-.05.33-.27.53-.69.61v1.56c0,.26,0,.33.67.33h3.31a.66.66,0,0,0,.52-.18,5.9,5.9,0,0,0,.69-1.43h.3l.08,1.46c.62.23.77.4.77.73,0,.91-.85,1.06-4.11,1.06h-2.08c-2,0-2.29-.43-2.29-1.77V23.07Zm-.64,6.29a15.74,15.74,0,0,1-1.25,1.18,11.33,11.33,0,0,0,3.24,1.44A10.68,10.68,0,0,0,159,29.64ZM153.71,17V18.2h5.55V17Zm5.55,1.9h-5.55V20.1h5.55Zm-5.55,3h5.55V20.83h-5.55Zm1.92.83c4.55.61,2.86,3.94,1.14,2.68A5.67,5.67,0,0,0,155.4,23Z" transform="translate(6.32)" fill="#fff"/><path d="M192.44,15s1.49,1.16,2.44,2c0,.28-.32.41-.67.41h-3v3.13a2.71,2.71,0,0,1-1.46.53l2.19,1.66a1.63,1.63,0,0,1-.9.48V31.4a4.7,4.7,0,0,1-2.44.74h-.49V31.07h-9v.69c0,.27-1.24.93-2.44.93h-.42V20.88l3.06,1.24h8.51l.89-1h-.25V17.45h-1.81c-.25,1.49-1.25,3.25-4.63,4.26l-.17-.33a5.22,5.22,0,0,0,2.31-4.26.63.63,0,0,1-.65.33H181v3.2a3,3,0,0,1-2.14.58h-.47V17.45H176.5c-.17,1.66-1,3.78-4.38,5l-.2-.32A6.69,6.69,0,0,0,174,16.61v-3l2.81.83a38.82,38.82,0,0,0,4.26-2l2.26,2.35c-.3.22-.77.2-1.42-.08-1.34.2-3.43.43-5.37.51v1.49h4l1.3-1.59s1.41,1.08,2.31,1.89a4.86,4.86,0,0,0,0-.66v-2.8l2.61.73a42.62,42.62,0,0,0,4.47-1.84l2.29,2.37a1.33,1.33,0,0,1-1.42-.07c-1.39.2-3.45.38-5.39.48v1.49h4.32Zm-20,20.8a24.44,24.44,0,0,0,8.26-4.29l3.06,2.27c-.25.25-.72.33-1.47.13a31.21,31.21,0,0,1-9.75,2.24Zm6.69-13v2h9v-2Zm0,2.7v2.05h9V25.52Zm9,4.87V28.3h-9v2.09Zm-3.56,1.87c13.93.13,8.73,5.4,6.09,3.41a17.23,17.23,0,0,0-6.17-3.08Z" transform="translate(6.32)" fill="#fff"/><path d="M218.86,24.46c4.38.58,4.93,2.22,4.26,3.13.54.46,1.29,1.11,1.86,1.64-.07.28-.32.41-.67.41h-5.4v3.18c0,2-.42,3-3.65,3.35a3.15,3.15,0,0,0-.6-1.94,3.61,3.61,0,0,0-2.26-1v-.35s2.76.17,3.28.17.52-.12.52-.42v-3H201.9l-.2-.74h14.5V27l3.56.3c0,.38-.3.55-.85.66v.95H221l.57-.78a1.45,1.45,0,0,1-.85-.48,6,6,0,0,0-1.34-1.51c-3.33.53-7.86,1.08-14.33,1.79a1.19,1.19,0,0,1-.72.53l-1.39-3c1.84.05,5,.05,8.85.05V23.76H208V24c0,.23-1.19.78-2.31.78h-.37V16.41l2.86,1.14h3.65V15.73H202.4l-.23-.71h9.65V12.47l3.68.33c-.05.36-.27.61-.92.71V15h5.6l1.47-2s1.66,1.34,2.66,2.28c-.08.27-.35.4-.7.4h-9v1.82h3.81l1.27-1.39,2.68,2a1.92,1.92,0,0,1-1,.53v5a3.74,3.74,0,0,1-2.26.75Zm-12.93,5.66c7.34-.05,5.67,5.52,2.83,4a8.7,8.7,0,0,0-3-3.86ZM208,18.25V20.3h3.83V18.25Zm3.83,4.8V21H208v2Zm2.76-4.8V20.3h4.06V18.25ZM218.64,21h-4.06v2h4.06Zm-.1,4.49a9,9,0,0,0-1.79-.89l.1-.32a16,16,0,0,1,1.79.15v-.68h-4.06v1.76Z" transform="translate(6.32)" fill="#fff"/><path d="M231.38,35a22.71,22.71,0,0,0,6.91-6l3.14,2.2c-.2.25-.48.32-1.07.2a18.6,18.6,0,0,1-8.88,3.91Zm20.49-19.31s1.69,1.19,2.71,2.09c-.07.28-.32.41-.69.41h-7.64l3.26.93c-.07.31-.37.48-.92.46a21.71,21.71,0,0,1-2.71,2.17h3.21L250.61,20s1.69,1.21,2.76,2.12a.63.63,0,0,1-.68.4h-8.2v2.28h3.18L249.09,23s1.64,1.17,2.66,2.05c-.08.28-.32.4-.7.4h-6.56v2.45H250L251.53,26s1.74,1.26,2.78,2.22c-.05.28-.32.4-.65.4h-9.17v6.84a3.32,3.32,0,0,1-2.42.71h-.52V28.65h-9.4l-.2-.73h9.6V25.47h-7l-.2-.7h7.19V22.49h-8.23l-.2-.7h6.39a1.82,1.82,0,0,1-.77-.41,5.21,5.21,0,0,0-1.14-2.92l.22-.16c4.35.59,3.83,3.13,2.39,3.49h4.55A26.09,26.09,0,0,0,246,18.23H232l-.2-.73h5.08a1.8,1.8,0,0,1-.8-.41,6.34,6.34,0,0,0-1.67-3.73l.23-.15c4.87.83,4.38,4,2.81,4.29h2.29v-5l3.33.3c0,.31-.22.53-.77.63V17.5H244v-5l3.39.3c0,.31-.23.53-.8.63V17.5h.72A31.32,31.32,0,0,0,248.91,13l3.51,1.11c-.12.3-.42.5-1,.43a22.77,22.77,0,0,1-3.58,2.93h2.51ZM245.23,30c13.31,1.75,8.29,7.07,5.87,4.83a17,17,0,0,0-6-4.5Z" transform="translate(6.32)" fill="#fff"/><path d="M272.57,18a1.72,1.72,0,0,1-1,.53v15a3.75,3.75,0,0,1-2.31.84h-.43v-2H265v1.87c0,.33-1,1-2.24,1h-.44V16.16l2.78,1.19h.15c.17-1.39.4-3.36.52-4.77l4,1c-.1.43-.45.61-1,.61-.64.88-1.61,2.19-2.41,3.18h2.16l1.32-1.52Zm-7.56.08v6.26h3.78V18.08Zm3.78,13.63V25.07H265v6.64ZM284.71,18a1.61,1.61,0,0,1-1.09.48c-.18,10.17-.53,14.79-1.89,16.28a4.53,4.53,0,0,1-3.64,1.36,2.84,2.84,0,0,0-.54-2.07,5.14,5.14,0,0,0-2.64-1.11l0-.35c1.19.1,2.91.23,3.55.23a1.17,1.17,0,0,0,.92-.33c.92-.86,1.17-5.88,1.35-14.49h-4.63a19.08,19.08,0,0,1-4.2,5.3l-.33-.2A38,38,0,0,0,275,12.55l3.93,1.16c-.1.33-.4.51-1,.51a26.62,26.62,0,0,1-1.39,3h4l1.57-1.64Zm-11,4.42c7.26,2.17,4.55,7.62,1.91,5.37a11.23,11.23,0,0,0-2.11-5.22Z" transform="translate(6.32)" fill="#fff"/><path d="M311.11,26s1.86,1.42,3,2.4c-.05.28-.33.4-.68.4h-9.72c-.82,3.51-3.09,6-12.11,7.45l-.15-.4c6.27-1.92,8.28-4.12,9-7h-8l-.2-.73h8.33a25.61,25.61,0,0,0,.25-2.95l4.13.3c-.05.35-.3.63-.87.71-.08.68-.15,1.31-.25,1.94h5.64Zm-10-1.87v-3h-6.84l-.2-.73h7V17.5H292.9l-.22-.74H299a2.31,2.31,0,0,1-.82-.4,7,7,0,0,0-1.67-3.58l.2-.15c5.25.45,4.8,3.68,3.08,4.13h4.61a34.6,34.6,0,0,0,1.36-4.23l3.91.88c-.1.33-.37.53-.95.5a27.22,27.22,0,0,1-3.53,2.85H309l1.59-2s1.82,1.36,2.89,2.34c-.08.28-.32.41-.7.41h-8.58v2.85h3.41l1.49-1.87s1.72,1.26,2.76,2.2c-.07.28-.35.4-.69.4h-7v3h5.32L311.18,22s1.84,1.41,2.89,2.42c-.05.28-.33.41-.65.41H291.78l-.2-.74Zm3.46,5.51c11,.93,10.5,7.44,7.11,6.33a26.28,26.28,0,0,0-7.31-6.08Z" transform="translate(6.32)" fill="#fff"/><path d="M339.64,26.56v-1h-2.16v3h2.23l1.37-1.85s1.54,1.27,2.49,2.15c-.08.28-.35.4-.7.4h-5.39v3.51c.59.05,1.21.08,1.91.08,1.17,0,3.93,0,5.25,0v.3c-.8.18-1.17,1.16-1.17,2.3h-4.2c-3.63,0-5.8-.93-7.07-4.31a9.53,9.53,0,0,1-4.7,5l-.3-.25c2-2.25,3.16-5.43,3.24-9.47l3.7.63c-.07.36-.35.61-.92.66a22.15,22.15,0,0,1-.69,2.57,4.88,4.88,0,0,0,2.28,2V25.55h-4l-.22-.73h4.2V22.09h-5.19l-.18-.71h5.37V18.91h-4.15l-.22-.73h4.37v-2h-5.22l-.1-.35c-.12,0-.25.07-.4.12V32.51a3.52,3.52,0,0,1-2.31.86h-.42V31.28h-2v2.17c0,.33-1,1-2.21,1h-.42V13.53l2.73,1.22h1.62l1.32-1.52,2.66,2.17,0,0h4.77V12.5l3.46.35c0,.31-.22.56-.79.66v1.94h2.88l1.42-1.94s1.59,1.34,2.54,2.25c-.08.27-.33.4-.68.4h-6.16v2h1.91l1.24-1.31,2.54,1.94a1.43,1.43,0,0,1-.89.48v2.09h.07l.9-1.43a20.12,20.12,0,0,1,1.61,1.74c-.05.27-.27.4-.59.4h-2v3.79a4.09,4.09,0,0,1-2.19.68ZM324.39,15.45v4.34h2V15.45Zm0,5.08v4.61h2V20.53Zm2,10.07V25.88h-2V30.6Zm11.12-9.22h2.16V18.91h-2.16Zm2.16,3.44V22.09h-2.16v2.73Z" transform="translate(6.32)" fill="#fff"/><path d="M366.06,22.82a29.42,29.42,0,0,1-6.72,3.79l1.45.12c0,.33-.28.56-.8.64v.78h7.74l1.51-2s1.69,1.36,2.71,2.3c-.07.27-.34.4-.69.4H360V32c0,.45.18.55,1.54.55h4.53c1.59,0,3.06,0,3.68,0a1.16,1.16,0,0,0,1-.38A10.5,10.5,0,0,0,372,29.51h.27l.08,2.63c1,.3,1.32.6,1.32,1.16,0,1.38-1.3,1.79-7.81,1.79h-4.46c-3.33,0-4.27-.36-4.27-2.55V27.42A43,43,0,0,1,351,28.85l-.13-.37a34.57,34.57,0,0,0,11.49-5.66H351.19l-.2-.73h7.93V17.67H353.7l-.2-.7h5.42V12.53l3.73.3c0,.35-.22.55-.79.65V17h1.86l1.49-2s1.65,1.34,2.69,2.27a25,25,0,0,0,2.19-3.71l3.46,2c-.18.25-.45.38-1.05.23A24.48,24.48,0,0,1,367,22.09h2.79l1.54-2s1.76,1.39,2.83,2.35c-.07.28-.32.4-.69.4Zm-2.74-.73a27.21,27.21,0,0,0,4.28-4.47,1.23,1.23,0,0,1-.35.05h-5.39v4.42Z" transform="translate(6.32)" fill="#fff"/><path d="M387.9,24.94l2.54,2a1.7,1.7,0,0,1-1,.48V34a3.79,3.79,0,0,1-2.09.68h-.45V33H384.2v1.66c0,.21-.8.84-2.09.84h-.45v-20l2.54,1c.1-1.16.2-2.87.22-4.09l3.78.66c-.07.4-.4.61-.94.66-.53.83-1.35,2-1.94,2.9h1.26l1.22-1.34,2.54,2a1.7,1.7,0,0,1-.94.48v5.58a4,4,0,0,1-2.12.65h-.45V22.8H384.2v3.48h2.48Zm-3.7-7.54v4.66h2.63V17.4Zm2.73,14.91V27H384.2v5.32Zm11.32-16.68v3.61h1.84l1.19-1.36,2.62,2a1.56,1.56,0,0,1-.92.48v9.21c0,1.87-.33,2.9-2.91,3.16a6.43,6.43,0,0,0-.25-1.95,1.46,1.46,0,0,0-1.15-.8v-.38s1,.07,1.3.07.37-.12.37-.4V20h-2.09V35.34c0,.18-.87.78-2.26.78h-.5V20h-2V32.11c0,.18-.79.81-2.16.81h-.45V18.1l2.94,1.14h1.64V15.63h-4.93l-.19-.71h9.45l1.54-2.07s1.69,1.42,2.71,2.38c-.08.27-.32.4-.67.4Z" transform="translate(6.32)" fill="#fff"/><path d="M431.63,26.94s1.62,1.36,2.59,2.32c-.07.28-.35.4-.7.4h-4.25v5.76c0,.17-.87.75-2.34.75h-.52V29.66h-3.9l-.2-.73h4.1V24H423l-.2-.73h3.58V18.83H424.1a.62.62,0,0,1-.6.31h-2.16v4.79a4.71,4.71,0,0,1-2.27.66h-.44V23.23h-2.89a21.21,21.21,0,0,1-.92,2.72l1.24.48h2.59L419.94,25l2.72,2.1a1.94,1.94,0,0,1-1,.48v7.22a4.2,4.2,0,0,1-2.34.73h-.47V33.85h-3.16v1.34c0,.2-.79.81-2.11.81h-.48V29a15.84,15.84,0,0,1-2.38,2.65l-.35-.35a20.46,20.46,0,0,0,3-8h-2.19l-.22-.71h2.51c.15-1.14.25-2.27.3-3.38h-3.08l-.2-.73h3.31c.05-1.11.05-2.2.07-3.26h-2.36l-.23-.71h7.07L419.65,13l2.71,2.1a1.9,1.9,0,0,1-1,.53V18l.84-1.34s.75.74,1.42,1.47H428a54.67,54.67,0,0,0,1.22-5.66l3.68,1.14c-.1.28-.4.51-.95.45a34.57,34.57,0,0,1-3.38,4.07h1.54l1.42-1.92s1.59,1.31,2.56,2.22c-.07.28-.32.4-.67.4h-4.13V23.3h.7l1.39-1.89s1.52,1.31,2.44,2.22c-.05.28-.33.4-.67.4h-3.86v4.9h.92Zm-15.89.2v6h3.16v-6Zm2.89-8h-2.19c-.13,1.13-.3,2.27-.52,3.38h2.71Zm-2-4c0,1.06-.07,2.17-.17,3.26h2.14V15.15Zm7.21-2.52c5.7,2.24,2.74,6.56.68,4.39a9,9,0,0,0-.92-4.27Z" transform="translate(6.32)" fill="#fff"/><path d="M163.39,55.76c-.1.25-.32.4-.77.5V70.47a3.53,3.53,0,0,1-2.41.86h-.53V58.23a26,26,0,0,1-2.91,3l-.3-.2a48.6,48.6,0,0,0,5.05-13.41l4,1.29c-.1.3-.37.53-.94.51a36.14,36.14,0,0,1-2.81,5.75Zm-.7,15.37a19.48,19.48,0,0,0,5.1-7.8l3.63,1.82c-.12.25-.35.4-.94.33a18.5,18.5,0,0,1-7.59,5.93ZM177.91,59.6S179.58,61,180.58,62c-.08.28-.35.4-.7.4H163.31l-.19-.73h3.38V54.9H164l-.2-.73h2.74V48l3.78.35c-.08.38-.25.63-.92.73v5.05h3.46V48.06l3.83.33c-.08.38-.25.63-.92.73v5.05h.39l1.42-2s1.62,1.39,2.54,2.35c-.05.28-.3.4-.65.4h-3.7v6.79h.74Zm-8.55,2.09h3.46V54.9h-3.46Zm3.23,2.15c9.6,2.47,7.66,9.11,4.45,7.06A20.24,20.24,0,0,0,172.37,64Z" transform="translate(6.32)" fill="#fff"/><path d="M189.86,56.24a18.65,18.65,0,0,1-2.94,2.6l-.24-.2a39.39,39.39,0,0,0,4.65-11l4,1.41c-.1.31-.43.53-1,.48a30.56,30.56,0,0,1-1.82,3.36l1.1.4c-.08.23-.35.41-.78.48v8.13a3.65,3.65,0,0,1-2.38.78l-.55,0Zm.75,6.76c1.21,3.13.29,5.35-.93,6.11a1.5,1.5,0,0,1-2.28-.53,1.63,1.63,0,0,1,.94-1.92A4.22,4.22,0,0,0,190.26,63Zm13.77,5c.87.28,1.1.61,1.1,1.14,0,1.26-1.22,1.62-6.12,1.62h-3.21c-2.83,0-3.48-.48-3.48-2.43V62.45l3.71.3c0,.35-.28.56-.78.66V67.8c0,.35.13.45,1.05.45h3c1.07,0,2,0,2.44,0a.83.83,0,0,0,.74-.36A15.8,15.8,0,0,0,204.06,65h.25ZM193.71,56.26a27.58,27.58,0,0,0,3.06-8.65l3.88,1.21c-.1.33-.39.53-1,.53-.25.53-.47,1-.72,1.51h7l1.51-1.56,2.66,2.55a1.44,1.44,0,0,1-1,.33,18.36,18.36,0,0,1-3.64,2.44l-.2-.15a25.86,25.86,0,0,0,.78-2.9h-7.57a15.45,15.45,0,0,1-4.5,4.92Zm6.77-.53c-.1.31-.42.51-1,.46a11.86,11.86,0,0,1-5.27,5.07L194,61a16.85,16.85,0,0,0,3-6.57Zm-3,5.76c6.29,1.92,3.6,6.44,1.36,4.37a8.75,8.75,0,0,0-1.61-4.22Zm5.91.45a3.6,3.6,0,0,1-2.21.58h-.52V52.86l3.65.35c0,.35-.24.58-.92.68Zm1.37.69c7.26,2.29,4.58,8,1.94,5.67a9.89,9.89,0,0,0-2.19-5.52Zm0-7.55c7.39,2.24,5,7.7,2.32,5.6a13.13,13.13,0,0,0-2.54-5.45Z" transform="translate(6.32)" fill="#fff"/><path d="M236.47,61.14s1.87,1.41,3,2.39c0,.28-.32.41-.67.41H229c-.82,3.51-3.09,6-12.11,7.44l-.15-.4c6.26-1.92,8.28-4.11,9-7h-8l-.2-.73h8.33a25.6,25.6,0,0,0,.25-3l4.13.3c-.05.36-.3.64-.87.71-.08.68-.15,1.31-.25,2h5.64Zm-10-1.87v-3h-6.84l-.2-.73h7V52.68h-8.18L218,52h6.3a2.49,2.49,0,0,1-.82-.4A7,7,0,0,0,221.85,48l.2-.15c5.25.45,4.8,3.68,3.08,4.14h4.6a33.15,33.15,0,0,0,1.37-4.24l3.91.88c-.1.33-.38.53-.95.51A28.08,28.08,0,0,1,230.53,52h3.88l1.59-2s1.82,1.36,2.89,2.35c-.08.27-.33.4-.7.4h-8.58v2.85H233l1.49-1.86s1.72,1.26,2.76,2.19c-.07.28-.35.4-.7.4h-7v3h5.32l1.62-2.1s1.84,1.42,2.88,2.43c0,.27-.32.4-.64.4H217.15l-.2-.73Zm3.46,5.5c11,.93,10.49,7.45,7.11,6.33A26.59,26.59,0,0,0,229.71,65Z" transform="translate(6.32)" fill="#fff"/><path d="M265,61.74v-1h-2.16v3h2.23l1.37-1.84s1.54,1.26,2.49,2.14a.65.65,0,0,1-.7.41h-5.39V68a18.85,18.85,0,0,0,1.91.08c1.17,0,3.93,0,5.25,0v.3c-.8.18-1.17,1.16-1.17,2.3h-4.2c-3.64,0-5.8-.94-7.07-4.32a9.5,9.5,0,0,1-4.7,5l-.3-.25c2-2.25,3.16-5.43,3.24-9.46l3.7.63c-.07.35-.35.6-.92.65a22.34,22.34,0,0,1-.69,2.58,4.85,4.85,0,0,0,2.28,1.94V60.73h-4L256,60h4.2V57.27H255l-.18-.7h5.37V54.09H256l-.22-.73h4.37v-2H255l-.1-.35c-.12,0-.25.08-.4.13V67.7a3.52,3.52,0,0,1-2.31.86h-.42v-2.1h-2v2.17c0,.33-1,1-2.21,1h-.42V48.72l2.73,1.21h1.62l1.32-1.51,2.66,2.17-.05,0h4.77v-3l3.46.36c-.05.3-.22.55-.79.65v2h2.88l1.42-2s1.59,1.34,2.53,2.25c-.07.28-.32.4-.67.4h-6.16v2h1.91L266,52.05,268.54,54a1.38,1.38,0,0,1-.89.48v2.1h.07l.9-1.44a22,22,0,0,1,1.61,1.74c-.05.28-.27.4-.59.4h-2v3.79a4,4,0,0,1-2.19.68Zm-15.25-11.1V55h2V50.64Zm0,5.07v4.62h2V55.71Zm2,10.07V61.06h-2v4.72Zm11.12-9.21H265V54.09h-2.16ZM265,60V57.27h-2.16V60Z" transform="translate(6.32)" fill="#fff"/><path d="M287.5,53.19a1.84,1.84,0,0,1-1.05.53v15a3.8,3.8,0,0,1-2.31.83h-.42v-2h-3.78v1.87c0,.32-1.05,1-2.24,1h-.45V51.34L280,52.53h.15c.17-1.39.39-3.36.52-4.77l4,1c-.1.43-.45.61-1,.61-.65.88-1.62,2.2-2.41,3.18h2.16L284.79,51Zm-7.56.07v6.26h3.78V53.26Zm3.78,13.63V60.25h-3.78v6.64Zm15.92-13.7a1.74,1.74,0,0,1-1.1.48c-.17,10.17-.52,14.79-1.89,16.27A4.51,4.51,0,0,1,293,71.31a2.78,2.78,0,0,0-.55-2.07,5,5,0,0,0-2.63-1.11l0-.36c1.2.1,2.91.23,3.56.23a1.17,1.17,0,0,0,.92-.33c.92-.86,1.17-5.88,1.34-14.48h-4.62a19.59,19.59,0,0,1-4.21,5.3l-.32-.21a37.84,37.84,0,0,0,3.36-10.55l3.93,1.16c-.1.33-.4.51-1,.51a25.89,25.89,0,0,1-1.4,3.05h4L297,50.81Zm-11,4.41c7.27,2.17,4.55,7.62,1.92,5.38a11.28,11.28,0,0,0-2.12-5.23Z" transform="translate(6.32)" fill="#fff"/><path d="M323.35,59.65c4.37.58,4.92,2.22,4.25,3.13.55.45,1.29,1.11,1.86,1.64-.07.27-.32.4-.67.4H323.4V68c0,2-.43,3-3.66,3.36a3.2,3.2,0,0,0-.6-2,3.59,3.59,0,0,0-2.26-1V68.1s2.76.18,3.28.18.52-.13.52-.43v-3h-14.3l-.2-.73h14.5V62.17l3.56.3c-.05.38-.3.56-.84.66v1h2.11l.57-.78a1.45,1.45,0,0,1-.84-.48,6.28,6.28,0,0,0-1.35-1.52c-3.33.53-7.86,1.09-14.32,1.79a1.24,1.24,0,0,1-.72.54l-1.4-3c1.84.05,5,.05,8.86.05V58.94h-3.83v.2c0,.23-1.2.78-2.32.78h-.37V51.6l2.86,1.13h3.66V50.91h-9.43l-.22-.7h9.65V47.66L320,48c-.05.35-.28.6-.92.7v1.52h5.59l1.47-2s1.67,1.34,2.66,2.27c-.07.28-.35.4-.69.4h-9v1.82h3.8l1.27-1.39,2.69,2a1.89,1.89,0,0,1-1,.53v5a3.63,3.63,0,0,1-2.26.76ZM310.41,65.3c7.34,0,5.67,5.53,2.84,4a8.61,8.61,0,0,0-3-3.86Zm2.07-11.86v2h3.83v-2Zm3.83,4.79v-2h-3.83v2Zm2.76-4.79v2h4.05v-2Zm4.05,2.75h-4.05v2h4.05Zm-.1,4.49a8.07,8.07,0,0,0-1.79-.88l.1-.33c.65,0,1.24.08,1.79.15v-.68h-4.05v1.77Z" transform="translate(6.32)" fill="#fff"/><path d="M335.86,70.22a22.83,22.83,0,0,0,6.92-6l3.13,2.19c-.2.25-.47.33-1.07.2A18.6,18.6,0,0,1,336,70.52Zm20.5-19.31s1.69,1.19,2.71,2.1c-.08.28-.33.4-.7.4h-7.63l3.25.94c-.07.3-.37.48-.92.45A20.18,20.18,0,0,1,350.36,57h3.21l1.52-1.82s1.69,1.22,2.76,2.12a.63.63,0,0,1-.67.41H349V60h3.18l1.42-1.74s1.64,1.16,2.66,2c-.07.28-.32.41-.69.41H349V63.1h5.47L356,61.21s1.74,1.26,2.78,2.22c-.05.28-.32.41-.64.41H349v6.84a3.32,3.32,0,0,1-2.41.7H346V63.84h-9.4l-.2-.74H346V60.66h-7l-.2-.71H346V57.68H337.8l-.2-.71H344a1.94,1.94,0,0,1-.78-.4,5.27,5.27,0,0,0-1.14-2.93l.22-.15c4.36.58,3.83,3.13,2.39,3.48h4.55a25.72,25.72,0,0,0,1.2-3.56h-14l-.19-.73h5.07a1.94,1.94,0,0,1-.8-.4,6.39,6.39,0,0,0-1.66-3.74l.22-.15c4.88.83,4.38,4,2.81,4.29h2.29v-5l3.33.31c0,.3-.22.53-.77.63v4.06h1.72v-5l3.38.31c-.05.3-.22.53-.8.63v4.06h.73a32.11,32.11,0,0,0,1.64-4.47l3.5,1.11c-.12.31-.42.51-1,.43a21.79,21.79,0,0,1-3.58,2.93h2.51ZM349.72,65.2C363,66.94,358,72.27,355.59,70a17.22,17.22,0,0,0-6-4.49Z" transform="translate(6.32)" fill="#fff"/><path d="M373.13,51s1.39,1.11,2.21,1.91c0,.28-.3.41-.65.41H366l-.2-.73h6.17Zm-.77,3.33s1.31,1,2.08,1.81c-.07.28-.29.41-.64.41h-6.87l-.2-.73h4.51Zm-5.43,5.47-.2-.73h4.48l1.15-1.49s1.31,1,2.08,1.82c-.07.28-.29.4-.64.4Zm5.72,1.27L375.12,63a1.56,1.56,0,0,1-.9.48v5.88a3.39,3.39,0,0,1-2.09.76h-.42V68.76h-2.49v1.56c0,.23-1.07.78-2.09.78h-.37V61.26l2.59,1.09h2.14Zm-5-13c6.45.31,4.16,5.3,1.57,3.56a7.71,7.71,0,0,0-1.74-3.43Zm4.11,19.94v-5h-2.49v5ZM374.17,58l-.2-.69h3.09l1.17-1.66s1.29,1.13,2.06,1.94c-.05.28-.3.41-.62.41Zm.42-6.44-.2-.68h2.09l1.07-1.59s1.27,1.11,2,1.87a.61.61,0,0,1-.65.4Zm10.82,9.11,2.69,2.07a2,2,0,0,1-1,.51V70.5a4.14,4.14,0,0,1-2.23.68h-.45V69.49h-5.5v1c0,.26-1.19.86-2.31.86h-.4V60.88L379.05,62h5.12ZM385,53.49c-.08.28-.3.5-.88.5,0,.18-.07.33-.09.51.49,2.14,1.91,3.53,5.22,4.21V59a2,2,0,0,0-1.79,2.1c-2.41-.94-3.34-3.06-3.76-5.53-.72,2.19-2.29,4.44-6.24,5.8l-.25-.32c3.63-2,4.38-5.38,4.48-8.28Zm-6.62,1.44a29.92,29.92,0,0,0,2.21-7.17L384,48.82c-.1.33-.4.53-.95.53-.27.55-.55,1.08-.87,1.62h3.33l1.3-1.34,2.31,2.24c-.2.21-.47.26-1,.28a15.9,15.9,0,0,1-3,3.26l-.27-.18a33.8,33.8,0,0,0,.77-3.53h-4a14.15,14.15,0,0,1-3.06,3.45Zm6.07,13.85v-6h-5.5v6Z" transform="translate(6.32)" fill="#fff"/><path d="M404.17,50.81s1.47,1.19,2.37,2a.6.6,0,0,1-.65.4H395.82l-.2-.71h7.23Zm-2.29,5,1.27-1.65s1.42,1.14,2.27,2c-.05.28-.3.41-.65.41h-7.84l-.19-.73Zm1.27,1.64s1.42,1.11,2.27,1.94c-.05.28-.3.4-.65.4h-7.84l-.19-.73h5.14Zm.15,3.63L405.86,63a1.45,1.45,0,0,1-.94.51v5.78a3.81,3.81,0,0,1-2.17.73h-.44V68.71h-2.64v1.54c0,.25-1.14.83-2.21.83h-.38V61.31l2.67,1.06h2.31ZM398.55,48c6.59.33,4.2,5.45,1.57,3.66a7.19,7.19,0,0,0-1.77-3.51Zm3.76,20V63.1h-2.64V68Zm17-15a1.49,1.49,0,0,1-1.07.51c-.05,10.37-.15,15.12-1.37,16.53a4.16,4.16,0,0,1-3.48,1.36,2.66,2.66,0,0,0-.52-2,6,6,0,0,0-2.64-1.09l0-.35c1.14.13,2.88.23,3.48.23a1,1,0,0,0,.89-.33c.77-.81.85-6,.9-14.84h-6a24.9,24.9,0,0,1-1.64,2.3l1.77.73h1.89l1.17-1.29,2.46,1.89a1.7,1.7,0,0,1-1,.53v8.1a3.49,3.49,0,0,1-2,.66h-.37V64.57h-2.24V66c0,.28-1,.81-2.06.81h-.35V56.19a19.05,19.05,0,0,1-2.17,2.07l-.3-.2a39.2,39.2,0,0,0,3.93-10.27l3.71,1.31c-.1.28-.42.48-1,.45-.45,1-.89,1.89-1.39,2.75h5.27l1.52-1.61Zm-9.75,3.79v3h2.24v-3Zm2.24,7.07V60.55h-2.24v3.29Z" transform="translate(6.32)" fill="#fff"/></svg>