<svg width="140" height="131" viewBox="0 0 140 131" fill="none" xmlns="http://www.w3.org/2000/svg">
<path d="M91.6191 59.0127C91.4092 58.908 91.1993 58.8034 90.9894 58.5941C90.7796 58.3849 90.4647 58.1756 90.2548 57.8617C87.3163 54.4088 84.4827 51.1652 81.7541 48.1309C79.1304 45.0965 76.2968 41.9576 73.4632 38.8186C72.2038 37.4584 71.4692 36.6213 70.9445 36.3074C70.5247 35.9935 70.1049 35.7842 69.79 35.7842C69.3703 35.7842 69.1604 35.8889 69.0554 35.9935C68.9505 36.2028 68.8455 36.412 68.6356 36.8306C68.6356 39.2371 68.6356 41.539 68.6356 43.7363C68.6356 45.829 68.6356 47.7123 68.7406 49.1772C68.7406 50.5374 68.8455 51.793 69.0554 52.944C69.1604 54.0949 69.4752 54.932 69.9999 55.5598C70.3148 55.9783 70.7346 56.3968 71.3643 56.7107C71.889 57.0246 72.5187 57.3385 73.1484 57.5478C73.7781 57.7571 74.4077 57.9663 75.0374 58.071C75.6671 58.1756 76.1918 58.2802 76.7166 58.2802V59.0127H54.2578V58.2802C55.4122 58.071 56.5667 57.8617 57.6161 57.4432C58.6656 57.0246 59.5052 56.6061 60.0299 55.8737C60.2398 55.5598 60.4497 55.1413 60.5547 54.6181C60.6596 54.0949 60.7646 53.4671 60.8695 52.7347C60.9745 52.0023 60.9745 51.2699 60.9745 50.4328C60.9745 49.5957 60.9745 48.8633 60.9745 48.1309C60.9745 47.5031 60.9745 46.5614 60.9745 45.5151C60.9745 44.3641 60.9745 43.2131 60.9745 41.8529C60.9745 40.4927 60.9745 39.1325 60.9745 37.7722C60.9745 36.3074 60.9745 34.9472 60.9745 33.6916V20.0893C60.9745 18.3106 60.8695 16.7411 60.7646 15.1716C60.6596 13.7068 60.3448 12.6604 59.82 11.928C59.1903 11.0909 58.3508 10.5678 57.4062 10.1492C56.6716 10.0446 55.6221 9.83535 54.4677 9.62609V8.99829H76.0869V9.73072C75.2473 9.83535 74.3028 9.93998 73.4632 10.1492C72.6236 10.3585 71.889 10.6724 71.2593 11.1956C70.6296 11.7187 70.1049 12.5558 69.5802 13.6021C69.1604 14.6484 68.8455 16.2179 68.8455 18.1013C68.8455 19.1477 68.7406 20.194 68.7406 21.1357C68.7406 22.0774 68.7406 23.1237 68.7406 24.3793C68.7406 25.6349 68.7406 26.9951 68.7406 28.7738C68.7406 30.448 68.7406 32.5406 68.7406 35.1564C69.5802 34.6333 70.7346 33.7962 72.0989 32.5406C73.5682 31.285 75.0374 29.9248 76.6116 28.3553C78.1859 26.7858 79.7601 25.2163 81.2293 23.6469C82.8035 22.0774 84.0629 20.6125 85.2173 19.3569C86.0569 18.4152 86.6866 17.4735 87.3163 16.5318C87.946 15.5901 88.2608 14.6485 88.2608 13.916C88.2608 12.5558 87.841 11.6141 86.8965 10.9863C85.952 10.3585 84.9025 9.93998 83.6431 9.83535V8.99829H102.324V9.73072C99.91 9.93998 97.6011 10.9863 95.1874 12.7651C92.7736 14.5438 90.2548 16.5318 87.841 18.8338C86.8965 19.6708 85.847 20.7171 84.7975 21.6588C83.7481 22.7052 82.8035 23.6469 81.7541 24.6932C80.7046 25.7395 79.7601 26.6812 78.8155 27.6229C77.871 28.5646 77.0314 29.5063 76.1918 30.3433C76.6116 30.7619 77.4512 31.8082 78.8155 33.3777C80.1799 34.9472 81.7541 36.7259 83.6431 38.8186C85.5322 40.9112 87.5262 43.1085 89.6251 45.5151C91.7241 47.9216 93.823 50.1189 95.7121 52.3162C96.1319 52.8393 96.7616 53.4671 97.2863 53.9903C97.916 54.5135 98.4407 55.0366 99.0704 55.4552C99.5952 55.8737 100.12 56.2922 100.54 56.6061C100.959 56.92 101.274 57.1293 101.379 57.1293C102.009 57.3385 102.849 57.5478 103.898 57.8617C104.947 58.071 106.102 58.2802 107.466 58.3849V59.1173H91.6191V59.0127Z" fill="white"/>
<path d="M53.4178 57.9664C52.893 57.8618 52.2633 57.6525 51.7386 57.4432C50.6891 57.0247 49.8495 56.6062 49.3248 55.8738C49.1149 55.5599 48.905 55.1413 48.8001 54.6182C48.6951 54.095 48.5902 53.4672 48.4852 52.7348V14.7532V13.4976H47.9605L40.4043 15.9041L35.1569 17.5782V18.1014C35.9965 18.4153 36.8361 18.7292 37.6756 19.1477C38.5152 19.5662 39.1449 19.8801 39.6696 20.2987C40.0894 20.6126 40.4043 20.9265 40.5092 21.345C40.6142 21.6589 40.6142 22.0774 40.6142 22.6006C40.6142 22.8099 40.6142 23.0191 40.6142 23.2284V34.9472V36.6214V49.2819C40.6142 50.6421 40.5092 51.7931 40.2993 52.944C40.1944 54.095 39.8795 54.9321 39.3548 55.5599C39.04 55.9784 38.6202 56.3969 37.9905 56.7108C37.4657 57.0247 36.8361 57.3386 36.2064 57.5479C35.5767 57.7571 35.0519 57.8618 34.4223 57.9664C34.3173 57.9664 34.3173 57.9664 34.2124 57.9664C34.1074 57.9664 34.1074 57.9664 34.0025 57.9664C33.4777 58.071 32.953 58.1757 32.5332 58.1757V58.9081H34.0025H54.3623V58.071C54.1524 58.1757 53.7326 58.071 53.4178 57.9664Z" fill="white"/>
<path d="M47.7511 1.46486C46.7017 0.523163 45.5472 0 44.078 0C42.6087 0 41.4543 0.523163 40.4048 1.46486C39.4603 2.40655 38.9355 3.55751 38.9355 5.02236C38.9355 6.38259 39.4603 7.63818 40.4048 8.57987C40.5098 8.6845 40.7197 8.89377 40.8246 8.9984C41.7691 9.73083 42.8186 10.1494 43.973 10.1494C45.2324 10.1494 46.2819 9.73083 47.2264 8.9984C47.3314 8.89377 47.4363 8.78914 47.6462 8.68451C48.5907 7.74281 49.1155 6.48722 49.1155 5.02236C49.2204 3.55751 48.6957 2.40655 47.7511 1.46486Z" fill="white"/>
<path d="M26.2369 87.4727C24.2429 92.3904 21.5142 96.4711 18.051 99.8194C22.039 102.854 26.7616 105.26 32.2189 106.934L31.0645 108.609C25.5023 106.83 20.6747 104.319 16.5817 101.075C12.3838 104.528 7.24138 107.039 1.04948 108.609L0 106.934C6.08696 105.47 11.0195 103.063 15.1124 99.8194C11.3343 96.4711 8.29085 92.3904 5.98201 87.5773L7.45127 86.7403C9.65517 91.4488 12.6987 95.4248 16.5817 98.6684C20.1499 95.4248 22.8786 91.3441 24.6627 86.6357L26.2369 87.4727ZM8.6057 79.9392V76.0678H10.4948V79.9392H15.1124V81.7179H10.4948V85.5893H8.6057V81.7179H0.629685V79.9392H8.6057ZM23.5082 75.9631V79.8345H31.4843V81.6133H23.5082V85.4847H21.6192V81.6133H17.0015V79.8345H21.6192V75.9631H23.5082Z" fill="white"/>
<path d="M68.0056 78.1604V80.0438H63.0731V104.946C63.0731 107.144 61.9187 108.295 59.7148 108.295H53.7327L53.313 106.411C55.307 106.516 57.196 106.516 58.9801 106.516C60.3444 106.516 60.9741 105.783 60.9741 104.423V80.0438H36.1016V78.1604H68.0056ZM53.9426 98.8777H42.3984V102.121H40.5094V86.2171H53.9426V98.8777V98.8777ZM52.0536 97.0989V87.8912H42.2935V96.9943H52.0536V97.0989Z" fill="white"/>
<path d="M89.3098 94.4832C89.2049 95.5295 88.89 96.5758 88.5752 97.4129H102.743V99.2963H87.9455C87.1059 100.97 86.0565 102.54 84.5872 103.795C82.2783 105.888 78.1854 107.562 72.3083 108.818L71.4688 106.934C76.8211 105.888 80.5992 104.423 83.013 102.54C84.0625 101.598 85.007 100.552 85.7416 99.2963H73.1479V97.4129H86.5812C86.896 96.3666 87.2109 95.3202 87.4208 94.2739L89.3098 94.4832ZM82.0685 79.73C81.5437 78.3698 80.8091 77.1142 80.1794 76.0678L82.1734 75.7539C82.8031 76.9049 83.4328 78.2651 83.9575 79.73H91.9335C92.6682 78.3698 93.1929 77.0095 93.6127 75.5447L95.6067 75.8586C95.2918 77.2188 94.6622 78.579 93.9275 79.73H102.323V81.5087H88.995V85.4848H100.644V87.1589H88.995V91.1349H103.688V93.0183H72.3083V91.1349H87.001V87.1589H75.5617V85.4848H87.001V81.5087H73.5677V79.73H82.0685ZM104.422 107.144L103.268 108.818C98.5452 106.202 93.7176 104.005 88.7851 102.54L89.8346 100.97C95.1869 102.645 100.014 104.737 104.422 107.144Z" fill="white"/>
<path d="M117.961 103.168H110.719V107.039H108.83V77.742H117.856V103.168H117.961ZM116.071 85.6941V79.6254H110.824V85.6941H116.071ZM116.071 93.3322V87.4728H110.824V93.3322H116.071ZM116.071 101.389V95.2156H110.824V101.389H116.071ZM130.239 95.6342V99.2963H138.425V100.97H130.239V105.888C131.499 105.993 132.968 106.097 134.647 106.097C136.746 106.097 138.53 105.993 139.999 105.993L139.475 107.876C137.691 107.876 136.116 107.876 134.752 107.772C130.449 107.772 127.511 107.353 126.041 106.621C124.782 105.888 123.628 104.633 122.578 102.749C121.739 105.051 120.584 106.934 119.22 108.399L117.646 107.353C119.955 104.946 121.529 101.598 122.158 97.3083L123.943 97.6222C123.733 98.8778 123.523 100.029 123.208 101.075C124.257 103.272 125.517 104.633 126.881 105.26C127.301 105.47 127.826 105.574 128.35 105.784V95.7388H121.424V94.0647H128.35V90.6118H120.269V88.9377H128.35V85.4848H121.634V83.8107H128.35V80.4624H120.059V78.6837H128.35V76.0679H130.134V78.6837H139.265V80.4624H130.134V83.8107H137.061V88.9377H139.685V90.6118H137.061V95.8434H130.239V95.6342ZM130.239 88.7284H135.382V85.2755H130.239V88.7284ZM130.239 90.4025V93.8554H135.382V90.4025H130.239Z" fill="white"/>
<path d="M15.0083 116.77L15.638 117.398C14.9033 118.758 13.8539 120.328 12.4895 122.106C11.2302 123.676 10.0757 125.036 8.92132 126.082C10.3906 127.443 11.7549 128.803 13.0143 130.268L12.1747 131C10.9153 129.535 9.55101 128.07 7.7669 126.501C6.08774 124.931 4.51353 123.676 3.25416 122.839L3.98879 122.002C5.35311 122.943 6.71743 123.99 8.18669 125.35C9.23617 124.304 10.3906 123.153 11.3351 121.792C12.4895 120.432 13.3291 119.072 14.1687 117.816H0.945312V116.77H15.0083Z" fill="white"/>
<path d="M25.6068 122.42L24.6622 122.943C24.1375 121.897 23.7177 121.164 23.4029 120.537C22.8781 119.7 22.4583 118.863 21.9336 118.13L22.8781 117.502C23.7177 118.967 24.6622 120.537 25.6068 122.42ZM36.1015 116.979C35.4718 120.223 34.5273 123.048 33.058 125.245C31.3789 127.861 28.9651 129.744 26.0265 130.895L25.2919 129.954C28.1255 128.803 30.3294 127.024 31.9036 124.617C33.2679 122.525 34.3174 119.909 34.8421 116.77L36.1015 116.979ZM29.9096 120.955L28.9651 121.478C28.3354 120.327 27.9156 119.595 27.7057 119.072C27.181 118.235 26.7612 117.398 26.2364 116.665L27.181 116.142C28.0206 117.398 28.9651 118.967 29.9096 120.955Z" fill="white"/>
<path d="M55.7268 117.816V118.862H50.2695V128.698H56.9861V129.744H42.3984V128.698H49.1151V118.862H43.6578V117.816H55.7268Z" fill="white"/>
<path d="M70.0004 115.514C69.7905 116.247 69.4756 116.979 69.0558 117.816H75.6675L76.4022 118.235C75.8774 121.164 74.8279 123.78 73.1488 125.978C71.4696 128.175 69.1608 129.849 66.4321 131L65.8025 130.058C68.2163 129.117 70.2103 127.652 71.7845 125.873C73.4636 123.885 74.5131 121.688 75.0378 118.967H68.4261C68.2163 119.386 67.9014 119.804 67.5866 120.327C66.5371 121.792 65.3827 123.048 64.1233 124.094L63.3887 123.362C64.648 122.315 65.8025 121.164 66.747 119.7C67.6915 118.235 68.4261 116.875 68.9509 115.41L70.0004 115.514Z" fill="white"/>
<path d="M86.7909 119.176V115.305H87.8403V119.176H94.1372V115.096H95.1867V119.176H98.8598V120.223H95.1867V122.629C95.1867 124.722 94.7669 126.396 93.8224 127.756C92.8778 129.116 91.4086 130.163 89.4146 130.895L88.8898 129.954C90.7789 129.221 92.1432 128.279 92.9828 127.128C93.8224 125.977 94.2421 124.513 94.2421 122.629V120.223H87.9453V124.722H86.8958V120.223H83.2227V119.176H86.7909Z" fill="white"/>
<path d="M118.067 117.816V129.744H105.578V117.816H118.067ZM106.523 128.698H116.912V118.862H106.523V128.698Z" fill="white"/>
<path d="M131.289 119.7L130.555 120.537C128.561 119.072 126.776 117.921 125.412 117.189L125.937 116.247C127.406 116.979 129.19 118.13 131.289 119.7ZM139.58 119.909C138.321 122.629 136.746 124.931 134.752 126.815C132.549 128.803 129.925 130.163 126.881 131L126.357 129.954C129.19 129.221 131.709 127.966 133.808 126.082C135.802 124.304 137.376 122.106 138.531 119.49L139.58 119.909Z" fill="white"/>
</svg>
