<svg width="397" height="88" viewBox="0 0 397 88" fill="none" xmlns="http://www.w3.org/2000/svg">
<path d="M341.239 78.8001C340.139 80.9001 337.038 82.7001 334.137 82.9001C310.627 84.0001 289.218 84.4001 268.61 84.2001C261.507 84.1001 254.404 84.2001 247.401 84.4001C235.596 84.6001 223.391 84.8001 211.486 84.0001C191.078 82.7001 170.37 83.1001 152.062 83.5001C135.956 83.9001 119.549 83.8001 103.642 83.8001H93.3382C84.9348 83.8001 75.9311 83.9001 66.7273 84.8001C64.6265 85.0001 61.2251 84.5001 59.8245 84.2001C58.3239 84.0001 56.4231 83.2001 55.7228 81.7001C55.1226 80.5001 55.3227 79.0001 55.5228 77.5001V77.2001C56.4231 70.1001 56.023 63.8001 54.1222 56.7001C53.2218 53.3001 53.5219 50.0001 53.8221 46.5001C54.0221 44.1001 54.3223 41.7001 54.1222 39.2001L54.0221 37.1001C53.9221 35.3001 53.8221 33.7001 53.622 31.8001C53.4219 29.3001 53.3219 26.7001 54.0221 24.4001C54.1222 23.9001 54.2222 23.5001 54.3223 23.1001C55.5228 24.1001 57.3235 24.2001 58.3239 24.2001C75.731 25.0001 93.3382 24.9001 107.944 24.0001C121.85 24.0001 135.856 23.7001 149.461 23.4001C173.371 22.9001 197.981 22.3001 222.291 23.7001C242.099 24.9001 262.407 25.2001 286.217 24.6001H287.217C297.722 24.4001 308.626 24.1001 319.431 24.8001H320.131C326.133 25.2001 333.636 25.6001 339.539 24.4001C340.039 24.3001 340.439 24.2001 340.839 24.0001C341.039 25.1001 340.939 26.2001 340.939 27.4001C340.839 29.0001 340.839 30.7001 341.239 32.3001C342.14 35.6001 342.14 38.3001 342.04 42.1001C342.04 43.6001 342.04 45.3001 342.04 47.2001C342.14 49.5001 341.94 51.7001 341.84 53.9001C341.64 56.5001 341.54 59.3001 341.74 62.1001C341.84 63.9001 342.14 65.6001 342.44 67.3001C342.64 68.5001 342.84 69.6001 343.04 70.8001C343.74 73.6001 342.34 76.7001 341.239 78.8001ZM386.758 47.3001C383.457 42.6001 380.155 37.7001 376.454 33.0001C375.653 32.0001 374.753 30.8001 374.553 29.6001C374.153 27.4001 376.054 25.2001 377.854 23.4001C381.156 19.9001 384.357 16.2001 387.458 12.6001C390.059 9.60008 392.66 6.50008 395.362 3.60008C395.962 2.90008 396.062 2.00008 395.662 1.30008C395.262 0.500082 394.461 8.16183e-05 393.461 0.100082C388.359 0.200082 383.257 1.00008 378.755 1.70008C370.151 2.20008 361.248 2.30008 352.244 1.80008L350.943 1.70008C339.039 1.00008 333.636 0.700081 321.131 2.30008C317.83 2.70008 316.729 3.10008 315.229 3.50008C314.328 3.80008 313.228 4.10008 311.427 4.50008C308.726 5.10008 307.226 6.30008 307.126 7.90008C307.126 8.10008 307.126 8.20008 307.126 8.40008C307.126 10.3001 307.025 12.1001 307.025 13.9001C306.925 16.6001 306.825 19.3001 307.025 22.1001C300.523 22.1001 294.02 22.2001 287.718 22.3001H286.717C263.008 22.8001 242.699 22.5001 222.991 21.4001C198.581 20.0001 173.871 20.5001 149.961 21.1001C136.356 21.4001 122.35 21.7001 108.444 21.7001C102.842 22.1001 96.7396 22.3001 90.337 22.4001C90.1369 19.8001 90.1369 17.2001 90.1369 14.6001C90.1369 12.4001 90.2369 10.2001 90.0368 7.80008C90.1369 5.10008 85.535 4.10008 83.8343 4.00008C81.9335 3.80008 74.9307 3.50008 73.0299 3.50008C60.2247 3.40008 48.9201 3.00008 38.0156 2.60008C27.0111 2.10008 15.7065 1.70008 2.80122 1.70008C2.30102 1.70008 1.30061 1.70008 0.700366 2.40008C0.300203 2.80008 -0.200002 3.80008 0.900448 5.40008C6.60278 13.5001 11.8049 19.2001 16.2067 22.6001C18.9078 24.7001 23.5097 28.7001 23.4096 33.0001C23.4096 35.4001 21.7089 37.5001 19.7081 39.8001C17.007 42.9001 14.2059 45.1001 11.3047 47.4001C8.40351 49.7001 5.40229 52.1001 2.60114 55.3001C1.70077 56.3001 0.700366 57.4001 0.300203 58.9001C-0.0999606 60.4001 0.200162 62.4001 1.80082 63.5001C2.80122 64.2001 4.10176 64.2001 5.00212 64.3001C15.8065 64.9001 26.6109 65.3001 37.5154 65.3001C42.9176 65.3001 48.2198 65.2001 53.622 65.1001C54.1222 69.0001 54.0221 72.9001 53.5219 77.1001V77.4001C53.3219 79.1001 53.0217 81.0001 53.9221 82.8001C54.8225 84.8001 57.0234 86.2001 59.8245 86.7001C61.9254 87.0001 64.2263 87.3001 66.1271 87.3001C66.5272 87.3001 67.0275 87.3001 67.3276 87.2001C76.5313 86.4001 85.435 86.3001 93.7384 86.3001H103.943C119.849 86.3001 136.256 86.3001 152.362 86.0001C170.57 85.6001 191.278 85.1001 211.586 86.5001C223.691 87.3001 235.896 87.1001 247.701 86.9001C254.604 86.8001 261.807 86.7001 268.81 86.7001C289.418 86.9001 310.827 86.5001 334.437 85.4001C338.238 85.2001 342.14 82.9001 343.64 80.1001C344.841 77.8001 346.342 74.3001 345.941 70.9001C345.841 69.7001 345.541 68.5001 345.341 67.3001C345.241 66.7001 345.141 66.0001 345.041 65.4001C349.543 65.5001 358.647 65.5001 366.15 65.4001C369.951 65.4001 373.253 65.3001 374.953 65.3001C380.856 65.3001 386.658 64.5001 392.46 63.7001C392.861 63.7001 393.161 63.7001 393.561 63.6001C394.561 63.6001 395.362 63.0001 395.862 62.2001C396.262 61.4001 396.262 60.4001 395.662 59.7001C392.36 55.5001 389.559 51.3001 386.758 47.3001ZM309.326 14.1001C309.326 13.2001 309.426 12.4001 309.426 11.5001C309.927 11.7001 310.327 12.0001 310.927 12.2001C315.629 13.8001 318.73 14.4001 322.032 15.1001C324.333 15.6001 326.734 16.1001 329.935 16.9001C334.036 18.0001 334.937 18.5001 337.538 20.0001C338.238 20.4001 338.939 20.8001 339.839 21.3001C340.339 21.6001 340.439 21.8001 340.439 21.7001C340.339 21.8001 339.939 22.1001 339.239 22.2001C333.636 23.3001 326.333 22.9001 320.431 22.5001H319.731C316.229 22.3001 312.628 22.2001 309.126 22.2001C309.126 19.4001 309.226 16.8001 309.326 14.1001ZM56.6232 19.3001C57.4235 18.6001 58.624 18.3001 59.7245 18.1001C63.1259 17.3001 67.2275 16.5001 71.1291 15.7001C75.0307 14.9001 79.1324 14.1001 82.6338 13.3001C83.7343 13.0001 85.8351 12.5001 87.5358 11.4001C87.5358 12.5001 87.5358 13.5001 87.5358 14.6001C87.5358 17.2001 87.4358 19.8001 87.7359 22.5001C78.4321 22.6001 68.5281 22.5001 58.8241 22.0001C57.7237 22.0001 56.5232 21.8001 56.123 21.2001C55.7228 20.6001 56.023 19.7001 56.6232 19.3001ZM5.00212 62.0001C4.2018 62.0001 3.50151 61.9001 3.10135 61.6001C2.40106 61.2001 2.30102 60.2001 2.5011 59.4001C2.80122 58.4001 3.60155 57.5001 4.30184 56.6001C7.00294 53.5001 9.80408 51.3001 12.7053 49.0001C15.6065 46.7001 18.6077 44.3001 21.4088 41.1001C23.2096 39.1001 25.6105 36.3001 25.7106 32.9001C25.8106 27.7001 20.7085 23.1001 17.6073 20.7001C13.4056 17.6001 8.40351 12.0001 2.90127 4.10008C2.80122 4.00008 2.70118 4.00008 2.70118 3.90008C2.70118 3.90008 2.70118 3.90008 2.80122 3.90008C15.6065 4.00008 26.9111 4.40008 37.9156 4.80008C48.9201 5.20008 60.2247 5.70008 73.1299 5.70008C74.9307 5.70008 81.8335 6.00008 83.4342 6.10008C85.535 6.30008 87.5358 7.20008 87.4358 7.70008C87.2357 9.50008 84.2345 10.5001 82.0336 11.0001C78.6322 11.8001 74.5305 12.6001 70.6289 13.4001C66.7273 14.2001 62.6257 15.0001 59.1242 15.8001C58.1238 16.0001 56.9233 16.3001 55.9229 16.9001C53.3219 18.0001 52.8216 20.1001 52.3214 22.2001C52.2214 22.7001 52.1214 23.2001 51.9213 23.6001C51.121 26.3001 51.221 29.1001 51.4211 31.8001C51.6212 33.7001 51.6212 35.3001 51.8212 37.1001L51.9213 39.2001C52.0213 41.5001 51.8212 43.9001 51.6212 46.2001C51.321 49.7001 50.9209 53.4001 51.9213 57.1001C52.4215 59.0001 52.8216 60.8001 53.1218 62.6001C37.1152 63.1001 21.0087 62.9001 5.00212 62.0001ZM341.239 78.8001C340.139 80.9001 337.038 82.7001 334.137 82.9001C310.627 84.0001 289.218 84.4001 268.61 84.2001C261.507 84.1001 254.404 84.2001 247.401 84.4001C235.596 84.6001 223.391 84.8001 211.486 84.0001C191.078 82.7001 170.37 83.1001 152.062 83.5001C135.956 83.9001 119.549 83.8001 103.642 83.8001H93.3382C84.9348 83.8001 75.9311 83.9001 66.7273 84.8001C64.6265 85.0001 61.2251 84.5001 59.8245 84.2001C58.3239 84.0001 56.4231 83.2001 55.7228 81.7001C55.1226 80.5001 55.3227 79.0001 55.5228 77.5001V77.2001C56.4231 70.1001 56.023 63.8001 54.1222 56.7001C53.2218 53.3001 53.5219 50.0001 53.8221 46.5001C54.0221 44.1001 54.3223 41.7001 54.1222 39.2001L54.0221 37.1001C53.9221 35.3001 53.8221 33.7001 53.622 31.8001C53.4219 29.3001 53.3219 26.7001 54.0221 24.4001C54.1222 23.9001 54.2222 23.5001 54.3223 23.1001C55.5228 24.1001 57.3235 24.2001 58.3239 24.2001C75.731 25.0001 93.3382 24.9001 107.944 24.0001C121.85 24.0001 135.856 23.7001 149.461 23.4001C173.371 22.9001 197.981 22.3001 222.291 23.7001C242.099 24.9001 262.407 25.2001 286.217 24.6001H287.217C297.722 24.4001 308.626 24.1001 319.431 24.8001H320.131C326.133 25.2001 333.636 25.6001 339.539 24.4001C340.039 24.3001 340.439 24.2001 340.839 24.0001C341.039 25.1001 340.939 26.2001 340.939 27.4001C340.839 29.0001 340.839 30.7001 341.239 32.3001C342.14 35.6001 342.14 38.3001 342.04 42.1001C342.04 43.6001 342.04 45.3001 342.04 47.2001C342.14 49.5001 341.94 51.7001 341.84 53.9001C341.64 56.5001 341.54 59.3001 341.74 62.1001C341.84 63.9001 342.14 65.6001 342.44 67.3001C342.64 68.5001 342.84 69.6001 343.04 70.8001C343.74 73.6001 342.34 76.7001 341.239 78.8001ZM393.461 61.0001C393.361 61.1001 393.361 61.1001 393.261 61.1001C392.861 61.1001 392.46 61.1001 391.96 61.2001C386.158 62.1001 380.455 62.8001 374.753 62.8001C373.052 62.8001 369.751 62.8001 365.95 62.9001C358.647 63.0001 348.843 63.0001 344.541 62.9001C344.541 62.6001 344.441 62.3001 344.441 62.0001C344.241 59.3001 344.441 56.8001 344.541 54.1001C344.641 51.9001 344.841 49.6001 344.741 47.3001C344.741 45.4001 344.741 43.8001 344.741 42.2001C344.741 38.4001 344.841 35.5001 343.841 31.9001C343.44 30.6001 343.54 29.1001 343.64 27.6001C343.74 25.6001 343.841 23.5001 342.84 21.5001C342.64 20.4001 341.54 19.8001 341.139 19.6001C340.239 19.1001 339.439 18.6001 338.838 18.3001C336.137 16.7001 335.037 16.1001 330.635 14.9001C327.334 14.0001 324.933 13.5001 322.532 13.0001C319.13 12.3001 316.229 11.7001 311.727 10.1001C310.527 9.70008 309.326 9.00008 309.426 8.30008C309.526 7.50008 311.027 7.10008 311.927 6.90008C313.828 6.40008 315.029 6.10008 315.929 5.80008C317.43 5.30008 318.33 5.10008 321.431 4.70008C333.636 3.10008 339.039 3.40008 350.743 4.00008L352.044 4.10008C361.148 4.60008 370.151 4.60008 378.955 4.00008C383.657 3.30008 388.559 2.50008 393.361 2.30008C390.66 5.30008 387.959 8.40008 385.357 11.4001C382.256 15.0001 379.055 18.7001 375.854 22.1001C373.753 24.4001 371.452 27.0001 372.052 30.2001C372.352 31.9001 373.453 33.4001 374.353 34.5001C378.054 39.1001 381.356 44.0001 384.557 48.7001C387.358 52.7001 390.159 56.9001 393.261 60.9001C393.461 60.9001 393.461 60.9001 393.461 61.0001Z" fill="url(#paint0_linear)"/>
<path d="M98.149 43.533C97.56 44.773 96.661 46.292 95.793 47.501C94.708 46.819 93.096 46.261 90.771 46.106L90.523 46.354C92.135 47.594 94.088 49.733 94.863 51.562C97.157 52.709 98.676 50.074 96.506 48.059C98.397 47.005 100.567 45.486 101.838 44.215C102.489 44.153 102.83 44.091 103.078 43.843L100.009 40.867L98.149 42.665H87.733L88.012 43.533H98.149ZM83.734 59.87V66.225H78.836V59.87H83.734ZM77.41 49.113C79.549 47.222 81.285 44.99 82.401 42.975C83.672 44.277 84.478 45.858 84.881 47.191H84.85L83.3 49.113H77.41ZM84.261 53.98H82.897V49.981H86.834C87.268 49.981 87.578 49.826 87.671 49.485C87.392 49.237 87.082 48.958 86.772 48.71C88.911 48.369 90.182 44.401 82.556 42.696C83.424 42.634 83.765 42.386 83.889 42.014L78.898 40.619C78.185 43.719 76.046 48.586 73.535 51.469L73.814 51.717C74.744 51.19 75.643 50.57 76.511 49.888L76.542 49.981H79.58V53.98H74.248L74.496 54.848H79.58V59.002H78.96L75.612 57.638V69.666H76.077C77.41 69.666 78.836 68.953 78.836 68.643V67.124H83.734V69.232H84.292C85.315 69.232 86.989 68.612 87.02 68.395V60.335C87.578 60.211 87.95 59.963 88.136 59.777L84.943 57.359L83.455 59.002H82.897V54.848H87.919C88.353 54.848 88.663 54.693 88.756 54.352C87.671 53.298 85.842 51.81 85.842 51.81L84.261 53.98ZM100.784 50.043L98.955 51.841H86.958L87.237 52.74H93.096V65.357C93.096 65.698 92.941 65.915 92.507 65.915C91.856 65.915 88.942 65.729 88.942 65.729V66.132C90.43 66.38 91.081 66.783 91.515 67.279C91.949 67.806 92.104 68.643 92.166 69.728C95.979 69.418 96.537 67.775 96.537 65.45V52.74H99.079C98.614 54.321 97.839 56.398 97.219 57.793L97.529 57.979C99.265 56.832 101.435 54.848 102.706 53.422C103.357 53.391 103.698 53.298 103.946 53.05L100.784 50.043ZM119.136 45.145H138.077C138.542 45.145 138.852 44.99 138.945 44.649C137.643 43.533 135.504 41.952 135.504 41.952L133.613 44.277H129.769C131.04 43.378 130.978 41.022 126.235 40.495L125.987 40.65C126.576 41.425 127.134 42.758 127.103 43.998C127.227 44.091 127.351 44.184 127.475 44.277H118.888L119.136 45.145ZM111.882 41.332C112.874 42.541 113.897 44.463 114.052 46.168C117.09 48.462 120.159 42.541 112.161 41.146L111.882 41.332ZM127.351 60.428V57.328H130.048V60.428H127.351ZM120.562 65.078H121.027C122.36 65.078 123.631 64.365 123.631 64.055V50.105H133.923V53.205C133.086 52.368 131.722 51.283 131.722 51.283L130.513 52.833H130.048V51.655C130.575 51.562 130.792 51.314 130.823 50.973L127.568 50.663V52.833H124.127L124.375 53.732H127.568V56.46H127.444L124.964 55.406V63.063H125.305C126.266 63.063 127.351 62.567 127.351 62.35V61.296H130.048V62.288H130.513C131.474 62.288 132.404 61.761 132.466 61.637V57.731C132.962 57.669 133.334 57.421 133.551 57.204L131.319 55.251L130.172 56.46H130.048V53.732H133.21C133.551 53.732 133.799 53.608 133.923 53.329V62.226C133.923 62.567 133.83 62.753 133.396 62.753C132.931 62.753 131.195 62.629 131.195 62.629V63.063C132.311 63.218 132.683 63.528 132.993 63.776C133.272 64.086 133.334 64.613 133.365 65.264C136.62 65.016 137.054 64.148 137.054 62.381V50.663C137.705 50.57 138.17 50.26 138.356 50.043L135.07 47.532L133.613 49.237H131.226C132.373 48.493 133.551 47.563 134.357 46.881C135.039 46.881 135.38 46.571 135.473 46.23L130.854 45.269C130.73 46.416 130.482 48.028 130.203 49.237H126.452C128.002 48.648 128.467 46.013 123.631 45.269L123.352 45.424C123.879 46.23 124.344 47.563 124.282 48.741C124.561 48.989 124.809 49.144 125.088 49.237H123.817L120.562 47.842V55.53L118.082 53.453L116.408 55.158H115.23C116.036 53.608 117.152 51.531 117.803 50.198C118.423 50.136 118.95 49.981 119.198 49.733L116.346 47.16L114.982 48.586H111.076L111.355 49.485H114.982C114.331 50.973 113.246 53.143 112.44 54.6C112.006 54.755 111.603 55.003 111.293 55.189L113.928 57.018L114.951 56.026H116.594C116.191 58.475 115.23 61.42 114.021 63.559C112.998 64.148 111.51 65.233 110.425 65.822L112.905 69.294C113.122 69.108 113.215 68.953 113.122 68.674C113.68 67.124 114.269 65.636 114.703 64.706C114.982 64.148 115.292 64.086 115.757 64.675C118.33 67.868 121.027 68.953 128.126 68.953H137.302C137.488 67.558 138.356 66.256 139.782 65.946V65.574C136.093 65.76 133.148 65.76 129.397 65.791C122.36 65.791 118.516 65.419 116.129 63.528C115.85 63.342 115.633 63.249 115.385 63.187C117.493 61.172 119.043 58.599 119.818 56.274C120.128 56.243 120.376 56.212 120.562 56.15V65.078ZM151.097 41.022C152.12 42.386 153.205 44.463 153.453 46.261C156.615 48.71 159.746 42.572 151.376 40.867L151.097 41.022ZM158.258 50.601L156.429 52.399H153.794C153.887 50.942 153.949 49.516 153.98 48.028H161.637C162.071 48.028 162.381 47.873 162.474 47.532C161.234 46.354 159.157 44.68 159.157 44.68L157.297 47.129H147.005L147.253 48.028H150.384C150.601 55.53 150.322 63.28 146.788 69.511L147.067 69.79C151.748 65.512 153.236 59.622 153.732 53.298H156.739C156.522 61.234 156.088 64.83 155.251 65.605C155.003 65.853 154.724 65.946 154.259 65.946C153.701 65.946 152.368 65.853 151.5 65.791V66.225C152.523 66.442 153.205 66.814 153.577 67.31C153.949 67.775 154.011 68.612 154.011 69.635C155.499 69.635 156.739 69.263 157.7 68.395C159.25 66.969 159.808 63.528 160.087 53.856C160.769 53.732 161.141 53.546 161.358 53.267L158.258 50.601ZM170.069 48.741C169.79 52.244 169.077 55.592 167.744 58.63C166.473 56.398 165.543 53.794 164.923 50.88C165.295 50.229 165.636 49.485 165.977 48.741H170.069ZM175.556 48.741C176.021 48.741 176.331 48.586 176.393 48.245C175.122 47.036 172.921 45.269 172.921 45.269L171.061 47.842H166.349C167.031 46.199 167.589 44.37 168.085 42.479C168.798 42.448 169.17 42.138 169.263 41.735L164.117 40.681C163.683 46.261 162.257 52.089 160.459 56.057L160.862 56.274C162.226 55.003 163.404 53.484 164.427 51.748C164.861 55.158 165.543 58.258 166.566 60.986C164.737 64.241 162.071 67.093 158.258 69.449L158.475 69.759C162.505 68.271 165.543 66.225 167.837 63.776C169.139 66.194 170.875 68.24 173.138 69.821C173.572 68.147 174.595 67.155 176.331 66.783L176.424 66.473C173.665 65.202 171.464 63.528 169.697 61.42C172.177 57.793 173.448 53.484 174.068 48.741H175.556ZM208.602 47.997C205.905 50.539 202.65 52.399 199.085 53.608L199.333 54.104C203.394 53.577 207.424 52.492 210.896 50.601C211.547 50.756 211.888 50.694 212.105 50.384L208.602 47.997ZM196.543 62.226C198.651 61.141 200.697 59.312 202.185 56.956C202.867 57.018 203.27 56.77 203.425 56.429L199.643 54.879C198.837 57.638 197.504 60.273 196.171 61.947L196.543 62.226ZM200.263 49.609C203.394 49.02 206.928 47.904 209.78 46.695C210.369 46.881 210.679 46.85 210.927 46.54L207.796 44.215C205.502 46.106 202.65 47.904 199.953 49.113L200.263 49.609ZM199.054 46.137C202.309 45.455 205.967 44.308 208.943 42.944C209.563 43.13 209.873 43.068 210.059 42.789L206.897 40.433C204.541 42.448 201.596 44.37 198.744 45.641L199.054 46.137ZM192.885 59.095H196.76C197.194 59.095 197.504 58.94 197.566 58.599C196.543 57.607 194.838 56.15 194.838 56.15L193.381 58.227H192.885V55.654C193.629 55.53 193.877 55.251 193.939 54.848L189.692 54.445C191.831 53.918 193.784 53.36 195.21 52.957C195.489 53.484 195.706 54.042 195.799 54.569C198.341 56.336 200.697 51.5 194.001 50.663L193.722 50.849C194.063 51.221 194.435 51.655 194.776 52.182C192.234 52.337 189.785 52.43 187.925 52.492C189.258 51.841 190.653 51.097 191.676 50.384H199.178C199.612 50.384 199.891 50.229 199.953 49.888C198.961 49.051 197.411 47.966 197.411 47.966L196.047 49.485H190.126V47.873H197.721C198.155 47.873 198.434 47.718 198.527 47.377C197.628 46.602 196.264 45.672 196.264 45.672L195.086 46.974H190.126V45.455H197.721C198.155 45.455 198.434 45.3 198.527 44.959C197.628 44.184 196.295 43.285 196.295 43.285L195.117 44.587H190.126V42.975H198.186C198.62 42.975 198.899 42.82 198.992 42.479C198 41.642 196.388 40.495 196.388 40.495L195.024 42.107H190.25L187.026 40.836V49.485H183.43L183.678 50.384H187.863C187.243 51.159 186.344 52.089 185.538 52.368C185.29 52.492 184.763 52.554 184.763 52.554L186.375 55.809C186.623 55.685 186.84 55.437 186.995 55.096C187.925 54.879 188.793 54.662 189.661 54.445V58.227H184.639L184.887 59.095H188.7C187.801 62.04 186.344 65.047 184.36 67.217L184.67 67.651C186.592 66.442 188.297 65.016 189.661 63.373V69.759H190.281C191.459 69.759 192.885 69.17 192.885 68.891V61.358C193.536 62.288 194.125 63.497 194.187 64.582C196.574 66.504 199.178 61.916 192.885 60.521V59.095ZM205.285 62.877C205.781 63.714 206.308 64.706 206.742 65.76C203.983 65.915 201.41 66.07 199.55 66.163C201.503 64.83 203.704 62.846 205.037 61.358C205.626 61.42 205.967 61.203 206.091 60.924L201.844 58.94C201.317 60.862 199.395 64.551 197.907 65.76C197.659 65.915 197.008 66.07 197.008 66.07L198.155 69.821C198.434 69.728 198.744 69.511 198.992 69.201C202.154 68.333 204.975 67.434 207.083 66.721C207.362 67.527 207.579 68.333 207.641 69.108C210.4 71.557 213.376 65.884 205.595 62.691L205.285 62.877ZM206.432 53.205L205.502 54.755H203.518L203.766 55.654H206.153C206.618 58.971 207.889 61.544 210.276 63.28C210.524 62.133 211.516 61.079 212.601 60.645V60.273C209.904 59.436 207.765 57.762 206.835 55.685C207.92 55.623 208.819 55.375 209.16 54.972L206.432 53.205ZM224.536 64.272V56.119H229.248V64.272H224.536ZM229.248 47.532V55.22H224.536V47.532H229.248ZM230.581 44.773L228.938 46.633H226.241C227.233 45.424 228.442 43.812 229.248 42.727C229.961 42.727 230.395 42.51 230.519 41.983L225.497 40.774C225.342 42.51 225.063 44.928 224.846 46.633H224.66L221.188 45.176V68.612H221.746C223.234 68.612 224.536 67.837 224.536 67.434V65.14H229.248V67.589H229.775C230.984 67.589 232.627 66.814 232.658 66.566V48.09C233.278 47.966 233.743 47.718 233.96 47.439L230.581 44.773ZM245.771 44.525L243.818 46.54H238.889C239.54 45.362 240.098 44.122 240.625 42.789C241.338 42.789 241.71 42.572 241.834 42.169L236.936 40.743C236.13 45.486 234.456 50.539 232.751 53.701L233.154 53.949C235.138 52.275 236.905 50.074 238.393 47.439H244.159C243.942 58.01 243.632 64.179 242.485 65.233C242.175 65.512 241.896 65.636 241.338 65.636C240.532 65.636 238.393 65.481 236.905 65.357L236.874 65.791C238.393 66.07 239.602 66.566 240.16 67.155C240.687 67.651 240.842 68.519 240.842 69.697C242.888 69.697 244.252 69.201 245.368 68.023C247.073 66.194 247.507 60.521 247.724 48.028C248.437 47.935 248.84 47.718 249.088 47.439L245.771 44.525ZM235.138 53.05C236.378 54.755 237.618 57.266 237.773 59.467C241.059 62.226 244.438 55.53 235.386 52.864L235.138 53.05ZM271.067 54.631H279.22V58.289H271.067V54.631ZM279.22 59.157V59.777H279.778C280.243 59.777 280.801 59.653 281.266 59.498C280.553 60.552 279.685 61.699 278.848 62.66C277.701 61.668 276.74 60.49 276.027 59.157H279.22ZM281.514 59.405C282.103 59.188 282.506 58.94 282.537 58.785V55.189C283.157 55.065 283.622 54.817 283.808 54.569L280.46 52.058L278.91 53.763H271.253L267.936 52.399V60.428H268.37C269.641 60.428 271.067 59.746 271.067 59.498V59.157H271.749C269.982 61.575 267.223 63.931 263.968 65.543L264.185 65.946C266.324 65.295 268.37 64.551 270.199 63.621V65.419C270.199 65.946 269.982 66.194 268.649 66.814L270.199 69.945C270.478 69.821 270.788 69.573 271.036 69.17C273.64 67.434 275.934 65.636 277.05 64.768L276.926 64.396C275.686 64.799 274.415 65.202 273.268 65.543V61.761C274.136 61.11 274.911 60.428 275.593 59.684C276.926 64.427 279.282 67.434 283.188 69.294C283.529 67.682 284.459 66.659 285.668 66.349L285.699 66.008C283.591 65.543 281.607 64.706 279.902 63.497C281.204 62.97 282.599 62.381 283.591 61.823C284.211 61.947 284.459 61.916 284.676 61.606L281.514 59.405ZM265.487 51.314C265.053 50.849 264.712 50.508 264.712 50.508L263.348 52.771H263.007V44.773H266.417C266.758 44.773 267.006 44.68 267.161 44.525V50.415H267.595C268.866 50.415 270.261 49.733 270.261 49.454V49.051H280.336V49.578H280.863C281.359 49.578 281.979 49.423 282.475 49.237L281.111 50.973H265.363L265.487 51.314ZM272.09 43.44V48.152H270.261V43.44H272.09ZM274.508 48.152V43.44H276.213V48.152H274.508ZM280.336 43.44V48.152H278.631V43.44H280.336ZM283.405 43.967C284.025 43.843 284.49 43.564 284.707 43.316L281.514 40.929L280.026 42.541H270.447L267.161 41.208V44.153C265.952 43.006 264.092 41.456 264.092 41.456L262.294 43.874H256.249L256.497 44.773H259.566V52.771H256.497L256.745 53.639H259.566V62.412C258.047 62.846 256.838 63.187 256.063 63.373L258.078 67.372C258.419 67.248 258.729 66.907 258.791 66.504C262.697 63.931 265.363 61.823 267.068 60.428L266.975 60.087C265.642 60.521 264.309 60.955 263.007 61.358V53.639H266.324C266.758 53.639 267.037 53.484 267.13 53.143C266.789 52.74 266.355 52.275 265.952 51.841H285.017C285.451 51.841 285.792 51.686 285.885 51.345C284.955 50.539 283.529 49.454 283.002 49.02C283.25 48.927 283.405 48.803 283.405 48.741V43.967ZM302.129 51.066H321.039C321.473 51.066 321.783 50.911 321.876 50.57C320.667 49.454 318.714 47.904 318.714 47.904L316.978 50.167H313.599C314.839 49.206 316.11 48.059 317.009 47.315C317.66 47.377 318.063 47.16 318.187 46.819L313.816 45.269C313.506 46.695 313.01 48.679 312.576 50.167H301.881L302.129 51.066ZM305.198 45.734C305.973 46.664 306.717 48.152 306.748 49.485C309.631 51.81 312.948 46.354 305.477 45.548L305.198 45.734ZM302.873 45.238H320.419C320.822 45.238 321.163 45.083 321.256 44.742C320.047 43.626 318.063 41.983 318.063 41.983L316.296 44.37H312.483C314.033 43.502 314.126 40.712 308.918 40.464L308.67 40.65C309.352 41.456 309.972 42.851 310.003 44.06C310.158 44.184 310.313 44.277 310.499 44.37H302.625L302.873 45.238ZM303.183 58.103C301.881 58.537 300.61 58.971 299.37 59.343V49.64H302.873C303.276 49.64 303.586 49.485 303.679 49.144C302.78 47.997 301.137 46.292 301.137 46.292L299.68 48.741H299.37V42.417C300.238 42.293 300.455 41.983 300.517 41.549L295.898 41.146V48.741H292.674L292.922 49.64H295.898V60.428C294.503 60.862 293.325 61.203 292.612 61.389L294.844 65.388C295.185 65.233 295.495 64.923 295.588 64.489C299.215 61.885 301.695 59.839 303.276 58.382L303.183 58.103ZM315.831 53.949V56.274H307.182V53.949H315.831ZM307.182 59.498V57.173H315.831V59.498H307.182ZM320.791 62.226H320.45C319.923 63.807 319.551 65.109 319.272 65.512C319.117 65.791 318.993 65.853 318.714 65.884H317.474H316.048C315.49 65.884 315.397 65.76 315.397 65.419V60.769V60.397H315.831V61.606H316.389C317.443 61.606 319.117 61.017 319.148 60.8V54.414C319.706 54.321 320.109 54.073 320.295 53.856L317.04 51.438L315.521 53.081H307.368L303.71 51.624V61.978H304.175C305.415 61.978 306.717 61.451 307.089 61.079C306.779 64.024 305.601 66.814 298.967 69.294L299.277 69.728C308.639 67.558 310.375 64.179 310.933 60.397H312.08V66.101C312.08 68.147 312.452 68.767 315.025 68.767H317.102C320.791 68.767 321.845 68.178 321.845 66.969C321.845 66.38 321.69 66.008 320.884 65.667L320.791 62.226Z" fill="white"/>
<defs>
<linearGradient id="paint0_linear" x1="84.2836" y1="146.069" x2="312.411" y2="-82.1518" gradientUnits="userSpaceOnUse">
<stop stop-color="#DDBC82"/>
<stop offset="0.3054" stop-color="#9B7860"/>
<stop offset="0.6522" stop-color="#DDBC82"/>
<stop offset="1" stop-color="#9B7860"/>
</linearGradient>
</defs>
</svg>
