<svg width="190" height="13" viewBox="0 0 190 13" fill="none" xmlns="http://www.w3.org/2000/svg">
<g clip-path="url(#clip0)">
<path d="M188.585 2.38165C186.968 0.793862 184.543 0.297679 182.218 0.0992058C178.58 -0.198504 174.841 0.198442 171.304 1.09157C165.644 2.08394 160.186 3.57249 155.335 5.06104C154.224 5.35875 153.112 5.75569 152 6.0534C149.069 6.94653 146.24 7.83966 143.309 8.63356C137.447 3.47325 128.958 0.793862 119.155 1.29005C112.08 1.58776 105.006 3.47325 98.5375 5.45798C97.4258 5.85493 96.2131 6.15264 95.1014 6.54959C93.9897 6.15264 92.7769 5.85493 91.6652 5.45798C85.0961 3.47325 78.1227 1.68699 71.0482 1.29005C61.3461 0.793862 52.7556 3.47325 46.8939 8.63356C43.9631 7.83966 41.0322 6.94653 38.2024 6.0534C37.0907 5.65646 35.979 5.35875 34.8673 5.06104C30.0163 3.57249 24.4578 2.08394 18.8992 1.09157C15.362 0.297679 11.6226 -0.0992675 7.98435 0.0992058C5.45775 0.297679 3.03222 0.793862 1.4152 2.38165C-0.201822 3.96943 -0.606077 6.94653 1.21307 8.43508C2.62797 9.52669 4.75031 9.32821 6.26626 8.53432C7.88329 7.74043 8.89392 5.25951 10.3088 4.16791C11.9258 2.87783 13.6439 2.08394 15.6652 1.68699C22.2343 2.38165 28.8035 4.16791 34.362 5.95417C35.4737 6.25188 36.5854 6.64882 37.6971 6.94653C47.3992 9.92363 57.4046 13 67.7131 13C68.2184 13 68.7237 13 69.229 13C78.0216 12.7023 86.7131 10.0229 94.2929 7.74043L94.495 7.64119C94.6971 7.54195 94.7982 7.54195 95.0003 7.44272C95.2024 7.44272 95.3035 7.54195 95.5056 7.54195L95.7078 7.64119C103.389 10.0229 111.979 12.7023 120.772 12.9007C121.277 12.9007 121.782 12.9007 122.288 12.9007C132.495 12.9007 142.601 9.8244 152.304 6.8473C153.415 6.45035 154.527 6.15264 155.639 5.85493C161.298 4.16791 167.766 2.28241 174.335 1.48852C176.357 1.88547 178.075 2.67936 179.692 3.96943C181.107 5.06104 182.117 7.54195 183.734 8.33585C185.351 9.12974 187.474 9.42745 188.788 8.23661C190.607 6.94653 190.202 3.96943 188.585 2.38165ZM69.229 12.1068C62.0535 12.3053 54.878 10.916 47.9046 8.93127C53.5641 4.16791 61.6492 1.78623 70.8461 2.28241C77.8195 2.58012 84.7929 4.46562 91.261 6.35111C91.9684 6.54959 92.6758 6.74806 93.3833 7.04577C86.0056 9.32821 77.6173 11.8091 69.229 12.1068ZM120.772 12.1068C112.383 11.8091 103.995 9.32821 96.6173 7.04577C97.3248 6.8473 98.0322 6.64882 98.7397 6.35111C105.208 4.36638 112.181 2.58012 119.155 2.28241C128.351 1.88546 136.538 4.26714 142.096 9.0305C135.123 10.916 127.947 12.3053 120.772 12.1068Z" fill="url(#paint0_linear)"/>
</g>
<defs>
<linearGradient id="paint0_linear" x1="46.6045" y1="53.0173" x2="141.631" y2="-43.7585" gradientUnits="userSpaceOnUse">
<stop stop-color="#DDBC82"/>
<stop offset="0.3054" stop-color="#9B7860"/>
<stop offset="0.6522" stop-color="#DDBC82"/>
<stop offset="1" stop-color="#9B7860"/>
</linearGradient>
<clipPath id="clip0">
<rect width="190" height="13" fill="white"/>
</clipPath>
</defs>
</svg>
