<svg width="397" height="88" viewBox="0 0 397 88" fill="none" xmlns="http://www.w3.org/2000/svg">
<path d="M341.239 78.8001C340.139 80.9001 337.038 82.7001 334.137 82.9001C310.627 84.0001 289.218 84.4001 268.61 84.2001C261.507 84.1001 254.404 84.2001 247.401 84.4001C235.596 84.6001 223.391 84.8001 211.486 84.0001C191.078 82.7001 170.37 83.1001 152.062 83.5001C135.956 83.9001 119.549 83.8001 103.642 83.8001H93.3382C84.9348 83.8001 75.9311 83.9001 66.7273 84.8001C64.6265 85.0001 61.2251 84.5001 59.8245 84.2001C58.3239 84.0001 56.4231 83.2001 55.7228 81.7001C55.1226 80.5001 55.3227 79.0001 55.5228 77.5001V77.2001C56.4231 70.1001 56.023 63.8001 54.1222 56.7001C53.2218 53.3001 53.5219 50.0001 53.8221 46.5001C54.0221 44.1001 54.3223 41.7001 54.1222 39.2001L54.0221 37.1001C53.9221 35.3001 53.8221 33.7001 53.622 31.8001C53.4219 29.3001 53.3219 26.7001 54.0221 24.4001C54.1222 23.9001 54.2222 23.5001 54.3223 23.1001C55.5228 24.1001 57.3235 24.2001 58.3239 24.2001C75.731 25.0001 93.3382 24.9001 107.944 24.0001C121.85 24.0001 135.856 23.7001 149.461 23.4001C173.371 22.9001 197.981 22.3001 222.291 23.7001C242.099 24.9001 262.407 25.2001 286.217 24.6001H287.217C297.722 24.4001 308.626 24.1001 319.431 24.8001H320.131C326.133 25.2001 333.636 25.6001 339.539 24.4001C340.039 24.3001 340.439 24.2001 340.839 24.0001C341.039 25.1001 340.939 26.2001 340.939 27.4001C340.839 29.0001 340.839 30.7001 341.239 32.3001C342.14 35.6001 342.14 38.3001 342.04 42.1001C342.04 43.6001 342.04 45.3001 342.04 47.2001C342.14 49.5001 341.94 51.7001 341.84 53.9001C341.64 56.5001 341.54 59.3001 341.74 62.1001C341.84 63.9001 342.14 65.6001 342.44 67.3001C342.64 68.5001 342.84 69.6001 343.04 70.8001C343.74 73.6001 342.34 76.7001 341.239 78.8001ZM386.758 47.3001C383.457 42.6001 380.155 37.7001 376.454 33.0001C375.653 32.0001 374.753 30.8001 374.553 29.6001C374.153 27.4001 376.054 25.2001 377.854 23.4001C381.156 19.9001 384.357 16.2001 387.458 12.6001C390.059 9.60008 392.66 6.50008 395.362 3.60008C395.962 2.90008 396.062 2.00008 395.662 1.30008C395.262 0.500082 394.461 8.16183e-05 393.461 0.100082C388.359 0.200082 383.257 1.00008 378.755 1.70008C370.151 2.20008 361.248 2.30008 352.244 1.80008L350.943 1.70008C339.039 1.00008 333.636 0.700081 321.131 2.30008C317.83 2.70008 316.729 3.10008 315.229 3.50008C314.328 3.80008 313.228 4.10008 311.427 4.50008C308.726 5.10008 307.226 6.30008 307.126 7.90008C307.126 8.10008 307.126 8.20008 307.126 8.40008C307.126 10.3001 307.025 12.1001 307.025 13.9001C306.925 16.6001 306.825 19.3001 307.025 22.1001C300.523 22.1001 294.02 22.2001 287.718 22.3001H286.717C263.008 22.8001 242.699 22.5001 222.991 21.4001C198.581 20.0001 173.871 20.5001 149.961 21.1001C136.356 21.4001 122.35 21.7001 108.444 21.7001C102.842 22.1001 96.7396 22.3001 90.337 22.4001C90.1369 19.8001 90.1369 17.2001 90.1369 14.6001C90.1369 12.4001 90.2369 10.2001 90.0368 7.80008C90.1369 5.10008 85.535 4.10008 83.8343 4.00008C81.9335 3.80008 74.9307 3.50008 73.0299 3.50008C60.2247 3.40008 48.9201 3.00008 38.0156 2.60008C27.0111 2.10008 15.7065 1.70008 2.80122 1.70008C2.30102 1.70008 1.30061 1.70008 0.700366 2.40008C0.300203 2.80008 -0.200002 3.80008 0.900448 5.40008C6.60278 13.5001 11.8049 19.2001 16.2067 22.6001C18.9078 24.7001 23.5097 28.7001 23.4096 33.0001C23.4096 35.4001 21.7089 37.5001 19.7081 39.8001C17.007 42.9001 14.2059 45.1001 11.3047 47.4001C8.40351 49.7001 5.40229 52.1001 2.60114 55.3001C1.70077 56.3001 0.700366 57.4001 0.300203 58.9001C-0.0999606 60.4001 0.200162 62.4001 1.80082 63.5001C2.80122 64.2001 4.10176 64.2001 5.00212 64.3001C15.8065 64.9001 26.6109 65.3001 37.5154 65.3001C42.9176 65.3001 48.2198 65.2001 53.622 65.1001C54.1222 69.0001 54.0221 72.9001 53.5219 77.1001V77.4001C53.3219 79.1001 53.0217 81.0001 53.9221 82.8001C54.8225 84.8001 57.0234 86.2001 59.8245 86.7001C61.9254 87.0001 64.2263 87.3001 66.1271 87.3001C66.5272 87.3001 67.0275 87.3001 67.3276 87.2001C76.5313 86.4001 85.435 86.3001 93.7384 86.3001H103.943C119.849 86.3001 136.256 86.3001 152.362 86.0001C170.57 85.6001 191.278 85.1001 211.586 86.5001C223.691 87.3001 235.896 87.1001 247.701 86.9001C254.604 86.8001 261.807 86.7001 268.81 86.7001C289.418 86.9001 310.827 86.5001 334.437 85.4001C338.238 85.2001 342.14 82.9001 343.64 80.1001C344.841 77.8001 346.342 74.3001 345.941 70.9001C345.841 69.7001 345.541 68.5001 345.341 67.3001C345.241 66.7001 345.141 66.0001 345.041 65.4001C349.543 65.5001 358.647 65.5001 366.15 65.4001C369.951 65.4001 373.253 65.3001 374.953 65.3001C380.856 65.3001 386.658 64.5001 392.46 63.7001C392.861 63.7001 393.161 63.7001 393.561 63.6001C394.561 63.6001 395.362 63.0001 395.862 62.2001C396.262 61.4001 396.262 60.4001 395.662 59.7001C392.36 55.5001 389.559 51.3001 386.758 47.3001ZM309.326 14.1001C309.326 13.2001 309.426 12.4001 309.426 11.5001C309.927 11.7001 310.327 12.0001 310.927 12.2001C315.629 13.8001 318.73 14.4001 322.032 15.1001C324.333 15.6001 326.734 16.1001 329.935 16.9001C334.036 18.0001 334.937 18.5001 337.538 20.0001C338.238 20.4001 338.939 20.8001 339.839 21.3001C340.339 21.6001 340.439 21.8001 340.439 21.7001C340.339 21.8001 339.939 22.1001 339.239 22.2001C333.636 23.3001 326.333 22.9001 320.431 22.5001H319.731C316.229 22.3001 312.628 22.2001 309.126 22.2001C309.126 19.4001 309.226 16.8001 309.326 14.1001ZM56.6232 19.3001C57.4235 18.6001 58.624 18.3001 59.7245 18.1001C63.1259 17.3001 67.2275 16.5001 71.1291 15.7001C75.0307 14.9001 79.1324 14.1001 82.6338 13.3001C83.7343 13.0001 85.8351 12.5001 87.5358 11.4001C87.5358 12.5001 87.5358 13.5001 87.5358 14.6001C87.5358 17.2001 87.4358 19.8001 87.7359 22.5001C78.4321 22.6001 68.5281 22.5001 58.8241 22.0001C57.7237 22.0001 56.5232 21.8001 56.123 21.2001C55.7228 20.6001 56.023 19.7001 56.6232 19.3001ZM5.00212 62.0001C4.2018 62.0001 3.50151 61.9001 3.10135 61.6001C2.40106 61.2001 2.30102 60.2001 2.5011 59.4001C2.80122 58.4001 3.60155 57.5001 4.30184 56.6001C7.00294 53.5001 9.80408 51.3001 12.7053 49.0001C15.6065 46.7001 18.6077 44.3001 21.4088 41.1001C23.2096 39.1001 25.6105 36.3001 25.7106 32.9001C25.8106 27.7001 20.7085 23.1001 17.6073 20.7001C13.4056 17.6001 8.40351 12.0001 2.90127 4.10008C2.80122 4.00008 2.70118 4.00008 2.70118 3.90008C2.70118 3.90008 2.70118 3.90008 2.80122 3.90008C15.6065 4.00008 26.9111 4.40008 37.9156 4.80008C48.9201 5.20008 60.2247 5.70008 73.1299 5.70008C74.9307 5.70008 81.8335 6.00008 83.4342 6.10008C85.535 6.30008 87.5358 7.20008 87.4358 7.70008C87.2357 9.50008 84.2345 10.5001 82.0336 11.0001C78.6322 11.8001 74.5305 12.6001 70.6289 13.4001C66.7273 14.2001 62.6257 15.0001 59.1242 15.8001C58.1238 16.0001 56.9233 16.3001 55.9229 16.9001C53.3219 18.0001 52.8216 20.1001 52.3214 22.2001C52.2214 22.7001 52.1214 23.2001 51.9213 23.6001C51.121 26.3001 51.221 29.1001 51.4211 31.8001C51.6212 33.7001 51.6212 35.3001 51.8212 37.1001L51.9213 39.2001C52.0213 41.5001 51.8212 43.9001 51.6212 46.2001C51.321 49.7001 50.9209 53.4001 51.9213 57.1001C52.4215 59.0001 52.8216 60.8001 53.1218 62.6001C37.1152 63.1001 21.0087 62.9001 5.00212 62.0001ZM341.239 78.8001C340.139 80.9001 337.038 82.7001 334.137 82.9001C310.627 84.0001 289.218 84.4001 268.61 84.2001C261.507 84.1001 254.404 84.2001 247.401 84.4001C235.596 84.6001 223.391 84.8001 211.486 84.0001C191.078 82.7001 170.37 83.1001 152.062 83.5001C135.956 83.9001 119.549 83.8001 103.642 83.8001H93.3382C84.9348 83.8001 75.9311 83.9001 66.7273 84.8001C64.6265 85.0001 61.2251 84.5001 59.8245 84.2001C58.3239 84.0001 56.4231 83.2001 55.7228 81.7001C55.1226 80.5001 55.3227 79.0001 55.5228 77.5001V77.2001C56.4231 70.1001 56.023 63.8001 54.1222 56.7001C53.2218 53.3001 53.5219 50.0001 53.8221 46.5001C54.0221 44.1001 54.3223 41.7001 54.1222 39.2001L54.0221 37.1001C53.9221 35.3001 53.8221 33.7001 53.622 31.8001C53.4219 29.3001 53.3219 26.7001 54.0221 24.4001C54.1222 23.9001 54.2222 23.5001 54.3223 23.1001C55.5228 24.1001 57.3235 24.2001 58.3239 24.2001C75.731 25.0001 93.3382 24.9001 107.944 24.0001C121.85 24.0001 135.856 23.7001 149.461 23.4001C173.371 22.9001 197.981 22.3001 222.291 23.7001C242.099 24.9001 262.407 25.2001 286.217 24.6001H287.217C297.722 24.4001 308.626 24.1001 319.431 24.8001H320.131C326.133 25.2001 333.636 25.6001 339.539 24.4001C340.039 24.3001 340.439 24.2001 340.839 24.0001C341.039 25.1001 340.939 26.2001 340.939 27.4001C340.839 29.0001 340.839 30.7001 341.239 32.3001C342.14 35.6001 342.14 38.3001 342.04 42.1001C342.04 43.6001 342.04 45.3001 342.04 47.2001C342.14 49.5001 341.94 51.7001 341.84 53.9001C341.64 56.5001 341.54 59.3001 341.74 62.1001C341.84 63.9001 342.14 65.6001 342.44 67.3001C342.64 68.5001 342.84 69.6001 343.04 70.8001C343.74 73.6001 342.34 76.7001 341.239 78.8001ZM393.461 61.0001C393.361 61.1001 393.361 61.1001 393.261 61.1001C392.861 61.1001 392.46 61.1001 391.96 61.2001C386.158 62.1001 380.455 62.8001 374.753 62.8001C373.052 62.8001 369.751 62.8001 365.95 62.9001C358.647 63.0001 348.843 63.0001 344.541 62.9001C344.541 62.6001 344.441 62.3001 344.441 62.0001C344.241 59.3001 344.441 56.8001 344.541 54.1001C344.641 51.9001 344.841 49.6001 344.741 47.3001C344.741 45.4001 344.741 43.8001 344.741 42.2001C344.741 38.4001 344.841 35.5001 343.841 31.9001C343.44 30.6001 343.54 29.1001 343.64 27.6001C343.74 25.6001 343.841 23.5001 342.84 21.5001C342.64 20.4001 341.54 19.8001 341.139 19.6001C340.239 19.1001 339.439 18.6001 338.838 18.3001C336.137 16.7001 335.037 16.1001 330.635 14.9001C327.334 14.0001 324.933 13.5001 322.532 13.0001C319.13 12.3001 316.229 11.7001 311.727 10.1001C310.527 9.70008 309.326 9.00008 309.426 8.30008C309.526 7.50008 311.027 7.10008 311.927 6.90008C313.828 6.40008 315.029 6.10008 315.929 5.80008C317.43 5.30008 318.33 5.10008 321.431 4.70008C333.636 3.10008 339.039 3.40008 350.743 4.00008L352.044 4.10008C361.148 4.60008 370.151 4.60008 378.955 4.00008C383.657 3.30008 388.559 2.50008 393.361 2.30008C390.66 5.30008 387.959 8.40008 385.357 11.4001C382.256 15.0001 379.055 18.7001 375.854 22.1001C373.753 24.4001 371.452 27.0001 372.052 30.2001C372.352 31.9001 373.453 33.4001 374.353 34.5001C378.054 39.1001 381.356 44.0001 384.557 48.7001C387.358 52.7001 390.159 56.9001 393.261 60.9001C393.461 60.9001 393.461 60.9001 393.461 61.0001Z" fill="url(#paint0_linear)"/>
<path d="M79.952 48.741C80.944 46.788 81.812 44.649 82.556 42.355C83.238 42.324 83.579 42.014 83.703 41.611L78.867 40.619C77.937 46.478 75.86 52.585 73.721 56.522L74.124 56.77C75.24 55.747 76.263 54.6 77.224 53.267V69.697H77.844C79.115 69.697 80.479 69.015 80.51 68.767V49.919C81.099 49.826 81.378 49.609 81.502 49.33L79.952 48.741ZM95.576 61.73C94.801 62.939 93.809 63.993 92.6 64.954C91.05 64.52 89.717 63.931 88.57 63.187C89.128 62.722 89.655 62.226 90.12 61.73H95.576ZM97.653 59.064L95.7 60.862H90.895C91.05 60.707 91.174 60.521 91.298 60.366C92.228 60.304 92.538 60.118 92.631 59.746L87.981 58.878C87.671 59.715 87.175 60.645 86.586 61.575C86.059 61.048 85.594 60.428 85.191 59.777L84.881 60.242C85.253 60.986 85.656 61.668 86.09 62.319C85.036 63.838 83.734 65.357 82.339 66.473L82.618 66.783C84.354 66.132 85.997 65.171 87.423 64.086C88.26 65.047 89.159 65.853 90.244 66.535C87.95 67.775 85.191 68.705 82.184 69.325L82.339 69.759C86.183 69.387 89.531 68.705 92.321 67.62C94.522 68.581 97.374 69.17 101.063 69.511C101.218 67.961 101.931 66.938 103.171 66.473L103.202 66.101C100.536 66.07 98.149 65.946 96.041 65.636C97.405 64.706 98.521 63.59 99.451 62.288C100.195 62.226 100.505 62.133 100.753 61.854L97.653 59.064ZM85.997 53.918C85.904 55.127 84.85 56.398 84.013 56.863C83.269 57.297 82.835 57.979 83.145 58.754C83.517 59.591 84.757 59.591 85.439 59.095C86.431 58.351 87.175 56.491 86.493 53.949L85.997 53.918ZM87.392 53.67V56.925C87.392 58.568 87.764 59.095 90.244 59.095H92.848C96.909 59.095 97.963 58.909 97.963 57.793C97.963 57.39 97.777 57.173 97.002 56.894L96.909 55.096H96.537C96.227 55.933 95.886 56.584 95.669 56.863C95.514 57.018 95.328 57.08 95.018 57.08H93.065H90.895C90.12 57.08 90.058 56.987 90.058 56.677V54.755C90.585 54.662 90.864 54.414 90.926 54.011L87.392 53.67ZM91.05 53.515C91.732 54.228 92.569 55.53 92.755 56.584C94.894 58.134 97.002 54.042 91.329 53.298L91.05 53.515ZM88.942 50.911H95.855V52.275H88.942V50.911ZM95.855 46.261V47.687H88.942V46.261H95.855ZM95.855 50.012H88.942V48.586H95.855V50.012ZM100.908 50.694L99.327 52.275H99.265V46.695C99.823 46.571 100.226 46.354 100.412 46.137L97.188 43.719L95.576 45.393H91.608C92.383 44.866 93.251 44.184 93.995 43.502H102.148C102.582 43.502 102.923 43.347 103.016 43.006C101.652 41.921 99.513 40.433 99.513 40.433L97.591 42.603H83.331L83.579 43.502H90.554C90.554 44.122 90.492 44.804 90.43 45.393H89.345L85.594 43.967V52.275H84.664C84.54 51.81 84.416 51.314 84.199 50.787H83.734C83.858 51.903 83.083 53.174 82.339 53.67C81.502 54.104 80.944 54.879 81.285 55.778C81.657 56.739 82.99 56.894 83.734 56.398C84.447 55.902 84.912 54.724 84.788 53.174H99.42C99.327 53.639 99.172 54.135 99.048 54.6C98.366 54.321 97.498 54.104 96.475 53.98L96.165 54.228C97.436 55.22 98.831 57.049 99.203 58.537C101.249 59.808 102.83 56.956 100.164 55.189C100.97 54.724 101.869 54.135 102.458 53.701C103.078 53.67 103.419 53.639 103.636 53.36L100.908 50.694ZM114.641 61.141C114.641 62.815 113.339 64.241 112.192 64.768C111.169 65.233 110.487 66.07 110.766 67.217C111.138 68.395 112.564 68.736 113.649 68.178C115.261 67.403 116.501 64.83 115.075 61.11L114.641 61.141ZM132.466 62.133H132.125C131.474 63.807 131.009 64.892 130.637 65.388C130.389 65.667 130.234 65.729 129.738 65.76C129.242 65.822 127.971 65.822 126.669 65.822H122.856C121.709 65.822 121.554 65.698 121.554 65.295V61.947C122.174 61.854 122.453 61.606 122.515 61.172L117.896 60.831V65.853C117.896 68.178 118.671 68.705 122.236 68.705H126.266C132.435 68.705 133.892 68.364 133.892 66.845C133.892 66.225 133.613 65.822 132.528 65.45L132.466 62.133ZM122.949 60.149C124.003 61.265 125.119 63.094 125.305 64.644C128.126 66.752 130.854 61.234 123.228 59.963L122.949 60.149ZM132.28 61.389C134.078 62.877 135.907 65.45 136.372 67.713C139.782 70.007 142.324 62.877 132.559 61.172L132.28 61.389ZM131.722 48.152V50.756H126.948V48.152H131.722ZM129.831 56.243C130.823 56.677 131.691 57.142 132.466 57.669L126.948 57.7V55.127H131.722V56.026C131.164 55.933 130.575 55.871 129.924 55.84L129.831 56.243ZM126.948 51.624H131.722V54.259H126.948V51.624ZM118.361 54.259V51.624H123.352V54.259H118.361ZM123.352 48.152V50.756H118.361V48.152H123.352ZM134.14 44.029H126.948V41.89C127.754 41.766 128.002 41.456 128.095 40.991L123.352 40.557V44.029H110.983L111.231 44.928H123.352V47.253H118.609L114.827 45.765V56.615H115.323C116.78 56.615 118.361 55.84 118.361 55.53V55.127H123.352V57.7C118.268 57.7 114.052 57.669 111.572 57.607L113.463 61.203C113.804 61.141 114.114 60.924 114.362 60.552C123.042 59.746 129.118 59.126 133.551 58.506C134.419 59.219 135.039 59.994 135.473 60.676C138.046 63.342 143.254 57.7 132.497 56.119C133.644 56.057 135.287 55.53 135.318 55.344V48.741C135.969 48.586 136.403 48.338 136.589 48.09L133.086 45.455L131.412 47.253H126.948V44.928H138.728C139.193 44.928 139.503 44.773 139.596 44.432C138.263 43.285 136.093 41.673 136.093 41.673L134.14 44.029ZM149.206 41.456C150.415 42.572 151.934 44.494 152.461 46.168C155.902 48.028 158.103 41.58 149.454 41.208L149.206 41.456ZM146.881 48.245C148.09 49.299 149.454 51.066 149.857 52.709C153.112 54.693 155.499 48.369 147.129 47.997L146.881 48.245ZM156.398 47.098C150.446 58.847 150.446 58.847 149.733 59.994C149.361 60.614 149.206 60.645 148.741 60.645H147.284V61.203C147.966 61.265 148.493 61.42 148.927 61.73C149.671 62.226 149.795 64.985 149.206 68.24C149.485 69.356 150.167 69.821 150.911 69.821C152.461 69.821 153.515 68.829 153.577 67.248C153.67 64.551 152.399 63.497 152.337 61.885C152.337 61.079 152.585 59.994 152.864 58.971C153.298 57.421 155.592 50.787 156.863 47.253L156.398 47.098ZM170.379 58.63V66.07H160.986V58.63H170.379ZM170.906 50.88H167.465V45.207C169.542 44.959 171.464 44.649 173.014 44.339C173.975 44.711 174.688 44.68 175.06 44.401L171.464 40.929C168.054 42.51 161.389 44.587 156.15 45.641L156.212 46.106C158.63 46.044 161.265 45.858 163.776 45.61V50.88H155.685L155.933 51.779H163.776V57.731H161.172L157.452 56.243V69.666H157.917C159.436 69.666 160.986 68.891 160.986 68.55V66.969H170.379V69.511H170.999C172.239 69.511 173.975 68.736 174.006 68.488V59.219C174.626 59.095 175.06 58.816 175.277 58.568L171.774 55.871L170.069 57.731H167.465V51.779H175.525C175.959 51.779 176.3 51.624 176.393 51.283C175.091 50.043 172.89 48.214 172.89 48.214L170.906 50.88ZM187.584 57.545V54.631H189.878V57.545H187.584ZM189.878 50.787V53.732H187.584V50.787H189.878ZM195.396 50.787V53.732H193.04V50.787H195.396ZM193.04 57.545V54.631H195.396V57.545H193.04ZM199.426 63.9C197.225 64.117 195.055 64.303 193.04 64.489V62.164H198.682C199.116 62.164 199.426 62.009 199.519 61.668C198.341 60.676 196.481 59.25 196.481 59.25L194.838 61.296H193.04V58.444H195.396V59.157H195.985C197.597 59.157 198.682 58.568 198.682 58.413V51.004C199.364 50.88 199.643 50.694 199.829 50.446L196.822 48.152L195.303 49.919H193.04V47.656H199.457C199.922 47.656 200.232 47.532 200.294 47.191C199.085 46.106 197.101 44.618 197.101 44.618L195.365 46.788H193.04V44.184C194.745 44.029 196.326 43.874 197.628 43.688C198.527 44.06 199.209 44.091 199.55 43.781L196.419 40.588C193.536 41.766 187.894 43.347 183.554 44.153L183.616 44.649C185.6 44.649 187.77 44.556 189.878 44.432V46.788H183.523L183.771 47.656H189.878V49.919H187.925L184.484 48.555V59.715H185.042C186.592 59.715 187.584 59.188 187.584 58.94V58.444H189.878V61.296H184.019L184.267 62.164H189.878V64.768C187.181 64.985 184.949 65.14 183.616 65.202L185.166 69.48C185.538 69.418 185.879 69.17 186.096 68.767C192.358 66.907 196.574 65.45 199.488 64.303L199.426 63.9ZM209.687 46.633L207.858 48.493H205.378C205.409 46.571 205.409 44.525 205.44 42.355C206.184 42.262 206.494 41.952 206.587 41.487L201.968 41.053C201.968 43.719 201.999 46.168 201.999 48.493H198.992L199.271 49.392H201.999C201.906 58.041 201.131 64.396 195.737 69.356L196.078 69.821C204.107 65.326 205.192 58.661 205.378 49.392H208.199C208.013 59.653 207.734 64.365 206.773 65.295C206.494 65.543 206.215 65.667 205.75 65.667C205.13 65.667 203.735 65.574 202.805 65.481V65.915C203.859 66.194 204.665 66.566 205.068 67.093C205.44 67.589 205.533 68.364 205.502 69.48C207.083 69.48 208.416 69.077 209.377 68.023C210.958 66.38 211.33 62.288 211.516 49.95C212.198 49.857 212.632 49.64 212.849 49.361L209.687 46.633ZM235.851 65.791C239.664 66.69 242.33 68.147 243.818 69.294C247.042 71.588 252.901 65.419 235.975 65.388L235.851 65.791ZM235.851 49.671C235.913 48.958 235.975 48.276 236.006 47.656H240.005C240.005 48.276 239.974 48.927 239.912 49.671H235.851ZM235.572 52.585C235.634 51.996 235.727 51.314 235.789 50.539H239.881C239.85 51.221 239.788 51.903 239.726 52.585H235.572ZM228.442 52.585C228.535 51.965 228.659 51.283 228.752 50.539H232.627C232.565 51.283 232.503 51.996 232.41 52.585H228.442ZM232.844 47.656C232.813 48.276 232.751 48.958 232.72 49.671H228.876C229 48.958 229.093 48.276 229.155 47.656H232.844ZM228.039 63.9V61.885H240.78V63.9H228.039ZM240.78 59.002V60.986H228.039V59.002H240.78ZM240.78 56.181V58.103H228.039V56.181H240.78ZM244.159 48.028C245.368 47.439 246.949 46.354 247.848 45.548C248.437 45.486 248.778 45.424 248.995 45.145L245.895 42.169L244.128 43.967H235.603C237.184 43.099 237.37 40.433 232.255 40.588L232.038 40.774C232.72 41.332 233.154 42.541 232.999 43.626C233.185 43.781 233.34 43.874 233.526 43.967H224.195C224.071 43.471 223.916 42.975 223.699 42.417L223.234 42.448C223.389 43.843 222.428 45.176 221.467 45.672C220.568 46.106 219.917 46.912 220.258 47.935C220.599 48.989 221.963 49.237 222.893 48.71C223.885 48.214 224.567 46.819 224.35 44.866H244.345C244.221 45.641 244.097 46.54 243.942 47.284L241.028 45.145L239.757 46.757H229.93L226.117 45.393C226.055 46.478 225.9 48.121 225.683 49.671H220.289L220.537 50.539H225.559C225.466 51.19 225.373 51.748 225.28 52.275C224.939 52.492 224.629 52.709 224.412 52.957L227.543 54.631L228.442 53.484H239.664L239.602 53.949C240.47 54.042 241.183 54.073 241.741 53.949L240.501 55.282H228.256L224.505 53.794V65.822H225.001C226.334 65.822 227.76 65.14 228.008 64.799H230.023C227.977 66.504 224.226 68.395 220.661 69.325L220.785 69.759C225.156 69.542 229.713 68.519 232.441 67.155C233.34 67.403 233.929 67.279 234.177 66.969L231.139 64.799H240.78V65.419H241.4C242.578 65.419 244.345 64.768 244.376 64.551V56.553C244.872 56.491 245.213 56.274 245.368 56.057L242.392 53.794C242.578 53.732 242.733 53.639 242.888 53.546C242.981 52.647 243.043 51.593 243.074 50.539H247.941C248.406 50.539 248.716 50.384 248.809 50.043C247.6 49.051 245.74 47.718 245.74 47.718L244.035 49.671H243.105C243.136 49.082 243.167 48.555 243.167 48.152C243.508 48.09 243.787 48.028 244.004 47.904L244.159 48.028ZM259.163 40.929C260.093 42.138 261.023 44.029 261.085 45.734C263.906 48.09 267.006 42.479 259.473 40.743L259.163 40.929ZM265.859 50.725L264.185 52.43H262.511C262.635 50.787 262.728 49.175 262.759 47.563H268.215C268.649 47.563 268.928 47.408 268.99 47.067C267.936 45.92 266.014 44.246 266.014 44.246L264.34 46.664H256.311L256.559 47.563H259.256C259.504 54.817 259.008 63.001 256.187 69.387L256.528 69.666C260.341 65.233 261.86 59.343 262.418 53.329H264.495C264.278 61.606 263.875 65.109 263.038 65.884C262.821 66.132 262.542 66.225 262.108 66.225C261.581 66.225 260.403 66.132 259.69 66.07L259.659 66.535C260.558 66.721 261.147 67.062 261.488 67.527C261.829 67.961 261.891 68.674 261.891 69.635C263.255 69.635 264.433 69.263 265.363 68.395C266.789 67.031 267.347 63.776 267.595 53.794C268.246 53.701 268.649 53.515 268.835 53.267L265.859 50.725ZM284.025 61.668H283.684C283.157 63.404 282.661 64.768 282.32 65.264C282.103 65.543 281.824 65.636 281.39 65.667C280.863 65.729 279.654 65.729 278.197 65.729H274.446C273.144 65.729 272.865 65.543 272.865 64.861V55.623L275.19 54.693V64.582H275.748C276.926 64.582 278.228 63.962 278.228 63.714V53.484L280.77 52.492C280.615 55.406 280.181 59.529 279.623 62.536L279.964 62.722C281.7 60.087 283.188 56.088 284.025 53.267C284.645 53.205 284.986 53.143 285.234 52.864L282.382 49.919L280.801 51.562L278.228 52.523V49.144C279.034 49.051 279.282 48.741 279.344 48.307L275.19 47.935V53.732L272.865 54.662V51.717C273.578 51.624 273.857 51.314 273.919 50.911L269.703 50.477V55.902L267.812 56.615L268.432 57.328L269.703 56.832V65.698C269.703 68.209 270.664 68.798 274.012 68.798H277.918C284.056 68.798 285.451 68.209 285.451 66.721C285.451 66.132 285.172 65.729 284.149 65.357L284.025 61.668ZM280.119 46.075H272.679C273.299 45.021 273.826 43.874 274.291 42.634C275.004 42.634 275.376 42.355 275.5 41.983L270.664 40.681C270.106 44.649 268.866 48.772 267.502 51.469L267.905 51.748C269.486 50.508 270.912 48.896 272.152 46.974H284.738C285.203 46.974 285.544 46.819 285.637 46.478C284.304 45.238 282.041 43.44 282.041 43.44L280.119 46.075ZM309.166 56.677V48.4H316.141V56.677H309.166ZM298.378 56.677V48.4H305.291V56.677H298.378ZM317.598 45.579L315.862 47.501H309.166V42.076C310.003 41.952 310.251 41.611 310.313 41.177L305.291 40.712V47.501H298.657L294.534 45.889V60.645H295.092C296.673 60.645 298.378 59.777 298.378 59.405V57.576H305.291V69.759H306.004C307.492 69.759 309.166 68.829 309.166 68.426V57.576H316.141V60.18H316.792C318.063 60.18 319.985 59.498 320.016 59.25V49.051C320.667 48.927 321.07 48.617 321.287 48.369L317.598 45.579Z" fill="white"/>
<defs>
<linearGradient id="paint0_linear" x1="84.2836" y1="146.069" x2="312.411" y2="-82.1518" gradientUnits="userSpaceOnUse">
<stop stop-color="#DDBC82"/>
<stop offset="0.3054" stop-color="#9B7860"/>
<stop offset="0.6522" stop-color="#DDBC82"/>
<stop offset="1" stop-color="#9B7860"/>
</linearGradient>
</defs>
</svg>
