<svg width="135" height="135" viewBox="0 0 135 135" fill="none" xmlns="http://www.w3.org/2000/svg">
<circle cx="67.5" cy="67.5" r="67.5" fill="#B89A80"/>
<path d="M39.3594 79.993C39.3594 63.827 42.6634 59.579 46.4394 59.579C50.0974 59.579 53.4604 63.886 53.4604 79.993C53.4604 96.336 50.0974 100.761 46.4394 100.761C42.6634 100.761 39.3594 96.395 39.3594 79.993ZM46.4394 57.396C38.7694 57.396 31.8074 63.945 31.8074 79.993C31.8074 96.277 38.7694 102.944 46.4394 102.944C53.9914 102.944 61.0124 96.277 61.0124 79.993C61.0124 63.945 53.9914 57.396 46.4394 57.396ZM88.2105 100.761C83.5495 100.761 80.6585 95.215 80.6585 83.297C80.6585 82.589 80.6585 81.94 80.7175 81.232C82.8415 79.226 85.3785 78.518 87.7975 78.518C92.2225 78.518 94.7005 82.176 94.7005 89.374C94.7005 97.339 91.9275 100.761 88.2105 100.761ZM99.8925 57.337C83.3725 59.048 72.7525 70.553 72.7525 84.418C72.7525 95.982 78.7115 102.944 88.0925 102.944C96.8835 102.944 102.488 97.103 102.488 88.371C102.488 80.524 98.0045 75.214 90.5705 75.214C86.8535 75.214 83.5495 76.512 80.8945 79.108C82.2515 68.724 88.6825 61.526 100.247 58.812L99.8925 57.337Z" fill="white"/>
<path d="M45.279 33.756C43.731 33.27 42.921 32.55 42.921 31.29C42.921 29.706 44.361 28.914 46.161 28.914C46.881 28.914 47.511 29.04 48.123 29.328L48.753 32.046H49.941L50.067 29.184C48.897 28.5 47.781 28.176 46.071 28.176C43.101 28.176 40.779 29.526 40.779 32.208C40.779 34.08 41.967 35.358 44.433 36.114L46.125 36.636C47.817 37.158 48.537 37.914 48.537 39.12C48.537 40.614 47.223 41.568 45.117 41.568C44.109 41.568 43.281 41.424 42.471 41.1L41.895 38.13H40.671L40.455 41.118C41.823 41.91 43.299 42.324 45.117 42.324C48.771 42.324 50.769 40.758 50.769 38.202C50.769 36.546 49.887 35.178 47.079 34.314L45.279 33.756ZM64.737 29.202L65.295 32.262H66.483L66.393 28.5H53.937L53.847 32.262H55.053L55.611 29.202H58.833C58.869 31.056 58.869 32.946 58.869 34.818V35.664C58.869 37.536 58.869 39.39 58.833 41.19L56.655 41.334V42H63.675V41.334L61.497 41.19C61.461 39.372 61.461 37.518 61.461 35.664V34.818C61.461 32.928 61.461 31.038 61.497 29.202H64.737ZM79.605 38.562L78.939 41.298H73.647C73.611 39.444 73.611 37.608 73.611 35.448H77.499L77.823 37.212H78.705V32.928H77.823L77.481 34.71H73.611C73.611 32.802 73.611 30.984 73.647 29.202H78.507L79.173 31.938H80.379L80.271 28.5H69.237V29.166L70.965 29.292C71.019 31.128 71.019 32.982 71.019 34.818V35.664C71.019 37.572 71.019 39.39 70.965 41.208L69.237 41.334V42H80.631L80.793 38.562H79.605ZM90.117 29.202C92.295 29.202 93.303 30.39 93.303 32.478C93.303 34.746 92.205 36.078 89.829 36.078H88.245V34.818C88.245 32.928 88.245 31.038 88.299 29.202H90.117ZM89.847 36.816C94.257 36.816 95.823 35.034 95.823 32.514C95.823 29.994 94.203 28.5 90.081 28.5H83.799V29.166L85.617 29.31C85.671 31.146 85.653 32.982 85.653 34.818V35.664C85.653 37.536 85.671 39.39 85.617 41.208L83.799 41.334V42H90.405V41.334L88.299 41.19C88.245 39.588 88.245 38.004 88.245 36.816H89.847Z" fill="white"/>
</svg>
