<svg width="397" height="88" viewBox="0 0 397 88" fill="none" xmlns="http://www.w3.org/2000/svg">
<path d="M341.239 78.8001C340.139 80.9001 337.038 82.7001 334.137 82.9001C310.627 84.0001 289.218 84.4001 268.61 84.2001C261.507 84.1001 254.404 84.2001 247.401 84.4001C235.596 84.6001 223.391 84.8001 211.486 84.0001C191.078 82.7001 170.37 83.1001 152.062 83.5001C135.956 83.9001 119.549 83.8001 103.642 83.8001H93.3382C84.9348 83.8001 75.9311 83.9001 66.7273 84.8001C64.6265 85.0001 61.2251 84.5001 59.8245 84.2001C58.3239 84.0001 56.4231 83.2001 55.7228 81.7001C55.1226 80.5001 55.3227 79.0001 55.5228 77.5001V77.2001C56.4231 70.1001 56.023 63.8001 54.1222 56.7001C53.2218 53.3001 53.5219 50.0001 53.8221 46.5001C54.0221 44.1001 54.3223 41.7001 54.1222 39.2001L54.0221 37.1001C53.9221 35.3001 53.8221 33.7001 53.622 31.8001C53.4219 29.3001 53.3219 26.7001 54.0221 24.4001C54.1222 23.9001 54.2222 23.5001 54.3223 23.1001C55.5228 24.1001 57.3235 24.2001 58.3239 24.2001C75.731 25.0001 93.3382 24.9001 107.944 24.0001C121.85 24.0001 135.856 23.7001 149.461 23.4001C173.371 22.9001 197.981 22.3001 222.291 23.7001C242.099 24.9001 262.407 25.2001 286.217 24.6001H287.217C297.722 24.4001 308.626 24.1001 319.431 24.8001H320.131C326.133 25.2001 333.636 25.6001 339.539 24.4001C340.039 24.3001 340.439 24.2001 340.839 24.0001C341.039 25.1001 340.939 26.2001 340.939 27.4001C340.839 29.0001 340.839 30.7001 341.239 32.3001C342.14 35.6001 342.14 38.3001 342.04 42.1001C342.04 43.6001 342.04 45.3001 342.04 47.2001C342.14 49.5001 341.94 51.7001 341.84 53.9001C341.64 56.5001 341.54 59.3001 341.74 62.1001C341.84 63.9001 342.14 65.6001 342.44 67.3001C342.64 68.5001 342.84 69.6001 343.04 70.8001C343.74 73.6001 342.34 76.7001 341.239 78.8001ZM386.758 47.3001C383.457 42.6001 380.155 37.7001 376.454 33.0001C375.653 32.0001 374.753 30.8001 374.553 29.6001C374.153 27.4001 376.054 25.2001 377.854 23.4001C381.156 19.9001 384.357 16.2001 387.458 12.6001C390.059 9.60008 392.66 6.50008 395.362 3.60008C395.962 2.90008 396.062 2.00008 395.662 1.30008C395.262 0.500082 394.461 8.16183e-05 393.461 0.100082C388.359 0.200082 383.257 1.00008 378.755 1.70008C370.151 2.20008 361.248 2.30008 352.244 1.80008L350.943 1.70008C339.039 1.00008 333.636 0.700081 321.131 2.30008C317.83 2.70008 316.729 3.10008 315.229 3.50008C314.328 3.80008 313.228 4.10008 311.427 4.50008C308.726 5.10008 307.226 6.30008 307.126 7.90008C307.126 8.10008 307.126 8.20008 307.126 8.40008C307.126 10.3001 307.025 12.1001 307.025 13.9001C306.925 16.6001 306.825 19.3001 307.025 22.1001C300.523 22.1001 294.02 22.2001 287.718 22.3001H286.717C263.008 22.8001 242.699 22.5001 222.991 21.4001C198.581 20.0001 173.871 20.5001 149.961 21.1001C136.356 21.4001 122.35 21.7001 108.444 21.7001C102.842 22.1001 96.7396 22.3001 90.337 22.4001C90.1369 19.8001 90.1369 17.2001 90.1369 14.6001C90.1369 12.4001 90.2369 10.2001 90.0368 7.80008C90.1369 5.10008 85.535 4.10008 83.8343 4.00008C81.9335 3.80008 74.9307 3.50008 73.0299 3.50008C60.2247 3.40008 48.9201 3.00008 38.0156 2.60008C27.0111 2.10008 15.7065 1.70008 2.80122 1.70008C2.30102 1.70008 1.30061 1.70008 0.700366 2.40008C0.300203 2.80008 -0.200002 3.80008 0.900448 5.40008C6.60278 13.5001 11.8049 19.2001 16.2067 22.6001C18.9078 24.7001 23.5097 28.7001 23.4096 33.0001C23.4096 35.4001 21.7089 37.5001 19.7081 39.8001C17.007 42.9001 14.2059 45.1001 11.3047 47.4001C8.40351 49.7001 5.40229 52.1001 2.60114 55.3001C1.70077 56.3001 0.700366 57.4001 0.300203 58.9001C-0.0999606 60.4001 0.200162 62.4001 1.80082 63.5001C2.80122 64.2001 4.10176 64.2001 5.00212 64.3001C15.8065 64.9001 26.6109 65.3001 37.5154 65.3001C42.9176 65.3001 48.2198 65.2001 53.622 65.1001C54.1222 69.0001 54.0221 72.9001 53.5219 77.1001V77.4001C53.3219 79.1001 53.0217 81.0001 53.9221 82.8001C54.8225 84.8001 57.0234 86.2001 59.8245 86.7001C61.9254 87.0001 64.2263 87.3001 66.1271 87.3001C66.5272 87.3001 67.0275 87.3001 67.3276 87.2001C76.5313 86.4001 85.435 86.3001 93.7384 86.3001H103.943C119.849 86.3001 136.256 86.3001 152.362 86.0001C170.57 85.6001 191.278 85.1001 211.586 86.5001C223.691 87.3001 235.896 87.1001 247.701 86.9001C254.604 86.8001 261.807 86.7001 268.81 86.7001C289.418 86.9001 310.827 86.5001 334.437 85.4001C338.238 85.2001 342.14 82.9001 343.64 80.1001C344.841 77.8001 346.342 74.3001 345.941 70.9001C345.841 69.7001 345.541 68.5001 345.341 67.3001C345.241 66.7001 345.141 66.0001 345.041 65.4001C349.543 65.5001 358.647 65.5001 366.15 65.4001C369.951 65.4001 373.253 65.3001 374.953 65.3001C380.856 65.3001 386.658 64.5001 392.46 63.7001C392.861 63.7001 393.161 63.7001 393.561 63.6001C394.561 63.6001 395.362 63.0001 395.862 62.2001C396.262 61.4001 396.262 60.4001 395.662 59.7001C392.36 55.5001 389.559 51.3001 386.758 47.3001ZM309.326 14.1001C309.326 13.2001 309.426 12.4001 309.426 11.5001C309.927 11.7001 310.327 12.0001 310.927 12.2001C315.629 13.8001 318.73 14.4001 322.032 15.1001C324.333 15.6001 326.734 16.1001 329.935 16.9001C334.036 18.0001 334.937 18.5001 337.538 20.0001C338.238 20.4001 338.939 20.8001 339.839 21.3001C340.339 21.6001 340.439 21.8001 340.439 21.7001C340.339 21.8001 339.939 22.1001 339.239 22.2001C333.636 23.3001 326.333 22.9001 320.431 22.5001H319.731C316.229 22.3001 312.628 22.2001 309.126 22.2001C309.126 19.4001 309.226 16.8001 309.326 14.1001ZM56.6232 19.3001C57.4235 18.6001 58.624 18.3001 59.7245 18.1001C63.1259 17.3001 67.2275 16.5001 71.1291 15.7001C75.0307 14.9001 79.1324 14.1001 82.6338 13.3001C83.7343 13.0001 85.8351 12.5001 87.5358 11.4001C87.5358 12.5001 87.5358 13.5001 87.5358 14.6001C87.5358 17.2001 87.4358 19.8001 87.7359 22.5001C78.4321 22.6001 68.5281 22.5001 58.8241 22.0001C57.7237 22.0001 56.5232 21.8001 56.123 21.2001C55.7228 20.6001 56.023 19.7001 56.6232 19.3001ZM5.00212 62.0001C4.2018 62.0001 3.50151 61.9001 3.10135 61.6001C2.40106 61.2001 2.30102 60.2001 2.5011 59.4001C2.80122 58.4001 3.60155 57.5001 4.30184 56.6001C7.00294 53.5001 9.80408 51.3001 12.7053 49.0001C15.6065 46.7001 18.6077 44.3001 21.4088 41.1001C23.2096 39.1001 25.6105 36.3001 25.7106 32.9001C25.8106 27.7001 20.7085 23.1001 17.6073 20.7001C13.4056 17.6001 8.40351 12.0001 2.90127 4.10008C2.80122 4.00008 2.70118 4.00008 2.70118 3.90008C2.70118 3.90008 2.70118 3.90008 2.80122 3.90008C15.6065 4.00008 26.9111 4.40008 37.9156 4.80008C48.9201 5.20008 60.2247 5.70008 73.1299 5.70008C74.9307 5.70008 81.8335 6.00008 83.4342 6.10008C85.535 6.30008 87.5358 7.20008 87.4358 7.70008C87.2357 9.50008 84.2345 10.5001 82.0336 11.0001C78.6322 11.8001 74.5305 12.6001 70.6289 13.4001C66.7273 14.2001 62.6257 15.0001 59.1242 15.8001C58.1238 16.0001 56.9233 16.3001 55.9229 16.9001C53.3219 18.0001 52.8216 20.1001 52.3214 22.2001C52.2214 22.7001 52.1214 23.2001 51.9213 23.6001C51.121 26.3001 51.221 29.1001 51.4211 31.8001C51.6212 33.7001 51.6212 35.3001 51.8212 37.1001L51.9213 39.2001C52.0213 41.5001 51.8212 43.9001 51.6212 46.2001C51.321 49.7001 50.9209 53.4001 51.9213 57.1001C52.4215 59.0001 52.8216 60.8001 53.1218 62.6001C37.1152 63.1001 21.0087 62.9001 5.00212 62.0001ZM341.239 78.8001C340.139 80.9001 337.038 82.7001 334.137 82.9001C310.627 84.0001 289.218 84.4001 268.61 84.2001C261.507 84.1001 254.404 84.2001 247.401 84.4001C235.596 84.6001 223.391 84.8001 211.486 84.0001C191.078 82.7001 170.37 83.1001 152.062 83.5001C135.956 83.9001 119.549 83.8001 103.642 83.8001H93.3382C84.9348 83.8001 75.9311 83.9001 66.7273 84.8001C64.6265 85.0001 61.2251 84.5001 59.8245 84.2001C58.3239 84.0001 56.4231 83.2001 55.7228 81.7001C55.1226 80.5001 55.3227 79.0001 55.5228 77.5001V77.2001C56.4231 70.1001 56.023 63.8001 54.1222 56.7001C53.2218 53.3001 53.5219 50.0001 53.8221 46.5001C54.0221 44.1001 54.3223 41.7001 54.1222 39.2001L54.0221 37.1001C53.9221 35.3001 53.8221 33.7001 53.622 31.8001C53.4219 29.3001 53.3219 26.7001 54.0221 24.4001C54.1222 23.9001 54.2222 23.5001 54.3223 23.1001C55.5228 24.1001 57.3235 24.2001 58.3239 24.2001C75.731 25.0001 93.3382 24.9001 107.944 24.0001C121.85 24.0001 135.856 23.7001 149.461 23.4001C173.371 22.9001 197.981 22.3001 222.291 23.7001C242.099 24.9001 262.407 25.2001 286.217 24.6001H287.217C297.722 24.4001 308.626 24.1001 319.431 24.8001H320.131C326.133 25.2001 333.636 25.6001 339.539 24.4001C340.039 24.3001 340.439 24.2001 340.839 24.0001C341.039 25.1001 340.939 26.2001 340.939 27.4001C340.839 29.0001 340.839 30.7001 341.239 32.3001C342.14 35.6001 342.14 38.3001 342.04 42.1001C342.04 43.6001 342.04 45.3001 342.04 47.2001C342.14 49.5001 341.94 51.7001 341.84 53.9001C341.64 56.5001 341.54 59.3001 341.74 62.1001C341.84 63.9001 342.14 65.6001 342.44 67.3001C342.64 68.5001 342.84 69.6001 343.04 70.8001C343.74 73.6001 342.34 76.7001 341.239 78.8001ZM393.461 61.0001C393.361 61.1001 393.361 61.1001 393.261 61.1001C392.861 61.1001 392.46 61.1001 391.96 61.2001C386.158 62.1001 380.455 62.8001 374.753 62.8001C373.052 62.8001 369.751 62.8001 365.95 62.9001C358.647 63.0001 348.843 63.0001 344.541 62.9001C344.541 62.6001 344.441 62.3001 344.441 62.0001C344.241 59.3001 344.441 56.8001 344.541 54.1001C344.641 51.9001 344.841 49.6001 344.741 47.3001C344.741 45.4001 344.741 43.8001 344.741 42.2001C344.741 38.4001 344.841 35.5001 343.841 31.9001C343.44 30.6001 343.54 29.1001 343.64 27.6001C343.74 25.6001 343.841 23.5001 342.84 21.5001C342.64 20.4001 341.54 19.8001 341.139 19.6001C340.239 19.1001 339.439 18.6001 338.838 18.3001C336.137 16.7001 335.037 16.1001 330.635 14.9001C327.334 14.0001 324.933 13.5001 322.532 13.0001C319.13 12.3001 316.229 11.7001 311.727 10.1001C310.527 9.70008 309.326 9.00008 309.426 8.30008C309.526 7.50008 311.027 7.10008 311.927 6.90008C313.828 6.40008 315.029 6.10008 315.929 5.80008C317.43 5.30008 318.33 5.10008 321.431 4.70008C333.636 3.10008 339.039 3.40008 350.743 4.00008L352.044 4.10008C361.148 4.60008 370.151 4.60008 378.955 4.00008C383.657 3.30008 388.559 2.50008 393.361 2.30008C390.66 5.30008 387.959 8.40008 385.357 11.4001C382.256 15.0001 379.055 18.7001 375.854 22.1001C373.753 24.4001 371.452 27.0001 372.052 30.2001C372.352 31.9001 373.453 33.4001 374.353 34.5001C378.054 39.1001 381.356 44.0001 384.557 48.7001C387.358 52.7001 390.159 56.9001 393.261 60.9001C393.461 60.9001 393.461 60.9001 393.461 61.0001Z" fill="url(#paint0_linear)"/>
<path d="M101.699 56.243V59.033H99.6215V56.243H101.699ZM101.699 62.97H99.6215V59.901H101.699V62.97ZM101.699 66.969H99.6215V63.838H101.699V66.969ZM104.055 47.47V50.694H96.7695V47.47H104.055ZM107.558 67.837C107.961 67.837 108.271 67.682 108.364 67.341C107.371 66.473 105.915 65.357 105.915 65.357L104.613 66.969H104.272V63.838H106.938C107.341 63.838 107.62 63.683 107.682 63.342C106.938 62.567 105.729 61.513 105.729 61.513L104.644 62.97H104.272V59.901H106.783C107.186 59.901 107.465 59.746 107.527 59.405C106.845 58.63 105.636 57.607 105.636 57.607L104.551 59.033H104.272V56.243H107.092C107.496 56.243 107.775 56.088 107.868 55.747C106.969 54.91 105.605 53.825 105.605 53.825L104.365 55.375H99.9935L99.6835 55.251C99.9625 54.631 100.211 54.011 100.459 53.36C100.955 53.391 101.296 53.205 101.482 52.988C101.823 53.546 102.102 54.29 102.133 54.941C103.962 56.398 106.07 52.926 101.296 52.058L100.986 52.275C101.079 52.399 101.203 52.523 101.296 52.678L98.2265 51.748C97.8855 54.197 97.2345 56.677 96.4285 58.661C96.7385 56.119 96.7695 53.701 96.7695 51.593H104.055V52.678H104.582C105.605 52.678 107.124 52.058 107.155 51.81V47.935C107.713 47.811 108.116 47.563 108.302 47.346L105.202 45.052L103.776 46.602H96.7695V44.897C99.9625 44.835 103.218 44.494 105.574 44.091C106.442 44.463 107.092 44.463 107.465 44.184L104.21 40.898C102.381 41.859 99.1565 43.161 96.1185 43.998L93.5765 43.068V51.035C93.5765 56.77 93.6695 63.838 92.0575 69.573L92.4605 69.79C94.5685 67.031 95.6535 63.621 96.2115 60.242L96.2735 60.273C96.5525 59.994 96.8315 59.715 97.1105 59.405V69.356H97.5135C98.8155 69.356 99.6215 68.736 99.6215 68.55V67.837H107.558ZM114.843 63.497C116.269 64.954 118.005 67.31 118.594 69.294C121.911 71.309 124.173 64.923 115.122 63.28L114.843 63.497ZM116.734 48.524V52.182H112.053V48.524H116.734ZM112.053 61.42V57.669H116.734V61.42H112.053ZM112.053 53.081H116.734V56.77H112.053V53.081ZM116.424 43.161H107.496L107.744 44.06H112.735C112.735 45.145 112.642 46.54 112.549 47.625H112.177L108.891 46.261V63.869H109.387C109.852 63.869 110.286 63.776 110.689 63.683C109.976 65.512 108.581 67.868 107.031 69.356L107.31 69.759C109.79 68.736 112.518 66.876 113.758 65.202C114.285 65.295 114.595 65.233 114.719 64.954L111.402 63.373C111.805 63.187 112.053 62.97 112.053 62.815V62.319H116.734V63.404H117.261C118.377 63.404 119.927 62.753 119.958 62.505V48.927C120.454 48.803 120.857 48.586 121.012 48.369L117.974 46.044L116.455 47.625H113.603C114.471 46.633 115.463 45.238 116.269 44.06H120.795C121.26 44.06 121.601 43.905 121.663 43.564C120.392 42.417 118.284 40.712 118.284 40.712L116.424 43.161ZM138.929 66.566V61.172H148.013V66.566H138.929ZM147.703 60.304H139.332L137.596 59.653C139.735 58.847 141.72 57.948 143.549 56.925C145.006 57.979 146.587 58.878 148.353 59.622L147.703 60.304ZM146.68 49.95C145.78 51.314 144.572 52.678 143.084 53.98C141.688 53.174 140.479 52.244 139.488 51.128C139.859 50.756 140.231 50.353 140.603 49.95H146.68ZM149.19 47.005L146.803 49.051H141.348C141.595 48.741 141.844 48.431 142.091 48.09C142.804 48.214 143.238 47.935 143.425 47.594L139.363 45.796H152.941C152.786 46.974 152.539 48.431 152.291 49.423L152.57 49.64C153.903 48.865 155.577 47.47 156.569 46.478C157.189 46.447 157.529 46.385 157.778 46.106L154.554 43.037L152.725 44.897H144.478C146.401 44.091 146.587 40.402 140.386 40.743L140.169 40.929C141.192 41.704 142.154 43.223 142.308 44.618C142.495 44.742 142.68 44.835 142.867 44.897H133.752C133.659 44.339 133.473 43.781 133.256 43.161H132.822C132.884 44.897 131.675 46.478 130.559 47.067C129.629 47.501 128.978 48.369 129.35 49.454C129.753 50.601 131.241 50.818 132.233 50.167C133.318 49.516 134.093 47.966 133.876 45.796H138.681C136.698 50.136 133.442 53.949 130.466 56.119L130.745 56.491C133.566 55.437 136.356 53.918 138.836 51.717C139.611 53.019 140.541 54.197 141.565 55.251C138.124 57.886 133.628 60.18 128.854 61.668L129.04 62.009C131.179 61.606 133.318 61.079 135.364 60.428V69.728H136.015C137.813 69.728 138.929 68.891 138.929 68.643V67.465H148.013V69.48H148.632C149.81 69.48 151.639 68.829 151.67 68.612V61.668C152.198 61.544 152.57 61.296 152.725 61.11L152.662 61.048C153.469 61.265 154.275 61.451 155.112 61.637C155.484 59.87 156.414 58.692 157.964 58.32L157.995 57.948C153.872 57.576 149.624 56.801 146.029 55.406C148.106 54.011 149.842 52.492 151.175 50.849C152.012 50.756 152.415 50.663 152.725 50.384L149.19 47.005ZM168.937 58.041C169.526 56.026 170.146 53.577 170.673 51.159C171.82 50.88 172.905 50.632 173.897 50.384C173.68 53.422 173.153 56.46 172.161 59.343C171.231 58.909 170.177 58.475 168.937 58.041ZM180.159 48.121C179.291 48.214 178.485 48.276 177.617 48.369C177.648 47.842 177.679 47.346 177.71 46.85C178.423 46.788 178.795 46.509 178.919 46.013L174.052 45.176C174.083 46.323 174.052 47.47 174.021 48.617C173.06 48.679 172.099 48.741 171.231 48.772C171.789 46.168 172.254 43.75 172.564 42.107C173.525 42.014 173.68 41.673 173.773 41.332L169.278 40.588C169.092 42.417 168.565 45.641 167.945 48.927C166.705 48.958 165.682 48.958 164.907 48.958L165.682 52.709C166.054 52.647 166.395 52.43 166.612 52.027L167.325 51.872C166.86 54.166 166.333 56.305 165.899 57.793C167.604 58.816 169.526 60.211 171.2 61.73C169.867 64.644 167.883 67.31 165.093 69.48L165.434 69.79C168.813 68.147 171.231 65.977 172.998 63.497C173.835 64.365 174.548 65.264 175.075 66.132C177.462 67.62 180.531 64.334 174.703 60.645C176.346 57.266 177.121 53.422 177.524 49.392C178.485 49.113 179.353 48.865 180.19 48.586L180.159 48.121ZM189.304 54.538H187.104V50.601C187.848 50.508 188.127 50.229 188.219 49.795L187.01 49.671C188.901 48.307 190.979 46.354 192.342 45.052C192.994 45.021 193.334 44.928 193.613 44.68L190.327 41.673L188.343 43.626H178.485L178.764 44.494H188.374C187.785 45.951 186.886 48.059 186.08 49.609L183.6 49.361V54.538H177.555L177.803 55.406H183.6V65.326C183.6 65.698 183.445 65.853 182.98 65.853C182.329 65.853 179.291 65.636 179.291 65.636V66.07C180.779 66.318 181.461 66.721 181.926 67.279C182.329 67.806 182.484 68.643 182.577 69.759C186.607 69.418 187.104 68.023 187.104 65.543V55.406H193.737C194.171 55.406 194.481 55.251 194.575 54.91C193.303 53.732 191.164 51.996 191.164 51.996L189.304 54.538ZM204.774 41.301C205.704 42.324 206.727 43.998 206.944 45.548C210.23 47.718 213.175 41.518 204.991 41.115L204.774 41.301ZM210.106 46.695H201.674L201.922 47.594H214.043C214.446 47.594 214.787 47.439 214.849 47.098C213.733 46.013 211.78 44.463 211.78 44.463L210.106 46.695ZM202.976 50.663L203.193 51.562H213.082C213.516 51.562 213.826 51.407 213.919 51.066C212.896 50.074 211.191 48.71 211.191 48.71L209.672 50.663H202.976ZM209.672 54.662H202.976L203.193 55.561H213.082C213.516 55.561 213.826 55.406 213.919 55.065C212.896 54.073 211.191 52.771 211.191 52.771L209.672 54.662ZM206.51 65.667V59.591H209.92V65.667H206.51ZM209.641 58.723H206.634L203.348 57.39V69.418H203.813C205.146 69.418 206.51 68.705 206.51 68.395V66.535H209.92V68.209H210.478C211.532 68.209 213.113 67.527 213.144 67.279V60.087C213.702 59.963 214.105 59.715 214.291 59.498L211.129 57.111L209.641 58.723ZM225.885 57.204H223.436V44.68H229.543C229.977 44.68 230.318 44.525 230.411 44.184C229.109 42.975 226.97 41.332 226.97 41.332L225.048 43.781H214.663L214.911 44.68H220.119V57.204H213.485L213.733 58.072H220.119V69.666H220.708C222.413 69.666 223.436 68.953 223.436 68.736V58.072H230.194C230.628 58.072 230.938 57.917 231.031 57.576C229.791 56.429 227.714 54.817 227.714 54.817L225.885 57.204ZM214.911 47.129C215.748 49.268 216.647 52.12 216.647 54.538C219.282 57.235 222.32 51.469 215.283 47.005L214.911 47.129ZM224.149 55.561C226.226 53.639 227.931 50.973 229.078 48.989C229.822 49.082 230.07 48.896 230.225 48.555L226.195 46.571C225.854 48.896 224.955 52.709 223.808 55.282L224.149 55.561ZM256.295 40.681C257.163 42.014 257.845 44.06 257.752 45.858C260.697 48.679 264.572 42.696 256.574 40.526L256.295 40.681ZM253.66 60.614H257.349V66.349H253.66V60.614ZM257.349 47.935V53.36H253.66V47.935H257.349ZM257.349 59.746H253.66V54.259H257.349V59.746ZM262.495 66.349H260.635V60.614H265.409C265.874 60.614 266.184 60.459 266.277 60.118C265.13 59.002 263.239 57.359 263.239 57.359L261.534 59.746H260.635V54.259H265.409C265.874 54.259 266.184 54.104 266.277 53.763C265.13 52.647 263.239 50.973 263.239 50.973L261.534 53.36H260.635V47.935H266.339C266.773 47.935 267.114 47.78 267.207 47.439C265.998 46.292 263.952 44.618 263.952 44.618L262.154 47.036H254.063L253.939 47.005C254.745 45.517 255.396 44.06 255.861 42.789C256.636 42.758 256.884 42.51 257.008 42.169L252.11 40.743C251.614 43.967 250.405 48.555 248.669 52.306L248.607 52.182C247.553 52.585 246.468 53.019 245.414 53.391V48.865H248.948C249.351 48.865 249.661 48.71 249.754 48.369C248.793 47.315 247.119 45.703 247.119 45.703L245.631 47.997H245.414V42.014C246.189 41.89 246.499 41.58 246.561 41.115L241.942 40.681V47.997H238.067L238.284 48.865H241.942V54.662C240.144 55.313 238.687 55.809 237.881 56.057L239.586 60.025C239.958 59.901 240.237 59.498 240.299 59.095C240.857 58.692 241.415 58.289 241.942 57.917V64.83C241.942 65.202 241.787 65.388 241.322 65.388C240.64 65.388 237.726 65.171 237.726 65.171V65.636C239.121 65.915 239.803 66.318 240.268 66.907C240.702 67.527 240.857 68.426 240.95 69.697C244.918 69.263 245.414 67.775 245.414 65.202V55.282C246.654 54.29 247.677 53.453 248.452 52.74C248.111 53.453 247.77 54.135 247.367 54.786L247.677 55.065C248.607 54.29 249.475 53.391 250.281 52.43V69.697H250.901C252.606 69.697 253.66 68.953 253.66 68.705V67.217H266.835C267.269 67.217 267.579 67.062 267.672 66.721C266.432 65.543 264.355 63.807 264.355 63.807L262.495 66.349ZM280.631 47.346C282.274 47.408 283.576 47.098 284.103 46.416L283.824 44.463H288.35C288.784 44.463 289.125 44.308 289.187 43.967C288.102 42.851 286.242 41.301 286.242 41.301L284.599 43.564H283.7L283.483 41.828C284.103 41.642 284.351 41.363 284.382 40.991L279.825 40.65L280.166 43.564H274.245L274.493 44.463H280.29L280.631 47.346ZM281.902 63.032C281.902 64.334 280.662 65.543 279.639 66.008C278.709 66.411 278.089 67.217 278.368 68.24C278.74 69.387 280.166 69.604 281.096 69.108C282.429 68.364 283.421 66.163 282.336 63.032H281.902ZM284.475 63.156C284.816 64.365 285.033 66.163 284.785 67.713C286.707 70.069 290.117 66.132 284.847 63.032L284.475 63.156ZM288.195 62.753C288.815 63.838 289.559 65.543 289.621 67C291.884 69.046 294.736 64.644 288.536 62.598L288.195 62.753ZM297.123 55.902V56.863H297.681C298.084 56.863 298.58 56.77 299.045 56.677L297.929 58.01H285.994C286.18 57.235 286.397 56.491 286.521 55.902H297.123ZM280.476 54.724V52.151H284.072V55.034H280.476V54.724ZM284.072 48.958V51.252H280.476V48.958H284.072ZM290.706 51.252H287.172V48.958H290.706V51.252ZM287.172 55.034V52.151H290.706V55.034H287.172ZM297.123 52.151V55.034H293.868V52.151H297.123ZM302.052 58.878C302.486 58.878 302.796 58.723 302.889 58.382C302.052 57.669 300.843 56.77 300.192 56.274C300.316 56.212 300.409 56.15 300.409 56.119V52.616C300.936 52.492 301.339 52.244 301.525 52.027L298.332 49.64L296.813 51.252H293.868V48.958H301.99C302.424 48.958 302.765 48.803 302.827 48.462C301.587 47.377 299.572 45.858 299.572 45.858L297.774 48.059H290.086C291.636 47.563 291.977 44.866 287.172 44.804L286.924 44.99C287.575 45.548 288.257 46.726 288.381 47.749C288.598 47.904 288.784 47.997 289.001 48.059H281.003L277.035 46.633V54.724C277.035 59.56 276.942 65.078 274.71 69.48L275.051 69.728C279.763 65.946 280.383 60.335 280.476 55.902H283.08C282.863 57.142 282.367 59.157 281.933 60.614C281.499 60.8 281.065 61.079 280.755 61.327L283.886 63.311L285.188 61.823H298.456C298.239 64.458 297.867 65.946 297.402 66.287C297.216 66.473 296.999 66.504 296.534 66.504C296.007 66.504 294.457 66.411 293.589 66.349L293.558 66.783C294.55 66.969 295.294 67.31 295.728 67.744C296.131 68.209 296.224 68.984 296.224 69.852C297.65 69.852 298.704 69.573 299.51 69.015C300.812 68.178 301.401 66.225 301.68 62.319C302.269 62.226 302.641 62.071 302.858 61.823L299.851 59.374L298.208 60.955H285.157C285.343 60.335 285.56 59.622 285.746 58.878H302.052ZM292.38 62.412C293.124 63.156 293.93 64.458 294.085 65.574C296.379 67.186 298.673 62.846 292.659 62.195L292.38 62.412ZM299.293 43.564H297.185L297.402 42.2C298.239 42.138 298.518 41.797 298.58 41.394L294.085 40.65L293.651 43.564H289.869L290.117 44.463H293.496L293.062 47.346C294.55 47.625 295.976 47.408 296.627 46.912L297.03 44.463H303.075C303.509 44.463 303.788 44.308 303.881 43.967C302.796 42.851 300.905 41.301 300.905 41.301L299.293 43.564Z" fill="white"/>
<defs>
<linearGradient id="paint0_linear" x1="84.2836" y1="146.069" x2="312.411" y2="-82.1518" gradientUnits="userSpaceOnUse">
<stop stop-color="#DDBC82"/>
<stop offset="0.3054" stop-color="#9B7860"/>
<stop offset="0.6522" stop-color="#DDBC82"/>
<stop offset="1" stop-color="#9B7860"/>
</linearGradient>
</defs>
</svg>
