<svg xmlns="http://www.w3.org/2000/svg" viewBox="0 0 410 83.47"><rect width="387.63" height="70.16" rx="34.64" fill="#916657"/><path d="M63.07,48.83H34.43V45.91h8.36a75.26,75.26,0,0,0-4.12-15.19L41,29.12H35.58v-3h12a26.07,26.07,0,0,0-2.17-4.58l3.17-1.08A41.65,41.65,0,0,1,51,26.16H62.22v3H56.34l2.42,1.56a83.85,83.85,0,0,1-3.93,15.23h8.24ZM56,29.12H41.44a90.57,90.57,0,0,1,4.39,16.79h5.83A88.54,88.54,0,0,0,56,29.12Z" fill="#fff"/><path d="M85.48,47.32l-2.57,1A32.58,32.58,0,0,0,81.68,45Q76.35,47.27,72,48.71l-1-2.64a1.44,1.44,0,0,0,.76-1.26V21.45H84.13V36.82H74.7v8q2.76-1,5.91-2.27a19.92,19.92,0,0,0-1.69-3.33l2.54-1.08A43.71,43.71,0,0,1,85.48,47.32ZM81.23,27.64V24.15H74.7v3.49Zm0,6.44V30.31H74.7v3.77ZM98.69,43c0,1.51-.37,2.51-1.1,3a7.24,7.24,0,0,1-3.72.71c-.67,0-1.38,0-2.13-.05l-.82-3c1.33.07,2.67.1,4,.1a.78.78,0,0,0,.57-.29.94.94,0,0,0,.25-.64V24.34H90V49.72h-2.9V21.48H98.69Z" fill="#fff"/><path d="M117.18,44.62a33.31,33.31,0,0,1-8.47,4.94l-1.62-2.33A36.08,36.08,0,0,0,114.91,43Zm17.73-11.07h-3V30.06H110.69v3.46h-3v-6.1h12.1v-2H108.55V22.93h11.27V21h3v1.93h11.41v2.51H122.78v2h12.13Zm.29,8.8L133,43.9a28.07,28.07,0,0,0-2-2.52l-8.14.73v4.68a2.62,2.62,0,0,1-.91,2.18c-.62.49-2.26.74-4.93.75L116,47c.73,0,1.34.05,1.83.05a5.07,5.07,0,0,0,1.77-.17.64.64,0,0,0,.33-.63V42.32c-3.29.18-6.84.29-10.67.32l-.34-2.3a45.51,45.51,0,0,0,11-3.8c-2.87.18-5.57.28-8.11.28l-.35-2a30.65,30.65,0,0,0,8.9-4.49l2.56,1.38a25,25,0,0,1-5.2,2.86c1.16,0,2.33-.08,3.51-.14a16.5,16.5,0,0,0,3.46-.39c1.57-.88,2.81-1.6,3.7-2.17l2.35,1.69a102.21,102.21,0,0,1-14.11,6.76q5.26-.24,12.5-1c-.7-.72-1.42-1.41-2.16-2.08l2.25-1.44A47.33,47.33,0,0,1,135.2,42.35Zm.37,5-1.69,2.11a47.92,47.92,0,0,0-8.66-4.41l1.89-2.18A48,48,0,0,1,135.57,47.35Z" fill="#fff"/><path d="M172.18,47.89,170.13,50a34.91,34.91,0,0,1-5.57-5.74,36.2,36.2,0,0,1-5.72,5.71l-2.11-2A34.56,34.56,0,0,0,163,41.75q-3.53-5.72-4.35-15.09H158V24.52h-1.69V49.69h-2.83V44.25A75.83,75.83,0,0,1,144,46.73l-1-2.83c.79-.09,1.63-.22,2.55-.41v-19h-2.11V21.75h15v2h12.42q-.47,12.06-4.47,18.06A31.08,31.08,0,0,0,172.18,47.89ZM153.43,28.51v-4h-5.07v4Zm0,6.74v-4h-5.07v4Zm0,6V38h-5.07V42.8A38.1,38.1,0,0,0,153.43,41.29Zm14.34-14.63h-6.3a33.87,33.87,0,0,0,3.27,12.2A35.81,35.81,0,0,0,167.77,26.66Z" fill="#fff"/><path d="M183.29,42a31.58,31.58,0,0,1-1.69,7.8l-2.43-1a30.74,30.74,0,0,0,1.61-7.33Zm9-2.27-2.41.76a13.18,13.18,0,0,0-.49-1.58q-6.55,1.5-9,1.83l-.94-2.43a29,29,0,0,0,5.78-6.95c-2.8.59-4.36.91-4.68.95l-.79-2.4a32.3,32.3,0,0,0,5.13-9.1l2.74,1.06a36,36,0,0,1-4.41,7.48c1-.17,2.21-.46,3.68-.87A38.46,38.46,0,0,0,188.76,25l2.53,1.39a40.85,40.85,0,0,1-7.87,11.28c1.12-.23,2.76-.65,4.94-1.26a7.47,7.47,0,0,0-.69-1.64l2.28-.9A29.75,29.75,0,0,1,192.32,39.68Zm-4.44,8.69-2.61.53a35.28,35.28,0,0,0-.87-6.79l2.48-.6A43.49,43.49,0,0,1,187.88,48.37Zm3.81-3.09-2.4.66a16.68,16.68,0,0,0-.93-4.31l2.35-.63A27.26,27.26,0,0,1,191.69,45.28Zm16.64,2.27-1.87,2.32a27.12,27.12,0,0,1-7.19-5.62,24,24,0,0,1-7.14,5.62l-1.89-2.23a24.85,24.85,0,0,0,7.29-5.6A34.63,34.63,0,0,1,193,30l2.67-.66a34,34,0,0,0,3.56,10.28q2.2-3.88,3.26-11.25H191.85V25.47h6.66a39.31,39.31,0,0,0-2.07-4.09l2.8-.82a44.41,44.41,0,0,1,2.24,4.91h6.43v2.86h-2.7Q204,37.36,201,42A25.62,25.62,0,0,0,208.33,47.55Z" fill="#fff"/><path d="M219.24,42.14a31.06,31.06,0,0,1-1.55,7.76l-2.46-1.16a29.79,29.79,0,0,0,1.61-7.11ZM226.09,40l-2.3,1c-.12-.67-.21-1.17-.29-1.51-3.11.69-5.52,1.19-7.22,1.48l-.79-2.51a28.52,28.52,0,0,0,5.07-6.73l-4.25.63-.5-2.46a29.47,29.47,0,0,0,4.68-9l2.77,1a42.31,42.31,0,0,1-3.91,7.36c.34,0,1.23-.17,2.65-.44a29.55,29.55,0,0,0,1.32-2.89l2.45,1a42.23,42.23,0,0,1-6.26,10.75,24.55,24.55,0,0,0,3.4-.73q-.41-1.41-.63-2l2.36-.56A42,42,0,0,1,226.09,40Zm-3.62,8.45-2.3.39a32.09,32.09,0,0,0-.5-6.42l2.17-.37A31.29,31.29,0,0,1,222.47,48.48Zm3-2.22-2,.5c-.14-1.33-.39-2.9-.74-4.72l2-.48C224.91,42.62,225.17,44.19,225.46,46.26Zm19-17.43h-1.61v3.75h-6.26v6.79h4.64V37.83h-3.49V33.48H240v2.21h1.24v-2h2.41V50.06h-2.41V45.38H239.9V50h-2.17V43.11h3.49V41.59h-4.64V50H234V41.59h-5c0,.52,0,1-.06,1.52h3.85V50h-2.14V45.28h-2a15.81,15.81,0,0,1-1.78,5l-2-1.58a14.51,14.51,0,0,0,1.74-7.41V33.61H229v2.08h1.68V33.45h2.14v4.38H229v1.54h5V32.58h-6.85v-2.3H234V28.83H226.3V26.5H234V25h-6.82V22.74H234V21.13h2.54v1.61h6.26V26.5h1.61ZM240.2,26.5V25h-3.62V26.5Zm0,3.78V28.83h-3.62v1.45Z" fill="#fff"/><path d="M263,35.43a39.64,39.64,0,0,1-3.94,1.74v9.9q0,2.57-3.64,2.57c-.61,0-1.32,0-2.14,0l-1.19-2.86c1.69,0,2.78,0,3.29,0s.77-.24.77-.64V38.33c-1,.39-2.25.82-3.62,1.29l-.79-2.8,4.41-1.63V29.12H252V26.26h4.15V21h2.91v5.26h3.56v2.86h-3.56V34a36,36,0,0,0,3.52-1.52Zm17.54-1.35H276V49.69h-3V34.08h-5.87q.06,10.77-4.32,15.64l-2.43-1.67a13.36,13.36,0,0,0,2.72-4.91q1.13-3.27,1.13-10.35V23.46a51.63,51.63,0,0,0,14.21-2.67l1.38,2.7a53.23,53.23,0,0,1-12.69,2.58V31.2h13.35Z" fill="#fff"/><path d="M298.77,35.82c-1.2.52-2.44,1-3.7,1.57V46.6c0,2-1,3.06-2.9,3.06-1.2,0-2.09,0-2.67-.07l-.85-2.8c.56,0,1.54,0,3,0a.55.55,0,0,0,.39-.19.53.53,0,0,0,.21-.37V38.55c-.92.31-2.07.66-3.46,1L288,36.91c1.5-.41,2.9-.86,4.19-1.35V29h-4.06V26.26h4.06V21h2.86v5.3h3.23V29h-3.23v5.4a26.08,26.08,0,0,0,3.17-1.38ZM317.15,43a14.57,14.57,0,0,1-1.27,5.17,2.65,2.65,0,0,1-2.39,1.59q-4.33,0-5.6-16h-5.34v7.94a36.75,36.75,0,0,0,4.56-1.62l.41,2.7a61.81,61.81,0,0,1-7.9,2.64l-.79-2.7a1.33,1.33,0,0,0,.79-1.32V23.3a50.38,50.38,0,0,0,15-2.51l1.61,2.38a53.51,53.51,0,0,1-5.8,1.7c0,2.06.1,4.11.2,6.14h6.22v2.8h-6a54.51,54.51,0,0,0,1.44,9.78c.59,2,1,2.94,1.25,2.94s.27-.36.46-1.09a27.71,27.71,0,0,0,.58-3.88Zm-8,6.2h-9.49V46.5h9.49ZM307.67,31l-.21-5.64c-2.41.29-4,.48-4.91.57V31Z" fill="#fff"/><path d="M353.48,30.38,352.05,33a45.94,45.94,0,0,1-4.94-2.44v1.85h-6.76v3.23h11.12v2.83H340.35V46.1h11.91v2.8H325.59V46.1h11.76V38.42H326.44V35.59h10.91V32.36H330.5V30.59a44.92,44.92,0,0,1-4.44,2.3l-1.85-2.51q10.05-4.43,14-9.66l3,.86a1.94,1.94,0,0,1-.43.62Q344.47,26.48,353.48,30.38ZM335.05,44.59l-2.76.95a32.11,32.11,0,0,0-3.71-5.14l2.8-1.15A26.28,26.28,0,0,1,335.05,44.59Zm10.48-15a36.47,36.47,0,0,1-6.73-5.1,40,40,0,0,1-6.58,5.1Zm3.72,10.68a26.56,26.56,0,0,1-3.56,5.2l-2.86-1.25a24.77,24.77,0,0,0,3.58-5Z" fill="#fff"/><path d="M370,61.2c-1.26-2.64-2.53-5.3-3.78-8q-3.37-7.23-6.72-14.49a9.65,9.65,0,0,1-1-4.57,5.39,5.39,0,0,1,7.58-4.64,6.74,6.74,0,0,1,3.59,3.28l5.08,9.77c.13.24.29.46.45.72a7.45,7.45,0,0,1,7.2-.87,1.11,1.11,0,0,0,.76-.14,8.64,8.64,0,0,1,7.52-.36,1,1,0,0,0,.74,0c3.43-2,7.62-.81,10,2.34a36.25,36.25,0,0,1,4.81,9.13c1.07,2.78,2.06,5.6,3,8.44a13.53,13.53,0,0,1-2,12.83c-5.26,6.83-12.33,9.74-20.89,8.57-3.27-.45-6.07-2.3-8.91-3.88q-5.82-3.25-11.58-6.6a38.44,38.44,0,0,1-4.17-2.68,5.91,5.91,0,0,1-2.45-5.35A5.51,5.51,0,0,1,365.68,60,41.5,41.5,0,0,1,370,61.2Zm14.6-16c1,1.8,1.94,3.51,2.88,5.23.5.9.36,1.54-.4,2s-1.43.24-1.95-.7c-.93-1.66-1.94-3.29-2.74-5a2.8,2.8,0,0,0-2.74-1.59,4.13,4.13,0,0,0-2.62.86.83.83,0,0,0-.3,1.28c1.19,2.28,2.33,4.58,3.47,6.87a1.35,1.35,0,0,1-1.28,2c-.69,0-1-.55-1.24-1.08Q372.36,44.74,367,34.43a3.83,3.83,0,0,0-2.13-2,2.17,2.17,0,0,0-3.1,2.31,10.27,10.27,0,0,0,.88,3.08q6.25,13.44,12.6,26.82c.3.64.51,1.26-.1,1.82s-1.14.32-1.76,0c-1.78-.87-3.56-1.77-5.39-2.52a10.62,10.62,0,0,0-3.26-.81,2.08,2.08,0,0,0-2,3.14,5.23,5.23,0,0,0,1.59,1.75c1.22.84,2.53,1.56,3.83,2.29,2.79,1.58,5.59,3.13,8.39,4.68,2.61,1.43,5.21,2.88,7.86,4.24a8.11,8.11,0,0,0,2.83.88c7.28.75,13.25-1.73,17.62-7.62a10.37,10.37,0,0,0,1.48-9.41c-.5-1.77-1.11-3.52-1.72-5.27a51.27,51.27,0,0,0-5-10.87,6,6,0,0,0-3.41-2.73,3.43,3.43,0,0,0-3.07.48c.63,1.22,1.23,2.36,1.81,3.52.47.91.3,1.55-.48,2s-1.41.18-1.89-.71c-.63-1.2-1.23-2.41-1.88-3.59a2,2,0,0,0-.69-.79A5.26,5.26,0,0,0,384.63,45.17Z" fill="#916657"/><path d="M384.63,45.17a5.26,5.26,0,0,1,5.3-.05,2,2,0,0,1,.69.79c.65,1.18,1.25,2.39,1.88,3.59.48.89,1.11,1.12,1.89.71s.95-1.05.48-2c-.58-1.16-1.18-2.3-1.81-3.52a3.43,3.43,0,0,1,3.07-.48A6,6,0,0,1,399.54,47a51.27,51.27,0,0,1,5,10.87c.61,1.75,1.22,3.5,1.72,5.27a10.37,10.37,0,0,1-1.48,9.41c-4.37,5.89-10.34,8.37-17.62,7.62a8.11,8.11,0,0,1-2.83-.88c-2.65-1.36-5.25-2.81-7.86-4.24-2.8-1.55-5.6-3.1-8.39-4.68-1.3-.73-2.61-1.45-3.83-2.29a5.23,5.23,0,0,1-1.59-1.75,2.08,2.08,0,0,1,2-3.14A10.62,10.62,0,0,1,368,64c1.83.75,3.61,1.65,5.39,2.52.62.3,1.2.5,1.76,0s.4-1.18.1-1.82q-6.32-13.39-12.6-26.82a10.27,10.27,0,0,1-.88-3.08,2.17,2.17,0,0,1,3.1-2.31,3.83,3.83,0,0,1,2.13,2q5.37,10.31,10.73,20.63c.27.53.55,1,1.24,1.08a1.35,1.35,0,0,0,1.28-2c-1.14-2.29-2.28-4.59-3.47-6.87a.83.83,0,0,1,.3-1.28,4.13,4.13,0,0,1,2.62-.86,2.8,2.8,0,0,1,2.74,1.59c.8,1.72,1.81,3.35,2.74,5,.52.94,1.15,1.16,1.95.7s.9-1.08.4-2C386.57,48.68,385.62,47,384.63,45.17Z" fill="#fff"/></svg>