<svg xmlns="http://www.w3.org/2000/svg" xmlns:xlink="http://www.w3.org/1999/xlink" viewBox="0 0 395.76 87"><defs><linearGradient id="a" x1="84.25" y1="146.07" x2="312.38" y2="-82.06" gradientUnits="userSpaceOnUse"><stop offset="0" stop-color="#d1b080"/><stop offset="0.31" stop-color="#8f7860"/><stop offset="0.65" stop-color="#d1b080"/><stop offset="1" stop-color="#8f7860"/></linearGradient></defs><path d="M81.5,50.93s1.83,1.49,2.91,2.54c-.09.34-.4.5-.83.5h-5v4.15h.56l1.49-1.64,3.19,2.42a2.31,2.31,0,0,1-1.11.55v8.07a5.35,5.35,0,0,1-2.73.83h-.56V66.24h-4.9v1.52c0,.31-1.43,1-2.76,1h-.46v-12l3.35,1.36h.62V54H70.15l-.25-.87h5.34v-4h-3l0-.09a21.29,21.29,0,0,1-2.7,1.82l-.28-.24a28.85,28.85,0,0,0,5.36-10.86l5,1.4c-.12.37-.46.62-1.33.68,7.63,1.71,6.36,5.68,4.22,6,.31.25.62.52.9.77a.77.77,0,0,1-.84.5H78.55v4h1.37ZM79,48.23l1.55-1.92h0a10.59,10.59,0,0,0-2.48-4.22,24,24,0,0,1-5,6.14ZM74.49,59v6.36h4.9V59Zm25.12-6.82a1.72,1.72,0,0,1-1.24.37,31.37,31.37,0,0,1-5.18,4.56l-.31-.19a46.79,46.79,0,0,0,1.86-5H92.2V64.57c0,2.33-.56,4-4.38,4.28a4.22,4.22,0,0,0-.65-2.45,3.92,3.92,0,0,0-2.57-1.15v-.4s2.91.19,3.56.19c.44,0,.59-.22.59-.56V51.86H82.89l-.28-.9h12l1.83-1.8ZM83.67,42.65l-.28-.87H93.81L95.67,40l3.07,3c-.25.25-.59.31-1.24.37a26.86,26.86,0,0,1-5.34,3.85c2.17,2,.66,4.65-1.64,3.5a15.17,15.17,0,0,0-4.34-5.21l.25-.25a10.77,10.77,0,0,1,5,1.4,27.81,27.81,0,0,0,2.36-4Z" fill="#82594c"/><path d="M117,55.27a3.67,3.67,0,0,1-.74.12,17.81,17.81,0,0,1-4.43,6.92,2.18,2.18,0,0,1,.74.34c2.39,1.89,6.23,2.26,13.27,2.26,3.75,0,6.7,0,10.39-.22v.38a3.37,3.37,0,0,0-2.48,3h-9.18c-7.1,0-9.8-1.08-12.37-4.27-.47-.59-.78-.53-1.06,0-.43.93-1,2.41-1.58,4a.52.52,0,0,1-.22.63l-2.48-3.48c1.09-.59,2.58-1.67,3.6-2.26A24.57,24.57,0,0,0,113,55.14h-1.64l-1,1-2.64-1.83a6.16,6.16,0,0,1,1.15-.59c.81-1.46,1.89-3.63,2.54-5.12h-3.63l-.27-.9h3.9l1.37-1.42,2.85,2.57a2.52,2.52,0,0,1-1.4.47c-.65,1.33-1.76,3.41-2.57,5h1.18l1.67-1.71L117,54.65V47l3.26,1.39h1.27a2.2,2.2,0,0,1-.81-.49,6,6,0,0,0-.93-3.32l.28-.15c4.84.74,4.37,3.38,2.82,4h3.76a38.83,38.83,0,0,0,.65-4l4.62,1c-.1.34-.44.65-1.12.65a32.62,32.62,0,0,1-3.13,2.35h2.39l1.45-1.7,3.29,2.51a2.18,2.18,0,0,1-1.3.62V61.5c0,1.77-.44,2.64-3.69,2.88a2.41,2.41,0,0,0-.37-1.48,3.13,3.13,0,0,0-1.8-.72v-.43s1.73.12,2.2.12.53-.18.53-.52v-8.9a.72.72,0,0,1-.72.4h-3.16v2.73h.12l1.15-1.21,2.23,2a1.8,1.8,0,0,1-1.08.53v3.91a3.31,3.31,0,0,1-2,.65h-.47v-1h-2.7v1c0,.22-1.08.71-2,.71h-.34V54.52l2.48,1.06H124V52.85h-3.19l-.25-.9H124V49.78l3.26.31c0,.34-.25.59-.78.68V52H127l1.21-1.55s1.36,1.09,2.2,1.92v-3.1h-10.3v14c0,.3-1.27,1-2.6,1H117Zm-8.4-15c8,1.4,4.93,7.32,1.89,5a9.84,9.84,0,0,0-2.17-4.83Zm6.73,3.13h8.59l-.37-.28a5.73,5.73,0,0,0-1.12-3.34l.25-.16c4.74.53,4.8,2.88,3.53,3.78h3.85l1.89-2.32s2.14,1.58,3.44,2.7c-.09.34-.4.49-.87.49H115.57Zm11.16,16.16v-3.1h-2.7v3.1Z" fill="#82594c"/><path d="M158.56,52.39a1.92,1.92,0,0,1-1.27.58c-.28,9.68-.83,13.12-2.38,14.55a5.34,5.34,0,0,1-3.69,1.24,4,4,0,0,0-.44-2.33,3.35,3.35,0,0,0-2.07-1.08v-.44c.86.06,2.2.16,2.75.16a1.29,1.29,0,0,0,1-.34c.83-.78,1.27-4.38,1.48-12.31h-3c-.5,6.32-2,12.21-6.67,16.49l-.28-.28c3.54-6.23,3.82-14,3.6-21.48h-3.13l-.25-.9H154.5l1.86-2.45s2.08,1.67,3.32,2.85c-.09.34-.4.5-.84.5h-7.65c0,1.48-.1,2.91-.19,4.37h2.63l1.83-1.8ZM148.58,40c8.37,1.71,5.24,7.85,2.08,5.4a12.51,12.51,0,0,0-2.36-5.24Zm22.7,7.88a28.66,28.66,0,0,1-4.37,12.68,18.74,18.74,0,0,0,6.72,5.05l-.09.31a3.87,3.87,0,0,0-3.19,3,17.23,17.23,0,0,1-5.31-6,23.79,23.79,0,0,1-9.36,6l-.22-.31a23.27,23.27,0,0,0,8.31-8.46,41.8,41.8,0,0,1-2.14-9.24,20.1,20.1,0,0,1-3.56,4.52l-.4-.21a49.28,49.28,0,0,0,3.65-15.38l5.15,1.05c-.09.4-.46.71-1.18.75A41.07,41.07,0,0,1,163.56,47h4.71l1.86-2.57s2.2,1.76,3.47,3c-.06.34-.37.5-.83.5Zm-8.1,0c-.34.74-.68,1.49-1.05,2.14A27,27,0,0,0,165,57.75a30.47,30.47,0,0,0,2.33-9.89Z" fill="#82594c"/><path d="M190.87,59.64c6.29,1.4,3.69,6,1.3,4.06a6.77,6.77,0,0,0-1.3-3.22V68c0,.28-1.43.87-2.61.87h-.62V62.49a20.75,20.75,0,0,1-5,4.28l-.31-.43a21.69,21.69,0,0,0,4.34-8.13h-3.81l-.25-.86h5V53.56c-.87.22-1.73.44-2.67.65a1.4,1.4,0,0,1-.62.72l-1.61-3.26a3.31,3.31,0,0,0,.78-.18,6.35,6.35,0,0,0,2.32-2h-4.18l-.25-.9H185V40l3.22,1.27H193l1.36-1.61s1.61,1.15,2.6,2c-.09.34-.37.49-.8.49h-8.06V43.7h5l1.18-1.3s1.33.9,2.23,1.68c-.09.34-.37.49-.81.49h-7.59v1.52h5l1.18-1.3s1.36.93,2.26,1.7c-.09.35-.37.5-.81.5h-7.59V48.6H194l1.36-1.52s1.55,1.09,2.55,1.93c-.07.34-.35.49-.78.49h-7.5a30.94,30.94,0,0,1-3.75,2.11c1.86-.06,4.3-.16,6.85-.31A9.66,9.66,0,0,0,191.7,50l.28-.19c6.7.84,4.34,5.67,1.8,3.91a5.58,5.58,0,0,0-.59-1.62c-1.42.41-3.38,1-5.52,1.49l4.25.41c-.06.4-.31.68-1,.8v2.58h.49l1.46-2.08s1.7,1.46,2.73,2.45c-.06.34-.37.49-.81.49h-3.87Zm3.28,1.43A21.6,21.6,0,0,0,197.62,54l3.79,1.55a1.12,1.12,0,0,1-1.24.52,15,15,0,0,1-5.65,5.28Zm9.43.74c7.78,3.19,4.8,8.87,2,6.42a9.69,9.69,0,0,0-.55-2.39c-2.11.71-4.93,1.61-8.1,2.48a1.82,1.82,0,0,1-.83.62L195,65.19a4.11,4.11,0,0,0,.9-.31c1.49-1.21,3.41-4.9,3.94-6.82l4.24,2c-.12.28-.46.5-1,.44a33.18,33.18,0,0,1-5.49,4.8c1.86-.09,4.44-.24,7.2-.4A24.11,24.11,0,0,0,203.27,62Zm-6.85-17.05a35.31,35.31,0,0,0,8.15-5.21L208,41.9c-.18.28-.49.35-1.11.16A49.44,49.44,0,0,1,197,45.25Zm13.36,4.74c-.22.31-.56.37-1.21.22a33.29,33.29,0,0,1-11.56,3.5l-.25-.49a25.9,25.9,0,0,0,9.52-5.62Zm-12.15-1.27a36.28,36.28,0,0,0,7.84-4.9l3.13,2.33c-.25.31-.56.34-1.15.15a49,49,0,0,1-9.51,2.92Zm9.2,5.86a3.6,3.6,0,0,1-2.32.71,9.07,9.07,0,0,0,5.77,4.59v.37a4,4,0,0,0-2.33,2.64c-2.39-1.74-3.66-4.31-4.12-7.63h-2.39l-.25-.9h2l.93-1.55Z" fill="#82594c"/><path d="M232.72,46.56a2.29,2.29,0,0,1-1.31.65V65.69a4.76,4.76,0,0,1-2.88,1H228V64.26h-4.71v2.29c0,.41-1.3,1.18-2.79,1.18h-.56V44.29l3.48,1.46h.18c.22-1.71.5-4.12.65-5.86l5,1.21c-.12.53-.55.74-1.27.74-.8,1.09-2,2.7-3,3.91h2.69l1.65-1.86Zm-9.43.09v7.69H228V46.65ZM228,63.39V55.24h-4.71v8.15Zm19.85-16.83a2.11,2.11,0,0,1-1.37.59c-.21,12.49-.65,18.16-2.35,20a5.69,5.69,0,0,1-4.53,1.68,3.44,3.44,0,0,0-.68-2.54,6.42,6.42,0,0,0-3.29-1.37l0-.43c1.49.12,3.63.28,4.44.28a1.48,1.48,0,0,0,1.14-.41c1.15-1,1.46-7.22,1.68-17.79h-5.77a24,24,0,0,1-5.24,6.51l-.4-.25a46.12,46.12,0,0,0,4.18-13l4.9,1.42c-.12.41-.49.62-1.21.62a30.9,30.9,0,0,1-1.73,3.76h4.93l1.95-2ZM234.14,52c9.06,2.67,5.68,9.37,2.39,6.61a13.69,13.69,0,0,0-2.64-6.42Z" fill="#82594c"/><path d="M282.94,47.86c0,.06-.16.18-.4.28.52.43,1.95,1.52,2.88,2.32-.09.34-.43.5-.87.5H265.48c.41.43.84.9,1.18,1.3-.09.34-.37.5-.81.5h-3.31v7.72l4-1.27.09.34a97.44,97.44,0,0,1-8.28,6.07,1.12,1.12,0,0,1-.71.87l-2-4c.78-.18,2-.52,3.51-1V52.76h-2.83l-.24-.87h3.07v-8H256l-.25-.9h6l1.8-2.42s1.86,1.55,3.07,2.7v-3L270,41.66h9.58L281.05,40l3.19,2.39a2.39,2.39,0,0,1-1.3.65Zm-18.05,2.23h15.75L282,48.35a4.94,4.94,0,0,1-1.61.34h-.53v-.52H269.79v.4c0,.28-1.39,1-2.66,1h-.44V43.64a1,1,0,0,1-.74.25h-3.41v8h.34l1.36-2.26.78.8Zm19.32,10.64c-.22.31-.46.34-1.09.21a34.9,34.9,0,0,1-3.68,1.68,15.92,15.92,0,0,0,5.79,2.51l0,.34a3.54,3.54,0,0,0-2.48,3c-3.9-1.87-6.26-4.87-7.59-9.62a16.75,16.75,0,0,1-2.33,2.08v3.78c1.15-.34,2.42-.74,3.66-1.14l.12.37c-1.11.87-3.41,2.66-6,4.4a2,2,0,0,1-.84.78l-1.55-3.13c1.33-.63,1.55-.87,1.55-1.4v-1.8a37.53,37.53,0,0,1-6,2.33l-.22-.41a21.92,21.92,0,0,0,7.78-6.38h-.68v.34c0,.24-1.43.93-2.7.93h-.43v-8l3.32,1.36h7.65l1.55-1.7,3.35,2.51a2.2,2.2,0,0,1-1.27.62V57.9c0,.16-.43.41-1,.62ZM269.79,42.56v4.71h1.83V42.56Zm.81,14.85h8.15V53.75H270.6Zm5.15-10.14V42.56H274v4.71Zm-.19,11a12.22,12.22,0,0,0,2.82,3.5,33.47,33.47,0,0,0,2.42-3.16,5.22,5.22,0,0,1-1.49.28h-.56v-.62Zm2.6-15.72v4.71h1.71V42.56Z" fill="#82594c"/><path d="M303.58,57.5a83.16,83.16,0,0,1-7.69,6.11,1.31,1.31,0,0,1-.74.9l-2.23-4c.71-.19,1.89-.53,3.28-1V48.76h-3l-.25-.9h3.22v-7.6l4.62.4c-.06.44-.28.75-1.14.87v6.33H300l1.45-2.45s1.65,1.7,2.55,2.85a.76.76,0,0,1-.81.5h-3.5v9.7c1.24-.37,2.51-.8,3.81-1.24Zm17.61,7.29c.81.34,1,.71,1,1.3,0,1.21-1,1.8-4.74,1.8h-2.08c-2.57,0-2.94-.62-2.94-2.67v-5.7h-1.15c-.56,3.78-2.29,7.16-11.66,9.33l-.31-.43c6.64-2.48,7.82-5.28,8.13-8.22a5.09,5.09,0,0,1-2.92.9H304V50.74l3.65,1.46h8.16l1.52-1.64L320.6,53a1.9,1.9,0,0,1-1.14.56v6.39a5.32,5.32,0,0,1-2.76.81h-.56V59.52h-.43v5c0,.34.09.46.65.46H319a.59.59,0,0,0,.56-.37,23.07,23.07,0,0,0,1.18-3.28h.34Zm-19-15.51h10.69c.44-1.48.93-3.47,1.24-4.89l4.38,1.55c-.13.34-.53.55-1.18.49-.9.75-2.17,1.89-3.41,2.85h3.38L319,47s2,1.55,3.17,2.67c-.1.34-.41.49-.84.49H302.44Zm.74-5.79h7.88a3.52,3.52,0,0,1-.5-.31A6.05,6.05,0,0,0,309,39.77l.25-.19c5.2.25,5.11,3,3.56,3.91h3.81l1.77-2.39s2,1.64,3.2,2.76a.8.8,0,0,1-.84.5H303.18Zm2.85,1.17c7.48.81,4.16,6.27,1.27,3.94a6.65,6.65,0,0,0-1.55-3.75Zm1.71,8.41v2.32h8.65V53.07Zm8.65,5.55V56.29h-8.65v2.33Z" fill="#82594c"/><path d="M341.14,78.8c-1.09,2.14-4.2,3.92-7.08,4.06-23.52,1.08-44.93,1.5-65.46,1.26-7.07-.08-14.23,0-21.16.16-11.79.2-24,.41-35.93-.38-20.4-1.35-41.14-.89-59.43-.48-16.13.36-32.52.35-48.37.34H93.46c-8.35,0-17.36.12-26.63.95a34.78,34.78,0,0,1-6.92-.56c-1.5-.24-3.36-1-4.08-2.55a7.68,7.68,0,0,1-.17-4.2l0-.26a50.46,50.46,0,0,0-1.44-20.53c-.9-3.36-.58-6.67-.25-10.18a46.23,46.23,0,0,0,.3-7.3l-.12-2.06c-.1-1.76-.2-3.39-.35-5.3a20.27,20.27,0,0,1,.41-7.45c.14-.45.24-.89.35-1.32a6.85,6.85,0,0,0,4,1.15,486.62,486.62,0,0,0,49.61-.25c13.88.05,27.94-.26,41.53-.56,23.86-.54,48.53-1.09,72.83.33,19.78,1.17,40.08,1.47,63.89.95l1,0c10.55-.23,21.45-.47,32.18.16l.71,0c6,.35,13.49.79,19.42-.37a5.68,5.68,0,0,0,1.3-.4,18.7,18.7,0,0,1,.09,3.37,15.86,15.86,0,0,0,.31,4.93c.89,3.34.86,6,.83,9.78,0,1.53,0,3.21,0,5.13.06,2.26-.07,4.5-.2,6.67a67.08,67.08,0,0,0-.15,8.18,46.87,46.87,0,0,0,.72,5.24c.21,1.16.42,2.32.56,3.49C343.57,73.64,342.2,76.72,341.14,78.8Zm45.49-31.46C383.38,42.6,380,37.7,376.31,33a8.31,8.31,0,0,1-1.91-3.36c-.38-2.19,1.48-4.37,3.26-6.24,3.31-3.48,6.51-7.2,9.6-10.8,2.57-3,5.23-6.09,7.93-9a2,2,0,0,0,.34-2.35A2.38,2.38,0,0,0,393.35,0a109.72,109.72,0,0,0-14.69,1.6,234,234,0,0,1-26.5.08l-1.34-.08C338.92,1,333.5.68,321,2.32a32,32,0,0,0-5.94,1.22c-.94.28-2,.59-3.85,1-2.72.63-4.18,1.78-4.34,3.42a4.17,4.17,0,0,0,0,.5c0,1.91-.06,3.72-.12,5.49-.1,2.73-.18,5.35-.05,8.16-6.51,0-13,.07-19.34.21l-1,0c-23.73.51-44,.21-63.68-.95-24.41-1.43-49.13-.88-73-.34-13.58.3-27.62.62-41.54.57-5.64.35-11.72.58-18.06.68-.22-2.64-.21-5.18-.17-7.84,0-2.17.06-4.42-.06-6.75h0c.08-2.71-4.45-3.69-6.24-3.84S74.88,3.47,73,3.46C60.18,3.41,48.88,3,38,2.56S15.68,1.71,2.79,1.65a2.83,2.83,0,0,0-2.14.72c-.41.44-.94,1.42.18,3C6.55,13.43,11.7,19.21,16.12,22.54c2.73,2.05,7.3,6.12,7.22,10.37-.05,2.37-1.71,4.48-3.72,6.79a57.7,57.7,0,0,1-8.41,7.61,60,60,0,0,0-8.73,7.91A9.71,9.71,0,0,0,.19,58.81a4,4,0,0,0,1.52,4.6,6.36,6.36,0,0,0,3.15.78c10.77.65,21.64,1,32.49,1,5.36,0,10.72-.09,16.06-.24a48.37,48.37,0,0,1-.13,12l0,.25a9.43,9.43,0,0,0,.36,5.39,7.63,7.63,0,0,0,5.9,3.85,42.58,42.58,0,0,0,6.31.64c.43,0,.85,0,1.24,0,9.17-.82,18.11-.94,26.4-.94h10.25c15.87,0,32.27,0,48.42-.34,18.25-.41,38.92-.87,59.21.47,12.06.8,24.3.59,36.14.39,6.91-.12,14.06-.24,21.09-.16,20.58.23,42-.18,65.61-1.27,3.75-.17,7.69-2.47,9.16-5.34,1.18-2.33,2.71-5.81,2.3-9.19-.15-1.2-.36-2.4-.57-3.6-.12-.64-.22-1.27-.32-1.89,4.53.14,13.64.06,21.14,0,3.8,0,7.05-.06,8.75,0a114.22,114.22,0,0,0,17.49-1.62l1.09,0A2.63,2.63,0,0,0,395.47,62a2.34,2.34,0,0,0-.21-2.52C392.23,55.5,389.38,51.35,386.63,47.34ZM309.21,14.05q0-1.31.09-2.64a9.78,9.78,0,0,0,1.52.65A86.43,86.43,0,0,0,322,15c2.3.49,4.69,1,7.91,1.85A23.17,23.17,0,0,1,337.45,20c.65.39,1.41.83,2.33,1.35.54.3.63.45.65.42a2.21,2.21,0,0,1-1.17.5c-5.6,1.09-12.91.66-18.77.32l-.7,0c-3.53-.21-7.08-.3-10.62-.35C309,19.39,309.12,16.78,309.21,14.05ZM56.6,19.26A7.9,7.9,0,0,1,59.73,18c3.43-.84,7.47-1.64,11.38-2.41s8-1.58,11.49-2.43a16.25,16.25,0,0,0,4.88-1.88c0,1.07,0,2.12,0,3.16,0,2.55,0,5.19.17,7.9-9.35.11-19.18,0-28.94-.47-1.09,0-2.26-.17-2.66-.76S56,19.72,56.6,19.26ZM5,62a4.29,4.29,0,0,1-1.93-.39,2,2,0,0,1-.56-2.15,8.07,8.07,0,0,1,1.84-2.78A57.13,57.13,0,0,1,12.78,49a60,60,0,0,0,8.73-7.91c1.77-2,4.19-4.82,4.26-8.16.1-5.2-5-9.85-8.12-12.16C13.42,17.61,8.44,12,2.86,4.13L2.71,3.9h.07c12.84.05,24.14.48,35.07.9s22.28.86,35.17.91c1.81,0,8.67.29,10.33.43,2.14.18,4.09,1.11,4.05,1.57C87.24,9.52,84.23,10.46,82,11c-3.43.84-7.47,1.64-11.38,2.41s-8,1.58-11.5,2.43A13,13,0,0,0,55.87,17h0c-2.58,1.13-3.09,3.25-3.58,5.29-.11.47-.23,1-.38,1.45a22.37,22.37,0,0,0-.49,8.21c.15,1.89.25,3.51.35,5.25l.12,2.07a45,45,0,0,1-.3,7c-.33,3.53-.68,7.19.32,10.91.5,1.89.89,3.72,1.19,5.52C37.12,63.14,21,62.9,5,62Zm388.27-1a.2.2,0,0,1-.16.11l-1.27.06a114.21,114.21,0,0,1-17.2,1.61c-1.72,0-5,0-8.8,0-7.29.06-17.05.14-21.39,0,0-.28-.08-.57-.1-.85a65.64,65.64,0,0,1,.15-7.93c.13-2.22.27-4.51.21-6.85-.05-1.89,0-3.55,0-5.06a35.42,35.42,0,0,0-.9-10.34,14.56,14.56,0,0,1-.24-4.31,12.66,12.66,0,0,0-.79-6.14,3.31,3.31,0,0,0-1.73-1.94c-.92-.51-1.66-.95-2.3-1.32a25.46,25.46,0,0,0-8.21-3.4c-3.28-.88-5.71-1.39-8.05-1.88A83.26,83.26,0,0,1,311.64,10c-1.16-.39-2.39-1.06-2.32-1.76s1.61-1.23,2.52-1.45c1.92-.45,3.06-.79,4-1.06a29.17,29.17,0,0,1,5.55-1.13c12.23-1.62,17.58-1.33,29.31-.7l1.34.07a234.5,234.5,0,0,0,26.92-.09,132.21,132.21,0,0,1,14.4-1.7c-2.72,3-5.39,6.06-8,9.07-3.07,3.58-6.25,7.28-9.52,10.72-2.14,2.25-4.38,4.92-3.84,8.07a10.13,10.13,0,0,0,2.35,4.34c3.66,4.64,7,9.5,10.23,14.21,2.77,4,5.63,8.21,8.69,12.24A.18.18,0,0,1,393.29,61Z" fill="url(#a)"/></svg>