<svg xmlns="http://www.w3.org/2000/svg" xmlns:xlink="http://www.w3.org/1999/xlink" viewBox="0 0 652.29 112.47"><defs><linearGradient id="a" x1="80.91" y1="47.41" x2="557.28" y2="47.41" gradientUnits="userSpaceOnUse"><stop offset="0.02" stop-color="#653f25"/><stop offset="0.16" stop-color="#a9803e"/><stop offset="0.51" stop-color="#a9803e"/><stop offset="1" stop-color="#653f25"/></linearGradient><linearGradient id="b" x1="638.5" y1="72.51" x2="503.01" y2="72.51" gradientUnits="userSpaceOnUse"><stop offset="0.02" stop-color="#653f25"/><stop offset="0.16" stop-color="#a9803e"/><stop offset="0.33" stop-color="#e2cd7d"/><stop offset="0.51" stop-color="#a9803e"/><stop offset="1" stop-color="#653f25"/></linearGradient><clipPath id="c" transform="translate(6.89)"><path d="M634,112.47q-65.44-4-131-6.37l2.64-73.55Q572.1,34.94,638.5,39q-13,18.31-25.91,36.68Q623.38,94.06,634,112.47Z" fill="none"/></clipPath><linearGradient id="d" x1="496.13" y1="71.86" x2="645.39" y2="71.86" gradientUnits="userSpaceOnUse"><stop offset="0" stop-color="#dbae64"/><stop offset="0.16" stop-color="#a9803e"/><stop offset="0.33" stop-color="#e2cd7d"/><stop offset="0.53" stop-color="#653f25"/><stop offset="0.68" stop-color="#a9803e"/><stop offset="0.82" stop-color="#e2cd7d"/><stop offset="1" stop-color="#dbae64"/></linearGradient><linearGradient id="e" x1="6215.96" y1="72.51" x2="6080.46" y2="72.51" gradientTransform="matrix(-1, 0, 0, 1, 6215.96, 0)" xlink:href="#b"/><clipPath id="f" transform="translate(6.89)"><path d="M4.52,112.47q65.44-4,131-6.37l-2.64-73.55Q66.4,34.94,0,39,13,57.33,25.91,75.7,15.12,94.06,4.52,112.47Z" fill="none"/></clipPath><linearGradient id="g" x1="6073.58" y1="71.86" x2="6222.85" y2="71.86" gradientTransform="matrix(-1, 0, 0, 1, 6215.96, 0)" xlink:href="#d"/><linearGradient id="h" x1="557.43" y1="47.41" x2="80.76" y2="47.41" xlink:href="#a"/><clipPath id="j" transform="translate(6.89)"><path d="M553.51,91.39q-234.28-10.68-468.83,0Q82.81,50.14,80.91,8.85,319-2,557.28,8.84,555.39,50.11,553.51,91.39Z" fill="url(#a)"/></clipPath><linearGradient id="k" x1="61.09" y1="48.33" x2="577.1" y2="48.33" xlink:href="#a"/></defs><path d="M634,112.47q-65.44-4-131-6.37l2.64-73.55Q572.1,34.94,638.5,39q-13,18.07-25.76,36.19Q623.45,93.83,634,112.47Z" transform="translate(6.89)" fill="url(#b)"/><g clip-path="url(#c)"><path d="M639.89,105.49q-71-4.44-142.08-6.92l2.1-60.38q71.91,2.51,143.76,7Z" transform="translate(6.89)" fill="none" stroke-miterlimit="10" stroke-width="3.25" stroke="url(#d)"/></g><path d="M503,106.1Q528.33,94.4,553.9,83q-24.79-2.16-49.62-4.07Q503.65,92.49,503,106.1Z" transform="translate(6.89)" fill="#281012"/><path d="M4.52,112.47q65.44-4,131-6.37l-2.64-73.55Q66.4,34.94,0,39,13,57.1,25.76,75.21,15.06,93.83,4.52,112.47Z" transform="translate(6.89)" fill="url(#e)"/><g clip-path="url(#f)"><path d="M-1.39,105.49q71-4.44,142.08-6.92l-2.1-60.38q-71.91,2.51-143.76,7Z" transform="translate(6.89)" fill="none" stroke-miterlimit="10" stroke-width="3.25" stroke="url(#g)"/></g><path d="M135.49,106.1Q110.17,94.4,84.6,83q24.8-2.16,49.62-4.07Q134.85,92.49,135.49,106.1Z" transform="translate(6.89)" fill="#281012"/><path d="M553.36,94.8q-234.14-10.68-468.52,0L80.76,5.44Q319-5.43,557.43,5.43,555.41,50.12,553.36,94.8Z" transform="translate(6.89)" fill="url(#h)"/><path d="M553.51,91.39q-234.28-10.68-468.83,0Q82.81,50.14,80.91,8.85,319-2,557.28,8.84,555.39,50.11,553.51,91.39Z" transform="translate(6.89)" fill="url(#a)"/><g clip-path="url(#j)"><path d="M573.35,89.39q-254.1-12.57-508.51,0L61.09,13.65q257.85-12.77,516,0Z" transform="translate(6.89)" fill="url(#k)"/></g><path d="M161.11,21.31a1,1,0,0,1-.87.52V38.57a3.42,3.42,0,0,1-2.33.82h-.54V24.8a20.21,20.21,0,0,1-2.72,3.11l-.35-.22a48,48,0,0,0,4.5-14.12l4.24.88a1,1,0,0,1-1,.66,39,39,0,0,1-2.28,5.67Zm19.37,3.58c-.19.24-.49.27-1,.3-.52.38-1.3.91-2,1.32,2.33,1.57.95,4.1-.84,3a8.19,8.19,0,0,0-2.66-3.82l.27-.22a8.69,8.69,0,0,1,2.26.55c.1-.42.24-.86.32-1.27H164a3.17,3.17,0,0,1-.93,2.86,1.47,1.47,0,0,1-2.14-.55,1.52,1.52,0,0,1,.92-1.87,3.07,3.07,0,0,0,1.22-2.56h.41a10.86,10.86,0,0,1,.41,1.32h.81V16.54L168,17.81h.95a15.29,15.29,0,0,0,.11-1.68h-6.1l-.22-.8h12.48l1.68-1.92s1.87,1.32,3.07,2.28c-.08.3-.38.44-.76.44H172A18.76,18.76,0,0,1,170,17.81h3.48l1.41-1.49,2.82,2.15a1.93,1.93,0,0,1-1,.5v5h.05l1.38-1.4ZM178,32.43c-.22.25-.49.33-1.14.38a11.93,11.93,0,0,1-3,3,48.5,48.5,0,0,0,6.27.41l0,.33a2.91,2.91,0,0,0-1.84,2.7,25.14,25.14,0,0,1-7.65-1.68,32.81,32.81,0,0,1-8.74,1.9l-.13-.39a25.46,25.46,0,0,0,7-2.48,10.88,10.88,0,0,1-2.47-2.17,16.56,16.56,0,0,1-4.2,2.39l-.25-.27a17.62,17.62,0,0,0,3.28-3.69A18,18,0,0,1,164.07,31l.27-.42a8.78,8.78,0,0,0,1.22,1.6,13.6,13.6,0,0,0,1.22-2.4l4.07.78c-.08.33-.35.49-1.17.55-.11.13-.21.3-.35.44h4.21l1.7-1.6Zm-12.48-7c.59,2.25-.06,3.91-.92,4.57-.6.44-1.69.44-2-.31a1.35,1.35,0,0,1,.76-1.67A3.81,3.81,0,0,0,165,25.38Zm3.88.05a.8.8,0,0,1-.76.66v1.71c0,.28.05.36.73.36h3.61a.76.76,0,0,0,.57-.19,6.9,6.9,0,0,0,.76-1.57h.32l.08,1.59c.68.25.85.44.85.8,0,1-.93,1.16-4.48,1.16h-2.28c-2.17,0-2.5-.47-2.5-1.93V25.16Zm-.71,6.86a15.26,15.26,0,0,1-1.36,1.29,13,13,0,0,0,3.53,1.57,11.73,11.73,0,0,0,2.61-2.86Zm-1-13.74v1.27h6V18.58Zm6,2.07h-6v1.26h6Zm-6,3.27h6V22.71h-6Zm2.09.91c5,.66,3.12,4.29,1.25,2.92A6.39,6.39,0,0,0,169.47,25Z" transform="translate(6.89)" fill="#fff"/><path d="M209.86,16.38s1.63,1.27,2.66,2.2c-.06.3-.35.44-.73.44h-3.31v3.42a3,3,0,0,1-1.61.57l2.39,1.82a1.81,1.81,0,0,1-1,.52v8.89a5.15,5.15,0,0,1-2.66.8h-.55V33.89h-9.76v.74c0,.3-1.36,1-2.66,1h-.46V22.77l3.33,1.34h9.28l1-1h-.27V19h-2c-.27,1.63-1.36,3.55-5,4.65l-.19-.35a5.73,5.73,0,0,0,2.52-4.66c-.1.25-.35.36-.7.36h-2.74v3.5a3.29,3.29,0,0,1-2.33.63h-.52V19h-2.06c-.19,1.82-1.09,4.13-4.78,5.45l-.21-.36c2.09-1.81,2.28-4.12,2.28-6v-3.3l3.06.91a40.54,40.54,0,0,0,4.64-2.15l2.47,2.56c-.33.25-.84.22-1.55-.08a57.08,57.08,0,0,1-5.86.55v1.62h4.37l1.41-1.73s1.55,1.18,2.52,2.06a5.54,5.54,0,0,0,0-.71V14.78l2.85.8a44.25,44.25,0,0,0,4.88-2l2.5,2.59a1.45,1.45,0,0,1-1.55-.08c-1.52.22-3.77.41-5.88.52v1.62h4.72ZM188,39.06a26.63,26.63,0,0,0,9-4.68l3.33,2.48c-.27.27-.78.36-1.6.14a34.41,34.41,0,0,1-10.63,2.45Zm7.3-14.17v2.17h9.76V24.89Zm0,2.94v2.23h9.76V27.83Zm9.76,5.31V30.86h-9.76v2.28Zm-3.88,2c15.2.14,9.53,5.89,6.65,3.72a18.66,18.66,0,0,0-6.73-3.36Z" transform="translate(6.89)" fill="#fff"/><path d="M238.67,26.67c4.77.64,5.37,2.43,4.64,3.42.59.49,1.41,1.21,2,1.79-.08.3-.35.44-.73.44h-5.89v3.47c0,2.14-.46,3.33-4,3.66a3.38,3.38,0,0,0-.65-2.12,3.9,3.9,0,0,0-2.47-1V35.9s3,.19,3.58.19.57-.14.57-.47v-3.3H220.17l-.22-.8h15.81V29.43l3.88.33c0,.41-.32.6-.92.71v1.05H241l.62-.85a1.6,1.6,0,0,1-.92-.53,6.74,6.74,0,0,0-1.47-1.65c-3.63.58-8.57,1.18-15.62,2a1.27,1.27,0,0,1-.79.57l-1.52-3.24c2,0,5.45,0,9.66,0V25.9h-4.18v.22c0,.25-1.3.86-2.52.86h-.41V17.89L227,19.13h4v-2H220.71l-.25-.77H231V13.6l4,.36c-.05.38-.29.66-1,.77v1.65h6.11l1.6-2.15s1.81,1.46,2.9,2.48c-.08.3-.38.44-.76.44H234v2h4.15l1.39-1.51,2.93,2.2a2.15,2.15,0,0,1-1.09.58v5.45a4,4,0,0,1-2.47.82Zm-14.11,6.17c8-.06,6.19,6,3.09,4.4A9.49,9.49,0,0,0,224.34,33Zm2.25-12.94v2.23H231V19.9ZM231,25.13V22.9h-4.18v2.23Zm3-5.23v2.23h4.42V19.9Zm4.42,3H234v2.23h4.42Zm-.11,4.9a9.32,9.32,0,0,0-1.95-1l.11-.36a18.17,18.17,0,0,1,1.95.17V25.9H234v1.93Z" transform="translate(6.89)" fill="#fff"/><path d="M252.31,38.21a24.8,24.8,0,0,0,7.54-6.55l3.42,2.39c-.22.28-.51.36-1.17.22a20.35,20.35,0,0,1-9.68,4.27Zm22.36-21.06s1.84,1.29,2.95,2.28c-.08.31-.35.44-.76.44h-8.32l3.55,1c-.08.33-.41.53-1,.5a22.65,22.65,0,0,1-3,2.37h3.5l1.65-2s1.85,1.33,3,2.32a.68.68,0,0,1-.73.44h-8.95V27h3.47l1.55-1.89s1.79,1.26,2.9,2.22c-.08.31-.35.45-.76.45h-7.16v2.67h6l1.71-2.07s1.9,1.38,3,2.42c-.06.31-.36.44-.71.44h-10V38.7a3.59,3.59,0,0,1-2.63.77h-.57V31.24H253.15l-.21-.79h10.47V27.78h-7.63l-.21-.78h7.84V24.53h-9l-.22-.77h7a2.13,2.13,0,0,1-.84-.44,5.74,5.74,0,0,0-1.25-3.2l.25-.16c4.75.63,4.18,3.41,2.6,3.8h5a29.11,29.11,0,0,0,1.3-3.89H252.94l-.22-.79h5.53a2.17,2.17,0,0,1-.87-.44,6.92,6.92,0,0,0-1.81-4.08l.24-.16c5.32.91,4.78,4.32,3.07,4.68h2.49V13.63L265,14c0,.33-.25.57-.84.69v4.43H266V13.63l3.69.33c-.06.33-.25.57-.87.69v4.43h.79a34.18,34.18,0,0,0,1.79-4.88l3.82,1.22c-.13.33-.46.55-1.05.46a25.12,25.12,0,0,1-3.91,3.2H273Zm-7.25,15.58c14.52,1.9,9,7.71,6.41,5.26a18.65,18.65,0,0,0-6.57-4.9Z" transform="translate(6.89)" fill="#fff"/><path d="M297.24,19.63a2,2,0,0,1-1.14.58v16.4a4.18,4.18,0,0,1-2.53.91h-.46V35.35H289v2c0,.36-1.14,1-2.44,1h-.49V17.62l3,1.29h.16c.19-1.51.43-3.66.57-5.2l4.39,1.07c-.1.47-.48.66-1.11.66-.7,1-1.76,2.4-2.63,3.47h2.36l1.44-1.65Zm-8.25.08v6.83h4.12V19.71Zm4.12,14.86V27.33H289v7.24Zm17.36-14.94a1.79,1.79,0,0,1-1.19.52c-.19,11.09-.57,16.13-2.06,17.76a5,5,0,0,1-4,1.48,3.1,3.1,0,0,0-.6-2.26,5.63,5.63,0,0,0-2.87-1.21l0-.38c1.3.11,3.18.25,3.88.25a1.3,1.3,0,0,0,1-.36c1-.94,1.27-6.42,1.46-15.8h-5.05a20.9,20.9,0,0,1-4.58,5.78l-.35-.22a41.67,41.67,0,0,0,3.66-11.51L304.13,15c-.11.36-.44.55-1.06.55a29,29,0,0,1-1.52,3.33h4.31L307.57,17Zm-12,4.81c7.93,2.37,5,8.32,2.09,5.87a12.2,12.2,0,0,0-2.3-5.7Z" transform="translate(6.89)" fill="#fff"/><path d="M339.26,28.3s2,1.54,3.22,2.61c-.05.31-.35.44-.73.44H331.14c-.89,3.83-3.36,6.5-13.21,8.12l-.16-.44c6.84-2.09,9-4.48,9.82-7.68h-8.71l-.22-.79h9.09a25.84,25.84,0,0,0,.27-3.23l4.51.33c-.06.39-.33.69-.95.78-.08.74-.16,1.43-.27,2.12h6.16Zm-10.94-2V23h-7.46l-.21-.8h7.67V19.08H319.4l-.25-.8H326a2.68,2.68,0,0,1-.9-.44,7.44,7.44,0,0,0-1.82-3.91l.22-.17c5.73.5,5.24,4,3.37,4.52h5a39.56,39.56,0,0,0,1.5-4.63l4.26,1c-.11.36-.41.58-1,.55a30.28,30.28,0,0,1-3.85,3.11H337l1.74-2.2s2,1.48,3.15,2.56c-.08.3-.35.44-.76.44h-9.36v3.11h3.72l1.62-2s1.88,1.38,3,2.4c-.08.3-.38.44-.76.44h-7.59v3.27h5.8L339.34,24s2,1.54,3.14,2.64c-.05.3-.35.44-.7.44h-23.6l-.22-.8Zm3.77,6c12.05,1,11.45,8.12,7.76,6.91a28.78,28.78,0,0,0-8-6.63Z" transform="translate(6.89)" fill="#fff"/><path d="M365.41,23c-.11.35-.44.52-1.28.6,2.47,2.64,7.52,4.41,11.53,5.12v.44a3.61,3.61,0,0,0-2.3,3,21,21,0,0,1-4.54-2.4l2,1.57a1.45,1.45,0,0,1-.92.47v6.72a5,5,0,0,1-2.6.79h-.55v-1.9h-8.08v1.13c0,.28-1.39,1-2.63,1h-.46V30.36a33.26,33.26,0,0,1-5.51,2.32l-.14-.36c4.75-2.4,9.71-7.1,10.83-10.46Zm-11.07-4.82c.19,2-.52,3.36-1.44,3.94a1.71,1.71,0,0,1-2.55-.67,1.76,1.76,0,0,1,1.08-2.12,4,4,0,0,0,2-3.49h.38a10.57,10.57,0,0,1,.46,1.54h8.08a1.84,1.84,0,0,1-.48-.25A5.37,5.37,0,0,0,360,13.85l.19-.17c5.46-.3,5.29,3,3.58,3.69h7.22l1.6-1.65,2.8,2.72c-.19.25-.49.31-1,.33a18.39,18.39,0,0,1-3.5,2.65l-.25-.17a28.69,28.69,0,0,0,.57-3.08Zm-2.5,7.93a21.42,21.42,0,0,0,5.81-7l3.61,1.62c-.14.28-.36.44-.95.39a21.56,21.56,0,0,1-8.22,5.37ZM367.9,29a15,15,0,0,1-4.23-5.12,21.89,21.89,0,0,1-6.89,5.78l2.09.86h7.65Zm-1.14,7.54V31.33h-8.08v5.25Zm-2-16.79c9.66.36,8.71,6.94,5.37,5.65a17.82,17.82,0,0,0-5.59-5.4Z" transform="translate(6.89)" fill="#fff"/><path d="M399.18,24.89A32.32,32.32,0,0,1,391.85,29l1.58.14c0,.36-.3.61-.87.69v.85H401l1.65-2.14s1.85,1.48,3,2.5c-.08.3-.38.44-.76.44H392.56v3.36c0,.5.19.61,1.68.61h4.94c1.74,0,3.34,0,4-.06a1.32,1.32,0,0,0,1.05-.41,11.15,11.15,0,0,0,1.39-2.81h.3L406,35c1.11.33,1.43.66,1.43,1.27,0,1.51-1.41,1.95-8.51,1.95h-4.86c-3.64,0-4.67-.38-4.67-2.78V29.9a46.34,46.34,0,0,1-6.62,1.56l-.13-.41a37.63,37.63,0,0,0,12.53-6.16H383l-.22-.8h8.65V19.27H385.7l-.22-.77h5.91V13.65l4.07.33c0,.39-.24.61-.86.72v3.8h2l1.63-2.2s1.79,1.46,2.93,2.47a27.77,27.77,0,0,0,2.39-4l3.77,2.14c-.19.28-.49.42-1.14.25a26.83,26.83,0,0,1-6,7h3l1.68-2.21s1.93,1.52,3.1,2.56c-.08.31-.36.45-.76.45Zm-3-.8a30.06,30.06,0,0,0,4.66-4.88,1.44,1.44,0,0,1-.38.06H394.6v4.82Z" transform="translate(6.89)" fill="#fff"/><path d="M423,27.2l2.76,2.14a1.82,1.82,0,0,1-1.05.53v7.18a4.14,4.14,0,0,1-2.28.74h-.49V36h-3v1.81c0,.22-.86.91-2.27.91h-.49V17l2.76,1.1c.11-1.27.22-3.14.25-4.46l4.12.72c-.08.43-.43.66-1,.71-.57.91-1.46,2.2-2.11,3.17h1.38l1.33-1.46,2.77,2.14a1.89,1.89,0,0,1-1,.53v6.08a4.23,4.23,0,0,1-2.3.72h-.49V24.86H419v3.8h2.72ZM419,19v5.09h2.88V19Zm3,16.27V29.43h-3v5.81ZM434.28,17V21h2l1.3-1.49,2.85,2.17a1.65,1.65,0,0,1-1,.53V32.24c0,2-.36,3.16-3.18,3.44a6.43,6.43,0,0,0-.27-2.12,1.54,1.54,0,0,0-1.25-.88v-.42s1.06.08,1.41.08.41-.13.41-.44V21.75h-2.28V38.54c0,.19-.95.85-2.47.85h-.54V21.75h-2.14V35c0,.2-.87.89-2.36.89h-.49V19.74l3.2,1.24h1.79V17H425.9l-.22-.77H436L437.67,14s1.85,1.54,3,2.59c-.08.3-.35.44-.73.44Z" transform="translate(6.89)" fill="#fff"/><path d="M470.69,29.37s1.76,1.49,2.82,2.53c-.08.31-.38.44-.76.44h-4.64v6.28c0,.19-.95.83-2.55.83H465V32.34h-4.26l-.22-.79H465V26.21H461.3l-.22-.8H465V20.54h-2.52a.68.68,0,0,1-.65.33h-2.36V26.1a5.16,5.16,0,0,1-2.47.71h-.49V25.32h-3.15a22.19,22.19,0,0,1-1,3l1.36.52h2.82l1.41-1.57,2.95,2.29a2,2,0,0,1-1,.52v7.87a4.52,4.52,0,0,1-2.55.8h-.51V36.91h-3.45v1.46c0,.22-.87.88-2.3.88h-.52V31.6a17,17,0,0,1-2.6,2.89l-.38-.38a22.45,22.45,0,0,0,3.25-8.79h-2.38l-.25-.77h2.74c.16-1.23.27-2.47.33-3.68h-3.37l-.21-.8h3.6c.06-1.21.06-2.4.08-3.55h-2.57l-.25-.77h7.71l1.38-1.57,3,2.28a2,2,0,0,1-1.11.58v2.59l.92-1.46s.81.8,1.55,1.6h4.77A57.34,57.34,0,0,0,468,13.6l4,1.24c-.11.3-.44.55-1,.49a37.59,37.59,0,0,1-3.69,4.44H469l1.54-2.1s1.74,1.43,2.8,2.43c-.08.3-.36.44-.74.44h-4.5v4.87h.76l1.52-2.07s1.66,1.44,2.66,2.43c-.06.3-.35.44-.73.44h-4.21v5.34h1Zm-17.34.22v6.53h3.45V29.59Zm3.15-8.72h-2.39c-.13,1.24-.32,2.47-.57,3.68h3Zm-2.14-4.35c0,1.15-.09,2.36-.19,3.55h2.33V16.52Zm7.86-2.76c6.22,2.45,3,7.16.74,4.79a9.72,9.72,0,0,0-1-4.65Z" transform="translate(6.89)" fill="#fff"/><path d="M178.17,60.8c-.11.28-.35.44-.84.55v15.5a3.81,3.81,0,0,1-2.63.94h-.57V63.5A28.25,28.25,0,0,1,171,66.78l-.33-.22a53.09,53.09,0,0,0,5.51-14.62l4.39,1.4c-.11.33-.4.58-1,.55a39.39,39.39,0,0,1-3.06,6.28Zm-.76,16.77A21.28,21.28,0,0,0,183,69.06l4,2c-.14.28-.38.44-1,.36a20.06,20.06,0,0,1-8.27,6.47ZM194,65s1.81,1.57,2.9,2.64c-.08.3-.38.44-.76.44H178.09l-.22-.8h3.69v-7.4H178.8l-.22-.8h3V52.38l4.13.38c-.08.42-.27.69-1,.8v5.51h3.78V52.41l4.17.35c-.08.42-.27.69-1,.8v5.51h.43l1.55-2.2s1.76,1.51,2.77,2.56c-.06.3-.33.44-.71.44h-4v7.4h.81Zm-9.34,2.28h3.78v-7.4h-3.78Zm3.53,2.34c10.47,2.7,8.36,9.94,4.86,7.71A22.29,22.29,0,0,0,188,69.8Z" transform="translate(6.89)" fill="#fff"/><path d="M207,61.32a20.12,20.12,0,0,1-3.21,2.84l-.27-.22a42.73,42.73,0,0,0,5.08-12L213,53.51c-.11.33-.46.58-1.12.52a31.8,31.8,0,0,1-2,3.66l1.2.44c-.08.25-.38.44-.84.53v8.86a4,4,0,0,1-2.61.85l-.59,0Zm.81,7.38c1.33,3.42.33,5.84-1,6.66a1.66,1.66,0,0,1-2.5-.57,1.78,1.78,0,0,1,1-2.1,4.61,4.61,0,0,0,2.09-4Zm15,5.43c1,.3,1.19.66,1.19,1.23,0,1.38-1.33,1.77-6.67,1.77h-3.5c-3.09,0-3.8-.53-3.8-2.65V68.1l4,.33c0,.38-.29.6-.84.71v4.79c0,.39.14.5,1.14.5h3.29c1.16,0,2.22,0,2.65,0a.93.93,0,0,0,.82-.38,18.87,18.87,0,0,0,1.33-3.11h.27ZM211.24,61.35a30.35,30.35,0,0,0,3.34-9.44l4.23,1.32c-.11.36-.43.58-1.08.58-.28.58-.52,1.13-.79,1.65h7.62l1.66-1.7,2.9,2.78a1.59,1.59,0,0,1-1.06.35,19.75,19.75,0,0,1-4,2.67l-.22-.16a28,28,0,0,0,.84-3.17h-8.24a16.93,16.93,0,0,1-4.91,5.37Zm7.38-.57c-.11.33-.46.54-1.06.49a12.92,12.92,0,0,1-5.75,5.53l-.3-.24a18.39,18.39,0,0,0,3.31-7.16Zm-3.31,6.27c6.86,2.09,3.93,7,1.49,4.76A9.46,9.46,0,0,0,215,67.22Zm6.46.5a4,4,0,0,1-2.42.63h-.57V57.64l4,.38c-.05.39-.27.64-1,.75Zm1.49.74c7.92,2.5,5,8.73,2.12,6.19a10.91,10.91,0,0,0-2.39-6Zm0-8.23c8.06,2.45,5.4,8.39,2.52,6.11a14.25,14.25,0,0,0-2.76-6Z" transform="translate(6.89)" fill="#fff"/><path d="M258.06,64.19c-.21.3-.48.38-1.19.47a20.49,20.49,0,0,1-4.8,7.07,31.13,31.13,0,0,0,9.58,2.81l0,.33a3.67,3.67,0,0,0-2.82,2.92,21.94,21.94,0,0,1-8.85-4.3,26.93,26.93,0,0,1-10.77,4.35l-.16-.36A25,25,0,0,0,248.35,72a19,19,0,0,1-4-8h-1.68c0,4.51-.65,10.15-6.4,13.76l-.25-.22c3.12-4.08,3.45-9.22,3.45-14V55.82l3.69,1.32h4.31V52.08l4.29.38c-.06.39-.3.66-1,.8v3.88H256l1.7-1.76,3,2.86c-.22.25-.49.3-1.06.33a24.92,24.92,0,0,1-4.1,3.22l0,0Zm-15.35-6.25V63.2h4.8V57.94Zm2.2,6.06a13.78,13.78,0,0,0,4.91,6.35A19.66,19.66,0,0,0,253.37,64Zm5.88-6.06V63.2h2.47l1.85-1.76.19.16c.27-1,.62-2.5.84-3.66Z" transform="translate(6.89)" fill="#fff"/><path d="M294.14,57.17c-.21.25-.51.27-1,.3a19.71,19.71,0,0,1-3.66,2.07l-.27-.17c.29-.63.67-1.62,1-2.42h-3.72c.49.33,1.52,1,2.22,1.59,0,.31-.32.5-.67.53l-6.41.47v.13c0,.33.06.42,1,.42h3c1,0,2.12,0,2.55,0A8.42,8.42,0,0,0,289,60a7.27,7.27,0,0,0,.81-.17h.27l.11,0c.87.33,1.17.52,1.17,1,0,.63-.33.94-1.38,1.1l2.17,1.63a1.86,1.86,0,0,1-.9.46v3.77a4,4,0,0,1-1.84.69l1.92,1.43a2,2,0,0,1-1.14.58V75c0,1.59-.46,2.53-3.71,2.78-.06-.69-.14-1.24-.52-1.54a3.47,3.47,0,0,0-2.06-.77v-.36s2.33.14,2.85.14.51-.14.51-.5V73.6c-1.9.53-4.28,1.21-7.24,2a1,1,0,0,1-.73.61l-.79-2.7c1.57,0,5-.3,8.76-.63V70h-8.54v1C287,69.64,286.93,73,285.06,73a30.42,30.42,0,0,0-6.35-1.3c-.06,2-.74,4.63-5,6.11l-.22-.27c2.14-1.82,2.36-4.08,2.36-6.06V69l-.54,0h-.38v-7.4l3.15,1.24H288l.78-.86c-.87.06-2,.06-3.5.06H282c-2.79,0-3.31-.47-3.31-2.12v-.19l-4.17.33-.28-.8,4.45-.33V57.09l3.67.27c-.06.36-.3.61-.82.66v.75l3.37-.25L286,57H273.82v6.19c0,4.6-.27,10.65-5,14.59l-.29-.19c2.22-4.21,2.36-9.58,2.36-14.37V54.91l3.41,1.27h4.92V51.91l4.07.33c-.06.39-.3.66-1,.75v1.07h5.16l1.57-2s1.76,1.35,2.85,2.34a.62.62,0,0,1-.19.3ZM287,69.2l1.11-1.3h-10.2v.22c0,.09-.19.25-.51.42l1.79.66Zm-9.09-5.54V65h3.67V63.66Zm3.67,3.45V65.76h-3.67v1.35Zm8.54-10.93,1.36-1.38a1.28,1.28,0,0,1-.35.06h-8.85v1.32Zm-5.64,7.48V65h3.77V63.66Zm0,3.45h3.77V65.76h-3.77Z" transform="translate(6.89)" fill="#fff"/><path d="M313.51,58a1.94,1.94,0,0,1-1.14.58V75a4.12,4.12,0,0,1-2.52.91h-.46V73.71h-4.13v2c0,.36-1.14,1-2.44,1h-.49V56l3,1.29h.17c.19-1.52.43-3.66.56-5.2l4.4,1.07c-.11.47-.49.66-1.11.66-.71,1-1.77,2.4-2.63,3.47h2.36l1.43-1.65Zm-8.25.09V64.9h4.13V58.08Zm4.13,14.86V65.7h-4.13v7.24ZM326.75,58a1.79,1.79,0,0,1-1.19.53c-.19,11.09-.57,16.13-2.06,17.75a4.93,4.93,0,0,1-4,1.49,3.08,3.08,0,0,0-.59-2.26,5.63,5.63,0,0,0-2.88-1.21l0-.38c1.3.11,3.17.24,3.88.24a1.27,1.27,0,0,0,1-.36c1-.93,1.28-6.41,1.47-15.8h-5.05a21.14,21.14,0,0,1-4.58,5.79l-.36-.22a41.33,41.33,0,0,0,3.67-11.51l4.28,1.27c-.11.35-.43.55-1.06.55a29,29,0,0,1-1.51,3.33h4.31l1.71-1.79Zm-12,4.82c7.92,2.37,5,8.31,2.09,5.86A12.22,12.22,0,0,0,314.54,63Z" transform="translate(6.89)" fill="#fff"/><path d="M352.6,65c4.78.63,5.37,2.42,4.64,3.41.6.5,1.41,1.22,2,1.79-.08.31-.36.44-.74.44h-5.88v3.47c0,2.15-.46,3.33-4,3.66a3.47,3.47,0,0,0-.65-2.12,4,4,0,0,0-2.47-1v-.39s3,.2,3.58.2.57-.14.57-.47V70.68H334.1l-.22-.79H349.7v-2.1l3.88.33c-.05.42-.33.61-.92.72v1H355l.63-.86a1.6,1.6,0,0,1-.93-.52,6.48,6.48,0,0,0-1.46-1.65c-3.64.58-8.57,1.18-15.63,2a1.25,1.25,0,0,1-.78.58l-1.52-3.25c2,.06,5.45.06,9.65.06V64.27h-4.17v.22c0,.25-1.31.85-2.53.85h-.4V56.26l3.12,1.24h4v-2H334.64l-.24-.77h10.52V52l4,.35c-.05.39-.3.67-1,.77v1.66H354l1.6-2.15s1.82,1.46,2.9,2.48c-.08.3-.38.44-.76.44h-9.84v2h4.15L353.47,56l2.93,2.2a2.11,2.11,0,0,1-1.08.58v5.45a4.09,4.09,0,0,1-2.47.82Zm-14.1,6.17c8-.06,6.18,6,3.09,4.4a9.51,9.51,0,0,0-3.31-4.21Zm2.25-12.94V60.5h4.17V58.27Zm4.17,5.23V61.27h-4.17V63.5Zm3-5.23V60.5h4.42V58.27Zm4.42,3h-4.42V63.5h4.42Zm-.11,4.9a8.86,8.86,0,0,0-1.95-1l.11-.36c.7,0,1.35.08,1.95.16v-.74h-4.42V66.2Z" transform="translate(6.89)" fill="#fff"/><path d="M366.25,76.57A24.91,24.91,0,0,0,373.79,70l3.42,2.4c-.22.27-.52.36-1.17.22a20.34,20.34,0,0,1-9.69,4.27Zm22.35-21s1.85,1.29,3,2.28c-.08.3-.35.44-.76.44h-8.33l3.55,1c-.08.33-.4.52-1,.5a22.82,22.82,0,0,1-3,2.36h3.5l1.66-2s1.84,1.32,3,2.31a.67.67,0,0,1-.73.44h-9v2.48H384l1.54-1.9s1.79,1.27,2.91,2.23c-.09.3-.36.44-.76.44h-7.17v2.67h6l1.71-2.06s1.9,1.37,3,2.42c-.05.3-.35.44-.71.44h-10v7.46a3.54,3.54,0,0,1-2.63.77h-.57V69.61H367.09l-.22-.8h10.47V66.14h-7.62l-.22-.77h7.84V62.89h-9l-.21-.77h7a2,2,0,0,1-.84-.44A5.81,5.81,0,0,0,373,58.49l.24-.17c4.75.64,4.18,3.42,2.61,3.8h5a26.39,26.39,0,0,0,1.3-3.88H366.87l-.22-.8h5.54a1.94,1.94,0,0,1-.87-.44,7,7,0,0,0-1.82-4.07l.25-.17c5.31.91,4.77,4.33,3.06,4.68h2.5V52l3.63.33c0,.33-.24.58-.84.69v4.43H380V52l3.69.33c-.05.33-.24.58-.87.69v4.43h.79a32.9,32.9,0,0,0,1.79-4.87l3.83,1.21c-.14.33-.46.55-1.06.47a24.1,24.1,0,0,1-3.91,3.19H387ZM381.36,71.1c14.51,1.9,9,7.7,6.4,5.26a18.66,18.66,0,0,0-6.57-4.91Z" transform="translate(6.89)" fill="#fff"/><path d="M406,54.39l2.88,2.31a2,2,0,0,1-1.09.58V72.06a4.05,4.05,0,0,1-2.47.85h-.48V70h-2.12v3.09c0,.35-1.19,1-2.47,1h-.49V54.66L402.87,56h1.73Zm-1.16,14.84V56.78h-2.12V69.23Zm16.87-16.88s1.93,1.68,3.07,2.78c-.09.3-.38.44-.79.44h-1.68v18c0,2.2-.55,3.8-4.29,4.07a3.45,3.45,0,0,0-.73-2.34,4.71,4.71,0,0,0-2.77-1.13v-.38s3.34.22,4.07.22c.46,0,.6-.2.6-.55V55.57H408l-.22-.77H420.1Zm-7.22,18.42V68.48H412v2.4c0,.27-1.06.85-2.14.85h-.41V58.41l2.66,1.15h2.14l1.22-1.35,2.55,2a1.44,1.44,0,0,1-.92.46V70a3.7,3.7,0,0,1-2.14.77Zm0-3.06V60.33H412v7.38Z" transform="translate(6.89)" fill="#fff"/><path d="M439.35,55.74s1.44,1.15,2.34,2c-.08.3-.36.44-.73.44h-9.31l-.22-.77h6.65Zm-1.92,5.17,1.19-1.57s1.33,1.1,2.17,1.9c-.08.31-.32.44-.7.44H432.6l-.22-.77Zm1.19,2s1.33,1.11,2.17,1.9c-.08.31-.32.44-.7.44H432.6l-.22-.77h5.05Zm1.63,12.64a3.74,3.74,0,0,1-2.31.85h-.46V75h-2.11v1.7c0,.25-1.17.88-2.34.88h-.4V66.78L435.45,68h1.79l1.27-1.38,2.69,2a1.88,1.88,0,0,1-.95.49Zm-6.62-23c7,.33,4.48,5.67,1.71,3.8a8.2,8.2,0,0,0-1.95-3.66Zm3.85,21.7V68.73h-2.11v5.51Zm18.72-3.86c-.21.25-.49.33-1.14.39A13,13,0,0,1,451.83,74a36.14,36.14,0,0,0,5.27.69V75A3.08,3.08,0,0,0,455,77.73a24,24,0,0,1-6.11-2.09A28.26,28.26,0,0,1,440,77.81l-.14-.41a25,25,0,0,0,7.38-2.81,11.81,11.81,0,0,1-3.69-4.29h-2.22l-.25-.8h10.86l1.52-1.4H445v.16a2.64,2.64,0,0,1-2.25.85h-.49V62.4c-.57.41-1.14.8-1.71,1.13l-.33-.28a25.13,25.13,0,0,0,3.39-6.71l1,.44v-1.6h-3.44l-.25-.8h3.69V52l3.53.33c-.06.28-.25.52-.82.61v3.27l.06,0a6,6,0,0,1,2.2.38V52l3.55.33c-.05.28-.22.52-.81.61v1.62h1.3L454.76,53s1.31,1.12,2.09,1.95a.65.65,0,0,1-.7.44H452.3v1.16c0,.19-1,.52-1.93.6,1,1.16-.68,2.86-2.23,1.68a3.89,3.89,0,0,0-.84-2.26,3.83,3.83,0,0,1-2.19.58H445l2.06.91a1,1,0,0,1-1.08.44c-.19.28-.41.55-.6.83h7.38L454,57.77s1.38,1.11,2.25,1.9c-.05.31-.32.44-.7.44h-4.94V62h1.76l1.14-1.41s1.25,1,2.09,1.77a.65.65,0,0,1-.7.44h-4.29V64.6h1.76l1.14-1.38s1.28,1,2.09,1.74a.62.62,0,0,1-.68.44h-4.31v1.9h2.55l1.33-1.65s1.55,1.13,2.5,2c-.06.3-.36.44-.74.44h-2.47Zm-12-.08a11.3,11.3,0,0,0,4.91,3,11.92,11.92,0,0,0,2.66-3Zm3.69-10.19H445V62h2.9Zm0,2.65H445V64.6h2.9ZM445,67.3h2.9V65.4H445Z" transform="translate(6.89)" fill="#fff"/></svg>