<svg xmlns="http://www.w3.org/2000/svg" xmlns:xlink="http://www.w3.org/1999/xlink" viewBox="0 0 360.48 92.77"><defs><linearGradient id="a" x1="171.71" y1="56.48" x2="435.68" y2="56.48" gradientTransform="translate(-131.07 7.79) rotate(-4.9)" gradientUnits="userSpaceOnUse"><stop offset="0.02" stop-color="#750606"/><stop offset="0.16" stop-color="#ac2409"/><stop offset="0.51" stop-color="#ac2409"/><stop offset="1" stop-color="#750606"/></linearGradient><linearGradient id="b" x1="480.78" y1="70.03" x2="404.96" y2="70.03" gradientTransform="translate(-131.07 7.79) rotate(-4.9)" gradientUnits="userSpaceOnUse"><stop offset="0.02" stop-color="#750606"/><stop offset="0.16" stop-color="#ac2409"/><stop offset="0.33" stop-color="#d33232"/><stop offset="0.51" stop-color="#ac2409"/><stop offset="1" stop-color="#750606"/></linearGradient><clipPath id="c" transform="translate(3.58)"><path d="M353,60.47q-36.48,1.16-72.81,3.23-.94-22.28-1.94-44.55,36.9-2.1,73.94-3.26-6.41,11.76-12.7,23.55Q346.27,49.94,353,60.47Z" fill="none"/></clipPath><linearGradient id="d" x1="401.14" y1="69.63" x2="484.62" y2="69.63" gradientTransform="translate(-131.07 7.79) rotate(-4.9)" gradientUnits="userSpaceOnUse"><stop offset="0" stop-color="#a72b13"/><stop offset="0.16" stop-color="#ac2409"/><stop offset="0.33" stop-color="#d33232"/><stop offset="0.53" stop-color="#750606"/><stop offset="0.68" stop-color="#ac2409"/><stop offset="0.82" stop-color="#d33232"/><stop offset="1" stop-color="#a72b13"/></linearGradient><linearGradient id="e" x1="2752.83" y1="72.07" x2="2678.33" y2="72.07" gradientTransform="matrix(-1, 0.09, 0.09, 1, 2738.36, -238.06)" xlink:href="#b"/><clipPath id="f" transform="translate(3.58)"><path d="M6.18,92.77q35.66-5.55,71.51-10.19-2.5-22.15-5.07-44.3Q36.22,43,0,48.61,8.08,59.05,16.07,69.53,11.08,81.14,6.18,92.77Z" fill="none"/></clipPath><linearGradient id="g" x1="2674.47" y1="71.67" x2="2756.67" y2="71.67" gradientTransform="matrix(-1, 0.09, 0.09, 1, 2738.36, -238.06)" xlink:href="#d"/><linearGradient id="h" x1="435.78" y1="56.48" x2="171.63" y2="56.48" xlink:href="#a"/><clipPath id="j" transform="translate(3.58)"><path d="M307.44,52.11Q177.24,58.28,49.08,76.18,46,51.34,42.88,26.5,173.14,8.37,305.72,2.07,306.62,27.09,307.44,52.11Z" fill="url(#a)"/></clipPath><linearGradient id="k" x1="160.78" y1="57.06" x2="446.69" y2="57.06" xlink:href="#a"/></defs><path d="M353,60.47q-36.48,1.16-72.81,3.23-.94-22.28-1.94-44.55,36.9-2.1,73.94-3.26Q345.8,27.5,339.53,39.14,346.3,49.79,353,60.47Z" transform="translate(3.58)" fill="url(#b)"/><g clip-path="url(#c)"><path d="M355.94,55.93q-39.57,1.2-79,3.5-.79-18.28-1.63-36.57,39.92-2.31,80-3.53Q355.65,37.63,355.94,55.93Z" transform="translate(3.58)" fill="none" stroke-miterlimit="10" stroke-width="1.88" stroke="url(#d)"/></g><path d="M280.17,63.7q13.47-8.41,27.1-16.7-13.83,0-27.64.2Z" transform="translate(3.58)" fill="#1f0325"/><path d="M6.18,92.77q35.66-5.55,71.51-10.19-2.5-22.15-5.07-44.3Q36.22,43,0,48.61q8,10.3,16,20.64Q11,81,6.18,92.77Z" transform="translate(3.58)" fill="url(#e)"/><g clip-path="url(#f)"><path d="M2.6,88.83q38.67-6.06,77.58-11.06-2-18.18-4.12-36.37Q36.66,46.46-2.52,52.59.06,70.71,2.6,88.83Z" transform="translate(3.58)" fill="none" stroke-miterlimit="10" stroke-width="1.88" stroke="url(#g)"/></g><path d="M77.69,82.58Q63.22,76.76,48.62,71.09q13.5-2.52,27-4.89Q76.68,74.39,77.69,82.58Z" transform="translate(3.58)" fill="#1f0325"/><path d="M307.51,54.18Q177.4,60.35,49.34,78.24,46,51.33,42.62,24.45,173,6.3,305.64,0,306.62,27.09,307.51,54.18Z" transform="translate(3.58)" fill="url(#h)"/><path d="M307.44,52.11Q177.24,58.28,49.08,76.18,46,51.34,42.88,26.5,173.14,8.37,305.72,2.07,306.62,27.09,307.44,52.11Z" transform="translate(3.58)" fill="url(#a)"/><g clip-path="url(#j)"><path d="M318.34,49.83Q177,56,38.1,75.94q-2.9-22.8-5.86-45.58,141-20.17,284.69-26.47Q317.67,26.87,318.34,49.83Z" transform="translate(3.58)" fill="url(#k)"/></g><path d="M88.29,28.26s2.55,1.66,4.09,2.79c0,.32-.37.5-.78.53l-5,.43a26.91,26.91,0,0,1-3.3,3.66l3-.25,1.61-2.08,3.79,2.43a1.58,1.58,0,0,1-.94.61l1.08,12.7c0,.24-1.83,1.16-3.23,1.31,6.8.8,5.47,6.57,1.84,5.33a19.34,19.34,0,0,0-5.06-5.14l.19-.23a19.4,19.4,0,0,1,2.26,0l-.09-1-4.78.41,0,.32c0,.14-.17.37-.5.6l4,2.06c-.12.24-.41.33-.92.25a27.31,27.31,0,0,1-9.77,4.27l-.2-.33a22.59,22.59,0,0,0,5.86-5.7,5.38,5.38,0,0,1-1.81.48l-.62,0L78.21,42h-.12a32.52,32.52,0,0,1-3.79,5.14L74.05,47c.11-1.51.12-3.83.09-5.47l-1.31.11,1,11.1c.22,2.56-.21,4.42-4.27,5.06a5.2,5.2,0,0,0-.79-2.72A3,3,0,0,0,66.34,54l0-.34s2.49-.07,3.07-.12c.41,0,.51-.25.49-.54l-1-11-3.53.3-.33-.79,8.72-.75,1.79-2.12,2.52,2-.53-6.17,4.32,1.3.47,0c0-.9-.17-2.24-.26-3.35l-4.82.41.29.24c-.21.28-.53.37-1.14.48a25.22,25.22,0,0,1-4.32,3c2.43,1.94.65,5.23-2.08,3.91a10.43,10.43,0,0,0-3.89-5l.19-.19a10.84,10.84,0,0,1,4.48.52A29.8,29.8,0,0,0,72,33.06l-7,.6-.33-.8,7.18-.61L73.77,30l2.56,2,10.06-.86ZM81.8,36.62l.31,3.52,4.78-.41-.3-3.52Zm.68,7.92,4.79-.41L87,40.55,82.18,41Zm5.16,4L87.34,45l-4.79.41.31,3.55Z" transform="translate(3.58)" fill="#ffff96"/><path d="M128.62,31.49a2.18,2.18,0,0,1-1.32.7c.64,12.33.33,17.23-1.47,19.23a6,6,0,0,1-4.44,2,4.63,4.63,0,0,0-.82-2.72,5.09,5.09,0,0,0-2.93-1.19l0-.35c1.26,0,3,0,3.81-.12a1.56,1.56,0,0,0,1.11-.5c1.16-1.16,1.31-6.6.83-16.71l-5.2.44a23.25,23.25,0,0,1-4.64,7.53l-.37-.17a41.3,41.3,0,0,0,1.15-5.09,1.15,1.15,0,0,1-1,.26A39.91,39.91,0,0,1,105,42.44l5.8-.85a15.82,15.82,0,0,0-1.19-2.54l.28-.17c7.53,1.79,4.5,7.56,1.51,5.21a9.31,9.31,0,0,0-.28-1.53c-1.71,1-4.12,2.35-6.88,3.7a1.79,1.79,0,0,1-.76.74l-2-4.14a5.74,5.74,0,0,0,1.22-.52,20.91,20.91,0,0,0,4.34-5.21c-1,.55-2.11,1.14-3.32,1.75a2,2,0,0,1-.77.89l-2.11-4.05a3.81,3.81,0,0,0,1-.49c1.44-1.39,3.26-5.92,3.64-8.36l5,2.16a1,1,0,0,1-1,.47,31,31,0,0,1-5.74,6c1.31-.11,2.88-.27,4.54-.44a19.11,19.11,0,0,0,1.46-3.27l4.6,2.6a59.06,59.06,0,0,0,.82-8.64l5.63.87c-.09.39-.42.68-1.08.77-.35,1.41-.74,2.76-1.19,4L123,31l1.94-2.34ZM105,46.4c1.65,3.12,1.8,5.54.92,6.88a2.08,2.08,0,0,1-3.32-.28,2.26,2.26,0,0,1,.81-2.94,4.86,4.86,0,0,0,1.21-3.63Zm2.82-.71c6.63,3.28,2.75,8.69,0,5.75a14.76,14.76,0,0,0-.36-5.64Zm3.35-.76c7.58,1.44,4.54,7.39,1.51,5a10,10,0,0,0-1.76-4.84ZM117,36.56c8.93,2.64,5.7,9.88,2,7a16.68,16.68,0,0,0-2.32-6.78Z" transform="translate(3.58)" fill="#ffff96"/><path d="M148.91,46.45a5.44,5.44,0,0,1-2.9,1.16l-.61,0-.13-1.57-1.72.15.19,2.21c0,.26-1,1.14-2.77,1.29l-.65.06-.73-8.57a24.21,24.21,0,0,1-1.76,2.47l-.4-.23c1.65-4.39,2.09-10.3,2-15.87l-3.09.26-.31-.79,7.56-.65,1.69-2.55s2.24,1.42,3.62,2.45c0,.32-.34.5-.78.53l-4.64.4A32.22,32.22,0,0,1,142.35,35l.63.18,1.05-.09,1.48-1.88L149,35.44a1.77,1.77,0,0,1-1,.61Zm-3.71-1.18-.81-9.41-1.72.15.81,9.41Zm19.11-10.82c-.17.34-.46.48-1.15.63a21.4,21.4,0,0,1-3,8.15,20.4,20.4,0,0,0,5.94,2.51l0,.33a4.83,4.83,0,0,0-3.38,3.78A15.73,15.73,0,0,1,158,45.91,22.11,22.11,0,0,1,149.39,51l-.23-.33a18.87,18.87,0,0,0,7.33-7,30.76,30.76,0,0,1-2.75-8.48l-.76.06,0,.27c.41,4.77.55,10.84-5.07,15.19l-.28-.18c2.38-4.43,2.13-9.75,1.71-14.67l-.77-9L152.92,28l1.16-.1-.41-4.8,4.76,0c0,.44-.23.75-1,.94l.31,3.58,1.49-.13,1.68-2,3.5,2.78c-.21.28-.5.37-1.08.48A27.22,27.22,0,0,1,159.67,32l-.25-.15c.09-1,.11-2.48.13-3.62l-1.75.15.48,5.59.67-.06,1.79-2.12Zm-11.4,0,1.72-.15-.48-5.59-1.72.15Zm1.33.71a14.84,14.84,0,0,0,3.45,6.07,23.23,23.23,0,0,0,1.53-6.5Z" transform="translate(3.58)" fill="#ffff96"/><path d="M182.56,44.45l.08.9-13,1.11-.08-.9,4.13-.88c-.13-1.84-.26-3.71-.41-5.48l-1-11.8-3.42.62-.09-1.08,7.75-2.49.47.29.29,4.75.79,9.3c.16,1.77.34,3.64.53,5.47Z" transform="translate(3.58)" fill="#ffff96"/><path d="M201.24,33.25c.65,7.61-2.66,11.23-6.68,11.58s-7.87-2.67-8.52-10.28,2.59-11.25,6.64-11.6S200.58,25.62,201.24,33.25Zm-6.77,10.56c1.72-.15,3-2.4,2.36-10.18s-2.34-9.83-4.06-9.69-3,2.37-2.3,10.23S192.75,44,194.47,43.81Z" transform="translate(3.58)" fill="#ffff96"/><path d="M219.7,31.67c.65,7.6-2.65,11.23-6.68,11.58S205.15,40.58,204.5,33s2.59-11.25,6.65-11.6S219.05,24,219.7,31.67Zm-6.76,10.56c1.72-.15,3-2.4,2.36-10.18s-2.34-9.84-4.07-9.69-3,2.37-2.29,10.23S211.21,42.37,212.94,42.23Z" transform="translate(3.58)" fill="#ffff96"/><path d="M238.17,30.09c.65,7.6-2.66,11.23-6.68,11.57S223.62,39,223,31.39s2.59-11.25,6.65-11.6S237.51,22.46,238.17,30.09ZM231.4,40.64c1.72-.14,3-2.4,2.36-10.17s-2.34-9.84-4.06-9.69-3,2.37-2.3,10.23S229.68,40.79,231.4,40.64Z" transform="translate(3.58)" fill="#ffff96"/><path d="M256.63,28.51c.66,7.6-2.65,11.23-6.68,11.57s-7.86-2.67-8.52-10.27,2.6-11.26,6.65-11.6S256,20.87,256.63,28.51Zm-6.76,10.55c1.72-.14,3-2.4,2.36-10.18s-2.34-9.83-4.06-9.68-3,2.36-2.3,10.23S248.15,39.21,249.87,39.06Z" transform="translate(3.58)" fill="#ffff96"/><path d="M273.79,13.39c0,.44-.26.73-1,.91,1.6,11.39,5,17.5,15.13,19.83v.35c-2.09.62-3.26,2.34-3.53,4.68-7.34-3-9.88-9.66-11.35-19.22.11,7.74-1.44,15.38-12.18,21.47l-.32-.36c9.52-8.94,8.34-18.26,7.56-27.7Z" transform="translate(3.58)" fill="#ffff96"/></svg>