<svg xmlns="http://www.w3.org/2000/svg" xmlns:xlink="http://www.w3.org/1999/xlink" viewBox="0 0 78.54 78.42"><defs><linearGradient id="a" y1="39.21" x2="78.54" y2="39.21" gradientUnits="userSpaceOnUse"><stop offset="0" stop-color="#ddbc82"/><stop offset="0.31" stop-color="#9b7860"/><stop offset="0.65" stop-color="#ddbc82"/><stop offset="1" stop-color="#9b7860"/></linearGradient><linearGradient id="b" x1="17.27" y1="30.25" x2="67.25" y2="30.25" xlink:href="#a"/><linearGradient id="c" x1="28.09" y1="30.63" x2="56.92" y2="30.63" xlink:href="#a"/></defs><path d="M15.62,44.65A30.28,30.28,0,1,1,65.79,49.3c.19.24.38.5.59.75L77.94,64c.46.56.83,1.12.43,1.85s-1.07.73-1.78.66c-3.44-.34-6.87-.66-10.3-1l-1-.1-.09,1c-.32,3.43-.66,6.87-1,10.3-.07.72-.18,1.37-1,1.63s-1.28-.21-1.73-.76Q54.62,69.19,47.7,60.8a1.4,1.4,0,0,0-1.44-.59,29.32,29.32,0,0,1-13.75-1.34,1.12,1.12,0,0,0-1.23.27L14.64,72.9l-.51.42a1.36,1.36,0,0,1-2.27-1.26c.33-3.41.65-6.81,1-10.22,0-.41.08-.82.13-1.36l-.89-.08c-3.49-.33-7-.67-10.46-1-.71-.07-1.31-.23-1.54-1s.18-1.23.72-1.68q7-5.79,14.05-11.6A8.67,8.67,0,0,1,15.62,44.65ZM44.89,2.8A27.58,27.58,0,1,0,69.7,33,27.65,27.65,0,0,0,44.89,2.8Zm17,70.76.08-.83c.27-2.83.53-5.67.81-8.5.12-1.22.61-1.62,1.84-1.51l8.66.82c.22,0,.44,0,.61,0l-10-12.14a31.15,31.15,0,0,1-13.65,8ZM17.15,47.11l-12,10,9.13.87c1.17.11,1.6.62,1.49,1.78-.26,2.78-.53,5.55-.8,8.33,0,.34-.06.68-.09.92l14-11.58A30.57,30.57,0,0,1,17.15,47.11Z" fill="url(#a)"/><path d="M17.39,27.88A25,25,0,1,1,39.76,55.11,25,25,0,0,1,17.39,27.88ZM64.48,32.3A22.32,22.32,0,1,0,40.24,52.48,22.34,22.34,0,0,0,64.48,32.3Z" fill="url(#b)"/><path d="M33.91,25.48c1.31.13,2.62.22,3.92.39a.9.9,0,0,0,1.11-.63c1-2.31,2-4.6,3-6.9.31-.7.7-1.27,1.57-1.17s1.08.71,1.24,1.42c.56,2.48,1.15,4.95,1.7,7.43a.8.8,0,0,0,.84.75c2.68.22,5.34.5,8,.74.75.06,1.36.29,1.55,1.08s-.28,1.27-.94,1.63c-2.3,1.27-4.58,2.57-6.89,3.81a.8.8,0,0,0-.47,1.09c.56,2.31,1.08,4.63,1.62,6.94.17.71.21,1.38-.49,1.82s-1.34.14-1.92-.36c-1.88-1.59-3.8-3.13-5.65-4.76a1,1,0,0,0-1.41-.09c-2.14,1.22-4.3,2.38-6.45,3.59-.65.37-1.27.55-1.88,0a1.45,1.45,0,0,1-.18-1.88c1-2.19,1.94-4.4,2.94-6.58a.77.77,0,0,0-.27-1.09c-2-1.65-4-3.34-6-5-.59-.49-1-1-.71-1.82s1-.88,1.79-.79C31.3,25.25,32.61,25.36,33.91,25.48Z" fill="url(#c)"/></svg>