<svg xmlns="http://www.w3.org/2000/svg" viewBox="0 0 350.39 73.86"><rect width="327.59" height="62.09" rx="31.04" fill="#8b6657"/><path d="M54.82,41.29c.47-1.11.9-2.25,1.3-3.44s.76-2.35,1.08-3.5.59-2.25.8-3.29.37-2,.47-2.83l.82.36.93.37.9.3a6.79,6.79,0,0,0,.79.19.43.43,0,0,1,.29.16c0,.07-.05.16-.26.28a1.81,1.81,0,0,0-.58.68,12.94,12.94,0,0,0-.88,1.86c-.35.85-.76,2-1.24,3.42s-1,3.23-1.7,5.41l2.42,0,2.43-.07,2.23-.09c.7,0,1.31-.06,1.81-.1v2.86q-.78-.09-1.68-.15c-.59,0-1.34-.07-2.26-.1s-2.06,0-3.44-.06H48.63c-1.37,0-2.52,0-3.44.06s-1.68.06-2.26.1-1.14.09-1.66.15V41l1.8.13q1,.07,2.19.12c.78,0,1.58.05,2.42.06h7.14Zm10.3-13.85q-.7-.09-1.62-.15c-.61,0-1.36-.07-2.23-.1s-1.9-.05-3.08-.06H50q-1.74,0-3.06.06c-.87,0-1.62.06-2.23.1s-1.15.09-1.62.15v-2.8l1.63.12c.63,0,1.37.07,2.24.1s1.88.05,3,.06h8.18c1.18,0,2.21,0,3.08-.06s1.62-.06,2.23-.1l1.62-.12ZM49.2,39.51c-.28-1.77-.63-3.45-1.05-5.06s-.92-3.16-1.46-4.68L49.2,29c.19.65.41,1.37.67,2.19s.51,1.66.77,2.54.52,1.74.77,2.61.49,1.68.7,2.43Zm4.43-15.42c-.27-.88-.54-1.64-.8-2.29s-.56-1.3-.89-1.94l2.91-1c.18.6.4,1.26.67,2a19.45,19.45,0,0,0,1,2.2Z" fill="#fff"/><path d="M82.15,38.32c-.27-.33-.53-.63-.76-.88s-.46-.47-.67-.67l1.84-1.43c.37.47.77,1,1.21,1.47s.88,1,1.32,1.55l1.32,1.5c.42.49.82.93,1.19,1.34l-2.13,1.69c-.27-.42-.59-.9-1-1.44s-.78-1.06-1.19-1.59l-5.54,3.27c-.35.21-.74.48-1.18.8s-.81.62-1.12.89c-.21-.43-.46-.87-.74-1.33A8.49,8.49,0,0,0,74,42.4l.69-.29.66-.3V24.49c0-.85,0-1.57,0-2.14s-.07-1.08-.13-1.53a20.7,20.7,0,0,0,2.13.25c.89.07,2,.1,3.41.1s2.48,0,3.28-.09a15,15,0,0,0,2-.26c0,.49-.07,1.08-.1,1.79s-.05,1.34-.05,1.88v6.19a35.77,35.77,0,0,0,.18,3.9l-.82-.07c-.27,0-.59,0-1-.06l-1.25,0H77.54v6.38l1-.49c.33-.16.67-.33,1-.53l1.14-.62C81.16,38.92,81.62,38.65,82.15,38.32Zm1.49-15h-6.1v3.56h6.1Zm0,5.48h-6.1V32.4h6.1ZM97.9,20.94c0,.21-.08.49-.12.83s-.07.7-.1,1.09-.05.78-.06,1.17,0,.74,0,1V38.14a16.33,16.33,0,0,1-.07,1.76A1.84,1.84,0,0,1,97.08,41a2.85,2.85,0,0,1-1.15.68,21.56,21.56,0,0,1-2.18.63,4,4,0,0,0-.45-1.63,5.56,5.56,0,0,0-1.21-1.52c.7.06,1.26.1,1.68.1a2.08,2.08,0,0,0,.93-.13.69.69,0,0,0,.4-.45,3.56,3.56,0,0,0,.08-.83V23.36H91.07v22.3H88.53c0-.64.08-1.24.11-1.8s0-1.12.07-1.65,0-1.07,0-1.62,0-1.13,0-1.75V25.08q0-1.08-.06-2.25t-.12-1.89a19.25,19.25,0,0,0,2,.2c.74,0,1.63.06,2.68.06A33.44,33.44,0,0,0,97.9,20.94Z" fill="#fff"/><path d="M105.68,27.67a21.6,21.6,0,0,0,1.12-2c.4-.76.8-1.55,1.19-2.36s.73-1.59,1.05-2.36.55-1.42.72-2a6.61,6.61,0,0,0,1.3.76,7.9,7.9,0,0,0,1.13.38c.27.06.41.15.42.28s-.11.23-.37.33a3,3,0,0,0-.73.6,4.72,4.72,0,0,0-.81,1.15c-.2.35-.42.74-.66,1.18s-.5.89-.77,1.34-.55.91-.83,1.36-.55.86-.8,1.25l1.59,0c.53,0,1.06,0,1.58-.07.51-.82.91-1.49,1.2-2a8.08,8.08,0,0,0,.58-1.18,7.37,7.37,0,0,0,1,.68,6.67,6.67,0,0,0,1,.45c.29.12.42.25.4.4s-.18.27-.49.36l-.16.12a3.11,3.11,0,0,0-.34.38l-.65.84c-.29.37-.66.88-1.13,1.52-.62.84-1.29,1.7-2,2.58s-1.46,1.74-2.18,2.55l1.84-.16c.72-.06,1.39-.15,2-.25a9.56,9.56,0,0,0-.58-1.51l1.84-.61A19.06,19.06,0,0,1,114,34a15.27,15.27,0,0,1,.51,2.28l-2,.64c0-.24,0-.47-.08-.72s-.07-.5-.13-.77l-3.79.52a15.66,15.66,0,0,0-1.71.34,14,14,0,0,0-1.44.45,5.47,5.47,0,0,0-.26-1.11,8.51,8.51,0,0,0-.53-1.22h.62l.67,0c.56-.64,1.19-1.42,1.88-2.33s1.33-1.82,1.94-2.71l-1.55.17c-.58.08-1.1.16-1.56.25s-.88.19-1.27.3a9.87,9.87,0,0,0-.19-1.13,5.35,5.35,0,0,0-.45-1.26l.56,0Zm2,10.44c-.09.94-.21,1.91-.36,2.93s-.32,2.05-.51,3.08l-2.28-.44a11.09,11.09,0,0,0,.44-1.4c.14-.52.26-1.06.38-1.6s.21-1.07.28-1.58a9.39,9.39,0,0,0,.1-1.28ZM109,42.86a22.75,22.75,0,0,0,.08-2.44,15.45,15.45,0,0,0-.23-2.34l2-.58c.16.87.28,1.69.35,2.45s.14,1.53.18,2.33Zm11.89-8.68A24.18,24.18,0,0,1,118.19,40a17.2,17.2,0,0,1-4.61,4.8,4.28,4.28,0,0,0-.89-.79,3.77,3.77,0,0,0-1.23-.46,17.14,17.14,0,0,0,4.33-3.44,12.68,12.68,0,0,0,2.37-4c-.56,0-1.13,0-1.7,0a12.87,12.87,0,0,0-1.62.19V34.18l1.4.1c.52,0,1.06,0,1.62,0s1.09,0,1.62,0S120.48,34.23,120.9,34.18Zm-8.1,6.94a7.2,7.2,0,0,0-.24-1.56A7,7,0,0,0,112,38l1.55-.85a9.82,9.82,0,0,1,.77,1.62,9.15,9.15,0,0,1,.42,1.62ZM119.65,22a10,10,0,0,0,.26-1.55c0-.47.06-1,.06-1.55a8,8,0,0,0,1.39.35,7.59,7.59,0,0,0,1.38.15c.14,0,.21,0,.22.12s0,.15-.19.23a2.27,2.27,0,0,0-.52.71,13.56,13.56,0,0,0-.73,1.54H125q1.23,0,2.34,0c.74,0,1.27,0,1.6-.09a10.52,10.52,0,0,0-.14,1.24c0,.49-.06,1.15-.06,2V28.6a21.83,21.83,0,0,0,.2,3.33,6.06,6.06,0,0,0-.65-.1c-.27,0-.61,0-1-.06l-1.57,0h-2.34V33.8A13,13,0,0,0,124,35a13.47,13.47,0,0,0,.72,1.15,14.17,14.17,0,0,0,1.78-1.61,8,8,0,0,0,1.23-1.66A11.58,11.58,0,0,0,128.86,34a7.89,7.89,0,0,0,1.17.87c.16.1.22.19.19.28s-.18.15-.45.19a6.86,6.86,0,0,0-1.74.57,13.76,13.76,0,0,0-2.37,1.5,14.11,14.11,0,0,0,2.8,2.6,15.05,15.05,0,0,0,3,1.69,5,5,0,0,0-1,1,4,4,0,0,0-.64,1.25,24.15,24.15,0,0,1-3.65-3.12,19.7,19.7,0,0,1-2.83-3.64V43a3.14,3.14,0,0,1-.19,1.18,1.61,1.61,0,0,1-.65.79,3.59,3.59,0,0,1-1.27.47,13,13,0,0,1-2,.19,7.16,7.16,0,0,0-.28-1.36,5,5,0,0,0-.59-1.33,4.18,4.18,0,0,0,2.3.22c.37-.16.55-.59.55-1.27V31.73h-2.33l-1.54,0c-.41,0-.74,0-1,.06s-.45.06-.63.1a11.4,11.4,0,0,0,.19-1.5c0-.5,0-1.11,0-1.83V25.11c0-.68,0-1.29,0-1.81a10.43,10.43,0,0,0-.16-1.4q.62.06,1.71.09Zm7,4V23.82H118V26ZM118,27.73V30h8.6V27.73Z" fill="#fff"/><path d="M150.3,41l3.92,0c1.2,0,2.3,0,3.32-.06l2.83-.08c.87,0,1.69-.08,2.47-.13v2.91c-.8-.06-1.64-.1-2.51-.13l-2.86-.09c-1,0-2.15,0-3.35,0l-4,0c-2.89,0-5.36,0-7.4.07s-3.84.13-5.4.22V40.74c1.34.09,2.83.16,4.48.2s3.57.07,5.79.09V26.91c0-1.16,0-2.16,0-3s0-1.54,0-2.11-.05-1-.08-1.39a6.89,6.89,0,0,0-.1-.85,12.17,12.17,0,0,0,1.64.21c.6,0,1.18.06,1.75.06.27,0,.42.06.45.17s-.09.27-.34.44a1.65,1.65,0,0,0-.39.92,8,8,0,0,0-.16,1.73v3.85h3.85c1.32,0,2.48,0,3.48-.05s1.9-.1,2.7-.18V29.6c-.78-.1-1.67-.16-2.68-.19s-2.18-.05-3.5-.05H150.3Z" fill="#fff"/><path d="M179.34,25.51c-.62-.07-1.34-.12-2.17-.14s-1.83,0-3,0-2.19,0-3,0-1.55.08-2.17.13v-2.3c.64.06,1.37.1,2.19.13s1.82.05,3,.05,2.19,0,3-.05,1.55-.07,2.17-.13Zm-.67,3.85c-.54-.05-1.16-.1-1.86-.13s-1.58,0-2.63,0-1.92,0-2.62,0-1.33.08-1.87.13v-2.3a16.11,16.11,0,0,0,1.87.15c.7,0,1.57,0,2.62,0s1.93,0,2.63,0,1.32-.07,1.86-.13Zm0,3.91a16.09,16.09,0,0,0-1.86-.14c-.7,0-1.58,0-2.63,0s-1.92,0-2.62,0a16.28,16.28,0,0,0-1.87.14V31c.54.06,1.17.1,1.87.13s1.57,0,2.62,0,1.92,0,2.61,0a17,17,0,0,0,1.88-.14ZM172.05,45.2h-2.27c.07-.74.13-1.39.16-1.94s0-1.16,0-1.82V37.21c0-.51,0-.93,0-1.26s0-.67-.05-1l.6.11c.21,0,.46,0,.77.05l1.16,0,1.76,0,1.78,0,1.17,0c.31,0,.56,0,.77-.05l.57-.11a9.15,9.15,0,0,0-.08.94c0,.33,0,.77,0,1.34v3.64c0,.72,0,1.38.06,2s.1,1.23.2,1.91h-2.36V42.57h-4.26ZM176.31,37h-4.26v3.59h4.26ZM173.77,23a11.6,11.6,0,0,0-.58-1.69,6.51,6.51,0,0,0-.93-1.55l2.13-1c.29.48.58,1,.88,1.57s.57,1.12.81,1.67Zm10.76,6c-.54.6-1.12,1.29-1.75,2.08s-1.23,1.64-1.83,2.55c-.39-.33-.72-.59-1-.79l-.9-.61a10.3,10.3,0,0,0,2-2.08,18.67,18.67,0,0,0,1.62-2.64,3,3,0,0,0,.77.87A3.72,3.72,0,0,0,184.53,28.93Zm-3.06-3.88c-.16-.41-.3-.78-.45-1.12a9.34,9.34,0,0,0-.47-.95c-.16-.29-.35-.59-.55-.88s-.44-.6-.72-.93l2.07-1.08c.47.68.88,1.34,1.24,2s.68,1.27.95,1.87Zm1.87,18.51v1.87H181c.09-.76.16-1.42.2-2s.06-1.2.06-1.88v-3.7c0-.51,0-.93,0-1.28s0-.7-.07-1l.82.1c.27,0,.6.05,1,.06l1.52,0h4.72l1.56,0c.41,0,.75,0,1-.06l.74-.1a8.86,8.86,0,0,0-.08,1c0,.35,0,.81,0,1.37v3.38c0,.74,0,1.41.07,2a18.22,18.22,0,0,0,.28,2h-2.51V43.56Zm5.89-16.09A8.46,8.46,0,0,0,191.59,31a9.88,9.88,0,0,0,3.79,1.85A7,7,0,0,0,194.29,34a6.45,6.45,0,0,0-.66,1.23q-.93-.64-1.68-1.26a15,15,0,0,1-1.35-1.27,9.25,9.25,0,0,1-1.11-1.43,13.29,13.29,0,0,1-.93-1.73,10,10,0,0,1-1.69,3.28,12,12,0,0,1-2.77,2.52,6.91,6.91,0,0,0-.94-.83,4.64,4.64,0,0,0-1.16-.57,16.23,16.23,0,0,0,2.37-1.57,8,8,0,0,0,1.66-1.8,7,7,0,0,0,1-2.17,11.32,11.32,0,0,0,.3-2.74,7.54,7.54,0,0,0,2.31.5c.6,0,.64.23.11.64A2.07,2.07,0,0,0,189.23,27.47Zm1.46-4.67h1.53l1.15,0,.87-.05a4.66,4.66,0,0,0,.7-.08l-1.63,5.16-2.19-.53,1-2.74h-5.6c-.33.76-.63,1.4-.91,1.91a12.92,12.92,0,0,1-.78,1.27,4.25,4.25,0,0,0-1-.58,4.52,4.52,0,0,0-1-.29,12,12,0,0,0,2.42-3.78,12.17,12.17,0,0,0,.88-4.24c.37.15.78.3,1.25.45s.91.27,1.31.36.48.29.09.62a4.18,4.18,0,0,0-.63.86,11,11,0,0,0-.8,1.7Zm-.44,18.87V37.5h-6.91v4.17Z" fill="#fff"/><path d="M207,26c-1.19,0-2.18,0-3,0s-1.51.07-2.16.15v-2.4c.67.08,1.39.13,2.18.15s1.77,0,3,0,2.15,0,3,0a21.11,21.11,0,0,0,2.14-.15v2.4A21.11,21.11,0,0,0,210,26C209.14,26,208.15,26,207,26Zm3.85,3.53q-.76-.06-1.68-.09c-.61,0-1.35,0-2.2,0s-1.83,0-2.51,0a16.12,16.12,0,0,0-1.84.15V27.38a15.37,15.37,0,0,0,1.83.15q1,0,2.52,0c1,0,1.84,0,2.53,0s1.32-.07,1.84-.13v1.55a16.26,16.26,0,0,0,1.27-1.87c.44-.74.91-1.62,1.42-2.65l.86-1.86c.22-.49.4-.92.55-1.29s.26-.71.35-1,.18-.65.28-1a12.17,12.17,0,0,0,1.16.49l1.23.36c.21.06.33.13.35.2s-.08.19-.29.32a2.37,2.37,0,0,0-.73.79,14,14,0,0,0-1,1.81h4.69c1,0,2,0,2.86,0s1.65-.09,2.27-.16l-.55,19a5.77,5.77,0,0,1-.22,1.56,1.8,1.8,0,0,1-.77,1,5.48,5.48,0,0,1-1.68.63c-.73.16-1.69.32-2.87.48a4.82,4.82,0,0,0-.19-1.59,5.57,5.57,0,0,0-.83-1.53c.91.11,1.64.18,2.18.2a3.13,3.13,0,0,0,1.26-.15,1,1,0,0,0,.58-.58,3.76,3.76,0,0,0,.18-1.11l.46-15.71h-8.31c-.29.6-.58,1.15-.86,1.64s-.57,1-.86,1.48h3.35c.82,0,1.59,0,2.32-.06s1.32-.09,1.77-.15a9.86,9.86,0,0,0-.09,1.15q0,.81,0,1.56v7q0,.76,0,1.56a8.65,8.65,0,0,0,.09,1.12l-.66-.07c-.22,0-.48,0-.77-.06l-1.08,0h-3.15l-1.11,0a8,8,0,0,0-.8.06l-.66.07a17.6,17.6,0,0,0,.12-2.68V29.33c-.15.26-.32.51-.49.76l-.56.79a2.83,2.83,0,0,0-.86-.58,4.75,4.75,0,0,0-1.21-.29,1.93,1.93,0,0,0,.25-.24ZM207.05,33c-1,0-1.84,0-2.54,0s-1.32.07-1.87.14V31a18,18,0,0,0,1.85.14c.71,0,1.56,0,2.56,0s1.84,0,2.55,0,1.33-.07,1.88-.14v2.18c-.55-.07-1.17-.12-1.88-.14S208,33,207.05,33Zm-1.93,12h-2.33c.08-.68.13-1.29.16-1.83s0-1.15,0-1.81V35.85a7.57,7.57,0,0,0-.06-1l.6.06.76,0h5.88c.31,0,.56,0,.75,0l.56-.06a8,8,0,0,0-.1.85c0,.33,0,.78,0,1.34v3.56a17.77,17.77,0,0,0,.09,1.85c.06.57.14,1.17.23,1.79H209.2V42.54h-4.08Zm2.1-25.74c.19.52.42,1.07.69,1.64a16.59,16.59,0,0,0,.86,1.68l-2.42,1.08a9.83,9.83,0,0,0-.59-1.68,10,10,0,0,0-1-1.76Zm2,17.81h-4.08v3.65h4.08Zm10.18-7H215.5v3.3h3.88Zm0,5H215.5v3.27h3.88Z" fill="#fff"/><path d="M239.36,29.16c-.34-.35-.65-.67-1-1s-.62-.58-.95-.86-.69-.57-1.08-.85l-1.28-.92L236.61,24c.39.27.79.56,1.19.86s.79.61,1.18.95l1.69-3.07h-3.15c-.74,0-1.46,0-2.14.06a15,15,0,0,0-1.71.18V20.53a29.36,29.36,0,0,0,5.31.32,30,30,0,0,0,5.42-.32l-4.05,6.41c.19.16.38.31.55.47l.53.47-1.52,1.28h1.66l1.26,0c.36,0,.71,0,1-.06l1-.1-1.4,5.33-2.19-.67L242.1,31h-2V42.19a3.8,3.8,0,0,1-.14,1.11,1.26,1.26,0,0,1-.59.73,4.53,4.53,0,0,1-1.36.5c-.59.13-1.39.29-2.41.46a8,8,0,0,0-.07-.8,4.26,4.26,0,0,0-.13-.64c-.06-.2-.13-.41-.22-.63s-.21-.46-.36-.75q1,.16,1.59.21a2.25,2.25,0,0,0,.92-.08.64.64,0,0,0,.4-.46,3.16,3.16,0,0,0,.09-.84V31c-1.09,0-2,.05-2.68.09s-1.34.09-1.93.17V29l1,.1c.36,0,.77.05,1.24.06l1.65,0Zm10.93,12.1c.41.27.4.43,0,.47a2.71,2.71,0,0,0-.76.16,4.37,4.37,0,0,0-.9.54c-.68.5-1.44,1-2.29,1.54s-1.82,1.07-2.93,1.64a5.86,5.86,0,0,0-1-.85,11.71,11.71,0,0,0-1.23-.76,22.05,22.05,0,0,0,4.39-2.07,14.22,14.22,0,0,0,2.76-2.21A22.69,22.69,0,0,0,250.29,41.26Zm-.41-18.55c-1.07,0-2,.05-2.81.08s-1.54.08-2.2.16V20.53c.87.1,1.86.16,3,.19s2.45,0,4.07,0,3,0,4.08,0,2.1-.09,3-.19V23c-.81-.1-1.75-.16-2.8-.19s-2.32-.05-3.82-.05q-.12.64-.3,1.32c-.13.44-.33,1-.6,1.78l2.36,0,1.66,0c.47,0,.87-.05,1.21-.08s.67-.06,1-.1c0,.12,0,.29-.06.53s0,.49,0,.77,0,.58,0,.89,0,.61,0,.9v8c0,.57,0,1.15.05,1.75s.06,1,.1,1.32l-1-.11-1.21,0-1.67,0-2.38,0-2.38,0-1.67,0-1.2,0-1,.11c0-.14,0-.32,0-.54s0-.48.05-.76,0-.57,0-.88,0-.59,0-.89v-8c0-.29,0-.58,0-.89s0-.59,0-.87,0-.54,0-.77,0-.42-.06-.56a13.2,13.2,0,0,0,1.56.16c.57,0,1.38.06,2.43.08a13.84,13.84,0,0,0,.41-1.54C249.71,23.74,249.81,23.22,249.88,22.71Zm5.46,4.9H247.4v2.16h7.94Zm0,3.85H247.4v2.1h7.94Zm0,3.91H247.4v2.25h7.94Zm2.36,10.09a20.3,20.3,0,0,0-5.51-4.08l1.48-1.61c.47.28,1,.58,1.48.91l1.54,1,1.49,1c.48.32.9.61,1.27.88Z" fill="#fff"/><path d="M269.86,38.23a30,30,0,0,1-1.34,6.62L266,44a8.85,8.85,0,0,0,.66-1.31q.3-.75.54-1.56a15.39,15.39,0,0,0,.37-1.6,10.79,10.79,0,0,0,.18-1.42Zm-2.25-10.79c.49-.82.95-1.63,1.39-2.44s.83-1.58,1.18-2.31.66-1.43.92-2.08a17,17,0,0,0,.6-1.69,15.65,15.65,0,0,0,1.56.75q.74.3,1.23.45c.26.06.39.15.4.28s-.09.21-.31.24a1.35,1.35,0,0,0-.67.44,6.34,6.34,0,0,0-.67.88l-1.11,1.75-.9,1.43c-.27.42-.54.82-.79,1.19l-.73,1.08,1.72-.1,1.78-.1c.57-.9,1-1.7,1.43-2.41s.69-1.31.9-1.79a5.18,5.18,0,0,0,.52.43l.62.47a6.89,6.89,0,0,0,.63.42,5.49,5.49,0,0,0,.54.31c.21.1.31.2.29.32s-.14.2-.35.26a1.6,1.6,0,0,0-.57.4,7,7,0,0,0-.89,1.06c-.58.82-1.15,1.59-1.72,2.33s-1.1,1.43-1.6,2.06l-1.4,1.72c-.43.52-.8,1-1.11,1.3.95,0,1.91-.1,2.87-.18l2.61-.2c-.25-.56-.51-1.09-.77-1.58a7.94,7.94,0,0,0-.77-1.19l1.95-.85c.19.33.43.75.71,1.26s.57,1,.87,1.57l.84,1.62c.27.53.49,1,.64,1.36l-2.36,1c0-.18-.1-.41-.17-.69s-.18-.6-.3-1l-6.38.88c-.57.08-1.09.17-1.56.28a9.69,9.69,0,0,0-1.3.36,7.85,7.85,0,0,0-.64-2.54h.67l.76,0c.72-.89,1.4-1.76,2.05-2.62s1.23-1.68,1.74-2.48l-2.07.32-1.53.25a6.74,6.74,0,0,0-1.27.31,10.83,10.83,0,0,0-.22-1.23,8.37,8.37,0,0,0-.42-1.31ZM271.81,44q.06-.61.06-1.41t0-1.62c0-.54,0-1.07-.1-1.56s-.1-.92-.16-1.27l2.07,0c.08.35.15.77.22,1.26s.13,1,.2,1.51.13,1,.18,1.55.08,1,.1,1.34Zm5.13-.29c0-.43-.09-.91-.17-1.44s-.18-1.07-.29-1.59-.25-1-.38-1.49a11.52,11.52,0,0,0-.41-1.19l2-.41c.14.33.28.73.44,1.19l.48,1.48c.16.51.32,1,.45,1.51s.25.93.35,1.3Zm4.38-17.55c-.35.85-.71,1.7-1.08,2.53a20.41,20.41,0,0,1-1.05,2.1,3.91,3.91,0,0,0-1-.49,6,6,0,0,0-1.29-.27,28.79,28.79,0,0,0,1.42-2.52,26.35,26.35,0,0,0,1.17-2.64,26.77,26.77,0,0,0,.92-2.87c.26-1,.5-2.06.71-3.16.24.11.46.22.66.3s.4.17.6.24.4.13.62.18l.75.18c.21,0,.33.12.35.25s-.09.24-.32.33a1.15,1.15,0,0,0-.54.6,13,13,0,0,0-.6,1.62c-.06.19-.13.42-.22.67l-.3.85h5.59c.51,0,1,0,1.54-.08a14.1,14.1,0,0,0,1.55-.22l-.37,15.31c0,1.33-.11,2.38-.21,3.17a3.73,3.73,0,0,1-.7,1.88,3.27,3.27,0,0,1-1.66,1.05,20.86,20.86,0,0,1-3.06.64c0-.33-.08-.63-.12-.89a5.35,5.35,0,0,0-.17-.74,4.88,4.88,0,0,0-.31-.72c-.13-.24-.29-.51-.48-.8,1,.06,1.74.08,2.32.06a2.18,2.18,0,0,0,1.29-.37,1.58,1.58,0,0,0,.57-1.07,14.56,14.56,0,0,0,.16-2.12l.35-13Zm1.19,11.69a17.28,17.28,0,0,0-.7-3.4,20.48,20.48,0,0,0-1.13-3l2.13-.67c.44,1,.86,2.06,1.24,3.2a32,32,0,0,1,.89,3.25Z" fill="#fff"/><path d="M315,54.15c-1.1-2.34-2.23-4.68-3.33-7q-3-6.41-6-12.82a8.6,8.6,0,0,1-.87-4.05,4.77,4.77,0,0,1,6.71-4.1,6.05,6.05,0,0,1,3.18,2.9c1.5,2.88,3,5.77,4.49,8.64.11.22.25.41.4.65a6.6,6.6,0,0,1,6.37-.78,1,1,0,0,0,.67-.12,7.62,7.62,0,0,1,6.65-.32.84.84,0,0,0,.66,0,6.76,6.76,0,0,1,8.86,2.08,32.31,32.31,0,0,1,4.26,8.07c.94,2.46,1.82,5,2.61,7.47a12,12,0,0,1-1.8,11.35,18.8,18.8,0,0,1-18.48,7.59c-2.89-.4-5.37-2-7.88-3.43q-5.16-2.88-10.25-5.84A34.65,34.65,0,0,1,307.61,62a5.24,5.24,0,0,1-2.17-4.73,4.88,4.88,0,0,1,5.73-4.15A36,36,0,0,1,315,54.15ZM327.93,40c.88,1.59,1.72,3.11,2.55,4.63.44.8.32,1.36-.35,1.75s-1.26.21-1.73-.62c-.82-1.47-1.71-2.91-2.42-4.43a2.46,2.46,0,0,0-2.42-1.41,3.63,3.63,0,0,0-2.32.76.74.74,0,0,0-.27,1.14c1,2,2.06,4,3.07,6.08a1.18,1.18,0,0,1-1.13,1.8c-.61,0-.85-.48-1.1-1l-9.49-18.26a3.42,3.42,0,0,0-1.89-1.75,1.93,1.93,0,0,0-2.74,2.05,9,9,0,0,0,.78,2.73Q314,45.37,319.62,57.22c.26.56.45,1.11-.09,1.61s-1,.28-1.55,0c-1.58-.77-3.16-1.56-4.78-2.23a9.67,9.67,0,0,0-2.88-.72,1.85,1.85,0,0,0-1.81,2.79,4.62,4.62,0,0,0,1.41,1.54c1.08.75,2.24,1.39,3.39,2,2.47,1.4,4.94,2.77,7.43,4.14,2.3,1.27,4.61,2.55,6.95,3.75a7.45,7.45,0,0,0,2.5.79c6.44.65,11.73-1.54,15.6-6.75a9.17,9.17,0,0,0,1.31-8.32c-.45-1.58-1-3.12-1.53-4.67a45.6,45.6,0,0,0-4.44-9.62,5.21,5.21,0,0,0-3-2.41,3,3,0,0,0-2.72.42c.56,1.08,1.09,2.09,1.61,3.11.41.81.27,1.38-.42,1.74s-1.26.16-1.68-.63c-.56-1.06-1.09-2.13-1.67-3.18a1.64,1.64,0,0,0-.61-.69A4.63,4.63,0,0,0,327.93,40Z" fill="#8b6657"/><path d="M327.93,40a4.63,4.63,0,0,1,4.69,0,1.64,1.64,0,0,1,.61.69c.58,1.05,1.11,2.12,1.67,3.18.42.79,1,1,1.68.63s.83-.93.42-1.74c-.52-1-1.05-2-1.61-3.11a3,3,0,0,1,2.72-.42,5.21,5.21,0,0,1,3,2.41,45.6,45.6,0,0,1,4.44,9.62c.54,1.55,1.08,3.09,1.53,4.67a9.17,9.17,0,0,1-1.31,8.32c-3.87,5.21-9.16,7.4-15.6,6.75a7.45,7.45,0,0,1-2.5-.79c-2.34-1.2-4.65-2.48-6.95-3.75-2.49-1.37-5-2.74-7.43-4.14-1.15-.64-2.31-1.28-3.39-2a4.62,4.62,0,0,1-1.41-1.54,1.85,1.85,0,0,1,1.81-2.79,9.67,9.67,0,0,1,2.88.72c1.62.67,3.2,1.46,4.78,2.23.54.27,1,.44,1.55,0s.35-1,.09-1.61Q314,45.36,308.47,33.49a9,9,0,0,1-.78-2.73,1.93,1.93,0,0,1,2.74-2.05,3.42,3.42,0,0,1,1.89,1.75l9.49,18.26c.25.47.49.92,1.1,1a1.18,1.18,0,0,0,1.13-1.8c-1-2-2-4.07-3.07-6.08a.74.74,0,0,1,.27-1.14,3.63,3.63,0,0,1,2.32-.76A2.46,2.46,0,0,1,326,41.3c.71,1.52,1.6,3,2.42,4.43.47.83,1,1,1.73.62s.79-1,.35-1.75C329.65,43.08,328.81,41.56,327.93,40Z" fill="#fff"/></svg>