<svg width="191" height="14" viewBox="0 0 191 14" fill="none" xmlns="http://www.w3.org/2000/svg">
<path d="M188.78 2.82796C187.161 1.20925 184.733 0.703351 182.407 0.501012C178.764 0.197503 175.021 0.602182 171.48 1.51271C165.815 2.5244 160.352 4.04195 155.495 5.55949C154.383 5.863 153.27 6.26768 152.157 6.57119C149.223 7.48172 146.39 8.39222 143.456 9.20158C137.588 3.94075 129.09 1.20915 119.277 1.715C112.195 2.01851 105.113 3.9408 98.638 5.9642C97.5252 6.36888 96.3111 6.67236 95.1983 7.07704C94.0854 6.67236 92.8714 6.36888 91.7585 5.9642C85.1825 3.9408 78.2018 2.11968 71.1199 1.715C61.4076 1.20915 52.8082 3.94075 46.9404 9.20158C44.0065 8.39222 41.0725 7.48172 38.2398 6.57119C37.1269 6.26768 36.014 5.863 34.9012 5.55949C30.045 4.04195 24.4807 2.5244 18.9164 1.51271C15.3755 0.703351 11.6322 0.298673 7.99008 0.501012C5.66318 0.703351 3.23506 1.20925 1.61634 2.82796C-0.00237025 4.44668 -0.406999 7.48174 1.41405 8.99929C2.83043 10.1122 4.95499 9.90979 6.47254 9.10043C8.09125 8.29107 9.10295 5.76181 10.5193 4.64894C12.138 3.33374 13.8579 2.52438 15.8813 2.1197C22.4573 3.03023 28.9322 4.85131 34.5977 6.57119C35.7105 6.8747 36.8234 7.27938 37.9363 7.58289C47.6486 10.618 57.6644 13.7542 67.9837 13.7542C68.4895 13.7542 68.9954 13.7542 69.5012 13.7542C78.303 13.4507 87.0035 10.7192 94.5913 8.39229L94.7936 8.29102C94.9959 8.18985 95.0971 8.1899 95.2995 8.08873C95.5018 8.08873 95.603 8.18988 95.8053 8.18988L96.0077 8.29102C103.697 10.7191 112.296 13.4507 121.098 13.6531C121.604 13.6531 122.109 13.6531 122.615 13.6531C132.833 13.6531 142.95 10.5168 152.663 7.48174C153.776 7.17823 154.888 6.77355 156.001 6.47004C161.667 4.75016 168.142 2.82791 174.718 2.01856C176.741 2.42324 178.461 3.23259 180.08 4.5478C181.496 5.66066 182.508 8.18993 184.126 8.99929C185.745 9.80864 187.87 10.1122 189.185 8.89814C190.804 7.48177 190.399 4.44668 188.78 2.82796ZM69.2989 12.7425C62.1158 12.9449 54.9328 11.5285 47.9521 9.60628C53.6176 4.75014 61.7111 2.32202 70.9175 2.72669C77.8982 3.0302 84.879 4.95253 91.3538 6.87475C92.062 7.07709 92.7702 7.27938 93.4784 7.58289C86.093 9.90979 77.6959 12.439 69.2989 12.7425ZM120.895 12.7425C112.498 12.439 104.101 9.90979 96.7158 7.58289C97.424 7.38055 98.1322 7.17826 98.8404 6.87475C105.315 4.85136 112.296 3.0302 119.277 2.72669C128.483 2.32202 136.678 4.75014 142.242 9.60628C135.261 11.5285 128.078 12.9449 120.895 12.7425Z" fill="white"/>
</svg>
