<svg xmlns="http://www.w3.org/2000/svg" viewBox="0 0 24.3 23.91"><path d="M4.83,13.59a9.17,9.17,0,0,1,3-12A9.52,9.52,0,0,1,19.65,2.68,9.16,9.16,0,0,1,20.35,15l.18.23c1.2,1.42,2.39,2.85,3.58,4.27.15.17.26.34.14.56s-.33.23-.55.2L20.51,20l-.3,0,0,.29c-.09,1.05-.2,2.09-.29,3.14,0,.22-.06.42-.3.5s-.4-.07-.54-.24c-1.43-1.7-2.87-3.41-4.29-5.12a.44.44,0,0,0-.45-.18,9,9,0,0,1-4.25-.42.35.35,0,0,0-.38.09L4.53,22.2l-.15.13a.42.42,0,0,1-.5.06.41.41,0,0,1-.2-.44c.1-1,.19-2.08.29-3.12,0-.12,0-.25,0-.41l-.27,0c-1.08-.1-2.16-.21-3.24-.3-.22,0-.41-.07-.48-.3a.46.46,0,0,1,.22-.51l4.35-3.53A2.5,2.5,0,0,1,4.83,13.59Zm9-12.73A8.48,8.48,0,0,0,4.57,8.39a8.53,8.53,0,0,0,17,1.67A8.47,8.47,0,0,0,13.86.86Zm5.29,21.57,0-.26c.09-.86.17-1.72.25-2.59,0-.37.19-.49.57-.46l2.68.26h.19l-3.11-3.7a9.61,9.61,0,0,1-4.21,2.44ZM5.3,14.34l-3.72,3,2.82.27c.37,0,.5.19.46.54l-.24,2.54,0,.28,4.34-3.52A9.45,9.45,0,0,1,5.3,14.34Z" fill="#fff"/><path d="M5.37,8.48A7.73,7.73,0,0,1,20.76,10,7.73,7.73,0,0,1,5.37,8.48ZM19.94,9.85A6.91,6.91,0,0,0,6.19,8.55a6.91,6.91,0,0,0,13.75,1.3Z" fill="#fff"/><path d="M10.48,7.76c.4,0,.81.07,1.21.12A.27.27,0,0,0,12,7.69L13,5.59c.09-.22.21-.39.48-.36s.34.22.39.44c.17.75.35,1.5.52,2.26a.26.26,0,0,0,.27.23l2.47.23c.24,0,.43.09.48.33s-.08.39-.29.5c-.71.38-1.41.78-2.13,1.15-.16.09-.18.17-.14.34.17.7.33,1.41.5,2.11.06.22.07.42-.15.56s-.41,0-.59-.12c-.58-.48-1.18-.95-1.75-1.45a.32.32,0,0,0-.44,0l-2,1.1a.45.45,0,0,1-.58,0A.44.44,0,0,1,10,12.3c.3-.67.6-1.34.91-2a.23.23,0,0,0-.09-.33L8.93,8.44c-.18-.15-.32-.31-.22-.56s.32-.26.55-.24Z" fill="#fff"/></svg>