<svg width="214" height="19" viewBox="0 0 214 19" fill="none" xmlns="http://www.w3.org/2000/svg">
<path d="M4.2002 14.8999C3.2002 14.8999 2.2002 14.5999 1.1002 14.0999C0.900197 13.9999 0.700195 13.6999 0.700195 13.4999C0.700195 13.3999 0.700195 13.3999 0.700195 13.2999C0.700195 13.0999 0.8002 12.8999 0.9002 12.6999L1.1002 12.3999C1.3002 12.1999 1.5002 11.9999 1.8002 11.9999C1.9002 11.9999 1.9002 11.9999 2.0002 11.9999C2.2002 11.9999 2.4002 12.0999 2.6002 12.1999C3.2002 12.4999 3.8002 12.6999 4.3002 12.6999C5.1002 12.6999 5.5002 12.3999 5.5002 11.8999C5.5002 11.7999 5.5002 11.6999 5.4002 11.6999C5.3002 11.6999 5.3002 11.5999 5.2002 11.4999C5.1002 11.3999 5.0002 11.3999 5.0002 11.2999C4.9002 11.1999 4.8002 11.1999 4.7002 11.0999C4.5002 10.9999 4.4002 10.9999 4.3002 10.8999C4.2002 10.8999 4.1002 10.7999 3.9002 10.6999C3.7002 10.5999 3.6002 10.5999 3.5002 10.4999C3.2002 10.3999 2.8002 10.1999 2.6002 10.0999C2.4002 9.99991 2.0002 9.79991 1.8002 9.49991C1.6002 9.19991 1.3002 8.99992 1.2002 8.69992C1.0002 8.39992 1.0002 7.99991 1.0002 7.59991C1.0002 6.59991 1.4002 5.8999 2.1002 5.2999C2.8002 4.6999 3.8002 4.3999 4.9002 4.3999C5.9002 4.3999 6.8002 4.59991 7.7002 5.09991C7.9002 5.19991 8.1002 5.39992 8.1002 5.69992C8.1002 5.79992 8.1002 5.7999 8.1002 5.8999C8.1002 6.0999 8.0002 6.29991 7.9002 6.49991L7.7002 6.69992C7.5002 6.89992 7.3002 7.09991 7.0002 7.09991C6.9002 7.09991 6.8002 7.09991 6.8002 7.09991C6.6002 7.09991 6.4002 7.09991 6.2002 6.99991C5.8002 6.79991 5.4002 6.69992 5.0002 6.69992C4.3002 6.69992 3.9002 6.8999 3.9002 7.3999C3.9002 7.4999 3.9002 7.49991 3.9002 7.59991C3.9002 7.69991 4.0002 7.6999 4.0002 7.7999C4.0002 7.8999 4.1002 7.8999 4.1002 7.8999C4.1002 7.8999 4.2002 7.99991 4.3002 7.99991C4.4002 7.99991 4.5002 8.09991 4.5002 8.09991C4.6002 8.09991 4.7002 8.19992 4.8002 8.19992C4.9002 8.19992 5.0002 8.2999 5.1002 8.2999C5.2002 8.2999 5.3002 8.3999 5.4002 8.3999C5.5002 8.3999 5.7002 8.49991 5.7002 8.49991C6.1002 8.59991 6.4002 8.7999 6.7002 8.8999C7.0002 8.9999 7.2002 9.19991 7.5002 9.49991C7.8002 9.79991 8.0002 9.9999 8.1002 10.3999C8.2002 10.6999 8.3002 11.0999 8.3002 11.5999C8.3002 12.5999 7.9002 13.3999 7.2002 13.9999C6.5002 14.5999 5.5002 14.8999 4.2002 14.8999Z" stroke="black" stroke-width="0.5983"/>
<path d="M14.1998 14.8999C12.9998 14.8999 12.0998 14.5999 11.4998 13.7999C10.8998 13.0999 10.5998 12.0999 10.5998 10.8999V7.09991C10.5998 6.99991 10.5998 6.99991 10.4998 6.99991H10.2998C9.9998 6.99991 9.7998 6.89992 9.5998 6.69992C9.3998 6.49992 9.2998 6.29991 9.2998 5.99991V5.69992C9.2998 5.39992 9.3998 5.1999 9.5998 4.8999C9.7998 4.6999 9.9998 4.59991 10.2998 4.49991H10.6998C10.7998 4.49991 10.7998 4.3999 10.8998 4.3999L11.0998 2.8999C11.0998 2.5999 11.2998 2.39992 11.4998 2.19992C11.6998 1.99992 11.9998 1.8999 12.2998 1.8999H12.8998C13.1998 1.8999 13.3998 1.99992 13.5998 2.19992C13.7998 2.39992 13.8998 2.5999 13.8998 2.8999V4.3999C13.8998 4.4999 13.8998 4.49991 13.9998 4.49991H15.1998C15.4998 4.49991 15.6998 4.5999 15.8998 4.7999C16.0998 4.9999 16.1998 5.19991 16.1998 5.49991V5.8999C16.1998 6.1999 16.0998 6.39991 15.8998 6.59991C15.6998 6.79991 15.4998 6.8999 15.1998 6.8999H13.9998C13.8998 6.8999 13.8998 6.89991 13.8998 6.99991V10.6999C13.8998 11.6999 14.2998 12.1999 15.0998 12.2999C15.3998 12.2999 15.5998 12.3999 15.8998 12.4999C16.0998 12.5999 16.2998 12.7999 16.2998 13.0999L16.3998 13.3999C16.3998 13.4999 16.3998 13.5999 16.3998 13.6999C16.3998 13.8999 16.2998 14.0999 16.1998 14.1999C15.9998 14.4999 15.7998 14.5999 15.5998 14.6999C15.0998 14.8999 14.5998 14.8999 14.1998 14.8999Z" stroke="black" stroke-width="0.5983"/>
<path d="M22.5004 14.8998C21.0004 14.8998 19.8004 14.3998 18.8004 13.4998C17.8004 12.5998 17.4004 11.2998 17.4004 9.59982C17.4004 8.79982 17.5004 8.09981 17.8004 7.39981C18.1004 6.69981 18.4004 6.19983 18.9004 5.69983C19.3004 5.29983 19.9004 4.89983 20.4004 4.69983C21.0004 4.49983 21.6004 4.2998 22.2004 4.2998C23.6004 4.2998 24.7004 4.79983 25.4004 5.69983C26.1004 6.59983 26.5004 7.79983 26.5004 9.19983C26.5004 9.29983 26.5004 9.39982 26.5004 9.49982C26.5004 9.79982 26.4004 9.99983 26.1004 10.1998C25.9004 10.3998 25.6004 10.4998 25.3004 10.4998H20.5004H20.4004V10.5998C20.7004 11.7998 21.5004 12.3998 22.9004 12.3998C23.3004 12.3998 23.7004 12.2998 24.1004 12.1998C24.2004 12.1998 24.4004 12.0998 24.5004 12.0998C24.6004 12.0998 24.8004 12.0998 24.9004 12.1998C25.2004 12.2998 25.4004 12.3998 25.5004 12.6998L25.6004 12.7998C25.7004 12.9998 25.8004 13.0998 25.8004 13.2998C25.8004 13.3998 25.8004 13.4998 25.7004 13.5998C25.6004 13.8998 25.5004 14.0998 25.2004 14.1998C24.3004 14.6998 23.4004 14.8998 22.5004 14.8998ZM20.4004 8.39981C20.4004 8.49981 20.4004 8.49982 20.5004 8.49982H23.7004C23.8004 8.49982 23.8004 8.49981 23.8004 8.39981C23.8004 7.89981 23.6004 7.49983 23.4004 7.19983C23.1004 6.89983 22.7004 6.7998 22.2004 6.7998C21.7004 6.7998 21.4004 6.89983 21.0004 7.19983C20.6004 7.49983 20.4004 7.89981 20.4004 8.39981Z" stroke="black" stroke-width="0.5983"/>
<path d="M29.5 18.3999C29.2 18.3999 29 18.2999 28.8 18.0999C28.6 17.8999 28.5 17.6999 28.5 17.3999V5.59991C28.5 5.29991 28.6 5.0999 28.8 4.8999C29 4.6999 29.2 4.59991 29.5 4.59991H30.2C30.5 4.59991 30.7 4.6999 30.9 4.8999C31.1 5.0999 31.2 5.29991 31.3 5.49991V5.59991C31.3 5.59991 31.3 5.59991 31.4 5.59991C32.3 4.79991 33.3 4.3999 34.2 4.3999C35.4 4.3999 36.4 4.8999 37.1 5.7999C37.8 6.6999 38.2 7.99991 38.2 9.49991C38.2 10.2999 38.1 11.0999 37.8 11.7999C37.5 12.4999 37.2 13.0999 36.8 13.4999C36.4 13.9999 35.9 14.2999 35.4 14.4999C34.9 14.6999 34.4 14.8999 33.8 14.8999C33 14.8999 32.2 14.5999 31.5 13.8999C31.5 13.8999 31.5 13.8999 31.4 13.8999L31.5 15.3999V17.2999C31.5 17.5999 31.4 17.7999 31.2 17.9999C31 18.1999 30.8 18.2999 30.5 18.2999H29.5V18.3999ZM33.2 12.3999C33.7 12.3999 34.1 12.1999 34.5 11.6999C34.8 11.1999 35 10.4999 35 9.59991C35 8.69991 34.9 8.09991 34.6 7.59991C34.3 7.19991 33.9 6.99991 33.4 6.99991C32.9 6.99991 32.4 7.19992 31.9 7.69992C31.8 7.79992 31.8 7.7999 31.8 7.8999V11.6999C31.8 11.7999 31.8 11.8999 31.9 11.8999C32.2 12.1999 32.7 12.3999 33.2 12.3999Z" stroke="black" stroke-width="0.5983"/>
<path d="M41.9006 14.8999C41.4006 14.8999 40.9006 14.6999 40.6006 14.2999C40.3006 13.8999 40.1006 13.4999 40.1006 12.8999C40.1006 12.2999 40.3006 11.8999 40.6006 11.4999C40.9006 11.0999 41.4006 10.8999 41.9006 10.8999C42.4006 10.8999 42.9006 11.0999 43.3006 11.4999C43.7006 11.8999 43.8006 12.2999 43.8006 12.8999C43.8006 13.4999 43.6006 13.8999 43.3006 14.2999C43.0006 14.6999 42.4006 14.8999 41.9006 14.8999Z" stroke="black" stroke-width="0.5983"/>
<path d="M53.8002 13.0999C52.9002 14.2999 51.8002 14.8999 50.4002 14.8999C49.0002 14.8999 47.8002 14.2999 47.0002 13.0999C46.2002 11.8999 45.7002 10.1999 45.7002 7.99994C45.7002 5.79994 46.1002 4.09993 47.0002 2.89993C47.8002 1.69993 49.0002 1.19995 50.4002 1.19995C51.8002 1.19995 53.0002 1.79993 53.8002 2.89993C54.6002 3.99993 55.1002 5.69993 55.1002 7.89993C55.1002 10.1999 54.7002 11.8999 53.8002 13.0999ZM49.7002 12.2999C49.9002 12.3999 50.1002 12.4999 50.4002 12.4999C50.7002 12.4999 50.9002 12.3999 51.1002 12.2999C51.3002 12.1999 51.5002 11.8999 51.6002 11.5999C51.8002 11.2999 51.9002 10.8 52.0002 10.2C52.1002 9.59995 52.1002 8.89994 52.1002 7.99994C52.1002 7.09994 52.1002 6.39993 52.0002 5.79993C51.9002 5.19993 51.8002 4.79994 51.6002 4.49994C51.4002 4.19994 51.3002 3.99993 51.1002 3.89993C50.9002 3.79993 50.7002 3.69995 50.4002 3.69995C50.1002 3.69995 49.9002 3.79993 49.7002 3.89993C49.5002 3.99993 49.3002 4.19994 49.2002 4.49994C49.1002 4.79994 48.9002 5.19993 48.8002 5.79993C48.7002 6.39993 48.7002 7.09994 48.7002 7.99994C48.7002 8.89994 48.7002 9.59995 48.8002 10.2C48.9002 10.8 49.0002 11.2999 49.2002 11.5999C49.3002 11.8999 49.5002 12.1999 49.7002 12.2999Z" stroke="black" stroke-width="0.5983"/>
<path d="M57.4004 13.9998C57.2004 13.7998 57.0004 13.5998 57.0004 13.2998C57.0004 12.9998 57.1004 12.7998 57.3004 12.5998L57.6004 12.2998C57.8004 12.0998 58.0004 11.9998 58.3004 11.9998H58.4004C58.6004 11.9998 58.9004 12.0998 59.1004 12.1998C59.5004 12.3998 59.9004 12.4998 60.3004 12.4998C61.9004 12.4998 62.7004 11.2998 62.8004 8.7998C62.5004 9.1998 62.1004 9.49983 61.6004 9.69983C61.1004 9.89983 60.7004 9.99982 60.3004 9.99982C59.1004 9.99982 58.2004 9.69981 57.5004 8.89981C56.8004 8.19981 56.4004 7.1998 56.4004 5.7998C56.4004 4.3998 56.8004 3.29982 57.7004 2.49982C58.5004 1.69982 59.6004 1.2998 60.8004 1.2998C61.4004 1.2998 62.1004 1.39983 62.6004 1.69983C63.2004 1.99983 63.7004 2.29981 64.2004 2.89981C64.7004 3.49981 65.0004 4.09982 65.3004 4.99982C65.6004 5.89982 65.7004 6.89982 65.7004 8.09982C65.7004 9.29982 65.6004 10.2998 65.3004 11.1998C65.0004 12.0998 64.6004 12.8998 64.1004 13.3998C63.6004 13.9998 63.1004 14.3998 62.4004 14.6998C61.8004 14.9998 61.1004 15.0998 60.4004 15.0998C59.4004 14.8998 58.3004 14.5998 57.4004 13.9998ZM61.0004 7.59982C61.7004 7.59982 62.3004 7.19982 62.8004 6.49982C62.8004 6.39982 62.9004 6.2998 62.9004 6.2998C62.7004 4.4998 62.0004 3.59982 61.0004 3.59982C60.5004 3.59982 60.2004 3.79982 59.9004 4.09982C59.6004 4.39982 59.5004 4.99983 59.5004 5.69983C59.5004 6.39983 59.6004 6.89983 59.9004 7.19983C60.1004 7.49983 60.5004 7.59982 61.0004 7.59982Z" stroke="black" stroke-width="0.5983"/>
<path d="M78.0996 8.1999C105.9 7.7999 133.7 7.49989 161.5 7.09989C179 6.89989 196.6 6.59989 213.9 9.59989" stroke="#4D4D4D" stroke-width="0.5983" stroke-miterlimit="10"/>
</svg>
