<svg width="175" height="19" viewBox="0 0 175 19" fill="none" xmlns="http://www.w3.org/2000/svg">
<path d="M4.40039 14.8999C3.40039 14.8999 2.40038 14.5999 1.30038 14.0999C1.10038 13.9999 0.900391 13.6999 0.900391 13.4999C0.900391 13.3999 0.900391 13.3999 0.900391 13.2999C0.900391 13.0999 1.0004 12.8999 1.1004 12.6999L1.30038 12.3999C1.50038 12.1999 1.7004 11.9999 2.0004 11.9999C2.1004 11.9999 2.10041 11.9999 2.20041 11.9999C2.40041 11.9999 2.60038 12.0999 2.80038 12.1999C3.40038 12.4999 4.0004 12.6999 4.5004 12.6999C5.3004 12.6999 5.70041 12.3999 5.70041 11.8999C5.70041 11.7999 5.7004 11.6999 5.6004 11.6999C5.5004 11.6999 5.50039 11.5999 5.40039 11.4999C5.30039 11.3999 5.20041 11.3999 5.20041 11.2999C5.10041 11.1999 5.00039 11.1999 4.90039 11.0999C4.70039 10.9999 4.6004 10.9999 4.5004 10.8999C4.4004 10.8999 4.3004 10.7999 4.1004 10.6999C3.9004 10.5999 3.80041 10.5999 3.70041 10.4999C3.40041 10.3999 3.00038 10.1999 2.80038 10.0999C2.60038 9.99991 2.2004 9.79991 2.0004 9.49991C1.8004 9.19991 1.50039 8.99992 1.40039 8.69992C1.20039 8.39992 1.20041 7.99991 1.20041 7.59991C1.20041 6.59991 1.60038 5.8999 2.30038 5.2999C3.00038 4.6999 4.0004 4.3999 5.1004 4.3999C6.1004 4.3999 7.00039 4.59991 7.90039 5.09991C8.10039 5.19991 8.30038 5.39992 8.30038 5.69992C8.30038 5.79992 8.30038 5.7999 8.30038 5.8999C8.30038 6.0999 8.2004 6.29991 8.1004 6.49991L7.90039 6.69992C7.70039 6.89992 7.50041 7.09991 7.20041 7.09991C7.10041 7.09991 7.0004 7.09991 7.0004 7.09991C6.8004 7.09991 6.60039 7.09991 6.40039 6.99991C6.00039 6.79991 5.60041 6.69992 5.20041 6.69992C4.50041 6.69992 4.1004 6.8999 4.1004 7.3999C4.1004 7.4999 4.1004 7.49991 4.1004 7.59991C4.1004 7.69991 4.20041 7.6999 4.20041 7.7999C4.20041 7.8999 4.30038 7.8999 4.30038 7.8999C4.30038 7.8999 4.4004 7.99991 4.5004 7.99991C4.6004 7.99991 4.70041 8.09991 4.70041 8.09991C4.80041 8.09991 4.9004 8.19992 5.0004 8.19992C5.1004 8.19992 5.20038 8.2999 5.30038 8.2999C5.40038 8.2999 5.5004 8.3999 5.6004 8.3999C5.7004 8.3999 5.90039 8.49991 5.90039 8.49991C6.30039 8.59991 6.60039 8.7999 6.90039 8.8999C7.20039 8.9999 7.40041 9.19991 7.70041 9.49991C8.00041 9.79991 8.20038 9.9999 8.30038 10.3999C8.40038 10.6999 8.5004 11.0999 8.5004 11.5999C8.5004 12.5999 8.10039 13.3999 7.40039 13.9999C6.70039 14.5999 5.80039 14.8999 4.40039 14.8999Z" stroke="black" stroke-width="0.5983"/>
<path d="M14.4 14.8999C13.2 14.8999 12.3 14.5999 11.7 13.7999C11.1 13.0999 10.8 12.0999 10.8 10.8999V7.09991C10.8 6.99991 10.8 6.99991 10.7 6.99991H10.5C10.2 6.99991 9.99999 6.89992 9.79999 6.69992C9.59999 6.49992 9.5 6.29991 9.5 5.99991V5.69992C9.5 5.39992 9.59999 5.1999 9.79999 4.8999C9.99999 4.6999 10.2 4.59991 10.5 4.49991H10.9C11 4.49991 11 4.3999 11.1 4.3999L11.3 2.8999C11.3 2.5999 11.5 2.39992 11.7 2.19992C11.9 1.99992 12.2 1.8999 12.5 1.8999H13.1C13.4 1.8999 13.6 1.99992 13.8 2.19992C14 2.39992 14.1 2.5999 14.1 2.8999V4.3999C14.1 4.4999 14.1 4.49991 14.2 4.49991H15.4C15.7 4.49991 15.9 4.5999 16.1 4.7999C16.3 4.9999 16.4 5.19991 16.4 5.49991V5.8999C16.4 6.1999 16.3 6.39991 16.1 6.59991C15.9 6.79991 15.7 6.8999 15.4 6.8999H14.2C14.1 6.8999 14.1 6.89991 14.1 6.99991V10.6999C14.1 11.6999 14.5 12.1999 15.3 12.2999C15.6 12.2999 15.8 12.3999 16.1 12.4999C16.3 12.5999 16.5 12.7999 16.5 13.0999L16.6 13.3999C16.6 13.4999 16.6 13.5999 16.6 13.6999C16.6 13.8999 16.5 14.0999 16.4 14.1999C16.2 14.4999 16 14.5999 15.8 14.6999C15.3 14.8999 14.9 14.8999 14.4 14.8999Z" stroke="black" stroke-width="0.5983"/>
<path d="M22.8002 14.8998C21.3002 14.8998 20.1002 14.3998 19.1002 13.4998C18.1002 12.5998 17.7002 11.2998 17.7002 9.59982C17.7002 8.79982 17.8002 8.09981 18.1002 7.39981C18.4002 6.69981 18.7002 6.19983 19.2002 5.69983C19.6002 5.29983 20.2002 4.89983 20.7002 4.69983C21.3002 4.49983 21.9002 4.2998 22.5002 4.2998C23.9002 4.2998 25.0002 4.79983 25.7002 5.69983C26.4002 6.59983 26.8002 7.79983 26.8002 9.19983C26.8002 9.29983 26.8002 9.39982 26.8002 9.49982C26.8002 9.79982 26.7002 9.99983 26.4002 10.1998C26.2002 10.3998 25.9002 10.4998 25.6002 10.4998H20.8002H20.7002V10.5998C21.0002 11.7998 21.8002 12.3998 23.2002 12.3998C23.6002 12.3998 24.0002 12.2998 24.4002 12.1998C24.5002 12.1998 24.7002 12.0998 24.8002 12.0998C24.9002 12.0998 25.1002 12.0998 25.2002 12.1998C25.5002 12.2998 25.7002 12.3998 25.8002 12.6998L25.9002 12.7998C26.0002 12.9998 26.1002 13.0998 26.1002 13.2998C26.1002 13.3998 26.1002 13.4998 26.0002 13.5998C25.9002 13.8998 25.8002 14.0998 25.5002 14.1998C24.6002 14.6998 23.7002 14.8998 22.8002 14.8998ZM20.6002 8.39981C20.6002 8.49981 20.6002 8.49982 20.7002 8.49982H23.9002C24.0002 8.49982 24.0002 8.49981 24.0002 8.39981C24.0002 7.89981 23.8002 7.49983 23.6002 7.19983C23.3002 6.89983 22.9002 6.7998 22.4002 6.7998C21.9002 6.7998 21.6002 6.89983 21.2002 7.19983C20.9002 7.49983 20.6002 7.89981 20.6002 8.39981Z" stroke="black" stroke-width="0.5983"/>
<path d="M29.8008 18.3999C29.5008 18.3999 29.3008 18.2999 29.1008 18.0999C28.9008 17.8999 28.8008 17.6999 28.8008 17.3999V5.59991C28.8008 5.29991 28.9008 5.0999 29.1008 4.8999C29.3008 4.6999 29.5008 4.59991 29.8008 4.59991H30.5008C30.8008 4.59991 31.0008 4.6999 31.2008 4.8999C31.4008 5.0999 31.5008 5.29991 31.6008 5.49991V5.59991C31.6008 5.59991 31.6008 5.59991 31.7008 5.59991C32.6008 4.79991 33.6008 4.3999 34.5008 4.3999C35.7008 4.3999 36.7008 4.8999 37.4008 5.7999C38.1008 6.6999 38.5008 7.99991 38.5008 9.49991C38.5008 10.2999 38.4008 11.0999 38.1008 11.7999C37.8008 12.4999 37.5008 13.0999 37.1008 13.4999C36.7008 13.9999 36.2008 14.2999 35.7008 14.4999C35.2008 14.6999 34.7008 14.8999 34.1008 14.8999C33.3008 14.8999 32.5008 14.5999 31.8008 13.8999C31.8008 13.8999 31.8008 13.8999 31.7008 13.8999L31.8008 15.3999V17.2999C31.8008 17.5999 31.7008 17.7999 31.5008 17.9999C31.3008 18.1999 31.1008 18.2999 30.8008 18.2999H29.8008V18.3999ZM33.4008 12.3999C33.9008 12.3999 34.3008 12.1999 34.7008 11.6999C35.0008 11.1999 35.2008 10.4999 35.2008 9.59991C35.2008 8.69991 35.1008 8.09991 34.8008 7.59991C34.5008 7.19991 34.1008 6.99991 33.6008 6.99991C33.1008 6.99991 32.6008 7.19992 32.1008 7.69992C32.0008 7.79992 32.0008 7.7999 32.0008 7.8999V11.6999C32.0008 11.7999 32.0008 11.8999 32.1008 11.8999C32.4008 12.1999 32.9008 12.3999 33.4008 12.3999Z" stroke="black" stroke-width="0.5983"/>
<path d="M42.1008 14.8999C41.6008 14.8999 41.1008 14.6999 40.8008 14.2999C40.5008 13.8999 40.3008 13.4999 40.3008 12.8999C40.3008 12.2999 40.5008 11.8999 40.8008 11.4999C41.1008 11.0999 41.6008 10.8999 42.1008 10.8999C42.6008 10.8999 43.1008 11.0999 43.5008 11.4999C43.9008 11.8999 44.0008 12.2999 44.0008 12.8999C44.0008 13.4999 43.8008 13.8999 43.5008 14.2999C43.2008 14.6999 42.7008 14.8999 42.1008 14.8999Z" stroke="black" stroke-width="0.5983"/>
<path d="M47.7002 14.6999C47.4002 14.6999 47.2002 14.5998 47.0002 14.3998C46.8002 14.1998 46.7002 13.9999 46.7002 13.6999V13.1999C46.7002 12.8999 46.8002 12.6998 47.0002 12.4998C47.2002 12.2998 47.4002 12.1999 47.7002 12.1999H49.3002C49.4002 12.1999 49.4002 12.1999 49.4002 12.0999V4.79984C49.4002 4.69984 49.4002 4.69986 49.3002 4.69986H48.0002C47.7002 4.69986 47.5002 4.59984 47.3002 4.39984C47.1002 4.19984 47.0002 3.99986 47.0002 3.69986C47.0002 3.39986 47.1002 3.19985 47.3002 2.99985C47.5002 2.79985 47.7002 2.59985 48.0002 2.59985C48.5002 2.49985 49.0002 2.29985 49.4002 2.09985C50.1002 1.79985 50.7002 1.59985 51.3002 1.59985H51.6002C51.9002 1.59985 52.1002 1.69984 52.3002 1.89984C52.5002 2.09984 52.6002 2.29985 52.6002 2.59985V12.0999C52.6002 12.1999 52.6002 12.1999 52.7002 12.1999H53.9002C54.2002 12.1999 54.4002 12.2998 54.6002 12.4998C54.8002 12.6998 54.9002 12.8999 54.9002 13.1999V13.6999C54.9002 13.9999 54.8002 14.1998 54.6002 14.3998C54.4002 14.5998 54.2002 14.6999 53.9002 14.6999H47.7002Z" stroke="black" stroke-width="0.5983"/>
<path d="M64.9008 13.0999C64.0008 14.2999 62.9008 14.8999 61.5008 14.8999C60.1008 14.8999 58.9008 14.2999 58.1008 13.0999C57.3008 11.8999 56.8008 10.1999 56.8008 7.99994C56.8008 5.79994 57.2008 4.09993 58.1008 2.89993C58.9008 1.69993 60.1008 1.19995 61.5008 1.19995C62.9008 1.19995 64.1008 1.79993 64.9008 2.89993C65.7008 3.99993 66.2008 5.69993 66.2008 7.89993C66.2008 10.1999 65.7008 11.8999 64.9008 13.0999ZM60.8008 12.2999C61.0008 12.3999 61.2008 12.4999 61.5008 12.4999C61.8008 12.4999 62.0008 12.3999 62.2008 12.2999C62.4008 12.1999 62.6008 11.8999 62.7008 11.5999C62.9008 11.2999 63.0008 10.8 63.1008 10.2C63.2008 9.59995 63.2008 8.89994 63.2008 7.99994C63.2008 7.09994 63.2008 6.39993 63.1008 5.79993C63.0008 5.19993 62.9008 4.79994 62.7008 4.49994C62.5008 4.19994 62.4008 3.99993 62.2008 3.89993C62.0008 3.79993 61.8008 3.69995 61.5008 3.69995C61.2008 3.69995 61.0008 3.79993 60.8008 3.89993C60.6008 3.99993 60.4008 4.19994 60.3008 4.49994C60.2008 4.79994 60.0008 5.19993 59.9008 5.79993C59.8008 6.39993 59.8008 7.09994 59.8008 7.99994C59.8008 8.89994 59.8008 9.59995 59.9008 10.2C60.0008 10.8 60.1008 11.2999 60.3008 11.5999C60.4008 11.8999 60.6008 12.1999 60.8008 12.2999Z" stroke="black" stroke-width="0.5983"/>
<path d="M82.2998 7.90005C101.8 2.60005 122.4 3.70005 142.6 4.90005C153.4 5.50005 164.1 6.20004 174.9 6.80004" stroke="#4D4D4D" stroke-width="0.5983" stroke-miterlimit="10"/>
</svg>
