<svg width="36" height="36" viewBox="0 0 36 36" fill="none" xmlns="http://www.w3.org/2000/svg">
<g clip-path="url(#clip0)">
<path d="M7.14192 20.529C3.57167 13.5869 6.15018 5.95049 11.7039 2.38025C17.1584 -1.28917 24.4973 -0.59496 29.2576 4.0662C33.9188 8.62818 35.0097 16.6612 30.2494 22.6116C30.3485 22.7108 30.4477 22.81 30.5469 22.9092C32.332 25.091 34.1171 27.1736 35.8031 29.3555C36.0014 29.653 36.1998 29.8513 36.0014 30.248C35.8031 30.5455 35.5056 30.5455 35.208 30.5455C33.6213 30.3472 32.0345 30.248 30.4477 30.0497C30.3485 30.0497 30.1502 30.0497 30.051 30.0497C30.051 30.248 30.051 30.3472 30.051 30.4464C29.8527 32.0331 29.7535 33.6199 29.5551 35.2067C29.5551 35.5042 29.456 35.8017 29.0593 36.0001C28.6626 36.0993 28.4642 35.9009 28.2659 35.6034C26.1832 33.0249 24.0014 30.4464 21.9188 27.8678C21.7204 27.6695 21.5221 27.5703 21.2246 27.5703C19.0427 27.8678 16.9601 27.6695 14.8775 26.9753C14.6791 26.8761 14.4808 26.9753 14.2824 27.0745C11.7039 29.1571 9.22456 31.2398 6.64605 33.4216C6.54688 33.5207 6.44771 33.5207 6.44771 33.6199C6.24936 33.8183 5.95184 33.8183 5.75349 33.7191C5.45597 33.6199 5.45597 33.3224 5.45597 33.0249C5.65432 31.4381 5.75349 29.8513 5.85266 28.3637C5.95184 28.1654 5.95184 27.967 5.95184 27.7687C5.85266 27.7687 5.65432 27.7687 5.55514 27.7687C3.96837 27.5703 2.38159 27.4712 0.794812 27.2728C0.497292 27.2728 0.199771 27.1736 0.100598 26.7769C0.001424 26.4794 0.199771 26.1819 0.398118 25.9836C2.57994 24.1984 4.66258 22.4133 6.8444 20.6282C6.94357 20.6282 7.04275 20.529 7.14192 20.529ZM20.6295 1.28934C13.6874 0.595123 7.53861 5.75215 6.8444 12.6943C6.15018 19.6364 11.3072 25.8844 18.2494 26.4794C25.0923 27.1736 31.3403 22.0166 32.0345 15.1736C32.6295 8.13231 27.5717 1.98355 20.6295 1.28934ZM28.3651 33.7191C28.3651 33.6199 28.3651 33.4216 28.3651 33.3224C28.4642 32.0331 28.5634 30.7439 28.7618 29.4546C28.8609 28.8596 29.0593 28.6612 29.6543 28.7604C30.9436 28.8596 32.332 29.0579 33.6213 29.1571C33.7204 29.1571 33.8196 29.1571 33.9188 29.1571C32.4312 27.2728 30.8444 25.4877 29.3568 23.6034C27.5717 25.3885 25.489 26.5786 23.1089 27.2728C24.7948 29.4546 26.5799 31.5373 28.3651 33.7191ZM7.83614 21.6199C5.95184 23.2067 4.16671 24.6943 2.28242 26.1819C3.67085 26.2811 5.05928 26.4794 6.44771 26.5786C6.94357 26.6778 7.14192 26.8761 7.14192 27.372C7.04275 28.6612 6.94357 29.9505 6.74523 31.2397C6.74523 31.4381 6.74523 31.5373 6.74523 31.6364C8.92704 29.8513 11.0097 28.0662 13.1915 26.2811C11.0097 25.1902 9.22456 23.6034 7.83614 21.6199Z" fill="#CE801E"/>
<path d="M7.93402 12.793C8.52906 6.44586 14.182 1.88388 20.5291 2.47892C26.777 3.07396 31.4382 8.72685 30.8431 14.9748C30.2481 21.3219 24.5952 25.8839 18.2481 25.2888C12.0001 24.6938 7.33898 19.0409 7.93402 12.793ZM29.5539 14.7764C30.0497 9.12355 25.9836 4.16487 20.3307 3.669C14.777 3.17313 9.71915 7.33842 9.22328 12.8921C8.72741 18.545 12.7935 23.5037 18.4464 24.0988C24.0993 24.5946 29.058 20.4293 29.5539 14.7764Z" fill="#CE801E"/>
<path d="M15.5705 11.7021C16.1655 11.8013 16.7605 11.8013 17.3556 11.9005C17.6531 11.9005 17.7523 11.9005 17.8515 11.6029C18.3473 10.512 18.744 9.52029 19.2399 8.42938C19.3391 8.13186 19.5374 7.83434 19.9341 7.93352C20.3308 7.93352 20.43 8.23104 20.5291 8.62773C20.8267 9.71864 21.025 10.9087 21.3225 11.9996C21.4217 12.198 21.4217 12.2972 21.7192 12.2972C22.9093 12.3963 24.1986 12.4955 25.3886 12.5947C25.6862 12.5947 25.9837 12.6938 26.0829 13.0905C26.182 13.4872 25.9837 13.6856 25.6862 13.8839C24.5953 14.479 23.6035 15.074 22.5126 15.6691C22.3143 15.7682 22.2151 15.9666 22.3143 16.1649C22.6118 17.2558 22.8101 18.2476 23.1077 19.3385C23.2068 19.636 23.2068 19.9335 22.9093 20.1319C22.6118 20.3302 22.3143 20.231 22.0167 19.9335C21.1242 19.2393 20.2316 18.5451 19.4382 17.7517C19.2399 17.5534 19.0415 17.5534 18.744 17.7517C17.7523 18.3467 16.7605 18.8426 15.7688 19.4376C15.4713 19.636 15.1738 19.7352 14.8762 19.4376C14.5787 19.1401 14.6779 18.8426 14.7771 18.5451C15.2729 17.5534 15.6696 16.5616 16.1655 15.5699C16.2647 15.3715 16.2647 15.2724 16.0663 15.074C15.1738 14.2806 14.2812 13.5864 13.2895 12.793C12.9919 12.5947 12.7936 12.2972 12.992 11.9996C13.1903 11.6029 13.4878 11.6029 13.7853 11.6029C14.3804 11.6029 14.9754 11.6029 15.5705 11.7021Z" fill="#CE801E"/>
</g>
<defs>
<clipPath id="clip0">
<rect width="36" height="36" fill="white"/>
</clipPath>
</defs>
</svg>
