<svg width="171" height="18" viewBox="0 0 171 18" fill="none" xmlns="http://www.w3.org/2000/svg">
<path d="M3.90039 14C2.90039 14 1.90038 13.7 0.800385 13.2C0.600385 13.1 0.400391 12.8 0.400391 12.6C0.400391 12.5 0.400391 12.5 0.400391 12.4C0.400391 12.2 0.500403 12 0.600403 11.8L0.800385 11.5C1.00038 11.3 1.2004 11.1 1.5004 11.1C1.6004 11.1 1.60041 11.1 1.70041 11.1C1.90041 11.1 2.10038 11.2 2.30038 11.3C2.90038 11.6 3.5004 11.8 4.0004 11.8C4.8004 11.8 5.20041 11.5 5.20041 11C5.20041 10.9 5.2004 10.8 5.1004 10.8C5.0004 10.8 5.00039 10.7 4.90039 10.6C4.80039 10.5 4.70041 10.5 4.70041 10.4C4.60041 10.3 4.50039 10.3 4.40039 10.2C4.20039 10.1 4.1004 10.1 4.0004 10C3.9004 10 3.8004 9.9 3.6004 9.8C3.4004 9.7 3.30041 9.7 3.20041 9.6C2.90041 9.5 2.50038 9.3 2.30038 9.2C2.10038 9.1 1.7004 8.9 1.5004 8.6C1.3004 8.3 1.00039 8.1 0.900391 7.8C0.700391 7.5 0.700409 7.1 0.700409 6.7C0.700409 5.7 1.10038 5 1.80038 4.4C2.50038 3.8 3.5004 3.5 4.6004 3.5C5.6004 3.5 6.50039 3.7 7.40039 4.2C7.60039 4.3 7.80038 4.5 7.80038 4.8C7.80038 4.9 7.80038 4.9 7.80038 5C7.80038 5.2 7.7004 5.4 7.6004 5.6L7.40039 5.8C7.20039 6 7.00041 6.2 6.70041 6.2C6.60041 6.2 6.5004 6.2 6.5004 6.2C6.3004 6.2 6.10039 6.2 5.90039 6.1C5.50039 5.9 5.10041 5.8 4.70041 5.8C4.00041 5.8 3.6004 6 3.6004 6.5C3.6004 6.6 3.6004 6.6 3.6004 6.7C3.6004 6.8 3.70041 6.8 3.70041 6.9C3.70041 7 3.80038 7 3.80038 7C3.80038 7 3.9004 7.1 4.0004 7.1C4.1004 7.1 4.20041 7.2 4.20041 7.2C4.30041 7.2 4.4004 7.3 4.5004 7.3C4.6004 7.3 4.70038 7.4 4.80038 7.4C4.90038 7.4 5.0004 7.5 5.1004 7.5C5.2004 7.5 5.40039 7.6 5.40039 7.6C5.80039 7.7 6.10039 7.9 6.40039 8C6.70039 8.1 6.90041 8.3 7.20041 8.6C7.50041 8.9 7.70038 9.1 7.80038 9.5C7.90038 9.8 8.0004 10.2 8.0004 10.7C8.0004 11.7 7.60039 12.5 6.90039 13.1C6.20039 13.7 5.20039 14 3.90039 14Z" stroke="black" stroke-width="0.5983"/>
<path d="M13.9 14C12.7 14 11.8 13.7 11.2 12.9C10.6 12.2 10.3 11.2 10.3 10V6.3C10.3 6.2 10.3 6.2 10.2 6.2H10C9.7 6.2 9.49999 6.1 9.29999 5.9C9.09999 5.7 9 5.5 9 5.2V4.8C9 4.5 9.09999 4.3 9.29999 4C9.49999 3.8 9.7 3.7 10 3.6H10.4C10.5 3.6 10.5 3.5 10.6 3.5L10.8 2C10.8 1.7 11 1.5 11.2 1.3C11.4 1.1 11.7 1 12 1H12.6C12.9 1 13.1 1.1 13.3 1.3C13.5 1.5 13.6 1.7 13.6 2V3.5C13.6 3.6 13.6 3.6 13.7 3.6H14.9C15.2 3.6 15.4 3.7 15.6 3.9C15.8 4.1 15.9 4.3 15.9 4.6V5C15.9 5.3 15.8 5.5 15.6 5.7C15.4 5.9 15.2 6 14.9 6H13.7C13.6 6 13.6 6 13.6 6.1V10C13.6 11 14 11.5 14.8 11.6C15.1 11.6 15.3 11.7 15.6 11.8C15.8 11.9 16 12.1 16 12.4L16.1 12.7C16.1 12.8 16.1 12.9 16.1 13C16.1 13.2 16 13.4 15.9 13.5C15.7 13.8 15.5 13.9 15.3 14C14.8 14 14.4 14 13.9 14Z" stroke="black" stroke-width="0.5983"/>
<path d="M22.2006 14.0001C20.7006 14.0001 19.5006 13.5001 18.5006 12.6001C17.5006 11.7001 17.1006 10.4001 17.1006 8.70015C17.1006 7.90015 17.2006 7.20015 17.5006 6.50015C17.8006 5.80015 18.1006 5.30015 18.6006 4.80015C19.0006 4.40015 19.6006 4.00015 20.1006 3.80015C20.7006 3.60015 21.3006 3.40015 21.9006 3.40015C23.3006 3.40015 24.4006 3.90015 25.1006 4.80015C25.8006 5.70015 26.2006 6.90015 26.2006 8.30015C26.2006 8.40015 26.2006 8.50015 26.2006 8.60015C26.2006 8.90015 26.1006 9.10015 25.8006 9.30015C25.6006 9.50015 25.3006 9.60015 25.0006 9.60015H20.2006H20.1006V9.70015C20.4006 10.9001 21.2006 11.5001 22.6006 11.5001C23.0006 11.5001 23.4006 11.4001 23.8006 11.3001C23.9006 11.3001 24.1006 11.2001 24.2006 11.2001C24.3006 11.2001 24.5006 11.2001 24.6006 11.3001C24.9006 11.4001 25.1006 11.5001 25.2006 11.8001L25.3006 11.9001C25.4006 12.1001 25.5006 12.2001 25.5006 12.4001C25.5006 12.5001 25.5006 12.6001 25.4006 12.7001C25.3006 13.0001 25.2006 13.2001 24.9006 13.3001C24.1006 13.8001 23.2006 14.0001 22.2006 14.0001ZM20.1006 7.50015C20.1006 7.60015 20.1006 7.60015 20.2006 7.60015H23.4006C23.5006 7.60015 23.5006 7.60015 23.5006 7.50015C23.5006 7.00015 23.3006 6.60015 23.1006 6.30015C22.8006 6.00015 22.4006 5.90015 21.9006 5.90015C21.4006 5.90015 21.1006 6.00015 20.7006 6.30015C20.4006 6.60015 20.1006 7.00015 20.1006 7.50015Z" stroke="black" stroke-width="0.5983"/>
<path d="M29.3008 17.5C29.0008 17.5 28.8008 17.4 28.6008 17.2C28.4008 17 28.3008 16.8 28.3008 16.5V4.7C28.3008 4.4 28.4008 4.2 28.6008 4C28.8008 3.8 29.0008 3.7 29.3008 3.7H30.0008C30.3008 3.7 30.5008 3.8 30.7008 4C30.9008 4.2 31.0008 4.4 31.1008 4.6V4.7C31.1008 4.7 31.1008 4.7 31.2008 4.7C32.1008 3.9 33.1008 3.5 34.0008 3.5C35.2008 3.5 36.2008 4 36.9008 4.9C37.6008 5.8 38.0008 7.1 38.0008 8.6C38.0008 9.4 37.9008 10.2 37.6008 10.9C37.3008 11.6 37.0008 12.2 36.6008 12.6C36.2008 13.1 35.7008 13.4 35.2008 13.6C34.7008 13.8 34.2008 14 33.6008 14C32.8008 14 32.0008 13.7 31.3008 13C31.3008 13 31.3008 13 31.2008 13L31.3008 14.5V16.4C31.3008 16.7 31.2008 16.9 31.0008 17.1C30.8008 17.3 30.6008 17.4 30.3008 17.4H29.3008V17.5ZM32.9008 11.5C33.4008 11.5 33.8008 11.3 34.2008 10.8C34.5008 10.3 34.7008 9.6 34.7008 8.7C34.7008 7.8 34.6008 7.2 34.3008 6.7C34.0008 6.2 33.6008 6 33.0008 6C32.5008 6 32.0008 6.2 31.5008 6.7C31.4008 6.8 31.4008 6.8 31.4008 6.9V10.7C31.4008 10.8 31.4008 10.9 31.5008 10.9C31.9008 11.3 32.4008 11.5 32.9008 11.5Z" stroke="black" stroke-width="0.5983"/>
<path d="M41.6008 14C41.1008 14 40.6008 13.8 40.3008 13.4C40.0008 13 39.8008 12.6 39.8008 12C39.8008 11.4 40.0008 11 40.3008 10.6C40.6008 10.2 41.1008 10 41.6008 10C42.1008 10 42.6008 10.2 43.0008 10.6C43.4008 11 43.5008 11.4 43.5008 12C43.5008 12.6 43.3008 13 43.0008 13.4C42.7008 13.8 42.2008 14 41.6008 14Z" stroke="black" stroke-width="0.5983"/>
<path d="M53.6 12.2C52.7 13.4 51.6 14 50.2 14C48.8 14 47.6 13.4 46.8 12.2C46 11 45.5 9.30005 45.5 7.10005C45.5 4.90005 45.9 3.20005 46.8 2.00005C47.6 0.800049 48.8 0.300049 50.2 0.300049C51.6 0.300049 52.8 0.900049 53.6 2.00005C54.4 3.10005 54.9 4.80005 54.9 7.00005C54.8 9.30005 54.4 11 53.6 12.2ZM49.5 11.4C49.7 11.5 49.9 11.6 50.2 11.6C50.5 11.6 50.7 11.5 50.9 11.4C51.1 11.3 51.3 11 51.4 10.7C51.6 10.4 51.7 9.90005 51.8 9.30005C51.9 8.70005 51.9 8.00005 51.9 7.10005C51.9 6.20005 51.9 5.50005 51.8 4.90005C51.7 4.30005 51.6 3.90005 51.4 3.60005C51.2 3.30005 51.1 3.10005 50.9 3.00005C50.7 2.90005 50.5 2.80005 50.2 2.80005C49.9 2.80005 49.7 2.90005 49.5 3.00005C49.3 3.10005 49.1 3.30005 49 3.60005C48.9 3.90005 48.7 4.30005 48.6 4.90005C48.5 5.50005 48.5 6.20005 48.5 7.10005C48.5 8.00005 48.5 8.70005 48.6 9.30005C48.7 9.90005 48.8 10.4 49 10.7C49.1 11 49.3 11.2 49.5 11.4Z" stroke="black" stroke-width="0.5983"/>
<path d="M57.2008 13.8001C57.0008 13.8001 56.7008 13.7001 56.6008 13.5001C56.4008 13.3001 56.3008 13.1001 56.3008 12.9001C56.3008 12.3001 56.5008 11.8001 57.0008 11.4001C58.6008 9.90015 59.8008 8.60015 60.6008 7.60015C61.4008 6.50015 61.8008 5.60015 61.8008 4.70015C61.8008 4.10015 61.6008 3.60015 61.3008 3.30015C61.0008 3.00015 60.6008 2.80015 60.0008 2.80015C59.5008 2.80015 59.0008 3.00015 58.5008 3.40015C58.3008 3.60015 58.0008 3.70015 57.7008 3.70015C57.4008 3.70015 57.2008 3.60015 57.0008 3.40015L56.7008 3.10015C56.5008 2.90015 56.4008 2.70015 56.4008 2.40015C56.4008 2.10015 56.5008 1.90015 56.7008 1.70015C57.2008 1.20015 57.8008 0.900146 58.4008 0.700146C59.0008 0.500146 59.6008 0.400146 60.4008 0.400146C61.7008 0.400146 62.7008 0.800147 63.5008 1.50015C64.3008 2.30015 64.7008 3.30015 64.7008 4.50015C64.7008 6.40015 63.4008 8.60015 60.8008 11.2001C60.8008 11.2001 60.8008 11.2001 60.8008 11.3001C60.8008 11.3001 60.8008 11.3001 60.9008 11.3001C61.7008 11.2001 62.4008 11.1001 62.9008 11.1001H64.3008C64.6008 11.1001 64.8008 11.2001 65.0008 11.4001C65.2008 11.6001 65.3008 11.8001 65.3008 12.1001V12.7001C65.3008 13.0001 65.2008 13.2001 65.0008 13.4001C64.8008 13.6001 64.6008 13.7001 64.3008 13.7001H57.2008V13.8001Z" stroke="black" stroke-width="0.5983"/>
<path d="M79.2998 8.89995C109.6 13.7 140.7 13.3 170.9 7.69995" stroke="#4D4D4D" stroke-width="0.5983" stroke-miterlimit="10"/>
</svg>
