<svg width="67" height="18" viewBox="0 0 67 18" fill="none" xmlns="http://www.w3.org/2000/svg">
<path d="M4.40039 14.0001C3.40039 14.0001 2.40035 13.7001 1.30035 13.2001C1.10035 13.1001 0.900391 12.8001 0.900391 12.6001C0.900391 12.5001 0.900391 12.5001 0.900391 12.4001C0.900391 12.2001 1.00034 12.0001 1.10034 11.8001L1.30035 11.5001C1.50035 11.3001 1.70037 11.1001 2.00037 11.1001C2.10037 11.1001 2.10038 11.1001 2.20038 11.1001C2.40038 11.1001 2.60035 11.2001 2.80035 11.3001C3.40035 11.6001 4.00037 11.8001 4.50037 11.8001C5.30037 11.8001 5.70038 11.5001 5.70038 11.0001C5.70038 10.9001 5.70034 10.8001 5.60034 10.8001C5.50034 10.8001 5.50039 10.7001 5.40039 10.6001C5.30039 10.5001 5.20038 10.5001 5.20038 10.4001C5.10038 10.3001 5.00039 10.3001 4.90039 10.2001C4.70039 10.1001 4.60037 10.1001 4.50037 10.0001C4.40037 10.0001 4.30034 9.90015 4.10034 9.80015C3.90034 9.70015 3.80038 9.70015 3.70038 9.60015C3.40038 9.50015 3.00035 9.30015 2.80035 9.20015C2.60035 9.10015 2.20037 8.90015 2.00037 8.60015C1.80037 8.30015 1.50039 8.10015 1.40039 7.80015C1.10039 7.40015 1.00037 7.00015 1.00037 6.60015C1.00037 5.60015 1.40034 4.90015 2.10034 4.30015C2.80034 3.70015 3.80039 3.40015 4.90039 3.40015C5.90039 3.40015 6.80038 3.60015 7.70038 4.10015C7.90038 4.20015 8.10034 4.40015 8.10034 4.70015C8.10034 4.80015 8.10034 4.80015 8.10034 4.90015C8.10034 5.10015 8.00039 5.30015 7.90039 5.50015L7.70038 5.70015C7.50038 5.90015 7.30037 6.10015 7.00037 6.10015C6.90037 6.10015 6.80035 6.10015 6.80035 6.10015C6.60035 6.10015 6.40038 6.10015 6.20038 6.00015C5.80038 5.80015 5.40037 5.70015 5.00037 5.70015C4.30037 5.70015 3.90039 5.90015 3.90039 6.40015C3.90039 6.50015 3.90039 6.50015 3.90039 6.60015C3.90039 6.70015 4.00037 6.70015 4.00037 6.80015C4.00037 6.90015 4.10034 6.90015 4.10034 6.90015C4.10034 6.90015 4.20035 7.00015 4.30035 7.00015C4.40035 7.00015 4.50037 7.10015 4.50037 7.10015C4.60037 7.10015 4.70035 7.20015 4.80035 7.20015C4.90035 7.20015 5.00034 7.30015 5.10034 7.30015C5.20034 7.30015 5.30039 7.40015 5.40039 7.40015C5.50039 7.40015 5.70038 7.50015 5.70038 7.50015C6.10038 7.60015 6.40038 7.80015 6.70038 7.90015C7.00038 8.00015 7.20037 8.20015 7.50037 8.50015C7.80037 8.80015 8.00034 9.00015 8.10034 9.40015C8.20034 9.70015 8.30035 10.1001 8.30035 10.6001C8.30035 11.6001 7.90038 12.4001 7.20038 13.0001C6.50038 13.6001 5.70039 14.0001 4.40039 14.0001Z" stroke="black" stroke-width="0.5983"/>
<path d="M14.4 14C13.2 14 12.3 13.7 11.7 12.9C11.1 12.2 10.8 11.2 10.8 10V6.3C10.8 6.2 10.8 6.2 10.7 6.2H10.5C10.2 6.2 9.99999 6.1 9.79999 5.9C9.59999 5.7 9.5 5.5 9.5 5.2V4.8C9.5 4.5 9.59999 4.3 9.79999 4C9.99999 3.8 10.2 3.7 10.5 3.6H10.9C11 3.6 11 3.5 11.1 3.5L11.3 2C11.3 1.7 11.5 1.5 11.7 1.3C11.9 1.1 12.2 1 12.5 1H13.1C13.4 1 13.6 1.1 13.8 1.3C14 1.5 14.1 1.7 14.1 2V3.5C14.1 3.6 14.1 3.6 14.2 3.6H15.4C15.7 3.6 15.9 3.7 16.1 3.9C16.3 4.1 16.4 4.3 16.4 4.6V5C16.4 5.3 16.3 5.5 16.1 5.7C15.9 5.9 15.7 6 15.4 6H14.2C14.1 6 14.1 6 14.1 6.1V10C14.1 11 14.5 11.5 15.3 11.6C15.6 11.6 15.8 11.7 16.1 11.8C16.3 11.9 16.5 12.1 16.5 12.4L16.6 12.7C16.6 12.8 16.6 12.9 16.6 13C16.6 13.2 16.5 13.4 16.4 13.5C16.2 13.8 16 13.9 15.8 14C15.3 14 14.9 14 14.4 14Z" stroke="black" stroke-width="0.5983"/>
<path d="M22.8002 14.0001C21.3002 14.0001 20.1002 13.5001 19.1002 12.6001C18.1002 11.7001 17.7002 10.4001 17.7002 8.70015C17.7002 7.90015 17.8002 7.20015 18.1002 6.50015C18.4002 5.80015 18.7002 5.30015 19.2002 4.80015C19.6002 4.40015 20.2002 4.00015 20.7002 3.80015C21.3002 3.60015 21.9002 3.40015 22.5002 3.40015C23.9002 3.40015 25.0002 3.90015 25.7002 4.80015C26.4002 5.70015 26.8002 6.90015 26.8002 8.30015C26.8002 8.40015 26.8002 8.50015 26.8002 8.60015C26.8002 8.90015 26.7002 9.10015 26.4002 9.30015C26.2002 9.50015 25.9002 9.60015 25.6002 9.60015H20.8002H20.7002V9.70015C21.0002 10.9001 21.8002 11.5001 23.2002 11.5001C23.6002 11.5001 24.0002 11.4001 24.4002 11.3001C24.5002 11.3001 24.7002 11.2001 24.8002 11.2001C24.9002 11.2001 25.1002 11.2001 25.2002 11.3001C25.5002 11.4001 25.7002 11.5001 25.8002 11.8001L25.9002 11.9001C26.0002 12.1001 26.1002 12.2001 26.1002 12.4001C26.1002 12.5001 26.1002 12.6001 26.0002 12.7001C25.9002 13.0001 25.8002 13.2001 25.5002 13.3001C24.6002 13.8001 23.7002 14.0001 22.8002 14.0001ZM20.6002 7.50015C20.6002 7.60015 20.6002 7.60015 20.7002 7.60015H23.9002C24.0002 7.60015 24.0002 7.60015 24.0002 7.50015C24.0002 7.00015 23.8002 6.60015 23.6002 6.30015C23.3002 6.00015 22.9002 5.90015 22.4002 5.90015C21.9002 5.90015 21.6002 6.00015 21.2002 6.30015C20.9002 6.60015 20.6002 7.00015 20.6002 7.50015Z" stroke="black" stroke-width="0.5983"/>
<path d="M29.8008 17.5C29.5008 17.5 29.3008 17.4 29.1008 17.2C28.9008 17 28.8008 16.8 28.8008 16.5V4.7C28.8008 4.4 28.9008 4.2 29.1008 4C29.3008 3.8 29.5008 3.7 29.8008 3.7H30.5008C30.8008 3.7 31.0008 3.8 31.2008 4C31.4008 4.2 31.5008 4.4 31.6008 4.6V4.7C31.6008 4.7 31.6008 4.7 31.7008 4.7C32.6008 3.9 33.6008 3.5 34.5008 3.5C35.7008 3.5 36.7008 4 37.4008 4.9C38.1008 5.8 38.5008 7.1 38.5008 8.6C38.5008 9.4 38.4008 10.2 38.1008 10.9C37.8008 11.6 37.5008 12.2 37.1008 12.6C36.7008 13.1 36.2008 13.4 35.7008 13.6C35.2008 13.8 34.7008 14 34.1008 14C33.3008 14 32.5008 13.7 31.8008 13C31.8008 13 31.8008 13 31.7008 13L31.8008 14.5V16.4C31.8008 16.7 31.7008 16.9 31.5008 17.1C31.3008 17.3 31.1008 17.4 30.8008 17.4H29.8008V17.5ZM33.4008 11.5C33.9008 11.5 34.3008 11.3 34.7008 10.8C35.0008 10.3 35.2008 9.6 35.2008 8.7C35.2008 7.8 35.1008 7.2 34.8008 6.7C34.5008 6.3 34.1008 6.1 33.6008 6.1C33.1008 6.1 32.6008 6.3 32.1008 6.8C32.0008 6.9 32.0008 6.9 32.0008 7V10.8C32.0008 10.9 32.0008 11 32.1008 11C32.4008 11.3 32.9008 11.5 33.4008 11.5Z" stroke="black" stroke-width="0.5983"/>
<path d="M42.1008 14C41.6008 14 41.1008 13.8 40.8008 13.4C40.5008 13 40.3008 12.6 40.3008 12C40.3008 11.4 40.5008 11 40.8008 10.6C41.1008 10.2 41.6008 10 42.1008 10C42.6008 10 43.1008 10.2 43.5008 10.6C43.9008 11 44.0008 11.4 44.0008 12C44.0008 12.6 43.8008 13 43.5008 13.4C43.2008 13.8 42.7008 14 42.1008 14Z" stroke="black" stroke-width="0.5983"/>
<path d="M54.1 12.2C53.2 13.4 52.1 14 50.7 14C49.3 14 48.1 13.4 47.3 12.2C46.5 11 46 9.30005 46 7.10005C46 4.90005 46.4 3.20005 47.3 2.00005C48.1 0.800049 49.3 0.300049 50.7 0.300049C52.1 0.300049 53.3 0.900049 54.1 2.00005C54.9 3.10005 55.4 4.80005 55.4 7.00005C55.3 9.30005 54.9 11 54.1 12.2ZM50 11.4C50.2 11.5 50.4 11.6 50.7 11.6C51 11.6 51.2 11.5 51.4 11.4C51.6 11.3 51.8 11 51.9 10.7C52.1 10.4 52.2 9.90005 52.3 9.30005C52.4 8.70005 52.4 8.00005 52.4 7.10005C52.4 6.20005 52.4 5.50005 52.3 4.90005C52.2 4.30005 52.1 3.90005 51.9 3.60005C51.7 3.30005 51.6 3.10005 51.4 3.00005C51.2 2.90005 51 2.80005 50.7 2.80005C50.4 2.80005 50.2 2.90005 50 3.00005C49.8 3.10005 49.6 3.30005 49.5 3.60005C49.4 3.90005 49.2 4.30005 49.1 4.90005C49 5.50005 49 6.20005 49 7.10005C49 8.00005 49 8.70005 49.1 9.30005C49.2 9.90005 49.3 10.4 49.5 10.7C49.6 11 49.8 11.2 50 11.4Z" stroke="black" stroke-width="0.5983"/>
<path d="M65.4 8.1C65.7 8.1 65.9 8.2 66.1 8.4C66.3 8.6 66.4 8.8 66.4 9.1V9.5C66.4 9.8 66.3 10 66.1 10.2C65.9 10.4 65.7 10.5 65.4 10.5H65.1C65 10.5 65 10.5 65 10.6V12.8C65 13.1 64.9 13.3 64.7 13.5C64.5 13.7 64.3 13.8 64 13.8H63C62.7 13.8 62.5 13.7 62.3 13.5C62.1 13.3 62 13 62 12.7V10.5C62 10.4 62 10.4 61.9 10.4H57.5C57.2 10.4 57 10.3 56.8 10.1C56.6 9.9 56.5 9.7 56.5 9.4V9.3C56.5 8.6 56.7 8 57 7.4L60.6 1.4C60.8 1.1 61 0.9 61.3 0.7C61.6 0.5 61.9 0.5 62.2 0.5H64C64.3 0.5 64.5 0.6 64.7 0.8C64.9 1 65 1.2 65 1.5V7.9C65 8 65 8 65.1 8H65.4V8.1ZM59.5 8C59.5 8.1 59.5 8.1 59.6 8.1H61.9C62 8.1 62 8.1 62 8V6.1C62 6 62 5.1 62.1 3.2C62.1 3.2 62.1 3.2 62 3.2C61.6 4.1 61.3 4.8 61 5.4L59.5 8Z" stroke="black" stroke-width="0.5983"/>
</svg>
