<svg width="66" height="19" viewBox="0 0 66 19" fill="none" xmlns="http://www.w3.org/2000/svg">
<path d="M4 14.8002C3 14.8002 2 14.5002 0.9 14.0002C0.7 13.9002 0.5 13.6002 0.5 13.4002C0.5 13.3002 0.5 13.3002 0.5 13.2002C0.5 13.0002 0.6 12.8002 0.7 12.6002L0.9 12.3002C1.1 12.1002 1.3 11.9002 1.6 11.9002C1.7 11.9002 1.7 11.9002 1.8 11.9002C2 11.9002 2.2 12.0002 2.4 12.1002C3 12.4002 3.6 12.6002 4.1 12.6002C4.9 12.6002 5.3 12.3002 5.3 11.8002C5.3 11.7002 5.3 11.6002 5.2 11.6002C5.1 11.6002 5.1 11.3002 5 11.3002C4.9 11.2002 4.8 11.2002 4.8 11.1002C4.7 11.0002 4.6 11.0002 4.5 10.9002C4.3 10.8002 4.2 10.8002 4.1 10.7002C4 10.7002 3.9 10.6002 3.7 10.5002C3.5 10.4002 3.4 10.4002 3.3 10.3002C3 10.2002 2.6 10.0002 2.4 9.9002C2.2 9.8002 1.8 9.6002 1.6 9.3002C1.4 9.0002 1 8.9002 0.9 8.6002C0.7 8.2002 0.6 7.9002 0.6 7.4002C0.6 6.4002 1 5.7002 1.7 5.1002C2.4 4.5002 3.4 4.2002 4.5 4.2002C5.5 4.2002 6.4 4.4002 7.3 4.9002C7.5 5.0002 7.7 5.2002 7.7 5.5002C7.7 5.6002 7.7 5.6002 7.7 5.7002C7.7 5.9002 7.6 6.1002 7.5 6.3002L7.4 6.6002C7.2 6.8002 7 7.0002 6.7 7.0002C6.6 7.0002 6.5 7.0002 6.4 7.0002C6.2 7.0002 6 7.0002 5.9 6.9002C5.4 6.7002 5 6.6002 4.6 6.6002C3.9 6.6002 3.5 6.8002 3.5 7.3002C3.5 7.4002 3.5 7.4002 3.5 7.5002C3.5 7.6002 3.6 7.6002 3.6 7.7002C3.6 7.8002 3.7 7.8002 3.7 7.8002C3.7 7.8002 3.8 7.9002 3.9 7.9002C4.1 8.0002 4.2 8.0002 4.3 8.0002C4.4 8.0002 4.5 8.1002 4.6 8.1002C4.7 8.1002 4.8 8.2002 4.9 8.2002C5 8.2002 5.1 8.3002 5.2 8.3002C5.3 8.3002 5.5 8.4002 5.5 8.4002C5.9 8.5002 6.2 8.7002 6.5 8.8002C6.8 8.9002 7 9.1002 7.3 9.4002C7.6 9.7002 7.8 10.0002 8 10.4002C8.1 10.7002 8.2 11.1002 8.2 11.6002C8.2 12.6002 7.8 13.4002 7.1 14.0002C6.4 14.6002 5.3 14.8002 4 14.8002Z" stroke="#CC622D" stroke-miterlimit="10"/>
<path d="M13.9996 14.8003C12.7996 14.8003 11.8996 14.5003 11.2996 13.7003C10.6996 13.0003 10.3996 12.0003 10.3996 10.8003V7.10029C10.3996 7.00029 10.3996 7.00029 10.2996 7.00029H10.0996C9.79961 7.00029 9.59961 6.90029 9.39961 6.70029C9.19961 6.50029 9.09961 6.20029 9.09961 5.90029V5.60029C9.09961 5.30029 9.19961 5.10029 9.39961 4.80029C9.59961 4.60029 9.79961 4.50029 10.0996 4.40029H10.4996C10.5996 4.40029 10.5996 4.30029 10.6996 4.30029L10.8996 2.80029C10.8996 2.50029 11.0996 2.30029 11.2996 2.10029C11.4996 1.90029 11.7996 1.80029 12.0996 1.80029H12.6996C12.9996 1.80029 13.1996 1.90029 13.3996 2.10029C13.5996 2.30029 13.6996 2.50029 13.6996 2.80029V4.30029C13.6996 4.40029 13.6996 4.40029 13.7996 4.40029H14.9996C15.2996 4.40029 15.4996 4.50029 15.6996 4.70029C15.8996 5.00029 15.9996 5.20029 15.9996 5.50029V5.90029C15.9996 6.20029 15.8996 6.40029 15.6996 6.60029C15.4996 6.90029 15.2996 7.00029 14.9996 7.00029H13.7996C13.6996 7.00029 13.6996 7.00029 13.6996 7.10029V10.8003C13.6996 11.8003 14.0996 12.3003 14.8996 12.4003C15.1996 12.4003 15.3996 12.5003 15.6996 12.6003C15.8996 12.7003 16.0996 12.9003 16.0996 13.2003L16.1996 13.5003C16.1996 13.6003 16.1996 13.7003 16.1996 13.8003C16.1996 14.0003 16.0996 14.2003 15.9996 14.3003C15.7996 14.6003 15.5996 14.7003 15.3996 14.8003C14.8996 14.8003 14.4996 14.8003 13.9996 14.8003Z" stroke="#CC622D" stroke-miterlimit="10"/>
<path d="M22.2992 14.8002C20.7992 14.8002 19.5992 14.3002 18.5992 13.4002C17.5992 12.5002 17.1992 11.2002 17.1992 9.5002C17.1992 8.7002 17.2992 8.0002 17.5992 7.3002C17.8992 6.6002 18.1992 6.1002 18.6992 5.6002C19.0992 5.2002 19.6992 4.8002 20.1992 4.6002C20.7992 4.4002 21.3992 4.2002 21.9992 4.2002C23.3992 4.2002 24.4992 4.7002 25.1992 5.6002C25.8992 6.5002 26.2992 7.7002 26.2992 9.1002C26.2992 9.2002 26.2992 9.3002 26.2992 9.4002C26.2992 9.7002 26.1992 9.9002 25.8992 10.1002C25.6992 10.3002 25.3992 10.4002 25.0992 10.4002H20.2992H20.1992V10.5002C20.4992 11.7002 21.2992 12.3002 22.6992 12.3002C23.0992 12.3002 23.4992 12.2002 23.8992 12.1002C23.9992 12.1002 24.1992 12.0002 24.2992 12.0002C24.3992 12.0002 24.5992 12.0002 24.6992 12.1002C24.9992 12.2002 25.1992 12.3002 25.2992 12.6002L25.3992 12.7002C25.4992 12.9002 25.5992 13.0002 25.5992 13.2002C25.5992 13.3002 25.5992 13.4002 25.4992 13.5002C25.3992 13.8002 25.2992 14.0002 24.9992 14.1002C24.1992 14.6002 23.2992 14.8002 22.2992 14.8002ZM20.1992 8.3002C20.1992 8.4002 20.1992 8.4002 20.2992 8.4002H23.4992C23.5992 8.4002 23.5992 8.4002 23.5992 8.3002C23.5992 7.8002 23.3992 7.4002 23.1992 7.1002C22.8992 6.8002 22.4992 6.7002 21.9992 6.7002C21.4992 6.7002 21.1992 6.8002 20.7992 7.1002C20.3992 7.4002 20.1992 7.9002 20.1992 8.3002Z" stroke="#CC622D" stroke-miterlimit="10"/>
<path d="M29.4004 18.3003C29.1004 18.3003 28.9004 18.2003 28.7004 18.0003C28.5004 17.8003 28.4004 17.6003 28.4004 17.3003V5.50029C28.4004 5.20029 28.5004 5.00029 28.7004 4.80029C28.9004 4.60029 29.1004 4.50029 29.4004 4.50029H30.0004C30.3004 4.50029 30.5004 4.60029 30.7004 4.80029C30.9004 5.00029 31.0004 5.20029 31.1004 5.40029V5.50029C31.1004 5.50029 31.1004 5.50029 31.2004 5.50029C32.1004 4.70029 33.1004 4.30029 34.0004 4.30029C35.2004 4.30029 36.2004 4.80029 36.9004 5.70029C37.6004 6.60029 38.0004 7.90029 38.0004 9.40029C38.0004 10.2003 37.9004 11.0003 37.6004 11.7003C37.3004 12.4003 37.0004 13.0003 36.6004 13.4003C36.2004 13.9003 35.7004 14.2003 35.2004 14.4003C34.7004 14.6003 34.2004 14.8003 33.6004 14.8003C32.8004 14.8003 32.0004 14.5003 31.3004 13.8003C31.3004 13.8003 31.3004 13.8003 31.2004 13.8003L31.3004 15.3003V17.2003C31.3004 17.5003 31.2004 17.7003 31.0004 17.9003C30.8004 18.1003 30.6004 18.2003 30.3004 18.2003H29.4004V18.3003ZM33.0004 12.3003C33.5004 12.3003 33.9004 12.1003 34.3004 11.6003C34.6004 11.1003 34.8004 10.4003 34.8004 9.50029C34.8004 8.60029 34.7004 8.00029 34.4004 7.50029C34.1004 7.10029 33.7004 6.90029 33.2004 6.90029C32.7004 6.90029 32.2004 7.10029 31.7004 7.60029C31.6004 7.70029 31.6004 7.70029 31.6004 7.80029V11.6003C31.6004 11.7003 31.6004 11.8003 31.7004 11.8003C32.0004 12.1003 32.5004 12.3003 33.0004 12.3003Z" stroke="#CC622D" stroke-miterlimit="10"/>
<path d="M41.7004 14.8003C41.2004 14.8003 40.7004 14.6003 40.4004 14.2003C40.1004 13.8003 39.9004 13.4003 39.9004 12.8003C39.9004 12.2003 40.1004 11.8003 40.4004 11.4003C40.7004 11.0003 41.2004 10.8003 41.7004 10.8003C42.2004 10.8003 42.7004 11.0003 43.1004 11.4003C43.5004 11.8003 43.6004 12.2003 43.6004 12.8003C43.6004 13.4003 43.4004 13.8003 43.1004 14.2003C42.8004 14.6003 42.3004 14.8003 41.7004 14.8003Z" stroke="#CC622D" stroke-miterlimit="10"/>
<path d="M53.6996 13.0001C52.7996 14.2001 51.6996 14.8001 50.2996 14.8001C48.8996 14.8001 47.6996 14.2001 46.8996 13.0001C46.0996 11.8001 45.5996 10.1001 45.5996 7.9001C45.5996 5.7001 45.9996 4.0001 46.8996 2.8001C47.6996 1.6001 48.8996 1.1001 50.2996 1.1001C51.6996 1.1001 52.8996 1.7001 53.6996 2.8001C54.4996 3.9001 54.9996 5.6001 54.9996 7.8001C54.8996 10.1001 54.4996 11.9001 53.6996 13.0001ZM49.5996 12.2001C49.7996 12.3001 49.9996 12.4001 50.2996 12.4001C50.5996 12.4001 50.7996 12.3001 50.9996 12.2001C51.1996 12.1001 51.3996 11.8001 51.4996 11.5001C51.6996 11.2001 51.7996 10.7001 51.8996 10.1001C51.9996 9.5001 51.9996 8.8001 51.9996 7.9001C51.9996 7.0001 51.9996 6.3001 51.8996 5.7001C51.7996 5.1001 51.6996 4.7001 51.4996 4.4001C51.2996 4.1001 51.1996 3.9001 50.9996 3.8001C50.7996 3.7001 50.5996 3.6001 50.2996 3.6001C49.9996 3.6001 49.7996 3.7001 49.5996 3.8001C49.3996 3.9001 49.1996 4.1001 49.0996 4.4001C48.9996 4.7001 48.7996 5.1001 48.6996 5.7001C48.5996 6.3001 48.5996 7.0001 48.5996 7.9001C48.5996 8.8001 48.5996 9.5001 48.6996 10.1001C48.7996 10.7001 48.8996 11.2001 49.0996 11.5001C49.1996 11.8001 49.3996 12.1001 49.5996 12.2001Z" stroke="#CC622D" stroke-miterlimit="10"/>
<path d="M58.1 14.6C57.8 14.6 57.6 14.5 57.4 14.3C57.2 14.1 57 13.9 57 13.6V13.1C57 12.8 57.1 12.6 57.3 12.4C57.5 12.2 57.7 12.1 58 12.1H59.6C59.7 12.1 59.7 12.1 59.7 12V4.7C59.7 4.6 59.7 4.6 59.6 4.6H58.3C58 4.6 57.8 4.5 57.6 4.3C57.4 4.1 57.3 3.9 57.3 3.6C57.3 3.3 57.4 3.1 57.6 2.9C57.8 2.7 58 2.5 58.3 2.5C58.8 2.4 59.3 2.2 59.7 2C60.4 1.7 61 1.5 61.6 1.5H62C62.3 1.5 62.5 1.6 62.7 1.8C62.9 1.9 63 2.1 63 2.4V11.9C63 12 63 12 63.1 12H64.3C64.6 12 64.8 12.1 65 12.3C65.2 12.5 65.3 12.7 65.3 13V13.5C65.3 13.8 65.2 14 65 14.2C64.8 14.4 64.6 14.5 64.3 14.5H58.1V14.6Z" stroke="#CC622D" stroke-miterlimit="10"/>
</svg>
