<svg width="67" height="18" viewBox="0 0 67 18" fill="none" xmlns="http://www.w3.org/2000/svg">
<path d="M4.7002 13.9001C3.7002 13.9001 2.70016 13.6002 1.60016 13.1002C1.40016 13.0002 1.2002 12.7002 1.2002 12.5002C1.2002 12.4002 1.2002 12.4001 1.2002 12.3001C1.2002 12.1001 1.30021 11.9002 1.40021 11.7002L1.60016 11.4001C1.80016 11.2001 2.00017 11.0002 2.30017 11.0002C2.40017 11.0002 2.40018 11.0002 2.50018 11.0002C2.70018 11.0002 2.90016 11.1002 3.10016 11.2002C3.70016 11.5002 4.30017 11.7002 4.80017 11.7002C5.60017 11.7002 6.00018 11.4001 6.00018 10.9001C6.00018 10.8001 6.00021 10.7002 5.90021 10.7002C5.80021 10.7002 5.8002 10.6002 5.7002 10.5002C5.6002 10.4002 5.50018 10.4001 5.50018 10.3001C5.40018 10.2001 5.3002 10.2002 5.2002 10.1002C5.0002 10.0002 4.90017 10.0001 4.80017 9.90015C4.70017 9.90015 4.60021 9.80016 4.40021 9.70016C4.20021 9.60016 4.10018 9.60015 4.00018 9.50015C3.70018 9.40015 3.30016 9.20016 3.10016 9.10016C2.90016 9.00016 2.50017 8.80015 2.30017 8.50015C2.10017 8.20015 1.8002 8.00016 1.7002 7.70016C1.5002 7.40016 1.50018 7.00016 1.50018 6.60016C1.50018 5.60016 1.90016 4.90014 2.60016 4.30014C3.30016 3.70014 4.30021 3.40015 5.40021 3.40015C6.40021 3.40015 7.3002 3.60016 8.2002 4.10016C8.4002 4.20016 8.60016 4.40016 8.60016 4.70016C8.60016 4.80016 8.60016 4.80015 8.60016 4.90015C8.60016 5.10015 8.50021 5.30015 8.40021 5.50015L8.2002 5.70016C8.0002 5.90016 7.80018 6.10016 7.50018 6.10016C7.40018 6.10016 7.30017 6.10016 7.30017 6.10016C7.10017 6.10016 6.9002 6.10015 6.7002 6.00015C6.3002 5.80015 5.90018 5.70016 5.50018 5.70016C4.80018 5.70016 4.40021 5.90015 4.40021 6.40015C4.40021 6.50015 4.40021 6.50016 4.40021 6.60016C4.40021 6.70016 4.50018 6.70014 4.50018 6.80014C4.50018 6.90014 4.60016 6.90015 4.60016 6.90015C4.60016 6.90015 4.70017 7.00015 4.80017 7.00015C4.90017 7.00015 5.00018 7.10016 5.00018 7.10016C5.10018 7.10016 5.20017 7.20016 5.30017 7.20016C5.40017 7.20016 5.50016 7.30014 5.60016 7.30014C5.70016 7.30014 5.80021 7.40015 5.90021 7.40015C6.00021 7.40015 6.2002 7.50015 6.2002 7.50015C6.6002 7.60015 6.9002 7.80015 7.2002 7.90015C7.5002 8.00015 7.70018 8.20015 8.00018 8.50015C8.30018 8.80015 8.50016 9.00015 8.60016 9.40015C8.70016 9.70015 8.80017 10.1002 8.80017 10.6002C8.80017 11.6002 8.4002 12.4002 7.7002 13.0002C7.0002 13.6002 6.0002 13.9001 4.7002 13.9001Z" stroke="black" stroke-width="0.5983"/>
<path d="M14.6998 13.9001C13.4998 13.9001 12.5998 13.6001 11.9998 12.8001C11.3998 12.1001 11.0998 11.1001 11.0998 9.90015V6.10016C11.0998 6.00016 11.0998 6.00015 10.9998 6.00015H10.7998C10.4998 6.00015 10.2998 5.90016 10.0998 5.70016C9.89979 5.50016 9.7998 5.30015 9.7998 5.00015V4.70016C9.7998 4.40016 9.89979 4.20015 10.0998 3.90015C10.2998 3.70015 10.4998 3.60015 10.7998 3.50015H11.1998C11.2998 3.50015 11.2998 3.40015 11.3998 3.40015L11.5998 1.90015C11.5998 1.60015 11.7998 1.40016 11.9998 1.20016C12.1998 1.00016 12.4998 0.900146 12.7998 0.900146H13.3998C13.6998 0.900146 13.8998 1.00016 14.0998 1.20016C14.2998 1.40016 14.3998 1.60015 14.3998 1.90015V3.40015C14.3998 3.50015 14.3998 3.50015 14.4998 3.50015H15.6998C15.9998 3.50015 16.1998 3.60014 16.3998 3.80014C16.5998 4.00014 16.6998 4.20015 16.6998 4.50015V4.90015C16.6998 5.20015 16.5998 5.40016 16.3998 5.60016C16.1998 5.80016 15.9998 5.90015 15.6998 5.90015H14.4998C14.3998 5.90015 14.3998 5.90015 14.3998 6.00015V9.70016C14.3998 10.7002 14.7998 11.2001 15.5998 11.3001C15.8998 11.3001 16.0998 11.4002 16.3998 11.5002C16.5998 11.6002 16.7998 11.8002 16.7998 12.1002L16.8998 12.4001C16.8998 12.5001 16.8998 12.6002 16.8998 12.7002C16.8998 12.9002 16.7998 13.1002 16.6998 13.2002C16.4998 13.5002 16.2998 13.6002 16.0998 13.7002C15.5998 13.9002 15.0998 13.9001 14.6998 13.9001Z" stroke="black" stroke-width="0.5983"/>
<path d="M23.0004 13.9001C21.5004 13.9001 20.3004 13.4001 19.3004 12.5001C18.3004 11.6001 17.9004 10.3001 17.9004 8.60007C17.9004 7.80007 18.0004 7.10005 18.3004 6.40005C18.6004 5.70005 18.9004 5.20007 19.4004 4.70007C19.8004 4.30007 20.4004 3.90007 20.9004 3.70007C21.5004 3.50007 22.1004 3.30005 22.7004 3.30005C24.1004 3.30005 25.2004 3.80007 25.9004 4.70007C26.6004 5.60007 27.0004 6.80007 27.0004 8.20007C27.0004 8.30007 27.0004 8.40006 27.0004 8.50006C27.0004 8.80006 26.9003 9.00007 26.6003 9.20007C26.4003 9.40007 26.1004 9.50006 25.8004 9.50006H21.0004H20.9004V9.60007C21.2004 10.8001 22.0004 11.4001 23.4004 11.4001C23.8004 11.4001 24.2003 11.3001 24.6003 11.2001C24.7003 11.2001 24.9004 11.1001 25.0004 11.1001C25.1004 11.1001 25.3004 11.1001 25.4004 11.2001C25.7004 11.3001 25.9004 11.4001 26.0004 11.7001L26.1003 11.8C26.2003 12 26.3004 12.1 26.3004 12.3C26.3004 12.4 26.3004 12.5001 26.2004 12.6001C26.1004 12.9001 26.0004 13.1001 25.7004 13.2001C24.9004 13.7001 24.0004 13.9001 23.0004 13.9001ZM20.9004 7.40005C20.9004 7.50005 20.9004 7.50006 21.0004 7.50006H24.2004C24.3004 7.50006 24.3004 7.50005 24.3004 7.40005C24.3004 6.90005 24.1004 6.50007 23.9004 6.20007C23.6004 5.90007 23.2004 5.80005 22.7004 5.80005C22.2004 5.80005 21.9004 5.90007 21.5004 6.20007C21.1004 6.50007 20.9004 6.90005 20.9004 7.40005Z" stroke="black" stroke-width="0.5983"/>
<path d="M30.1006 17.4001C29.8006 17.4001 29.6006 17.3002 29.4006 17.1002C29.2006 16.9002 29.1006 16.7001 29.1006 16.4001V4.60016C29.1006 4.30016 29.2006 4.10015 29.4006 3.90015C29.6006 3.70015 29.8006 3.60016 30.1006 3.60016H30.8006C31.1006 3.60016 31.3006 3.70015 31.5006 3.90015C31.7006 4.10015 31.8006 4.30015 31.9006 4.50015V4.60016C31.9006 4.60016 31.9006 4.60016 32.0006 4.60016C32.9006 3.80016 33.9006 3.40015 34.8006 3.40015C36.0006 3.40015 37.0006 3.90014 37.7006 4.80014C38.4006 5.70014 38.8006 7.00015 38.8006 8.50015C38.8006 9.30015 38.7006 10.1001 38.4006 10.8001C38.1006 11.5001 37.8006 12.1002 37.4006 12.5002C37.0006 13.0002 36.5006 13.3002 36.0006 13.5002C35.5006 13.7002 35.0006 13.9001 34.4006 13.9001C33.6006 13.9001 32.8006 13.6001 32.1006 12.9001C32.1006 12.9001 32.1006 12.9001 32.0006 12.9001L32.1006 14.4001V16.3001C32.1006 16.6001 32.0006 16.8002 31.8006 17.0002C31.6006 17.2002 31.4006 17.3001 31.1006 17.3001H30.1006V17.4001ZM33.7006 11.4001C34.2006 11.4001 34.6006 11.2002 35.0006 10.7002C35.3006 10.2002 35.5006 9.50016 35.5006 8.60016C35.5006 7.70016 35.4006 7.10016 35.1006 6.60016C34.8006 6.20016 34.4006 6.00015 33.9006 6.00015C33.4006 6.00015 32.9006 6.20016 32.4006 6.70016C32.3006 6.80016 32.3006 6.80015 32.3006 6.90015V10.7002C32.3006 10.8002 32.3006 10.9001 32.4006 10.9001C32.7006 11.2001 33.2006 11.4001 33.7006 11.4001Z" stroke="black" stroke-width="0.5983"/>
<path d="M42.4006 13.9001C41.9006 13.9001 41.4006 13.7001 41.1006 13.3001C40.8006 12.9001 40.6006 12.5001 40.6006 11.9001C40.6006 11.3001 40.8006 10.9002 41.1006 10.5002C41.4006 10.1002 41.9006 9.90015 42.4006 9.90015C42.9006 9.90015 43.4006 10.1002 43.8006 10.5002C44.2006 10.9002 44.3006 11.3001 44.3006 11.9001C44.3006 12.5001 44.1006 12.9001 43.8006 13.3001C43.5006 13.7001 42.9006 13.9001 42.4006 13.9001Z" stroke="black" stroke-width="0.5983"/>
<path d="M47.9004 13.7001C47.6004 13.7001 47.4004 13.6001 47.2004 13.4001C47.0004 13.2001 46.9004 13.0001 46.9004 12.7001V12.2001C46.9004 11.9001 47.0004 11.7001 47.2004 11.5001C47.4004 11.3001 47.6004 11.2001 47.9004 11.2001H49.5004C49.6004 11.2001 49.6003 11.2001 49.6003 11.1001V3.80008C49.6003 3.70008 49.6004 3.7001 49.5004 3.7001H48.2004C47.9004 3.7001 47.7004 3.60009 47.5004 3.40009C47.3004 3.20009 47.2004 3.0001 47.2004 2.7001C47.2004 2.4001 47.3004 2.20009 47.5004 2.00009C47.7004 1.80009 47.9004 1.6001 48.2004 1.6001C48.7004 1.5001 49.2003 1.3001 49.6003 1.1001C50.3003 0.800098 50.9004 0.600098 51.5004 0.600098H51.8004C52.1004 0.600098 52.3004 0.700085 52.5004 0.900085C52.7004 1.10009 52.8004 1.3001 52.8004 1.6001V11.1001C52.8004 11.2001 52.8004 11.2001 52.9004 11.2001H54.1003C54.4003 11.2001 54.6004 11.3001 54.8004 11.5001C55.0004 11.7001 55.1003 11.9001 55.1003 12.2001V12.7001C55.1003 13.0001 55.0004 13.2001 54.8004 13.4001C54.6004 13.6001 54.4003 13.7001 54.1003 13.7001H47.9004Z" stroke="black" stroke-width="0.5983"/>
<path d="M58.0006 13.7001C57.8006 13.7001 57.5006 13.6001 57.4006 13.4001C57.2006 13.2001 57.1006 13 57.1006 12.8C57.1006 12.2 57.3006 11.7 57.8006 11.3C59.4006 9.80005 60.6006 8.50006 61.4006 7.50006C62.2006 6.40006 62.6006 5.50007 62.6006 4.60007C62.6006 4.00007 62.4006 3.50007 62.1006 3.20007C61.8006 2.90007 61.4006 2.70007 60.8006 2.70007C60.3006 2.70007 59.8006 2.90005 59.3006 3.30005C59.1006 3.50005 58.8006 3.60007 58.5006 3.60007C58.2006 3.60007 58.0006 3.50005 57.8006 3.30005L57.5006 3.00006C57.3006 2.80006 57.2006 2.60005 57.2006 2.30005C57.2006 2.00005 57.3006 1.80007 57.5006 1.60007C58.0006 1.10007 58.6006 0.800067 59.2006 0.600067C59.8006 0.400067 60.4006 0.300049 61.2006 0.300049C62.5006 0.300049 63.5006 0.700055 64.3006 1.40005C65.1006 2.20005 65.5006 3.20005 65.5006 4.40005C65.5006 6.30005 64.2006 8.50007 61.6006 11.1001C61.6006 11.1001 61.6006 11.1001 61.6006 11.2001C61.6006 11.2001 61.6006 11.2001 61.7006 11.2001C62.5006 11.1001 63.2006 11.0001 63.7006 11.0001H65.1006C65.4006 11.0001 65.6006 11.1 65.8006 11.3C66.0006 11.5 66.1006 11.7001 66.1006 12.0001V12.6001C66.1006 12.9001 66.0006 13.1 65.8006 13.3C65.6006 13.5 65.4006 13.6001 65.1006 13.6001H58.0006V13.7001Z" stroke="black" stroke-width="0.5983"/>
</svg>
