<svg width="221" height="18" viewBox="0 0 221 18" fill="none" xmlns="http://www.w3.org/2000/svg">
<path d="M3.7998 14.2C2.7998 14.2 1.7998 13.8999 0.699805 13.3999C0.499805 13.2999 0.299805 13 0.299805 12.8C0.299805 12.7 0.299805 12.7 0.299805 12.6C0.299805 12.4 0.399805 12.2 0.499805 12L0.699805 11.7C0.899805 11.5 1.0998 11.3 1.3998 11.3C1.4998 11.3 1.4998 11.3 1.5998 11.3C1.7998 11.3 1.9998 11.4 2.1998 11.5C2.7998 11.8 3.3998 12 3.8998 12C4.6998 12 5.0998 11.7 5.0998 11.2C5.0998 11.1 5.0998 11 4.9998 11C4.8998 11 4.8998 10.9 4.7998 10.8C4.6998 10.7 4.5998 10.7 4.5998 10.6C4.4998 10.5 4.3998 10.4999 4.2998 10.3999C4.0998 10.2999 3.9998 10.3 3.8998 10.2C3.7998 10.2 3.6998 10.1 3.4998 9.99995C3.2998 9.89995 3.1998 9.89996 3.0998 9.79996C2.7998 9.69996 2.3998 9.49995 2.1998 9.39995C1.9998 9.29995 1.5998 9.09996 1.3998 8.79996C1.1998 8.49996 0.899805 8.29995 0.799805 7.99995C0.599805 7.69995 0.599805 7.29995 0.599805 6.89995C0.599805 5.89995 0.999805 5.19996 1.6998 4.59996C2.3998 3.99996 3.3998 3.69995 4.4998 3.69995C5.4998 3.69995 6.3998 3.89995 7.2998 4.39995C7.4998 4.49995 7.6998 4.69995 7.6998 4.99995C7.6998 5.09995 7.6998 5.09995 7.6998 5.19995C7.6998 5.39995 7.5998 5.59996 7.4998 5.79996L7.1998 5.99995C6.9998 6.19995 6.7998 6.39995 6.4998 6.39995C6.3998 6.39995 6.2998 6.39995 6.2998 6.39995C6.0998 6.39995 5.8998 6.39996 5.6998 6.29996C5.2998 6.09996 4.8998 5.99995 4.4998 5.99995C3.7998 5.99995 3.3998 6.19995 3.3998 6.69995C3.3998 6.79995 3.3998 6.79995 3.3998 6.89995C3.3998 6.99995 3.4998 6.99996 3.4998 7.09996C3.4998 7.19996 3.5998 7.19995 3.5998 7.19995C3.5998 7.19995 3.6998 7.29996 3.7998 7.29996C3.8998 7.29996 3.9998 7.39995 3.9998 7.39995C4.0998 7.39995 4.1998 7.49995 4.2998 7.49995C4.3998 7.49995 4.4998 7.59996 4.5998 7.59996C4.6998 7.59996 4.7998 7.69995 4.8998 7.69995C4.9998 7.69995 5.1998 7.79996 5.1998 7.79996C5.5998 7.89996 5.8998 8.09995 6.1998 8.19995C6.4998 8.29995 6.6998 8.49996 6.9998 8.79996C7.2998 9.09996 7.4998 9.29995 7.5998 9.69995C7.6998 9.99995 7.7998 10.3999 7.7998 10.8999C7.7998 11.8999 7.3998 12.7 6.6998 13.3C5.9998 13.9 5.0998 14.2 3.7998 14.2Z" stroke="black" stroke-width="0.5983"/>
<path d="M13.7994 14.2C12.5994 14.2 11.6994 13.9 11.0994 13.1C10.4994 12.4 10.1994 11.4 10.1994 10.2V6.39995C10.1994 6.29995 10.1994 6.29996 10.0994 6.29996H9.89941C9.59941 6.29996 9.39941 6.19995 9.19941 5.99995C8.99941 5.79995 8.89941 5.59996 8.89941 5.29996V4.99995C8.89941 4.69995 8.99941 4.49995 9.19941 4.19995C9.39941 3.99995 9.59941 3.89996 9.89941 3.79996H10.2994C10.3994 3.79996 10.3994 3.69995 10.4994 3.69995L10.6994 2.19995C10.6994 1.89995 10.8994 1.69995 11.0994 1.49995C11.2994 1.29995 11.5994 1.19995 11.8994 1.19995H12.4994C12.7994 1.19995 12.9994 1.29995 13.1994 1.49995C13.3994 1.69995 13.4994 1.89995 13.4994 2.19995V3.69995C13.4994 3.79995 13.4994 3.79996 13.5994 3.79996H14.7994C15.0994 3.79996 15.2994 3.89996 15.4994 4.09996C15.6994 4.29996 15.7994 4.49996 15.7994 4.79996V5.19995C15.7994 5.49995 15.6994 5.69995 15.4994 5.89995C15.2994 6.09995 15.0994 6.19995 14.7994 6.19995H13.5994C13.4994 6.19995 13.4994 6.19996 13.4994 6.29996V9.99995C13.4994 11 13.8994 11.5 14.6994 11.6C14.9994 11.6 15.1994 11.7 15.4994 11.8C15.6994 11.9 15.8994 12.0999 15.8994 12.3999L15.9994 12.7C15.9994 12.8 15.9994 12.9 15.9994 13C15.9994 13.2 15.8994 13.4 15.7994 13.5C15.5994 13.8 15.3994 13.9 15.1994 14C14.6994 14.2 14.2994 14.2 13.7994 14.2Z" stroke="black" stroke-width="0.5983"/>
<path d="M22.1 14.2001C20.6 14.2001 19.4 13.7001 18.4 12.8001C17.4 11.9001 17 10.6001 17 8.90009C17 8.10009 17.1 7.40009 17.4 6.70009C17.7 6.00009 18 5.50009 18.5 5.00009C18.9 4.60009 19.5 4.20009 20 4.00009C20.6 3.80009 21.2 3.6001 21.8 3.6001C23.2 3.6001 24.3 4.10009 25 5.00009C25.7 5.90009 26.1 7.10009 26.1 8.50009C26.1 8.60009 26.1 8.70009 26.1 8.80009C26.1 9.10009 26 9.30009 25.7 9.50009C25.5 9.70009 25.2 9.80009 24.9 9.80009H20.1H20V9.90009C20.3 11.1001 21.1 11.7001 22.5 11.7001C22.9 11.7001 23.3 11.6001 23.7 11.5001C23.8 11.5001 24 11.4001 24.1 11.4001C24.2 11.4001 24.4 11.4001 24.5 11.5001C24.8 11.6001 25 11.7001 25.1 12.0001L25.2 12.1001C25.3 12.3001 25.4 12.4001 25.4 12.6001C25.4 12.7001 25.4 12.8001 25.3 12.9001C25.2 13.2001 25.1 13.4001 24.8 13.5001C24 14.0001 23.1 14.2001 22.1 14.2001ZM20 7.70009C20 7.80009 20 7.80009 20.1 7.80009H23.3C23.4 7.80009 23.4 7.80009 23.4 7.70009C23.4 7.20009 23.2 6.80009 23 6.50009C22.7 6.20009 22.3 6.1001 21.8 6.1001C21.3 6.1001 21 6.20009 20.6 6.50009C20.2 6.80009 20 7.20009 20 7.70009Z" stroke="black" stroke-width="0.5983"/>
<path d="M29.2002 17.7C28.9002 17.7 28.7002 17.5999 28.5002 17.3999C28.3002 17.1999 28.2002 17 28.2002 16.7V4.89995C28.2002 4.59995 28.3002 4.39995 28.5002 4.19995C28.7002 3.99995 28.9002 3.89995 29.2002 3.89995H29.9002C30.2002 3.89995 30.4002 3.99995 30.6002 4.19995C30.8002 4.39995 30.9002 4.59996 31.0002 4.79996V4.89995C31.0002 4.89995 31.0002 4.89995 31.1002 4.89995C32.0002 4.09995 33.0002 3.69995 33.9002 3.69995C35.1002 3.69995 36.1002 4.19996 36.8002 5.09996C37.5002 5.99996 37.9002 7.29996 37.9002 8.79996C37.9002 9.59996 37.8002 10.4 37.5002 11.1C37.2002 11.8 36.9002 12.4 36.5002 12.8C36.1002 13.3 35.6002 13.6 35.1002 13.8C34.6002 14 34.1002 14.2 33.5002 14.2C32.7002 14.2 31.9002 13.9 31.2002 13.2C31.2002 13.2 31.2002 13.2 31.1002 13.2L31.2002 14.7V16.6C31.2002 16.9 31.1002 17.1 30.9002 17.3C30.7002 17.5 30.5002 17.6 30.2002 17.6H29.2002V17.7ZM32.8002 11.7C33.3002 11.7 33.7002 11.5 34.1002 11C34.4002 10.5 34.6002 9.79995 34.6002 8.89995C34.6002 7.99995 34.5002 7.39995 34.2002 6.89995C33.9002 6.49995 33.5002 6.29996 33.0002 6.29996C32.5002 6.29996 32.0002 6.49995 31.5002 6.99995C31.4002 7.09995 31.4002 7.09995 31.4002 7.19995V11C31.4002 11.1 31.4002 11.2 31.5002 11.2C31.8002 11.5 32.3002 11.7 32.8002 11.7Z" stroke="black" stroke-width="0.5983"/>
<path d="M41.5002 14.2C41.0002 14.2 40.5002 14 40.2002 13.6C39.9002 13.2 39.7002 12.8 39.7002 12.2C39.7002 11.6 39.9002 11.2 40.2002 10.8C40.5002 10.4 41.0002 10.2 41.5002 10.2C42.0002 10.2 42.5002 10.4 42.9002 10.8C43.3002 11.2 43.4002 11.6 43.4002 12.2C43.4002 12.8 43.2002 13.2 42.9002 13.6C42.6002 14 42.1002 14.2 41.5002 14.2Z" stroke="black" stroke-width="0.5983"/>
<path d="M53.4994 12.4C52.5994 13.6 51.4994 14.2 50.0994 14.2C48.6994 14.2 47.4994 13.6 46.6994 12.4C45.8994 11.2 45.3994 9.5 45.3994 7.3C45.3994 5.1 45.7994 3.4 46.6994 2.2C47.4994 0.999997 48.6994 0.5 50.0994 0.5C51.4994 0.5 52.6994 1.1 53.4994 2.2C54.2994 3.3 54.7994 5 54.7994 7.2C54.6994 9.5 54.2994 11.2 53.4994 12.4ZM49.3994 11.6C49.5994 11.7 49.7994 11.8 50.0994 11.8C50.3994 11.8 50.5994 11.7 50.7994 11.6C50.9994 11.5 51.1994 11.2 51.2994 10.9C51.4994 10.6 51.5994 10.1 51.6994 9.5C51.7994 8.9 51.7994 8.2 51.7994 7.3C51.7994 6.4 51.7994 5.70001 51.6994 5.10001C51.5994 4.50001 51.4994 4.1 51.2994 3.8C51.0994 3.5 50.9994 3.3 50.7994 3.2C50.5994 3.1 50.3994 3 50.0994 3C49.7994 3 49.5994 3.1 49.3994 3.2C49.1994 3.3 48.9994 3.5 48.8994 3.8C48.7994 4.1 48.5994 4.50001 48.4994 5.10001C48.3994 5.70001 48.3994 6.4 48.3994 7.3C48.3994 8.2 48.3994 8.9 48.4994 9.5C48.5994 10.1 48.6994 10.6 48.8994 10.9C48.9994 11.2 49.1994 11.4 49.3994 11.6Z" stroke="black" stroke-width="0.5983"/>
<path d="M60.4998 14.2C58.9998 14.2 57.6998 13.8 56.6998 13C56.4998 12.8 56.2998 12.6 56.2998 12.3V12.2C56.2998 12 56.3998 11.7 56.4998 11.5L56.6998 11.2C56.8998 11 57.0998 10.9 57.2998 10.8H57.3998C57.5998 10.8 57.7998 10.9 57.9998 11C58.5998 11.4 59.2998 11.6001 59.8998 11.6001C60.5998 11.6001 61.0998 11.4001 61.3998 11.1001C61.7998 10.7001 61.8998 10.2001 61.8998 9.60005C61.8998 9.00005 61.6998 8.40005 61.3998 8.10005C60.9998 7.70005 60.5998 7.60005 59.9998 7.60005C59.5998 7.60005 59.1998 7.70005 58.8998 7.80005C58.6998 7.90005 58.3998 8.00005 58.1998 8.00005C57.8998 8.00005 57.6998 7.90005 57.4998 7.80005C57.0998 7.50005 56.7998 7.10005 56.7998 6.60005V6.50005L56.9998 1.80005C56.9998 1.50005 57.0998 1.30005 57.2998 1.10005C57.4998 0.900052 57.7998 0.800049 57.9998 0.800049H63.3998C63.6998 0.800049 63.8998 0.900052 64.0998 1.10005C64.2998 1.30005 64.3998 1.50005 64.3998 1.80005V2.40004C64.3998 2.70004 64.2998 2.90005 64.0998 3.10005C63.8998 3.30005 63.6998 3.40004 63.3998 3.40004H59.7998C59.6998 3.40004 59.6998 3.40005 59.5998 3.50005L59.3998 5.50005V5.60005H59.4998C59.8998 5.40005 60.2998 5.40004 60.6998 5.40004C61.8998 5.40004 62.8998 5.80005 63.6998 6.50005C64.4998 7.20005 64.8998 8.30005 64.8998 9.60005C64.8998 10.6001 64.6998 11.4001 64.1998 12.1001C63.7998 12.8001 63.1998 13.4 62.4998 13.7C62.1998 14 61.3998 14.2 60.4998 14.2Z" stroke="black" stroke-width="0.5983"/>
<path d="M71.2998 7.6C103.6 10 136.2 9.09998 168.3 4.89999C185.6 2.69999 203.8 -0.500009 220 5.99999" stroke="#4D4D4D" stroke-width="0.5983" stroke-miterlimit="10"/>
</svg>
