<svg width="67" height="19" viewBox="0 0 67 19" fill="none" xmlns="http://www.w3.org/2000/svg">
<path d="M4 14.5003C3 14.5003 2 14.2003 0.9 13.7003C0.7 13.6003 0.5 13.3003 0.5 13.1003C0.5 13.0003 0.5 13.0003 0.5 12.9003C0.5 12.7003 0.6 12.5003 0.7 12.3003L0.9 12.0003C1.1 11.8003 1.3 11.6003 1.6 11.6003C1.7 11.6003 1.7 11.6003 1.8 11.6003C2 11.6003 2.2 11.7003 2.4 11.8003C3 12.1003 3.6 12.3003 4.1 12.3003C4.9 12.3003 5.3 12.0003 5.3 11.5003C5.3 11.4003 5.3 11.3003 5.2 11.3003C5.1 11.3003 5.1 11.0003 5 10.9003C4.9 10.8003 4.8 10.8003 4.8 10.7003C4.7 10.6003 4.6 10.6003 4.5 10.5003C4.3 10.4003 4.2 10.4003 4.1 10.3003C4 10.3003 3.9 10.2003 3.7 10.1003C3.5 10.0003 3.4 10.0003 3.3 9.90028C3 9.80028 2.6 9.60029 2.4 9.50029C2.2 9.40029 1.8 9.20028 1.6 8.90028C1.4 8.60028 1.1 8.4003 1 8.1003C0.8 7.8003 0.8 7.40029 0.8 7.00029C0.8 6.00029 1.2 5.30029 1.9 4.70029C2.6 4.10029 3.6 3.80029 4.7 3.80029C5.7 3.80029 6.6 4.00029 7.5 4.50029C7.7 4.60029 7.9 4.8003 7.9 5.1003C7.9 5.2003 7.9 5.20029 7.9 5.30029C7.9 5.50029 7.8 5.70028 7.7 5.90028L7.5 6.1003C7.3 6.3003 7.1 6.50029 6.8 6.50029C6.7 6.50029 6.6 6.50029 6.6 6.50029C6.4 6.50029 6.2 6.50028 6 6.40028C5.6 6.20028 5.2 6.1003 4.8 6.1003C4.1 6.1003 3.7 6.30029 3.7 6.80029C3.7 6.90029 3.7 6.90029 3.7 7.00029C3.7 7.10029 3.8 7.10029 3.8 7.20029C3.8 7.30029 3.9 7.30029 3.9 7.30029C3.9 7.30029 4 7.40028 4.1 7.40028C4.2 7.40028 4.3 7.50029 4.3 7.50029C4.4 7.50029 4.5 7.6003 4.6 7.6003C4.7 7.6003 4.8 7.70029 4.9 7.70029C5 7.70029 5.1 7.80029 5.2 7.80029C5.3 7.80029 5.5 7.90028 5.5 7.90028C5.9 8.00028 6.2 8.20029 6.5 8.30029C6.8 8.40029 7 8.60028 7.3 8.90028C7.6 9.20028 7.8 9.40029 7.9 9.80029C8 10.1003 8.1 10.5003 8.1 11.0003C8.1 12.0003 7.7 12.8003 7 13.4003C6.3 14.0003 5.3 14.5003 4 14.5003Z" stroke="#CC622D" stroke-miterlimit="10"/>
<path d="M13.9996 14.5005C12.7996 14.5005 11.8996 14.2005 11.2996 13.4005C10.6996 12.7005 10.3996 11.7005 10.3996 10.5005V6.70049C10.3996 6.60049 10.3996 6.60049 10.2996 6.60049H10.0996C9.79961 6.60049 9.59961 6.50049 9.39961 6.30049C9.19961 6.10049 9.09961 5.90049 9.09961 5.60049V5.30049C9.09961 5.00049 9.19961 4.80049 9.39961 4.50049C9.59961 4.30049 9.79961 4.20049 10.0996 4.10049H10.4996C10.5996 4.10049 10.5996 4.00049 10.6996 4.00049L10.8996 2.50049C10.8996 2.20049 11.0996 2.00049 11.2996 1.80049C11.4996 1.60049 11.7996 1.50049 12.0996 1.50049H12.6996C12.9996 1.50049 13.1996 1.60049 13.3996 1.80049C13.5996 2.00049 13.6996 2.20049 13.6996 2.50049V4.00049C13.6996 4.10049 13.6996 4.10049 13.7996 4.10049H14.9996C15.2996 4.10049 15.4996 4.20048 15.6996 4.40048C15.8996 4.60048 15.9996 4.80049 15.9996 5.10049V5.50049C15.9996 5.80049 15.8996 6.00049 15.6996 6.20049C15.4996 6.40049 15.2996 6.50049 14.9996 6.50049H13.7996C13.6996 6.50049 13.6996 6.50049 13.6996 6.60049V10.3005C13.6996 11.3005 14.0996 11.8005 14.8996 11.9005C15.1996 11.9005 15.3996 12.0005 15.6996 12.1005C15.8996 12.2005 16.0996 12.4005 16.0996 12.7005L16.1996 13.0005C16.1996 13.1005 16.1996 13.2005 16.1996 13.3005C16.1996 13.5005 16.0996 13.7005 15.9996 13.8005C15.7996 14.1005 15.5996 14.2005 15.3996 14.3005C14.8996 14.4005 14.4996 14.5005 13.9996 14.5005Z" stroke="#CC622D" stroke-miterlimit="10"/>
<path d="M22.2992 14.5004C20.7992 14.5004 19.5992 14.0004 18.5992 13.1004C17.5992 12.2004 17.1992 10.9004 17.1992 9.20039C17.1992 8.40039 17.2992 7.7004 17.5992 7.0004C17.8992 6.3004 18.1992 5.8004 18.6992 5.3004C19.0992 4.9004 19.6992 4.5004 20.1992 4.3004C20.7992 4.1004 21.3992 3.90039 21.9992 3.90039C23.3992 3.90039 24.4992 4.4004 25.1992 5.3004C25.8992 6.2004 26.2992 7.4004 26.2992 8.8004C26.2992 8.9004 26.2992 9.0004 26.2992 9.1004C26.2992 9.4004 26.1992 9.6004 25.8992 9.8004C25.6992 10.0004 25.3992 10.1004 25.0992 10.1004H20.2992H20.1992V10.2004C20.4992 11.4004 21.2992 12.0004 22.6992 12.0004C23.0992 12.0004 23.4992 11.9004 23.8992 11.8004C23.9992 11.8004 24.1992 11.7004 24.2992 11.7004C24.3992 11.7004 24.5992 11.7004 24.6992 11.8004C24.9992 11.9004 25.1992 12.0004 25.2992 12.3004L25.3992 12.4004C25.4992 12.6004 25.5992 12.7004 25.5992 12.9004C25.5992 13.0004 25.5992 13.1004 25.4992 13.2004C25.3992 13.5004 25.2992 13.7004 24.9992 13.8004C24.1992 14.2004 23.2992 14.5004 22.2992 14.5004ZM20.1992 7.90039C20.1992 8.00039 20.1992 8.0004 20.2992 8.0004H23.4992C23.5992 8.0004 23.5992 8.00039 23.5992 7.90039C23.5992 7.40039 23.3992 7.00039 23.1992 6.70039C22.8992 6.40039 22.4992 6.3004 21.9992 6.3004C21.4992 6.3004 21.1992 6.40039 20.7992 6.70039C20.3992 7.10039 20.1992 7.50039 20.1992 7.90039Z" stroke="#CC622D" stroke-miterlimit="10"/>
<path d="M29.4004 17.9004C29.1004 17.9004 28.9004 17.8004 28.7004 17.6004C28.5004 17.4004 28.4004 17.2004 28.4004 16.9004V5.1004C28.4004 4.8004 28.5004 4.60039 28.7004 4.40039C28.9004 4.20039 29.1004 4.1004 29.4004 4.1004H30.0004C30.3004 4.1004 30.5004 4.20039 30.7004 4.40039C30.9004 4.60039 31.0004 4.8004 31.1004 5.0004V5.1004C31.1004 5.1004 31.1004 5.1004 31.2004 5.1004C32.1004 4.3004 33.1004 3.90039 34.0004 3.90039C35.2004 3.90039 36.2004 4.4004 36.9004 5.3004C37.6004 6.2004 38.0004 7.5004 38.0004 9.0004C38.0004 9.8004 37.9004 10.6004 37.6004 11.3004C37.3004 12.0004 37.0004 12.6004 36.6004 13.0004C36.2004 13.5004 35.7004 13.8004 35.2004 14.0004C34.7004 14.2004 34.2004 14.4004 33.6004 14.4004C32.8004 14.4004 32.0004 14.1004 31.3004 13.4004C31.3004 13.4004 31.3004 13.4004 31.2004 13.4004L31.3004 14.9004V16.8004C31.3004 17.1004 31.2004 17.3004 31.0004 17.5004C30.8004 17.7004 30.6004 17.8004 30.3004 17.8004H29.4004V17.9004ZM33.0004 11.9004C33.5004 11.9004 33.9004 11.7004 34.3004 11.2004C34.6004 10.7004 34.8004 10.0004 34.8004 9.1004C34.8004 8.2004 34.7004 7.6004 34.4004 7.1004C34.1004 6.7004 33.7004 6.5004 33.2004 6.5004C32.7004 6.5004 32.2004 6.70039 31.7004 7.20039C31.6004 7.30039 31.6004 7.30039 31.6004 7.40039V11.2004C31.6004 11.3004 31.6004 11.4004 31.7004 11.4004C32.0004 11.7004 32.5004 11.9004 33.0004 11.9004Z" stroke="#CC622D" stroke-miterlimit="10"/>
<path d="M41.7004 14.5005C41.2004 14.5005 40.7004 14.3005 40.4004 13.9005C40.1004 13.5005 39.9004 13.1005 39.9004 12.5005C39.9004 11.9005 40.1004 11.5005 40.4004 11.1005C40.7004 10.7005 41.2004 10.5005 41.7004 10.5005C42.2004 10.5005 42.7004 10.7005 43.1004 11.1005C43.5004 11.5005 43.6004 11.9005 43.6004 12.5005C43.6004 13.1005 43.4004 13.5005 43.1004 13.9005C42.8004 14.3005 42.3004 14.5005 41.7004 14.5005Z" stroke="#CC622D" stroke-miterlimit="10"/>
<path d="M53.6996 12.7003C52.7996 13.9003 51.6996 14.5003 50.2996 14.5003C48.8996 14.5003 47.6996 13.9003 46.8996 12.7003C46.0996 11.5003 45.5996 9.8003 45.5996 7.6003C45.5996 5.4003 45.9996 3.70029 46.8996 2.50029C47.6996 1.30029 48.8996 0.800293 50.2996 0.800293C51.6996 0.800293 52.8996 1.40029 53.6996 2.50029C54.4996 3.60029 54.9996 5.30029 54.9996 7.50029C54.8996 9.80029 54.4996 11.5003 53.6996 12.7003ZM49.5996 11.8003C49.7996 11.9003 49.9996 12.0003 50.2996 12.0003C50.5996 12.0003 50.7996 11.9003 50.9996 11.8003C51.1996 11.7003 51.3996 11.4003 51.4996 11.1003C51.6996 10.8003 51.7996 10.3003 51.8996 9.70029C51.9996 9.10029 51.9996 8.40029 51.9996 7.50029C51.9996 6.60029 51.9996 5.90029 51.8996 5.30029C51.7996 4.70029 51.6996 4.30029 51.4996 4.00029C51.2996 3.70029 51.1996 3.50028 50.9996 3.40028C50.7996 3.30028 50.5996 3.20029 50.2996 3.20029C49.9996 3.20029 49.7996 3.30028 49.5996 3.40028C49.3996 3.50028 49.1996 3.70029 49.0996 4.00029C48.9996 4.30029 48.7996 4.70029 48.6996 5.30029C48.5996 5.90029 48.5996 6.60029 48.5996 7.50029C48.5996 8.40029 48.5996 9.10029 48.6996 9.70029C48.7996 10.3003 48.8996 10.8003 49.0996 11.1003C49.1996 11.5003 49.3996 11.7003 49.5996 11.8003Z" stroke="#CC622D" stroke-miterlimit="10"/>
<path d="M61.9996 13.2005C61.9996 13.5005 61.8996 13.7005 61.6996 13.9005C61.4996 14.1005 61.1996 14.2005 60.9996 14.2005H59.8996C59.5996 14.2005 59.3996 14.1005 59.1996 13.9005C58.9996 13.7005 58.8996 13.5005 58.8996 13.3005C58.8996 11.8005 59.1996 10.0005 59.8996 8.10049C60.3996 6.70049 61.0996 5.20049 62.1996 3.70049C62.1996 3.70049 62.1996 3.70049 62.1996 3.60049C62.1996 3.60049 62.1996 3.60049 62.0996 3.60049H57.5996C57.2996 3.60049 57.0996 3.50049 56.8996 3.30049C56.6996 3.10049 56.5996 2.90049 56.5996 2.60049V2.00049C56.5996 1.70049 56.6996 1.50049 56.8996 1.30049C57.0996 1.10049 57.2996 1.00049 57.5996 1.00049H64.6996C64.9996 1.00049 65.1996 1.10049 65.3996 1.30049C65.5996 1.50049 65.6996 1.70049 65.6996 2.00049C65.6996 2.60049 65.4996 3.20049 65.0996 3.70049C64.4996 4.40049 63.9996 5.20049 63.6996 5.80049C63.2996 6.50049 62.9996 7.20049 62.7996 8.00049C62.5996 8.80049 62.3996 9.60049 62.2996 10.3005C62.1996 11.1005 62.0996 12.1005 61.9996 13.2005Z" stroke="#CC622D" stroke-miterlimit="10"/>
</svg>
