<svg width="66" height="19" viewBox="0 0 66 19" fill="none" xmlns="http://www.w3.org/2000/svg">
<path d="M4 14.5999C3 14.5999 2 14.2999 0.9 13.7999C0.7 13.6999 0.5 13.3999 0.5 13.1999C0.5 13.0999 0.5 13.0999 0.5 12.9999C0.5 12.7999 0.6 12.5999 0.7 12.3999L0.9 12.0999C1.1 11.8999 1.3 11.6999 1.6 11.6999C1.7 11.6999 1.7 11.6999 1.8 11.6999C2 11.6999 2.2 11.7999 2.4 11.8999C3 12.1999 3.6 12.3999 4.1 12.3999C4.9 12.3999 5.3 12.0999 5.3 11.5999C5.3 11.4999 5.3 11.3999 5.2 11.3999C5.1 11.3999 5.1 11.0999 5 10.9999C4.9 10.8999 4.8 10.8999 4.8 10.7999C4.7 10.6999 4.6 10.6999 4.5 10.5999C4.3 10.4999 4.2 10.4999 4.1 10.3999C4 10.3999 3.9 10.2999 3.7 10.1999C3.5 10.0999 3.4 10.0999 3.3 9.99991C3 9.89991 2.6 9.69991 2.4 9.59991C2.2 9.49991 1.8 9.29991 1.6 8.99991C1.4 8.69991 1.1 8.49991 1 8.19991C0.8 7.89991 0.8 7.49991 0.8 7.09991C0.8 6.09991 1.2 5.39991 1.9 4.79991C2.6 4.19991 3.6 3.8999 4.7 3.8999C5.7 3.8999 6.6 4.09991 7.5 4.59991C7.7 4.69991 7.9 4.89991 7.9 5.19991C7.9 5.29991 7.9 5.2999 7.9 5.3999C7.9 5.5999 7.8 5.79991 7.7 5.99991L7.5 6.19991C7.3 6.39991 7.1 6.59991 6.8 6.59991C6.7 6.59991 6.6 6.59991 6.6 6.59991C6.4 6.59991 6.2 6.59991 6 6.49991C5.6 6.29991 5.2 6.19991 4.8 6.19991C4.1 6.19991 3.7 6.3999 3.7 6.8999C3.7 6.9999 3.7 6.99991 3.7 7.09991C3.7 7.19991 3.8 7.19991 3.8 7.29991C3.8 7.39991 3.9 7.3999 3.9 7.3999C3.9 7.3999 4 7.49991 4.1 7.49991C4.2 7.49991 4.3 7.59991 4.3 7.59991C4.4 7.59991 4.5 7.69991 4.6 7.69991C4.7 7.69991 4.8 7.79991 4.9 7.79991C5 7.79991 5.1 7.8999 5.2 7.8999C5.3 7.8999 5.5 7.99991 5.5 7.99991C5.9 8.09991 6.2 8.2999 6.5 8.3999C6.8 8.4999 7 8.69991 7.3 8.99991C7.6 9.29991 7.8 9.4999 7.9 9.8999C8 10.1999 8.1 10.5999 8.1 11.0999C8.1 12.0999 7.7 12.8999 7 13.4999C6.3 14.0999 5.3 14.5999 4 14.5999Z" stroke="#CC622D" stroke-miterlimit="10"/>
<path d="M13.9996 14.6001C12.7996 14.6001 11.8996 14.3001 11.2996 13.5001C10.6996 12.8001 10.3996 11.8001 10.3996 10.6001V6.80009C10.3996 6.70009 10.3996 6.70009 10.2996 6.70009H10.0996C9.79961 6.70009 9.59961 6.60009 9.39961 6.40009C9.19961 6.20009 9.09961 6.00009 9.09961 5.70009V5.40009C9.09961 5.10009 9.19961 4.9001 9.39961 4.6001C9.59961 4.4001 9.79961 4.30009 10.0996 4.20009H10.4996C10.5996 4.20009 10.5996 4.1001 10.6996 4.1001L10.8996 2.6001C10.8996 2.3001 11.0996 2.10009 11.2996 1.90009C11.4996 1.70009 11.7996 1.6001 12.0996 1.6001H12.6996C12.9996 1.6001 13.1996 1.70009 13.3996 1.90009C13.5996 2.10009 13.6996 2.3001 13.6996 2.6001V4.1001C13.6996 4.2001 13.6996 4.20009 13.7996 4.20009H14.9996C15.2996 4.20009 15.4996 4.30009 15.6996 4.50009C15.8996 4.70009 15.9996 4.90009 15.9996 5.20009V5.6001C15.9996 5.9001 15.8996 6.10009 15.6996 6.30009C15.4996 6.50009 15.2996 6.6001 14.9996 6.6001H13.7996C13.6996 6.6001 13.6996 6.60009 13.6996 6.70009V10.4001C13.6996 11.4001 14.0996 11.9001 14.8996 12.0001C15.1996 12.0001 15.3996 12.1001 15.6996 12.2001C15.8996 12.3001 16.0996 12.5001 16.0996 12.8001L16.1996 13.1001C16.1996 13.2001 16.1996 13.3001 16.1996 13.4001C16.1996 13.6001 16.0996 13.8001 15.9996 13.9001C15.7996 14.2001 15.5996 14.3001 15.3996 14.4001C14.8996 14.5001 14.4996 14.6001 13.9996 14.6001Z" stroke="#CC622D" stroke-miterlimit="10"/>
<path d="M22.2992 14.6C20.7992 14.6 19.5992 14.1 18.5992 13.2C17.5992 12.3 17.1992 11 17.1992 9.3C17.1992 8.5 17.2992 7.80001 17.5992 7.10001C17.8992 6.40001 18.1992 5.89999 18.6992 5.39999C19.0992 4.99999 19.6992 4.59999 20.1992 4.39999C20.7992 4.19999 21.3992 4 21.9992 4C23.3992 4 24.4992 4.49999 25.1992 5.39999C25.8992 6.29999 26.2992 7.49999 26.2992 8.89999C26.2992 8.99999 26.2992 9.1 26.2992 9.2C26.2992 9.5 26.1992 9.69999 25.8992 9.89999C25.6992 10.1 25.3992 10.2 25.0992 10.2H20.2992H20.1992V10.3C20.4992 11.5 21.2992 12.1 22.6992 12.1C23.0992 12.1 23.4992 12 23.8992 11.9C23.9992 11.9 24.1992 11.8 24.2992 11.8C24.3992 11.8 24.5992 11.8 24.6992 11.9C24.9992 12 25.1992 12.1 25.2992 12.4L25.3992 12.5C25.4992 12.7 25.5992 12.8 25.5992 13C25.5992 13.1 25.5992 13.2 25.4992 13.3C25.3992 13.6 25.2992 13.8 24.9992 13.9C24.1992 14.4 23.2992 14.6 22.2992 14.6ZM20.1992 8.10001C20.1992 8.20001 20.1992 8.2 20.2992 8.2H23.4992C23.5992 8.2 23.5992 8.20001 23.5992 8.10001C23.5992 7.60001 23.3992 7.19999 23.1992 6.89999C22.8992 6.59999 22.4992 6.5 21.9992 6.5C21.4992 6.5 21.1992 6.59999 20.7992 6.89999C20.3992 7.19999 20.1992 7.60001 20.1992 8.10001Z" stroke="#CC622D" stroke-miterlimit="10"/>
<path d="M29.4004 18.1001C29.1004 18.1001 28.9004 18.0001 28.7004 17.8001C28.5004 17.6001 28.4004 17.4001 28.4004 17.1001V5.30009C28.4004 5.00009 28.5004 4.8001 28.7004 4.6001C28.9004 4.4001 29.1004 4.30009 29.4004 4.30009H30.0004C30.3004 4.30009 30.5004 4.4001 30.7004 4.6001C30.9004 4.8001 31.0004 5.00009 31.1004 5.20009V5.30009C31.1004 5.30009 31.1004 5.30009 31.2004 5.30009C32.1004 4.50009 33.1004 4.1001 34.0004 4.1001C35.2004 4.1001 36.2004 4.60009 36.9004 5.50009C37.6004 6.40009 38.0004 7.70009 38.0004 9.20009C38.0004 10.0001 37.9004 10.8001 37.6004 11.5001C37.3004 12.2001 37.0004 12.8001 36.6004 13.2001C36.2004 13.7001 35.7004 14.0001 35.2004 14.2001C34.7004 14.4001 34.2004 14.6001 33.6004 14.6001C32.8004 14.6001 32.0004 14.3001 31.3004 13.6001C31.3004 13.6001 31.3004 13.6001 31.2004 13.6001L31.3004 15.1001V17.0001C31.3004 17.3001 31.2004 17.5001 31.0004 17.7001C30.8004 17.9001 30.6004 18.0001 30.3004 18.0001H29.4004V18.1001ZM33.0004 12.0001C33.5004 12.0001 33.9004 11.8001 34.3004 11.3001C34.6004 10.8001 34.8004 10.1001 34.8004 9.20009C34.8004 8.30009 34.7004 7.70009 34.4004 7.20009C34.1004 6.80009 33.7004 6.6001 33.2004 6.6001C32.7004 6.6001 32.2004 6.80009 31.7004 7.30009C31.6004 7.40009 31.6004 7.40009 31.6004 7.50009V11.3001C31.6004 11.4001 31.6004 11.5001 31.7004 11.5001C32.0004 11.9001 32.5004 12.0001 33.0004 12.0001Z" stroke="#CC622D" stroke-miterlimit="10"/>
<path d="M41.7004 14.6001C41.2004 14.6001 40.7004 14.4001 40.4004 14.0001C40.1004 13.6001 39.9004 13.2001 39.9004 12.6001C39.9004 12.0001 40.1004 11.6001 40.4004 11.2001C40.7004 10.8001 41.2004 10.6001 41.7004 10.6001C42.2004 10.6001 42.7004 10.8001 43.1004 11.2001C43.5004 11.6001 43.6004 12.0001 43.6004 12.6001C43.6004 13.2001 43.4004 13.6001 43.1004 14.0001C42.8004 14.4001 42.3004 14.6001 41.7004 14.6001Z" stroke="#CC622D" stroke-miterlimit="10"/>
<path d="M53.6996 12.7999C52.7996 13.9999 51.6996 14.5999 50.2996 14.5999C48.8996 14.5999 47.6996 13.9999 46.8996 12.7999C46.0996 11.5999 45.5996 9.89991 45.5996 7.69991C45.5996 5.49991 45.9996 3.79991 46.8996 2.59991C47.6996 1.39991 48.8996 0.899902 50.2996 0.899902C51.6996 0.899902 52.8996 1.49991 53.6996 2.59991C54.4996 3.69991 54.9996 5.39991 54.9996 7.59991C54.8996 9.89991 54.4996 11.5999 53.6996 12.7999ZM49.5996 11.8999C49.7996 11.9999 49.9996 12.0999 50.2996 12.0999C50.5996 12.0999 50.7996 11.9999 50.9996 11.8999C51.1996 11.7999 51.3996 11.4999 51.4996 11.1999C51.6996 10.8999 51.7996 10.3999 51.8996 9.79991C51.9996 9.19991 51.9996 8.49991 51.9996 7.59991C51.9996 6.69991 51.9996 5.9999 51.8996 5.3999C51.7996 4.7999 51.6996 4.39991 51.4996 4.09991C51.2996 3.79991 51.1996 3.59991 50.9996 3.49991C50.7996 3.39991 50.5996 3.29991 50.2996 3.29991C49.9996 3.29991 49.7996 3.39991 49.5996 3.49991C49.3996 3.59991 49.1996 3.79991 49.0996 4.09991C48.9996 4.39991 48.7996 4.7999 48.6996 5.3999C48.5996 5.9999 48.5996 6.69991 48.5996 7.59991C48.5996 8.49991 48.5996 9.19991 48.6996 9.79991C48.7996 10.3999 48.8996 10.8999 49.0996 11.1999C49.1996 11.5999 49.3996 11.7999 49.5996 11.8999Z" stroke="#CC622D" stroke-miterlimit="10"/>
<path d="M60.7 14.5997C59.2 14.5997 57.9 14.1997 56.9 13.3997C56.7 13.1997 56.5 12.9997 56.5 12.6997V12.5997C56.5 12.3997 56.6 12.0997 56.7 11.8997L56.9 11.5997C57.1 11.3997 57.3 11.2997 57.5 11.1997H57.6C57.8 11.1997 58 11.2997 58.2 11.3997C58.8 11.7997 59.5 11.9997 60.1 11.9997C60.8 11.9997 61.3 11.7997 61.6 11.4997C62 11.0997 62.1 10.5997 62.1 9.99971C62.1 9.39971 61.9 8.79971 61.6 8.49971C61.2 8.09971 60.8 7.99971 60.2 7.99971C59.8 7.99971 59.4 8.09971 59.1 8.19971C58.9 8.29971 58.6 8.3997 58.4 8.3997C58.1 8.3997 57.9 8.29971 57.7 8.19971C57.3 7.89971 57 7.49971 57 6.99971V6.8997L57.2 2.19971C57.2 1.89971 57.3 1.69971 57.5 1.49971C57.7 1.29971 58 1.19971 58.2 1.19971H63.6C63.9 1.19971 64.1 1.29971 64.3 1.49971C64.5 1.69971 64.6 1.89971 64.6 2.19971V2.79971C64.6 3.09971 64.5 3.29971 64.3 3.49971C64.1 3.69971 63.9 3.79971 63.6 3.79971H60C59.9 3.79971 59.9 3.7997 59.8 3.8997L59.6 5.8997V5.99971H59.7C60.1 5.79971 60.5 5.79971 60.9 5.79971C62.1 5.79971 63.1 6.1997 63.9 6.8997C64.7 7.5997 65.1 8.69971 65.1 9.99971C65.1 10.9997 64.9 11.7997 64.4 12.4997C64 13.1997 63.4 13.7997 62.7 14.0997C62.4 14.3997 61.6 14.5997 60.7 14.5997Z" stroke="#CC622D" stroke-miterlimit="10"/>
</svg>
