<svg width="66" height="19" viewBox="0 0 66 19" fill="none" xmlns="http://www.w3.org/2000/svg">
<path d="M4 14.3002C3 14.3002 2 14.0002 0.9 13.5002C0.7 13.4002 0.5 13.1002 0.5 12.9002C0.5 12.8002 0.5 12.8002 0.5 12.7002C0.5 12.5002 0.6 12.3002 0.7 12.1002L0.9 11.8002C1.1 11.6002 1.3 11.4002 1.6 11.4002C1.7 11.4002 1.7 11.4002 1.8 11.4002C2 11.4002 2.2 11.5002 2.4 11.6002C3 11.9002 3.6 12.1002 4.1 12.1002C4.9 12.1002 5.3 11.8002 5.3 11.3002C5.3 11.2002 5.3 11.1002 5.2 11.1002C5.1 11.1002 5.1 11.0002 5 10.9002C4.9 10.8002 4.8 10.8002 4.8 10.7002C4.7 10.6002 4.6 10.6002 4.5 10.5002C4.3 10.4002 4.2 10.4002 4.1 10.3002C4 10.3002 3.9 10.2002 3.7 10.1002C3.5 10.0002 3.4 10.0002 3.3 9.90018C3 9.80018 2.6 9.60018 2.4 9.50018C2.2 9.40018 1.8 9.20018 1.6 8.90018C1.4 8.60018 1 8.40018 0.9 8.00018C0.7 7.70018 0.7 7.30018 0.7 6.90018C0.7 5.90018 1.1 5.20019 1.8 4.60019C2.5 4.00019 3.5 3.7002 4.6 3.7002C5.6 3.7002 6.5 3.90018 7.4 4.40018C7.6 4.50018 7.8 4.70018 7.8 5.00018C7.8 5.10018 7.8 5.1002 7.8 5.2002C7.8 5.4002 7.7 5.60017 7.6 5.80017L7.4 6.00018C7.2 6.20018 7 6.40018 6.7 6.40018C6.6 6.40018 6.5 6.40018 6.5 6.40018C6.3 6.40018 6.1 6.40017 5.9 6.30017C5.5 6.10017 5.1 6.00018 4.7 6.00018C4 6.00018 3.6 6.2002 3.6 6.7002C3.6 6.8002 3.6 6.80018 3.6 6.90018C3.6 7.00018 3.7 7.00019 3.7 7.10019C3.7 7.20019 3.8 7.2002 3.8 7.2002C3.8 7.2002 3.9 7.30017 4 7.30017C4.1 7.30017 4.2 7.40018 4.2 7.40018C4.3 7.40018 4.4 7.50018 4.5 7.50018C4.6 7.50018 4.7 7.60019 4.8 7.60019C4.9 7.60019 5 7.7002 5.1 7.7002C5.2 7.7002 5.4 7.80017 5.4 7.80017C5.8 7.90017 6.1 8.1002 6.4 8.2002C6.7 8.3002 6.9 8.50017 7.2 8.80017C7.5 9.10017 7.7 9.3002 7.8 9.7002C7.9 10.0002 8 10.4002 8 10.9002C8 11.9002 7.6 12.7002 6.9 13.3002C6.2 13.9002 5.3 14.3002 4 14.3002Z" stroke="#CC622D" stroke-miterlimit="10"/>
<path d="M13.9996 14.3003C12.7996 14.3003 11.8996 14.0003 11.2996 13.2003C10.6996 12.5003 10.3996 11.5003 10.3996 10.3003V6.50031C10.3996 6.40031 10.3996 6.4003 10.2996 6.4003H10.0996C9.79961 6.4003 9.59961 6.30031 9.39961 6.10031C9.19961 5.90031 9.09961 5.7003 9.09961 5.4003V5.10031C9.09961 4.80031 9.19961 4.60029 9.39961 4.30029C9.59961 4.10029 9.79961 4.0003 10.0996 3.9003H10.4996C10.5996 3.9003 10.5996 3.80029 10.6996 3.80029L10.8996 2.30029C10.8996 2.00029 11.0996 1.80031 11.2996 1.60031C11.4996 1.40031 11.7996 1.30029 12.0996 1.30029H12.6996C12.9996 1.30029 13.1996 1.40031 13.3996 1.60031C13.5996 1.80031 13.6996 2.00029 13.6996 2.30029V3.80029C13.6996 3.90029 13.6996 3.9003 13.7996 3.9003H14.9996C15.2996 3.9003 15.4996 4.00032 15.6996 4.20032C15.8996 4.40032 15.9996 4.6003 15.9996 4.9003V5.30029C15.9996 5.60029 15.8996 5.80031 15.6996 6.00031C15.4996 6.20031 15.2996 6.30029 14.9996 6.30029H13.7996C13.6996 6.30029 13.6996 6.3003 13.6996 6.4003V10.1003C13.6996 11.1003 14.0996 11.6003 14.8996 11.7003C15.1996 11.7003 15.3996 11.8003 15.6996 11.9003C15.8996 12.0003 16.0996 12.2003 16.0996 12.5003L16.1996 12.8003C16.1996 12.9003 16.1996 13.0003 16.1996 13.1003C16.1996 13.3003 16.0996 13.5003 15.9996 13.6003C15.7996 13.9003 15.5996 14.0003 15.3996 14.1003C14.8996 14.3003 14.4996 14.3003 13.9996 14.3003Z" stroke="#CC622D" stroke-miterlimit="10"/>
<path d="M22.2992 14.3002C20.7992 14.3002 19.5992 13.8002 18.5992 12.9002C17.5992 12.0002 17.1992 10.7002 17.1992 9.00018C17.1992 8.20018 17.2992 7.50017 17.5992 6.80017C17.8992 6.10017 18.1992 5.60019 18.6992 5.10019C19.0992 4.70019 19.6992 4.30019 20.1992 4.10019C20.7992 3.90019 21.3992 3.7002 21.9992 3.7002C23.3992 3.7002 24.4992 4.20019 25.1992 5.10019C25.8992 6.00019 26.2992 7.20019 26.2992 8.60019C26.2992 8.70019 26.2992 8.80018 26.2992 8.90018C26.2992 9.20018 26.1992 9.40019 25.8992 9.60019C25.6992 9.80019 25.3992 9.90018 25.0992 9.90018H20.2992H20.1992V10.0002C20.4992 11.2002 21.2992 11.8002 22.6992 11.8002C23.0992 11.8002 23.4992 11.7002 23.8992 11.6002C23.9992 11.6002 24.1992 11.5002 24.2992 11.5002C24.3992 11.5002 24.5992 11.5002 24.6992 11.6002C24.9992 11.7002 25.1992 11.8002 25.2992 12.1002L25.3992 12.2002C25.4992 12.4002 25.5992 12.5002 25.5992 12.7002C25.5992 12.8002 25.5992 12.9002 25.4992 13.0002C25.3992 13.3002 25.2992 13.5002 24.9992 13.6002C24.1992 14.1002 23.2992 14.3002 22.2992 14.3002ZM20.1992 7.80017C20.1992 7.90017 20.1992 7.90018 20.2992 7.90018H23.4992C23.5992 7.90018 23.5992 7.90017 23.5992 7.80017C23.5992 7.30017 23.3992 6.90019 23.1992 6.60019C22.8992 6.30019 22.4992 6.2002 21.9992 6.2002C21.4992 6.2002 21.1992 6.30019 20.7992 6.60019C20.3992 6.90019 20.1992 7.30017 20.1992 7.80017Z" stroke="#CC622D" stroke-miterlimit="10"/>
<path d="M29.4004 17.8003C29.1004 17.8003 28.9004 17.7003 28.7004 17.5003C28.5004 17.3003 28.4004 17.1003 28.4004 16.8003V5.00031C28.4004 4.70031 28.5004 4.50029 28.7004 4.30029C28.9004 4.10029 29.1004 4.00031 29.4004 4.00031H30.0004C30.3004 4.00031 30.5004 4.10029 30.7004 4.30029C30.9004 4.50029 31.0004 4.7003 31.1004 4.9003V5.00031C31.1004 5.00031 31.1004 5.00031 31.2004 5.00031C32.1004 4.20031 33.1004 3.80029 34.0004 3.80029C35.2004 3.80029 36.2004 4.30032 36.9004 5.20032C37.6004 6.10032 38.0004 7.4003 38.0004 8.9003C38.0004 9.7003 37.9004 10.5003 37.6004 11.2003C37.3004 11.9003 37.0004 12.5003 36.6004 12.9003C36.2004 13.4003 35.7004 13.7003 35.2004 13.9003C34.7004 14.1003 34.2004 14.3003 33.6004 14.3003C32.8004 14.3003 32.0004 14.0003 31.3004 13.3003C31.3004 13.3003 31.3004 13.3003 31.2004 13.3003L31.3004 14.8003V16.7003C31.3004 17.0003 31.2004 17.2003 31.0004 17.4003C30.8004 17.6003 30.6004 17.7003 30.3004 17.7003H29.4004V17.8003ZM33.0004 11.8003C33.5004 11.8003 33.9004 11.6003 34.3004 11.1003C34.6004 10.6003 34.8004 9.90031 34.8004 9.00031C34.8004 8.10031 34.7004 7.50031 34.4004 7.00031C34.1004 6.60031 33.7004 6.4003 33.2004 6.4003C32.7004 6.4003 32.2004 6.60031 31.7004 7.10031C31.6004 7.20031 31.6004 7.20029 31.6004 7.30029V11.1003C31.6004 11.2003 31.6004 11.3003 31.7004 11.3003C32.0004 11.6003 32.5004 11.8003 33.0004 11.8003Z" stroke="#CC622D" stroke-miterlimit="10"/>
<path d="M41.7004 14.3003C41.2004 14.3003 40.7004 14.1003 40.4004 13.7003C40.1004 13.3003 39.9004 12.9003 39.9004 12.3003C39.9004 11.7003 40.1004 11.3003 40.4004 10.9003C40.7004 10.5003 41.2004 10.3003 41.7004 10.3003C42.2004 10.3003 42.7004 10.5003 43.1004 10.9003C43.5004 11.3003 43.6004 11.7003 43.6004 12.3003C43.6004 12.9003 43.4004 13.3003 43.1004 13.7003C42.8004 14.1003 42.3004 14.3003 41.7004 14.3003Z" stroke="#CC622D" stroke-miterlimit="10"/>
<path d="M47.1992 14.1C46.8992 14.1 46.6992 14 46.4992 13.8C46.2992 13.6 46.1992 13.4 46.1992 13.1V12.6C46.1992 12.3 46.2992 12.1 46.4992 11.9C46.6992 11.7 46.8992 11.6 47.1992 11.6H48.7992C48.8992 11.6 48.8992 11.6 48.8992 11.5V4.20001C48.8992 4.10001 48.8992 4.10001 48.7992 4.10001H47.4992C47.1992 4.10001 46.9992 3.99999 46.7992 3.79999C46.5992 3.59999 46.4992 3.40001 46.4992 3.10001C46.4992 2.80001 46.5992 2.59999 46.7992 2.39999C46.9992 2.19999 47.1992 2 47.4992 2C47.9992 1.9 48.4992 1.7 48.8992 1.5C49.5992 1.2 50.1992 1 50.7992 1H51.0992C51.3992 1 51.5992 1.09999 51.7992 1.29999C51.9992 1.49999 52.0992 1.7 52.0992 2V11.5C52.0992 11.6 52.0992 11.6 52.1992 11.6H53.3992C53.6992 11.6 53.8992 11.7 54.0992 11.9C54.2992 12.1 54.3992 12.3 54.3992 12.6V13.1C54.3992 13.4 54.2992 13.6 54.0992 13.8C53.8992 14 53.6992 14.1 53.3992 14.1H47.1992Z" stroke="#CC622D" stroke-miterlimit="10"/>
<path d="M57.3004 14.1002C57.1004 14.1002 56.8004 14.0002 56.7004 13.8002C56.5004 13.6002 56.4004 13.4002 56.4004 13.2002C56.4004 12.6002 56.6004 12.1002 57.1004 11.7002C58.7004 10.2002 59.9004 8.90018 60.7004 7.90018C61.5004 6.80018 61.9004 5.90018 61.9004 5.00018C61.9004 4.40018 61.7004 3.90019 61.4004 3.60019C61.1004 3.30019 60.7004 3.10019 60.1004 3.10019C59.6004 3.10019 59.1004 3.3002 58.6004 3.7002C58.4004 3.9002 58.1004 4.00018 57.8004 4.00018C57.5004 4.00018 57.3004 3.9002 57.1004 3.7002L56.8004 3.40018C56.6004 3.20018 56.5004 3.0002 56.5004 2.7002C56.5004 2.4002 56.6004 2.20018 56.8004 2.00018C57.3004 1.50018 57.9004 1.20018 58.5004 1.00018C59.1004 0.800183 59.7004 0.700195 60.5004 0.700195C61.8004 0.700195 62.8004 1.10017 63.6004 1.80017C64.4004 2.60017 64.8004 3.60017 64.8004 4.80017C64.8004 6.70017 63.5004 8.90018 60.9004 11.5002C60.9004 11.5002 60.9004 11.5002 60.9004 11.6002C60.9004 11.6002 60.9004 11.6002 61.0004 11.6002C61.8004 11.5002 62.5004 11.4002 63.0004 11.4002H64.4004C64.7004 11.4002 64.9004 11.5002 65.1004 11.7002C65.3004 11.9002 65.4004 12.1002 65.4004 12.4002V13.0002C65.4004 13.3002 65.3004 13.5002 65.1004 13.7002C64.9004 13.9002 64.7004 14.0002 64.4004 14.0002H57.3004V14.1002Z" stroke="#CC622D" stroke-miterlimit="10"/>
</svg>
