<svg width="221" height="19" viewBox="0 0 221 19" fill="none" xmlns="http://www.w3.org/2000/svg">
<path d="M4.7002 14.8999C3.7002 14.8999 2.70019 14.5999 1.60019 14.0999C1.40019 13.9999 1.2002 13.6999 1.2002 13.4999C1.2002 13.3999 1.2002 13.3999 1.2002 13.2999C1.2002 13.0999 1.30018 12.8999 1.40018 12.6999L1.60019 12.3999C1.80019 12.1999 2.00017 11.9999 2.30017 11.9999C2.40017 11.9999 2.40018 11.9999 2.50018 11.9999C2.70018 11.9999 2.90019 12.0999 3.10019 12.1999C3.70019 12.4999 4.30017 12.6999 4.80017 12.6999C5.60017 12.6999 6.00018 12.3999 6.00018 11.8999C6.00018 11.7999 6.00018 11.6999 5.90018 11.6999C5.80018 11.6999 5.8002 11.5999 5.7002 11.4999C5.6002 11.3999 5.50018 11.3999 5.50018 11.2999C5.40018 11.1999 5.3002 11.1999 5.2002 11.0999C5.0002 10.9999 4.90017 10.9999 4.80017 10.8999C4.70017 10.8999 4.60018 10.7999 4.40018 10.6999C4.20018 10.5999 4.10018 10.5999 4.00018 10.4999C3.70018 10.3999 3.30019 10.1999 3.10019 10.0999C2.90019 9.99991 2.50017 9.79991 2.30017 9.49991C2.10017 9.19991 1.8002 8.99991 1.7002 8.69991C1.5002 8.39991 1.50018 7.99991 1.50018 7.59991C1.50018 6.59991 1.90019 5.89991 2.60019 5.29991C3.30019 4.69991 4.30018 4.3999 5.40018 4.3999C6.40018 4.3999 7.3002 4.59991 8.2002 5.09991C8.4002 5.19991 8.60019 5.39991 8.60019 5.69991C8.60019 5.79991 8.60019 5.7999 8.60019 5.8999C8.60019 6.0999 8.50018 6.29991 8.40018 6.49991L8.2002 6.69991C8.0002 6.89991 7.80018 7.09991 7.50018 7.09991C7.40018 7.09991 7.30017 7.09991 7.30017 7.09991C7.10017 7.09991 6.9002 7.09991 6.7002 6.99991C6.3002 6.79991 5.90018 6.69991 5.50018 6.69991C4.80018 6.69991 4.40018 6.8999 4.40018 7.3999C4.40018 7.4999 4.40018 7.49991 4.40018 7.59991C4.40018 7.69991 4.50018 7.69991 4.50018 7.79991C4.50018 7.89991 4.60019 7.8999 4.60019 7.8999C4.60019 7.8999 4.70017 7.99991 4.80017 7.99991C4.90017 7.99991 5.00018 8.09991 5.00018 8.09991C5.10018 8.09991 5.20017 8.19991 5.30017 8.19991C5.40017 8.19991 5.50019 8.29991 5.60019 8.29991C5.70019 8.29991 5.80018 8.3999 5.90018 8.3999C6.00018 8.3999 6.2002 8.49991 6.2002 8.49991C6.6002 8.59991 6.9002 8.7999 7.2002 8.8999C7.5002 8.9999 7.70018 9.19991 8.00018 9.49991C8.30018 9.79991 8.50019 9.9999 8.60019 10.3999C8.70019 10.6999 8.80017 11.0999 8.80017 11.5999C8.80017 12.5999 8.4002 13.3999 7.7002 13.9999C7.0002 14.5999 6.0002 14.8999 4.7002 14.8999Z" stroke="black" stroke-width="0.5983"/>
<path d="M14.6998 14.8999C13.4998 14.8999 12.5998 14.5999 11.9998 13.7999C11.3998 13.0999 11.0998 12.0999 11.0998 10.8999V7.09991C11.0998 6.99991 11.0998 6.99991 10.9998 6.99991H10.7998C10.4998 6.99991 10.2998 6.89991 10.0998 6.69991C9.89982 6.49991 9.7998 6.29991 9.7998 5.99991V5.69991C9.7998 5.39991 9.89982 5.1999 10.0998 4.8999C10.2998 4.6999 10.4998 4.59991 10.7998 4.49991H11.1998C11.2998 4.49991 11.2998 4.3999 11.3998 4.3999L11.5998 2.8999C11.5998 2.5999 11.7998 2.39991 11.9998 2.19991C12.1998 1.99991 12.4998 1.8999 12.7998 1.8999H13.3998C13.6998 1.8999 13.8998 1.99991 14.0998 2.19991C14.2998 2.39991 14.3998 2.5999 14.3998 2.8999V4.3999C14.3998 4.4999 14.3998 4.49991 14.4998 4.49991H15.6998C15.9998 4.49991 16.1998 4.59991 16.3998 4.79991C16.5998 4.99991 16.6998 5.19991 16.6998 5.49991V5.8999C16.6998 6.1999 16.5998 6.39991 16.3998 6.59991C16.1998 6.79991 15.9998 6.8999 15.6998 6.8999H14.4998C14.3998 6.8999 14.3998 6.89991 14.3998 6.99991V10.6999C14.3998 11.6999 14.7998 12.1999 15.5998 12.2999C15.8998 12.2999 16.0998 12.3999 16.3998 12.4999C16.5998 12.5999 16.7998 12.7999 16.7998 13.0999L16.8998 13.3999C16.8998 13.4999 16.8998 13.5999 16.8998 13.6999C16.8998 13.8999 16.7998 14.0999 16.6998 14.1999C16.4998 14.4999 16.2998 14.5999 16.0998 14.6999C15.5998 14.7999 15.1998 14.8999 14.6998 14.8999Z" stroke="black" stroke-width="0.5983"/>
<path d="M23.1 14.9C21.6 14.9 20.4 14.4 19.4 13.5C18.4 12.6 18 11.3001 18 9.60005C18 8.80005 18.1 8.10004 18.4 7.40004C18.7 6.70004 19 6.20004 19.5 5.70004C19.9 5.30004 20.5 4.90004 21 4.70004C21.6 4.50004 22.2 4.30005 22.8 4.30005C24.2 4.30005 25.3 4.80004 26 5.70004C26.7 6.60004 27.1 7.80004 27.1 9.20004C27.1 9.30004 27.1 9.40005 27.1 9.50005C27.1 9.80005 27 10 26.7 10.2C26.5 10.4 26.2 10.5 25.9 10.5H21.1H21V10.6001C21.3 11.8001 22.1 12.4 23.5 12.4C23.9 12.4 24.3 12.3 24.7 12.2C24.8 12.2 25 12.1001 25.1 12.1001C25.2 12.1001 25.4 12.1 25.5 12.2C25.8 12.3 26 12.4 26.1 12.7L26.2 12.8C26.3 13 26.4 13.1 26.4 13.3C26.4 13.4 26.4 13.5001 26.3 13.6001C26.2 13.9001 26.1 14.1 25.8 14.2C24.9 14.7 24 14.9 23.1 14.9ZM20.9 8.40004C20.9 8.50004 20.9 8.50005 21 8.50005H24.2C24.3 8.50005 24.3 8.50004 24.3 8.40004C24.3 7.90004 24.1 7.50004 23.9 7.20004C23.6 6.90004 23.2 6.80005 22.7 6.80005C22.2 6.80005 21.9 6.90004 21.5 7.20004C21.2 7.50004 20.9 7.90004 20.9 8.40004Z" stroke="black" stroke-width="0.5983"/>
<path d="M30.1006 18.3C29.8006 18.3 29.6006 18.2 29.4006 18C29.2006 17.8 29.1006 17.6 29.1006 17.3V5.50005C29.1006 5.20005 29.2006 5.00005 29.4006 4.80005C29.6006 4.60005 29.8006 4.50005 30.1006 4.50005H30.8006C31.1006 4.50005 31.3006 4.60005 31.5006 4.80005C31.7006 5.00005 31.8006 5.20004 31.9006 5.40004V5.50005C31.9006 5.50005 31.9006 5.50005 32.0006 5.50005C32.9006 4.70005 33.9006 4.30005 34.8006 4.30005C36.0006 4.30005 37.0006 4.80004 37.7006 5.70004C38.4006 6.60004 38.8006 7.90004 38.8006 9.40004C38.8006 10.2 38.7006 11 38.4006 11.7C38.1006 12.4 37.8006 13 37.4006 13.4C37.0006 13.9 36.5006 14.2 36.0006 14.4C35.5006 14.6 35.0006 14.8 34.4006 14.8C33.6006 14.8 32.8006 14.5 32.1006 13.8C32.1006 13.8 32.1006 13.8 32.0006 13.8L32.1006 15.3V17.2C32.1006 17.5 32.0006 17.7 31.8006 17.9C31.6006 18.1 31.4006 18.2 31.1006 18.2H30.1006V18.3ZM33.7006 12.3C34.2006 12.3 34.6006 12.1001 35.0006 11.6001C35.3006 11.1001 35.5006 10.4 35.5006 9.50005C35.5006 8.60005 35.4006 8.00005 35.1006 7.50005C34.8006 7.10005 34.4006 6.90004 33.9006 6.90004C33.4006 6.90004 32.9006 7.10005 32.4006 7.60005C32.3006 7.70005 32.3006 7.70005 32.3006 7.80005V11.6001C32.3006 11.7001 32.3006 11.8 32.4006 11.8C32.7006 12.2 33.2006 12.3 33.7006 12.3Z" stroke="black" stroke-width="0.5983"/>
<path d="M42.4006 14.8999C41.9006 14.8999 41.4006 14.6999 41.1006 14.2999C40.8006 13.8999 40.6006 13.4999 40.6006 12.8999C40.6006 12.2999 40.8006 11.8999 41.1006 11.4999C41.4006 11.0999 41.9006 10.8999 42.4006 10.8999C42.9006 10.8999 43.4006 11.0999 43.8006 11.4999C44.2006 11.8999 44.3006 12.2999 44.3006 12.8999C44.3006 13.4999 44.1006 13.8999 43.8006 14.2999C43.5006 14.6999 43.0006 14.8999 42.4006 14.8999Z" stroke="black" stroke-width="0.5983"/>
<path d="M54.3998 13.1C53.4998 14.3 52.3998 14.8999 50.9998 14.8999C49.5998 14.8999 48.3998 14.3 47.5998 13.1C46.7998 11.9 46.2998 10.2 46.2998 7.99995C46.2998 5.79995 46.6998 4.09995 47.5998 2.89995C48.3998 1.69995 49.5998 1.19995 50.9998 1.19995C52.3998 1.19995 53.5998 1.79995 54.3998 2.89995C55.1998 3.99995 55.6998 5.69995 55.6998 7.89995C55.5998 10.1999 55.1998 11.9 54.3998 13.1ZM50.2998 12.2C50.4998 12.3 50.6998 12.3999 50.9998 12.3999C51.2998 12.3999 51.4998 12.3 51.6998 12.2C51.8998 12.1 52.0998 11.8 52.1998 11.5C52.3998 11.2 52.4998 10.7 52.5998 10.1C52.6998 9.49996 52.6998 8.79995 52.6998 7.89995C52.6998 6.99995 52.6998 6.29995 52.5998 5.69995C52.4998 5.09995 52.3998 4.69995 52.1998 4.39995C51.9998 4.09995 51.8998 3.89996 51.6998 3.79996C51.4998 3.69996 51.2998 3.59996 50.9998 3.59996C50.6998 3.59996 50.4998 3.69996 50.2998 3.79996C50.0998 3.89996 49.8998 4.09995 49.7998 4.39995C49.6998 4.69995 49.4998 5.09995 49.3998 5.69995C49.2998 6.29995 49.2998 6.99995 49.2998 7.89995C49.2998 8.79995 49.2998 9.49996 49.3998 10.1C49.4998 10.7 49.5998 11.2 49.7998 11.5C49.8998 11.9 50.0998 12.1 50.2998 12.2Z" stroke="black" stroke-width="0.5983"/>
<path d="M62.8004 13.5999C62.8004 13.8999 62.7004 14.0999 62.5004 14.2999C62.3004 14.4999 62.0004 14.5999 61.8004 14.5999H60.7004C60.4004 14.5999 60.2004 14.4999 60.0004 14.2999C59.8004 14.0999 59.7004 13.8999 59.7004 13.6999C59.7004 12.1999 60.0004 10.3999 60.7004 8.49991C61.2004 7.09991 61.9004 5.59991 63.0004 4.09991C63.0004 4.09991 63.0004 4.09991 63.0004 3.99991C63.0004 3.99991 63.0004 3.99991 62.9004 3.99991H58.4004C58.1004 3.99991 57.9004 3.89991 57.7004 3.69991C57.5004 3.49991 57.4004 3.29991 57.4004 2.99991V2.3999C57.4004 2.0999 57.5004 1.89991 57.7004 1.69991C57.9004 1.49991 58.1004 1.3999 58.4004 1.3999H65.5004C65.8004 1.3999 66.0004 1.49991 66.2004 1.69991C66.4004 1.89991 66.5004 2.0999 66.5004 2.3999C66.5004 2.9999 66.3004 3.59991 65.9004 4.09991C65.3004 4.79991 64.8004 5.59991 64.5004 6.19991C64.1004 6.89991 63.8003 7.5999 63.6003 8.3999C63.4003 9.1999 63.2003 9.99991 63.1003 10.6999C62.9003 11.4999 62.8004 12.4999 62.8004 13.5999Z" stroke="black" stroke-width="0.5983"/>
<path d="M78.7002 9.6C126 5.4 173.6 5.1 220.9 8.8" stroke="#4D4D4D" stroke-width="0.5983" stroke-miterlimit="10"/>
</svg>
