<svg width="143" height="20" viewBox="0 0 143 20" fill="none" xmlns="http://www.w3.org/2000/svg">
<g clip-path="url(#clip0)">
<path d="M29.5093 0C35.3917 0 39.5093 4.11765 39.5093 10C39.5093 15.8824 34.9015 20.1961 29.1172 20.098C23.4309 20 19.1172 15.7843 19.1172 10.1961C19.2152 4.31373 23.725 0 29.5093 0ZM36.5682 10.7843C36.5682 8.52941 36.176 6.37255 34.9995 4.41176C33.4309 1.86275 31.176 0.784314 28.3329 1.17647C25.5878 1.47059 23.725 3.13726 22.8427 5.78431C21.7642 9.31373 22.1564 12.8431 24.1172 15.9804C26.5682 19.902 32.6466 20.2941 35.1956 16.2745C36.2741 14.5098 36.5682 12.6471 36.5682 10.7843Z" fill="white"/>
<path d="M114.901 8.03912C114.901 8.92148 114.901 9.80383 114.901 10.6862C114.901 12.843 114.999 14.9999 114.999 17.1568C114.999 18.3332 115.391 18.6274 116.568 18.9215C116.764 18.9215 116.96 19.2156 117.058 19.3136C116.862 19.4117 116.666 19.7058 116.568 19.7058C115.097 19.7058 113.725 19.7058 112.254 19.7058C112.058 19.7058 111.862 19.5097 111.666 19.3136C111.862 19.1176 111.96 18.9215 112.156 18.8234C113.333 18.5293 113.333 18.5293 113.431 17.3528C113.529 16.1764 113.529 15.0979 113.529 13.9215C113.529 11.7646 113.529 9.50971 113.529 7.35285C113.529 5.9803 113.137 5.39207 111.764 5.09795C111.47 4.99991 111.176 4.99991 111.176 4.60775C111.274 4.11756 111.568 4.31363 111.862 4.31363C112.94 4.31363 114.019 4.31363 114.999 4.31363C115.49 4.31363 115.686 4.50971 115.98 4.90187C117.254 6.56854 118.627 8.2352 119.999 9.80383C121.47 11.4705 122.94 13.0391 124.411 14.7058C124.509 14.8038 124.705 14.9999 124.901 15.196C124.901 14.9019 124.901 14.8038 124.901 14.6078C124.901 12.647 124.901 10.5881 124.901 8.62736C124.901 7.94109 124.803 7.25481 124.705 6.4705C124.607 5.58814 124.215 5.29403 123.333 5.19599C123.039 5.19599 122.646 5.29403 122.646 4.70579C122.646 4.11756 123.137 4.31363 123.431 4.31363C124.803 4.31363 126.078 4.31363 127.45 4.31363C127.744 4.31363 128.137 4.21559 128.137 4.70579C128.137 4.90187 127.842 5.09795 127.646 5.19599C126.666 5.4901 126.47 5.58814 126.372 6.66658C126.274 10.4901 126.274 14.3136 126.274 18.0391C126.274 18.5293 126.274 19.0195 126.274 19.5097C126.274 19.7058 126.078 19.9999 125.882 20.0979C125.686 20.196 125.293 19.9999 125.195 19.9019C121.96 16.2744 118.823 12.5489 115.588 8.92148C115.391 8.62736 115.097 8.33324 114.901 8.13716C115.097 7.94108 114.999 7.94108 114.901 8.03912Z" fill="white"/>
<path d="M135.391 19.6081C133.626 19.6081 131.862 19.6081 129.999 19.6081C129.705 19.6081 129.312 19.7061 129.312 19.2159C129.312 18.7257 129.705 18.8238 129.999 18.8238C131.371 18.7257 131.469 18.5297 131.567 17.2551C131.567 13.6277 131.567 10.0983 131.567 6.47083C131.567 5.58847 131.175 5.09828 130.391 5.09828C130.195 5.09828 130.097 4.80416 129.901 4.70612C130.097 4.60808 130.293 4.31396 130.489 4.31396C133.724 4.31396 136.96 4.31396 140.195 4.31396C140.587 4.31396 140.685 4.412 140.783 4.80416C140.881 5.58847 140.979 6.47083 140.979 7.25514C140.979 7.45122 140.783 7.6473 140.685 7.74534C140.489 7.6473 140.293 7.54926 140.097 7.35318C140.097 7.35318 139.999 7.25514 139.999 7.1571C139.705 5.88259 138.822 5.3924 137.646 5.3924C136.763 5.3924 135.881 5.3924 135.097 5.3924C134.607 5.3924 134.509 5.58847 134.509 5.98063C134.509 7.45122 134.509 9.01985 134.509 10.4904C134.509 10.9806 134.705 11.0787 135.195 11.0787C135.881 11.0787 136.567 11.0787 137.254 11.0787C138.234 11.0787 138.43 10.8826 138.626 9.9022C138.626 9.80416 138.626 9.60808 138.724 9.51004C138.822 9.412 139.018 9.21593 139.214 9.21593C139.313 9.21593 139.607 9.51004 139.607 9.60808C139.607 10.9806 139.607 12.3532 139.607 13.8238C139.607 14.0198 139.411 14.2159 139.313 14.2159C139.116 14.2159 138.92 14.0198 138.822 13.9218V13.8238C138.43 12.3532 138.43 12.3532 136.96 12.2551C136.371 12.2551 135.783 12.2551 135.195 12.2551C134.803 12.2551 134.607 12.3532 134.607 12.7453C134.607 14.2159 134.607 15.6865 134.705 17.1571C134.705 17.9414 135.097 18.3336 135.881 18.4316C137.058 18.5297 138.332 18.5297 139.509 18.4316C140.391 18.3336 140.979 17.7453 141.371 16.961C141.469 16.6669 141.567 16.4708 141.763 16.1767C141.862 16.0787 142.156 15.9806 142.352 15.9806C142.45 15.9806 142.646 16.2747 142.646 16.4708C142.45 17.4512 142.156 18.3336 141.862 19.2159C141.763 19.412 141.371 19.6081 141.175 19.6081C139.018 19.6081 137.254 19.6081 135.391 19.6081Z" fill="white"/>
<path d="M108.333 19.6076C107.45 19.6076 106.666 19.6076 105.784 19.6076C105.489 19.6076 105.195 19.6076 105.195 19.2155C105.195 19.0194 105.489 18.8233 105.686 18.8233C106.47 18.6272 106.568 18.6272 106.372 17.7449C106.078 16.6664 105.686 15.588 105.293 14.5096C105.195 14.1174 104.901 13.9213 104.509 13.9213C103.431 13.9213 102.45 13.9213 101.372 13.9213C101.176 13.9213 100.784 14.1174 100.686 14.3135C100.293 15.3919 99.9012 16.5684 99.5091 17.6468C99.313 18.3331 99.411 18.5292 100.097 18.6272C100.195 18.6272 100.391 18.6272 100.489 18.7253C100.686 18.8233 100.784 19.0194 100.882 19.2155C100.686 19.3135 100.588 19.5096 100.391 19.5096C99.9012 19.5096 99.313 19.5096 98.8228 19.5096C97.9405 19.5096 97.1561 19.5096 96.2738 19.5096C96.0777 19.5096 95.8816 19.3135 95.6855 19.2155C95.8816 19.0194 95.9797 18.7253 96.1757 18.7253C97.1561 18.7253 97.6463 18.039 97.9405 17.2547C99.411 13.5292 100.98 9.8037 102.254 5.98017C102.646 4.90174 103.431 4.60762 104.019 4.01939C104.313 3.72527 104.509 4.01939 104.607 4.41154C105.097 5.98017 105.588 7.45076 106.176 9.01939C107.156 11.8625 108.137 14.7057 109.117 17.5488C109.411 18.3331 109.803 18.7253 110.588 18.8233C110.784 18.8233 110.98 19.1174 111.176 19.3135C110.98 19.4115 110.686 19.6076 110.489 19.6076C109.901 19.6076 109.117 19.6076 108.333 19.6076ZM104.705 12.6468C104.117 10.9802 103.627 9.41154 103.038 7.64684C102.352 9.41154 101.862 10.9802 101.274 12.6468C102.45 12.6468 103.529 12.6468 104.705 12.6468Z" fill="white"/>
<path d="M67.4515 3.82373C68.53 4.01981 69.9025 4.21589 71.2751 4.51C71.4711 4.51 71.6672 4.80412 71.6672 4.90216C71.7653 5.88255 71.8633 6.86295 71.9613 7.7453C71.9613 7.94138 71.7653 8.13746 71.6672 8.33353C71.4712 8.23549 71.177 8.13746 71.177 7.94138C70.4908 6.07863 69.1182 5.0002 67.1574 4.90216C65.0006 4.80412 63.2359 5.68648 62.0594 7.54922C60.981 9.31393 60.8829 11.3728 61.177 13.3335C61.4712 15.1963 62.2555 16.7649 63.9221 17.9414C66.2751 19.608 70.0006 19.412 71.5692 15.9806C71.6672 15.7845 71.6672 15.5884 71.7653 15.4904C71.9613 15.3924 72.1574 15.3924 72.3535 15.3924C72.4515 15.3924 72.5496 15.6865 72.5496 15.7845C72.2555 16.7649 71.9613 17.7453 71.6672 18.7257C71.5692 18.9218 71.4711 19.1178 71.2751 19.1178C68.0398 20.0982 64.9025 20.2943 61.7653 18.7257C58.4319 17.059 57.2555 13.5296 57.9417 10.1963C58.726 6.76491 61.177 4.60804 64.9025 4.01981C65.5888 3.92177 66.3731 3.92177 67.4515 3.82373Z" fill="white"/>
<path d="M51.4698 3.82373C52.5482 4.01981 53.9207 4.21589 55.2933 4.51C55.4894 4.51 55.6855 4.80412 55.6855 5.0002C55.7835 5.88255 55.8815 6.86295 55.9796 7.84334C55.9796 8.03942 55.7835 8.2355 55.7835 8.43157C55.5874 8.33353 55.2933 8.23549 55.1953 8.03942C54.8031 6.86295 54.1168 5.88255 52.9404 5.39236C50.7835 4.41197 47.9404 5.19628 46.4698 7.05902C45.0972 8.82373 44.9011 10.7845 45.0972 12.8433C45.2933 14.8041 45.9796 16.4708 47.5482 17.7453C49.9992 19.7061 53.8227 19.51 55.4894 15.9806C55.5874 15.8826 55.5874 15.6865 55.6855 15.6865C55.8815 15.5884 56.0776 15.4904 56.1756 15.4904C56.2737 15.4904 56.4698 15.7845 56.4698 15.8826C56.1756 16.961 55.8815 17.9414 55.4894 19.0198C55.4894 19.1178 55.2933 19.2159 55.1953 19.3139C52.3521 20.1963 49.509 20.3924 46.7639 19.3139C44.0188 18.2355 42.3521 16.2747 41.96 13.4316C41.1756 8.52961 44.1168 4.80412 49.0188 4.11785C49.7051 3.92177 50.3913 3.92177 51.4698 3.82373Z" fill="white"/>
<path d="M90.195 11.5686C90.195 13.2353 90.195 14.902 90.195 16.5686C90.195 16.7647 90.195 17.0588 90.195 17.2549C90.293 18.6274 90.3911 18.7255 91.7636 18.8235C91.9597 18.8235 92.2538 19.1176 92.3519 19.2157C92.4499 19.6078 92.0578 19.6078 91.7636 19.6078C89.7048 19.6078 87.646 19.6078 85.5872 19.6078C85.3911 19.6078 85.293 19.3137 85.097 19.2157C85.293 19.1176 85.3911 18.9216 85.5872 18.8235C85.7832 18.7255 85.9793 18.8235 86.1754 18.7255C87.3519 18.5294 87.4499 18.4314 87.4499 17.2549C87.4499 13.4314 87.4499 9.70587 87.4499 5.88234C87.4499 5.49019 87.3519 5.29411 86.9597 5.29411C86.1754 5.29411 85.3911 5.29411 84.6068 5.29411C83.6264 5.39215 82.8421 5.7843 82.3519 6.7647C82.2538 6.96077 82.2538 7.15685 82.0577 7.25489C81.8617 7.35293 81.6656 7.45097 81.4695 7.35293C81.3715 7.35293 81.2734 7.05881 81.2734 6.86274C81.4695 5.88234 81.7636 4.90195 82.0577 3.92156C82.0577 3.82352 82.2538 3.62744 82.3519 3.62744C82.4499 3.62744 82.5479 3.72548 82.744 3.82352C82.9401 3.92156 83.2342 4.21568 83.4303 4.21568C87.2538 4.21568 90.9793 4.21568 94.8028 4.21568C95.097 4.21568 95.3911 3.92156 95.6852 3.82352C95.8813 3.72548 96.0774 3.72548 96.1754 3.62744C96.1754 3.82352 96.2734 3.92156 96.2734 4.11764C96.1754 5.09803 96.0774 6.07842 95.9793 7.15685C95.9793 7.35293 95.7832 7.45097 95.5872 7.64705C95.3911 7.54901 95.195 7.35293 95.097 7.25489C94.9009 5.7843 94.1166 5.39215 92.548 5.39215C91.9597 5.39215 91.3715 5.39215 90.7832 5.39215C90.293 5.39215 90.097 5.58823 90.097 6.07842C90.195 7.84313 90.195 9.70587 90.195 11.5686Z" fill="white"/>
<path d="M5.78393 19.608C4.11726 19.608 2.4506 19.608 0.783931 19.608C0.489813 19.608 0.0976562 19.706 0.0976562 19.2158C0.0976562 18.7256 0.391774 18.8237 0.685892 18.7256C1.9604 18.5295 2.15648 18.3335 2.15648 17.059C2.15648 13.6276 2.15648 10.0982 2.15648 6.6668C2.05844 6.47072 1.9604 6.27464 1.9604 6.07857C1.9604 5.49033 1.66628 5.19621 1.07805 5.09817C0.88197 5.09817 0.587852 5.09817 0.391774 5.00013C0.195695 4.90209 0.0976562 4.70602 0.0976562 4.50994C0.0976562 4.4119 0.293735 4.21582 0.489813 4.21582C2.4506 4.21582 4.41138 4.21582 6.47021 4.21582C6.56824 4.21582 6.86236 4.4119 6.86236 4.50994C6.86236 4.70602 6.66628 4.90209 6.56824 5.00013C4.90158 5.49033 4.80354 5.49033 4.80354 7.157C4.80354 10.1962 4.80354 13.1374 4.80354 16.1766C4.80354 18.1374 5.1957 18.5295 7.15648 18.5295C7.64668 18.5295 8.23491 18.5295 8.72511 18.5295C9.7055 18.5295 10.3918 18.1374 10.882 17.255C11.078 16.9609 11.1761 16.5688 11.3722 16.2746C11.4702 16.0786 11.7643 16.0786 11.9604 15.9805C12.0584 16.1766 12.1565 16.3727 12.1565 16.4707C11.9604 17.3531 11.6663 18.3335 11.3722 19.2158C11.2741 19.4119 10.882 19.5099 10.6859 19.608C9.11726 19.608 7.4506 19.608 5.78393 19.608Z" fill="white"/>
<path d="M76.863 4.21582C77.7454 4.21582 78.6277 4.21582 79.5101 4.21582C79.7061 4.21582 79.9022 4.4119 80.0983 4.50994C79.9022 4.70602 79.8042 4.90209 79.6081 5.00013C78.5297 5.19621 78.3336 5.29425 78.3336 6.47072C78.3336 10.1962 78.3336 13.8237 78.3336 17.5492C78.3336 18.5295 78.5297 18.6276 79.5101 18.8237C79.7061 18.8237 79.9022 19.0197 80.0983 19.0197C80.0003 19.2158 79.9022 19.608 79.7062 19.608C77.7454 19.608 75.8826 19.608 73.9218 19.608C73.8238 19.608 73.5297 19.4119 73.5297 19.2158C73.5297 19.1178 73.7258 18.9217 73.8238 18.8237C73.9218 18.8237 74.0199 18.8237 74.1179 18.8237C75.0983 18.7256 75.2944 18.4315 75.2944 17.4511C75.2944 15.5884 75.2944 13.7256 75.2944 11.8629C75.2944 10.0982 75.2944 8.33347 75.2944 6.56876C75.2944 5.39229 75.0983 5.19621 73.9218 5.00013C73.7258 5.00013 73.6277 4.70602 73.4316 4.60798C73.6277 4.50994 73.8238 4.21582 73.9218 4.21582C75.0003 4.21582 75.9807 4.21582 76.863 4.21582Z" fill="white"/>
<path d="M16.8629 5.78425C16.8629 7.45091 15.2942 8.82346 13.9217 9.11758C13.8236 9.11758 13.5295 9.01954 13.5295 8.9215C13.5295 8.72542 13.5295 8.52935 13.6276 8.43131C13.8236 8.23523 14.1178 8.13719 14.4119 7.94111C14.706 7.74503 14.9021 7.54895 15.0982 7.25484C15.5883 6.37248 15.2942 5.58817 14.4119 5.29405C13.6276 4.99993 13.3334 4.70582 13.5295 4.11758C13.6276 3.52935 14.2158 3.13719 15.0001 3.23523C15.9805 3.43131 16.8629 4.50974 16.8629 5.78425Z" fill="white"/>
</g>
<defs>
<clipPath id="clip0">
<rect width="142.255" height="20" fill="white"/>
</clipPath>
</defs>
</svg>
