<svg width="66" height="19" viewBox="0 0 66 19" fill="none" xmlns="http://www.w3.org/2000/svg">
<path d="M4 14.7001C3 14.7001 2 14.4001 0.9 13.9001C0.7 13.8001 0.5 13.5001 0.5 13.3001C0.5 13.2001 0.5 13.2001 0.5 13.1001C0.5 12.9001 0.6 12.7001 0.7 12.5001L0.9 12.2001C1.1 12.0001 1.3 11.8001 1.6 11.8001C1.7 11.8001 1.7 11.8001 1.8 11.8001C2 11.8001 2.2 11.9001 2.4 12.0001C3 12.3001 3.6 12.5001 4.1 12.5001C4.9 12.5001 5.3 12.2001 5.3 11.7001C5.3 11.6001 5.3 11.5001 5.2 11.5001C5.1 11.5001 5.1 11.2001 5 11.1001C5 11.1001 4.9 11.0001 4.8 11.0001C4.7 10.9001 4.6 10.9001 4.5 10.8001C4.3 10.7001 4.2 10.7001 4.1 10.6001C4 10.6001 3.9 10.5001 3.7 10.4001C3.5 10.3001 3.4 10.3001 3.3 10.2001C3 10.1001 2.6 9.9001 2.4 9.8001C2.2 9.7001 1.8 9.5001 1.6 9.2001C1.4 8.9001 1 8.8001 0.9 8.4001C0.7 8.1001 0.7 7.7001 0.7 7.3001C0.7 6.3001 1.1 5.6001 1.8 5.0001C2.5 4.4001 3.5 4.1001 4.6 4.1001C5.6 4.1001 6.5 4.3001 7.4 4.8001C7.6 4.9001 7.8 5.1001 7.8 5.4001C7.8 5.5001 7.8 5.5001 7.8 5.6001C7.8 5.8001 7.7 6.0001 7.6 6.2001L7.4 6.4001C7.2 6.6001 7 6.8001 6.7 6.8001C6.6 6.8001 6.5 6.8001 6.5 6.8001C6.3 6.8001 6.1 6.8001 5.9 6.7001C5.5 6.5001 5.1 6.4001 4.7 6.4001C4 6.4001 3.6 6.6001 3.6 7.1001C3.6 7.2001 3.6 7.2001 3.6 7.3001C3.6 7.4001 3.7 7.4001 3.7 7.5001C3.7 7.6001 3.8 7.6001 3.8 7.6001C3.8 7.6001 3.9 7.7001 4 7.7001C4.1 7.7001 4.2 7.8001 4.2 7.8001C4.3 7.8001 4.4 7.9001 4.5 7.9001C4.6 7.9001 4.7 8.0001 4.8 8.0001C4.9 8.0001 5 8.1001 5.1 8.1001C5.2 8.1001 5.4 8.2001 5.4 8.2001C5.8 8.3001 6.1 8.5001 6.4 8.6001C6.7 8.7001 6.9 8.9001 7.2 9.2001C7.5 9.5001 7.7 9.7001 7.8 10.1001C7.9 10.4001 8 10.8001 8 11.3001C8 12.3001 7.6 13.1001 6.9 13.7001C6.2 14.3001 5.3 14.7001 4 14.7001Z" stroke="#CC622D" stroke-miterlimit="10"/>
<path d="M13.9996 14.6998C12.7996 14.6998 11.8996 14.3998 11.2996 13.5998C10.6996 12.8998 10.3996 11.8998 10.3996 10.6998V6.9998C10.3996 6.8998 10.3996 6.8998 10.2996 6.8998H10.0996C9.79961 6.8998 9.59961 6.7998 9.39961 6.5998C9.19961 6.3998 9.09961 6.1998 9.09961 5.8998V5.5998C9.09961 5.2998 9.19961 5.0998 9.39961 4.7998C9.59961 4.5998 9.79961 4.4998 10.0996 4.3998H10.4996C10.5996 4.3998 10.5996 4.2998 10.6996 4.2998L10.8996 2.7998C10.8996 2.4998 11.0996 2.2998 11.2996 2.0998C11.4996 1.8998 11.7996 1.7998 12.0996 1.7998H12.6996C12.9996 1.7998 13.1996 1.8998 13.3996 2.0998C13.5996 2.2998 13.6996 2.4998 13.6996 2.7998V4.2998C13.6996 4.3998 13.6996 4.3998 13.7996 4.3998H14.9996C15.2996 4.3998 15.4996 4.4998 15.6996 4.6998C15.8996 4.8998 15.9996 5.0998 15.9996 5.3998V5.7998C15.9996 6.0998 15.8996 6.2998 15.6996 6.4998C15.4996 6.6998 15.2996 6.7998 14.9996 6.7998H13.7996C13.6996 6.7998 13.6996 6.7998 13.6996 6.8998V10.5998C13.6996 11.5998 14.0996 12.0998 14.8996 12.1998C15.1996 12.1998 15.3996 12.2998 15.6996 12.3998C15.8996 12.4998 16.0996 12.6998 16.0996 12.9998L16.1996 13.2998C16.1996 13.3998 16.1996 13.4998 16.1996 13.5998C16.1996 13.7998 16.0996 13.9998 15.9996 14.0998C15.7996 14.3998 15.5996 14.4998 15.3996 14.5998C14.8996 14.6998 14.4996 14.6998 13.9996 14.6998Z" stroke="#CC622D" stroke-miterlimit="10"/>
<path d="M22.2992 14.7001C20.7992 14.7001 19.5992 14.2001 18.5992 13.3001C17.5992 12.4001 17.1992 11.1001 17.1992 9.4001C17.1992 8.6001 17.2992 7.9001 17.5992 7.2001C17.8992 6.5001 18.1992 6.0001 18.6992 5.5001C19.0992 5.1001 19.6992 4.7001 20.1992 4.5001C20.7992 4.3001 21.3992 4.1001 21.9992 4.1001C23.3992 4.1001 24.4992 4.6001 25.1992 5.5001C25.8992 6.4001 26.2992 7.6001 26.2992 9.0001C26.2992 9.1001 26.2992 9.2001 26.2992 9.3001C26.2992 9.6001 26.1992 9.8001 25.8992 10.0001C25.6992 10.2001 25.3992 10.3001 25.0992 10.3001H20.2992H20.1992V10.4001C20.4992 11.6001 21.2992 12.2001 22.6992 12.2001C23.0992 12.2001 23.4992 12.1001 23.8992 12.0001C23.9992 12.0001 24.1992 11.9001 24.2992 11.9001C24.3992 11.9001 24.5992 11.9001 24.6992 12.0001C24.9992 12.1001 25.1992 12.2001 25.2992 12.5001L25.3992 12.6001C25.4992 12.8001 25.5992 12.9001 25.5992 13.1001C25.5992 13.2001 25.5992 13.3001 25.4992 13.4001C25.3992 13.7001 25.2992 13.9001 24.9992 14.0001C24.1992 14.5001 23.2992 14.7001 22.2992 14.7001ZM20.1992 8.2001C20.1992 8.3001 20.1992 8.3001 20.2992 8.3001H23.4992C23.5992 8.3001 23.5992 8.3001 23.5992 8.2001C23.5992 7.7001 23.3992 7.3001 23.1992 7.0001C22.8992 6.7001 22.4992 6.6001 21.9992 6.6001C21.4992 6.6001 21.1992 6.7001 20.7992 7.0001C20.3992 7.3001 20.1992 7.7001 20.1992 8.2001Z" stroke="#CC622D" stroke-miterlimit="10"/>
<path d="M29.4004 18.2002C29.1004 18.2002 28.9004 18.1002 28.7004 17.9002C28.5004 17.7002 28.4004 17.5002 28.4004 17.2002V5.4002C28.4004 5.1002 28.5004 4.9002 28.7004 4.7002C28.9004 4.5002 29.1004 4.4002 29.4004 4.4002H30.0004C30.3004 4.4002 30.5004 4.5002 30.7004 4.7002C30.9004 4.9002 31.0004 5.1002 31.1004 5.3002V5.4002C31.1004 5.4002 31.1004 5.4002 31.2004 5.4002C32.1004 4.6002 33.1004 4.2002 34.0004 4.2002C35.2004 4.2002 36.2004 4.7002 36.9004 5.6002C37.6004 6.5002 38.0004 7.8002 38.0004 9.3002C38.0004 10.1002 37.9004 10.9002 37.6004 11.6002C37.3004 12.3002 37.0004 12.9002 36.6004 13.3002C36.2004 13.8002 35.7004 14.1002 35.2004 14.3002C34.7004 14.5002 34.2004 14.7002 33.6004 14.7002C32.8004 14.7002 32.0004 14.4002 31.3004 13.7002C31.3004 13.7002 31.3004 13.7002 31.2004 13.7002L31.3004 15.2002V17.1002C31.3004 17.4002 31.2004 17.6002 31.0004 17.8002C30.8004 18.0002 30.6004 18.1002 30.3004 18.1002H29.4004V18.2002ZM33.0004 12.2002C33.5004 12.2002 33.9004 12.0002 34.3004 11.5002C34.6004 11.0002 34.8004 10.3002 34.8004 9.4002C34.8004 8.5002 34.7004 7.9002 34.4004 7.4002C34.1004 7.0002 33.7004 6.8002 33.2004 6.8002C32.7004 6.8002 32.2004 7.0002 31.7004 7.5002C31.6004 7.6002 31.6004 7.6002 31.6004 7.7002V11.5002C31.6004 11.6002 31.6004 11.7002 31.7004 11.7002C32.0004 12.0002 32.5004 12.2002 33.0004 12.2002Z" stroke="#CC622D" stroke-miterlimit="10"/>
<path d="M41.7004 14.7002C41.2004 14.7002 40.7004 14.5002 40.4004 14.1002C40.1004 13.7002 39.9004 13.3002 39.9004 12.7002C39.9004 12.1002 40.1004 11.7002 40.4004 11.3002C40.7004 10.9002 41.2004 10.7002 41.7004 10.7002C42.2004 10.7002 42.7004 10.9002 43.1004 11.3002C43.5004 11.7002 43.6004 12.1002 43.6004 12.7002C43.6004 13.3002 43.4004 13.7002 43.1004 14.1002C42.8004 14.5002 42.3004 14.7002 41.7004 14.7002Z" stroke="#CC622D" stroke-miterlimit="10"/>
<path d="M53.6996 12.9C52.7996 14.1 51.6996 14.7 50.2996 14.7C48.8996 14.7 47.6996 14.1 46.8996 12.9C46.0996 11.7 45.5996 10 45.5996 7.8C45.5996 5.6 45.9996 3.9 46.8996 2.7C47.6996 1.5 48.8996 1 50.2996 1C51.6996 1 52.8996 1.6 53.6996 2.7C54.4996 3.8 54.9996 5.5 54.9996 7.7C54.8996 10 54.4996 11.7 53.6996 12.9ZM49.5996 12.1C49.7996 12.2 49.9996 12.3 50.2996 12.3C50.5996 12.3 50.7996 12.2 50.9996 12.1C51.1996 12 51.3996 11.7 51.4996 11.4C51.6996 11.1 51.7996 10.6 51.8996 10C51.9996 9.4 51.9996 8.7 51.9996 7.8C51.9996 6.9 51.9996 6.2 51.8996 5.6C51.7996 5 51.6996 4.6 51.4996 4.3C51.2996 4 51.1996 3.8 50.9996 3.7C50.7996 3.6 50.5996 3.5 50.2996 3.5C49.9996 3.5 49.7996 3.6 49.5996 3.7C49.3996 3.8 49.1996 4 49.0996 4.3C48.9996 4.6 48.7996 5 48.6996 5.6C48.5996 6.2 48.5996 6.9 48.5996 7.8C48.5996 8.7 48.5996 9.4 48.6996 10C48.7996 10.6 48.8996 11.1 49.0996 11.4C49.1996 11.7 49.3996 11.9 49.5996 12.1Z" stroke="#CC622D" stroke-miterlimit="10"/>
<path d="M60.6004 14.6998C59.1004 14.6998 57.8004 14.2998 56.8004 13.5998C56.6004 13.3998 56.4004 13.1998 56.4004 12.8998V12.7998C56.4004 12.4998 56.5004 12.2998 56.6004 12.0998L56.9004 11.7998C57.1004 11.5998 57.3004 11.4998 57.5004 11.3998H57.6004C57.8004 11.3998 58.0004 11.4998 58.2004 11.5998C58.8004 11.9998 59.5004 12.1998 60.2004 12.1998C60.8004 12.1998 61.3004 12.0998 61.7004 11.7998C62.1004 11.4998 62.2004 11.1998 62.2004 10.6998C62.2004 10.1998 62.0004 9.7998 61.7004 9.4998C61.4004 9.1998 60.7004 8.9998 59.8004 8.9998C59.5004 8.9998 59.3004 8.8998 59.1004 8.6998C58.9004 8.4998 58.8004 8.2998 58.8004 7.9998V7.7998C58.8004 7.4998 58.9004 7.2998 59.1004 7.0998C59.3004 6.8998 59.5004 6.7998 59.8004 6.6998C60.5004 6.5998 61.0004 6.3998 61.3004 6.0998C61.6004 5.7998 61.8004 5.3998 61.8004 4.9998C61.8004 4.4998 61.7004 4.1998 61.4004 3.9998C61.1004 3.7998 60.8004 3.5998 60.3004 3.5998C59.8004 3.5998 59.3004 3.7998 58.8004 4.0998C58.6004 4.1998 58.4004 4.2998 58.2004 4.2998H58.1004C57.8004 4.2998 57.6004 4.0998 57.4004 3.8998L57.1004 3.5998C56.9004 3.3998 56.9004 3.1998 56.9004 2.9998V2.8998C56.9004 2.5998 57.1004 2.3998 57.3004 2.2998C58.3004 1.5998 59.4004 1.2998 60.6004 1.2998C62.0004 1.2998 63.1004 1.5998 63.9004 2.1998C64.7004 2.7998 65.1004 3.6998 65.1004 4.8998C65.1004 6.2998 64.4004 7.1998 63.0004 7.7998C63.0004 7.7998 63.0004 7.7998 63.0004 7.8998C63.0004 7.9998 63.0004 7.8998 63.0004 7.9998C63.8004 8.1998 64.4004 8.5998 64.8004 9.1998C65.3004 9.6998 65.5004 10.3998 65.5004 11.1998C65.5004 11.9998 65.3004 12.6998 64.8004 13.2998C64.3004 13.8998 63.8004 14.2998 63.0004 14.5998C62.3004 14.5998 61.5004 14.6998 60.6004 14.6998Z" stroke="#CC622D" stroke-miterlimit="10"/>
</svg>
