<svg width="140" height="141" viewBox="0 0 140 141" fill="none" xmlns="http://www.w3.org/2000/svg">
<path d="M70.1008 139.4C108.098 139.4 138.901 108.597 138.901 70.5998C138.901 32.6026 108.098 1.7998 70.1008 1.7998C32.1036 1.7998 1.30078 32.6026 1.30078 70.5998C1.30078 108.597 32.1036 139.4 70.1008 139.4Z" fill="#A8816D"/>
<path d="M108.399 60.1C108.699 60.8 108.899 61.5 109.199 62.1C109.999 64.2 109.399 65.6 107.199 66.5C108.099 67.3 108.199 68.3 107.899 69.3C107.499 70.5 106.599 71.3 105.499 71.8C104.999 72 104.899 72.3 104.999 72.8C105.599 77.3 102.999 80.5 98.499 80.5C95.499 80.5 92.499 80.1 89.599 79.9C87.799 79.8 85.999 79.4 84.199 79.6C79.499 80.3 75.499 82.6 72.199 86C68.399 89.9 66.399 94.8 65.499 100.1C64.999 103.2 64.899 106.4 64.599 109.6C64.599 109.9 64.599 110.1 64.599 110.4C64.599 111.4 64.099 112.1 63.199 112.3C62.399 112.5 61.499 112.1 61.099 111.2C60.299 109 59.499 106.9 58.999 104.6C56.699 93.5 58.999 83.1 64.499 73.4C68.699 65.9 74.399 59.7 80.799 54.1C89.299 46.7 96.899 38.5 103.499 29.4C103.699 29.2 103.799 29 103.999 28.8C104.799 27.7 105.599 27.4 106.499 27.8C107.399 28.2 107.599 29 107.399 30.3C106.699 34.7 105.999 39.1 105.399 43.5C104.999 46.2 105.799 48.4 107.799 50.2C108.699 50.9 109.599 51.6 110.599 52.2C112.299 53.3 112.999 54.7 112.799 56.6C112.699 57.4 112.299 58 111.599 58.4C110.399 59 109.399 59.5 108.399 60.1ZM108.999 55.7C107.799 54.9 106.699 54.1 105.699 53.3C103.199 51.1 101.499 48.5 101.599 45C101.699 43.4 101.899 41.8 102.099 40.2C102.199 39.1 102.399 37.9 102.599 36.8C102.199 37 101.999 37.2 101.899 37.4C96.099 44.4 89.899 51 82.999 57C77.699 61.6 72.999 66.7 69.199 72.5C64.899 79.1 62.099 86.3 61.699 94.3C61.599 95.9 61.699 97.5 61.699 99.1C62.199 97.8 62.499 96.6 62.899 95.4C65.399 87.4 70.099 81.3 77.899 77.8C80.799 76.5 83.799 75.7 86.999 76.1C89.199 76.4 91.499 76.5 93.699 76.7C95.299 76.8 96.999 77 98.699 77C100.599 77 101.599 75.9 101.499 74C101.499 73.2 101.299 72.4 101.099 71.6C100.799 70.2 101.199 69.4 102.599 69C103.099 68.9 103.599 68.7 104.099 68.5C102.599 65.6 102.899 64.4 105.599 62.8C105.299 62 104.999 61.2 104.599 60.4C103.999 59 104.299 58.3 105.599 57.6C106.799 56.9 107.899 56.3 108.999 55.7Z" fill="white"/>
<path d="M46.6016 96.2995C46.6016 86.4995 49.9015 77.6995 55.3015 69.6995C59.0015 64.0995 63.5016 59.1995 68.6016 54.7995C77.5016 47.0995 85.4015 38.4995 92.3015 28.9995C93.2015 27.6995 94.3016 27.3995 95.2016 27.9995C96.2016 28.6995 96.2016 29.6995 95.2016 30.9995C88.3016 40.4995 80.4016 49.1995 71.5016 56.8995C65.1016 62.3995 59.6016 68.5995 55.6016 75.9995C51.8016 82.8995 49.8016 90.2995 50.2016 98.1995C50.4016 102.1 51.2016 105.9 52.7016 109.6C53.2016 110.8 53.0016 111.8 51.9016 112.3C50.9016 112.7 50.0016 112.3 49.4016 111.1C47.7016 107.1 46.6016 101.7 46.6016 96.2995Z" fill="white"/>
<path d="M27.8008 95.9C27.8008 86.8 30.5008 78.8 35.1008 71.4C39.4008 64.5 44.9008 58.6 51.1008 53.4C52.0008 52.6 53.1008 52.7 53.8008 53.5C54.5008 54.3 54.3008 55.3 53.4008 56.1C48.8008 60 44.6008 64.3 41.0008 69.1C36.5008 75.3 33.1008 82 32.0008 89.7C30.9008 96.6 31.6008 103.2 34.4008 109.6C34.9008 110.8 34.6008 111.8 33.6008 112.2C32.7008 112.6 31.7008 112.2 31.2008 111.1C28.8008 106.2 27.9008 101 27.8008 95.9Z" fill="white"/>
<path d="M54.6987 28.6996C56.6987 27.1996 58.7987 26.6996 61.0987 27.6996C64.7987 29.2996 66.0987 33.9996 63.3987 36.9996C60.9987 39.6996 58.3987 42.0996 55.8987 44.5996C55.1987 45.2996 54.1987 45.2996 53.3987 44.4996C50.9987 42.0996 48.4987 39.6996 46.0987 37.1996C44.0987 34.9996 44.0987 31.5996 45.9987 29.2996C47.9987 26.9996 51.2987 26.4996 53.8987 28.0996C54.1987 28.2996 54.3987 28.4996 54.6987 28.6996ZM54.6987 40.7996C56.6987 38.7996 58.5987 36.9996 60.4987 34.9996C61.4987 33.9996 61.3987 32.4996 60.4987 31.5996C59.4987 30.5996 58.0987 30.5996 56.9987 31.5996C56.6987 31.8996 56.3987 32.1996 55.9987 32.4996C55.0987 33.2996 54.1987 33.2996 53.2987 32.4996C52.9987 32.1996 52.5987 31.7996 52.2987 31.4996C51.1987 30.5996 49.7987 30.5996 48.8987 31.5996C47.9987 32.4996 47.8987 33.9996 48.7987 34.9996C50.6987 36.8996 52.6987 38.7996 54.6987 40.7996Z" fill="white"/>
<path d="M86.2987 92.4992C88.3987 90.8992 90.5987 90.4992 92.9987 91.5992C96.4987 93.2992 97.5987 97.9992 94.8987 100.899C92.5987 103.499 89.9987 105.899 87.4987 108.299C86.6987 109.099 85.7987 108.999 84.9987 108.299C82.5987 105.899 80.0987 103.499 77.7987 101.099C75.6987 98.8992 75.6987 95.3992 77.6987 93.0992C79.7987 90.6992 83.0987 90.2992 85.6987 92.0992C85.9987 92.1992 86.0987 92.2992 86.2987 92.4992ZM86.2987 104.499C88.2987 102.499 90.2987 100.599 92.1987 98.5992C93.0987 97.5992 92.9987 96.0992 92.0987 95.1992C91.1987 94.2992 89.7987 94.1992 88.6987 95.0992C88.2987 95.3992 87.9987 95.7992 87.5987 96.0992C86.6987 96.8992 85.7987 96.8992 84.8987 96.0992C84.5987 95.7992 84.2987 95.4992 83.9987 95.1992C82.8987 94.2992 81.4987 94.2992 80.5987 95.1992C79.5987 96.0992 79.4987 97.5992 80.4987 98.6992C82.3987 100.699 84.3987 102.599 86.2987 104.499Z" fill="white"/>
<path d="M45.3011 71.2998C45.9011 71.7998 46.5011 72.0998 46.8011 72.5998C47.2011 73.1998 47.1011 73.8998 46.6011 74.4998C44.3011 77.2998 43.1011 80.5998 42.3011 83.9998C41.2011 88.7998 40.9011 93.5998 41.5011 98.3998C42.0011 102.2 42.7011 106 43.4011 109.8C43.6011 111.1 43.2011 112 42.2011 112.2C41.2011 112.5 40.3011 111.8 40.0011 110.6C38.5011 104.6 37.6011 98.3998 37.8011 92.1998C37.9011 86.7998 38.8011 81.5998 41.2011 76.6998C41.9011 75.1998 42.9011 73.6998 43.9011 72.2998C44.0011 71.9998 44.6011 71.7998 45.3011 71.2998Z" fill="white"/>
<path d="M61.3986 55.6998C60.3986 55.5998 59.7986 55.2998 59.4986 54.4998C59.1986 53.6998 59.4986 53.0998 59.9986 52.4998C61.2986 51.2998 62.5986 50.0998 63.8986 48.8998C70.3986 42.6998 76.2986 35.9998 80.7986 28.2998C81.3986 27.2998 82.2986 27.0998 83.1986 27.4998C84.0986 27.9998 84.4986 29.0998 83.7986 29.9998C81.4986 33.3998 79.2986 36.8998 76.7986 40.0998C72.5986 45.5998 67.6986 50.3998 62.4986 54.9998C62.2986 55.2998 61.6986 55.4998 61.3986 55.6998Z" fill="white"/>
<path d="M32.8 52.1C29.9 52.1 27.5 49.7 27.5 46.8C27.5 43.8 29.9 41.5 32.9 41.5C35.8 41.5 38.2 43.9 38.2 46.9C38.1 49.7 35.7 52.1 32.8 52.1ZM34.6 46.8C34.6 45.8 33.8 45 32.9 45C31.9 45 31.1 45.8 31.1 46.8C31.1 47.7 31.9 48.5 32.9 48.5C33.8 48.5 34.6 47.7 34.6 46.8Z" fill="white"/>
<path d="M105.601 101.8C102.701 101.8 100.301 99.3996 100.301 96.3996C100.301 93.4996 102.701 91.0996 105.601 91.0996C108.501 91.0996 110.901 93.4996 110.901 96.4996C110.901 99.3996 108.501 101.8 105.601 101.8ZM107.301 96.3996C107.301 95.3996 106.501 94.6996 105.501 94.6996C104.501 94.6996 103.701 95.5996 103.701 96.4996C103.701 97.4996 104.601 98.1996 105.501 98.1996C106.601 98.1996 107.401 97.3996 107.301 96.3996Z" fill="white"/>
<path d="M70 140.9C31.4 140.9 0 109.5 0 70.9004C0 32.3004 31.4 0.900391 70 0.900391C108.6 0.900391 140 32.3004 140 70.9004C140 109.5 108.5 140.9 70 140.9ZM70 3.00039C32.5 3.00039 2 33.5004 2 71.0004C2 108.5 32.5 139 70 139C107.5 139 138 108.5 138 71.0004C138 33.5004 107.4 3.00039 70 3.00039Z" fill="url(#paint0_linear)"/>
<defs>
<linearGradient id="paint0_linear" x1="-0.0015" y1="70.9584" x2="139.915" y2="70.9584" gradientUnits="userSpaceOnUse">
<stop stop-color="white"/>
<stop offset="0.5101" stop-color="#B43E3E"/>
<stop offset="1" stop-color="#8F4C40"/>
</linearGradient>
</defs>
</svg>
