<svg width="141" height="141" viewBox="0 0 141 141" fill="none" xmlns="http://www.w3.org/2000/svg">
<path d="M71.4992 140.4C109.496 140.4 140.299 109.597 140.299 71.5998C140.299 33.6026 109.496 2.7998 71.4992 2.7998C33.502 2.7998 2.69922 33.6026 2.69922 71.5998C2.69922 109.597 33.502 140.4 71.4992 140.4Z" fill="#B08F73"/>
<path d="M118.9 64.3002C118.6 65.6002 118.4 67.0002 118.1 68.3002C117 72.5002 114.8 76.2002 111.7 79.3002C105.1 85.8002 98.6 92.4002 92 99.0002C91.7 99.3002 91.4 99.9002 91.4 100.4C91.3 109.4 84.8 116.9 75.9 118.3C67.1 119.7 58.4 114.4 55.6 105.9C55.4 105.2 55.1 104.8 54.4 104.5C53.1 103.8 51.8 103 50.6 102.3C47.1 100.2 45.1 97.2002 44.6 93.2002C44.5 92.8002 44.2 92.3002 43.9 92.0002C39.8 87.9002 35.7 83.7002 31.5 79.7002C27.6 75.9002 25.2 71.4002 24.3 66.0002C24.2 65.5002 24.1 65.0002 24 64.6002C24 63.2002 24 61.9002 24 60.5002C24.2 59.2002 24.4 57.9002 24.8 56.6002C27.4 47.6002 33.2 41.8002 42.3 39.4002C43.6 39.1002 44.4 39.4002 44.6 40.3002C44.8 41.2002 44.2 41.8002 42.9 42.1002C36.2 43.8002 31.4 47.8002 28.5 54.1002C25.1 61.7002 26.7 70.8002 32.6 76.8002C36.3 80.6002 40.1 84.4002 43.9 88.1002C44 88.2002 44.2 88.3002 44.4 88.6002C44.4 88.1002 44.4 87.8002 44.4 87.4002C44.4 83.7002 44.5 80.0002 44.4 76.3002C44.2 70.4002 47.9 66.0002 53.4 65.1002C52.4 64.0002 51.4 63.0002 50.3 61.9002C49.6 61.3002 49.3 60.6002 49.6 59.7002C50 58.8002 50.8 58.6002 51.7 58.6002C52.6 58.6002 53.5 58.6002 54.4 58.6002C56.1 58.6002 57.4 57.4002 57.6 55.6002C57.6 55.5002 57.6 55.4002 57.6 55.3002C57.6 54.6002 57.8 53.8002 57.5 53.3002C57.2 52.8002 56.4 52.7002 55.9 52.4002C53.1 51.1002 51.5 48.2002 52 45.2002C52.2 44.0002 52.9 43.1002 54.1 42.3002C52.8 42.0002 51.7 41.8002 50.6 41.6002C50.3 41.5002 49.9 41.5002 49.6 41.5002C48.7 41.3002 48.3 40.7002 48.4 39.9002C48.5 39.1002 49.1 38.6002 50 38.8002C51.5 39.0002 53.1 39.4002 54.6 39.7002C54.8 39.7002 55.1 39.8002 55.4 39.9002C55.6 38.9002 55.8 38.0002 56 37.0002C56.6 34.8002 57.7 32.8002 59.1 31.0002C60.4 29.4002 61.9 28.7002 63.9 29.4002C64.1 29.1002 64.3 28.8002 64.5 28.5002C66 26.4002 68.1 25.4002 70.7 25.3002C79.1 25.0002 85.9 30.8002 87.2 39.3002C87.2 39.4002 87.2 39.5002 87.3 39.7002C88.7 39.4002 90.1 39.1002 91.5 38.8002C103.5 36.9002 115 44.6002 118 56.4002C118.3 57.7002 118.5 59.0002 118.7 60.3002C118.9 61.6002 118.9 63.0002 118.9 64.3002ZM89.4 65.0002C89.6 65.0002 89.7 65.1002 89.8 65.1002C90.9 65.3002 91.4 65.9002 91.3 66.7002C91.2 67.6002 90.6 67.9002 89.4 67.8002C88.2 67.7002 87.1 67.7002 85.9 67.7002C85.5 67.7002 85 67.9002 84.7 68.2002C83.4 69.5002 82.1 70.9002 80.8 72.2002C75.5 77.4002 67.3 77.4002 62 72.2002C60.7 70.9002 59.4 69.5002 58.1 68.2002C57.8 67.9002 57.4 67.7002 57 67.7002C56 67.6002 55 67.7002 54 67.7002C50.5 67.9002 47.6 70.6002 47.3 74.1002C47.1 75.7002 47.2 77.4002 47.2 79.0002C47.2 79.5002 47.2 80.0002 47.2 80.4002C49.7 80.4002 52.1 80.4002 54.6 80.4002C54.6 80.0002 54.6 79.7002 54.6 79.4002C54.6 78.4002 54.6 77.4002 54.6 76.4002C54.6 75.5002 55.2 75.0002 56 75.0002C56.8 75.0002 57.3 75.5002 57.4 76.4002C57.4 76.6002 57.4 76.9002 57.4 77.1002C57.4 81.5002 57.4 85.9002 57.4 90.3002C57.4 90.9002 57.6 91.3002 58.2 91.6002C60.2 92.7002 62.1 93.8002 64.1 95.0002C65.8 96.0002 67.5 97.0002 69.2 98.0002C70.1 98.5002 70.4 99.3002 70 100.1C69.6 100.8 68.8 100.9 67.9 100.5C67.8 100.5 67.7 100.4 67.7 100.4C63.8 98.2002 59.9 95.9002 56 93.7002C55.2 93.2002 54.8 92.6002 54.8 91.6002C54.8 89.2002 54.8 86.9002 54.8 84.5002C54.8 84.2002 54.8 83.9002 54.8 83.6002C52.3 83.6002 49.9 83.6002 47.4 83.6002C47.4 86.4002 47.4 89.0002 47.4 91.7002C47.4 95.4002 49 98.2002 52.2 100.1C54.7 101.5 57.2 103 59.6 104.4C61.9 105.7 64.2 107.1 66.6 108.4C69.8 110.2 73.6 109.4 75.5 106.5C76 105.7 76 105.4 75.1 104.9C74.7 104.6 74.2 104.4 73.8 104.1C73.2 103.6 73 103 73.4 102.3C73.8 101.6 74.5 101.4 75.2 101.7C75.8 102 76.3 102.3 76.8 102.6C78.7 103.8 79.2 105.8 78 107.7C75.3 112 69.8 113.4 65.2 110.9C63.4 109.9 61.7 108.9 59.9 107.9C59.7 107.8 59.5 107.7 59.1 107.6C59.4 108.1 59.5 108.4 59.7 108.7C63.3 114.2 68.4 116.7 74.9 115.9C86 114.6 92.1 101.9 86.2 92.4002C84.2 89.2002 81.5 87.0002 77.9 85.8002C76.8 85.4002 76.4 84.7002 76.7 83.9002C77 83.1002 77.8 82.9002 78.8 83.2002C80.9 83.9002 82.8 85.0002 84.5 86.4002C84.7 86.6002 85 86.8002 85.3 87.1002C85.3 86.6002 85.3 86.4002 85.3 86.1002C85.3 83.1002 85.3 80.1002 85.3 77.0002C85.3 75.9002 85.9 75.3002 86.9 75.4002C87.7 75.5002 88.1 76.1002 88.1 76.9002C88.1 78.2002 88.1 79.5002 88.1 80.8002C90.6 80.8002 93 80.8002 95.5 80.8002C95.5 79.1002 95.5 77.5002 95.5 76.0002C95.5 74.3002 95.1 72.7002 94.2 71.3002C93.6 70.5002 93.7 69.6002 94.4 69.2002C95.1 68.7002 95.9 68.9002 96.5 69.8002C97.8 71.6002 98.3 73.6002 98.3 75.8002C98.3 79.7002 98.3 83.7002 98.3 87.6002C98.3 87.9002 98.3 88.2002 98.3 88.7002C98.5 88.5002 98.6 88.5002 98.7 88.4002C102.6 84.5002 106.7 80.7002 110.4 76.6002C115.2 71.4002 116.9 65.1002 115.4 58.2002C113.1 47.6002 103.6 40.7002 92.6 41.8002C91.3 41.9002 90 42.3002 88.4 42.6002C89.7 43.5002 90.4 44.4002 90.6 45.6002C91.1 48.6002 89.5 51.6002 86.7 52.9002C86.2 53.1002 85.4 53.2002 85.1 53.6002C84.8 54.1002 85 54.9002 85 55.5002C85 55.6002 85 55.7002 85 55.9002C85.1 57.7002 86.4 59.0002 88.2 59.0002C89.1 59.0002 90 59.0002 90.9 59.0002C91.8 59.0002 92.5 59.2002 92.9 60.0002C93.3 60.9002 92.9 61.6002 92.3 62.2002C91.5 62.8002 90.5 63.9002 89.4 65.0002ZM65.2 39.3002C63.9 41.9002 62.4 44.0002 60.4 45.9002C60.2 46.1002 60.2 46.5002 60.2 46.8002C60.3 48.6002 60.5 50.4002 60.6 52.1002C60.7 54.7002 61.7 56.8002 63.6 58.4002C64.9 59.6002 66.4 60.6002 68 61.4002C69.5 62.2002 71.1 62.7002 72.8 62.3002C75.3 61.7002 77.4 60.5002 79.3 58.8002C81 57.2002 82.3 55.4002 82.6 53.0002C82.8 51.5002 82.8 50.0002 83 48.5002C83.1 47.4002 83.1 46.2002 83.2 45.1002C76 46.3002 70.1 44.4002 65.2 39.3002ZM58.4 43.7002C58.5 43.8002 58.6 43.9002 58.8 44.0002C59 43.7002 59.2 43.3002 59.4 43.0002C61.2 41.1002 62.4 38.9002 63.4 36.5002C63.6 35.9002 64 35.2002 64.7 35.3002C65.2 35.4002 65.8 35.8002 66.2 36.2002C67.2 37.1002 68 38.3002 69 39.1002C73.3 42.7002 78.3 43.5002 83.6 42.3002C84.6 42.1002 84.7 41.4002 84.7 40.6002C84.3 33.7002 78.4 28.2002 71.4 28.2002C68.2 28.2002 66.6 29.7002 66.2 32.8002C66.1 33.5002 65.7 34.0002 65 34.1002C64.2 34.2002 63.8 33.8002 63.5 33.1002C63.3 32.7002 63.1 32.1002 62.8 32.1002C62.5 32.0002 62 32.4002 61.7 32.7002C58.8 35.8002 57.9 39.5002 58.4 43.7002ZM80.9 68.1002C80 67.7002 78.8 67.5002 78.2 66.8002C77.6 66.0002 77.5 64.8002 77.2 63.7002C73.4 66.1002 69.4 66.0002 65.4 63.6002C65.1 67.3002 65.1 67.3002 61.8 68.0002C67 75.1002 75.6 75.4002 80.9 68.1002ZM88.3 83.4002C88.3 85.1002 88.3 86.7002 88.3 88.3002C88.3 89.4002 88.5 90.4002 89.1 91.4002C89.8 92.5002 90.1 93.8002 90.6 95.0002C90.7 95.3002 90.8 95.6002 91 96.0002C92.5 94.4002 94 93.0002 95.4 91.5002C95.6 91.3002 95.7 90.9002 95.7 90.6002C95.7 88.6002 95.7 86.6002 95.7 84.6002C95.7 84.2002 95.7 83.8002 95.7 83.3002C93.2 83.4002 90.8 83.4002 88.3 83.4002ZM83.4 58.5002C82.5 59.5002 81.6 60.4002 80.7 61.3002C80.5 61.5002 80.4 61.7002 80.4 61.9002C80.4 62.9002 80.4 63.9002 80.4 64.8002C84.1 65.8002 86.7 64.1002 89 61.4002C86.6 61.4002 84.7 60.5002 83.4 58.5002ZM59.6 58.5002C58.3 60.4002 56.4 61.4002 54 61.5002C54.9 62.4002 55.9 63.2002 56.9 64.0002C58.6 65.6002 60.6 64.8002 62.6 65.0002C62.6 63.9002 62.6 63.0002 62.6 62.1002C62.6 61.9002 62.5 61.6002 62.3 61.4002C61.4 60.4002 60.5 59.5002 59.6 58.5002ZM85.4 49.9002C87 49.6002 88.1 48.1002 88.1 46.2002C88.1 45.0002 87.3 44.3002 86.1 44.6002C85.9 44.6002 85.7 44.9002 85.7 45.1002C85.6 46.7002 85.5 48.3002 85.4 49.9002ZM55.5 44.8002C54.8 45.3002 54.6 46.0002 54.9 47.2002C55.3 48.6002 56.3 49.7002 57.5 49.8002C57.4 48.9002 57.4 47.9002 57.3 47.0002C57.3 46.8002 57.1 46.6002 57 46.4002C56.5 45.9002 56 45.4002 55.5 44.8002Z" fill="white"/>
<path d="M70.8008 140.9C32.2008 140.9 0.800781 109.5 0.800781 70.9004C0.800781 32.3004 32.2008 0.900391 70.8008 0.900391C109.401 0.900391 140.801 32.3004 140.801 70.9004C140.801 109.5 109.401 140.9 70.8008 140.9ZM70.8008 3.00039C33.3008 3.00039 2.80078 33.5004 2.80078 71.0004C2.80078 108.5 33.3008 139 70.8008 139C108.301 139 138.801 108.5 138.801 71.0004C138.801 33.5004 108.301 3.00039 70.8008 3.00039Z" fill="url(#paint0_linear)"/>
<defs>
<linearGradient id="paint0_linear" x1="0.888981" y1="70.9594" x2="140.805" y2="70.9594" gradientUnits="userSpaceOnUse">
<stop stop-color="white"/>
<stop offset="0.5101" stop-color="#B43E3E"/>
<stop offset="1" stop-color="#8F4C40"/>
</linearGradient>
</defs>
</svg>
