<svg width="201" height="121" viewBox="0 0 201 121" fill="none" xmlns="http://www.w3.org/2000/svg">
<path d="M106.586 0.218466C120.438 1.40118 133.931 7.47376 144.285 18.3865C166.921 42.2396 166.116 80.315 142.497 103.264C131.07 114.365 116.046 120.299 100.187 119.991C84.3281 119.682 69.5623 113.153 58.6122 101.614C35.9766 77.7607 36.7815 39.6853 60.4107 16.7367L60.8678 17.2138L60.4107 16.7367C73.209 4.29336 90.1509 -1.19284 106.586 0.218466ZM96.3414 118.46C97.6133 118.569 98.905 118.639 100.197 118.659C115.708 118.967 130.404 113.153 141.573 102.3C164.675 79.8578 165.46 42.6272 143.322 19.3009C121.193 -4.02539 84.3976 -4.75092 61.2951 17.6908C38.1925 40.1325 37.4075 77.3632 59.5363 100.689C69.3536 111.036 82.3109 117.257 96.3414 118.46Z" fill="url(#paint0_linear)"/>
<path d="M156.21 15.5543C156.478 15.5742 156.737 15.6636 156.955 15.8127L176.53 28.7927C177.116 29.1803 177.375 29.8959 177.186 30.5718C176.987 31.2476 176.381 31.7147 175.686 31.7247L154.958 32.1719C154.511 32.1818 154.064 32.0029 153.756 31.665C153.448 31.337 153.289 30.8898 153.328 30.4326L154.481 17.0053C154.531 16.4388 154.868 15.9419 155.375 15.7034C155.644 15.5742 155.932 15.5245 156.21 15.5543Z" fill="#A1806A"/>
<path opacity="0.52" d="M156.21 15.5543C156.478 15.5742 156.737 15.6636 156.955 15.8127L176.53 28.7927C177.116 29.1803 177.375 29.8959 177.186 30.5718C176.987 31.2476 176.381 31.7147 175.686 31.7247L154.958 32.1719C154.511 32.1818 154.064 32.0029 153.756 31.665C153.448 31.337 153.289 30.8898 153.328 30.4326L154.481 17.0053C154.531 16.4388 154.868 15.9419 155.375 15.7034C155.644 15.5742 155.932 15.5245 156.21 15.5543Z" fill="url(#paint1_linear)"/>
<path d="M155.186 18.4765L176.6 29.7272L170.29 73.9945C170.25 74.4516 170.409 74.8989 170.727 75.2368C171.045 75.5648 171.492 75.7536 171.949 75.7337L194.515 74.9188C195.052 74.8989 195.539 74.6206 195.817 74.1634C196.095 73.7062 196.135 73.1497 195.916 72.6627L183.049 44.2378L200.746 16.449C201.064 15.9521 201.083 15.3061 200.785 14.7992C200.517 14.342 200.05 14.0438 199.533 14.0041C199.474 13.9941 199.404 13.9941 199.335 13.9941L156.011 15.5545C155.316 15.5843 154.719 16.0515 154.531 16.7174C154.342 17.3833 154.61 18.0889 155.186 18.4765Z" fill="url(#paint2_linear)"/>
<path d="M25.4541 93.763L45.0292 106.743C45.4962 107.061 46.1023 107.101 46.6091 106.852C47.1158 106.604 47.4636 106.107 47.5133 105.55L48.6659 92.1231C48.7057 91.6758 48.5467 91.2186 48.2387 90.8907C47.9704 90.6024 47.6027 90.4235 47.2053 90.3937C47.1456 90.3937 47.086 90.3838 47.0363 90.3838L26.3086 90.831C25.6131 90.841 24.997 91.318 24.8082 91.9839C24.6095 92.6598 24.8778 93.3754 25.4541 93.763Z" fill="#A1806A"/>
<path opacity="0.87" d="M25.4541 93.763L45.0292 106.743C45.4962 107.061 46.1023 107.101 46.6091 106.852C47.1158 106.604 47.4636 106.107 47.5133 105.55L48.6659 92.1231C48.7057 91.6758 48.5467 91.2186 48.2387 90.8907C47.9704 90.6024 47.6027 90.4235 47.2053 90.3937C47.1456 90.3937 47.086 90.3838 47.0363 90.3838L26.3086 90.831C25.6131 90.841 24.997 91.318 24.8082 91.9839C24.6095 92.6598 24.8778 93.3754 25.4541 93.763Z" fill="url(#paint3_linear)"/>
<path d="M6.07769 49.8933L18.9456 78.3182L1.24851 106.107C0.930539 106.614 0.910666 107.25 1.20876 107.767C1.50686 108.284 2.05337 108.592 2.6595 108.572L45.983 107.011C46.6786 106.982 47.2748 106.514 47.4636 105.849C47.6524 105.183 47.3841 104.467 46.8077 104.079L27.2426 92.0536L31.7041 48.5615C31.7439 48.1044 31.5849 47.6571 31.2669 47.3192C30.9986 47.031 30.631 46.862 30.2435 46.8322C30.1739 46.8223 30.1143 46.8223 30.0547 46.8223L7.48868 47.6372C6.95211 47.6571 6.46522 47.9354 6.18699 48.3926C5.89883 48.8498 5.85908 49.4063 6.07769 49.8933Z" fill="url(#paint4_linear)"/>
<path d="M26.398 91.9739C26.706 92.3019 27.1532 92.4907 27.6003 92.4808L169.902 89.3799C170.717 89.36 171.393 88.7339 171.462 87.9189L176.401 30.1846C176.44 29.7374 176.281 29.2901 175.973 28.9522C175.705 28.664 175.337 28.4851 174.94 28.4552C174.88 28.4552 174.821 28.4453 174.771 28.4453L32.4792 31.5561C31.6644 31.576 30.9887 32.2022 30.9191 33.0171L25.9807 90.7514C25.931 91.1987 26.09 91.6459 26.398 91.9739Z" fill="url(#paint5_linear)"/>
<path d="M65.1498 62.7927C70.1379 63.4387 70.754 65.2774 69.9889 66.3011C70.6149 66.8079 71.4595 67.5434 72.1153 68.1397C72.0259 68.4478 71.7476 68.5969 71.3502 68.5969H65.1994V72.1649C65.1994 74.3713 64.7225 75.5839 61.036 75.9218C60.9466 74.9577 60.8075 74.1924 60.3603 73.7452C59.9032 73.2681 59.2276 72.9004 57.7867 72.6718V72.2743C57.7867 72.2743 60.9267 72.473 61.5229 72.473C61.98 72.473 62.1191 72.3339 62.1191 71.996V68.5969H45.833L45.6045 67.772H62.1191V65.6252L66.1732 65.9632C66.1136 66.3905 65.8354 66.5893 65.2094 66.6986V67.772H67.614L68.2698 66.8974C67.932 66.8378 67.5942 66.6688 67.306 66.3607C66.9682 65.824 66.4813 65.2277 65.7758 64.6612C61.98 65.2575 56.8229 65.8737 49.4599 66.6688C49.2313 67.0067 48.9233 67.2055 48.6351 67.2651L47.0453 63.9257C49.1419 63.9853 52.739 63.9853 57.1309 63.9853V62.0075H52.7688V62.2361C52.7688 62.4945 51.4075 63.1107 50.1356 63.1107H49.7083V53.7683L52.9675 55.0404H57.1309V53.003H46.3994L46.1411 52.2079H57.1309V49.3555L61.3242 49.7232C61.2645 50.1208 61.0161 50.399 60.2808 50.5183V52.2178H66.6502L68.3195 50.0114C68.3195 50.0114 70.2174 51.5122 71.3502 52.5558C71.2608 52.8639 70.9527 53.0129 70.5553 53.0129H60.2808V55.0504H64.6132L66.054 53.49L69.1145 55.756C68.9455 55.9846 68.5183 56.2132 67.9817 56.3524V61.9479C67.9519 62.2063 66.4514 62.7927 65.4081 62.7927H65.1498V62.7927ZM50.4237 69.1237C58.7804 69.064 56.8825 75.3155 53.6531 73.6458C53.1166 72.0357 51.5863 70.2766 50.1952 69.3225L50.4237 69.1237ZM52.7688 55.8355V58.1215H57.1309V55.8355H52.7688ZM57.1309 61.2124V58.9166H52.7688V61.2124H57.1309ZM60.2808 55.8355V58.1215H64.9013V55.8355H60.2808ZM64.8914 58.9166H60.2709V61.2124H64.8914V58.9166ZM64.7821 63.9555C64.2157 63.5878 63.54 63.2499 62.7451 62.9616L62.8544 62.5939C63.5897 62.6237 64.2753 62.6834 64.8914 62.7629V61.9976H60.2709V63.9754L64.7821 63.9555Z" fill="white"/>
<path d="M75.8623 74.6393C78.4359 73.2777 81.556 70.7632 83.7321 67.9108L87.2993 70.3756C87.0708 70.6539 86.7627 70.7433 86.0771 70.6042C83.3346 73.0392 79.1116 74.4803 75.9617 74.9872L75.8623 74.6393ZM99.1934 53.0027C99.1934 53.0027 101.121 54.3344 102.284 55.3482C102.194 55.6563 101.916 55.8054 101.489 55.8054H92.7942L96.5006 56.849C96.4112 57.1869 96.0733 57.3856 95.4573 57.3558C94.6921 58.0913 93.5594 58.9957 92.367 59.7908H96.0236L97.7526 57.7534C97.7526 57.7534 99.6803 59.115 100.893 60.1287C100.803 60.4368 100.495 60.5859 100.127 60.5859H90.7771V63.1303H94.404L96.0137 61.1823C96.0137 61.1823 97.8818 62.4842 99.0444 63.4781C98.9549 63.7862 98.6767 63.9353 98.2494 63.9353H90.7672V66.6784H96.9974L98.786 64.5614C98.786 64.5614 100.773 65.9727 101.956 67.0461C101.896 67.3542 101.588 67.5033 101.22 67.5033H90.7871V75.1661C90.7573 75.3351 89.7437 75.9612 88.0446 75.9612H87.4484V67.4834H76.7367L76.5082 66.6585H87.4384V63.9154H79.4792L79.2507 63.1203H87.4384V60.576H78.0682L77.8397 59.7809H85.1232C84.835 59.7213 84.527 59.5523 84.2488 59.3237C84.219 58.1311 83.593 56.839 82.9471 56.0439L83.2054 55.875C88.1638 56.521 87.5676 59.3833 85.9281 59.7809H91.115C91.6515 58.5385 92.1583 57.008 92.4763 55.7954H76.5082L76.2796 54.9705H82.0528C81.7646 54.9109 81.4566 54.7717 81.1486 54.5133C81.089 53.0126 80.2145 51.3429 79.2507 50.3291L79.509 50.1602C85.0636 51.0944 84.4972 54.6028 82.7086 54.9705H85.312V49.375L89.1078 49.7129C89.078 50.0508 88.8494 50.3092 88.2334 50.4186V54.9705H90.1909V49.375L94.0463 49.7129C93.9866 50.0508 93.7879 50.3092 93.142 50.4186V54.9705H93.9668C94.6723 53.4996 95.4076 51.4621 95.8348 49.9614L99.8294 51.2037C99.6902 51.5417 99.3524 51.7702 98.7264 51.6808C97.7327 52.6945 96.1727 53.9667 94.6524 54.9606H97.5141L99.1934 53.0027ZM91.6317 69.014C106.785 70.962 101.061 76.9352 98.319 74.4207C97.1266 72.9497 94.8313 70.9421 91.4627 69.3817L91.6317 69.014Z" fill="white"/>
<path d="M114.574 63.3294L117.466 65.5358C117.297 65.7346 116.929 65.9632 116.363 66.0725V73.457C116.333 73.6558 114.922 74.2223 113.988 74.2223H113.481V72.3836H110.361V74.2521C110.361 74.4807 109.457 75.1863 107.986 75.1863H107.479V52.8042L110.371 53.9372C110.48 52.6353 110.6 50.7171 110.629 49.3555L114.932 50.0909C114.842 50.5481 114.475 50.7668 113.859 50.8264C113.263 51.7607 112.329 53.0924 111.653 54.0764H113.094L114.485 52.5756L117.376 54.782C117.207 54.9808 116.84 55.2094 116.303 55.3187V61.5702C116.273 61.769 114.833 62.3057 113.899 62.3057H113.392V60.9242H110.391V64.8301H113.223L114.574 63.3294ZM110.361 54.8715V60.0993H113.362V54.8715H110.361ZM113.471 71.5885V65.6252H110.351V71.5885H113.471ZM126.359 52.8937V56.9387H128.456L129.817 55.4082L132.788 57.6444C132.649 57.8432 132.281 58.0718 131.745 58.1811V68.5075C131.745 70.6046 131.377 71.7574 128.436 72.0457C128.406 71.0816 128.346 70.3163 128.148 69.8691C127.949 69.4417 127.611 69.1336 126.846 68.9647V68.5373C126.846 68.5373 127.949 68.6267 128.317 68.6267C128.654 68.6267 128.744 68.4876 128.744 68.1696V57.7339H126.369V74.9875C126.369 75.1863 125.375 75.8622 123.795 75.8622H123.219V57.7339H120.983V71.3599C120.983 71.5587 120.079 72.2643 118.519 72.2643H118.012V55.6666L121.351 56.9387H123.219V52.8937H117.615L117.386 52.0986H128.148L129.906 49.7828C129.906 49.7828 131.834 51.3631 132.997 52.4464C132.907 52.7545 132.629 52.9036 132.232 52.9036H126.359V52.8937Z" fill="white"/>
<path d="M144.941 56.1143C144.941 56.1143 146.898 57.7542 148.031 58.8574C147.941 59.1655 147.663 59.3146 147.236 59.3146H137.101L136.872 58.4897H143.212L144.941 56.1143ZM156.467 53.9973C156.407 54.3353 156.129 54.6732 155.503 54.703C155.414 55.1304 155.334 55.5279 155.215 55.9155C156.546 56.9889 159.07 57.8138 163.234 58.2114V58.5493C161.793 58.8872 161.028 59.4835 160.938 61.1831C159.607 60.875 158.504 60.4178 157.6 59.9109L160.462 62.0279C160.293 62.2863 160.004 62.4552 159.359 62.5646V70.6249C159.359 70.764 158.226 71.3902 156.388 71.3902H155.732V70.5951H146.868L150.267 73.0003C149.978 73.2785 149.472 73.3978 148.597 73.1394C145.994 74.501 141.771 75.6241 137.607 76.0216L137.498 75.6837C140.956 74.5209 144.583 72.4039 146.391 70.5951H144.325V71.1616C144.325 71.42 143.281 71.9865 141.493 71.9865H140.867V60.1097L144.633 61.521H155.622L157.292 59.6525C156.099 58.8872 155.304 58.0126 154.738 57.0485C153.744 58.7183 151.568 60.1594 146.073 61.1731L145.845 60.6663C151.509 58.7183 152.184 56.5417 152.363 53.6495L156.467 53.9973ZM138.005 53.2321L137.776 52.4071H142.079L143.748 50.1113C143.748 50.1113 145.646 51.6915 146.749 52.7749C146.66 53.083 146.381 53.2321 145.984 53.2321H138.005ZM144.315 62.336V64.3138H155.732V62.336H144.315V62.336ZM144.315 65.1089V67.0569H155.732V65.1089H144.315ZM155.732 69.8099V67.8619H144.315V69.8099H155.732ZM145.904 56.0646C147.494 54.4843 148.905 51.6816 149.501 49.2168L153.943 49.9523C153.883 50.2604 153.665 50.4094 152.949 50.4094C152.582 51.0058 152.125 51.6021 151.618 52.1885H158.474L160.084 50.5784L162.916 53.2619C162.717 53.5203 162.409 53.5402 161.843 53.5998C160.938 54.4446 159.378 55.6074 158.186 56.2634L157.898 56.0944C158.156 55.2695 158.464 54.0272 158.633 53.0134H150.843C149.511 54.375 147.902 55.5577 146.143 56.323L145.904 56.0646ZM151.459 71.2212C166.781 71.4995 161.177 77.751 158.166 75.2961C156.974 74.1035 154.857 72.5828 151.37 71.589L151.459 71.2212Z" fill="white"/>
<defs>
<linearGradient id="paint0_linear" x1="159.94" y1="64.8218" x2="41.7709" y2="54.7315" gradientUnits="userSpaceOnUse">
<stop stop-color="#C0AA88"/>
<stop offset="0.0407" stop-color="#B59C7D"/>
<stop offset="0.1398" stop-color="#9C7E64"/>
<stop offset="0.2581" stop-color="#785744"/>
<stop offset="0.3602" stop-color="#9C7E64"/>
<stop offset="0.4892" stop-color="#C0AA88"/>
<stop offset="0.5253" stop-color="#B59C7D"/>
<stop offset="0.6129" stop-color="#9C7E64"/>
<stop offset="0.7204" stop-color="#785744"/>
<stop offset="0.8387" stop-color="#9C7E64"/>
<stop offset="1" stop-color="#C0AA88"/>
</linearGradient>
<linearGradient id="paint1_linear" x1="164.481" y1="32.8168" x2="165.9" y2="16.1985" gradientUnits="userSpaceOnUse">
<stop/>
<stop offset="0.0166" stop-color="#0E0E0E"/>
<stop offset="0.083" stop-color="#404040"/>
<stop offset="0.1545" stop-color="#6D6D6D"/>
<stop offset="0.2293" stop-color="#959595"/>
<stop offset="0.3083" stop-color="#B6B6B6"/>
<stop offset="0.3926" stop-color="#D0D0D0"/>
<stop offset="0.4842" stop-color="#E5E5E5"/>
<stop offset="0.5869" stop-color="#F4F4F4"/>
<stop offset="0.7095" stop-color="#FCFCFC"/>
<stop offset="0.9046" stop-color="white"/>
</linearGradient>
<linearGradient id="paint2_linear" x1="-66.2381" y1="30.8729" x2="404.545" y2="56.9859" gradientUnits="userSpaceOnUse">
<stop stop-color="#B68E5D"/>
<stop offset="0.0483" stop-color="#A97C4F"/>
<stop offset="0.1398" stop-color="#925E37"/>
<stop offset="0.2581" stop-color="#6E3E23"/>
<stop offset="0.3602" stop-color="#925E37"/>
<stop offset="0.4892" stop-color="#B68E5D"/>
<stop offset="0.532" stop-color="#A97C4F"/>
<stop offset="0.6129" stop-color="#925E37"/>
<stop offset="0.7204" stop-color="#6E3E23"/>
<stop offset="0.8387" stop-color="#925E37"/>
<stop offset="1" stop-color="#B68E5D"/>
</linearGradient>
<linearGradient id="paint3_linear" x1="36.3573" y1="89.2868" x2="34.9376" y2="105.906" gradientUnits="userSpaceOnUse">
<stop/>
<stop offset="0.0103" stop-color="#0E0E0E"/>
<stop offset="0.0517" stop-color="#404040"/>
<stop offset="0.0962" stop-color="#6D6D6D"/>
<stop offset="0.1427" stop-color="#959595"/>
<stop offset="0.1919" stop-color="#B6B6B6"/>
<stop offset="0.2443" stop-color="#D0D0D0"/>
<stop offset="0.3014" stop-color="#E5E5E5"/>
<stop offset="0.3653" stop-color="#F4F4F4"/>
<stop offset="0.4416" stop-color="#FCFCFC"/>
<stop offset="0.563" stop-color="white"/>
</linearGradient>
<linearGradient id="paint4_linear" x1="-68.5818" y1="72.9864" x2="402.201" y2="99.0993" gradientUnits="userSpaceOnUse">
<stop stop-color="#B68E5D"/>
<stop offset="0.0483" stop-color="#A97C4F"/>
<stop offset="0.1398" stop-color="#925E37"/>
<stop offset="0.2581" stop-color="#6E3E23"/>
<stop offset="0.3602" stop-color="#925E37"/>
<stop offset="0.4892" stop-color="#B68E5D"/>
<stop offset="0.532" stop-color="#A97C4F"/>
<stop offset="0.6129" stop-color="#925E37"/>
<stop offset="0.7204" stop-color="#6E3E23"/>
<stop offset="0.8387" stop-color="#925E37"/>
<stop offset="1" stop-color="#B68E5D"/>
</linearGradient>
<linearGradient id="paint5_linear" x1="-67.3703" y1="51.1109" x2="403.429" y2="77.2246" gradientUnits="userSpaceOnUse">
<stop stop-color="#B68E5D"/>
<stop offset="0.0483" stop-color="#A97C4F"/>
<stop offset="0.1398" stop-color="#925E37"/>
<stop offset="0.2581" stop-color="#6E3E23"/>
<stop offset="0.3602" stop-color="#925E37"/>
<stop offset="0.4892" stop-color="#B68E5D"/>
<stop offset="0.532" stop-color="#A97C4F"/>
<stop offset="0.6129" stop-color="#925E37"/>
<stop offset="0.7204" stop-color="#6E3E23"/>
<stop offset="0.8387" stop-color="#925E37"/>
<stop offset="1" stop-color="#B68E5D"/>
</linearGradient>
</defs>
</svg>
