<svg width="141" height="141" viewBox="0 0 141 141" fill="none" xmlns="http://www.w3.org/2000/svg">
<path d="M70.3 140.4C108.297 140.4 139.1 109.597 139.1 71.5998C139.1 33.6026 108.297 2.7998 70.3 2.7998C32.3028 2.7998 1.5 33.6026 1.5 71.5998C1.5 109.597 32.3028 140.4 70.3 140.4Z" fill="#B57272"/>
<path d="M61.1008 123.6C59.8008 123.3 58.5008 123.1 57.2008 122.6C50.2008 120 46.1008 115 44.9008 107.6C44.8008 107 44.6008 106.7 43.9008 106.7C41.5008 106.7 39.2008 106.7 36.8008 106.7C36.2008 106.7 36.0008 106.9 35.8008 107.5C34.7008 110.5 31.4008 112.3 28.3008 111.7C25.1008 111.1 22.8008 108.2 22.8008 105C22.8008 101.8 25.2008 99.0002 28.3008 98.4002C31.5008 97.8002 34.7008 99.6002 35.8008 102.6C36.0008 103.1 36.2008 103.3 36.8008 103.3C39.2008 103.3 41.6008 103.3 44.0008 103.3C44.6008 103.3 44.8008 103.1 44.9008 102.5C46.1008 94.6002 51.4008 88.8002 59.1008 86.9002C66.5008 85.1002 74.8008 88.4002 78.9008 94.9002C79.1008 95.2002 79.3008 95.5002 79.5008 95.8002C81.7008 94.2002 83.8008 92.6002 85.9008 91.0002C86.1008 90.8002 86.1008 90.2002 86.0008 89.9002C84.6008 84.6002 85.2008 79.5002 88.2008 74.8002C90.6008 70.9002 94.1008 68.4002 98.4008 67.0002C98.6008 66.9002 98.8008 66.9002 99.2008 66.7002C96.7008 63.3002 94.2008 60.0002 91.7008 56.7002C79.9008 63.5002 66.3008 56.7002 63.6008 44.3002C60.9008 46.6002 58.4008 48.8002 55.9008 50.8002C56.9008 52.8002 58.0008 54.7002 58.8008 56.6002C59.4008 58.0002 59.5008 59.5002 59.8008 61.0002C59.9008 61.5002 60.2008 62.1002 60.5008 62.4002C63.1008 64.5002 65.8008 66.6002 68.5008 68.7002C69.0008 69.1002 69.4008 69.1002 70.0008 68.8002C72.5008 67.4002 74.9008 67.5002 77.3008 69.1002C79.6008 70.7002 80.6008 73.0002 80.1008 75.7002C79.6008 78.5002 77.9008 80.3002 75.2008 81.0002C72.8008 81.6002 70.5008 81.0002 68.8008 79.2002C67.0008 77.4002 66.4008 75.2002 67.1008 72.7002C67.3008 71.9002 67.1008 71.5002 66.5008 71.1002C64.3008 69.4002 62.1008 67.7002 60.0008 66.1002C59.1008 68.2002 58.3008 70.5002 57.1008 72.4002C53.4008 78.7002 45.9008 82.2002 38.7008 81.0002C31.0008 79.7002 25.7008 75.2002 23.6008 67.6002C20.5008 56.7002 27.7008 45.9002 38.9008 44.3002C39.6008 44.2002 39.8008 44.0002 39.8008 43.3002C39.8008 40.9002 39.8008 38.6002 39.8008 36.2002C39.8008 35.6002 39.6008 35.4002 39.0008 35.2002C36.0008 34.1002 34.2008 30.8002 34.8008 27.7002C35.4008 24.5002 38.3008 22.2002 41.5008 22.2002C44.7008 22.2002 47.5008 24.6002 48.1008 27.7002C48.7008 30.9002 46.9008 34.1002 43.9008 35.2002C43.4008 35.4002 43.2008 35.6002 43.2008 36.2002C43.2008 38.6002 43.2008 41.0002 43.2008 43.4002C43.2008 43.9002 43.2008 44.2002 43.8008 44.3002C47.4008 44.7002 50.5008 46.1002 53.3008 48.4002C53.4008 48.4002 53.4008 48.5002 53.5008 48.5002C56.7008 45.8002 59.9008 43.0002 63.1008 40.3002C63.3008 40.1002 63.5008 39.8002 63.5008 39.5002C64.6008 26.8002 77.1008 19.0002 88.9008 23.7002C95.1008 26.1002 98.7008 30.9002 100.301 37.3002C100.401 37.7002 100.801 38.2002 101.101 38.3002C104.801 40.2002 108.601 42.0002 112.401 43.8002C112.701 44.0002 113.301 44.0002 113.501 43.8002C117.501 41.0002 123.001 43.1002 124.001 47.8002C124.001 47.9002 124.101 48.0002 124.201 48.1002C124.201 48.8002 124.201 49.6002 124.201 50.3002C124.101 50.6002 124.001 50.8002 123.901 51.1002C122.401 55.9002 116.601 57.5002 112.901 54.2002C110.701 52.2002 110.301 49.7002 111.101 46.9002C107.601 45.2002 104.101 43.5002 100.501 41.8002C100.101 47.0002 98.0008 51.1002 94.4008 54.6002C97.1008 58.3002 99.9008 61.9002 102.501 65.5002C102.901 66.0002 103.201 66.2002 103.901 66.2002C115.601 66.3002 124.401 76.8002 122.101 88.3002C120.501 96.1002 115.601 101.1 107.801 102.9C100.301 104.6 94.0008 102 89.2008 96.1002C88.7008 95.5002 88.2008 94.7002 87.7008 94.0002C85.6008 95.6002 83.5008 97.1002 81.5008 98.7002C81.3008 98.9002 81.1008 99.3002 81.2008 99.7002C81.4008 101.5 81.8008 103.2 82.0008 105C82.1008 105.6 82.3008 105.9 82.8008 106.2C86.5008 107.9 90.1008 109.7 93.7008 111.5C94.2008 111.8 94.6008 111.8 95.2008 111.4C97.8008 109.6 101.301 110 103.601 112.2C105.801 114.3 106.301 117.6 104.801 120.4C103.701 122.3 102.001 123.3 100.001 123.8C99.3008 123.8 98.7008 123.8 98.0008 123.8C96.5008 123.4 95.1008 122.8 94.0008 121.6C92.3008 119.6 91.8008 117.3 92.6008 114.7C88.9008 112.9 85.3008 111.2 81.6008 109.4C81.5008 109.7 81.4008 109.8 81.4008 110C79.6008 116.4 75.5008 120.7 69.2008 122.9C68.1008 123.3 66.9008 123.5 65.7008 123.8C64.0008 123.6 62.5008 123.6 61.1008 123.6ZM73.3008 116.1C77.4008 112.8 79.6008 106.3 77.6008 100.3C75.5008 93.9002 69.2008 89.4002 62.8008 89.8002C55.4008 90.2002 49.8008 94.9002 48.3008 102C47.1008 107.8 49.8008 113.9 53.0008 116.1C53.0008 115.8 53.0008 115.6 53.0008 115.4C53.1008 112.2 55.2008 110.2 58.4008 110.2C61.7008 110.2 65.1008 110.1 68.4008 110.2C71.1008 110.3 73.1008 112.4 73.3008 115.1C73.3008 115.3 73.3008 115.7 73.3008 116.1ZM51.4008 74.0002C55.9008 70.2002 57.8008 63.4002 55.5008 57.3002C53.1008 51.2002 47.0008 47.2002 40.3008 47.6002C33.7008 48.0002 28.1008 52.8002 26.5008 59.3002C25.0008 65.4002 27.9008 71.5002 31.1008 73.8002C31.1008 73.5002 31.1008 73.3002 31.1008 73.1002C31.2008 70.0002 33.0008 68.0002 36.0008 67.9002C39.6008 67.7002 43.2008 67.8002 46.9008 68.0002C49.3008 68.1002 51.2008 70.3002 51.3008 72.7002C51.4008 73.0002 51.4008 73.4002 51.4008 74.0002ZM113.901 95.8002C117.701 92.8002 120.101 86.3002 118.201 80.1002C116.101 73.6002 110.001 69.3002 103.101 69.5002C96.5008 69.7002 90.7008 74.5002 89.0008 81.0002C87.4008 87.2002 90.3008 93.4002 93.5008 95.7002C93.5008 95.4002 93.5008 95.0002 93.6008 94.7002C93.9008 91.8002 95.6008 89.9002 98.5008 89.8002C102.001 89.6002 105.601 89.6002 109.201 89.8002C112.001 89.9002 113.701 92.0002 113.901 94.7002C113.901 95.1002 113.901 95.4002 113.901 95.8002ZM91.9008 52.0002C96.1008 48.5002 98.2008 41.8002 96.1008 35.8002C93.8008 29.4002 87.6008 25.3002 80.9008 25.7002C74.1008 26.1002 68.4008 31.0002 66.9008 37.8002C65.7008 43.5002 68.3008 49.5002 71.6008 51.9002C71.6008 51.6002 71.6008 51.4002 71.7008 51.1002C71.9008 48.0002 73.7008 46.1002 76.8008 46.0002C80.2008 45.9002 83.6008 46.0002 87.0008 46.0002C88.3008 46.0002 89.5008 46.5002 90.5008 47.5002C91.6008 48.6002 92.0008 50.2002 91.9008 52.0002ZM103.701 93.2002C102.201 93.2002 100.701 93.2002 99.2008 93.2002C97.6008 93.2002 97.0008 93.9002 97.0008 95.4002C97.0008 96.1002 97.0008 96.8002 97.0008 97.5002C96.9008 98.1002 97.2008 98.4002 97.8008 98.7002C101.401 100.2 105.101 100.3 108.801 99.1002C110.601 98.5002 110.601 98.5002 110.601 96.6002C110.601 96.3002 110.601 95.9002 110.601 95.6002C110.601 93.9002 110.001 93.3002 108.301 93.2002C106.701 93.1002 105.201 93.2002 103.701 93.2002ZM41.3008 71.2002C39.7008 71.2002 38.1008 71.2002 36.6008 71.2002C35.2008 71.2002 34.6008 71.9002 34.5008 73.3002C34.5008 74.1002 34.5008 74.8002 34.5008 75.6002C34.5008 76.2002 34.7008 76.5002 35.2008 76.7002C38.9008 78.2002 42.7008 78.3002 46.5008 77.0002C48.0008 76.5002 48.0008 76.4002 48.0008 74.9002C48.0008 74.5002 48.0008 74.0002 48.0008 73.6002C48.0008 72.0002 47.4008 71.3002 45.7008 71.3002C44.3008 71.2002 42.8008 71.2002 41.3008 71.2002ZM63.3008 113.4C61.7008 113.4 60.1008 113.4 58.5008 113.4C57.2008 113.4 56.6008 114.1 56.6008 115.4C56.6008 116.2 56.6008 116.9 56.6008 117.7C56.5008 118.4 56.8008 118.7 57.4008 118.9C61.2008 120.4 64.9008 120.4 68.7008 119.1C69.8008 118.7 70.3008 118.2 70.1008 117.1C70.0008 116.6 70.1008 116 70.1008 115.5C70.1008 114.1 69.4008 113.4 68.0008 113.4C66.3008 113.4 64.8008 113.4 63.3008 113.4ZM81.8008 56.2002C83.5008 55.8002 85.2008 55.6002 86.9008 55.1002C88.6008 54.6002 88.6008 54.5002 88.6008 52.8002C88.6008 52.3002 88.6008 51.7002 88.6008 51.2002C88.5008 50.1002 88.0008 49.4002 86.8008 49.3002C83.5008 49.2002 80.2008 49.2002 76.8008 49.3002C75.7008 49.3002 75.1008 50.0002 75.0008 51.1002C75.0008 51.9002 75.0008 52.7002 75.0008 53.6002C75.0008 54.2002 75.2008 54.5002 75.7008 54.7002C77.7008 55.5002 79.7008 56.0002 81.8008 56.2002ZM32.8008 105C32.8008 103.1 31.3008 101.6 29.5008 101.6C27.7008 101.6 26.2008 103.1 26.1008 104.9C26.1008 106.8 27.6008 108.3 29.5008 108.3C31.3008 108.3 32.8008 106.9 32.8008 105ZM41.3008 32.4002C43.2008 32.4002 44.7008 30.9002 44.7008 29.0002C44.7008 27.2002 43.1008 25.7002 41.3008 25.7002C39.4008 25.7002 37.9008 27.2002 37.9008 29.1002C37.9008 30.9002 39.4008 32.4002 41.3008 32.4002ZM70.0008 74.6002C70.0008 76.4002 71.5008 77.9002 73.4008 77.9002C75.3008 77.9002 76.8008 76.4002 76.8008 74.5002C76.8008 72.7002 75.3008 71.2002 73.5008 71.2002C71.5008 71.2002 69.9008 72.8002 70.0008 74.6002ZM102.001 116.8C102.001 115 100.501 113.5 98.7008 113.4C96.8008 113.4 95.3008 114.9 95.3008 116.7C95.3008 118.6 96.8008 120.1 98.7008 120.1C100.501 120.2 102.001 118.6 102.001 116.8ZM117.301 45.9002C115.501 45.9002 113.901 47.3002 113.901 49.2002C113.901 51.1002 115.301 52.6002 117.201 52.7002C119.101 52.7002 120.601 51.2002 120.601 49.3002C120.601 47.4002 119.101 45.9002 117.301 45.9002Z" fill="white"/>
<path d="M56.5 99.8999C56.5 96.1999 59.5 93.1999 63.2 93.0999C66.9 92.9999 70 96.1999 70 99.8999C70 103.6 66.9 106.6 63.2 106.6C59.5 106.7 56.5 103.6 56.5 99.8999ZM59.9 99.9999C59.9 101.8 61.4 103.3 63.2 103.3C65.1 103.3 66.6 101.7 66.6 99.8999C66.6 98.0999 65.1 96.5999 63.2 96.5999C61.3 96.5999 59.8 98.0999 59.9 99.9999Z" fill="white"/>
<path d="M41.1 64.4005C37.4 64.3005 34.5 61.3005 34.5 57.6005C34.6 53.9005 37.7 50.9005 41.3 51.0005C45 51.1005 48 54.2005 48 57.8005C47.9 61.5005 44.8 64.5005 41.1 64.4005ZM41.2 61.1005C43.1 61.1005 44.6 59.6005 44.6 57.7005C44.6 55.9005 43.1 54.4005 41.3 54.3005C39.5 54.3005 37.9 55.8005 37.9 57.6005C37.9 59.5005 39.3 61.0005 41.2 61.1005Z" fill="white"/>
<path d="M103.702 86.4004C100.002 86.4004 97.0023 83.4004 96.9023 79.7004C96.9023 76.0004 99.9023 72.9004 103.702 72.9004C107.402 72.9004 110.402 76.0004 110.402 79.6004C110.502 83.3004 107.402 86.4004 103.702 86.4004ZM103.702 83.0004C105.602 83.0004 107.102 81.5004 107.102 79.6004C107.102 77.8004 105.602 76.3004 103.802 76.2004C101.902 76.2004 100.402 77.7004 100.402 79.6004C100.402 81.5004 101.802 83.0004 103.702 83.0004Z" fill="white"/>
<path d="M81.8016 42.5C78.1016 42.5 75.1016 39.5 75.1016 35.8C75.1016 32.1 78.1016 29.1 81.8016 29C85.5016 29 88.6016 32.1 88.6016 35.8C88.5016 39.5 85.5016 42.5 81.8016 42.5ZM81.8016 39.1C83.6016 39.1 85.1016 37.6 85.1016 35.8C85.1016 34 83.5016 32.4 81.7016 32.4C79.8016 32.4 78.4016 34 78.4016 35.9C78.5016 37.7 80.0016 39.1 81.8016 39.1Z" fill="white"/>
<path d="M70.6016 140.9C32.0016 140.9 0.601562 109.5 0.601562 70.9004C0.601562 32.3004 32.0016 0.900391 70.6016 0.900391C109.202 0.900391 140.602 32.3004 140.602 70.9004C140.602 109.5 109.202 140.9 70.6016 140.9ZM70.6016 3.00039C33.1016 3.00039 2.60156 33.5004 2.60156 71.0004C2.60156 108.5 33.1016 139 70.6016 139C108.102 139 138.602 108.5 138.602 71.0004C138.602 33.5004 108.102 3.00039 70.6016 3.00039Z" fill="url(#paint0_linear)"/>
<defs>
<linearGradient id="paint0_linear" x1="0.667563" y1="70.9579" x2="140.584" y2="70.9579" gradientUnits="userSpaceOnUse">
<stop stop-color="white"/>
<stop offset="0.5101" stop-color="#B43E3E"/>
<stop offset="1" stop-color="#8F4C40"/>
</linearGradient>
</defs>
</svg>
