<svg width="191" height="182" viewBox="0 0 191 182" fill="none" xmlns="http://www.w3.org/2000/svg">
<path d="M121.358 181.056C158.361 181.056 188.358 151.059 188.358 114.056C188.358 77.0526 158.361 47.0557 121.358 47.0557C84.3553 47.0557 54.3584 77.0526 54.3584 114.056C54.3584 151.059 84.3553 181.056 121.358 181.056Z" fill="#FAECE8"/>
<path d="M122.479 181.836C84.9988 181.836 54.5088 151.346 54.5088 113.866C54.5088 76.3865 84.9988 45.8965 122.479 45.8965C159.959 45.8965 190.449 76.3865 190.449 113.866C190.449 151.346 159.959 181.836 122.479 181.836ZM122.479 47.4465C85.8588 47.4465 56.0588 77.2365 56.0588 113.856C56.0588 150.476 85.8488 180.266 122.479 180.266C159.109 180.266 188.899 150.476 188.899 113.856C188.899 77.2465 159.099 47.4465 122.479 47.4465Z" fill="url(#paint0_linear)"/>
<path d="M89.7986 116.627C89.7986 116.627 91.8885 118.177 93.1985 119.267C93.1185 119.567 92.8186 119.707 92.4086 119.707H81.9485V124.027C81.9485 124.187 80.9385 124.787 79.2285 124.787H78.6285V119.707H67.7585L67.5186 118.917H78.6385V116.307H74.5385V116.877C74.5385 117.147 73.1285 117.887 71.8185 117.887H71.3586V107.257C71.0886 107.307 70.8185 107.337 70.5385 107.337H70.1285V99.7568L73.2285 100.977H76.2486L77.5786 99.5368L80.4586 101.687C80.3186 101.907 79.9385 102.117 79.4485 102.227V106.087C79.4185 106.277 77.9585 106.877 76.9785 106.877H76.5186V105.787H73.1186V106.407C73.1186 106.567 72.6585 106.867 72.0085 107.087L74.7786 108.177H85.7686L87.2585 106.577L90.2986 108.887C90.1586 109.107 89.8085 109.317 89.2885 109.427V116.437C89.2585 116.657 87.7085 117.337 86.5985 117.337H86.0286V116.307H81.9286V118.917H87.9086L89.7986 116.627ZM73.1086 101.767V105.027H76.5085V101.767H73.1086ZM74.5186 108.937V111.817H78.6186V108.937H74.5186ZM78.6285 115.517V112.557H74.5286V115.517H78.6285ZM84.4986 106.217C84.4986 106.487 83.1385 107.167 81.8885 107.167H81.4485V99.7468L84.5985 100.967H87.5085L88.8986 99.4668L91.8386 101.667C91.6786 101.887 91.2986 102.097 90.7786 102.207V106.097C90.7486 106.317 89.3086 106.887 88.3086 106.887H87.7885V105.777H84.4986V106.217V106.217ZM81.9386 108.937V111.817H86.0385V108.937H81.9386ZM86.0486 115.517V112.557H81.9485V115.517H86.0486ZM84.4986 101.767V105.027H87.7885V101.767H84.4986Z" fill="#93594C"/>
<path d="M103.299 113.496C103.299 113.496 105.199 115.236 106.209 116.376C106.129 116.676 105.879 116.806 105.499 116.806H95.6087L95.3887 116.016H101.639L103.299 113.496ZM96.0387 105.456L95.8187 104.696H100.389L101.939 102.356C101.939 102.356 103.709 103.956 104.709 105.016C104.629 105.316 104.329 105.456 103.949 105.456H96.0387V105.456ZM113.759 108.206C113.679 108.556 113.349 108.826 112.669 108.826C112.639 109.156 112.589 109.476 112.559 109.806C113.239 114.966 115.549 118.856 121.119 121.006V121.336C119.489 121.686 118.539 122.746 118.289 124.706C114.299 122.156 112.849 117.256 112.259 111.956C111.439 116.846 109.319 121.466 100.439 124.756L100.169 124.346C108.319 119.296 109.059 113.556 109.269 107.256L113.759 108.206ZM121.229 105.996C121.009 106.236 120.709 106.296 120.119 106.346C119.109 108.196 117.289 110.696 115.689 112.296L115.419 112.106C115.939 110.256 116.429 107.536 116.669 105.606H108.569C107.269 108.266 105.609 110.416 103.569 112.016L103.239 111.796C104.949 108.646 106.339 103.946 106.829 99.2363L111.419 100.266C111.309 100.616 110.989 100.886 110.359 100.886C109.949 102.296 109.459 103.606 108.919 104.826H116.419L118.189 103.056L121.229 105.996Z" fill="#93594C"/>
<path d="M123.509 105.786C130.849 106.166 128.729 111.626 125.849 109.886C125.499 108.446 124.329 106.926 123.299 105.946L123.509 105.786ZM132.369 103.336C131.199 106.866 129.219 113.416 128.839 114.966C128.599 115.946 128.409 116.926 128.409 117.626C128.459 119.116 129.549 120.076 129.469 122.466C129.439 123.876 128.519 124.776 127.189 124.776C126.539 124.776 125.909 124.396 125.699 123.366C126.219 120.516 126.079 117.986 125.429 117.526C125.049 117.256 124.589 117.146 123.989 117.096V116.576H125.239C125.649 116.576 125.759 116.576 126.059 116.006C126.679 114.916 126.679 114.916 131.959 103.206L132.369 103.336ZM125.899 99.6664C133.589 100.346 131.229 105.966 128.289 104.066C127.879 102.546 126.689 100.916 125.679 99.8564L125.899 99.6664ZM144.679 106.296L147.749 108.636C147.589 108.856 147.179 109.096 146.639 109.206V121.086C146.639 123.156 146.209 124.346 142.779 124.676C142.699 123.666 142.589 122.966 142.239 122.506C141.859 122.076 141.339 121.696 140.119 121.476V121.126C140.119 121.126 142.399 121.286 142.999 121.286C143.439 121.286 143.539 121.096 143.539 120.746V115.966C141.749 117.026 139.519 118.246 136.659 119.576C136.519 119.926 136.249 120.196 135.929 120.286L134.759 117.646C134.219 120.226 132.939 122.866 130.059 124.796L129.789 124.556C131.989 121.076 132.129 116.726 132.129 112.896V106.676L135.659 107.926H138.129V99.3164L142.099 99.6664C142.049 100.016 141.879 100.266 141.199 100.376V107.936H143.269L144.679 106.296ZM132.179 101.086C139.929 102.986 137.399 108.646 134.569 106.546C134.299 104.696 133.049 102.636 131.929 101.246L132.179 101.086ZM135.189 112.876C135.189 114.046 135.159 115.376 134.949 116.736C136.959 116.466 140.299 115.816 143.539 114.996V108.696H135.199V111.336C144.389 109.646 144.029 115.166 141.119 114.706C140.059 113.946 137.829 112.856 135.199 112.176V112.876H135.189ZM148.509 102.796C148.369 103.066 148.099 103.206 147.449 103.126C146.089 104.266 144.049 105.896 142.119 107.126L141.819 106.856C142.929 104.956 144.289 102.096 144.889 100.496L148.509 102.796Z" fill="#93594C"/>
<path d="M176.658 107.546C176.498 107.766 176.168 107.846 175.708 107.926C175.568 109.226 175.328 109.906 174.508 110.346C173.988 110.646 173.338 110.726 172.468 110.756L173.448 111.486C173.288 111.676 172.928 111.896 172.468 112.006V119.666C172.438 119.856 170.838 120.456 169.778 120.456H169.258V119.586H158.798V119.996C158.798 120.296 157.408 121.006 156.078 121.006H155.638V111.116C154.418 111.556 152.998 111.936 151.348 112.256L151.188 111.926C154.858 110.756 156.918 109.266 158.068 107.576H155.788L154.778 108.776L152.168 107.146C152.408 106.926 152.788 106.706 153.148 106.546C153.308 105.566 153.498 104.186 153.558 103.366L156.738 104.126H159.348C159.398 103.606 159.428 103.116 159.428 102.606V102.276H152.958L152.718 101.516H159.428V99.2559L163.318 99.6058C163.268 99.9558 163.048 100.226 162.418 100.316V101.516H165.218V99.2559L169.238 99.6358C169.188 99.9858 168.968 100.256 168.228 100.366V101.506H171.058L172.418 100.066L175.268 102.186C175.128 102.376 174.778 102.596 174.288 102.706V105.016C174.258 105.236 172.818 105.806 171.838 105.806H171.318V104.906H168.218V106.806H172.838L174.168 105.556L176.658 107.546ZM151.758 124.476C155.238 123.446 158.988 121.376 160.778 119.696L164.258 121.976C164.018 122.276 163.498 122.386 162.678 122.196C160.178 123.526 155.828 124.556 151.858 124.856L151.758 124.476ZM158.558 106.816C158.888 106.196 159.098 105.566 159.238 104.916H156.088C155.978 105.516 155.868 106.216 155.738 106.816H158.558ZM170.138 108.366C170.708 108.416 171.718 108.476 172.118 108.476C172.448 108.476 172.608 108.426 172.718 108.336C172.858 108.256 172.938 107.956 173.018 107.576H168.238V109.426C168.238 109.666 166.938 110.156 165.738 110.156H165.218V107.576H160.948C160.238 108.586 159.178 109.476 157.628 110.266L158.988 110.806H169.018L170.428 109.226L171.948 110.336C171.918 109.926 171.838 109.656 171.598 109.386C171.298 109.056 170.808 108.896 170.128 108.736V108.366H170.138ZM169.268 113.446V111.566H158.808V113.446H169.268ZM158.798 116.106H169.258V114.206H158.798V116.106ZM169.268 118.796V116.866H158.808V118.796H169.268ZM165.218 104.916H162.148C161.988 105.566 161.768 106.196 161.418 106.816H165.218V104.916ZM162.418 102.656C162.388 103.146 162.368 103.636 162.278 104.126H165.218V102.276H162.418V102.656ZM165.048 120.596C180.378 120.816 174.938 126.436 172.058 124.346C170.758 123.256 168.388 121.876 164.968 120.926L165.048 120.596ZM168.228 102.276V104.126H171.328V102.276H168.228Z" fill="#93594C"/>
<path opacity="0.57" d="M38.7988 31.8863C59.7288 19.2263 89.5588 25.8763 105.439 46.7363C121.329 67.6063 117.239 94.7763 96.3188 107.436C75.3888 120.096 45.5588 113.446 29.6688 92.5863C13.7988 71.7163 17.8788 44.5463 38.7988 31.8863Z" fill="url(#paint1_radial)"/>
<path opacity="0.88" d="M51.3284 63.036C52.9484 60.766 62.1084 63.056 71.7784 68.146C81.4584 73.226 87.9884 79.186 86.3684 81.466C84.7584 83.726 75.5884 81.446 65.9084 76.356C56.2484 71.276 49.7084 65.306 51.3284 63.036Z" fill="url(#paint2_radial)"/>
<path opacity="0.57" d="M0.00844743 36.4157C0.588447 35.5957 31.9285 51.1558 69.9985 71.1758C108.068 91.1858 138.458 108.076 137.878 108.886C137.298 109.706 105.958 94.1458 67.8885 74.1258C29.8084 54.1258 -0.581553 37.2457 0.00844743 36.4157Z" fill="url(#paint3_radial)"/>
<path opacity="0.88" d="M84.418 55.1963C88.138 57.5363 84.098 67.8563 75.378 78.2463C66.658 88.6263 56.578 95.1663 52.848 92.8263C49.118 90.4963 53.178 80.1763 61.888 69.7863C70.618 59.3763 80.698 52.8563 84.418 55.1963Z" fill="url(#paint4_radial)"/>
<path opacity="0.57" d="M130.058 0.0159469C131.388 0.855947 104.678 34.6759 70.3984 75.5459C36.0984 116.436 7.20839 148.896 5.87839 148.036C4.53839 147.196 31.2384 113.376 65.5384 72.506C99.8184 31.626 128.708 -0.824053 130.058 0.0159469Z" fill="url(#paint5_radial)"/>
<defs>
<linearGradient id="paint0_linear" x1="54.5081" y1="113.863" x2="190.451" y2="113.863" gradientUnits="userSpaceOnUse">
<stop stop-color="white"/>
<stop offset="0.5101" stop-color="#B43E3E"/>
<stop offset="1" stop-color="#8F4C40"/>
</linearGradient>
<radialGradient id="paint1_radial" cx="0" cy="0" r="1" gradientUnits="userSpaceOnUse" gradientTransform="translate(67.5577 69.6638) rotate(-127.265) scale(47.4737 44.0342)">
<stop stop-color="white"/>
<stop offset="1" stop-color="white" stop-opacity="0"/>
</radialGradient>
<radialGradient id="paint2_radial" cx="0" cy="0" r="1" gradientUnits="userSpaceOnUse" gradientTransform="translate(68.8477 72.2494) rotate(-141.222) scale(13.7729 12.9438)">
<stop stop-color="white"/>
<stop offset="1" stop-color="white" stop-opacity="0"/>
</radialGradient>
<radialGradient id="paint3_radial" cx="0" cy="0" r="1" gradientUnits="userSpaceOnUse" gradientTransform="translate(68.94 72.6528) rotate(-143.346) scale(51.9357 47.8777)">
<stop stop-color="white"/>
<stop offset="1" stop-color="white" stop-opacity="0"/>
</radialGradient>
<radialGradient id="paint4_radial" cx="0" cy="0" r="1" gradientUnits="userSpaceOnUse" gradientTransform="translate(68.6307 74.012) rotate(-122.177) scale(19.4845 16.905)">
<stop stop-color="white"/>
<stop offset="1" stop-color="white" stop-opacity="0"/>
</radialGradient>
<radialGradient id="paint5_radial" cx="0" cy="0" r="1" gradientUnits="userSpaceOnUse" gradientTransform="translate(67.9651 74.0306) rotate(-120.684) scale(73.5901 62.163)">
<stop stop-color="white"/>
<stop offset="1" stop-color="white" stop-opacity="0"/>
</radialGradient>
</defs>
</svg>
