<svg width="286" height="74" viewBox="0 0 286 74" fill="none" xmlns="http://www.w3.org/2000/svg">
<g clip-path="url(#clip0)">
<path d="M237.9 62.1H28.1C12.6 62.1 0 49.5 0 34V28.1C0 12.6 12.6 0 28.1 0H238C253.4 0 266 12.6 266 28.1V34C266 49.5 253.4 62.1 237.9 62.1Z" fill="#93594C"/>
<path d="M64.6008 43.1996H39.3008V40.5996H46.7008C45.8008 35.3996 44.6008 30.8996 43.1008 27.1996L45.1008 25.7996H40.3008V23.1996H50.9008C50.4008 21.7996 49.8008 20.4996 49.0008 19.0996L51.8008 18.0996C52.7008 19.6996 53.4008 21.3996 54.0008 23.0996H63.9008V25.6996H58.7008L60.8008 27.0996C60.2008 30.9996 59.1008 35.4996 57.3008 40.5996H64.6008V43.1996ZM58.3008 25.7996H45.5008C47.2008 30.1996 48.5008 35.1996 49.4008 40.6996H54.6008C56.4008 35.0996 57.7008 30.1996 58.3008 25.7996Z" fill="white"/>
<path d="M87.8992 41.7996L86.0992 43.7996C84.2992 41.7996 82.5992 40.1996 80.8992 39.0996C78.5992 41.0996 75.7992 42.7996 72.6992 44.0996L71.1992 41.9996C74.3992 40.6996 76.9992 39.1996 78.9992 37.4996C80.9992 35.7996 82.8992 33.3996 84.8992 30.1996L87.1992 30.9996C86.1992 32.8996 84.6992 34.9996 82.6992 37.1996C84.9992 38.9996 86.6992 40.4996 87.8992 41.7996ZM86.9992 21.1996V23.6996H79.8992C78.4992 25.9996 77.0992 27.6996 75.8992 28.8996C77.1992 28.7996 78.7992 28.4996 80.5992 28.0996C81.2992 26.8996 81.8992 25.7996 82.2992 24.9996L84.6992 25.7996C82.1992 31.2996 78.3992 35.4996 73.1992 38.2996L71.4992 36.2996C74.2992 34.7996 76.6992 32.9996 78.6992 30.7996C76.4992 31.1996 74.5992 31.4996 72.9992 31.5996L72.3992 29.1996C74.2992 27.5996 75.7992 25.7996 76.8992 23.5996H71.7992V21.0996H78.2992C77.9992 20.3996 77.5992 19.5996 77.0992 18.6996L79.8992 18.0996C80.3992 18.8996 80.7992 19.8996 81.1992 20.9996H86.9992V21.1996ZM90.9992 38.7996H88.3992V20.4996H90.9992V38.7996ZM96.0992 41.4996C96.0992 42.2996 95.8992 42.8996 95.3992 43.3996C94.8992 43.8996 94.3992 43.9996 93.7992 43.9996C91.9992 43.9996 90.7992 43.9996 90.0992 43.8996L89.2992 41.2996C90.5992 41.3996 91.6992 41.3996 92.6992 41.3996C93.2992 41.3996 93.5992 41.0996 93.5992 40.4996V18.4996H96.0992V41.4996V41.4996Z" fill="white"/>
<path d="M107.099 37.0996C106.699 39.7996 106.099 42.0996 105.299 43.9996L103.199 43.0996C103.999 40.9996 104.599 38.8996 104.999 36.5996L107.099 37.0996ZM113.999 23.8996C111.899 27.7996 109.599 30.8996 107.399 33.2996C108.099 33.1996 109.199 32.8996 110.499 32.4996C110.299 31.9996 110.199 31.4996 109.899 31.1996L111.799 30.4996C112.599 32.0996 113.199 33.5996 113.499 35.0996L111.499 35.7996C111.399 35.1996 111.299 34.7996 111.199 34.4996C109.099 35.0996 106.699 35.5996 103.999 35.9996L103.499 33.9996C105.299 32.4996 106.999 30.5996 108.499 28.1996C107.299 28.3996 105.799 28.5996 104.199 28.7996L103.699 26.9996C105.699 24.6996 107.399 21.6996 108.899 18.0996L111.199 18.9996C110.199 21.3996 108.799 23.7996 107.099 26.1996C108.199 26.0996 109.099 25.9996 109.999 25.7996C110.599 24.9996 111.099 23.9996 111.699 22.8996L113.999 23.8996ZM111.099 42.7996L108.799 43.2996C108.799 41.2996 108.599 39.2996 108.099 37.0996L110.199 36.5996C110.599 38.7996 110.899 40.8996 111.099 42.7996ZM114.299 39.2996L112.399 39.9996C112.099 38.8996 111.699 37.6996 111.099 36.5996L112.999 35.9996C113.499 37.0996 113.899 38.1996 114.299 39.2996ZM119.199 32.3996C119.399 36.1996 117.599 39.8996 113.899 43.3996L112.199 41.7996C114.699 39.6996 116.199 37.2996 116.799 34.6996H113.899V32.3996H119.199ZM129.199 41.0996L127.399 43.2996C125.599 41.8996 123.999 39.8996 122.399 37.2996V41.5996C122.399 42.4996 122.099 43.0996 121.399 43.4996C120.699 43.8996 119.299 44.0996 117.299 44.0996L116.599 41.4996C117.899 41.4996 118.799 41.4996 119.199 41.4996C119.599 41.4996 119.899 41.2996 119.899 40.9996V30.5996H114.399V20.8996H117.999C118.499 20.0996 118.999 19.1996 119.299 18.2996L121.799 18.8996C121.499 19.5996 121.199 20.2996 120.799 20.9996H127.299V30.6996H122.399V32.9996C122.599 33.3996 122.899 33.9996 123.299 34.5996C124.099 33.9996 125.199 32.9996 126.399 31.7996L128.199 33.3996C127.299 34.3996 126.099 35.4996 124.599 36.6996C125.799 37.9996 127.299 39.4996 129.199 41.0996ZM124.899 24.6996V22.9996H116.999V24.6996H124.899ZM124.899 28.4996V26.7996H116.999V28.4996H124.899Z" fill="white"/>
<path d="M160.9 43.3H135.5V40.7H146V18.5H148.7V27.3H159.7V29.9H148.7V40.7H160.9V43.3V43.3Z" fill="white"/>
<path d="M176.302 23.5992H167.602V21.1992H171.002C170.802 20.6992 170.502 19.8992 170.002 19.0992L172.602 18.3992C173.002 19.1992 173.402 20.1992 173.702 21.2992H176.302V23.5992ZM175.702 27.7992H168.302V25.3992H175.702V27.7992ZM175.702 32.1992H168.302V29.7992H175.702V32.1992ZM175.702 43.5992H173.202V42.3992H171.002V44.1992H168.402V34.1992H175.802V43.5992H175.702ZM173.202 39.9992V36.5992H171.002V39.9992H173.202ZM182.102 29.2992H177.002V26.9992H182.102V29.2992ZM182.102 21.7992H177.602V19.4992H182.102V21.7992ZM193.402 31.7992L192.102 34.0992C189.302 33.1992 187.202 31.6992 185.702 29.4992C184.102 31.5992 181.902 33.0992 179.002 33.9992L177.702 31.7992C179.802 31.2992 181.402 30.4992 182.702 29.3992C184.002 28.2992 184.702 26.4992 184.802 24.0992H187.102C187.002 24.4992 187.002 25.0992 187.002 26.0992C187.002 27.2992 187.602 28.3992 188.802 29.3992C190.002 30.2992 191.602 31.1992 193.402 31.7992ZM191.402 43.9992H188.802V42.5992H180.702V43.9992H178.102V34.4992H191.402V43.9992V43.9992ZM192.702 20.7992C192.202 23.2992 191.602 25.2992 190.902 26.7992L188.502 25.9992C188.902 24.8992 189.302 23.8992 189.502 23.0992H184.802C183.902 24.4992 183.102 25.4992 182.402 25.9992L180.402 24.3992C182.002 22.8992 183.402 20.7992 184.702 18.1992L187.102 18.8992C186.902 19.4992 186.602 20.0992 186.202 20.7992H192.702V20.7992ZM188.802 40.2992V36.7992H180.702V40.2992H188.802Z" fill="white"/>
<path d="M209.702 23.4996H199.602V21.1996H203.402C203.202 20.3996 202.902 19.6996 202.602 18.9996L205.202 18.2996C205.602 19.2996 206.002 20.2996 206.302 21.1996H209.802V23.4996H209.702ZM208.702 27.8996H200.402V25.5996H208.702V27.8996ZM208.702 32.0996H200.402V29.7996H208.702V32.0996ZM208.702 43.4996H206.102V42.1996H202.902V43.9996H200.302V34.0996H208.602V43.4996H208.702ZM206.102 39.8996V36.3996H202.902V39.8996H206.102ZM224.702 21.8996C224.702 26.8996 224.602 31.2996 224.502 34.9996C224.402 38.6996 224.202 40.9996 223.902 41.7996C223.602 42.5996 223.202 43.0996 222.602 43.4996C222.002 43.8996 220.902 43.9996 219.302 43.9996C218.602 43.9996 218.002 43.9996 217.402 43.8996L216.502 41.3996C217.602 41.4996 219.002 41.4996 220.602 41.4996C220.802 41.4996 221.002 41.3996 221.202 41.2996C221.402 41.0996 221.502 40.8996 221.602 40.5996L221.902 35.3996C222.102 32.1996 222.202 28.4996 222.202 24.2996H214.202C213.802 24.9996 213.202 25.8996 212.602 26.7996H219.902V39.2996H211.402V28.2996C211.102 28.6996 210.802 28.8996 210.602 29.0996L209.202 26.7996C211.302 24.5996 213.102 21.6996 214.502 18.0996L216.902 18.8996C216.602 19.8996 216.102 20.7996 215.602 21.7996H224.702V21.8996ZM217.302 31.7996V29.1996H213.902V31.7996H217.302ZM217.302 36.8996V34.0996H213.902V36.8996H217.302Z" fill="white"/>
<path d="M250.2 54.1003C249.1 51.8003 248 49.4003 246.9 47.1003C244.9 42.8003 242.9 38.6003 240.9 34.3003C240.3 33.0003 240 31.7003 240 30.3003C240.2 27.0003 243.5 24.9003 246.7 26.2003C248.1 26.8003 249.2 27.7003 249.9 29.1003C251.4 32.0003 252.9 34.9003 254.4 37.7003C254.5 37.9003 254.7 38.1003 254.8 38.3003C256.8 36.9003 258.9 36.7003 261.2 37.5003C261.4 37.6003 261.7 37.5003 261.9 37.4003C264.1 36.3003 266.3 36.1003 268.6 37.1003C268.8 37.2003 269.1 37.2003 269.3 37.1003C272.3 35.3003 276 36.4003 278.2 39.2003C280.1 41.6003 281.4 44.4003 282.5 47.3003C283.4 49.8003 284.3 52.3003 285.1 54.8003C286.4 58.9003 285.9 62.8003 283.3 66.2003C278.6 72.3003 272.4 74.8003 264.8 73.8003C261.9 73.4003 259.4 71.8003 256.9 70.4003C253.5 68.5003 250.1 66.5003 246.6 64.6003C245.3 63.9003 244.1 63.1003 242.9 62.2003C241.4 61.0003 240.6 59.4003 240.7 57.5003C240.9 54.9003 243.6 52.9003 246.4 53.4003C247.7 53.3003 248.9 53.8003 250.2 54.1003ZM263.1 40.0003C264 41.6003 264.8 43.1003 265.7 44.6003C266.1 45.4003 266 46.0003 265.3 46.4003C264.6 46.8003 264 46.6003 263.6 45.8003C262.8 44.3003 261.9 42.9003 261.2 41.4003C260.7 40.3003 259.8 40.0003 258.8 40.0003C257.9 40.0003 257.2 40.3003 256.5 40.8003C256 41.1003 256 41.4003 256.2 41.9003C257.3 43.9003 258.3 45.9003 259.3 48.0003C259.8 48.9003 259.2 49.9003 258.2 49.8003C257.6 49.8003 257.3 49.3003 257.1 48.8003C253.9 42.7003 250.8 36.6003 247.6 30.5003C247.2 29.7003 246.6 29.1003 245.7 28.8003C244.2 28.2003 242.8 29.2003 243 30.8003C243.1 31.7003 243.4 32.7003 243.8 33.5003C247.5 41.4003 251.2 49.3003 254.9 57.2003C255.2 57.8003 255.3 58.3003 254.8 58.8003C254.3 59.3003 253.8 59.1003 253.2 58.8003C251.6 58.0003 250 57.2003 248.4 56.6003C247.5 56.2003 246.5 55.9003 245.5 55.9003C243.9 55.8003 243 57.3003 243.7 58.7003C244 59.3003 244.5 59.9003 245.1 60.2003C246.2 60.9003 247.3 61.6003 248.5 62.2003C251 63.6003 253.4 65.0003 255.9 66.3003C258.2 67.6003 260.5 68.9003 262.9 70.1003C263.7 70.5003 264.5 70.8003 265.4 70.9003C271.8 71.6003 277.1 69.4003 281 64.1003C282.8 61.6003 283.2 58.7003 282.3 55.8003C281.8 54.2003 281.3 52.7003 280.8 51.1003C279.6 47.7003 278.3 44.5003 276.4 41.5003C275.7 40.3003 274.7 39.5003 273.4 39.1003C272.5 38.8003 271.5 38.9003 270.7 39.5003C271.3 40.6003 271.8 41.6003 272.3 42.6003C272.7 43.4003 272.6 44.0003 271.9 44.3003C271.2 44.7003 270.6 44.5003 270.2 43.7003C269.6 42.6003 269.1 41.6003 268.5 40.5003C268.4 40.2003 268.1 40.0003 267.9 39.8003C266.3 39.1003 264.8 39.1003 263.1 40.0003Z" fill="#93594C"/>
<path d="M263.102 40.0002C264.702 39.1002 266.302 39.1002 267.802 40.0002C268.102 40.1002 268.302 40.4002 268.402 40.7002C269.002 41.7002 269.502 42.8002 270.102 43.9002C270.502 44.7002 271.102 44.9002 271.802 44.5002C272.502 44.1002 272.602 43.6002 272.202 42.8002C271.702 41.8002 271.102 40.8002 270.602 39.7002C271.502 39.1002 272.402 39.0002 273.302 39.3002C274.602 39.7002 275.602 40.6002 276.302 41.7002C278.202 44.7002 279.602 48.0002 280.702 51.3002C281.202 52.8002 281.802 54.4002 282.202 56.0002C283.002 59.0002 282.702 61.8002 280.902 64.3002C277.002 69.5002 271.702 71.7002 265.302 71.1002C264.402 71.0002 263.602 70.7002 262.802 70.3002C260.502 69.1002 258.202 67.8002 255.802 66.5002C253.302 65.1002 250.802 63.8002 248.402 62.4002C247.302 61.8002 246.102 61.1002 245.002 60.4002C244.402 60.0002 243.902 59.5002 243.602 58.9002C242.902 57.5002 243.802 56.0002 245.402 56.1002C246.402 56.2002 247.402 56.4002 248.302 56.8002C249.902 57.5002 251.502 58.3002 253.102 59.0002C253.602 59.3002 254.202 59.4002 254.702 59.0002C255.202 58.5002 255.102 58.0002 254.802 57.4002C251.102 49.5002 247.302 41.6002 243.702 33.7002C243.302 32.9002 243.002 31.9002 242.902 31.0002C242.702 29.4002 244.102 28.4002 245.602 29.0002C246.502 29.3002 247.102 29.9002 247.502 30.7002C250.702 36.8002 253.802 42.9002 257.002 49.0002C257.202 49.5002 257.502 49.9002 258.102 50.0002C259.102 50.1002 259.702 49.1002 259.202 48.2002C258.202 46.2002 257.202 44.1002 256.102 42.1002C255.802 41.6002 255.902 41.3002 256.402 41.0002C257.102 40.5002 257.902 40.2002 258.702 40.2002C259.702 40.3002 260.602 40.5002 261.102 41.6002C261.802 43.1002 262.702 44.6002 263.502 46.0002C264.002 46.8002 264.502 47.0002 265.202 46.6002C265.902 46.2002 266.002 45.6002 265.602 44.8002C264.902 43.1002 264.002 41.6002 263.102 40.0002Z" fill="white"/>
</g>
<defs>
<clipPath id="clip0">
<rect width="285.6" height="73.9" fill="white"/>
</clipPath>
</defs>
</svg>
