<svg width="141" height="141" viewBox="0 0 141 141" fill="none" xmlns="http://www.w3.org/2000/svg">
<path d="M70.6984 139.4C108.696 139.4 139.498 108.597 139.498 70.5998C139.498 32.6026 108.696 1.7998 70.6984 1.7998C32.7012 1.7998 1.89844 32.6026 1.89844 70.5998C1.89844 108.597 32.7012 139.4 70.6984 139.4Z" fill="#B67C72"/>
<path d="M52.4016 36.9996C52.4016 36.5996 52.5016 36.4996 52.5016 36.3996C51.7016 32.0996 53.6016 29.0996 56.8016 26.2996C59.9016 23.5996 62.7016 20.5996 65.5016 17.5996C66.5016 16.5996 67.5016 16.0996 68.9016 16.0996C75.2016 16.1996 81.6016 16.1996 87.9016 16.0996C89.3016 16.0996 90.4016 16.4996 91.3016 17.4996C95.1016 21.3996 99.0016 25.2996 102.902 29.0996C103.902 30.0996 104.402 31.1996 104.402 32.6996C104.402 47.0996 104.402 61.4996 104.402 75.8996C104.402 76.9996 104.702 77.6996 105.402 78.3996C110.502 83.5996 109.502 81.0996 109.502 88.4996C109.602 96.8996 109.502 105.4 109.502 113.8C109.502 116.6 108.702 117.4 105.902 117.4C82.3016 117.4 58.7016 117.4 35.2016 117.4C32.4016 117.4 31.6016 116.6 31.6016 113.9C31.6016 92.8996 31.6016 71.8996 31.6016 50.8996C31.6016 49.3996 32.0016 48.2996 33.1016 47.2996C36.2016 44.2996 39.2016 41.0996 42.3016 38.1996C43.0016 37.4996 44.2016 37.0996 45.3016 36.9996C47.7016 36.8996 50.1016 36.9996 52.4016 36.9996ZM42.1016 112.2C42.1016 111.5 42.1016 110.9 42.1016 110.3C42.1016 101.8 42.1016 93.1996 42.1016 84.6996C42.1016 83.1996 42.6016 82.0996 43.6016 81.0996C48.0016 76.7996 52.2016 72.4996 56.6016 68.1996C57.4016 67.3996 57.8016 66.6996 57.7016 65.4996C57.6016 61.6996 57.7016 57.8996 57.7016 54.0996C57.7016 53.5996 57.7016 53.0996 57.7016 52.5996C50.7016 52.5996 43.9016 52.5996 37.0016 52.5996C37.0016 72.4996 37.0016 92.2996 37.0016 112.2C38.7016 112.2 40.3016 112.2 42.1016 112.2ZM104.302 112.2C104.302 103.5 104.302 94.9996 104.302 86.3996C95.6016 86.3996 87.1016 86.3996 78.5016 86.3996C78.5016 94.9996 78.5016 103.6 78.5016 112.2C87.2016 112.2 95.7016 112.2 104.302 112.2ZM99.2016 72.2996C99.2016 59.3996 99.2016 46.8996 99.2016 34.4996C94.0016 34.4996 88.9016 34.4996 83.7016 34.4996C83.7016 39.7996 83.7016 44.8996 83.7016 49.9996C83.7016 55.0996 83.7016 60.1996 83.7016 65.4996C86.2016 65.4996 88.5016 65.3996 90.8016 65.5996C91.8016 65.6996 93.0016 66.0996 93.8016 66.7996C95.6016 68.3996 97.2016 70.2996 99.2016 72.2996ZM73.3016 112.2C73.3016 103.2 73.3016 94.3996 73.3016 85.5996C73.3016 85.0996 73.0016 84.4996 72.6016 84.0996C68.8016 80.1996 64.9016 76.3996 61.0016 72.4996C60.8016 72.2996 60.5016 72.0996 60.2016 71.8996C56.0016 75.9996 51.9016 80.0996 47.9016 84.1996C47.5016 84.5996 47.3016 85.3996 47.3016 86.0996C47.3016 94.2996 47.3016 102.4 47.3016 110.6C47.3016 111.1 47.3016 111.6 47.3016 112.1C49.1016 112.1 50.7016 112.1 52.5016 112.1C52.5016 111.4 52.5016 110.9 52.5016 110.3C52.5016 103.4 52.5016 96.4996 52.5016 89.4996C52.5016 88.7996 52.5016 88.0996 52.6016 87.3996C53.4016 83.3996 57.0016 80.6996 60.9016 80.9996C64.9016 81.2996 68.0016 84.6996 68.0016 88.6996C68.0016 95.8996 68.0016 103.1 68.0016 110.3C68.0016 110.9 68.0016 111.4 68.0016 112.1C69.9016 112.2 71.5016 112.2 73.3016 112.2ZM78.5016 65.4996C78.5016 60.7996 78.5016 56.1996 78.5016 51.5996C78.5016 51.2996 78.4016 50.8996 78.2016 50.6996C75.8016 48.1996 73.3016 45.6996 70.7016 43.1996C68.3016 45.5996 66.1016 47.7996 63.9016 49.9996C63.3016 50.5996 62.9016 51.4996 62.9016 52.3996C62.8016 56.2996 62.9016 60.1996 62.9016 64.0996C62.9016 64.5996 63.0016 64.9996 63.0016 65.4996C68.2016 65.4996 73.2016 65.4996 78.5016 65.4996ZM66.6016 70.7996C69.9016 74.0996 73.0016 77.0996 75.9016 80.0996C76.6016 80.7996 77.4016 81.1996 78.4016 81.1996C85.3016 81.1996 92.1016 81.1996 99.0016 81.1996C99.5016 81.1996 99.9016 81.1996 100.702 81.0996C97.2016 77.5996 94.0016 74.3996 90.7016 71.1996C90.4016 70.8996 89.9016 70.7996 89.5016 70.7996C82.1016 70.6996 74.6016 70.7996 66.6016 70.7996ZM68.2016 22.5996C67.9016 22.7996 67.8016 22.8996 67.7016 22.8996C65.0016 25.5996 62.4016 28.4996 59.5016 30.9996C57.5016 32.7996 57.6016 34.6996 57.8016 36.9996C60.3016 36.9996 62.8016 37.2996 65.2016 36.8996C69.9016 36.2996 73.6016 37.5996 76.4016 41.5996C76.9016 42.2996 77.6016 42.7996 78.5016 43.6996C78.5016 39.9996 78.5016 36.8996 78.5016 33.6996C78.5016 33.2996 78.4016 32.7996 78.1016 32.4996C74.8016 29.1996 71.5016 25.8996 68.2016 22.5996ZM62.9016 112.2C62.9016 104.6 62.9016 97.0996 62.9016 89.5996C62.9016 89.2996 62.9016 89.0996 62.9016 88.7996C62.7016 87.3996 61.7016 86.3996 60.4016 86.3996C59.1016 86.3996 58.0016 87.3996 57.8016 88.7996C57.8016 89.0996 57.8016 89.2996 57.8016 89.5996C57.8016 96.7996 57.8016 104.1 57.8016 111.3C57.8016 111.6 57.8016 111.9 57.9016 112.3C59.5016 112.2 61.1016 112.2 62.9016 112.2ZM95.7016 29.1996C93.5016 27.0996 91.6016 25.3996 90.0016 23.4996C88.6016 21.8996 87.1016 21.2996 85.0016 21.3996C81.6016 21.5996 78.3016 21.3996 74.4016 21.3996C77.1016 24.0996 79.5016 26.3996 81.8016 28.6996C82.0016 28.8996 82.4016 29.0996 82.8016 29.0996C86.9016 29.1996 91.0016 29.1996 95.7016 29.1996ZM40.8016 46.9996C40.9016 47.0996 41.0016 47.2996 41.1016 47.3996C46.9016 47.3996 52.8016 47.3996 58.6016 47.3996C58.9016 47.3996 59.3016 47.2996 59.5016 47.0996C61.1016 45.5996 62.6016 43.9996 64.2016 42.4996C63.9016 42.2996 63.8016 42.2996 63.8016 42.2996C58.1016 42.2996 52.3016 42.2996 46.6016 42.2996C46.2016 42.2996 45.7016 42.4996 45.5016 42.6996C43.9016 44.0996 42.4016 45.4996 40.8016 46.9996Z" fill="white" stroke="#B67C72" stroke-miterlimit="10"/>
<path d="M47.3 68.1998C45.7 68.1998 44.1 68.1998 42.4 68.1998C40.6 68.1998 39.6 67.1998 39.5 65.3998C39.5 63.9998 39.5 62.4998 39.8 61.0998C40.7 57.3998 44.3 54.8998 48.1 55.2998C51.9 55.6998 54.9 58.7998 55.1 62.5998C55.2 66.8998 55.6 68.4998 49.9 68.1998C49 68.0998 48.2 68.1998 47.3 68.1998ZM44.7 62.8998C46.5 62.8998 48.1 62.8998 49.9 62.8998C49.7 61.2998 48.8 60.3998 47.3 60.3998C45.9 60.3998 45 61.2998 44.7 62.8998Z" fill="white" stroke="#B67C72" stroke-miterlimit="10"/>
<path d="M91.4031 107.1C89.8031 107.1 88.3031 107.1 86.7031 107.1C84.7031 107.1 83.7031 106.1 83.7031 104.1C83.7031 102.4 83.7031 100.7 83.7031 99.1C83.8031 94.9 87.3031 91.5 91.4031 91.5C95.6031 91.5 99.0031 94.8 99.2031 99C99.3031 100.7 99.2031 102.4 99.2031 104C99.2031 106 98.2031 107 96.2031 107C94.7031 107.1 93.0031 107.1 91.4031 107.1ZM94.1031 101.8C93.9031 100 94.7031 98 92.7031 97.1C92.0031 96.8 90.7031 96.8 90.0031 97.2C88.3031 98.3 88.9031 100.1 88.9031 101.8C90.7031 101.8 92.3031 101.8 94.1031 101.8Z" fill="white" stroke="#B67C72" stroke-miterlimit="10"/>
<path d="M88.9008 39.5C89.0008 38.1 90.2008 37 91.6008 37C93.0008 37.1 94.1008 38.3 94.1008 39.7C94.0008 41.1 92.8008 42.2 91.4008 42.2C89.9008 42.1 88.8008 40.9 88.9008 39.5Z" fill="white" stroke="#B67C72" stroke-miterlimit="10"/>
<path d="M94.1019 60.3998C94.1019 61.7998 92.9019 62.9998 91.5019 62.8998C90.1019 62.8998 88.9019 61.6998 89.0019 60.2998C89.0019 58.8998 90.2019 57.6998 91.6019 57.7998C92.9019 57.7998 94.1019 58.9998 94.1019 60.3998Z" fill="white" stroke="#B67C72" stroke-miterlimit="10"/>
<path d="M94.1023 49.9994C94.1023 51.3994 92.9023 52.5994 91.5023 52.5994C90.1023 52.5994 88.9023 51.3994 88.9023 49.9994C88.9023 48.5994 90.1023 47.3994 91.5023 47.3994C92.9023 47.3994 94.0023 48.5994 94.1023 49.9994Z" fill="white" stroke="#B67C72" stroke-miterlimit="10"/>
<path d="M70.6016 140.9C32.0016 140.9 0.601562 109.5 0.601562 70.9004C0.601562 32.3004 32.0016 0.900391 70.6016 0.900391C109.202 0.900391 140.602 32.3004 140.602 70.9004C140.602 109.5 109.202 140.9 70.6016 140.9ZM70.6016 3.00039C33.1016 3.00039 2.60156 33.5004 2.60156 71.0004C2.60156 108.5 33.1016 139 70.6016 139C108.102 139 138.602 108.5 138.602 71.0004C138.602 33.5004 108.102 3.00039 70.6016 3.00039Z" fill="url(#paint0_linear)"/>
<defs>
<linearGradient id="paint0_linear" x1="0.667563" y1="70.9594" x2="140.584" y2="70.9594" gradientUnits="userSpaceOnUse">
<stop stop-color="white"/>
<stop offset="0.5101" stop-color="#B43E3E"/>
<stop offset="1" stop-color="#8F4C40"/>
</linearGradient>
</defs>
</svg>
