<svg width="141" height="141" viewBox="0 0 141 141" fill="none" xmlns="http://www.w3.org/2000/svg">
<path d="M70.9992 139.4C108.996 139.4 139.799 108.597 139.799 70.5998C139.799 32.6026 108.996 1.7998 70.9992 1.7998C33.002 1.7998 2.19922 32.6026 2.19922 70.5998C2.19922 108.597 33.002 139.4 70.9992 139.4Z" fill="#AE7370"/>
<path d="M27.0008 55.8996C32.6008 47.9996 38.3008 40.0996 43.9008 32.1996C44.5008 31.3996 45.2008 31.0996 46.1008 31.0996C53.7008 31.0996 61.3008 31.0996 68.9008 31.0996C77.8008 31.0996 86.8008 31.0996 95.7008 31.0996C96.7008 31.0996 97.4008 31.4996 98.0008 32.2996C103.501 39.9996 108.901 47.6996 114.401 55.2996C114.701 55.6996 114.801 56.1996 114.801 56.6996C114.801 59.3996 114.801 62.0996 114.801 64.7996C114.801 69.2996 112.101 73.0996 108.001 74.5996C103.901 75.9996 99.4008 74.6996 96.6008 71.1996C96.5008 70.9996 96.3008 70.8996 96.2008 70.7996C91.9008 76.7996 83.5008 76.6996 79.3008 70.7996C77.2008 73.6996 74.4008 75.2996 70.9008 75.2996C67.4008 75.2996 64.6008 73.6996 62.4008 70.7996C60.3008 73.6996 57.5008 75.2996 53.9008 75.2996C50.4008 75.2996 47.6008 73.6996 45.5008 70.7996C45.2008 71.1996 44.9008 71.5996 44.5008 71.8996C41.6008 74.8996 38.1008 75.9996 34.1008 74.7996C30.2008 73.5996 27.8008 70.8996 27.0008 66.7996C27.0008 66.5996 26.9008 66.4996 26.8008 66.2996C27.0008 62.7996 27.0008 59.2996 27.0008 55.8996ZM67.3008 34.4996C66.3008 41.2996 65.4008 47.9996 64.4008 54.7996C68.8008 54.7996 73.0008 54.7996 77.4008 54.7996C76.4008 47.9996 75.5008 41.2996 74.5008 34.4996C72.1008 34.4996 69.8008 34.4996 67.3008 34.4996ZM63.9008 34.3996C61.7008 34.3996 59.7008 34.3996 57.6008 34.3996C57.0008 34.3996 56.8008 34.5996 56.5008 35.0996C53.8008 41.3996 51.1008 47.6996 48.4008 53.9996C48.3008 54.1996 48.3008 54.4996 48.1008 54.7996C48.5008 54.7996 48.7008 54.7996 49.0008 54.7996C52.7008 54.7996 56.4008 54.7996 60.1008 54.7996C60.8008 54.7996 61.0008 54.5996 61.1008 53.8996C61.7008 49.1996 62.4008 44.4996 63.1008 39.8996C63.4008 38.0996 63.7008 36.2996 63.9008 34.3996ZM78.0008 34.3996C79.0008 41.1996 79.9008 47.9996 80.9008 54.6996C85.2008 54.6996 89.4008 54.6996 93.8008 54.6996C93.3008 53.4996 92.8008 52.3996 92.3008 51.2996C90.0008 45.8996 87.7008 40.5996 85.4008 35.1996C85.3008 34.8996 85.0008 34.4996 84.7008 34.4996C82.5008 34.3996 80.3008 34.3996 78.0008 34.3996ZM109.901 54.7996C109.801 54.4996 109.701 54.3996 109.701 54.3996C105.101 47.8996 100.501 41.3996 95.8008 34.9996C95.6008 34.7996 95.2008 34.5996 94.9008 34.5996C93.1008 34.5996 91.3008 34.5996 89.5008 34.5996C89.3008 34.5996 89.1008 34.5996 88.9008 34.6996C88.9008 34.7996 88.9008 34.8996 89.0008 34.9996C91.8008 41.4996 94.5008 47.8996 97.3008 54.3996C97.5008 54.8996 97.8008 54.8996 98.2008 54.8996C100.901 54.8996 103.601 54.8996 106.401 54.8996C107.401 54.7996 108.601 54.7996 109.901 54.7996ZM32.1008 54.6996C32.3008 54.6996 32.5008 54.7996 32.6008 54.7996C36.4008 54.7996 40.2008 54.7996 43.9008 54.7996C44.5008 54.7996 44.6008 54.4996 44.8008 54.0996C47.5008 47.7996 50.2008 41.4996 52.9008 35.1996C53.0008 34.9996 53.0008 34.7996 53.1008 34.4996C51.1008 34.4996 49.2008 34.4996 47.3008 34.4996C46.7008 34.4996 46.3008 34.6996 46.0008 35.1996C41.5008 41.4996 37.1008 47.7996 32.6008 53.9996C32.4008 54.0996 32.3008 54.3996 32.1008 54.6996ZM47.3008 58.1996C47.3008 60.6996 47.2008 63.0996 47.3008 65.3996C47.5008 68.6996 50.2008 71.3996 53.5008 71.6996C56.8008 71.8996 60.1008 69.6996 60.5008 66.3996C60.9008 63.6996 60.7008 60.8996 60.8008 58.1996C56.3008 58.1996 51.8008 58.1996 47.3008 58.1996ZM94.7008 58.1996C90.1008 58.1996 85.6008 58.1996 81.1008 58.1996C81.1008 60.0996 81.1008 61.8996 81.1008 63.6996C81.1008 64.2996 81.1008 64.7996 81.1008 65.3996C81.3008 68.6996 84.0008 71.3996 87.3008 71.6996C90.6008 71.9996 93.9008 69.6996 94.4008 66.4996C94.8008 63.6996 94.6008 60.9996 94.7008 58.1996ZM64.2008 58.1996C64.2008 60.5996 64.2008 62.8996 64.2008 65.0996C64.2008 68.6996 67.2008 71.6996 70.9008 71.6996C74.6008 71.6996 77.6008 68.7996 77.7008 65.0996C77.7008 63.0996 77.7008 61.0996 77.7008 59.0996C77.7008 58.7996 77.7008 58.4996 77.7008 58.0996C73.2008 58.1996 68.8008 58.1996 64.2008 58.1996ZM111.501 58.1996C107.001 58.1996 102.501 58.1996 98.1008 58.1996C98.1008 60.5996 98.1008 62.8996 98.1008 65.1996C98.2008 68.5996 101.001 71.4996 104.401 71.6996C107.901 71.8996 111.201 69.2996 111.501 65.7996C111.601 63.2996 111.501 60.7996 111.501 58.1996ZM30.4008 58.1996C30.4008 60.5996 30.3008 62.9996 30.4008 65.3996C30.5008 68.6996 33.3008 71.4996 36.7008 71.6996C40.1008 71.8996 43.4008 69.4996 43.8008 66.0996C44.1008 63.4996 43.9008 60.8996 43.9008 58.2996L43.8008 58.1996C39.3008 58.1996 34.9008 58.1996 30.4008 58.1996Z" fill="white"/>
<path d="M27 110.3C27.4 109.3 28.2 109 29.2 109C30.7 109 32.2 109 33.8 109C33.8 108.6 33.8 108.3 33.8 108C33.8 99 33.8 90 33.8 81.1C33.8 80.8 33.8 80.5 33.8 80.2C33.9 79.2 34.6 78.5 35.5 78.5C36.5 78.5 37.2 79.3 37.2 80.3C37.2 83.3 37.2 86.4 37.2 89.4C37.2 95.6 37.2 101.7 37.2 107.9C37.2 108.2 37.2 108.5 37.2 108.9C50.7 108.9 64.2 108.9 77.8 108.9C77.8 108.6 77.8 108.2 77.8 107.9C77.8 100 77.8 92.2 77.8 84.3C77.8 82.3 78.3 81.8 80.3 81.8C85.5 81.8 90.6 81.8 95.8 81.8C97.6 81.8 98.2 82.3 98.2 84.1C98.2 92 98.2 99.9 98.2 107.9C98.2 108.2 98.2 108.5 98.2 108.9C100.5 108.9 102.7 108.9 105 108.9C105 108.5 105 108.2 105 107.9C105 98.9 105 89.9 105 80.9C105 80.6 105 80.3 105 80C105.1 79.2 105.8 78.6 106.6 78.6C107.4 78.6 108.1 79 108.3 79.8C108.4 80.2 108.4 80.7 108.4 81.1C108.4 90.1 108.4 99 108.4 108C108.4 108.3 108.4 108.7 108.4 109.2C109.4 109.2 110.3 109.2 111.2 109.2C111.9 109.2 112.7 109.2 113.4 109.2C114.5 109.2 115.2 110 115.1 110.9C115.1 111.9 114.4 112.5 113.3 112.5C111.1 112.5 108.9 112.6 106.7 112.6C97.7 112.6 88.7 112.6 79.6 112.6C65.5 112.6 51.4 112.6 37.3 112.6C34.7 112.6 32 112.6 29.4 112.6C28.4 112.6 27.6 112.3 27.2 111.3C27 110.8 27 110.6 27 110.3ZM81.2 85.3C81.2 93.2 81.2 101.1 81.2 108.9C85.7 108.9 90.2 108.9 94.6 108.9C94.6 101 94.6 93.2 94.6 85.3C90.1 85.3 85.7 85.3 81.2 85.3Z" fill="white"/>
<path d="M57.4023 81.8994C60.1023 81.8994 62.8023 81.8994 65.5023 81.8994C67.0023 81.8994 67.6023 82.4994 67.6023 83.9994C67.6023 88.2994 67.6023 92.4994 67.6023 96.7994C67.6023 98.2994 67.0023 98.8994 65.6023 98.8994C60.2023 98.8994 54.8023 98.8994 49.4023 98.8994C48.0023 98.8994 47.4023 98.2994 47.4023 96.7994C47.4023 92.4994 47.4023 88.2994 47.4023 83.9994C47.4023 82.5994 48.0023 81.8994 49.4023 81.8994C52.0023 81.8994 54.7023 81.8994 57.4023 81.8994ZM50.7023 85.2994C50.7023 88.6994 50.7023 92.0994 50.7023 95.3994C55.2023 95.3994 59.6023 95.3994 64.1023 95.3994C64.1023 91.9994 64.1023 88.6994 64.1023 85.2994C59.6023 85.2994 55.2023 85.2994 50.7023 85.2994Z" fill="white"/>
<path d="M70.5 140.9C31.9 140.9 0.5 109.5 0.5 70.9004C0.5 32.3004 31.9 0.900391 70.5 0.900391C109.1 0.900391 140.5 32.3004 140.5 70.9004C140.5 109.5 109.1 140.9 70.5 140.9ZM70.5 3.00039C33 3.00039 2.5 33.5004 2.5 71.0004C2.5 108.5 33 139 70.5 139C108 139 138.5 108.5 138.5 71.0004C138.5 33.5004 108 3.00039 70.5 3.00039Z" fill="url(#paint0_linear)"/>
<defs>
<linearGradient id="paint0_linear" x1="0.5552" y1="70.9584" x2="140.471" y2="70.9584" gradientUnits="userSpaceOnUse">
<stop stop-color="white"/>
<stop offset="0.5101" stop-color="#B43E3E"/>
<stop offset="1" stop-color="#8F4C40"/>
</linearGradient>
</defs>
</svg>
