<svg width="220" height="50" viewBox="0 0 220 50" fill="none" xmlns="http://www.w3.org/2000/svg">
<path d="M37.313 25.6813C40.3528 25.6813 42.6589 25.0524 43.8119 24.5283H43.9168L43.183 21.6981L43.0782 21.8029C41.8203 22.4319 39.8287 22.8512 37.9419 22.8512C32.1767 22.8512 28.6128 19.1824 28.6128 12.9979C28.6128 6.7086 32.1767 2.83019 38.0467 2.83019C39.8287 2.83019 41.6107 3.14466 42.9734 3.87841L43.0782 3.98323L43.9168 1.15304H43.8119C43.2878 0.838573 41.401 0 37.9419 0C30.1851 0 25.0488 5.34591 25.0488 13.2075C25.0488 20.6499 29.8706 25.6813 37.313 25.6813Z" fill="#4D4D4D"/>
<path d="M51.0431 13.6262H62.5735V25.3662H66.0326V0.208984H62.5735V10.5863H51.0431V0.208984H47.584V25.3662H51.0431V13.6262Z" fill="#4D4D4D"/>
<path d="M75.4684 17.5046H83.9589L86.5795 25.3662H90.2482L81.7577 0.208984H77.7744L69.3887 25.3662H72.9526L75.4684 17.5046ZM79.7661 3.56328C80.0805 4.92597 80.4998 6.28865 80.9191 7.75616L83.2252 14.7792H76.2021L78.5082 7.75616C78.9275 6.49829 79.3468 5.13561 79.7661 3.56328Z" fill="#4D4D4D"/>
<path d="M96.7475 14.5696C96.7475 10.5863 96.6427 7.65133 96.5379 4.71632C97.5861 7.0224 99.0536 9.53812 100.94 12.6828L108.802 25.3662H112.156V0.208984H108.907V10.796C108.907 14.2551 109.012 17.2949 109.221 20.5444C108.068 18.1335 106.706 15.6178 105.028 12.8924L97.1668 0.313805V0.208984H93.498V25.3662H96.7475V14.5696Z" fill="#4D4D4D"/>
<path d="M122.112 25.3662H125.571V3.14399H133.119V0.208984H114.67V3.14399H122.112V25.3662Z" fill="#4D4D4D"/>
<path d="M138.99 0.208984H135.531V25.3662H138.99V0.208984Z" fill="#4D4D4D"/>
<path d="M158.067 22.3264H147.69V0.208984H144.23V25.3662H158.067V22.3264Z" fill="#4D4D4D"/>
<path d="M175.258 22.3264H164.776V0.208984H161.422V25.3662H175.258V22.3264Z" fill="#4D4D4D"/>
<path d="M180.919 25.3662H184.378V14.6744L192.659 0.208984H188.781L185.217 7.12722L184.797 7.86098C184.064 9.32848 183.33 10.6912 182.806 12.0538C182.072 10.2719 181.338 8.80437 180.5 7.12722L177.041 0.208984H173.162L181.024 14.6744V25.3662H180.919Z" fill="#4D4D4D"/>
<path d="M34.7978 44.4442C35.2171 44.2346 35.6364 43.9201 35.846 43.5008C36.1605 43.0815 36.2653 42.6622 36.2653 42.1381C36.2653 41.7188 36.1605 41.2996 35.9508 40.8803C35.7412 40.5658 35.4267 40.2513 35.1123 40.0417C34.7978 39.832 34.3785 39.7272 34.0641 39.6224C33.6448 39.5176 33.0158 39.5176 32.1772 39.5176H27.9844V49.9998H31.5483C32.911 49.9998 33.7496 49.9998 34.0641 49.8949C34.5882 49.7901 35.1123 49.6853 35.5316 49.3708C35.9508 49.0564 36.2653 48.7419 36.4749 48.3226C36.6846 47.9033 36.7894 47.3792 36.7894 46.9599C36.7894 46.331 36.5798 45.8069 36.2653 45.3876C35.846 44.8635 35.4267 44.549 34.7978 44.4442ZM30.0808 41.1947H31.3387C32.3869 41.1947 32.911 41.1947 33.1207 41.1947C33.4351 41.1947 33.7496 41.4044 33.9592 41.614C34.1689 41.8237 34.2737 42.0333 34.2737 42.4526C34.2737 42.7671 34.1689 43.0815 33.9592 43.2912C33.7496 43.5008 33.4351 43.6056 33.1207 43.7105C32.911 43.7105 32.3869 43.7105 31.5483 43.7105H30.1856V41.1947H30.0808ZM34.2737 47.6937C34.064 47.9033 33.8544 48.0081 33.54 48.113C33.3303 48.113 32.8062 48.2178 32.0725 48.2178H30.0808V45.3876H31.758C32.7014 45.3876 33.3303 45.3876 33.6448 45.4924C33.9592 45.5972 34.1689 45.7021 34.2737 46.0165C34.3785 46.2262 34.4833 46.5406 34.4833 46.8551C34.5882 47.1696 34.4833 47.484 34.2737 47.6937Z" fill="#4D4D4D"/>
<path d="M46.5359 45.3876H51.777V43.6056H46.5359V41.2996H52.1963V39.5176H44.4395V49.9998H52.4059V48.2178H46.5359V45.3876Z" fill="#4D4D4D"/>
<path d="M59.3242 41.2996H62.364V49.9998H64.5653V41.2996H67.6051V39.5176H59.3242V41.2996Z" fill="#4D4D4D"/>
<path d="M74.1055 41.2996H77.2501V49.9998H79.3466V41.2996H82.4912V39.5176H74.1055V41.2996Z" fill="#4D4D4D"/>
<path d="M91.8191 45.3876H97.0602V43.6056H91.8191V41.2996H97.4795V39.5176H89.7227V49.9998H97.6891V48.2178H91.8191V45.3876Z" fill="#4D4D4D"/>
<path d="M112.26 46.2255C111.946 45.9111 111.631 45.5966 111.107 45.387C112.05 45.2821 112.679 44.9677 113.203 44.4436C113.623 43.9195 113.937 43.2905 113.937 42.4519C113.937 41.823 113.832 41.2989 113.518 40.7748C113.203 40.2507 112.784 39.9362 112.26 39.7266C111.736 39.5169 110.897 39.4121 109.849 39.4121H105.342V49.8943H107.438V45.5966H107.858C108.382 45.5966 108.696 45.5966 108.906 45.7014C109.115 45.8062 109.325 45.9111 109.535 46.1207C109.744 46.3303 110.059 46.8545 110.688 47.693L112.26 49.9991H114.776L113.518 47.9027C112.994 47.0641 112.575 46.54 112.26 46.2255ZM109.011 43.9195H107.438V41.2989H109.115C109.954 41.2989 110.478 41.2989 110.688 41.2989C111.002 41.4037 111.317 41.5086 111.526 41.7182C111.736 41.9278 111.841 42.2423 111.841 42.5568C111.841 42.8712 111.736 43.1857 111.631 43.3953C111.526 43.605 111.317 43.7098 111.002 43.8146C110.688 43.9195 110.059 43.9195 109.011 43.9195Z" fill="#4D4D4D"/>
<path d="M148.109 44.1297C147.585 43.9201 146.851 43.6056 145.803 43.396C144.755 43.1864 144.126 42.8719 143.811 42.6622C143.602 42.4526 143.497 42.243 143.497 42.0333C143.497 41.7188 143.602 41.5092 143.811 41.4044C144.126 41.1947 144.65 40.9851 145.279 40.9851C145.908 40.9851 146.327 41.0899 146.641 41.2996C146.956 41.5092 147.166 41.9285 147.27 42.4526L149.367 42.3478C149.367 41.4044 148.948 40.5658 148.319 40.0417C147.69 39.4128 146.641 39.2031 145.384 39.2031C144.545 39.2031 143.916 39.3079 143.287 39.5176C142.763 39.7272 142.239 40.1465 142.029 40.5658C141.715 40.9851 141.61 41.5092 141.61 42.0333C141.61 42.8719 141.925 43.6056 142.553 44.1297C142.973 44.549 143.811 44.8635 144.964 45.178C145.803 45.3876 146.432 45.5973 146.641 45.5973C146.956 45.7021 147.27 45.9117 147.375 46.0165C147.48 46.2262 147.585 46.4358 147.585 46.6455C147.585 47.0648 147.375 47.3792 147.061 47.6937C146.746 48.0082 146.222 48.113 145.488 48.113C144.86 48.113 144.335 47.9033 143.916 47.5889C143.497 47.2744 143.287 46.7503 143.182 46.0165L141.086 46.2262C141.191 47.3792 141.61 48.3226 142.344 48.9515C143.078 49.5805 144.126 49.8949 145.384 49.8949C146.327 49.8949 147.061 49.7901 147.69 49.4757C148.319 49.266 148.738 48.8467 149.157 48.3226C149.472 47.7985 149.681 47.2744 149.681 46.6455C149.681 46.0165 149.576 45.3876 149.262 44.9683C148.948 44.7587 148.528 44.4442 148.109 44.1297Z" fill="#4D4D4D"/>
<path d="M166.556 39.5176H163.726L159.428 44.1297V39.5176H157.332V49.9998H159.428V46.7503L161.21 45.0731L164.041 49.9998H166.766L162.573 43.6056L166.556 39.5176Z" fill="#4D4D4D"/>
<path d="M175.782 39.5176H173.686V49.9998H175.782V39.5176Z" fill="#4D4D4D"/>
<path d="M190.037 46.4358L185.74 39.5176H183.748V49.9998H185.635V43.0815L189.932 49.9998H192.029V39.5176H190.037V46.4358Z" fill="#4D4D4D"/>
<path d="M196.432 32.5996H24V33.3334H196.432V32.5996Z" fill="#4D4D4D"/>
</svg>
