<svg width="140" height="140" viewBox="0 0 140 140" fill="none" xmlns="http://www.w3.org/2000/svg">
<path d="M69.8 139.4C107.797 139.4 138.6 108.597 138.6 70.5998C138.6 32.6026 107.797 1.7998 69.8 1.7998C31.8028 1.7998 1 32.6026 1 70.5998C1 108.597 31.8028 139.4 69.8 139.4Z" fill="#BB8A79"/>
<path d="M117.399 105.9C116.599 107.9 115.099 108.6 112.999 108.6C84.1992 108.6 55.2992 108.6 26.4992 108.6C23.7992 108.6 22.4992 107.2 22.4992 104.5C22.4992 101.8 22.2992 99.1002 22.6992 96.4002C23.3992 90.8002 27.6992 87.0002 33.2992 86.5002C33.3992 86.5002 33.4992 86.5002 33.6992 86.4002C33.6992 86.1002 33.6992 85.7002 33.6992 85.3002C33.6992 69.8002 33.6992 54.3002 33.6992 38.8002C33.6992 35.2002 35.0992 33.3002 38.4992 32.2002C39.9992 31.7002 41.4992 31.2002 42.9992 30.7002C43.6992 30.5002 43.9992 30.2002 43.8992 29.4002C43.7992 27.0002 43.8992 24.6002 43.8992 22.2002C43.8992 19.5002 45.6992 17.7002 48.3992 17.7002C50.7992 17.7002 52.6992 19.6002 52.7992 22.1002C52.7992 23.8002 52.7992 25.5002 52.7992 27.3002C53.1992 27.2002 53.5992 27.1002 53.8992 27.0002C61.1992 24.6002 68.3992 22.1002 75.5992 19.7002C76.4992 19.4002 77.1992 19.5002 77.8992 20.2002C82.0992 24.3002 86.2992 28.3002 90.4992 32.4002C91.6992 33.6002 92.3992 35.1002 92.3992 36.8002C92.3992 42.3002 92.3992 47.9002 92.3992 53.4002C92.3992 54.5002 91.8992 55.1002 90.9992 55.1002C90.0992 55.1002 89.5992 54.5002 89.5992 53.3002C89.5992 48.0002 89.5992 42.7002 89.5992 37.3002C89.5992 35.9002 89.1992 34.9002 88.1992 33.9002C84.9992 30.9002 81.8992 27.9002 78.7992 24.8002C78.5992 24.6002 78.3992 24.4002 78.0992 24.2002C78.0992 35.8002 78.0992 47.2002 78.0992 58.8002C78.4992 58.8002 78.8992 58.9002 79.1992 58.9002C86.6992 58.9002 94.1992 58.9002 101.599 58.9002C104.999 58.9002 106.699 60.6002 106.699 64.0002C106.699 71.0002 106.699 78.1002 106.699 85.1002C106.699 85.5002 106.699 85.8002 106.699 86.3002C107.299 86.3002 107.799 86.3002 108.399 86.3002C112.899 86.4002 116.399 89.3002 117.299 93.7002C117.299 93.8002 117.399 94.0002 117.499 94.1002C117.399 98.2002 117.399 102 117.399 105.9ZM74.9992 63.5002C74.5992 63.6002 74.3992 63.7002 74.1992 63.7002C65.6992 66.5002 57.1992 69.4002 48.7992 72.3002C47.7992 72.6002 46.7992 73.0002 45.7992 73.3002C44.8992 73.6002 44.0992 73.2002 43.7992 72.4002C43.5992 71.6002 43.9992 71.0002 44.8992 70.6002C45.0992 70.5002 45.3992 70.4002 45.5992 70.4002C55.1992 67.2002 64.7992 64.0002 74.3992 60.7002C74.8992 60.5002 75.0992 60.3002 75.0992 59.7002C75.0992 57.9002 75.0992 56.1002 75.0992 54.2002C75.0992 53.9002 75.0992 53.7002 74.9992 53.4002C74.5992 53.5002 74.2992 53.6002 73.9992 53.7002C64.7992 56.8002 55.5992 59.9002 46.3992 63.0002C46.0992 63.1002 45.7992 63.2002 45.3992 63.3002C44.5992 63.4002 43.9992 63.1002 43.7992 62.3002C43.5992 61.6002 43.8992 61.0002 44.5992 60.7002C44.7992 60.6002 45.0992 60.5002 45.2992 60.4002C54.5992 57.3002 63.7992 54.2002 73.0992 51.0002C75.0992 50.3002 75.0992 50.3002 75.0992 48.3002C75.0992 46.7002 75.0992 45.1002 75.0992 43.3002C74.6992 43.4002 74.3992 43.5002 74.0992 43.6002C64.6992 46.7002 55.3992 49.9002 45.9992 53.0002C44.8992 53.4002 44.0992 53.1002 43.8992 52.2002C43.5992 51.4002 44.0992 50.7002 45.0992 50.4002C46.7992 49.8002 48.4992 49.3002 50.1992 48.7002C58.1992 46.0002 66.2992 43.3002 74.2992 40.6002C74.8992 40.4002 75.0992 40.1002 75.0992 39.5002C75.0992 37.8002 75.0992 36.2002 75.0992 34.5002C75.0992 34.1002 75.0992 33.7002 75.0992 33.3002C74.7992 33.4002 74.6992 33.4002 74.6992 33.4002C67.1992 35.9002 59.5992 38.5002 52.0992 41.0002C49.9992 41.7002 47.9992 42.4002 45.8992 43.1002C44.9992 43.4002 44.2992 43.0002 43.9992 42.3002C43.6992 41.5002 44.0992 40.8002 44.9992 40.5002C45.0992 40.5002 45.1992 40.4002 45.3992 40.4002C54.3992 37.4002 63.4992 34.3002 72.4992 31.3002C73.3992 31.0002 74.5992 30.9002 75.0992 30.2002C75.5992 29.6002 75.1992 28.4002 75.2992 27.5002C75.2992 26.0002 75.2992 24.4002 75.2992 22.8002C74.7992 22.9002 74.4992 23.0002 74.1992 23.1002C62.1992 27.2002 50.5992 31.1002 38.9992 35.0002C36.9992 35.7002 36.3992 36.6002 36.3992 38.7002C36.3992 60.7002 36.3992 82.7002 36.3992 104.7C36.3992 105 36.3992 105.3 36.3992 105.6C38.8992 105.6 41.2992 105.6 43.6992 105.6C43.6992 102.3 43.6992 99.0002 43.6992 95.7002C43.6992 93.5002 44.4992 92.4002 46.5992 91.8002C50.5992 90.7002 54.6992 89.5002 58.6992 88.4002C61.1992 87.7002 62.8992 89.0002 62.8992 91.6002C62.8992 94.8002 62.8992 98.0002 62.8992 101.2C62.8992 102.6 62.8992 104.1 62.8992 105.6C66.8992 105.6 70.8992 105.6 74.7992 105.6C74.7992 94.9002 74.7992 84.2002 74.7992 73.4002C72.1992 74.3002 69.6992 75.1002 67.1992 76.0002C63.7992 77.1002 60.3992 78.3002 56.8992 79.4002C55.9992 79.7002 55.2992 79.3002 54.9992 78.6002C54.6992 77.8002 55.0992 77.2002 55.9992 76.8002C56.1992 76.7002 56.3992 76.7002 56.4992 76.6002C62.2992 74.6002 68.1992 72.7002 73.9992 70.7002C74.2992 70.6002 74.6992 70.2002 74.6992 70.0002C74.9992 67.9002 74.9992 65.8002 74.9992 63.5002ZM98.1992 97.1002C98.1992 96.9002 98.2992 96.9002 98.2992 96.8002C98.2992 96.7002 98.2992 96.6002 98.2992 96.4002C98.1992 92.4002 99.7992 89.4002 103.399 87.4002C103.599 87.3002 103.799 86.8002 103.799 86.4002C103.799 79.0002 103.799 71.5002 103.799 64.1002C103.799 62.3002 103.299 61.8002 101.499 61.8002C93.9992 61.8002 86.3992 61.8002 78.8992 61.8002C78.5992 61.8002 78.1992 61.8002 77.8992 61.8002C77.8992 73.6002 77.8992 85.3002 77.8992 97.0002C84.5992 97.1002 91.3992 97.1002 98.1992 97.1002ZM77.7992 105.7C84.5992 105.7 91.3992 105.7 98.1992 105.7C98.1992 103.7 98.1992 101.8 98.1992 100C91.3992 100 84.5992 100 77.7992 100C77.7992 101.9 77.7992 103.8 77.7992 105.7ZM114.499 97.1002C114.799 94.1002 113.999 91.6002 111.299 90.2002C108.799 88.8002 106.199 88.9002 103.799 90.6002C101.499 92.2002 100.899 94.5002 101.199 97.1002C105.599 97.1002 109.999 97.1002 114.499 97.1002ZM101.099 105.8C101.799 105.8 102.499 105.8 103.199 105.8C106.599 105.8 109.999 105.8 113.399 105.8C113.899 105.8 114.599 105.8 114.599 105.1C114.699 103.4 114.599 101.7 114.599 100C109.999 100 105.599 100 101.099 100C101.099 101.9 101.099 103.8 101.099 105.8ZM54.6992 92.5002C54.6992 96.9002 54.6992 101.3 54.6992 105.7C56.4992 105.7 58.2992 105.7 60.0992 105.7C60.0992 100.8 60.0992 96.0002 60.0992 91.1002C58.1992 91.6002 56.4992 92.1002 54.6992 92.5002ZM51.8992 105.7C51.8992 101.5 51.8992 97.5002 51.8992 93.3002C50.3992 93.7002 48.8992 94.1002 47.4992 94.5002C46.7992 94.7002 46.4992 95.0002 46.4992 95.8002C46.4992 98.9002 46.4992 102 46.4992 105.1C46.4992 105.3 46.4992 105.5 46.5992 105.7C48.2992 105.7 49.9992 105.7 51.8992 105.7ZM33.4992 100C30.6992 100 27.9992 100 25.0992 100C25.0992 101.6 25.0992 103.1 25.0992 104.6C25.0992 105.5 25.3992 105.8 26.2992 105.7C28.4992 105.7 30.5992 105.7 32.7992 105.7C32.9992 105.7 33.2992 105.6 33.4992 105.6C33.4992 103.8 33.4992 101.9 33.4992 100ZM25.2992 97.1002C28.0992 97.1002 30.7992 97.1002 33.5992 97.1002C33.5992 95.8002 33.5992 94.5002 33.5992 93.3002C33.5992 92.0002 33.5992 90.7002 33.5992 89.5002C29.3992 89.3002 25.4992 93.0002 25.2992 97.1002ZM46.4992 29.6002C47.5992 29.2002 48.7992 29.0002 49.5992 28.4002C49.9992 28.0002 49.6992 26.8002 49.7992 26.0002C49.7992 25.6002 49.7992 25.1002 49.7992 24.7002C49.7992 23.8002 49.7992 23.0002 49.7992 22.1002C49.6992 21.2002 48.9992 20.6002 48.0992 20.6002C47.1992 20.6002 46.5992 21.2002 46.5992 22.0002C46.4992 24.5002 46.4992 27.0002 46.4992 29.6002Z" fill="white"/>
<path d="M49.9995 78.9004C50.8995 79.0004 51.4995 79.3004 51.4995 80.0004C51.4995 80.5004 51.1995 81.3004 50.8995 81.5004C48.9995 82.2004 47.0995 82.9004 45.1995 83.4004C44.4995 83.6004 43.8995 83.2004 43.7995 82.6004C43.6995 82.1004 43.8995 81.2004 44.1995 81.1004C46.1995 80.2004 48.1995 79.6004 49.9995 78.9004Z" fill="white"/>
<path d="M90.7 83.8998C88.5 83.8998 86.4 83.8998 84.2 83.8998C82.4 83.8998 81.5 82.9998 81.5 81.1998C81.5 80.1998 81.5 79.1998 81.5 78.1998C81.5 76.7998 82.4 75.7998 83.8 75.7998C88.4 75.7998 92.9 75.7998 97.5 75.7998C98.7 75.7998 99.6 76.5998 99.7 77.8998C99.8 79.1998 99.8 80.4998 99.7 81.7998C99.6 83.0998 98.7 83.7998 97.3 83.8998C95.2 83.8998 92.9 83.7998 90.7 83.8998C90.7 83.8998 90.7 83.7998 90.7 83.8998ZM83.8 77.5998C83.8 79.1998 83.8 80.6998 83.8 82.0998C88.4 82.0998 92.9 82.0998 97.5 82.0998C97.5 80.4998 97.5 79.0998 97.5 77.5998C92.9 77.5998 88.4 77.5998 83.8 77.5998Z" fill="white"/>
<path d="M90.7 73.3002C88.5 73.3002 86.4 73.3002 84.2 73.3002C82.4 73.3002 81.6 72.4002 81.5 70.6002C81.5 69.6002 81.5 68.6002 81.5 67.6002C81.5 66.2002 82.5 65.2002 83.8 65.2002C88.3 65.2002 92.9 65.2002 97.4 65.2002C98.7 65.2002 99.6 66.1002 99.7 67.4002C99.8 68.6002 99.8 69.8002 99.7 71.0002C99.6 72.4002 98.7 73.2002 97.2 73.2002C95.1 73.3002 92.9 73.3002 90.7 73.3002ZM83.8 66.9002C83.8 68.6002 83.8 70.0002 83.8 71.5002C88.4 71.5002 92.9 71.5002 97.5 71.5002C97.5 69.9002 97.5 68.4002 97.5 66.9002C92.9 66.9002 88.4 66.9002 83.8 66.9002Z" fill="white"/>
<path d="M86.0977 94.5C85.3977 94.5 84.6977 94.5 83.9977 94.5C82.5977 94.5 81.5977 93.6 81.5977 92.1C81.5977 91 81.5977 89.9 81.5977 88.8C81.5977 87.5 82.4977 86.5 83.8977 86.5C85.3977 86.5 86.8977 86.5 88.3977 86.5C89.7977 86.5 90.6977 87.4 90.6977 88.8C90.6977 89.9 90.7977 91.1 90.6977 92.2C90.5977 93.6 89.6977 94.5 88.2977 94.5C87.5977 94.6 86.7977 94.6 86.0977 94.5C86.0977 94.5 86.0977 94.6 86.0977 94.5ZM88.4977 92.2C88.4977 91.1 88.4977 90 88.4977 88.9C86.7977 88.9 85.2977 88.9 83.5977 88.9C83.5977 90 83.5977 91.1 83.5977 92.2C85.2977 92.2 86.8977 92.2 88.4977 92.2Z" fill="white"/>
<path d="M70 139.9C31.4 139.9 0 108.5 0 69.9C0 31.3 31.4 0 70 0C108.6 0 140 31.4 140 70C140 108.6 108.5 139.9 70 139.9ZM70 2C32.5 2 2 32.5 2 70C2 107.5 32.5 138 70 138C107.5 138 138 107.5 138 70C138 32.5 107.4 2 70 2Z" fill="url(#paint0_linear)"/>
<defs>
<linearGradient id="paint0_linear" x1="0" y1="69.958" x2="139.916" y2="69.958" gradientUnits="userSpaceOnUse">
<stop stop-color="white"/>
<stop offset="0.5101" stop-color="#B43E3E"/>
<stop offset="1" stop-color="#8F4C40"/>
</linearGradient>
</defs>
</svg>
