<svg width="189" height="182" viewBox="0 0 189 182" fill="none" xmlns="http://www.w3.org/2000/svg">
<path d="M119.979 181.056C156.982 181.056 186.979 151.059 186.979 114.056C186.979 77.0526 156.982 47.0557 119.979 47.0557C82.9754 47.0557 52.9785 77.0526 52.9785 114.056C52.9785 151.059 82.9754 181.056 119.979 181.056Z" fill="#FAECE8"/>
<path d="M120.168 181.836C82.6882 181.836 52.1982 151.346 52.1982 113.866C52.1982 76.3865 82.6882 45.8965 120.168 45.8965C157.648 45.8965 188.138 76.3865 188.138 113.866C188.138 151.346 157.648 181.836 120.168 181.836ZM120.168 47.4465C83.5482 47.4465 53.7482 77.2365 53.7482 113.856C53.7482 150.476 83.5382 180.266 120.168 180.266C156.798 180.266 186.588 150.476 186.588 113.856C186.588 77.2465 156.788 47.4465 120.168 47.4465Z" fill="url(#paint0_linear)"/>
<path d="M99.8777 120.977C100.718 121.327 100.908 121.687 100.908 122.307C100.908 123.587 99.7977 124.187 95.2277 124.187H92.4577C89.6877 124.187 89.0877 123.647 89.0877 121.497V114.157H89.0577C87.5077 119.457 83.8977 123.067 75.6077 124.837L75.4677 124.487C81.6677 122.037 84.5477 118.647 85.7377 114.157H82.2877V114.917C82.2877 115.157 81.3377 116.007 79.7077 116.007H79.1377V108.477C77.9177 109.377 76.6377 110.157 75.3577 110.757L75.1377 110.537C78.3677 107.927 81.6077 103.177 83.0977 99.0967L87.1977 100.727C87.0577 101.027 86.8177 101.107 86.0877 100.967C85.8177 101.397 85.5677 101.837 85.2477 102.267H90.4377L92.1277 100.607L95.0377 103.137C94.7977 103.357 94.4977 103.407 93.9277 103.467C92.5977 104.577 90.7477 105.997 88.9277 106.947H93.8977L95.3677 105.347L98.4677 107.687C98.3077 107.907 97.9477 108.147 97.3777 108.257V114.537C97.3477 114.757 95.7977 115.407 94.7177 115.407H94.1777V114.157H92.2477V114.397V120.727C92.2477 121.137 92.3577 121.247 93.1677 121.247H95.5577C96.4277 121.247 97.1877 121.247 97.5677 121.217C97.9477 121.187 98.0877 121.107 98.2477 120.837C98.5177 120.377 98.9577 119.067 99.4977 117.417H99.7977L99.8777 120.977ZM84.6277 103.067C83.7577 104.237 82.6677 105.407 81.4777 106.517L82.6777 106.957H88.1177C88.9077 105.867 89.8277 104.267 90.3977 103.067H84.6277ZM85.9377 113.397C86.3477 111.657 86.5077 109.807 86.5577 107.747H82.2877V113.397H85.9377ZM90.0077 107.737C89.8977 109.807 89.6577 111.647 89.2477 113.387H94.1677V107.737H90.0077Z" fill="#93594C"/>
<path d="M131.718 120.817C132.938 121.167 133.318 121.527 133.318 122.147C133.318 123.827 131.658 124.297 123.398 124.297H117.828C113.778 124.297 112.228 123.887 112.228 121.037V108.557C110.978 109.777 109.618 110.837 108.178 111.707L107.878 111.467C110.298 108.617 112.768 103.997 114.048 99.1865L118.368 100.767C118.228 101.117 117.848 101.337 117.278 101.287C116.848 102.187 116.378 103.027 115.918 103.837H127.418L129.108 102.157L132.018 104.627C131.798 104.867 131.448 105.067 130.878 105.147C130.638 113.597 130.148 116.727 128.678 117.997C127.808 118.787 126.668 119.107 125.258 119.107C125.258 118.097 125.208 117.367 124.878 116.907C124.528 116.447 123.898 116.087 122.948 115.877L122.978 115.527C122.438 115.767 121.588 116.017 120.968 116.017H120.428V114.387H115.388V120.307C115.388 121.147 115.828 121.367 117.728 121.367H123.648C125.738 121.367 127.538 121.337 128.378 121.257C129.058 121.207 129.388 121.067 129.658 120.717C130.118 120.097 130.608 118.927 131.368 116.617H131.638L131.718 120.817ZM115.438 104.587C114.868 105.487 114.238 106.297 113.588 107.057L115.658 107.847H120.168L121.608 106.267L124.648 108.607C124.458 108.827 124.078 109.037 123.558 109.177V115.127C123.558 115.207 123.318 115.367 122.958 115.507C123.688 115.557 124.918 115.617 125.428 115.617C125.838 115.617 126.078 115.537 126.328 115.347C127.088 114.667 127.468 111.347 127.688 104.587H115.438V104.587ZM120.408 113.587V108.637H115.388V113.587H120.408Z" fill="#93594C"/>
<path d="M166.088 105.977C165.868 106.217 165.598 106.277 165.028 106.307C164.018 107.037 162.448 107.967 161.118 108.567L161.828 109.087C161.688 109.277 161.338 109.527 160.848 109.607V114.387C160.818 114.577 159.268 115.117 158.298 115.117H157.758V114.087H154.848V117.867H158.598L160.258 115.667C160.258 115.667 162.158 117.157 163.278 118.197C163.198 118.497 162.928 118.627 162.548 118.627H154.858V123.007H161.058L162.748 120.747C162.748 120.747 164.648 122.297 165.788 123.357C165.708 123.657 165.438 123.787 165.058 123.787H141.498L141.278 122.997H151.718V118.617H144.108L143.888 117.857H151.718V114.077H148.868V114.647C148.868 114.917 147.508 115.567 146.288 115.567H145.858V107.117L149.038 108.367H157.518L158.908 106.877L160.728 108.237C160.998 107.477 161.298 106.447 161.518 105.627H144.858C145.098 107.557 144.368 108.917 143.368 109.427C142.448 109.917 141.218 109.617 140.898 108.557C140.628 107.527 141.278 106.787 142.178 106.407C143.078 105.887 143.918 104.587 143.698 103.087L144.078 103.057C144.378 103.707 144.598 104.307 144.728 104.877H151.658V99.2266L155.868 99.5765C155.818 99.9065 155.628 100.147 154.948 100.287V104.877H156.548C157.198 103.357 157.908 101.237 158.288 99.7365L162.798 100.957C162.658 101.287 162.338 101.497 161.738 101.477C160.628 102.457 158.858 103.837 157.228 104.877H161.418L163.158 103.137L166.088 105.977ZM145.078 99.8365C152.308 100.947 149.728 106.337 146.958 104.317C146.768 102.767 145.758 101.087 144.838 99.9966L145.078 99.8365ZM157.748 113.287V109.157H148.838V113.287H157.748Z" fill="#93594C"/>
<path opacity="0.57" d="M38.7984 31.8863C59.7284 19.2263 89.5584 25.8763 105.438 46.7363C121.328 67.6063 117.238 94.7763 96.3184 107.436C75.3884 120.096 45.5584 113.446 29.6684 92.5863C13.8084 71.7163 17.8884 44.5463 38.7984 31.8863Z" fill="url(#paint1_radial)"/>
<path opacity="0.88" d="M51.3279 63.036C52.9479 60.766 62.1079 63.056 71.7779 68.146C81.4579 73.226 87.9879 79.186 86.3679 81.466C84.7579 83.726 75.5879 81.446 65.9079 76.356C56.2479 71.276 49.7179 65.306 51.3279 63.036Z" fill="url(#paint2_radial)"/>
<path opacity="0.57" d="M0.00816582 36.4157C0.588166 35.5957 31.9282 51.1558 69.9982 71.1758C108.068 91.1858 138.458 108.076 137.878 108.886C137.298 109.706 105.958 94.1458 67.8882 74.1258C29.8182 54.1258 -0.571834 37.2457 0.00816582 36.4157Z" fill="url(#paint3_radial)"/>
<path opacity="0.88" d="M84.4277 55.1963C88.1477 57.5363 84.1077 67.8563 75.3877 78.2463C66.6677 88.6263 56.5877 95.1663 52.8577 92.8263C49.1277 90.4963 53.1877 80.1763 61.8977 69.7863C70.6277 59.3763 80.6977 52.8563 84.4277 55.1963Z" fill="url(#paint4_radial)"/>
<path opacity="0.57" d="M130.068 0.0159469C131.398 0.855947 104.688 34.6759 70.4082 75.5459C36.1082 116.436 7.21815 148.896 5.88815 148.036C4.54815 147.196 31.2482 113.376 65.5482 72.506C99.8282 31.626 128.718 -0.824053 130.068 0.0159469Z" fill="url(#paint5_radial)"/>
<defs>
<linearGradient id="paint0_linear" x1="52.1979" y1="113.863" x2="188.141" y2="113.863" gradientUnits="userSpaceOnUse">
<stop stop-color="white"/>
<stop offset="0.5101" stop-color="#B43E3E"/>
<stop offset="1" stop-color="#8F4C40"/>
</linearGradient>
<radialGradient id="paint1_radial" cx="0" cy="0" r="1" gradientUnits="userSpaceOnUse" gradientTransform="translate(67.5609 69.6638) rotate(-127.263) scale(47.4724 44.032)">
<stop stop-color="white"/>
<stop offset="1" stop-color="white" stop-opacity="0"/>
</radialGradient>
<radialGradient id="paint2_radial" cx="0" cy="0" r="1" gradientUnits="userSpaceOnUse" gradientTransform="translate(68.8484 72.2494) rotate(-141.22) scale(13.7723 12.9435)">
<stop stop-color="white"/>
<stop offset="1" stop-color="white" stop-opacity="0"/>
</radialGradient>
<radialGradient id="paint3_radial" cx="0" cy="0" r="1" gradientUnits="userSpaceOnUse" gradientTransform="translate(68.9399 72.6528) rotate(-143.346) scale(51.9356 47.8777)">
<stop stop-color="white"/>
<stop offset="1" stop-color="white" stop-opacity="0"/>
</radialGradient>
<radialGradient id="paint4_radial" cx="0" cy="0" r="1" gradientUnits="userSpaceOnUse" gradientTransform="translate(68.6405 74.012) rotate(-122.177) scale(19.4845 16.905)">
<stop stop-color="white"/>
<stop offset="1" stop-color="white" stop-opacity="0"/>
</radialGradient>
<radialGradient id="paint5_radial" cx="0" cy="0" r="1" gradientUnits="userSpaceOnUse" gradientTransform="translate(67.9749 74.0306) rotate(-120.684) scale(73.5901 62.163)">
<stop stop-color="white"/>
<stop offset="1" stop-color="white" stop-opacity="0"/>
</radialGradient>
</defs>
</svg>
