<svg width="141" height="141" viewBox="0 0 141 141" fill="none" xmlns="http://www.w3.org/2000/svg">
<path d="M70.1984 140.4C108.196 140.4 138.998 109.597 138.998 71.5998C138.998 33.6026 108.196 2.7998 70.1984 2.7998C32.2012 2.7998 1.39844 33.6026 1.39844 71.5998C1.39844 109.597 32.2012 140.4 70.1984 140.4Z" fill="#B67C72"/>
<path d="M23.3984 114.1C22.6984 113.5 22.4984 112.8 22.5984 111.9C23.4984 105.1 24.1983 98.2999 25.1983 91.5999C26.3983 83.3999 27.6983 75.1999 29.1983 66.9999C30.7983 58.5999 32.7984 50.2999 36.3984 42.4999C38.1984 38.4999 40.3984 34.5999 43.7984 31.6999C45.0984 30.5999 45.9984 29.3999 46.7984 27.8999C48.2984 24.7999 50.5984 22.0999 53.9984 21.0999C55.9984 20.4999 58.0984 20.3999 60.0984 20.0999C60.6984 19.9999 61.1983 19.8999 61.6983 19.3999C67.2983 12.9999 77.0983 12.9999 82.6983 19.4999C83.0983 19.9999 83.4984 20.0999 84.0984 20.0999C85.6984 20.1999 87.2984 20.2999 88.7984 20.5999C93.2984 21.5999 95.9984 24.6999 97.8984 28.5999C98.3984 29.5999 98.9984 30.3999 99.8984 31.1999C103.598 34.1999 105.998 38.1999 107.898 42.4999C110.998 49.3999 112.898 56.7999 114.498 64.1999C116.998 75.9999 118.698 87.8999 120.198 99.7999C120.698 103.9 121.198 108 121.698 112C121.798 112.9 121.598 113.6 120.898 114.2C120.498 114.2 120.098 114.2 119.698 114.2C118.998 113.7 118.798 112.9 118.698 112.1C118.598 110.8 118.398 109.6 118.298 108.3C116.998 98.5999 115.698 88.8999 114.298 79.1999C112.998 70.5999 111.298 61.9999 108.898 53.5999C107.298 48.0999 105.398 42.7999 102.198 37.9999C101.798 37.3999 101.398 36.7999 100.898 36.1999C100.798 36.4999 100.798 36.7999 100.898 36.9999C101.798 41.9999 102.898 46.9999 103.698 52.0999C104.698 58.6999 105.398 65.3999 106.198 72.0999C106.398 73.8999 106.598 75.5999 106.698 77.3999C106.798 78.2999 106.298 78.9999 105.498 79.0999C104.698 79.1999 104.098 78.6999 103.898 77.7999C103.898 77.5999 103.798 77.3999 103.798 77.0999C102.698 68.2999 101.798 59.4999 100.598 50.7999C99.8984 45.1999 98.6983 39.5999 97.1983 34.1999C96.6983 32.3999 95.6984 31.4999 93.9984 30.8999C91.6984 30.0999 89.3984 29.8999 86.7984 30.1999C92.2984 35.3999 94.0984 41.7999 93.5984 48.9999C96.5984 48.8999 98.3984 50.2999 98.4984 52.6999C98.5984 54.2999 98.5984 55.8999 98.4984 57.4999C98.3984 59.9999 97.0984 61.4999 94.7984 62.1999C94.5984 62.2999 94.2984 62.3999 93.8984 62.4999C94.7984 63.2999 95.5984 63.8999 96.3984 64.5999C99.6984 67.2999 99.6984 71.5999 96.3984 74.2999C95.9984 74.5999 95.5983 74.8999 95.1983 75.2999C94.2983 75.9999 93.7984 76.7999 93.7984 77.8999C93.7984 78.7999 93.0984 79.3999 92.2984 79.3999C91.4984 79.3999 90.8984 78.6999 90.8984 77.7999C90.8984 76.0999 91.4984 74.6999 92.7984 73.5999C93.4984 72.9999 94.1984 72.4999 94.8984 71.8999C96.1984 70.7999 96.3984 68.7999 95.2984 67.4999C94.4984 66.6999 93.5984 66.0999 92.7984 65.2999C92.6984 65.4999 92.5984 65.4999 92.5984 65.5999C90.8984 70.7999 87.9984 75.0999 83.5984 78.2999C83.3984 78.4999 83.1983 78.8999 83.1983 79.1999C83.1983 83.6999 84.7984 85.9999 88.8984 87.6999C89.2984 87.8999 89.6984 87.9999 90.0984 88.0999C93.6984 89.2999 97.2984 90.3999 100.598 92.3999C104.198 94.4999 106.698 97.4999 107.998 101.6C109.098 105 109.298 108.5 109.398 112C109.398 112.9 109.298 113.7 108.498 114.2C108.098 114.2 107.698 114.2 107.298 114.2C106.598 113.7 106.398 112.9 106.398 112.1C106.198 109.6 106.098 107.2 105.798 104.8C105.098 99.9999 102.398 96.3999 97.9984 94.3999C95.2984 93.1999 92.4983 92.1999 89.6983 91.0999C88.4983 90.5999 87.2983 90.1999 86.1983 89.6999C82.7983 88.0999 80.9984 85.2999 80.4984 81.4999C80.4984 81.0999 80.3984 80.7999 80.2984 80.3999C72.6984 82.5999 71.6983 82.5999 64.6983 80.3999C64.5983 81.0999 64.4984 81.7999 64.2984 82.4999C63.6984 85.7999 61.9984 88.1999 58.9984 89.5999C57.2984 90.3999 55.5984 90.9999 53.8984 91.5999C51.8984 92.3999 49.9984 93.0999 47.9984 93.8999C46.7984 94.3999 45.5984 93.7999 45.7984 92.5999C45.8984 92.0999 46.3984 91.3999 46.8984 91.1999C49.3984 90.1999 51.8984 89.2999 54.2984 88.3999C55.6984 87.8999 56.9984 87.3999 58.2984 86.6999C61.2984 84.9999 61.6983 81.8999 61.6983 78.9999C61.6983 78.7999 61.4984 78.5999 61.2984 78.4999C56.7984 75.2999 53.9983 70.8999 52.1983 65.6999C52.1983 65.6999 52.1984 65.6999 51.9984 65.4999C51.0984 66.2999 50.0984 66.8999 49.3984 67.7999C48.3984 68.9999 48.5984 70.8999 49.7984 71.9999C50.4984 72.5999 51.1984 73.0999 51.8984 73.6999C53.1984 74.7999 53.7984 76.1999 53.7984 77.8999C53.7984 78.8999 53.1984 79.4999 52.3984 79.4999C51.5984 79.4999 50.9984 78.8999 50.8984 77.9999C50.8984 76.7999 50.2984 75.9999 49.3984 75.2999C48.9984 74.9999 48.5983 74.6999 48.1983 74.2999C44.9983 71.6999 44.9983 67.3999 48.1983 64.6999C48.9983 63.9999 49.7984 63.3999 50.7984 62.5999C50.2984 62.3999 50.0984 62.2999 49.8984 62.2999C47.4984 61.5999 46.2984 60.0999 46.0984 57.6999C45.9984 56.0999 45.9984 54.3999 46.0984 52.6999C46.1984 50.5999 47.8984 48.9999 50.0984 48.9999C50.3984 48.9999 50.5984 48.9999 50.8984 48.9999C50.9984 46.9999 50.9983 44.9999 51.1983 43.0999C51.3983 41.5999 51.7983 40.1999 52.1983 38.7999C52.4983 37.7999 53.1984 37.4999 54.0984 37.6999C54.8984 37.9999 55.3984 38.6999 54.9984 39.5999C53.5984 43.3999 53.8984 47.2999 53.8984 51.2999C54.4984 50.8999 54.9984 50.4999 55.5984 50.2999C57.9984 49.2999 60.3984 48.2999 62.8984 47.2999C66.1984 45.9999 69.4984 44.7999 72.5984 43.1999C75.5984 41.6999 77.6984 39.2999 78.2984 35.8999C78.3984 35.1999 78.4984 34.3999 78.4984 33.6999C78.5984 32.8999 78.9984 32.3999 79.8984 32.2999C80.6984 32.1999 81.3984 32.6999 81.3984 33.5999C81.4984 36.6999 83.1984 38.6999 85.3984 40.4999C87.2984 42.0999 89.3984 43.5999 90.7984 45.7999C90.8984 43.1999 90.2984 40.6999 89.2984 38.3999C83.7984 26.1999 67.4984 23.6999 58.5984 33.6999C58.3984 33.8999 58.2984 34.0999 58.0984 34.2999C57.4984 34.7999 56.7983 34.8999 56.1983 34.3999C55.5983 33.8999 55.4984 33.0999 55.9984 32.3999C56.4984 31.6999 57.0984 31.0999 57.7984 30.3999C54.3984 29.9999 51.3984 30.4999 48.5984 32.1999C48.2984 32.3999 48.0984 32.8999 47.9984 33.2999C46.2984 38.2999 45.1984 43.4999 44.4984 48.6999C42.9984 60.7999 41.5983 72.9999 40.1983 85.1999C39.9983 86.4999 39.8984 87.7999 39.7984 89.0999C39.6984 90.1999 39.0983 90.7999 38.1983 90.7999C37.2983 90.6999 36.7984 90.0999 36.8984 88.8999C37.3984 84.0999 37.7984 79.1999 38.2984 74.3999C38.9984 68.0999 39.6984 61.6999 40.5984 55.3999C41.4984 49.2999 42.6984 43.2999 43.7984 37.1999C43.7984 36.9999 43.7983 36.7999 43.6983 36.5999C43.2983 37.1999 42.8984 37.6999 42.4984 38.2999C39.2984 43.0999 37.2983 48.4999 35.6983 53.9999C33.1983 62.3999 31.5984 70.8999 30.2984 79.4999C28.7984 89.6999 27.3984 99.9999 25.9984 110.3C25.8984 111 25.7984 111.7 25.7984 112.4C25.6984 113.2 25.4984 114 24.7984 114.5C24.1984 114.1 23.7984 114.1 23.3984 114.1ZM79.9984 39.3999C78.8984 41.6999 77.0984 43.6999 74.7984 44.9999C72.4984 46.2999 70.0984 47.3999 67.7984 48.5999C68.6984 49.3999 68.9984 49.9999 68.4984 50.7999C67.9984 51.5999 67.3984 51.5999 66.0984 51.0999C65.3984 50.7999 64.5984 50.6999 63.7984 50.5999C61.0984 50.2999 58.8983 51.4999 56.6983 52.6999C54.5983 53.7999 53.5983 55.5999 53.6983 57.9999C53.8983 62.8999 55.2984 67.3999 58.2984 71.3999C65.2984 80.8999 77.3984 81.4999 85.0984 72.6999C89.7984 67.2999 91.3984 60.7999 90.3984 53.7999C89.7984 49.6999 87.9984 46.1999 84.5984 43.5999C82.8984 42.3999 81.5984 40.8999 79.9984 39.3999ZM50.1983 27.7999C50.3983 27.7999 50.4984 27.7999 50.5984 27.7999C53.7984 26.8999 56.9983 26.9999 60.1983 27.5999C60.5983 27.6999 61.0984 27.4999 61.3984 27.3999C68.5984 23.4999 75.6984 23.4999 82.8984 27.3999C83.2984 27.5999 83.7983 27.5999 84.1983 27.5999C86.1983 27.4999 88.0984 27.1999 90.0984 27.1999C91.3984 27.1999 92.6984 27.4999 93.9984 27.6999C93.1984 25.8999 91.0984 23.9999 88.7984 23.4999C86.8984 23.0999 84.7984 22.9999 82.7984 22.8999C81.9984 22.7999 81.4984 22.6999 80.9984 21.9999C76.3984 15.7999 67.6984 15.8999 63.0984 21.9999C62.7984 22.3999 62.0984 22.6999 61.4984 22.7999C60.4984 22.8999 59.5984 22.7999 58.5984 22.8999C55.0984 23.0999 52.1983 24.4999 50.1983 27.7999ZM50.7984 59.3999C50.7984 57.1999 50.7984 55.0999 50.7984 52.9999C50.7984 52.2999 50.4984 51.7999 49.7984 51.7999C49.0984 51.7999 48.7984 52.2999 48.7984 52.9999C48.7984 54.3999 48.7984 55.7999 48.7984 57.1999C48.8984 58.5999 49.3984 59.0999 50.7984 59.3999ZM93.5984 59.3999C94.8984 59.1999 95.4984 58.6999 95.4984 57.5999C95.5984 56.0999 95.5984 54.4999 95.4984 52.9999C95.4984 52.5999 94.8984 52.2999 94.5984 51.9999C94.2984 52.2999 93.6983 52.6999 93.6983 52.9999C93.5983 55.0999 93.5984 57.1999 93.5984 59.3999Z" fill="white"/>
<path d="M48.2989 114.099C47.5989 113.499 47.3988 112.799 47.3988 111.899C47.2988 108.299 48.0988 104.899 50.5988 102.199C54.2988 98.2994 58.7988 96.8994 63.8988 98.6994C66.4988 99.5994 68.8989 101.099 71.2989 102.399C71.9989 102.799 72.3988 102.799 72.9988 102.399C75.6988 100.599 78.5989 98.9994 81.7989 98.1994C88.9989 96.4994 96.2989 101.899 96.7989 109.299C96.8989 110.099 96.7988 110.999 96.8988 111.799C96.9988 112.699 96.7988 113.399 95.9988 113.999C95.5988 113.999 95.1989 113.999 94.7989 113.999C94.0989 113.399 93.8988 112.699 93.8988 111.799C93.8988 110.999 93.8989 110.099 93.7989 109.299C93.2989 105.499 91.1988 102.799 87.5988 101.399C83.7988 99.8994 80.4988 101.299 77.1988 103.099C78.3988 104.299 78.8988 105.699 78.6988 107.199C78.4988 108.499 77.7989 109.599 76.7989 110.499C75.3989 111.699 73.9988 112.799 72.5988 113.999C72.1988 113.999 71.7988 113.999 71.3988 113.999C70.1988 112.999 68.9989 112.099 67.7989 111.099C66.5989 110.099 65.5988 108.899 65.3988 107.299C65.1988 105.699 65.6988 104.399 66.9988 103.099C65.2988 102.399 63.7989 101.699 62.2989 101.299C58.3989 100.199 54.2988 101.699 51.8988 104.999C50.3988 107.099 49.9988 109.399 50.1988 111.899C50.1988 112.799 50.0989 113.499 49.2989 114.099C49.0989 114.099 48.6989 114.099 48.2989 114.099ZM76.0988 106.699C75.6988 106.199 75.4988 105.599 75.0988 105.399C74.6988 105.199 73.8988 105.399 73.5988 105.699C72.3988 106.599 71.9988 106.699 70.9988 105.699C70.4988 105.199 69.8988 104.999 69.1988 105.399C68.4988 105.799 68.3988 106.399 68.5988 107.099C68.6988 107.499 68.9989 107.999 69.2989 108.299C70.0989 109.099 70.9988 109.799 71.8988 110.499C72.0988 110.599 72.4988 110.599 72.5988 110.499C73.4988 109.799 74.2988 109.199 75.0988 108.399C75.4988 107.899 75.6988 107.299 76.0988 106.699Z" fill="white"/>
<path d="M36.1968 114.1C35.4968 113.5 35.2969 112.8 35.2969 111.9C35.3969 108.1 35.5969 104.3 36.8969 100.7C37.5969 98.6998 38.5968 96.8998 40.0968 95.3998C40.7968 94.6998 41.4968 94.6998 42.1968 95.1998C42.8968 95.7998 42.8969 96.5998 42.2969 97.2998C39.7969 99.9998 38.8968 103.3 38.4968 106.9C38.2968 108.6 38.2968 110.3 38.1968 111.9C38.1968 112.8 37.9969 113.5 37.2969 114C36.9969 114.1 36.5968 114.1 36.1968 114.1Z" fill="white"/>
<path d="M107.797 88.2001C107.897 89.7001 107.397 90.3001 106.497 90.4001C105.597 90.5001 104.997 89.9001 104.897 88.8001C104.797 87.5001 104.597 86.2001 104.497 84.8001C104.397 83.8001 104.897 83.1001 105.797 83.0001C106.697 82.9001 107.297 83.5001 107.397 84.5001C107.597 85.9001 107.697 87.2001 107.797 88.2001Z" fill="white"/>
<path d="M72.3979 73.8998C69.6979 73.8998 67.7978 72.8998 66.0978 71.1998C65.3978 70.3998 65.2979 69.5998 65.8979 68.9998C66.4979 68.3998 67.2978 68.3998 68.0978 69.0998C70.7978 71.5998 73.4978 71.5998 76.1978 69.0998C76.9978 68.3998 77.7979 68.2998 78.3979 68.8998C78.9979 69.4998 78.9979 70.3998 78.2979 71.0998C76.5979 72.9998 74.5979 73.9998 72.3979 73.8998Z" fill="white"/>
<path d="M86.9979 49.7998C86.9979 51.0998 85.9979 51.7998 84.9979 51.3998C82.4979 50.3998 80.0978 50.3998 77.6978 51.3998C76.9978 51.6998 76.2979 51.3998 75.8979 50.6998C75.4979 49.9998 75.7979 49.1998 76.4979 48.7998C79.6979 47.2998 82.8979 47.2998 86.0979 48.7998C86.4979 48.9998 86.7979 49.5998 86.9979 49.7998Z" fill="white"/>
<path d="M64.3993 60.2998C62.2993 60.2998 60.9993 59.7998 59.7993 58.6998C59.0993 58.0998 59.0992 57.1998 59.5992 56.5998C60.0992 55.9998 60.9992 55.8998 61.6992 56.4998C63.3992 57.6998 64.3992 57.6998 66.0992 56.4998C66.7992 55.9998 67.6992 55.9998 68.1992 56.6998C68.6992 57.2998 68.6992 58.0998 67.9992 58.7998C66.7992 59.7998 65.3993 60.2998 64.3993 60.2998Z" fill="white"/>
<path d="M80.1968 60.3003C78.9968 60.3003 77.6968 59.8003 76.5968 58.8003C75.8968 58.1003 75.7969 57.3003 76.2969 56.7003C76.7969 56.0003 77.6969 56.0003 78.4969 56.6003C79.9969 57.7003 81.1968 57.7003 82.6968 56.6003C83.4968 56.0003 84.2969 56.0003 84.8969 56.7003C85.3969 57.3003 85.2968 58.2003 84.5968 58.8003C83.3968 59.8003 81.9968 60.3003 80.1968 60.3003Z" fill="white"/>
<path d="M70.3008 140.9C31.7008 140.9 0.300781 109.5 0.300781 70.9004C0.300781 32.3004 31.7008 0.900391 70.3008 0.900391C108.901 0.900391 140.301 32.3004 140.301 70.9004C140.301 109.5 108.901 140.9 70.3008 140.9ZM70.3008 3.00039C32.8008 3.00039 2.30078 33.5004 2.30078 71.0004C2.30078 108.5 32.8008 139 70.3008 139C107.801 139 138.301 108.5 138.301 71.0004C138.301 33.5004 107.801 3.00039 70.3008 3.00039Z" fill="url(#paint0_linear)"/>
<defs>
<linearGradient id="paint0_linear" x1="0.334281" y1="70.9584" x2="140.25" y2="70.9584" gradientUnits="userSpaceOnUse">
<stop stop-color="white"/>
<stop offset="0.5101" stop-color="#B43E3E"/>
<stop offset="1" stop-color="#8F4C40"/>
</linearGradient>
</defs>
</svg>
