<svg width="192" height="182" viewBox="0 0 192 182" fill="none" xmlns="http://www.w3.org/2000/svg">
<path d="M124.589 181.056C161.592 181.056 191.589 151.059 191.589 114.056C191.589 77.0526 161.592 47.0557 124.589 47.0557C87.5858 47.0557 57.5889 77.0526 57.5889 114.056C57.5889 151.059 87.5858 181.056 124.589 181.056Z" fill="#FAECE8"/>
<path d="M123.849 181.836C86.3689 181.836 55.8789 151.346 55.8789 113.866C55.8789 76.3865 86.3689 45.8965 123.849 45.8965C161.329 45.8965 191.819 76.3865 191.819 113.866C191.819 151.346 161.329 181.836 123.849 181.836ZM123.849 47.4465C87.2289 47.4465 57.4289 77.2365 57.4289 113.856C57.4289 150.476 87.2189 180.266 123.849 180.266C160.479 180.266 190.269 150.476 190.269 113.856C190.269 77.2465 160.469 47.4465 123.849 47.4465Z" fill="url(#paint0_linear)"/>
<path d="M101.899 112.717C101.899 119.837 98.6685 122.797 95.1885 122.797C91.6585 122.797 88.4785 119.837 88.4785 112.717C88.4785 105.517 91.6585 102.557 95.1885 102.557C98.6685 102.547 101.899 105.517 101.899 112.717ZM95.1885 121.787C96.8785 121.787 98.4185 119.827 98.4185 112.707C98.4185 105.507 96.8685 103.517 95.1885 103.517C93.4485 103.517 91.9285 105.477 91.9285 112.707C91.9285 119.837 93.4485 121.787 95.1885 121.787Z" fill="#93594C"/>
<path d="M132.008 99.3662C132.008 99.3662 133.968 100.916 135.128 101.976C135.078 102.276 134.778 102.406 134.398 102.406H129.398C128.528 103.516 127.498 104.686 126.568 105.506H129.858L131.248 103.986L134.098 106.186C133.958 106.376 133.638 106.566 133.178 106.676V118.686C133.148 118.906 131.688 119.506 130.598 119.506H130.078V118.446H124.558V118.886C124.558 118.936 124.508 119.026 124.398 119.106L127.798 121.226C127.658 121.466 127.388 121.496 126.928 121.386C125.078 122.776 121.328 124.216 118.258 124.786L118.068 124.436C120.328 123.216 122.928 121.016 124.208 119.276C123.748 119.576 122.878 119.896 121.978 119.896H121.488V110.816C121.348 110.846 121.158 110.866 120.948 110.866C120.078 112.146 118.588 114.046 117.418 115.216L117.148 115.026C117.418 113.746 117.748 111.706 117.938 110.266H116.148V120.996C116.148 123.066 115.688 124.506 112.398 124.776C112.368 123.826 112.238 123.096 111.908 122.626C111.578 122.166 111.008 121.836 109.788 121.616V121.266C109.788 121.266 112.128 121.406 112.638 121.406C113.048 121.406 113.158 121.246 113.158 120.946V110.266H109.568L109.328 109.506H117.698L119.278 107.906L121.508 110.056V104.216L124.718 105.516H125.728C125.808 104.676 125.888 103.446 125.948 102.416H121.058L121.198 102.556C121.008 102.796 120.678 102.826 120.108 102.886C119.098 103.786 117.448 104.786 115.918 105.576C118.118 107.456 116.598 110.086 114.478 108.866C113.988 107.156 112.358 105.256 110.868 104.166L111.088 103.976C112.828 104.116 114.128 104.496 115.058 105.006C115.658 104.136 116.258 103.126 116.688 102.286H110.058L109.818 101.496H116.748L118.408 99.8662L120.258 101.636H130.288L132.008 99.3662ZM124.558 106.276V109.536H130.078V106.276H124.558ZM124.558 113.586H130.078V110.296H124.558V113.586V113.586ZM130.078 117.656V114.336H124.558V117.656H130.078ZM127.768 119.266C136.438 119.916 135.078 125.926 131.978 124.536C131.108 122.766 129.098 120.706 127.548 119.476L127.768 119.266Z" fill="#93594C"/>
<path d="M151.809 100.567C151.669 100.917 151.349 101.167 150.749 101.137C149.909 103.337 148.929 105.347 147.809 107.147L149.359 107.687C149.279 107.927 149.029 108.117 148.519 108.227V123.877C148.469 124.097 147.159 124.797 145.909 124.797H145.309V110.527C144.329 111.667 143.269 112.677 142.159 113.547L141.809 113.327C144.069 109.927 146.319 104.547 147.439 99.2266L151.809 100.567ZM165.099 104.127C165.099 104.127 166.919 105.757 167.929 106.817C167.879 107.117 167.579 107.247 167.199 107.247H163.259V120.667C163.259 123.007 162.689 124.337 158.499 124.717C158.359 123.607 158.149 122.837 157.599 122.327C156.979 121.807 156.189 121.427 154.369 121.127V120.747C154.369 120.747 158.389 120.987 159.179 120.987C159.749 120.987 159.909 120.827 159.909 120.417V107.237H149.959L149.739 106.477H159.899V99.6266L164.219 100.037C164.169 100.447 163.919 100.687 163.239 100.767V106.477H163.509L165.099 104.127ZM151.539 109.697C159.859 112.577 157.299 118.717 154.309 116.357C153.959 114.157 152.539 111.627 151.289 109.857L151.539 109.697Z" fill="#93594C"/>
<path opacity="0.57" d="M38.7988 31.8863C59.7288 19.2263 89.5588 25.8763 105.439 46.7363C121.329 67.6063 117.239 94.7763 96.3188 107.436C75.3888 120.096 45.5588 113.446 29.6688 92.5863C13.7988 71.7163 17.8788 44.5463 38.7988 31.8863Z" fill="url(#paint1_radial)"/>
<path opacity="0.88" d="M51.3284 63.036C52.9484 60.766 62.1084 63.056 71.7784 68.146C81.4584 73.226 87.9884 79.186 86.3684 81.466C84.7584 83.726 75.5884 81.446 65.9084 76.356C56.2484 71.276 49.7084 65.306 51.3284 63.036Z" fill="url(#paint2_radial)"/>
<path opacity="0.57" d="M0.00844743 36.4157C0.588447 35.5957 31.9285 51.1558 69.9985 71.1758C108.068 91.1858 138.458 108.076 137.878 108.886C137.298 109.706 105.958 94.1458 67.8885 74.1258C29.8084 54.1258 -0.581553 37.2457 0.00844743 36.4157Z" fill="url(#paint3_radial)"/>
<path opacity="0.88" d="M84.4287 55.1963C88.1487 57.5363 84.1087 67.8563 75.3887 78.2463C66.6687 88.6263 56.5887 95.1663 52.8587 92.8263C49.1287 90.4963 53.1887 80.1763 61.8987 69.7863C70.6187 59.3763 80.6987 52.8563 84.4287 55.1963Z" fill="url(#paint4_radial)"/>
<path opacity="0.57" d="M130.058 0.0159469C131.388 0.855947 104.678 34.6759 70.3984 75.5459C36.0984 116.436 7.20839 148.896 5.87839 148.036C4.53839 147.196 31.2384 113.376 65.5384 72.506C99.8184 31.626 128.708 -0.824053 130.058 0.0159469Z" fill="url(#paint5_radial)"/>
<defs>
<linearGradient id="paint0_linear" x1="55.8794" y1="113.863" x2="191.823" y2="113.863" gradientUnits="userSpaceOnUse">
<stop stop-color="white"/>
<stop offset="0.5101" stop-color="#B43E3E"/>
<stop offset="1" stop-color="#8F4C40"/>
</linearGradient>
<radialGradient id="paint1_radial" cx="0" cy="0" r="1" gradientUnits="userSpaceOnUse" gradientTransform="translate(67.5577 69.6638) rotate(-127.265) scale(47.4737 44.0342)">
<stop stop-color="white"/>
<stop offset="1" stop-color="white" stop-opacity="0"/>
</radialGradient>
<radialGradient id="paint2_radial" cx="0" cy="0" r="1" gradientUnits="userSpaceOnUse" gradientTransform="translate(68.8477 72.2494) rotate(-141.222) scale(13.7729 12.9438)">
<stop stop-color="white"/>
<stop offset="1" stop-color="white" stop-opacity="0"/>
</radialGradient>
<radialGradient id="paint3_radial" cx="0" cy="0" r="1" gradientUnits="userSpaceOnUse" gradientTransform="translate(68.94 72.6528) rotate(-143.346) scale(51.9357 47.8777)">
<stop stop-color="white"/>
<stop offset="1" stop-color="white" stop-opacity="0"/>
</radialGradient>
<radialGradient id="paint4_radial" cx="0" cy="0" r="1" gradientUnits="userSpaceOnUse" gradientTransform="translate(68.6415 74.012) rotate(-122.177) scale(19.4845 16.905)">
<stop stop-color="white"/>
<stop offset="1" stop-color="white" stop-opacity="0"/>
</radialGradient>
<radialGradient id="paint5_radial" cx="0" cy="0" r="1" gradientUnits="userSpaceOnUse" gradientTransform="translate(67.9651 74.0306) rotate(-120.684) scale(73.5901 62.163)">
<stop stop-color="white"/>
<stop offset="1" stop-color="white" stop-opacity="0"/>
</radialGradient>
</defs>
</svg>
