<svg width="201" height="121" viewBox="0 0 201 121" fill="none" xmlns="http://www.w3.org/2000/svg">
<path d="M109.337 0.218466C123.189 1.40118 136.682 7.47376 147.036 18.3865C169.672 42.2396 168.867 80.315 145.248 103.264C133.821 114.365 118.797 120.299 102.938 119.991C87.0791 119.682 72.3133 113.153 61.3632 101.614C38.7276 77.7607 39.5325 39.6853 63.1617 16.7367L63.6188 17.2138L63.1617 16.7367C75.96 4.29336 92.9019 -1.19284 109.337 0.218466ZM99.1023 118.46C100.374 118.569 101.666 118.639 102.958 118.659C118.469 118.967 133.165 113.153 144.334 102.3C167.436 79.8578 168.221 42.6272 146.082 19.3009C123.954 -4.02539 87.1486 -4.75092 64.046 17.6908C40.9435 40.1325 40.1585 77.3632 62.2873 100.689C72.1145 111.036 85.0619 117.257 99.1023 118.46Z" fill="url(#paint0_linear)"/>
<path d="M155.94 15.5543C156.209 15.5742 156.467 15.6636 156.686 15.8127L176.261 28.7927C176.847 29.1803 177.105 29.8959 176.916 30.5718C176.718 31.2476 176.112 31.7147 175.416 31.7247L154.688 32.1719C154.241 32.1818 153.794 32.0029 153.486 31.665C153.178 31.337 153.019 30.8898 153.059 30.4326L154.211 17.0053C154.261 16.4388 154.599 15.9419 155.106 15.7034C155.364 15.5742 155.652 15.5245 155.94 15.5543Z" fill="#A1806A"/>
<path opacity="0.52" d="M155.94 15.5543C156.209 15.5742 156.467 15.6636 156.686 15.8127L176.261 28.7927C176.847 29.1803 177.105 29.8959 176.916 30.5718C176.718 31.2476 176.112 31.7147 175.416 31.7247L154.688 32.1719C154.241 32.1818 153.794 32.0029 153.486 31.665C153.178 31.337 153.019 30.8898 153.059 30.4326L154.211 17.0053C154.261 16.4388 154.599 15.9419 155.106 15.7034C155.364 15.5742 155.652 15.5245 155.94 15.5543Z" fill="url(#paint1_linear)"/>
<path d="M154.917 18.4765L176.33 29.7272L170.02 73.9945C169.981 74.4516 170.14 74.8989 170.458 75.2368C170.776 75.5648 171.223 75.7536 171.68 75.7337L194.246 74.9188C194.782 74.8989 195.269 74.6206 195.548 74.1634C195.826 73.7062 195.866 73.1497 195.647 72.6627L182.779 44.2378L200.476 16.449C200.794 15.9521 200.814 15.3061 200.516 14.7992C200.248 14.342 199.781 14.0438 199.264 14.0041C199.204 13.9941 199.135 13.9941 199.065 13.9941L155.742 15.5545C155.046 15.5843 154.45 16.0515 154.261 16.7174C154.072 17.3833 154.341 18.0889 154.917 18.4765Z" fill="url(#paint2_linear)"/>
<path d="M25.1847 93.763L44.7598 106.743C45.2268 107.061 45.833 107.101 46.3397 106.852C46.8465 106.604 47.1942 106.107 47.2439 105.55L48.3966 92.1231C48.4363 91.6758 48.2774 91.2186 47.9693 90.8907C47.701 90.6024 47.3334 90.4235 46.9359 90.3937C46.8763 90.3937 46.8167 90.3838 46.767 90.3838L26.0393 90.831C25.3437 90.841 24.7276 91.318 24.5389 91.9839C24.3401 92.6598 24.5985 93.3754 25.1847 93.763Z" fill="#A1806A"/>
<path opacity="0.87" d="M25.1847 93.763L44.7598 106.743C45.2268 107.061 45.833 107.101 46.3397 106.852C46.8465 106.604 47.1942 106.107 47.2439 105.55L48.3966 92.1231C48.4363 91.6758 48.2774 91.2186 47.9693 90.8907C47.701 90.6024 47.3334 90.4235 46.9359 90.3937C46.8763 90.3937 46.8167 90.3838 46.767 90.3838L26.0393 90.831C25.3437 90.841 24.7276 91.318 24.5389 91.9839C24.3401 92.6598 24.5985 93.3754 25.1847 93.763Z" fill="url(#paint3_linear)"/>
<path d="M5.80815 49.8933L18.676 78.3182L0.978983 106.107C0.661012 106.614 0.641131 107.25 0.939228 107.767C1.23733 108.284 1.78383 108.592 2.38996 108.572L45.7135 107.011C46.409 106.982 47.0052 106.514 47.194 105.849C47.3828 105.183 47.1145 104.467 46.5382 104.079L26.9731 92.0536L31.4346 48.5615C31.4744 48.1044 31.3154 47.6571 30.9974 47.3192C30.7291 47.031 30.3615 46.862 29.9739 46.8322C29.9044 46.8223 29.8447 46.8223 29.7851 46.8223L7.21916 47.6372C6.68258 47.6571 6.19569 47.9354 5.91747 48.3926C5.62931 48.8498 5.58954 49.4063 5.80815 49.8933Z" fill="url(#paint4_linear)"/>
<path d="M26.1289 91.9739C26.4369 92.3019 26.8841 92.4907 27.3312 92.4808L169.633 89.3799C170.448 89.36 171.124 88.7339 171.193 87.9189L176.132 30.1846C176.171 29.7374 176.012 29.2901 175.704 28.9522C175.436 28.664 175.068 28.4851 174.671 28.4552C174.611 28.4552 174.552 28.4453 174.502 28.4453L32.2001 31.5561C31.3853 31.576 30.7097 32.2022 30.6401 33.0171L25.7016 90.7514C25.6619 91.1987 25.8109 91.6459 26.1289 91.9739Z" fill="url(#paint5_linear)"/>
<path d="M51.8732 57.2766C51.7639 57.535 51.5055 57.7338 50.969 57.8133V75.0073C50.9392 75.2359 49.6971 75.8521 48.5346 75.8521H47.9682V60.8645C47.0937 62.077 46.1597 63.1305 45.1362 64.0647L44.7686 63.8362C46.7261 60.2483 48.624 54.6726 49.4686 49.3256L53.8903 50.23C53.781 50.5977 53.4631 50.876 52.847 50.9058C52.1713 53.0029 51.3764 54.9509 50.4721 56.7299L51.8732 57.2766ZM72.0942 60.9539C71.8954 61.2123 71.5874 61.2322 71.021 61.262C70.4844 61.6596 69.6597 62.1963 68.9244 62.6236C71.3588 64.2337 69.918 66.8377 68.05 65.6748C67.7121 64.3132 66.4403 62.6534 65.2777 61.7391L65.5559 61.5105C66.4899 61.6198 67.2849 61.8186 67.9109 62.077C68.0202 61.6496 68.1692 61.2024 68.2487 60.775H54.884C54.9933 62.1863 54.576 63.2597 53.9202 63.7169C53.2445 64.1741 52.0223 64.025 51.6844 63.1504C51.3764 62.3255 51.8831 61.6198 52.6483 61.2223C53.3239 60.7651 54.0394 59.6122 53.9202 58.5885H54.3474C54.5462 59.0655 54.6555 59.5227 54.7747 59.9501H55.6292V52.3668L59.0574 53.6688H60.051C60.1106 53.1321 60.1603 52.506 60.1603 51.9395H53.791L53.5625 51.1145H66.5893L68.3481 49.1367C68.3481 49.1367 70.3056 50.4983 71.5477 51.4823C71.4582 51.7904 71.1502 51.9395 70.7527 51.9395H63.3003C62.6246 52.5656 61.8297 53.1818 61.1242 53.6688H64.751L66.2217 52.1382L69.1629 54.3446C68.9939 54.5434 68.6263 54.7422 68.1195 54.8515V59.9402H68.1791L69.62 58.499L72.0942 60.9539ZM69.461 68.7061C69.2325 68.9646 68.9542 69.0441 68.2686 69.1037C67.424 70.2963 66.4005 71.3101 65.1485 72.1549C67.0762 72.4332 69.2523 72.5524 71.6868 72.5823L71.6569 72.9202C70.5242 73.3476 69.8684 74.2818 69.7292 75.6931C66.3607 75.385 63.7574 74.8483 61.7403 73.9638C59.1866 74.9576 56.136 75.5738 52.6185 75.9118L52.4794 75.5142C55.2318 74.9477 57.7457 74.1029 59.8423 72.9699C58.8487 72.3437 58.0339 71.6083 57.2688 70.7337C55.9671 71.7275 54.4667 72.6021 52.8768 73.1985L52.6185 72.9202C53.8904 71.9064 55.0828 70.515 56.0466 69.1335C55.6491 68.5372 55.2814 67.921 54.9436 67.2352L55.2318 66.8078C55.5995 67.4042 56.0267 67.9707 56.5037 68.4477C57.0402 67.6029 57.4973 66.7482 57.7756 65.9829L62.0284 66.778C61.939 67.1159 61.6608 67.2849 60.8062 67.3445C60.6969 67.4837 60.5777 67.6526 60.4386 67.8017H64.8305L66.6191 66.1618L69.461 68.7061ZM56.4341 61.4906C57.0601 63.8063 56.3745 65.5059 55.4703 66.1817C54.8443 66.6389 53.7115 66.6389 53.3737 65.8736C53.0855 65.1679 53.483 64.5418 54.1686 64.1443C54.9337 63.7169 55.8976 62.564 55.977 61.4608L56.4341 61.4906ZM60.4882 61.5502C60.4286 61.918 60.1802 62.1466 59.6933 62.2261V63.9753C59.6933 64.2536 59.753 64.343 60.4585 64.343H62.4458H64.2343C64.5126 64.343 64.6914 64.2834 64.8305 64.1443C65.0292 63.8858 65.3373 63.2995 65.6254 62.5342H65.9633L66.0527 64.1741C66.7582 64.4325 66.9271 64.6313 66.9271 64.999C66.9271 66.0127 65.9633 66.1916 62.257 66.1916H59.8821C57.6166 66.1916 57.2787 65.7146 57.2787 64.2138V61.2421L60.4882 61.5502ZM59.743 68.5869C59.3157 69.0441 58.8388 69.4913 58.332 69.9187C59.3754 70.5945 60.5975 71.1312 62.0184 71.5288C63.1214 70.6541 64.0257 69.6901 64.7411 68.5869H59.743V68.5869ZM58.6698 54.4738V55.7758H64.9895V54.4738H58.6698ZM64.9895 56.6007H58.6698V57.9027H64.9895V56.6007ZM58.6698 59.96H64.9895V58.7177H58.6698V59.96ZM60.8559 60.8943C66.0428 61.5701 64.1151 65.3071 62.1576 63.8958C61.9887 62.9317 61.2235 61.749 60.5975 61.0931L60.8559 60.8943Z" fill="white"/>
<path d="M99.231 52.2184C99.231 52.2184 100.93 53.5203 102.003 54.4844C101.944 54.7925 101.636 54.9416 101.238 54.9416H97.7803V58.45C97.7505 58.5394 97.1543 58.9071 96.1109 59.0463L98.605 60.9148C98.4361 61.1135 98.0983 61.3421 97.5816 61.4515V70.5852C97.5518 70.784 95.8824 71.4101 94.8092 71.4101H94.2429V70.2175H84.048V70.9827C84.048 71.2908 82.627 72.0263 81.2756 72.0263H80.7987V58.7779L84.2864 60.1594H93.9746L94.998 59.086H94.7099V54.9316H92.6431C92.3549 56.6013 91.2222 58.5792 87.3767 59.7122L87.178 59.3444C89.215 57.9033 89.7317 56.1442 89.8112 54.5639C89.7019 54.8223 89.4435 54.9316 89.0759 54.9316H86.2141V58.5195C86.1843 58.6587 85.3099 59.1655 83.7797 59.1655H83.2431V54.9217H81.0868C80.8881 56.7902 79.9541 59.1655 76.0987 60.5172L75.8701 60.1495C78.0462 58.281 78.245 55.9056 78.245 53.9875V50.5983L81.4446 51.5326C83.253 50.8269 85.1807 49.9523 86.2837 49.3262L88.8572 51.9599C88.5194 52.2184 87.9828 52.1885 87.2475 51.8705C85.7173 52.0991 83.3425 52.3476 81.1266 52.437V53.9974V54.1067H85.6875L87.1581 52.3277C87.1581 52.3277 88.7678 53.5402 89.7913 54.4446C89.8211 54.1862 89.8211 53.9676 89.8211 53.7092V50.5685L92.7922 51.3934C94.7199 50.7474 96.727 49.8927 97.8896 49.3262L100.493 51.9898C100.155 52.268 99.559 52.2482 98.8833 51.9003C97.2934 52.1289 94.9484 52.3277 92.7325 52.437V53.7092V54.1067H97.6611L99.231 52.2184ZM76.4365 75.5248C80.0037 74.4812 83.9685 72.3841 85.8365 70.7144L89.3243 73.2587C89.0361 73.537 88.4996 73.6265 87.655 73.3979C85.0218 74.6104 80.5999 75.6043 76.5557 75.9124L76.4365 75.5248ZM84.048 60.9545V63.1908H94.2429V60.9545H84.048ZM84.048 63.9759V66.2618H94.2429V63.9759H84.048ZM94.2429 69.4422V67.0967H84.048V69.4422H94.2429ZM90.1987 71.5294C106.058 71.6685 100.135 77.5821 97.1344 75.3459C95.8327 74.2725 93.4778 72.8612 90.1093 71.8971L90.1987 71.5294Z" fill="white"/>
<path d="M114.613 49.5537L117.584 51.9291C117.415 52.1279 117.077 52.3564 116.561 52.436V72.065C116.561 74.2714 116.133 75.5138 112.765 75.802C112.705 74.8081 112.566 73.9931 112.258 73.5658C111.95 73.0887 111.433 72.721 110.301 72.5222V72.1246C110.301 72.1246 112.427 72.2638 112.904 72.2638C113.361 72.2638 113.441 72.065 113.441 71.7271V65.247H110.638C110.271 69.0039 109.218 72.9098 106.336 75.9113L105.998 75.7125C107.866 70.8724 107.866 64.7998 107.866 59.4229V49.8916L111.354 51.1936H113.162L114.613 49.5537ZM113.45 64.432V58.5483H110.877V59.4229C110.877 60.9833 110.877 62.6729 110.738 64.432H113.45ZM110.877 52.0185V57.7333H113.45V52.0185H110.877ZM132.628 61.3808C132.429 61.6591 132.171 61.7784 131.555 61.838C130.959 64.6109 129.965 67.3242 128.296 69.7592C129.737 70.9718 131.416 71.906 133.224 72.6415L133.165 72.9496C131.774 73.1782 130.7 74.1621 130.134 75.7523C128.663 74.6789 127.411 73.4863 126.398 72.0451C125.205 73.2875 123.765 74.3907 122.006 75.3249L121.748 74.987C123.248 73.685 124.44 72.1048 125.374 70.3754C124.182 68.0796 123.417 65.2271 122.97 61.4107H121.668V74.9274C121.668 75.1858 120.674 75.9213 119.094 75.9213H118.528V49.8618L122.036 51.1936H127.729L129.319 49.6929L132.151 52.0086C131.982 52.2074 131.674 52.4061 131.108 52.4658C131.048 55.8847 130.8 57.4451 129.776 58.1507C129.041 58.6576 128.077 58.8564 126.607 58.8564C126.607 58.0116 126.517 57.4749 126.07 57.0475C125.673 56.5904 124.798 56.3121 123.775 56.1133V55.7456C124.709 55.8052 126.378 55.9145 126.835 55.9145C127.262 55.9145 127.431 55.8549 127.57 55.7157C127.859 55.4872 127.938 54.2448 127.998 52.0086H121.678V60.5758H128.018L129.687 58.8465L132.628 61.3808ZM123.447 61.4007C124.073 64.114 125.116 66.2608 126.507 67.9305C127.332 65.8334 127.898 63.6071 128.206 61.4007H123.447V61.4007Z" fill="white"/>
<path d="M160.609 54.1357C159.814 56.034 158.652 57.6739 157.151 59.0852C158.91 59.7908 161.027 60.2778 163.58 60.5561L163.55 60.8642C162.676 61.3413 162.159 62.5041 162.02 64.0645C158.88 63.2694 156.694 62.1364 155.055 60.7251C154.23 61.2916 153.326 61.7686 152.332 62.2556L156.158 62.5936C156.098 62.9315 155.869 63.2197 155.194 63.2992C155.104 64.0645 154.995 64.8596 154.856 65.6149H157.976L159.586 64.0844L162.447 66.4299C162.219 66.6585 161.911 66.8275 161.315 66.907C161.027 71.5782 160.411 74.0331 159.079 74.9971C158.254 75.5935 157.181 75.8717 155.711 75.8717C155.711 75.0269 155.621 74.2617 155.204 73.8045C154.776 73.3771 153.902 73.0392 152.849 72.8106V72.4131C153.842 72.5025 155.542 72.582 156.108 72.582C156.565 72.582 156.784 72.5522 156.982 72.3832C157.549 71.9062 157.976 69.8389 158.205 66.3902H154.697C153.793 70.2663 151.557 73.9138 144.81 75.8916L144.552 75.5239C149.053 73.3771 150.782 69.9781 151.458 66.3902H146.758L146.499 65.5951H151.597C151.736 64.5515 151.825 63.4781 151.885 62.4246C150.295 63.1303 148.516 63.6968 146.589 64.1539L146.42 63.7862C149.45 62.6234 151.855 61.1027 153.674 59.2939C152.769 58.1609 152.034 56.8589 151.378 55.4476C150.414 56.352 149.391 57.1173 148.288 57.7434L150.464 59.7809C150.235 60.0095 149.927 60.089 149.361 60.1188C148.367 61.1624 146.638 62.524 145.257 63.2296L144.969 63.0309C145.396 62.0668 145.873 60.6853 146.191 59.5523H144.582V71.8863C144.582 74.0629 144.075 75.6233 140.508 75.9314C140.448 74.8878 140.279 74.0927 139.882 73.5858C139.454 73.1088 138.858 72.741 137.417 72.5124V72.1546C137.417 72.1546 140.249 72.3236 140.845 72.3236C141.322 72.3236 141.471 72.1547 141.471 71.8167V65.3665C140.14 67.3145 138.5 69.014 136.602 70.4849L136.265 70.147C138.5 67.3443 140.031 63.329 140.905 59.5722H136.911L136.652 58.7473H142.853C142.743 58.6876 142.624 58.6379 142.485 58.5783C141.919 57.0179 140.388 55.2389 139.196 54.1655L139.424 53.9667C141.183 54.1059 142.455 54.5034 143.359 54.9805C143.866 54.1059 144.462 52.9728 144.86 52.0684H137.387L137.129 51.2832H144.86L146.589 49.5539L149.56 52.4063C149.331 52.6349 149.053 52.6846 148.427 52.7442C147.324 53.5692 145.535 54.6922 144.005 55.4575C145.476 56.6999 145.168 58.2901 144.115 58.7373H146.072L147.632 57.1272L147.94 57.4055C149.381 55.4774 150.712 52.4858 151.428 49.375L155.502 50.7863C155.393 51.1242 155.025 51.3528 154.369 51.323C154.001 52.0286 153.604 52.6846 153.177 53.3008H158.383L160.142 50.9553C160.142 50.9553 162.04 52.5653 163.203 53.6685C163.143 53.9766 162.835 54.1257 162.408 54.1257H160.609V54.1357ZM152.571 54.1357C152.342 54.414 152.113 54.7022 151.865 54.9606C152.69 56.1532 153.674 57.1074 154.896 57.9323C155.8 56.7396 156.486 55.4973 156.903 54.1456H152.571V54.1357Z" fill="white"/>
<defs>
<linearGradient id="paint0_linear" x1="162.708" y1="64.799" x2="44.5392" y2="54.7087" gradientUnits="userSpaceOnUse">
<stop stop-color="#C0AA88"/>
<stop offset="0.0407" stop-color="#B59C7D"/>
<stop offset="0.1398" stop-color="#9C7E64"/>
<stop offset="0.2581" stop-color="#785744"/>
<stop offset="0.3602" stop-color="#9C7E64"/>
<stop offset="0.4892" stop-color="#C0AA88"/>
<stop offset="0.5253" stop-color="#B59C7D"/>
<stop offset="0.6129" stop-color="#9C7E64"/>
<stop offset="0.7204" stop-color="#785744"/>
<stop offset="0.8387" stop-color="#9C7E64"/>
<stop offset="1" stop-color="#C0AA88"/>
</linearGradient>
<linearGradient id="paint1_linear" x1="164.219" y1="32.7942" x2="165.639" y2="16.1758" gradientUnits="userSpaceOnUse">
<stop/>
<stop offset="0.0166" stop-color="#0E0E0E"/>
<stop offset="0.083" stop-color="#404040"/>
<stop offset="0.1545" stop-color="#6D6D6D"/>
<stop offset="0.2293" stop-color="#959595"/>
<stop offset="0.3083" stop-color="#B6B6B6"/>
<stop offset="0.3926" stop-color="#D0D0D0"/>
<stop offset="0.4842" stop-color="#E5E5E5"/>
<stop offset="0.5869" stop-color="#F4F4F4"/>
<stop offset="0.7095" stop-color="#FCFCFC"/>
<stop offset="0.9046" stop-color="white"/>
</linearGradient>
<linearGradient id="paint2_linear" x1="-66.4999" y1="30.8502" x2="404.283" y2="56.9631" gradientUnits="userSpaceOnUse">
<stop stop-color="#B68E5D"/>
<stop offset="0.0483" stop-color="#A97C4F"/>
<stop offset="0.1398" stop-color="#925E37"/>
<stop offset="0.2581" stop-color="#6E3E23"/>
<stop offset="0.3602" stop-color="#925E37"/>
<stop offset="0.4892" stop-color="#B68E5D"/>
<stop offset="0.532" stop-color="#A97C4F"/>
<stop offset="0.6129" stop-color="#925E37"/>
<stop offset="0.7204" stop-color="#6E3E23"/>
<stop offset="0.8387" stop-color="#925E37"/>
<stop offset="1" stop-color="#B68E5D"/>
</linearGradient>
<linearGradient id="paint3_linear" x1="36.0956" y1="89.2642" x2="34.6759" y2="105.884" gradientUnits="userSpaceOnUse">
<stop/>
<stop offset="0.0103" stop-color="#0E0E0E"/>
<stop offset="0.0517" stop-color="#404040"/>
<stop offset="0.0962" stop-color="#6D6D6D"/>
<stop offset="0.1427" stop-color="#959595"/>
<stop offset="0.1919" stop-color="#B6B6B6"/>
<stop offset="0.2443" stop-color="#D0D0D0"/>
<stop offset="0.3014" stop-color="#E5E5E5"/>
<stop offset="0.3653" stop-color="#F4F4F4"/>
<stop offset="0.4416" stop-color="#FCFCFC"/>
<stop offset="0.563" stop-color="white"/>
</linearGradient>
<linearGradient id="paint4_linear" x1="-68.8435" y1="72.9636" x2="401.94" y2="99.0765" gradientUnits="userSpaceOnUse">
<stop stop-color="#B68E5D"/>
<stop offset="0.0483" stop-color="#A97C4F"/>
<stop offset="0.1398" stop-color="#925E37"/>
<stop offset="0.2581" stop-color="#6E3E23"/>
<stop offset="0.3602" stop-color="#925E37"/>
<stop offset="0.4892" stop-color="#B68E5D"/>
<stop offset="0.532" stop-color="#A97C4F"/>
<stop offset="0.6129" stop-color="#925E37"/>
<stop offset="0.7204" stop-color="#6E3E23"/>
<stop offset="0.8387" stop-color="#925E37"/>
<stop offset="1" stop-color="#B68E5D"/>
</linearGradient>
<linearGradient id="paint5_linear" x1="-67.6317" y1="51.0881" x2="403.167" y2="77.2019" gradientUnits="userSpaceOnUse">
<stop stop-color="#B68E5D"/>
<stop offset="0.0483" stop-color="#A97C4F"/>
<stop offset="0.1398" stop-color="#925E37"/>
<stop offset="0.2581" stop-color="#6E3E23"/>
<stop offset="0.3602" stop-color="#925E37"/>
<stop offset="0.4892" stop-color="#B68E5D"/>
<stop offset="0.532" stop-color="#A97C4F"/>
<stop offset="0.6129" stop-color="#925E37"/>
<stop offset="0.7204" stop-color="#6E3E23"/>
<stop offset="0.8387" stop-color="#925E37"/>
<stop offset="1" stop-color="#B68E5D"/>
</linearGradient>
</defs>
</svg>
