<svg width="191" height="182" viewBox="0 0 191 182" fill="none" xmlns="http://www.w3.org/2000/svg">
<path d="M122.589 181.056C159.592 181.056 189.589 151.059 189.589 114.056C189.589 77.0526 159.592 47.0557 122.589 47.0557C85.5858 47.0557 55.5889 77.0526 55.5889 114.056C55.5889 151.059 85.5858 181.056 122.589 181.056Z" fill="#FAECE8"/>
<path d="M122.479 181.836C84.9988 181.836 54.5088 151.346 54.5088 113.866C54.5088 76.3865 84.9988 45.8965 122.479 45.8965C159.959 45.8965 190.449 76.3865 190.449 113.866C190.449 151.346 159.959 181.836 122.479 181.836ZM122.479 47.4465C85.8588 47.4465 56.0588 77.2365 56.0588 113.856C56.0588 150.476 85.8488 180.266 122.479 180.266C159.109 180.266 188.899 150.476 188.899 113.856C188.899 77.2465 159.099 47.4465 122.479 47.4465Z" fill="url(#paint0_linear)"/>
<path d="M92.1287 120.977C92.9687 121.327 93.1586 121.687 93.1586 122.307C93.1586 123.587 92.0486 124.187 87.4786 124.187H84.7087C81.9387 124.187 81.3387 123.647 81.3387 121.497V114.157H81.3087C79.7587 119.457 76.1486 123.067 67.8586 124.837L67.7186 124.487C73.9186 122.037 76.7986 118.647 77.9886 114.157H74.5386V114.917C74.5386 115.157 73.5887 116.007 71.9587 116.007H71.3887V108.477C70.1687 109.377 68.8886 110.157 67.6086 110.757L67.3887 110.537C70.6187 107.927 73.8586 103.177 75.3486 99.0967L79.4487 100.727C79.3087 101.027 79.0687 101.107 78.3387 100.967C78.0687 101.397 77.8187 101.837 77.4987 102.267H82.6887L84.3687 100.607L87.2787 103.137C87.0287 103.357 86.7386 103.407 86.1686 103.467C84.8386 104.577 82.9886 105.997 81.1686 106.947H86.1387L87.6086 105.347L90.7087 107.687C90.5487 107.907 90.1887 108.147 89.6187 108.257V114.537C89.5887 114.757 88.0387 115.407 86.9587 115.407H86.4186V114.157H84.4886V114.397V120.727C84.4886 121.137 84.5986 121.247 85.4086 121.247H87.7986C88.6686 121.247 89.4287 121.247 89.8087 121.217C90.1887 121.187 90.3286 121.107 90.4886 120.837C90.7586 120.377 91.1986 119.067 91.7386 117.417H92.0386L92.1287 120.977ZM76.8887 103.067C76.0187 104.237 74.9286 105.407 73.7386 106.517L74.9387 106.957H80.3787C81.1687 105.867 82.0886 104.267 82.6586 103.067H76.8887ZM78.1887 113.397C78.5987 111.657 78.7587 109.807 78.8087 107.747H74.5386V113.397H78.1887ZM82.2687 107.737C82.1587 109.807 81.9187 111.647 81.5087 113.387H86.4286V107.737H82.2687Z" fill="#93594C"/>
<path d="M101.039 117.987C107.479 119.997 104.789 124.917 102.399 122.797C102.369 121.707 101.989 120.487 101.499 119.457C101.339 119.677 101.089 119.807 100.519 119.757C99.4586 121.447 97.7185 123.507 95.5685 124.787L95.2686 124.487C96.5686 122.777 97.5786 120.277 98.0186 118.377C97.7786 118.427 97.4485 118.457 97.1185 118.457H96.6585V100.057L99.6486 101.227H101.549L102.939 99.5966L105.599 101.717C105.379 101.957 105.079 102.157 104.509 102.257V117.227C104.509 117.387 103.529 118.017 102.149 118.017H101.659V116.717H99.3485V117.697C99.3485 117.807 99.1586 117.967 98.8286 118.137L101.409 119.307C101.189 118.867 100.969 118.487 100.729 118.167L101.039 117.987ZM99.3585 102.007V106.027H101.669V102.007H99.3585ZM101.669 110.947V106.817H99.3585V110.947H101.669ZM101.669 115.917V111.707H99.3585V115.917H101.669ZM119.549 116.387C119.549 116.387 120.829 117.687 121.479 118.557C121.429 118.857 121.179 118.967 120.799 118.967H118.629V121.417C118.629 123.347 118.279 124.457 115.119 124.757C115.069 123.857 114.929 123.177 114.599 122.777C114.249 122.337 113.729 122.047 112.619 121.857V121.447C112.619 121.447 114.849 121.607 115.339 121.607C115.749 121.607 115.879 121.447 115.879 121.087V118.967H108.839V123.917C108.839 124.187 107.729 124.817 106.559 124.817H106.149V118.977H104.569L104.349 118.217H106.139V109.927L108.989 111.127H110.969V109.197H104.959L104.769 108.437H108.089V106.177H105.669L105.449 105.387H108.089V103.297H105.319L105.099 102.507H108.089V99.5166L111.679 99.8466C111.649 100.177 111.459 100.417 110.859 100.527V102.507H113.659V99.5166L117.269 99.8466C117.219 100.197 117.029 100.417 116.429 100.527V102.507H116.969L118.299 100.737C118.299 100.737 119.769 101.957 120.659 102.857C120.609 103.157 120.329 103.287 119.949 103.287H116.419V105.377H116.879L118.019 103.887C118.019 103.887 119.299 104.977 120.089 105.737C120.009 106.037 119.759 106.177 119.379 106.177H116.419V108.437H117.209L118.489 106.667C118.489 106.667 119.979 107.917 120.879 108.757C120.829 109.057 120.549 109.197 120.169 109.197H113.619V111.127H115.579L116.829 109.657L119.659 111.807C119.499 111.997 119.139 112.217 118.599 112.297V117.867L119.549 116.387ZM108.839 111.897V114.617H110.989V111.897H108.839ZM108.839 118.207H110.989V115.377H108.839V118.207ZM110.879 105.377H113.679V103.287H110.879V105.377ZM110.879 108.417H113.679V106.157H110.879V108.417ZM113.649 111.897V114.617H115.879V111.897H113.649ZM115.879 118.207V115.377H113.649V118.207H115.879Z" fill="#93594C"/>
<path d="M145.388 107.197C145.388 107.197 147.428 108.667 148.678 109.727C148.598 110.027 148.268 110.157 147.888 110.157H128.998V112.437C128.998 115.837 128.568 121.407 123.458 124.777L123.238 124.537C125.658 120.787 125.878 116.117 125.878 112.447V108.097L128.488 109.017L128.348 108.747C130.548 108.147 132.918 107.307 135.088 106.357C133.428 105.707 131.638 105.057 129.738 104.507L129.848 104.097C133.188 104.237 135.748 104.617 137.648 105.127C138.738 104.557 139.718 103.987 140.498 103.417H124.678L124.458 102.657H135.868C135.788 102.627 135.678 102.577 135.598 102.517C135.378 101.317 134.458 99.9867 133.588 99.3067L133.778 99.1467C139.078 98.7667 139.128 101.837 137.558 102.657H143.588L145.358 100.487C145.358 100.487 147.368 101.957 148.588 102.987C148.508 103.287 148.238 103.427 147.828 103.427H141.658L143.998 104.837C143.808 105.107 143.538 105.217 142.968 105.077C142.288 105.457 141.498 105.837 140.578 106.217C143.188 107.607 142.938 109.177 141.778 109.397H143.628L145.388 107.197ZM145.218 120.817C145.218 120.817 147.228 122.287 148.478 123.347C148.398 123.647 148.098 123.777 147.718 123.777H127.848L127.628 122.987H136.458V119.187H131.378L131.158 118.397H136.458V115.167H132.788C131.868 116.467 130.778 117.557 129.578 118.317L129.228 118.097C130.228 116.327 131.128 113.587 131.568 110.927L135.368 112.037C135.258 112.367 134.908 112.607 134.308 112.607C134.008 113.207 133.688 113.807 133.328 114.377H136.448V110.677L140.498 111.027C140.448 111.407 140.258 111.647 139.598 111.737V114.377H141.718L143.378 112.367C143.378 112.367 145.168 113.667 146.368 114.727C146.288 115.027 146.018 115.157 145.608 115.157H139.598V118.387H141.418L142.998 116.457C142.998 116.457 144.738 117.787 145.848 118.737C145.768 119.037 145.498 119.167 145.118 119.167H139.598V122.967H143.398L145.218 120.817ZM129.518 109.397H141.228C141.148 109.397 141.068 109.367 140.988 109.347C140.168 108.777 138.918 108.067 137.348 107.337C134.658 108.157 131.588 108.807 128.758 109.127L129.518 109.397Z" fill="#93594C"/>
<path d="M160.679 111.517L163.699 113.797C163.539 114.017 163.159 114.237 162.609 114.337V123.147C162.579 123.367 161.089 124.047 160.059 124.047H159.539V121.787H155.569V123.527C155.569 123.827 154.269 124.537 153.019 124.537H152.559V111.817L155.709 113.067H159.269L160.679 111.517ZM159.539 121.007V113.857H155.569V121.007H159.539ZM159.969 110.407C159.969 110.707 158.579 111.417 157.249 111.417H156.759V99.8967L160.129 101.227H167.519L169.009 99.5967L172.109 101.957C171.949 102.177 171.569 102.417 170.999 102.527V110.297C170.969 110.517 169.419 111.167 168.339 111.167H167.799V108.967H159.969V110.407ZM159.969 102.007V108.207H167.799V102.007H159.969ZM176.499 113.797C176.309 114.017 175.929 114.237 175.389 114.367V123.387C175.359 123.607 173.809 124.177 172.779 124.177H172.259V121.787H168.069V123.557C168.069 123.857 166.789 124.567 165.519 124.567H165.059V111.817L168.209 113.067H171.989L173.459 111.487L176.499 113.797ZM172.259 121.007V113.857H168.069V121.007H172.259Z" fill="#93594C"/>
<path opacity="0.57" d="M38.7988 31.8863C59.7288 19.2263 89.5588 25.8763 105.439 46.7363C121.329 67.6063 117.239 94.7763 96.3188 107.436C75.3888 120.096 45.5588 113.446 29.6688 92.5863C13.7988 71.7163 17.8788 44.5463 38.7988 31.8863Z" fill="url(#paint1_radial)"/>
<path opacity="0.88" d="M51.3284 63.036C52.9484 60.766 62.1084 63.056 71.7784 68.146C81.4584 73.226 87.9884 79.186 86.3684 81.466C84.7584 83.726 75.5884 81.446 65.9084 76.356C56.2484 71.276 49.7084 65.306 51.3284 63.036Z" fill="url(#paint2_radial)"/>
<path opacity="0.57" d="M0.00844743 36.4157C0.588447 35.5957 31.9284 51.1558 69.9984 71.1758C108.068 91.1858 138.458 108.076 137.878 108.886C137.298 109.706 105.958 94.1458 67.8885 74.1258C29.8084 54.1258 -0.581553 37.2457 0.00844743 36.4157Z" fill="url(#paint3_radial)"/>
<path opacity="0.88" d="M84.4287 55.1963C88.1487 57.5363 84.1087 67.8563 75.3887 78.2463C66.6687 88.6263 56.5887 95.1663 52.8587 92.8263C49.1287 90.4963 53.1887 80.1763 61.8987 69.7863C70.6187 59.3763 80.6987 52.8563 84.4287 55.1963Z" fill="url(#paint4_radial)"/>
<path opacity="0.57" d="M130.058 0.0159469C131.388 0.855947 104.678 34.6759 70.3984 75.5459C36.0984 116.436 7.20839 148.896 5.87839 148.036C4.53839 147.196 31.2384 113.376 65.5384 72.506C99.8184 31.626 128.708 -0.824053 130.058 0.0159469Z" fill="url(#paint5_radial)"/>
<defs>
<linearGradient id="paint0_linear" x1="54.5097" y1="113.863" x2="190.453" y2="113.863" gradientUnits="userSpaceOnUse">
<stop stop-color="white"/>
<stop offset="0.5101" stop-color="#B43E3E"/>
<stop offset="1" stop-color="#8F4C40"/>
</linearGradient>
<radialGradient id="paint1_radial" cx="0" cy="0" r="1" gradientUnits="userSpaceOnUse" gradientTransform="translate(67.5577 69.6638) rotate(-127.265) scale(47.4737 44.0342)">
<stop stop-color="white"/>
<stop offset="1" stop-color="white" stop-opacity="0"/>
</radialGradient>
<radialGradient id="paint2_radial" cx="0" cy="0" r="1" gradientUnits="userSpaceOnUse" gradientTransform="translate(68.8477 72.2494) rotate(-141.222) scale(13.7729 12.9438)">
<stop stop-color="white"/>
<stop offset="1" stop-color="white" stop-opacity="0"/>
</radialGradient>
<radialGradient id="paint3_radial" cx="0" cy="0" r="1" gradientUnits="userSpaceOnUse" gradientTransform="translate(68.94 72.6528) rotate(-143.346) scale(51.9357 47.8777)">
<stop stop-color="white"/>
<stop offset="1" stop-color="white" stop-opacity="0"/>
</radialGradient>
<radialGradient id="paint4_radial" cx="0" cy="0" r="1" gradientUnits="userSpaceOnUse" gradientTransform="translate(68.6415 74.012) rotate(-122.177) scale(19.4845 16.905)">
<stop stop-color="white"/>
<stop offset="1" stop-color="white" stop-opacity="0"/>
</radialGradient>
<radialGradient id="paint5_radial" cx="0" cy="0" r="1" gradientUnits="userSpaceOnUse" gradientTransform="translate(67.9651 74.0306) rotate(-120.684) scale(73.5901 62.163)">
<stop stop-color="white"/>
<stop offset="1" stop-color="white" stop-opacity="0"/>
</radialGradient>
</defs>
</svg>
