<svg xmlns="http://www.w3.org/2000/svg" xmlns:xlink="http://www.w3.org/1999/xlink" viewBox="0 0 598.17 103.14"><defs><linearGradient id="a" x1="74.2" y1="43.47" x2="511.05" y2="43.47" gradientUnits="userSpaceOnUse"><stop offset="0.02" stop-color="#653f25"/><stop offset="0.16" stop-color="#a8803e"/><stop offset="0.51" stop-color="#a8803e"/><stop offset="1" stop-color="#653f25"/></linearGradient><linearGradient id="b" x1="585.53" y1="66.5" x2="461.28" y2="66.5" gradientUnits="userSpaceOnUse"><stop offset="0.02" stop-color="#653f25"/><stop offset="0.16" stop-color="#a8803e"/><stop offset="0.33" stop-color="#e1cc7d"/><stop offset="0.51" stop-color="#a8803e"/><stop offset="1" stop-color="#653f25"/></linearGradient><clipPath id="c" transform="translate(6.32)"><path d="M581.39,103.14q-60-3.69-120.11-5.85,1.22-33.72,2.42-67.44Q524.65,32,585.53,35.79q-12,16.78-23.76,33.63Q571.66,86.27,581.39,103.14Z" fill="none"/></clipPath><linearGradient id="d" x1="454.97" y1="65.9" x2="591.85" y2="65.9" gradientUnits="userSpaceOnUse"><stop offset="0" stop-color="#daad64"/><stop offset="0.16" stop-color="#a8803e"/><stop offset="0.33" stop-color="#e1cc7d"/><stop offset="0.53" stop-color="#653f25"/><stop offset="0.68" stop-color="#a8803e"/><stop offset="0.82" stop-color="#e1cc7d"/><stop offset="1" stop-color="#daad64"/></linearGradient><linearGradient id="e" x1="5670.26" y1="66.5" x2="5546.01" y2="66.5" gradientTransform="matrix(-1, 0, 0, 1, 5670.26, 0)" xlink:href="#b"/><clipPath id="f" transform="translate(6.32)"><path d="M4.14,103.14q60-3.69,120.11-5.85Q123,63.57,121.83,29.85,60.89,32,0,35.79,12,52.58,23.76,69.42,13.88,86.27,4.14,103.14Z" fill="none"/></clipPath><linearGradient id="g" x1="5539.69" y1="65.9" x2="5676.58" y2="65.9" gradientTransform="matrix(-1, 0, 0, 1, 5670.26, 0)" xlink:href="#d"/><linearGradient id="h" x1="511.19" y1="43.47" x2="74.06" y2="43.47" xlink:href="#a"/><clipPath id="j" transform="translate(6.32)"><path d="M507.59,83.81Q292.75,74,77.66,83.82,75.92,46,74.2,8.12q218.31-10,436.85,0Q509.32,46,507.59,83.81Z" fill="url(#a)"/></clipPath><linearGradient id="k" x1="56.02" y1="44.32" x2="529.22" y2="44.32" xlink:href="#a"/></defs><path d="M581.39,103.14q-60-3.69-120.11-5.85,1.22-33.72,2.42-67.44Q524.65,32,585.53,35.79,573.65,52.35,561.91,69,571.72,86,581.39,103.14Z" transform="translate(6.32)" fill="url(#b)"/><g clip-path="url(#c)"><path d="M586.81,96.74q-65.12-4.08-130.3-6.35,1-27.68,1.93-55.37,65.94,2.31,131.83,6.42Q588.55,69.1,586.81,96.74Z" transform="translate(6.32)" fill="none" stroke-miterlimit="10" stroke-width="2.98" stroke="url(#d)"/></g><path d="M461.28,97.29Q484.5,86.57,508,76.08q-22.74-2-45.5-3.74Z" transform="translate(6.32)" fill="#281012"/><path d="M4.14,103.14q60-3.69,120.11-5.85Q123,63.57,121.83,29.85,60.89,32,0,35.79,11.9,52.35,23.62,69,13.81,86,4.14,103.14Z" transform="translate(6.32)" fill="url(#e)"/><g clip-path="url(#f)"><path d="M-1.28,96.74Q63.84,92.66,129,90.39q-1-27.68-1.93-55.37Q61.15,37.33-4.74,41.44-3,69.1-1.28,96.74Z" transform="translate(6.32)" fill="none" stroke-miterlimit="10" stroke-width="2.98" stroke="url(#g)"/></g><path d="M124.25,97.29Q101,86.57,77.58,76.08q22.74-2,45.51-3.74Q123.66,84.82,124.25,97.29Z" transform="translate(6.32)" fill="#281012"/><path d="M507.45,86.93Q292.74,77.14,77.8,87,75.93,46,74.06,5,292.51-5,511.19,5,509.32,46,507.45,86.93Z" transform="translate(6.32)" fill="url(#h)"/><path d="M507.59,83.81Q292.75,74,77.66,83.82,75.92,46,74.2,8.12q218.31-10,436.85,0Q509.32,46,507.59,83.81Z" transform="translate(6.32)" fill="url(#a)"/><g clip-path="url(#j)"><path d="M525.79,82q-233-11.52-466.33,0Q57.75,47.25,56,12.52,292.48.8,529.22,12.5,527.51,47.24,525.79,82Z" transform="translate(6.32)" fill="url(#k)"/></g><path d="M177.59,19.54c-.1.23-.32.41-.79.48V35.37a3.16,3.16,0,0,1-2.14.75h-.5V22.75a18.24,18.24,0,0,1-2.49,2.85l-.32-.2a44.12,44.12,0,0,0,4.13-12.95l3.88.81a.88.88,0,0,1-.92.6,36.13,36.13,0,0,1-2.09,5.2Zm17.76,3.28c-.17.23-.45.25-.94.28-.48.35-1.2.83-1.84,1.21,2.14,1.44.87,3.76-.77,2.73a7.58,7.58,0,0,0-2.44-3.51l.25-.2a8.28,8.28,0,0,1,2.06.5c.1-.38.22-.78.3-1.16H180.23a2.91,2.91,0,0,1-.85,2.63,1.35,1.35,0,0,1-2-.51,1.4,1.4,0,0,1,.85-1.72,2.81,2.81,0,0,0,1.11-2.34h.38a10.19,10.19,0,0,1,.37,1.21h.75V15.18l3,1.16h.87c.05-.48.1-1,.1-1.54h-5.6l-.2-.73H190.5L192,12.3s1.72,1.21,2.81,2.09c-.07.28-.34.41-.69.41h-6.54a19,19,0,0,1-1.92,1.54h3.19L190.18,15l2.59,2a1.75,1.75,0,0,1-.92.46v4.54h0l1.27-1.29ZM193,29.74c-.2.23-.45.3-1,.35a10.9,10.9,0,0,1-2.73,2.73,44.28,44.28,0,0,0,5.74.38l0,.3A2.66,2.66,0,0,0,193.29,36a23,23,0,0,1-7-1.54,29.53,29.53,0,0,1-8,1.74l-.13-.35a23.48,23.48,0,0,0,6.47-2.27,10.29,10.29,0,0,1-2.27-2,15.09,15.09,0,0,1-3.85,2.2l-.22-.25a16.51,16.51,0,0,0,3-3.38,18.21,18.21,0,0,1-1-1.69l.25-.38a8.56,8.56,0,0,0,1.12,1.46,12,12,0,0,0,1.12-2.19l3.73.7c-.07.3-.32.46-1.07.51-.1.12-.2.27-.32.4H189l1.56-1.46ZM181.6,23.3c.55,2.07,0,3.59-.85,4.19a1.24,1.24,0,0,1-1.84-.28,1.24,1.24,0,0,1,.7-1.54,3.43,3.43,0,0,0,1.59-2.39Zm3.55.05c-.05.33-.27.53-.69.61v1.56c0,.26,0,.33.67.33h3.31a.63.63,0,0,0,.52-.18,6.22,6.22,0,0,0,.7-1.43H190L190,25.7c.62.23.77.4.77.73,0,.91-.85,1.06-4.1,1.06h-2.09c-2,0-2.29-.43-2.29-1.76V23.07Zm-.64,6.29a14.19,14.19,0,0,1-1.25,1.18,11.33,11.33,0,0,0,3.24,1.44,10.93,10.93,0,0,0,2.39-2.62ZM183.56,17V18.2h5.55V17Zm5.55,1.9h-5.55V20.1h5.55Zm-5.55,3h5.55V20.83h-5.55Zm1.92.83c4.55.61,2.86,3.94,1.14,2.68a5.67,5.67,0,0,0-1.37-2.5Z" transform="translate(6.32)" fill="#fff"/><path d="M222.29,15s1.5,1.17,2.44,2c0,.28-.32.41-.67.41h-3v3.13a2.82,2.82,0,0,1-1.47.53l2.19,1.66a1.63,1.63,0,0,1-.9.48V31.4a4.7,4.7,0,0,1-2.44.74h-.49V31.08h-9v.68c0,.27-1.24.93-2.43.93h-.43V20.88l3.06,1.24h8.51l.89-1h-.25V17.45H216.5c-.25,1.49-1.24,3.25-4.63,4.26l-.17-.33A5.22,5.22,0,0,0,214,17.12a.62.62,0,0,1-.64.33h-2.52v3.2a3,3,0,0,1-2.14.58h-.47V17.45h-1.89c-.17,1.66-1,3.78-4.38,5l-.19-.32a6.71,6.71,0,0,0,2.08-5.51v-3l2.81.83a36.25,36.25,0,0,0,4.26-2l2.26,2.35c-.3.22-.77.2-1.42-.08-1.34.2-3.43.43-5.37.51v1.49h4l1.29-1.59S213.12,16.21,214,17a4.86,4.86,0,0,0,0-.66v-2.8l2.61.73a42.9,42.9,0,0,0,4.48-1.84l2.28,2.37a1.31,1.31,0,0,1-1.41-.07c-1.4.2-3.46.38-5.4.48v1.49h4.33Zm-20,20.8a24.34,24.34,0,0,0,8.26-4.29l3.06,2.27c-.25.25-.72.33-1.47.13a31.21,31.21,0,0,1-9.75,2.24Zm6.69-13v2h9v-2Zm0,2.7v2.05h9V25.52Zm9,4.87V28.3h-9v2.09Zm-3.56,1.87c13.93.13,8.73,5.4,6.09,3.41a17.16,17.16,0,0,0-6.16-3.08Z" transform="translate(6.32)" fill="#fff"/><path d="M248.71,24.46c4.38.58,4.93,2.22,4.26,3.13.55.46,1.29,1.11,1.86,1.64-.07.28-.32.41-.67.41h-5.4v3.18c0,2-.42,3-3.65,3.35a3.17,3.17,0,0,0-.6-1.94,3.58,3.58,0,0,0-2.26-1v-.35s2.76.17,3.28.17.52-.12.52-.42v-3h-14.3l-.2-.73h14.5V27l3.56.3c-.05.38-.3.55-.85.66v1h2.12l.57-.79a1.45,1.45,0,0,1-.85-.48,5.82,5.82,0,0,0-1.34-1.51c-3.33.53-7.86,1.08-14.32,1.79a1.21,1.21,0,0,1-.73.53l-1.39-3c1.84.05,5,.05,8.86.05V23.76h-3.83V24c0,.23-1.2.78-2.32.78h-.37V16.41L238,17.55h3.66V15.73h-9.43L232,15h9.65V12.48l3.68.32c-.05.36-.28.61-.92.71V15H250l1.47-2s1.67,1.33,2.66,2.27c-.07.27-.35.4-.69.4h-9v1.82h3.8l1.27-1.39,2.69,2a2,2,0,0,1-1,.53v5a3.71,3.71,0,0,1-2.26.75Zm-12.93,5.66c7.34-.05,5.67,5.52,2.84,4a8.79,8.79,0,0,0-3-3.86Zm2.07-11.87V20.3h3.83V18.25Zm3.83,4.8V21h-3.83v2Zm2.76-4.8V20.3h4.05V18.25ZM248.49,21h-4.05v2h4.05Zm-.1,4.49a8.78,8.78,0,0,0-1.79-.89l.1-.32a15.77,15.77,0,0,1,1.79.15v-.68h-4.05v1.76Z" transform="translate(6.32)" fill="#fff"/><path d="M261.23,35a22.85,22.85,0,0,0,6.92-6l3.13,2.2c-.2.25-.47.32-1.07.2a18.6,18.6,0,0,1-8.88,3.91Zm20.5-19.31s1.69,1.19,2.71,2.1c-.08.27-.33.4-.7.4H276.1l3.26.93c-.07.31-.37.48-.92.46a21,21,0,0,1-2.71,2.17h3.21L280.46,20s1.69,1.21,2.76,2.12a.63.63,0,0,1-.67.4h-8.21v2.28h3.18L278.94,23s1.64,1.17,2.66,2.05c-.07.28-.32.4-.7.4h-6.56v2.45h5.47L281.38,26s1.74,1.26,2.78,2.22c-.05.28-.32.4-.64.4h-9.18v6.84a3.3,3.3,0,0,1-2.41.71h-.53V28.65H262l-.2-.73h9.6V25.47h-7l-.19-.7h7.18V22.49h-8.23l-.2-.7h6.39a1.87,1.87,0,0,1-.77-.41,5.21,5.21,0,0,0-1.14-2.92l.22-.16c4.36.59,3.83,3.13,2.39,3.49h4.55a27.62,27.62,0,0,0,1.2-3.56h-14l-.2-.73h5.08a1.85,1.85,0,0,1-.8-.41,6.39,6.39,0,0,0-1.66-3.73l.22-.15c4.87.83,4.38,4,2.81,4.29h2.29v-5l3.33.3c0,.31-.22.53-.77.63V17.5h1.72v-5l3.38.3c-.05.31-.23.53-.8.63V17.5h.72A30.94,30.94,0,0,0,278.77,13l3.5,1.11c-.12.3-.42.51-1,.43a22.77,22.77,0,0,1-3.58,2.93h2.51ZM275.08,30c13.31,1.74,8.29,7.06,5.87,4.82a17,17,0,0,0-6-4.5Z" transform="translate(6.32)" fill="#fff"/><path d="M302.42,18a1.72,1.72,0,0,1-1,.53v15a3.75,3.75,0,0,1-2.31.84h-.43v-2h-3.78v1.87c0,.33-1,1-2.24,1h-.44V16.16L295,17.35h.15c.18-1.39.4-3.36.52-4.77l4,1c-.1.43-.44.61-1,.61-.64.88-1.61,2.19-2.41,3.18h2.17l1.31-1.52Zm-7.56.08v6.26h3.78V18.08Zm3.78,13.63V25.07h-3.78v6.64ZM314.56,18a1.61,1.61,0,0,1-1.09.48c-.18,10.17-.52,14.79-1.89,16.28A4.52,4.52,0,0,1,308,36.12a2.84,2.84,0,0,0-.55-2.07,5.14,5.14,0,0,0-2.64-1.11l0-.35c1.19.1,2.91.23,3.55.23a1.15,1.15,0,0,0,.92-.33c.92-.86,1.17-5.88,1.35-14.49H306a19.08,19.08,0,0,1-4.2,5.3l-.33-.2a37.62,37.62,0,0,0,3.36-10.55l3.93,1.16c-.1.33-.4.51-1,.51a26.62,26.62,0,0,1-1.39,3h3.95l1.57-1.64Zm-11,4.42c7.26,2.17,4.55,7.62,1.91,5.37a11.23,11.23,0,0,0-2.11-5.22Z" transform="translate(6.32)" fill="#fff"/><path d="M336.21,22.82a29.64,29.64,0,0,1-6.72,3.79l1.44.12c0,.33-.27.56-.79.64v.78h7.73l1.52-2s1.69,1.36,2.71,2.3c-.07.27-.35.4-.69.4H330.14V32c0,.45.17.55,1.54.55h4.53c1.59,0,3.06,0,3.68,0a1.2,1.2,0,0,0,1-.37,11.25,11.25,0,0,0,1.27-2.58h.27l.07,2.63c1,.3,1.32.6,1.32,1.16,0,1.38-1.29,1.79-7.81,1.79h-4.45c-3.33,0-4.28-.35-4.28-2.55V27.42a42.31,42.31,0,0,1-6.07,1.43l-.12-.37a34.38,34.38,0,0,0,11.49-5.66H321.33l-.2-.73h7.94V17.67h-5.22l-.2-.7h5.42V12.53l3.73.3c-.05.35-.22.55-.8.65V17h1.87l1.49-2s1.64,1.34,2.69,2.27a25,25,0,0,0,2.19-3.71l3.45,2c-.17.25-.44.38-1,.23a24.48,24.48,0,0,1-5.52,6.38h2.78l1.54-2s1.77,1.39,2.84,2.35c-.07.28-.32.4-.7.4Zm-2.74-.73a27.63,27.63,0,0,0,4.28-4.47,1.23,1.23,0,0,1-.35.05H332v4.42Z" transform="translate(6.32)" fill="#fff"/><path d="M358.05,24.94l2.54,2a1.74,1.74,0,0,1-1,.48V34a3.82,3.82,0,0,1-2.09.68h-.45V33h-2.74v1.66c0,.21-.79.84-2.09.84h-.44v-20l2.53,1c.1-1.16.2-2.87.23-4.08l3.78.65c-.08.4-.4.61-1,.66-.52.83-1.34,2-1.94,2.9h1.27L358,15.35l2.54,2a1.7,1.7,0,0,1-.95.48v5.58a3.93,3.93,0,0,1-2.11.65H357V22.8h-2.64v3.48h2.49Zm-3.71-7.54v4.67H357V17.4Zm2.74,14.91V27h-2.74v5.32ZM368.4,15.63v3.61h1.84l1.19-1.36,2.61,2a1.5,1.5,0,0,1-.92.48v9.21c0,1.87-.32,2.9-2.91,3.16a5.85,5.85,0,0,0-.25-1.95,1.42,1.42,0,0,0-1.14-.8v-.38s1,.07,1.29.07.38-.12.38-.4V20H368.4V35.34c0,.18-.87.78-2.27.78h-.49V20h-2V32.11c0,.18-.79.81-2.16.81h-.45V18.1L364,19.24h1.65V15.63h-4.93l-.2-.71H370l1.55-2.07s1.69,1.42,2.71,2.38a.62.62,0,0,1-.67.4Z" transform="translate(6.32)" fill="#fff"/><path d="M401.78,26.94s1.62,1.36,2.59,2.32c-.08.28-.35.4-.7.4h-4.25v5.76c0,.17-.87.75-2.34.75h-.52V29.66h-3.91l-.2-.73h4.11V24h-3.38l-.2-.73h3.58V18.84h-2.32a.62.62,0,0,1-.59.3h-2.17v4.79a4.62,4.62,0,0,1-2.26.66h-.45V23.23h-2.88A21.21,21.21,0,0,1,385,26l1.24.48h2.59L390.09,25l2.71,2.1a1.86,1.86,0,0,1-.94.48v7.22a4.23,4.23,0,0,1-2.34.73h-.47V33.85h-3.16v1.34c0,.2-.8.81-2.12.81h-.47V29a15.48,15.48,0,0,1-2.39,2.65l-.35-.35a20.48,20.48,0,0,0,3-8h-2.19l-.22-.71h2.51c.15-1.14.25-2.27.3-3.38h-3.09l-.2-.73H384c0-1.11,0-2.2.08-3.26h-2.37l-.22-.71h7.06L389.79,13l2.71,2.09a1.83,1.83,0,0,1-1,.53V18l.85-1.34s.75.74,1.42,1.47h4.37a52.52,52.52,0,0,0,1.22-5.65L403,13.61c-.1.28-.39.51-.94.46a35.36,35.36,0,0,1-3.38,4.06h1.54l1.42-1.92s1.59,1.31,2.56,2.22a.62.62,0,0,1-.67.41h-4.13V23.3h.69l1.4-1.89s1.51,1.31,2.43,2.22c-.05.28-.32.4-.67.4h-3.85v4.9h.92Zm-15.89.2v6h3.16v-6Zm2.88-8h-2.19c-.12,1.13-.29,2.27-.52,3.38h2.71Zm-2-4c0,1.06-.08,2.17-.18,3.26h2.14V15.15ZM394,12.63c5.7,2.24,2.74,6.56.67,4.39a8.79,8.79,0,0,0-.92-4.27Z" transform="translate(6.32)" fill="#fff"/><path d="M148.89,48.82c-.1.33-.4.53-1,.53a37.33,37.33,0,0,1-2,5.4l1.44.53c-.1.23-.32.4-.79.48V70.6a3.37,3.37,0,0,1-2.17.76h-.47V58.28a17.93,17.93,0,0,1-2.06,2.58l-.33-.2a49.58,49.58,0,0,0,3.64-13Zm14.94,5a26.86,26.86,0,0,1-2.61,10.65,13.56,13.56,0,0,0,4.4,4l-.09.25a3.36,3.36,0,0,0-2.64,2.6,12.91,12.91,0,0,1-3.11-4.59A16.46,16.46,0,0,1,154,71.36l-.2-.25a17.64,17.64,0,0,0,5.1-6.92,41,41,0,0,1-1.19-7.32,15.69,15.69,0,0,1-1.8,2.37l-.32-.17a30,30,0,0,0,1.29-4.67h-3.45v5.17h.27l1.1-1.24,2,2a1.41,1.41,0,0,1-.89.43v7.54a2.91,2.91,0,0,1-2,.74h-.5V67.42h-2.73v1.64c0,.28-1.05.83-2.09.83h-.4V58.46l2.49,1.06V54.4h-3.31l-.2-.71h3.51v-5.9l3.58.32c0,.33-.25.56-.82.66v4.92h.72l1.27-1.89s.89.83,1.66,1.59a42.82,42.82,0,0,0,.7-5.71l3.88.86a.93.93,0,0,1-.95.58,30.23,30.23,0,0,1-1.19,3.94h2.14l1.39-2.12s1.62,1.46,2.54,2.42c0,.28-.32.41-.67.41ZM153.41,66.69V60.25h-2.73v6.44Zm5.85-12.92a21.6,21.6,0,0,1-1.15,2.42,23.63,23.63,0,0,0,1.64,5.63,33.27,33.27,0,0,0,1.15-8Z" transform="translate(6.32)" fill="#fff"/><path d="M174.93,56.24a18.59,18.59,0,0,1-2.93,2.6l-.25-.2a39.09,39.09,0,0,0,4.65-11l4,1.41c-.1.31-.42.53-1,.48a30.56,30.56,0,0,1-1.82,3.36l1.1.4a.91.91,0,0,1-.77.48v8.13a3.69,3.69,0,0,1-2.39.78l-.55,0Zm.75,6.76c1.22,3.13.3,5.35-.92,6.11a1.51,1.51,0,0,1-2.29-.53,1.62,1.62,0,0,1,.95-1.92A4.21,4.21,0,0,0,175.33,63Zm13.78,5c.87.27,1.09.6,1.09,1.13,0,1.26-1.22,1.62-6.12,1.62h-3.21c-2.83,0-3.48-.48-3.48-2.43V62.45l3.71.3c0,.35-.27.56-.77.66V67.8c0,.35.12.45,1,.45h3c1.07,0,2,0,2.44,0a.84.84,0,0,0,.75-.36A16.81,16.81,0,0,0,189.13,65h.25ZM178.79,56.27a28.25,28.25,0,0,0,3.06-8.66l3.88,1.21c-.1.33-.4.53-1,.53-.25.53-.47,1-.72,1.51h7l1.52-1.56,2.66,2.55a1.47,1.47,0,0,1-1,.33,18.57,18.57,0,0,1-3.63,2.44l-.2-.15a27.59,27.59,0,0,0,.77-2.9h-7.56a15.56,15.56,0,0,1-4.5,4.92Zm6.76-.53c-.1.3-.42.5-1,.45a11.86,11.86,0,0,1-5.27,5.07L179,61a17,17,0,0,0,3-6.57Zm-3,5.75c6.29,1.92,3.6,6.44,1.37,4.37a8.76,8.76,0,0,0-1.62-4.22Zm5.92.45a3.64,3.64,0,0,1-2.22.58h-.52V52.86l3.66.35c-.05.36-.25.58-.92.68Zm1.37.69c7.26,2.29,4.57,8,1.94,5.67a10,10,0,0,0-2.19-5.52Zm0-7.55c7.38,2.25,4.95,7.7,2.31,5.6a13,13,0,0,0-2.54-5.45Z" transform="translate(6.32)" fill="#fff"/><path d="M216.62,49.4a3.23,3.23,0,0,1-2.08.61c1.84,2.32,6.34,4.74,10.79,5.8v.3a4.17,4.17,0,0,0-2.66,2.78c-3.61-2-7.09-5.27-8.73-8.81-2.51,4.24-7.17,7.78-12.31,9.79l-.15-.25c3.78-2.42,7.26-6.18,8.78-9.69h-4.13l-.23-.73h7.24l.92-1.52Zm4.9,18.27s1.82,1.42,2.94,2.43c-.08.27-.32.4-.7.4h-21l-.2-.71h9.05v-5.4h-6.42l-.2-.7h6.62V58.86h-5.5l-.2-.73h10.43l1.46-1.84s1.67,1.26,2.71,2.17c-.07.28-.34.4-.69.4h-5.15v4.83H218l1.54-2s1.72,1.36,2.79,2.3c-.05.28-.32.4-.67.4h-7v5.4h5.17Z" transform="translate(6.32)" fill="#fff"/><path d="M251.65,50.76s1.91,1.49,3.06,2.53c-.08.28-.35.4-.7.4H242c-.1,1.49-.22,2.93-.42,4.32h5.92l1.57-1.54,2.66,2.32a1.65,1.65,0,0,1-1.07.45c-.35,6.36-1,9.85-2.41,11a5,5,0,0,1-3.48,1.06,2.59,2.59,0,0,0-.53-2,5.74,5.74,0,0,0-2.63-1.11l0-.3c1.17.08,3,.2,3.58.2a1.32,1.32,0,0,0,1-.25c.77-.68,1.29-4,1.56-9.11h-6.29c-1,5.48-3.43,10-9.6,12.72l-.17-.25c5.67-4.4,6.94-10.6,7-17.52h-7l-.2-.73H250Zm-11.24-3.15c7.56.88,5.17,6.64,2.31,4.64a10.3,10.3,0,0,0-2.49-4.49Z" transform="translate(6.32)" fill="#fff"/><path d="M267.92,55.18c-.07.23-.3.4-.77.48V70.47a3.47,3.47,0,0,1-2.39.89h-.54V58.08A23.07,23.07,0,0,1,261.11,61l-.28-.2a42.81,42.81,0,0,0,5.25-13.15L270.23,49c-.12.33-.44.53-1,.53a31,31,0,0,1-2.56,5.23ZM281.7,66.74s1.92,1.56,3.06,2.62c-.08.28-.32.41-.7.41H267.8l-.2-.73h8.68a117.33,117.33,0,0,0,2.29-13.53l4.15,1c-.1.35-.37.58-1,.6a67.42,67.42,0,0,1-5,11.92H280ZM268.22,53.79h11.49l1.64-2.17s1.84,1.47,2.94,2.47a.62.62,0,0,1-.67.41h-15.2Zm2,2.15c7.94,7.75,3.56,14.23,1.62,11,0-2.78-.32-7.39-1.94-10.78Zm2.89-8.2c7.34,1.76,4.53,7.36,1.74,5.07a10.38,10.38,0,0,0-1.94-4.92Z" transform="translate(6.32)" fill="#fff"/><path d="M302.43,53.19a1.84,1.84,0,0,1-1.05.53v15a3.8,3.8,0,0,1-2.31.83h-.43v-2h-3.78v1.87c0,.32-1,1-2.23,1h-.45V51.34L295,52.53h.15c.18-1.39.4-3.36.53-4.77l4,1c-.1.43-.44.61-1,.61-.64.88-1.61,2.2-2.41,3.18h2.17L299.71,51Zm-7.57.07v6.26h3.78V53.26Zm3.78,13.63V60.25h-3.78v6.64Zm15.92-13.7a1.71,1.71,0,0,1-1.09.48c-.18,10.17-.52,14.79-1.89,16.27A4.53,4.53,0,0,1,308,71.31a2.83,2.83,0,0,0-.55-2.07,5.06,5.06,0,0,0-2.64-1.11l0-.36c1.19.1,2.91.23,3.55.23a1.15,1.15,0,0,0,.92-.33c.92-.86,1.17-5.88,1.35-14.48H306a19.37,19.37,0,0,1-4.2,5.3l-.33-.21a37.55,37.55,0,0,0,3.36-10.54l3.93,1.16c-.1.32-.4.5-1,.5a25.14,25.14,0,0,1-1.39,3.05h3.95l1.57-1.64Zm-11,4.41c7.26,2.17,4.55,7.62,1.91,5.38a11.16,11.16,0,0,0-2.11-5.23Z" transform="translate(6.32)" fill="#fff"/><path d="M338.27,59.65c4.38.58,4.93,2.22,4.25,3.13.55.45,1.3,1.11,1.87,1.64-.08.28-.32.4-.67.4h-5.4V68c0,2-.42,3-3.66,3.36a3.14,3.14,0,0,0-.59-2,3.68,3.68,0,0,0-2.27-1V68.1s2.77.18,3.29.18.52-.13.52-.43v-3h-14.3l-.2-.73h14.5V62.17l3.56.3c-.05.38-.3.56-.85.66v1h2.11l.58-.78a1.51,1.51,0,0,1-.85-.48,6.21,6.21,0,0,0-1.34-1.52c-3.33.53-7.86,1.09-14.33,1.79a1.21,1.21,0,0,1-.72.54l-1.39-3c1.84.05,5,.05,8.85.05V58.94H327.4v.2c0,.23-1.19.79-2.31.79h-.37V51.6l2.86,1.13h3.65V50.91h-9.42l-.23-.7h9.65V47.66l3.68.33c-.05.35-.27.6-.92.7v1.52h5.6l1.47-2s1.66,1.34,2.66,2.27c-.08.28-.35.4-.7.4h-9v1.82h3.81l1.27-1.39,2.68,2a1.82,1.82,0,0,1-1,.53v5a3.67,3.67,0,0,1-2.27.76ZM325.34,65.3c7.34,0,5.67,5.53,2.83,4a8.64,8.64,0,0,0-3-3.86Zm2.06-11.86v2h3.83v-2Zm3.83,4.79v-2H327.4v2ZM334,53.44v2h4.06v-2Zm4.06,2.75H334v2h4.06Zm-.1,4.49a8.53,8.53,0,0,0-1.79-.88l.1-.33c.64,0,1.24.08,1.79.15v-.68H334v1.77Z" transform="translate(6.32)" fill="#fff"/><path d="M373.37,62.52a1.59,1.59,0,0,1-.94.46c-.25,4.39-.63,6.79-1.75,7.67a3.85,3.85,0,0,1-2.41.68,2.41,2.41,0,0,0-.4-1.54l-.05-.05a1.1,1.1,0,0,1-1.54,0,2.91,2.91,0,0,0-.4-1.23c-1.91.42-4.52,1-8.13,1.59a.91.91,0,0,1-.65.53l-1.26-2.68c1.19,0,3.28,0,5.74,0V66.76H360v0c0,.21-1.05.66-1.94.66h-.33v-3.1a14.59,14.59,0,0,1-2.51,1.23l-.25-.25a14.22,14.22,0,0,0,3.26-4.21,3.83,3.83,0,0,1-1.17.2h-.32V57.05l-.92-1.74c.74-.1,2-.31,3.48-.56a13.34,13.34,0,0,0-2.74-1.66l.18-.28c3.43-.61,4.32.88,4,1.69l1.91-.35V52.66l3.51.32c0,.26-.18.46-.72.56v.68a12.88,12.88,0,0,1,1.44.08c.92-.51,2-1.16,2.74-1.67v-.15h-14v4.34c0,4.64-.15,10.63-4.52,14.56l-.3-.2C352.85,67,353,61.67,353,56.82V48l3.11,1.16h13.26l1.22-1.39,2.73,2a1.93,1.93,0,0,1-1,.53v2.28a3.5,3.5,0,0,1-1.4.48l.85.85c-.12.15-.37.15-.72,0-.52.15-1.34.38-2.24.56,5.25.83,4.35,3,3,2.6-.17-.08-.37-.15-.57-.25l1.27.93a1.58,1.58,0,0,1-.82.43v2.12c0,.07-.2.18-.5.28Zm-3.8-10.77v-1.9h-14v1.9Zm-7,5.07v-2c-1.14.51-2.58,1.14-4.38,1.87l1.17.45h9.43l.85-.9c-1.32-.46-2.91-1-4.28-1.34v1.29a4.11,4.11,0,0,1-2.29.58Zm5.8,11.86a.53.53,0,0,0,.49-.2c.45-.45.73-2.47.9-5.93h-9.73c-.37.35-.79.68-1.21,1l1.21.5h1.52V62.73l3,.3c-.05.25-.18.43-.63.5v.53h1.84l1.05-1L369,64.62a1.11,1.11,0,0,1-.6.3v1.72a3.83,3.83,0,0,1-1.94.58H366c1.27.35,1.87.91,2,1.46ZM361,57.91h-1.79v2H361Zm9.67,2.82a5.29,5.29,0,0,1-1.19.2H369v-.35h-9.52l2.58.51c-.1.27-.39.45-1.11.5l-.2.23h8.78Zm-9.1,5.33V64.8H360v1.26ZM365,57.91h-1.67v2H365Zm1,6.89h-2v1.26h2Zm-.5,3.07a7.61,7.61,0,0,0-.52-.63l.22-.2a5.57,5.57,0,0,1,.8.18v-.46h-2V67.9Zm3.53-10h-1.81v2H369Z" transform="translate(6.32)" fill="#fff"/><path d="M386.49,69.79v.58c0,.16-.65.66-1.7.66h-.32v-8.1c-.22.25-.45.48-.67.71l-.05,0a17.52,17.52,0,0,1-3,7.77l-.32-.17c1.29-4.67,1.22-10.43,1.22-15.1V49.63l2,.76a37,37,0,0,0,6.5-2.53l2.61,2.68a1.58,1.58,0,0,1-1.52-.08,49,49,0,0,1-7.06.66v1.39h5.62L391,51.24l2.49,1.87a1.71,1.71,0,0,1-.92.48v3.15a3.39,3.39,0,0,1-2.07.71H390v-.88H384.2a47.51,47.51,0,0,1-.28,5.75,24.78,24.78,0,0,0,1.45-5.63l2.46.76c-.08-.12-.18-.23-.25-.33l.25-.17c3.83.7,2.14,3.53.67,2.34A3.78,3.78,0,0,0,388,57.7a1,1,0,0,1-.82.31c-.2.53-.4,1-.63,1.54l.25.1h3.51l1-1.26s1.09.88,1.81,1.56a.56.56,0,0,1-.62.4h-2.26v2.28h.22l.87-1.17a19.31,19.31,0,0,1,1.52,1.47c-.05.28-.28.4-.6.4h-2v2.5h.29l.87-1.19s1,.86,1.57,1.49c-.05.28-.27.41-.6.41h-2.13v2.55h.27l1-1.32s1.17.91,2,1.62a.59.59,0,0,1-.65.4ZM384.2,53.21v2.63H390V53.21Zm2.29,7.14v2.28h1.66V60.35Zm1.66,3h-1.66v2.5h1.66Zm0,3.21h-1.66v2.55h1.66Zm13.31-18.83s1.69,1.39,2.71,2.32c-.05.28-.32.41-.7.41h-3.63a35.11,35.11,0,0,1-2.14,2.9H400l1.22-1.29,2.44,1.89a1.57,1.57,0,0,1-.85.46V65.45a3.57,3.57,0,0,1-2.16.73h-.43V65.3h-3.75v.4c0,.13-.2.31-.52.46l2.66,1.29c-.1.22-.35.27-.77.2a13.58,13.58,0,0,1-5.18,3.71l-.22-.33a14.07,14.07,0,0,0,2.93-4.62,4.28,4.28,0,0,1-1,.15h-.4V52.23l2.64,1.11h.3c.07-.89.15-2,.15-2.9h-4l-.2-.74H400Zm-5,6.36v3h3.75v-3Zm0,6.71h3.75v-3h-3.75Zm3.75,3.79V61.51h-3.75v3.06Zm-1.29,1.51c7.26,1.34,5.45,6.54,2.79,4.9a13.41,13.41,0,0,0-3-4.72Z" transform="translate(6.32)" fill="#fff"/><path d="M414.42,56.47V70.3c0,.35-1,1.06-2.29,1.06h-.47V48.19l2.86,1.26h3.63l1.22-1.34,2.59,2a1.47,1.47,0,0,1-.92.48v6.92a4.2,4.2,0,0,1-2.19.68h-.45V56.47Zm0-6.29v2.4h4v-2.4Zm4,5.56V53.29h-4v2.45ZM427,66.87a3.7,3.7,0,0,1-2.24.8h-.5V66.16h-4.55v1.13c0,.26-1.17.86-2.29.86H417V59l2.79,1.11h4.23l1.27-1.34,2.61,2a1.63,1.63,0,0,1-.92.48Zm-2.74-1.42V60.86h-4.55v4.59Zm9.38-15.32a1.87,1.87,0,0,1-1,.53V68c0,1.91-.42,2.92-3.48,3.18a3.27,3.27,0,0,0-.5-1.82,2.74,2.74,0,0,0-1.87-.86v-.35s2.07.15,2.54.15.52-.2.52-.53V56.47h-4.1v.58c0,.25-1.12.86-2.26.86h-.38V48.32l2.76,1.13h3.73l1.3-1.54Zm-7.91,0v2.4h4.1v-2.4Zm4.1,5.56V53.29h-4.1v2.45Z" transform="translate(6.32)" fill="#fff"/></svg>