<svg width="220" height="50" viewBox="0 0 220 50" fill="none" xmlns="http://www.w3.org/2000/svg">
<path d="M8.31912 23.8219C8.31912 25.5589 8.44319 26.7996 8.93946 27.4199C9.31167 27.9162 9.93202 28.1644 12.7856 28.1644C16.6318 28.1644 17.2521 28.0403 18.865 24.3182C19.2372 24.1941 19.7335 24.1941 19.9816 24.5663C19.6094 26.1792 18.741 28.7847 18.3687 29.7773C16.8799 29.6532 13.9022 29.6532 9.93202 29.6532H6.33401C4.59703 29.6532 2.73599 29.6532 1.37123 29.7773C1.12309 29.6532 0.999017 28.9088 1.24716 28.7847L2.23971 28.5366C3.85262 28.2884 4.22482 28.1644 4.22482 24.5663V11.539C4.22482 7.94103 3.85262 7.81696 2.23971 7.56882L1.24716 7.44475C0.999017 7.19661 0.999017 6.57626 1.37123 6.32812C3.1082 6.45219 4.7211 6.45219 6.33401 6.45219C7.82284 6.45219 9.43574 6.45219 11.0486 6.32812C11.2968 6.57626 11.2968 7.19661 11.0486 7.44475L10.3042 7.56882C8.56726 7.81696 8.31912 7.94103 8.31912 11.539V23.8219Z" fill="#040000"/>
<path d="M26.6816 8.68395C26.6816 11.4135 24.3243 13.2745 21.8429 13.8949C21.5948 13.6467 21.4707 13.2745 21.5948 13.0264C23.0836 12.406 24.4484 11.4135 24.4484 9.80058C24.4484 8.68395 23.3317 8.06361 22.5873 7.93954C22.091 7.81547 21.4707 7.44326 21.4707 6.69884C21.4707 6.07849 21.8429 5.08594 23.4558 5.08594C25.1928 5.08594 26.6816 6.82291 26.6816 8.68395Z" fill="#040000"/>
<path d="M30.4023 15.5087C30.4023 6.69975 36.978 0 46.0351 0C56.2088 0 61.2956 7.3201 61.2956 15.0124C61.2956 23.8213 54.5959 30.273 46.0351 30.273C36.2336 30.397 30.4023 23.3251 30.4023 15.5087ZM56.8291 16.3772C56.8291 9.18114 53.6033 1.36476 45.2907 1.36476C40.7001 1.36476 34.7448 4.4665 34.7448 14.1439C34.7448 20.5955 37.8465 29.0323 46.5314 29.0323C51.8664 29.0323 56.8291 25.062 56.8291 16.3772Z" fill="#040000"/>
<path d="M86.3586 12.4076C86.1105 12.6558 85.4902 12.7798 85.242 12.5317C84.6217 10.2984 83.0088 7.44484 78.4182 7.44484C73.9517 7.44484 69.4852 10.5466 69.4852 17.7426C69.4852 25.1868 74.1998 28.9089 78.6663 28.9089C83.1328 28.9089 84.9939 25.9312 85.9864 23.6979C86.3586 23.3257 86.8549 23.5739 86.979 23.822C86.7309 26.1793 85.7383 28.5367 85.242 29.157C84.8698 29.2811 84.3735 29.4051 84.0013 29.5292C83.2569 29.7773 80.7755 30.3977 78.5423 30.3977C75.0683 30.3977 72.0907 29.6533 69.6093 28.0404C66.7557 26.1793 64.6465 22.9535 64.6465 18.363C64.6465 14.2687 66.5075 11.0429 69.113 9.05775C71.7184 7.07263 75.3165 6.08008 78.7904 6.08008C80.7755 6.08008 83.2569 6.45229 84.8698 6.82449C85.242 6.94856 85.4902 6.94856 85.8624 7.07263C85.9864 7.69298 86.1105 9.80216 86.3586 12.4076Z" fill="#040000"/>
<path d="M110.8 12.4076C110.552 12.6558 109.932 12.7798 109.683 12.5317C109.063 10.2984 107.45 7.44484 102.86 7.44484C98.3931 7.44484 93.9266 10.5466 93.9266 17.7426C93.9266 25.1868 98.6412 28.9089 103.108 28.9089C107.574 28.9089 109.435 25.9312 110.428 23.6979C110.8 23.3257 111.296 23.5739 111.42 23.822C111.172 26.1793 110.18 28.5367 109.683 29.157C109.311 29.2811 108.815 29.4051 108.443 29.5292C107.698 29.7773 105.217 30.3977 102.984 30.3977C99.5097 30.3977 96.5321 29.6533 94.0507 28.0404C91.1971 26.1793 89.0879 22.9535 89.0879 18.363C89.0879 14.2687 90.9489 11.0429 93.5544 9.05775C96.1599 7.07263 99.7579 6.08008 103.232 6.08008C105.217 6.08008 107.698 6.45229 109.311 6.82449C109.683 6.94856 109.932 6.94856 110.304 7.07263C110.304 7.69298 110.428 9.80216 110.8 12.4076Z" fill="#040000"/>
<path d="M120.23 24.5653C120.23 28.2874 120.602 28.4115 122.215 28.6596L122.959 28.7837C123.207 29.0318 123.207 29.6522 122.835 29.7762C121.346 29.6522 119.733 29.6522 118.12 29.6522C116.632 29.6522 114.895 29.6522 113.406 29.7762C113.158 29.6522 113.034 29.0318 113.282 28.7837L114.026 28.6596C115.639 28.4115 116.011 28.2874 116.011 24.5653V11.538C116.011 7.81594 115.639 7.69187 114.026 7.44373H113.406C113.158 7.19559 113.158 6.57524 113.53 6.45117C115.019 6.57524 116.632 6.57524 118.245 6.57524C119.733 6.57524 121.346 6.57524 122.959 6.45117C123.207 6.57524 123.331 7.19559 123.083 7.44373L122.339 7.5678C120.726 7.81594 120.354 7.94001 120.354 11.6621V24.5653H120.23Z" fill="#040000"/>
<path d="M134.499 9.42921C134.499 7.94037 134.499 7.94037 133.506 7.94037H131.521C128.295 7.94037 127.303 8.31258 126.062 11.1662C125.814 11.4143 125.069 11.2902 124.945 10.918C125.566 9.057 126.062 6.82375 126.31 5.58305C126.434 5.45898 126.558 5.45898 126.682 5.45898C126.806 5.45898 126.93 5.45898 127.054 5.58305C127.179 6.45154 127.675 6.45154 130.156 6.45154H144.424C146.161 6.45154 146.657 6.32747 147.03 5.58305C147.154 5.45898 147.278 5.45898 147.402 5.45898C147.65 5.45898 147.774 5.58305 147.898 5.58305C147.526 7.07189 147.278 10.0496 147.402 11.1662C147.278 11.4143 146.657 11.5384 146.285 11.2902C145.789 8.56072 145.169 7.94037 141.447 7.94037H139.461C138.593 7.94037 138.469 8.06444 138.469 9.42921V24.5657C138.469 28.2878 138.841 28.4118 140.454 28.5359L141.695 28.66C141.943 28.9081 141.943 29.5285 141.571 29.6525C139.586 29.5285 137.973 29.5285 136.36 29.5285C134.871 29.5285 133.134 29.5285 130.901 29.6525C130.653 29.5285 130.528 28.784 130.777 28.66L132.514 28.5359C134.126 28.4118 134.499 28.2878 134.499 24.5657V9.42921Z" fill="#040000"/>
<path d="M155.714 21.0926C154.845 21.0926 154.845 21.0926 154.473 22.0851L152.984 26.3035C152.24 28.4127 152.364 28.5367 153.728 28.6608L154.721 28.7849C154.969 29.033 154.969 29.6534 154.597 29.7774C153.48 29.6534 152.364 29.6534 150.875 29.6534C149.758 29.6534 148.642 29.6534 147.401 29.7774C147.153 29.6534 147.153 29.033 147.401 28.7849L148.394 28.6608C149.386 28.5367 149.758 28.1645 150.379 27.0479C150.751 26.1794 151.371 24.6906 152.116 22.7055L156.954 10.1745C157.451 9.05784 157.699 8.18935 157.575 7.569C158.815 7.32087 159.932 5.83203 160.056 5.83203C160.304 5.83203 160.552 5.9561 160.676 6.08017C161.297 7.69307 161.669 9.30598 162.289 10.9189L167.376 25.6831C168.245 28.0405 168.369 28.2886 170.106 28.5367L170.602 28.6608C170.85 28.909 170.85 29.5293 170.602 29.6534C169.113 29.5293 167.872 29.5293 166.011 29.5293C164.523 29.5293 162.91 29.6534 161.669 29.6534C161.421 29.5293 161.297 28.7849 161.545 28.6608L162.289 28.5367C163.53 28.4127 163.654 28.1645 163.158 26.6757L161.545 21.9611C161.173 20.9685 161.049 20.9685 160.056 20.9685H155.714V21.0926ZM159.808 19.4797C160.8 19.4797 160.925 19.3556 160.676 18.6112L159.188 14.3928C158.567 12.5318 158.443 11.9114 158.195 11.6633H158.071C157.947 11.9114 157.699 12.7799 157.078 14.3928L155.59 18.4871C155.217 19.4797 155.341 19.4797 156.21 19.4797H159.808Z" fill="#040000"/>
<path d="M193.802 23.6968C193.802 24.6894 193.802 29.0318 193.927 29.9003C193.678 30.2725 193.182 30.3966 192.686 30.3966C192.066 29.6522 191.073 28.4115 188.592 25.5579L180.403 16.1286C178.17 13.5231 177.053 12.2824 176.433 11.6621C176.309 11.6621 176.309 12.0343 176.309 13.8953V20.7192C176.309 23.3246 176.309 26.5504 176.929 27.6671C177.301 28.1633 177.798 28.4115 178.666 28.5355L179.41 28.6596C179.783 28.9078 179.659 29.5281 179.286 29.6522C178.046 29.5281 176.557 29.5281 175.316 29.5281C173.827 29.5281 172.835 29.5281 171.718 29.6522C171.47 29.5281 171.346 28.9078 171.594 28.6596L172.338 28.5355C172.959 28.4115 173.579 28.2874 173.827 27.6671C174.324 26.5504 174.324 23.5728 174.324 20.7192V12.4065C174.324 9.67698 174.324 9.05663 173.207 8.06408C172.835 7.69187 171.842 7.44373 171.346 7.31966L170.974 7.44373C170.726 7.19559 170.726 6.57524 171.098 6.45117C172.463 6.57524 174.324 6.57524 175.192 6.57524C175.936 6.57524 176.805 6.57524 177.673 6.45117C178.294 7.94001 182.14 12.4065 183.381 13.7713L186.855 17.6174C188.343 19.2303 191.569 22.9524 191.941 23.2006C192.066 23.0765 192.066 22.9524 192.066 22.3321V15.5082C192.066 12.9028 192.066 9.67698 191.445 8.56035C191.073 8.06408 190.577 7.81594 189.708 7.69187L188.84 7.44373C188.468 7.19559 188.592 6.57524 188.964 6.45117C190.329 6.57524 191.693 6.57524 193.058 6.57524C194.547 6.57524 195.539 6.57524 196.78 6.45117C197.028 6.57524 197.152 7.19559 196.904 7.44373L195.788 7.5678C195.167 7.69187 194.547 7.81594 194.299 8.43628C193.803 9.55291 193.802 12.5306 193.802 15.3842V23.6968Z" fill="#040000"/>
<path d="M201.867 11.538C201.867 7.81594 201.495 7.69187 199.882 7.44373H199.386C199.137 7.19559 199.137 6.57524 199.51 6.45117C200.874 6.57524 202.487 6.57524 203.976 6.57524H210.676C212.909 6.57524 214.894 6.57524 215.391 6.45117C215.515 7.07152 215.763 9.80105 216.011 11.2899C215.887 11.538 215.142 11.6621 214.894 11.414C214.274 9.42884 213.778 8.56035 212.661 8.18814C211.917 7.94001 210.8 7.81594 209.807 7.81594H207.45C205.961 7.81594 205.961 7.94001 205.961 9.92512V15.8805C205.961 16.7489 205.961 16.873 206.83 16.873H208.567C211.668 16.873 212.165 16.873 212.413 15.3842L212.661 14.1435C212.909 13.8953 213.654 13.8953 213.778 14.1435C213.778 15.136 213.654 16.3767 213.654 17.6174C213.654 18.9822 213.778 20.2229 213.778 21.3395C213.654 21.5876 212.909 21.5876 212.661 21.3395L212.413 19.9747C212.165 18.4859 211.544 18.4859 208.567 18.4859H206.83C205.961 18.4859 205.961 18.61 205.961 19.4785V23.945C205.961 25.6819 206.085 27.0467 206.582 27.543C206.954 28.0393 207.574 28.2874 210.552 28.2874C215.018 28.4115 215.763 27.2948 217.003 24.4412C217.376 24.1931 217.872 24.3172 218.12 24.6894C217.872 26.1782 217.127 28.7837 216.631 29.7762C215.142 29.6522 212.041 29.6522 207.946 29.6522H203.976C202.487 29.6522 200.254 29.6522 198.765 29.7762C198.517 29.6522 198.393 29.0318 198.641 28.7837L199.882 28.6596C201.495 28.5355 201.867 28.4115 201.867 24.6894V11.538Z" fill="#040000"/>
<path d="M46.7801 43.1764C46.7801 43.6727 46.7801 43.6727 47.2763 43.6727H48.393C49.2615 43.6727 49.3855 43.5486 49.6337 42.8042L49.7577 42.432C49.8818 42.3079 50.254 42.3079 50.3781 42.432C50.3781 42.9283 50.3781 43.5486 50.3781 44.169C50.3781 44.7893 50.3781 45.4097 50.3781 45.9059C50.254 46.03 49.8818 46.03 49.7577 45.9059L49.6337 45.5337C49.5096 44.7893 49.2615 44.6652 48.393 44.6652H47.2763C46.7801 44.6652 46.7801 44.6653 46.7801 45.1615V47.1466C46.7801 47.8911 46.9041 48.3873 47.0282 48.6355C47.2763 48.8836 47.5245 49.0077 48.7652 49.0077C50.1299 49.0077 50.7503 49.0077 51.6188 47.1466C51.7428 47.0226 52.1151 47.0226 52.2391 47.2707C52.1151 48.1392 51.7428 49.3799 51.4947 49.8762C50.6262 49.8762 49.0133 49.8762 47.7726 49.8762H45.6634C44.919 49.8762 44.0505 49.8762 42.8098 49.8762C42.6858 49.7521 42.6858 49.3799 42.8098 49.2558L43.5543 49.1317C44.2987 49.0077 44.4228 48.8836 44.4228 47.3948V41.3154C44.4228 39.8265 44.2987 39.7025 43.5543 39.5784L43.1821 39.4543C43.058 39.3303 43.058 38.9581 43.1821 38.834C43.9265 38.834 44.795 38.834 45.5394 38.834H49.0133C50.0059 38.834 50.9984 38.834 51.2466 38.834C51.2466 39.0821 51.3706 40.3228 51.4947 41.3154C51.3706 41.4394 50.9984 41.5635 50.8744 41.4394C50.7503 40.8191 50.5022 40.3228 50.254 40.1988C49.8818 39.9506 49.3855 39.7025 48.6411 39.7025H47.4004C46.9041 39.7025 46.9041 39.7025 46.9041 40.3228V43.1764H46.7801Z" fill="#040000"/>
<path d="M65.019 46.8976C65.019 48.0142 65.019 49.0068 65.019 49.503C64.8949 49.7512 64.3986 49.8752 64.0264 49.8752C64.0264 49.8752 63.5301 49.0068 62.6616 48.1383L58.9396 43.4236C58.0711 42.307 57.4507 41.5626 57.2026 41.3144C57.0785 41.4385 57.0785 41.8107 57.0785 42.307V45.4087C57.0785 46.7735 57.2026 47.8901 57.3267 48.3864C57.4507 48.7586 57.8229 48.8827 58.3192 48.8827L58.8155 49.0068C58.9396 49.1308 58.9396 49.503 58.8155 49.6271C57.947 49.6271 57.3266 49.6271 56.5822 49.6271C55.9619 49.6271 55.3415 49.6271 54.7212 49.6271C54.5971 49.503 54.5971 49.1308 54.7212 49.0068H54.9693C55.4656 48.8827 55.7137 48.7586 55.8378 48.5105C55.9619 48.0142 56.086 46.8976 56.086 45.5328V41.4385C56.086 40.57 56.086 40.3219 55.9619 40.0737C55.8378 39.8256 55.5897 39.5775 55.0934 39.5775L54.5971 39.4534C54.4731 39.3293 54.473 38.9571 54.7212 38.8331C55.4656 38.8331 56.3341 38.8331 56.9544 38.8331C57.4507 38.8331 57.947 38.8331 58.3192 38.8331C58.4433 39.5775 59.5599 40.8182 61.0487 42.5551L62.4135 44.168C63.1579 45.0365 63.6542 45.5328 64.0264 45.905C64.1505 45.7809 64.1505 45.4087 64.1505 45.1606V42.9273C64.1505 41.5626 64.0264 40.446 63.9023 39.9497C63.7783 39.5775 63.4061 39.4534 62.9098 39.4534L62.4135 39.3293C62.2894 39.2053 62.2894 38.8331 62.4135 38.709C63.282 38.709 63.9023 38.709 64.6467 38.709C65.2671 38.709 65.8874 38.709 66.5078 38.709C66.6319 38.8331 66.6319 39.2053 66.5078 39.3293H66.2596C65.8874 39.4534 65.5152 39.5775 65.3912 39.8256C65.2671 40.3219 65.143 41.4385 65.143 42.8033V46.8976H65.019Z" fill="#040000"/>
<path d="M76.9299 41.5625C76.9299 39.9496 76.9299 39.7014 76.1855 39.7014L75.6892 39.5774C75.5651 39.4533 75.5651 39.0811 75.6892 39.0811C76.8058 38.957 78.0465 38.957 79.4113 38.957C80.7761 38.957 81.7686 39.0811 82.389 39.3292C83.3815 39.7014 84.3741 40.5699 84.3741 42.1828C84.3741 44.9124 81.6445 45.2846 80.7761 45.2846C80.5279 45.2846 80.4038 45.2846 80.2798 45.2846C80.1557 45.1605 80.1557 44.9124 80.2798 44.7883C81.6445 44.4161 81.8927 43.4235 81.8927 42.1828C81.8927 40.9421 81.2723 39.7014 79.7835 39.7014C79.1632 39.7014 79.1632 39.8255 79.1632 40.5699V47.3938C79.1632 48.8826 79.2872 49.0067 80.0316 49.1307L80.5279 49.2548C80.652 49.3789 80.652 49.7511 80.5279 49.7511C79.6594 49.7511 78.7909 49.7511 78.0465 49.7511C77.3021 49.7511 76.4336 49.7511 75.5651 49.7511C75.4411 49.627 75.317 49.2548 75.5651 49.2548L76.0614 49.1307C76.8058 49.0067 76.9299 48.8826 76.9299 47.3938V41.5625V41.5625Z" fill="#040000"/>
<path d="M88.8396 41.5635C88.8396 39.9506 88.8396 39.7025 88.0952 39.7025L87.5989 39.5784C87.4748 39.4543 87.4748 39.0821 87.5989 38.9581C88.8396 38.834 90.0803 38.834 91.6932 38.834C93.058 38.834 94.2987 39.0821 94.919 39.4543C95.9116 39.9506 96.4078 40.8191 96.4078 41.8117C96.4078 43.3005 95.4153 43.9208 94.6709 44.293C94.5468 44.4171 94.5468 44.4171 94.5468 44.6653C95.6634 46.8985 96.2838 48.0151 97.0282 48.7595C97.4004 49.1318 97.8967 49.2558 98.1448 49.2558C98.2689 49.3799 98.2689 49.628 98.2689 49.628C98.0207 49.7521 97.5245 49.7521 97.0282 49.7521C95.5394 49.7521 94.5468 49.2558 93.9265 48.0151C93.4302 47.1466 93.058 46.4022 92.6858 45.5337C92.4376 45.0375 92.1895 44.9134 91.8173 44.9134C91.1969 44.9134 91.1969 44.9134 91.1969 45.2856V47.2707C91.1969 48.7595 91.321 48.8836 92.0654 49.0077L92.5617 49.1318C92.6858 49.2558 92.6858 49.628 92.5617 49.7521C91.6932 49.7521 90.9488 49.7521 90.2044 49.7521C89.3359 49.7521 88.7155 49.7521 87.847 49.7521C87.723 49.628 87.723 49.2558 87.847 49.1318L88.3433 49.0077C89.0877 48.8836 89.2118 48.7595 89.2118 47.2707V41.5635H88.8396ZM91.0729 43.6727C91.0729 44.293 91.0729 44.293 92.0654 44.293C92.6858 44.293 92.9339 44.169 93.3061 43.7968C93.5542 43.5486 93.9265 43.0523 93.9265 42.0598C93.9265 40.571 93.058 39.7025 91.8173 39.7025C91.1969 39.7025 91.1969 39.7025 91.0729 40.571V43.6727Z" fill="#040000"/>
<path d="M112.04 44.2921C112.04 47.8901 109.683 49.9993 106.209 49.9993C102.983 49.9993 100.502 47.8901 100.502 44.4162C100.502 41.1904 102.859 38.709 106.333 38.709C109.683 38.709 112.04 40.9422 112.04 44.2921ZM106.209 39.4534C104.224 39.4534 103.107 41.3144 103.107 44.044C103.107 46.0291 103.852 49.2549 106.457 49.2549C108.566 49.2549 109.435 47.1457 109.435 44.5403C109.435 41.6867 108.194 39.4534 106.209 39.4534Z" fill="#040000"/>
<path d="M122.215 45.6577C121.347 47.6428 120.975 48.8835 120.602 49.8761C120.478 50.0001 120.23 50.0001 119.982 50.0001C119.734 50.0001 119.61 50.0001 119.486 49.8761C119.362 49.3798 118.989 48.5113 118.741 48.015L116.136 41.4394C115.516 39.8265 115.516 39.8264 114.771 39.7024L114.275 39.5783C114.151 39.4542 114.151 39.082 114.399 39.082C115.267 39.082 115.764 39.082 116.632 39.082C117.377 39.082 118.121 39.082 119.114 39.082C119.238 39.2061 119.238 39.4542 119.114 39.5783L118.617 39.7024C118.369 39.8264 118.245 39.8264 118.245 40.0746C118.245 40.1987 118.493 40.9431 118.865 41.8116L120.354 45.5336C120.602 46.154 120.726 46.5262 120.851 46.7743C120.975 46.5262 121.223 46.0299 121.347 45.5336L121.967 44.0448C122.339 43.0523 123.084 41.1912 123.208 40.6949C123.332 40.3227 123.332 40.1987 123.332 40.0746C123.332 39.9505 123.332 39.8264 122.836 39.8264L122.339 39.7024C122.215 39.5783 122.215 39.2061 122.463 39.2061C123.208 39.2061 123.828 39.2061 124.449 39.2061C124.945 39.2061 125.441 39.2061 125.937 39.2061C126.061 39.3302 126.061 39.7024 125.937 39.7024L125.565 39.8264C125.069 39.9505 124.821 40.0746 124.697 40.4468C124.324 40.9431 123.952 41.8116 123.332 43.1763L122.215 45.6577Z" fill="#040000"/>
<path d="M131.643 43.1764C131.643 43.6727 131.643 43.6727 132.14 43.6727H133.256C134.125 43.6727 134.249 43.5486 134.497 42.8042L134.621 42.432C134.745 42.3079 135.117 42.3079 135.241 42.432C135.241 42.9283 135.241 43.5486 135.241 44.169C135.241 44.7893 135.241 45.4097 135.241 45.9059C135.117 46.03 134.745 46.03 134.621 45.9059L134.497 45.5337C134.373 44.7893 134.125 44.6652 133.256 44.6652H132.14C131.643 44.6652 131.643 44.6653 131.643 45.1615V47.1466C131.643 47.8911 131.767 48.3873 131.891 48.6355C132.14 48.8836 132.388 49.0077 133.628 49.0077C134.993 49.0077 135.614 49.0077 136.482 47.1466C136.606 47.0226 136.978 47.0226 137.102 47.2707C136.978 48.1392 136.606 49.3799 136.358 49.8762C135.489 49.8762 133.877 49.8762 132.636 49.8762H130.527C129.782 49.8762 128.914 49.8762 127.673 49.8762C127.549 49.7521 127.549 49.3799 127.673 49.2558L128.418 49.1317C129.162 49.0077 129.286 48.8836 129.286 47.3948V41.3154C129.286 39.8265 129.162 39.7025 128.418 39.5784L128.045 39.4543C127.921 39.3303 127.921 38.9581 128.045 38.834C128.79 38.834 129.658 38.834 130.403 38.834H133.877C134.869 38.834 135.862 38.834 136.11 38.834C136.11 39.0821 136.234 40.3228 136.358 41.3154C136.234 41.4394 135.862 41.5635 135.738 41.4394C135.614 40.8191 135.365 40.3228 135.117 40.1988C134.745 39.9506 134.373 39.7025 133.504 39.7025H132.14C131.643 39.7025 131.643 39.7025 131.643 40.3228V43.1764V43.1764Z" fill="#040000"/>
<path d="M149.882 46.8976C149.882 48.0142 149.882 49.0068 149.882 49.503C149.758 49.7512 149.262 49.8752 148.89 49.8752C148.89 49.8752 148.393 49.0068 147.525 48.1383L143.803 43.4236C142.934 42.307 142.314 41.5626 142.066 41.3144C141.942 41.4385 141.942 41.8107 141.942 42.307V45.4087C141.942 46.7735 142.066 47.8901 142.19 48.3864C142.314 48.7586 142.686 48.8827 143.182 48.8827L143.679 49.0068C143.803 49.1308 143.803 49.503 143.679 49.6271C142.81 49.6271 142.19 49.6271 141.446 49.6271C140.825 49.6271 140.205 49.6271 139.584 49.6271C139.46 49.503 139.46 49.1308 139.584 49.0068H139.833C140.329 48.8827 140.577 48.7586 140.701 48.5105C140.825 48.0142 140.949 46.8976 140.949 45.5328V41.4385C140.949 40.57 140.949 40.3219 140.825 40.0737C140.701 39.8256 140.453 39.5775 139.957 39.5775L139.46 39.4534C139.336 39.3293 139.336 38.9571 139.584 38.8331C140.329 38.8331 141.197 38.8331 141.818 38.8331C142.314 38.8331 142.81 38.8331 143.182 38.8331C143.307 39.5775 144.423 40.8182 145.912 42.5551L147.277 44.168C148.021 45.0365 148.517 45.5328 148.89 45.905C149.014 45.7809 149.014 45.4087 149.014 45.1606V42.9273C149.014 41.5626 148.89 40.446 148.766 39.9497C148.642 39.5775 148.269 39.4534 147.773 39.4534L147.277 39.3293C147.153 39.2053 147.153 38.8331 147.277 38.709C148.145 38.709 148.766 38.709 149.51 38.709C150.13 38.709 150.751 38.709 151.371 38.709C151.495 38.8331 151.495 39.2053 151.371 39.3293H151.123C150.751 39.4534 150.379 39.5775 150.254 39.8256C150.13 40.3219 150.006 41.4385 150.006 42.8033V46.8976H149.882Z" fill="#040000"/>
<path d="M164.026 39.0812C164.026 39.3293 164.026 40.6941 164.274 41.5626C164.15 41.8107 163.778 41.8107 163.654 41.6866C163.158 40.1978 162.165 39.3293 160.552 39.3293C158.691 39.3293 156.83 40.8182 156.83 44.168C156.83 47.3938 158.691 49.1308 160.676 49.1308C162.661 49.1308 163.53 47.7661 164.026 46.6494C164.15 46.5254 164.522 46.5254 164.646 46.7735C164.522 48.0142 164.274 49.0067 164.026 49.379C163.158 49.6271 162.041 49.9993 160.676 49.9993C159.063 49.9993 157.45 49.6271 156.334 48.7586C155.217 47.8901 154.225 46.5254 154.225 44.5403C154.225 42.5551 155.093 41.1904 156.21 40.1978C157.326 39.2053 159.063 38.709 160.676 38.709C162.289 38.709 163.53 39.0812 164.026 39.0812Z" fill="#040000"/>
<path d="M171.098 43.1764C171.098 43.6727 171.098 43.6727 171.595 43.6727H172.711C173.58 43.6727 173.704 43.5486 173.952 42.8042L174.076 42.432C174.2 42.3079 174.572 42.3079 174.696 42.432C174.696 42.9283 174.696 43.5486 174.696 44.169C174.696 44.7893 174.696 45.4097 174.696 45.9059C174.572 46.03 174.2 46.03 174.076 45.9059L173.952 45.5337C173.828 44.7893 173.58 44.6652 172.711 44.6652H171.595C171.098 44.6652 171.098 44.6653 171.098 45.1615V47.1466C171.098 47.8911 171.223 48.3873 171.347 48.6355C171.595 48.8836 171.843 49.0077 173.084 49.0077C174.448 49.0077 175.069 49.0077 175.937 47.1466C176.061 47.0226 176.433 47.0226 176.557 47.2707C176.433 48.1392 176.061 49.3799 175.813 49.8762C174.945 49.8762 173.332 49.8762 172.091 49.8762H169.982C169.237 49.8762 168.369 49.8762 167.128 49.8762C167.004 49.7521 167.004 49.3799 167.128 49.2558L167.873 49.1317C168.617 49.0077 168.741 48.8836 168.741 47.3948V41.3154C168.741 39.8265 168.617 39.7025 167.873 39.5784L167.5 39.4543C167.376 39.3303 167.376 38.9581 167.5 38.834C168.245 38.834 169.113 38.834 169.858 38.834H173.332C174.324 38.834 175.317 38.834 175.565 38.834C175.565 39.0821 175.689 40.3228 175.813 41.3154C175.689 41.4394 175.317 41.5635 175.193 41.4394C175.069 40.8191 174.821 40.3228 174.572 40.1988C174.324 39.9506 173.828 39.7025 172.959 39.7025H171.719C171.223 39.7025 171.223 39.7025 171.223 40.3228V43.1764H171.098Z" fill="#040000"/>
</svg>
