<svg width="141" height="141" viewBox="0 0 141 141" fill="none" xmlns="http://www.w3.org/2000/svg">
<path d="M70.3992 140.496C108.668 140.496 139.691 109.474 139.691 71.205C139.691 32.9364 108.668 1.91357 70.3992 1.91357C32.1307 1.91357 1.10791 32.9364 1.10791 71.205C1.10791 109.474 32.1307 140.496 70.3992 140.496Z" fill="#B67272"/>
<path d="M70.5 141C31.6243 141 0 109.376 0 70.5C0 31.6243 31.6243 0 70.5 0C109.376 0 141 31.6243 141 70.5C141 109.376 109.376 141 70.5 141ZM70.5 2.115C32.7321 2.115 2.01429 32.8329 2.01429 70.6007C2.01429 108.369 32.7321 139.086 70.5 139.086C108.268 139.086 138.986 108.369 138.986 70.6007C138.986 32.8329 108.268 2.115 70.5 2.115Z" fill="url(#paint0_linear_332:8729)"/>
<g clip-path="url(#clip0_332:8729)">
<path d="M117.425 63.4589H114.099L109.141 66.0655C108.583 65.7578 108.003 65.4971 107.377 65.3403L101.14 63.781V63.0725C103.899 61.1485 105.583 57.97 105.583 54.5841V51.9985C105.583 46.2524 101.077 41.4438 95.5383 41.2763C95.2572 41.269 94.9803 41.2792 94.702 41.2929L96.319 37.5105L88.48 29.6801L83.859 32.6853C82.1033 31.6973 80.2464 30.9281 78.3179 30.3886L77.1766 25.0015H65.8948L64.7535 30.39C62.825 30.9296 60.9666 31.6987 59.2123 32.6867L54.5913 29.6815L46.7589 37.5077L48.3483 41.2929C48.2876 41.29 48.2298 41.2792 48.1691 41.2777C45.3342 41.1954 42.6641 42.2289 40.6359 44.1963C38.6047 46.1622 37.4873 48.8005 37.4873 51.6259V54.5841C37.4873 57.97 39.1693 61.1471 41.9283 63.0711V63.781L37.8602 64.7972L30.4868 60.5007H25.6446V91.1501L40.208 95.9999H43.0443L43.3985 94.7605L47.8626 97.4378C47.9356 99.8631 49.8822 101.815 52.3072 101.9C52.3925 104.313 54.3333 106.252 56.7482 106.337C56.8335 108.75 58.7743 110.689 61.1892 110.775C61.2774 113.244 63.3013 115.229 65.7929 115.229C66.7181 115.229 67.6252 114.94 68.3878 114.427L69.699 115.584C70.5208 116.307 71.579 116.708 72.6777 116.708H72.9517C75.415 116.708 77.4194 114.718 77.4505 112.265C79.8871 112.233 81.8604 110.262 81.8915 107.827C84.3296 107.796 86.3043 105.822 86.3325 103.385C88.793 103.328 90.7793 101.319 90.7793 98.8469C90.7793 98.6981 90.7721 98.5515 90.7569 98.4035L117.425 85.0811V63.4589ZM102.622 51.9985V54.5841C102.622 57.2094 101.202 59.6622 98.9168 60.9846L98.1766 61.4121L98.1824 66.0929L105.578 67.9389L89.299 76.5003V72.5157C89.299 70.5274 88.4952 68.7067 87.1789 67.3612L92.2596 66.0929V61.4085L91.5209 60.9817C89.2368 59.6622 87.8186 57.2094 87.8186 54.5841V51.6259C87.8186 49.6087 88.6166 47.7222 90.0673 46.3175C91.5166 44.9134 93.4393 44.1565 95.4494 44.2345C99.404 44.353 102.622 47.8363 102.622 51.9985ZM73.767 75.3375L67.0658 73.1975C64.0118 72.2196 60.7064 72.0737 57.5802 72.7656L56.7316 72.9534V72.5157C56.7316 70.4761 58.1158 68.7052 60.0949 68.2098L68.5743 66.0929V61.4085L67.8356 60.9817C65.5514 59.6622 64.1333 57.2094 64.1333 54.5841V51.6259C64.1333 49.6087 64.9313 47.7222 66.382 46.3175C67.8312 44.9134 69.7662 44.1565 71.7641 44.2345C75.7186 44.353 78.9366 47.8363 78.9366 51.9985V54.5841C78.9366 57.2094 77.517 59.6622 75.2314 60.9846L74.4913 61.4121L74.4971 66.0929L82.975 68.2098C84.9541 68.7052 86.3383 70.4761 86.3383 72.5157V78.0581L85.9725 78.2503H85.0654L75.9644 75.6517C75.2473 75.4487 74.5086 75.3657 73.767 75.3375V75.3375ZM57.0634 47.1394C59.8433 41.7573 65.4387 38.3137 71.5349 38.3137C77.5734 38.3137 83.1449 41.711 85.9458 47.0202C85.241 48.4321 84.858 49.9958 84.858 51.6259V54.5841C84.858 57.97 86.54 61.1471 89.299 63.0711V63.781L83.3776 65.2623L77.4548 63.781V63.0725C80.2138 61.1485 81.8973 57.97 81.8973 54.5841V51.9985C81.8973 46.2524 77.3912 41.4438 71.853 41.2763C69.0195 41.1932 66.348 42.2274 64.3198 44.1948C62.2901 46.1622 61.1726 48.8005 61.1726 51.6259V54.5841C61.1726 57.97 62.8546 61.1471 65.6136 63.0711V63.781L59.6923 65.2623L53.7695 63.781V63.0725C56.5285 61.1485 58.2119 57.97 58.2119 54.5841V51.9985C58.2119 50.258 57.7927 48.6055 57.0634 47.1394V47.1394ZM50.2551 38.1938L54.9846 33.4682L59.1473 36.1751L59.9438 35.6869C61.9395 34.4649 64.0964 33.57 66.3538 33.0305L67.2645 32.8124L68.2945 27.9597H74.7768L75.8039 32.811L76.7147 33.0284C78.972 33.5686 81.1289 34.4634 83.1246 35.6855L83.9212 36.1737L88.0839 33.4668L92.8075 38.188L91.1284 42.1162C89.9856 42.6073 88.926 43.2985 88.0037 44.1919C87.9429 44.2511 87.8909 44.3147 87.8316 44.3754C84.344 38.8358 78.1784 35.3554 71.5349 35.3554C64.8438 35.3554 58.6608 38.8683 55.1819 44.4642C54.2509 43.4906 53.1435 42.702 51.9162 42.1509L50.2551 38.1938ZM44.8889 66.0929V61.4085L44.1502 60.9817C41.8661 59.6622 40.4479 57.2094 40.4479 54.5841V51.6259C40.4479 49.6087 41.2459 47.7222 42.6966 46.3175C44.1459 44.9134 46.0729 44.1565 48.0787 44.2345C52.0333 44.353 55.2513 47.8363 55.2513 51.9985V54.5841C55.2513 57.2094 53.8317 59.6622 51.5461 60.9846L50.8059 61.4121L50.8117 66.0929L55.891 67.3612C54.5747 68.7067 53.7709 70.5274 53.7709 72.5157V73.6114L49.1536 74.6369L49.2736 74.218L49.3299 71.4844L41.5228 66.9336L44.8889 66.0929ZM28.6053 63.4589H29.6844L40.3308 69.6636L34.9588 91.1335L28.6053 89.0166V63.4589ZM40.6879 93.0416L37.7742 92.0716L42.993 71.2157L46.3693 73.1831V73.6056L40.8122 93.0416H40.6879ZM50.8103 97.2999C50.8103 96.8637 50.9866 96.4361 51.296 96.127L53.8982 93.5269C54.2075 93.2178 54.6354 93.0416 55.072 93.0416C55.9871 93.0416 56.7316 93.7855 56.7316 94.6998C56.7316 95.1361 56.5552 95.5636 56.2459 95.8727L53.6437 98.4728C53.3344 98.7819 52.9064 98.9581 52.4699 98.9581C51.5548 98.9581 50.8103 98.2142 50.8103 97.2999ZM55.2513 101.737C55.2513 101.301 55.4276 100.873 55.737 100.564L58.3392 97.9643C58.6485 97.6552 59.0764 97.479 59.513 97.479C60.4281 97.479 61.1726 98.2229 61.1726 99.1372C61.1726 99.5735 60.9962 100.001 60.6869 100.31L58.0847 102.91C57.7754 103.219 57.3474 103.396 56.9109 103.396C55.9958 103.396 55.2513 102.652 55.2513 101.737ZM59.6923 106.175C59.6923 105.738 59.8686 105.311 60.178 105.002L62.7802 102.402C63.0895 102.093 63.5174 101.916 63.954 101.916C64.8691 101.916 65.6136 102.66 65.6136 103.575C65.6136 104.011 65.4372 104.438 65.1279 104.748L62.5257 107.348C62.2164 107.657 61.7885 107.833 61.3519 107.833C60.4368 107.833 59.6923 107.089 59.6923 106.175ZM65.7929 112.27C64.8778 112.27 64.1333 111.526 64.1333 110.612C64.1333 110.176 64.3096 109.748 64.619 109.439L67.2212 106.839C67.5305 106.53 67.9584 106.354 68.395 106.354C69.3101 106.354 70.0546 107.098 70.0546 108.012C70.0546 108.448 69.8782 108.876 69.5689 109.185L66.9667 111.785C66.6574 112.094 66.2295 112.27 65.7929 112.27ZM72.9517 113.749H72.6777C72.3004 113.749 71.939 113.612 71.6578 113.363L70.5505 112.387L71.6622 111.277C72.059 110.88 72.3669 110.408 72.5946 109.902L73.9405 111.022C74.2925 111.315 74.4956 111.747 74.4956 112.207C74.4956 113.058 73.8032 113.749 72.9517 113.749V113.749ZM86.227 100.437H85.9711C85.5996 100.437 85.2367 100.306 84.9526 100.067L76.925 93.3832L75.0283 95.6568L82.8239 102.147C83.1745 102.44 83.3776 102.872 83.3776 103.332C83.3776 104.183 82.6852 104.875 81.8337 104.875H81.5106C81.1513 104.875 80.8 104.748 80.5232 104.516L72.4826 97.8221L70.5859 100.096L78.3815 106.586C78.7335 106.877 78.9366 107.309 78.9366 107.769C78.9366 108.62 78.2442 109.312 77.3927 109.312C76.8245 109.312 76.2709 109.111 75.835 108.749L72.531 105.997C71.8031 104.511 70.3076 103.474 68.5562 103.412C68.4709 100.999 66.5301 99.06 64.1152 98.9747C64.0299 96.5618 62.0891 94.6226 59.6742 94.5373C59.5875 92.068 57.5636 90.0833 55.072 90.0833C53.8555 90.0833 52.665 90.5759 51.8049 91.4353L49.2027 94.0354C49.0473 94.1907 48.9187 94.3669 48.7878 94.5417L44.2406 91.8152L48.2269 77.8747L58.2206 75.6546C60.8423 75.0688 63.6063 75.1959 66.163 76.0135L68.3437 76.7105L60.9507 80.404C59.2615 81.2497 58.2119 82.9477 58.2119 84.8356V85.1281C58.2119 87.8603 60.4368 90.0833 63.1712 90.0833C64.0697 90.0833 64.9537 89.8392 65.722 89.3763L71.2343 86.0735C72.3416 85.4105 73.8277 85.5556 74.784 86.4151L87.2917 97.6624C87.6264 97.9658 87.8186 98.3962 87.8186 98.8469C87.8186 99.7244 87.1052 100.437 86.227 100.437V100.437ZM114.465 83.2524L89.5252 95.7131C89.4442 95.6272 89.3597 95.5456 89.2708 95.4661L76.7653 84.2188C75.6695 83.2308 74.2527 82.6877 72.7768 82.6877C71.6976 82.6877 70.6379 82.9809 69.7098 83.537L64.1954 86.8412C63.8861 87.0276 63.5326 87.1251 63.1712 87.1251C62.0682 87.1251 61.1726 86.2302 61.1726 85.1281V84.8356C61.1726 84.0736 61.5962 83.3904 62.2771 83.0502L70.5346 78.9248C71.9477 78.2178 73.6253 78.0596 75.1483 78.4973L84.451 81.1522L86.704 81.2085L114.465 66.6093V83.2524Z" fill="white"/>
</g>
<defs>
<linearGradient id="paint0_linear_332:8729" x1="0.0337393" y1="70.5584" x2="140.949" y2="70.5584" gradientUnits="userSpaceOnUse">
<stop stop-color="white"/>
<stop offset="0.5101" stop-color="#B43E3E"/>
<stop offset="1" stop-color="#8F4C40"/>
</linearGradient>
<clipPath id="clip0_332:8729">
<rect width="91.7807" height="91.7063" fill="white" transform="translate(25.6446 25.0015)"/>
</clipPath>
</defs>
</svg>
