<svg width="201" height="121" viewBox="0 0 201 121" fill="none" xmlns="http://www.w3.org/2000/svg">
<path d="M109.446 0.218466C123.298 1.40118 136.792 7.47376 147.146 18.3865C169.781 42.2396 168.976 80.315 145.357 103.264C133.93 114.365 118.906 120.299 103.047 119.991C87.1884 119.682 72.4226 113.153 61.4725 101.614C38.837 77.7607 39.6419 39.6853 63.2711 16.7367L63.7281 17.2138L63.2711 16.7367C76.0694 4.29336 93.0212 -1.19284 109.446 0.218466ZM99.2117 118.46C100.484 118.569 101.775 118.639 103.067 118.659C118.578 118.967 133.274 113.153 144.443 102.3C167.546 79.8578 168.331 42.6272 146.192 19.3009C124.063 -4.02539 87.258 -4.75092 64.1554 17.6908C41.0529 40.1325 40.2679 77.3632 62.3967 100.689C72.2239 111.036 85.1713 117.257 99.2117 118.46Z" fill="url(#paint0_linear)"/>
<path d="M156.05 15.5543C156.318 15.5742 156.576 15.6636 156.795 15.8127L176.37 28.7927C176.956 29.1803 177.215 29.8959 177.026 30.5718C176.827 31.2476 176.221 31.7147 175.525 31.7247L154.798 32.1719C154.351 32.1818 153.903 32.0029 153.595 31.665C153.287 31.337 153.128 30.8898 153.168 30.4326L154.321 17.0053C154.37 16.4388 154.708 15.9419 155.215 15.7034C155.483 15.5742 155.772 15.5245 156.05 15.5543Z" fill="#A1806A"/>
<path opacity="0.52" d="M156.05 15.5543C156.318 15.5742 156.576 15.6636 156.795 15.8127L176.37 28.7927C176.956 29.1803 177.215 29.8959 177.026 30.5718C176.827 31.2476 176.221 31.7147 175.525 31.7247L154.798 32.1719C154.351 32.1818 153.903 32.0029 153.595 31.665C153.287 31.337 153.128 30.8898 153.168 30.4326L154.321 17.0053C154.37 16.4388 154.708 15.9419 155.215 15.7034C155.483 15.5742 155.772 15.5245 156.05 15.5543Z" fill="url(#paint1_linear)"/>
<path d="M155.026 18.4765L176.44 29.7272L170.13 73.9945C170.09 74.4516 170.249 74.8989 170.567 75.2368C170.885 75.5648 171.332 75.7536 171.789 75.7337L194.355 74.9188C194.892 74.8989 195.379 74.6206 195.657 74.1634C195.935 73.7062 195.975 73.1497 195.756 72.6627L182.888 44.2378L200.585 16.449C200.903 15.9521 200.923 15.3061 200.625 14.7992C200.357 14.342 199.89 14.0438 199.373 14.0041C199.314 13.9941 199.244 13.9941 199.174 13.9941L155.851 15.5545C155.155 15.5843 154.559 16.0515 154.37 16.7174C154.182 17.3833 154.45 18.0889 155.026 18.4765Z" fill="url(#paint2_linear)"/>
<path d="M25.294 93.763L44.869 106.743C45.336 107.061 45.9422 107.101 46.4489 106.852C46.9557 106.604 47.3035 106.107 47.3532 105.55L48.5058 92.1231C48.5455 91.6758 48.3866 91.2186 48.0785 90.8907C47.8102 90.6024 47.4426 90.4235 47.0451 90.3937C46.9855 90.3937 46.9259 90.3838 46.8762 90.3838L26.1485 90.831C25.4529 90.841 24.8368 91.318 24.6481 91.9839C24.4493 92.6598 24.7176 93.3754 25.294 93.763Z" fill="#A1806A"/>
<path opacity="0.87" d="M25.294 93.763L44.869 106.743C45.336 107.061 45.9422 107.101 46.4489 106.852C46.9557 106.604 47.3035 106.107 47.3532 105.55L48.5058 92.1231C48.5455 91.6758 48.3866 91.2186 48.0785 90.8907C47.8102 90.6024 47.4426 90.4235 47.0451 90.3937C46.9855 90.3937 46.9259 90.3838 46.8762 90.3838L26.1485 90.831C25.4529 90.841 24.8368 91.318 24.6481 91.9839C24.4493 92.6598 24.7176 93.3754 25.294 93.763Z" fill="url(#paint3_linear)"/>
<path d="M5.91753 49.8933L18.7854 78.3182L1.08835 106.107C0.770379 106.614 0.750513 107.25 1.04861 107.767C1.34671 108.284 1.89321 108.592 2.49934 108.572L45.8228 107.011C46.5184 106.982 47.1146 106.514 47.3034 105.849C47.4922 105.183 47.2239 104.467 46.6476 104.079L27.0825 92.0536L31.544 48.5615C31.5837 48.1044 31.4247 47.6571 31.1068 47.3192C30.8385 47.031 30.4708 46.862 30.0833 46.8322C30.0137 46.8223 29.9541 46.8223 29.8945 46.8223L7.32852 47.6372C6.79195 47.6571 6.30506 47.9354 6.02683 48.3926C5.73867 48.8498 5.69893 49.4063 5.91753 49.8933Z" fill="url(#paint4_linear)"/>
<path d="M26.238 91.9739C26.546 92.3019 26.9931 92.4907 27.4403 92.4808L169.742 89.3799C170.557 89.36 171.233 88.7339 171.302 87.9189L176.241 30.1846C176.28 29.7374 176.121 29.2901 175.813 28.9522C175.545 28.664 175.177 28.4851 174.78 28.4552C174.72 28.4552 174.661 28.4453 174.611 28.4453L32.3092 31.5462C31.4944 31.5661 30.8187 32.1922 30.7492 33.0072L25.8107 90.7415C25.771 91.1987 25.9299 91.6459 26.238 91.9739Z" fill="url(#paint5_linear)"/>
<path d="M69.7707 62.9925C69.3733 65.6561 68.6082 68.0314 67.3661 70.0589C68.638 71.1621 70.198 72.0069 72.0959 72.6629L72.0363 72.9412C70.675 73.4182 69.9993 74.3227 69.7111 75.8831C68.0418 74.919 66.7699 73.6468 65.7762 72.1262C64.3851 73.627 62.6065 74.8991 60.3111 75.9129L60.0826 75.575C62.209 74.0146 63.6796 72.2057 64.723 70.1683C64.0473 68.6675 63.5604 66.968 63.1629 65.1293C62.4872 66.2027 61.6923 67.0773 60.7881 67.8128L60.4204 67.5544C60.9272 66.4512 61.3544 65.1492 61.6923 63.7379C61.6327 63.7677 61.583 63.7677 61.4936 63.7677H59.9037V75.1376C59.8739 75.2768 59.0591 75.8731 57.668 75.8731H57.191V72.156C55.7502 72.6927 53.902 73.3487 51.557 74.1338C51.3881 74.5016 51.1297 74.7003 50.8515 74.7798L49.3511 71.838C49.9174 71.8082 50.772 71.7485 51.7557 71.669V63.7776H50.454C50.3447 67.5941 49.6889 72.5734 45.5255 75.8532L45.2373 75.5948C47.2246 71.6591 47.3041 66.6897 47.3041 62.5552V56.1347L50.9608 57.4665H66.9885L68.2604 55.9956C67.8331 56.1645 67.068 56.3335 66.0545 56.3335H65.5179V55.6278H62.6263V56.0552C62.6263 56.254 61.7519 56.731 60.2515 56.731H59.7149V49.9727L62.9443 51.215H65.4384L66.8593 49.6348L69.6018 51.6722C69.4329 51.9306 69.1745 52.0698 68.638 52.1791V55.5483L68.7771 55.3794C68.7771 55.3794 70.7346 56.7907 71.9766 57.8442C71.8872 58.1523 71.5792 58.3014 71.1817 58.3014H58.6914C59.1684 58.6989 60.3906 59.6332 61.1855 60.3985C61.0961 60.7066 60.8179 60.8556 60.4204 60.8556H57.3003V63.0024H58.0952L59.5659 61.0544C59.5659 61.0544 60.8974 62.1576 61.8612 63.0322C62.1991 61.5315 62.3978 59.9512 62.4872 58.3411L66.5612 59.166C66.4519 59.5338 66.1339 59.7922 65.5179 59.8121C65.2893 60.6569 65.0111 61.452 64.6931 62.2172H67.4158L69.0056 60.1003C69.0056 60.1003 70.7942 61.5712 71.8674 62.585C71.7779 62.8633 71.4997 63.0124 71.0724 63.0124H69.7707V62.9925ZM52.0439 56.0652C52.0439 56.2639 51.1397 56.741 49.6392 56.741H49.1325V49.9528L52.332 51.1952H54.8261L56.1874 49.6348L58.9299 51.6822C58.761 51.9406 58.5026 52.0797 57.9064 52.189V55.757C57.9064 55.8664 56.9426 56.3534 55.4124 56.3534H54.9056V55.6477H52.0439V56.0652V56.0652ZM54.3988 62.9925V60.8457H51.398L51.1694 60.0208H57.0321L58.3337 58.2914H50.464V62.5353V62.9925H54.3988ZM52.0439 52.0201V54.8228H54.9056V52.0201H52.0439ZM57.201 63.7876H54.4585V65.7654H57.201V63.7876ZM57.201 66.5804H54.4585V68.6178H57.201V66.5804ZM57.201 71.2218V69.4427H54.4585V71.4802L57.201 71.2218ZM65.5278 54.8129V52.0101H62.6363V54.8129H65.5278ZM64.3652 62.9925C64.1367 63.4994 63.8883 63.9864 63.6299 64.4336C64.1069 65.8151 64.7627 67.0674 65.5874 68.1706C66.1538 66.5605 66.4618 64.8311 66.6308 62.9925H64.3652Z" fill="white"/>
<path d="M85.322 63.608C85.1233 63.8366 84.8649 63.9161 84.2787 63.9758C83.603 66.0132 82.2119 68.2196 80.3736 69.939C80.5425 69.9987 80.6817 70.0782 80.8804 70.2173C83.0863 71.9665 86.5442 72.3144 92.9136 72.3144C96.3119 72.3144 99.0345 72.2846 102.403 72.1156V72.4237C101.042 72.702 100.277 73.9245 100.108 75.1966H91.7808C85.3816 75.1966 82.9174 74.2028 80.5326 71.241C80.1053 70.7043 79.7973 70.7838 79.5687 71.3006C79.1415 72.1454 78.5751 73.5667 78.0385 74.9482C78.1279 75.2066 78.0385 75.3755 77.8398 75.5147L75.5742 72.3442C76.7368 71.6982 78.436 70.4161 79.3402 69.9987C80.2742 68.2494 81.0095 65.8443 81.3275 63.777H79.6582L78.7241 64.6814L76.3195 63.0117C76.5778 62.8129 76.9753 62.6142 77.3926 62.475C78.1577 61.1134 79.1514 59.1356 79.7675 57.7243H76.3095L76.0512 56.8994H79.7377L81.0393 55.5974L83.7024 57.9429C83.444 58.2014 82.9074 58.3405 82.3112 58.4001C81.6852 59.6425 80.7015 61.5706 79.9066 62.9521H81.1487L82.6789 61.4513L85.322 63.608ZM77.174 49.8429C84.5668 50.9759 81.8442 56.4919 79.0123 54.4246C78.8434 52.8642 77.8795 51.115 76.9157 50.0118L77.174 49.8429ZM92.1783 57.3665C90.9064 57.9032 88.4719 58.8971 85.8387 59.8512C85.64 60.1096 85.3817 60.2487 85.1631 60.3581L84.0005 57.8137C84.5967 57.446 84.6761 57.2174 84.6761 56.6807V49.664L87.7664 50.8765H89.406L90.5984 49.6341L93.1222 51.5324C92.9831 51.7014 92.6453 51.9002 92.1584 51.9896V54.9613C92.1286 55.1601 90.9163 55.7266 90.0916 55.7266H89.6643V54.9017H87.369V57.3665C88.7601 57.2572 90.4592 57.1081 92.1584 56.9391L92.1783 57.3665ZM98.8954 63.6975C98.8954 63.6975 100.823 65.079 101.986 66.1027C101.896 66.4108 101.618 66.5599 101.221 66.5599H84.2588L84.0303 65.7349H88.1043V62.8527H85.5009L85.2723 62.0576H88.1043V59.2052L91.8106 59.5431C91.7808 59.8512 91.6119 60.0798 91.0455 60.1891V62.0576H93.7085V59.2052L97.4149 59.5431C97.385 59.881 97.2161 60.0798 96.6497 60.1891V62.0576H96.7094L98.0409 60.3282C98.0409 60.3282 99.6009 61.5408 100.565 62.3955C100.505 62.7036 100.227 62.8527 99.8294 62.8527H96.6597V65.7349H97.2559L98.8954 63.6975ZM84.1694 71.3106C85.9779 70.1477 87.7664 68.1103 88.5315 66.6394L92.4068 68.3687C92.2677 68.7066 91.8106 68.8756 90.966 68.7961C89.5252 69.9291 86.9715 71.0621 84.3681 71.6286L84.1694 71.3106ZM89.6643 54.1066V51.7014H87.369V54.1066H89.6643ZM91.0455 65.7349H93.7085V62.8527H91.0455V65.7349ZM95.6362 58.9468C93.48 58.9468 93.1719 58.4101 93.1719 56.8298V49.6938L96.1728 50.8864H97.703L98.8954 49.6143L101.469 51.5424C101.33 51.7113 100.992 51.9101 100.535 52.0194V54.8719C100.505 55.1005 99.2332 55.6372 98.3787 55.6372H97.9514V54.9017H95.7952V56.4024C95.7952 56.7702 95.8846 56.8596 96.4212 56.8596H97.7825H99.0544C99.2233 56.8596 99.4817 56.8298 99.6506 56.8298C99.8195 56.8 100.108 56.7404 100.277 56.6907H100.535L100.674 56.7205C101.38 57.0286 101.638 57.2274 101.638 57.6547C101.638 58.6188 100.644 58.9567 97.4447 58.9567H95.6362V58.9468ZM93.4005 67.0071C105.493 68.1997 99.9984 73.5667 97.6533 71.1118C96.9776 69.9788 95.4772 68.5078 93.2316 67.355L93.4005 67.0071ZM95.8051 51.7014V54.1066H97.9614V51.7014H95.8051Z" fill="white"/>
<path d="M116.145 62.1168L119.285 64.4922C119.116 64.7208 118.718 64.9494 118.152 65.0587V74.2222C118.122 74.4508 116.562 75.1565 115.489 75.1565H114.952V72.8109H110.819V74.6198C110.819 74.9279 109.457 75.6634 108.156 75.6634H107.679V62.4249L110.968 63.7269H114.674L116.145 62.1168ZM114.952 71.986V64.5518H110.819V71.986H114.952ZM115.409 60.954C115.409 61.2621 113.969 61.9976 112.577 61.9976H112.071V50.0114L115.578 51.3929H123.279L124.839 49.6934L128.069 52.1582C127.9 52.3868 127.502 52.6352 126.906 52.7545V60.8447C126.876 61.0732 125.266 61.7491 124.134 61.7491H123.567V59.4632H115.409V60.954V60.954ZM115.409 52.2178V58.6681H123.567V52.2178H115.409ZM132.629 64.4922C132.431 64.7208 132.033 64.9494 131.467 65.0885V74.4806C131.437 74.7092 129.827 75.3056 128.744 75.3056H128.208V72.8209H123.846V74.6595C123.846 74.9676 122.514 75.7031 121.183 75.7031H120.706V62.4249L123.995 63.7269H127.929L129.46 62.087L132.629 64.4922ZM128.208 71.986V64.5518H123.846V71.986H128.208Z" fill="white"/>
<path d="M147.276 64.0658C147.107 64.2944 146.68 64.5429 146.113 64.6621V74.6407C146.084 74.8692 144.752 75.6345 143.709 75.6345H143.252V64.1553H140.817C140.708 68.8762 139.774 72.8914 136.823 75.8929L136.455 75.6345C137.846 72.2156 138.095 68.25 138.095 63.4695V50.2112L141.801 50.5789C141.771 50.9765 141.543 51.2547 140.807 51.374V58.5299H142.904V49.8733L146.64 50.2112C146.61 50.6087 146.382 50.8572 145.706 50.9765V57.4267C146.103 57.8541 146.61 58.4405 146.948 58.8977C146.859 59.2058 146.61 59.3548 146.272 59.3548H140.807V63.3701H142.964L144.355 61.8395L147.276 64.0658ZM160.581 65.9641C160.581 65.9641 162.509 67.604 163.642 68.7669C163.552 69.075 163.244 69.224 162.847 69.224H157.292V75.2171C157.292 75.4755 155.901 76.0122 154.738 76.0122H154.172V69.224H146.501L146.272 68.3991H154.172V64.6423C152.98 66.0238 151.052 67.2462 148.001 68.1805L147.773 67.8724C150.466 66.4014 151.877 64.6721 152.612 62.8135H150.744V63.6086C150.744 63.9167 149.442 64.6025 148.17 64.6025H147.713V51.702L150.913 52.9742H152.274C152.443 51.9306 152.672 50.4 152.781 49.3564L157.6 50.2311C157.491 50.7379 157.123 50.9367 156.467 50.9665C155.762 51.533 154.709 52.3281 153.864 52.9742H158.425L159.866 51.4436L162.837 53.6798C162.668 53.9084 162.3 54.137 161.764 54.2463V62.9825C161.734 63.1813 160.233 63.8074 159.21 63.8074H158.703V62.7937H155.394C155.225 63.1316 155.056 63.4397 154.858 63.7577L158.286 64.0956C158.226 64.4634 157.998 64.7218 157.292 64.8311V68.3991H158.882L160.581 65.9641ZM150.754 53.7991V57.4466H153.357V53.7991H150.754ZM152.91 61.9986C153.248 60.786 153.367 59.5337 153.367 58.2417H150.764V61.9986H152.91ZM158.713 61.9986V58.2417H156.279C156.279 59.484 156.169 60.7264 155.742 61.9986H158.713ZM156.279 53.7991V57.4466H158.713V53.7991H156.279Z" fill="white"/>
<defs>
<linearGradient id="paint0_linear" x1="162.814" y1="64.8109" x2="44.6448" y2="54.7205" gradientUnits="userSpaceOnUse">
<stop stop-color="#C0AA88"/>
<stop offset="0.0407" stop-color="#B59C7D"/>
<stop offset="0.1398" stop-color="#9C7E64"/>
<stop offset="0.2581" stop-color="#785744"/>
<stop offset="0.3602" stop-color="#9C7E64"/>
<stop offset="0.4892" stop-color="#C0AA88"/>
<stop offset="0.5253" stop-color="#B59C7D"/>
<stop offset="0.6129" stop-color="#9C7E64"/>
<stop offset="0.7204" stop-color="#785744"/>
<stop offset="0.8387" stop-color="#9C7E64"/>
<stop offset="1" stop-color="#C0AA88"/>
</linearGradient>
<linearGradient id="paint1_linear" x1="164.325" y1="32.8052" x2="165.744" y2="16.1877" gradientUnits="userSpaceOnUse">
<stop/>
<stop offset="0.0166" stop-color="#0E0E0E"/>
<stop offset="0.083" stop-color="#404040"/>
<stop offset="0.1545" stop-color="#6D6D6D"/>
<stop offset="0.2293" stop-color="#959595"/>
<stop offset="0.3083" stop-color="#B6B6B6"/>
<stop offset="0.3926" stop-color="#D0D0D0"/>
<stop offset="0.4842" stop-color="#E5E5E5"/>
<stop offset="0.5869" stop-color="#F4F4F4"/>
<stop offset="0.7095" stop-color="#FCFCFC"/>
<stop offset="0.9046" stop-color="white"/>
</linearGradient>
<linearGradient id="paint2_linear" x1="-66.3941" y1="30.8617" x2="404.389" y2="56.9745" gradientUnits="userSpaceOnUse">
<stop stop-color="#B68E5D"/>
<stop offset="0.0483" stop-color="#A97C4F"/>
<stop offset="0.1398" stop-color="#925E37"/>
<stop offset="0.2581" stop-color="#6E3E23"/>
<stop offset="0.3602" stop-color="#925E37"/>
<stop offset="0.4892" stop-color="#B68E5D"/>
<stop offset="0.532" stop-color="#A97C4F"/>
<stop offset="0.6129" stop-color="#925E37"/>
<stop offset="0.7204" stop-color="#6E3E23"/>
<stop offset="0.8387" stop-color="#925E37"/>
<stop offset="1" stop-color="#B68E5D"/>
</linearGradient>
<linearGradient id="paint3_linear" x1="36.2013" y1="89.2752" x2="34.7816" y2="105.895" gradientUnits="userSpaceOnUse">
<stop/>
<stop offset="0.0103" stop-color="#0E0E0E"/>
<stop offset="0.0517" stop-color="#404040"/>
<stop offset="0.0962" stop-color="#6D6D6D"/>
<stop offset="0.1427" stop-color="#959595"/>
<stop offset="0.1919" stop-color="#B6B6B6"/>
<stop offset="0.2443" stop-color="#D0D0D0"/>
<stop offset="0.3014" stop-color="#E5E5E5"/>
<stop offset="0.3653" stop-color="#F4F4F4"/>
<stop offset="0.4416" stop-color="#FCFCFC"/>
<stop offset="0.563" stop-color="white"/>
</linearGradient>
<linearGradient id="paint4_linear" x1="-68.7379" y1="72.975" x2="402.045" y2="99.088" gradientUnits="userSpaceOnUse">
<stop stop-color="#B68E5D"/>
<stop offset="0.0483" stop-color="#A97C4F"/>
<stop offset="0.1398" stop-color="#925E37"/>
<stop offset="0.2581" stop-color="#6E3E23"/>
<stop offset="0.3602" stop-color="#925E37"/>
<stop offset="0.4892" stop-color="#B68E5D"/>
<stop offset="0.532" stop-color="#A97C4F"/>
<stop offset="0.6129" stop-color="#925E37"/>
<stop offset="0.7204" stop-color="#6E3E23"/>
<stop offset="0.8387" stop-color="#925E37"/>
<stop offset="1" stop-color="#B68E5D"/>
</linearGradient>
<linearGradient id="paint5_linear" x1="-67.5262" y1="51.0995" x2="403.273" y2="77.2133" gradientUnits="userSpaceOnUse">
<stop stop-color="#B68E5D"/>
<stop offset="0.0483" stop-color="#A97C4F"/>
<stop offset="0.1398" stop-color="#925E37"/>
<stop offset="0.2581" stop-color="#6E3E23"/>
<stop offset="0.3602" stop-color="#925E37"/>
<stop offset="0.4892" stop-color="#B68E5D"/>
<stop offset="0.532" stop-color="#A97C4F"/>
<stop offset="0.6129" stop-color="#925E37"/>
<stop offset="0.7204" stop-color="#6E3E23"/>
<stop offset="0.8387" stop-color="#925E37"/>
<stop offset="1" stop-color="#B68E5D"/>
</linearGradient>
</defs>
</svg>
