<svg width="141" height="141" viewBox="0 0 141 141" fill="none" xmlns="http://www.w3.org/2000/svg">
<path d="M70.6007 140.4C108.598 140.4 139.401 109.597 139.401 71.5998C139.401 33.6026 108.598 2.7998 70.6007 2.7998C32.6035 2.7998 1.80078 33.6026 1.80078 71.5998C1.80078 109.597 32.6035 140.4 70.6007 140.4Z" fill="#BB8A79"/>
<path d="M104.799 123.6C90.9993 114.6 81.2992 102.2 75.5992 86.8C75.3992 86.3 75.2993 85.6 75.3993 85C75.4993 84.1 76.1992 83.6 77.0992 83.5C77.9992 83.4 78.6992 83.7 79.0992 84.5C79.3992 85.2 79.6992 85.9 79.9992 86.6C83.5992 96 89.0992 104.2 96.1992 111.3C96.3992 111.5 96.8992 111.7 97.0992 111.6C100.999 110.5 104.599 108.8 107.999 106.4C107.799 106.3 107.599 106.1 107.499 106.1C101.599 103.8 96.7992 100 92.6992 95.3C87.6992 89.7 83.9992 83.3 81.4992 76.2C81.1992 75.5 80.8992 75.2 80.0992 75.2C79.5992 75.3 78.9992 75.2 78.4992 75.1C77.5992 74.9 76.8993 74.2 76.8993 73.3C76.7993 72.3 77.3993 71.5 78.2993 71.2C78.8993 71 79.5993 71 80.2993 71C80.7993 71 81.0992 70.9 81.1992 70.3C82.9992 63.3 84.8992 56.4 86.6992 49.4C86.7992 49.1 86.5993 48.6 86.2993 48.5C85.2993 47.9 84.2992 47.5 83.1992 46.9C81.2992 52.2 77.5993 55.4 71.8993 55.3C66.2993 55.3 62.6993 52.1 60.7993 46.9C59.3993 47.6 58.0992 48.2 56.5992 49C58.4992 56.3 60.4993 63.6 62.3993 71C63.8993 71 65.2992 71 66.6992 71C67.6992 71 68.5992 71.4 68.9992 72.4C69.4992 73.6 68.6993 74.9 67.3993 75.1C66.0993 75.2 64.7992 75.2 63.4992 75.2C62.6992 75.2 62.3992 75.4 62.1992 76.2C60.7992 81.9 58.7992 87.4 56.0992 92.7C53.2992 98 49.9992 102.9 45.1992 106.6C43.9992 107.5 42.7992 108.3 41.4992 109C40.3992 109.6 39.1992 109.3 38.5992 108.3C38.0992 107.3 38.2993 106.1 39.3993 105.5C46.1993 101.6 50.1992 95.4 53.4992 88.6C55.7992 83.9 57.2992 79 58.4992 74C58.5992 73.6 58.5992 73.1 58.4992 72.7C56.5992 65.5 54.6992 58.3 52.6992 51C51.7992 51.4 51.0992 51.8 50.1992 52.1C49.0992 52.5 47.9992 52.1 47.4992 51.1C46.9992 50.1 47.3993 49 48.3993 48.4C48.6993 48.2 48.9993 48.1 49.2993 47.9C55.7993 44.7 62.3993 41.5 68.8993 38.3C69.4993 38 69.7993 37.7 69.7993 36.9C69.6993 35.6 69.7993 34.3 69.7993 33C69.7993 31 70.2992 30.4 72.1992 30.1C74.0992 29.8 75.1993 28.2 74.8993 26.4C74.5993 25 73.2993 23.9 71.8993 23.9C70.3993 23.9 69.0993 25 68.7993 26.4C68.6993 26.7 68.6992 27.1 68.5992 27.4C68.2992 28.5 67.3993 29.2 66.2993 29.1C65.1993 28.9 64.4992 28 64.4992 26.8C64.5992 23.2 67.3992 20.3 70.9992 19.8C74.4992 19.4 77.7992 21.7 78.6992 25.1C79.5992 28.4 77.9993 32.1 74.7993 33.5C73.9993 33.9 73.8992 34.3 73.6992 35.1C73.3992 37.2 74.2992 38.1 76.0992 39C82.2992 41.8 88.3992 44.9 94.4992 48C95.0992 48.3 95.8992 48.9 96.0992 49.5C96.2992 50.1 95.9992 51 95.5992 51.5C95.0992 52.2 94.1993 52.3 93.3993 51.9C92.3993 51.5 91.4993 51 90.3993 50.5C90.0993 51.5 89.8992 52.4 89.5992 53.3C87.8992 59.6 86.2992 65.9 84.5992 72.2C84.4992 72.6 84.4992 73.1 84.5992 73.5C87.4992 82.3 92.2993 90.1 99.2993 96.3C102.999 99.6 107.199 102.1 112.199 103C113.199 103.2 113.999 103.6 114.299 104.7C114.599 105.7 113.999 106.4 113.299 107.1C109.799 110.3 105.699 112.6 101.299 114.3C100.899 114.5 100.399 114.7 99.7993 114.9C101.099 115.9 102.199 116.8 103.399 117.7C104.099 118.2 104.899 118.7 105.699 119.2C107.699 120.6 107.699 122.1 105.699 123.4C105.599 123.6 105.199 123.6 104.799 123.6ZM64.6992 45.1C65.3992 48.8 68.2993 51.3 71.8993 51.4C75.1993 51.5 78.2992 49 79.0992 45.8C79.1992 45.3 79.0992 45 78.5992 44.8C76.4992 43.8 74.4993 42.8 72.3993 41.8C72.0993 41.7 71.6992 41.6 71.4992 41.8C69.2992 42.8 67.0992 44 64.6992 45.1Z" fill="white"/>
<path d="M64.2998 109.1C68.1998 111.1 72.3998 112.4 76.7998 113C79.3998 113.3 81.9997 113.4 84.6997 113.6C85.6997 113.7 86.4998 113.9 86.9998 114.8C87.6998 116.2 86.5998 117.8 84.9998 117.7C81.7998 117.6 78.5998 117.4 75.3998 117C70.5998 116.3 66.0998 114.8 61.7998 112.5C61.1998 112.2 60.8998 112.3 60.3998 112.6C54.2998 117.3 47.2998 119.4 39.5998 118.7C37.0998 118.5 34.5997 117.8 32.1997 117.1C30.7997 116.8 30.2997 115.6 30.6997 114.5C30.9997 113.4 32.0998 112.8 33.3998 113.2C36.4998 114.2 39.6998 114.8 42.9998 114.6C52.2998 114.1 59.4998 109.8 64.3998 101.9C65.1998 100.5 65.7998 99.0002 66.4998 97.5002C66.9998 96.6002 67.6997 96.2002 68.6997 96.3002C69.5997 96.5002 70.1998 97.1002 70.2998 98.0002C70.2998 98.5002 70.1998 99.1002 69.9998 99.6002C68.7998 102.8 67.0998 105.7 64.8998 108.3C64.6998 108.5 64.5998 108.7 64.4998 108.9C64.2998 108.9 64.2998 109 64.2998 109.1Z" fill="white"/>
<path d="M70.3984 140.9C31.7984 140.9 0.398438 109.5 0.398438 70.9004C0.398438 32.3004 31.7984 0.900391 70.3984 0.900391C108.998 0.900391 140.398 32.3004 140.398 70.9004C140.398 109.5 108.998 140.9 70.3984 140.9ZM70.3984 3.00039C32.8984 3.00039 2.39844 33.5004 2.39844 71.0004C2.39844 108.5 32.8984 139 70.3984 139C107.898 139 138.398 108.5 138.398 71.0004C138.398 33.5004 107.898 3.00039 70.3984 3.00039Z" fill="url(#paint0_linear)"/>
<defs>
<linearGradient id="paint0_linear" x1="0.443238" y1="70.9579" x2="140.359" y2="70.9579" gradientUnits="userSpaceOnUse">
<stop stop-color="white"/>
<stop offset="0.5101" stop-color="#B43E3E"/>
<stop offset="1" stop-color="#8F4C40"/>
</linearGradient>
</defs>
</svg>
