<svg width="142" height="18" viewBox="0 0 142 18" fill="none" xmlns="http://www.w3.org/2000/svg">
<path d="M4.09961 13.9001C3.09961 13.9001 2.09963 13.6002 0.999634 13.1002C0.799634 13.0002 0.599609 12.7002 0.599609 12.5002C0.599609 12.4002 0.599609 12.4001 0.599609 12.3001C0.599609 12.1001 0.699622 11.9002 0.799622 11.7002L0.999634 11.4001C1.19963 11.2001 1.39965 11.0002 1.69965 11.0002C1.79965 11.0002 1.79966 11.0002 1.89966 11.0002C2.09966 11.0002 2.29963 11.1002 2.49963 11.2002C3.09963 11.5002 3.69965 11.7002 4.19965 11.7002C4.99965 11.7002 5.39966 11.4001 5.39966 10.9001C5.39966 10.8001 5.39962 10.7002 5.29962 10.7002C5.19962 10.7002 5.19961 10.6002 5.09961 10.5002C4.99961 10.4002 4.89966 10.4001 4.89966 10.3001C4.79966 10.2001 4.69961 10.2002 4.59961 10.1002C4.39961 10.0002 4.29965 10.0001 4.19965 9.90015C4.09965 9.90015 3.99962 9.80016 3.79962 9.70016C3.59962 9.60016 3.49966 9.60015 3.39966 9.50015C3.09966 9.40015 2.69963 9.20016 2.49963 9.10016C2.29963 9.00016 1.89965 8.80015 1.69965 8.50015C1.49965 8.20015 1.19961 8.00016 1.09961 7.70016C0.899609 7.40016 0.899658 7.00016 0.899658 6.60016C0.899658 5.60016 1.29963 4.90014 1.99963 4.30014C2.69963 3.70014 3.69962 3.40015 4.79962 3.40015C5.79962 3.40015 6.69961 3.60016 7.59961 4.10016C7.79961 4.20016 7.99963 4.40016 7.99963 4.70016C7.99963 4.80016 7.99963 4.80015 7.99963 4.90015C7.99963 5.10015 7.89962 5.30015 7.79962 5.50015L7.59961 5.70016C7.39961 5.90016 7.19966 6.10016 6.89966 6.10016C6.79966 6.10016 6.69965 6.10016 6.69965 6.10016C6.49965 6.10016 6.29961 6.10015 6.09961 6.00015C5.69961 5.80015 5.29966 5.70016 4.89966 5.70016C4.19966 5.70016 3.79962 5.90015 3.79962 6.40015C3.79962 6.50015 3.79962 6.50016 3.79962 6.60016C3.79962 6.70016 3.89966 6.70014 3.89966 6.80014C3.89966 6.90014 3.99963 6.90015 3.99963 6.90015C3.99963 6.90015 4.09965 7.00015 4.19965 7.00015C4.29965 7.00015 4.39966 7.10016 4.39966 7.10016C4.49966 7.10016 4.59965 7.20016 4.69965 7.20016C4.79965 7.20016 4.89963 7.30014 4.99963 7.30014C5.09963 7.30014 5.19962 7.40015 5.29962 7.40015C5.39962 7.40015 5.59961 7.50015 5.59961 7.50015C5.99961 7.60015 6.29961 7.80015 6.59961 7.90015C6.89961 8.00015 7.09966 8.20015 7.39966 8.50015C7.69966 8.80015 7.89963 9.00015 7.99963 9.40015C8.09963 9.70015 8.19965 10.1002 8.19965 10.6002C8.19965 11.6002 7.79961 12.4002 7.09961 13.0002C6.39961 13.6002 5.39961 13.9001 4.09961 13.9001Z" stroke="black" stroke-width="0.5983"/>
<path d="M14.0992 13.9001C12.8992 13.9001 11.9992 13.6001 11.3992 12.8001C10.7992 12.1001 10.4992 11.1001 10.4992 9.90015V6.10016C10.4992 6.00016 10.4992 6.00015 10.3992 6.00015H10.1992C9.89922 6.00015 9.69921 5.90016 9.49921 5.70016C9.29921 5.50016 9.19922 5.30015 9.19922 5.00015V4.70016C9.19922 4.40016 9.29921 4.20015 9.49921 3.90015C9.69921 3.70015 9.89922 3.60015 10.1992 3.50015H10.5992C10.6992 3.50015 10.6992 3.40015 10.7992 3.40015L10.9992 1.90015C10.9992 1.60015 11.1992 1.40016 11.3992 1.20016C11.5992 1.00016 11.8992 0.900146 12.1992 0.900146H12.7992C13.0992 0.900146 13.2992 1.00016 13.4992 1.20016C13.6992 1.40016 13.7992 1.60015 13.7992 1.90015V3.40015C13.7992 3.50015 13.7992 3.50015 13.8992 3.50015H15.0992C15.3992 3.50015 15.5992 3.60014 15.7992 3.80014C15.9992 4.00014 16.0992 4.20015 16.0992 4.50015V4.90015C16.0992 5.20015 15.9992 5.40016 15.7992 5.60016C15.5992 5.80016 15.3992 5.90015 15.0992 5.90015H13.8992C13.7992 5.90015 13.7992 5.90015 13.7992 6.00015V9.70016C13.7992 10.7002 14.1992 11.2001 14.9992 11.3001C15.2992 11.3001 15.4992 11.4002 15.7992 11.5002C15.9992 11.6002 16.1992 11.8002 16.1992 12.1002L16.2992 12.4001C16.2992 12.5001 16.2992 12.6002 16.2992 12.7002C16.2992 12.9002 16.1992 13.1002 16.0992 13.2002C15.8992 13.5002 15.6992 13.6002 15.4992 13.7002C14.9992 13.9002 14.4992 13.9001 14.0992 13.9001Z" stroke="black" stroke-width="0.5983"/>
<path d="M22.3998 13.9001C20.8998 13.9001 19.6998 13.4001 18.6998 12.5001C17.6998 11.6001 17.2998 10.3001 17.2998 8.60007C17.2998 7.80007 17.3998 7.10005 17.6998 6.40005C17.9998 5.70005 18.2998 5.20007 18.7998 4.70007C19.1998 4.30007 19.7998 3.90007 20.2998 3.70007C20.8998 3.50007 21.4998 3.30005 22.0998 3.30005C23.4998 3.30005 24.5998 3.80007 25.2998 4.70007C25.9998 5.60007 26.3998 6.80007 26.3998 8.20007C26.3998 8.30007 26.3998 8.40006 26.3998 8.50006C26.3998 8.80006 26.2998 9.00007 25.9998 9.20007C25.7998 9.40007 25.4998 9.50006 25.1998 9.50006H20.3998H20.2998V9.60007C20.5998 10.8001 21.3998 11.4001 22.7998 11.4001C23.1998 11.4001 23.5998 11.3001 23.9998 11.2001C24.0998 11.2001 24.2998 11.1001 24.3998 11.1001C24.4998 11.1001 24.6998 11.1001 24.7998 11.2001C25.0998 11.3001 25.2998 11.4001 25.3998 11.7001L25.4998 11.8C25.5998 12 25.6998 12.1 25.6998 12.3C25.6998 12.4 25.6998 12.5001 25.5998 12.6001C25.4998 12.9001 25.3998 13.1001 25.0998 13.2001C24.1998 13.7001 23.2998 13.9001 22.3998 13.9001ZM20.2998 7.40005C20.2998 7.50005 20.2998 7.50006 20.3998 7.50006H23.5998C23.6998 7.50006 23.6998 7.50005 23.6998 7.40005C23.6998 6.90005 23.4998 6.50007 23.2998 6.20007C22.9998 5.90007 22.5998 5.80005 22.0998 5.80005C21.5998 5.80005 21.2998 5.90007 20.8998 6.20007C20.4998 6.50007 20.2998 6.90005 20.2998 7.40005Z" stroke="black" stroke-width="0.5983"/>
<path d="M29.3994 17.4001C29.0994 17.4001 28.8994 17.3002 28.6994 17.1002C28.4994 16.9002 28.3994 16.7001 28.3994 16.4001V4.60016C28.3994 4.30016 28.4994 4.10015 28.6994 3.90015C28.8994 3.70015 29.0994 3.60016 29.3994 3.60016H30.0994C30.3994 3.60016 30.5994 3.70015 30.7994 3.90015C30.9994 4.10015 31.0994 4.30015 31.1994 4.50015V4.60016C31.1994 4.60016 31.1994 4.60016 31.2994 4.60016C32.1994 3.80016 33.1994 3.40015 34.0994 3.40015C35.2994 3.40015 36.2994 3.90014 36.9994 4.80014C37.6994 5.70014 38.0994 7.00015 38.0994 8.50015C38.0994 9.30015 37.9994 10.1001 37.6994 10.8001C37.3994 11.5001 37.0994 12.1002 36.6994 12.5002C36.2994 13.0002 35.7994 13.3002 35.2994 13.5002C34.7994 13.7002 34.2994 13.9001 33.6994 13.9001C32.8994 13.9001 32.0994 13.6001 31.3994 12.9001C31.3994 12.9001 31.3994 12.9001 31.2994 12.9001L31.3994 14.4001V16.3001C31.3994 16.6001 31.2994 16.8002 31.0994 17.0002C30.8994 17.2002 30.6994 17.3001 30.3994 17.3001H29.3994V17.4001ZM33.0994 11.4001C33.5994 11.4001 33.9994 11.2002 34.3994 10.7002C34.6994 10.2002 34.8994 9.50016 34.8994 8.60016C34.8994 7.70016 34.7994 7.10016 34.4994 6.60016C34.1994 6.20016 33.7994 6.00015 33.2994 6.00015C32.7994 6.00015 32.2994 6.20016 31.7994 6.70016C31.6994 6.80016 31.6994 6.80015 31.6994 6.90015V10.7002C31.6994 10.8002 31.6994 10.9001 31.7994 10.9001C32.0994 11.2001 32.4994 11.4001 33.0994 11.4001Z" stroke="black" stroke-width="0.5983"/>
<path d="M41.8 13.9001C41.3 13.9001 40.8 13.7001 40.5 13.3001C40.2 12.9001 40 12.5001 40 11.9001C40 11.3001 40.2 10.9002 40.5 10.5002C40.8 10.1002 41.3 9.90015 41.8 9.90015C42.3 9.90015 42.8 10.1002 43.2 10.5002C43.6 10.9002 43.7 11.3001 43.7 11.9001C43.7 12.5001 43.5 12.9001 43.2 13.3001C42.9 13.7001 42.3 13.9001 41.8 13.9001Z" stroke="black" stroke-width="0.5983"/>
<path d="M47.2998 13.7001C46.9998 13.7001 46.7998 13.6001 46.5998 13.4001C46.3998 13.2001 46.2998 13.0001 46.2998 12.7001V12.2001C46.2998 11.9001 46.3998 11.7001 46.5998 11.5001C46.7998 11.3001 46.9998 11.2001 47.2998 11.2001H48.8998C48.9998 11.2001 48.9998 11.2001 48.9998 11.1001V3.80008C48.9998 3.70008 48.9998 3.7001 48.8998 3.7001H47.5998C47.2998 3.7001 47.0998 3.60009 46.8998 3.40009C46.6998 3.20009 46.5998 3.0001 46.5998 2.7001C46.5998 2.4001 46.6998 2.20009 46.8998 2.00009C47.0998 1.80009 47.2998 1.6001 47.5998 1.6001C48.0998 1.5001 48.5998 1.3001 48.9998 1.1001C49.6998 0.800098 50.2998 0.600098 50.8998 0.600098H51.1998C51.4998 0.600098 51.6998 0.700085 51.8998 0.900085C52.0998 1.10009 52.1998 1.3001 52.1998 1.6001V11.1001C52.1998 11.2001 52.1998 11.2001 52.2998 11.2001H53.4998C53.7998 11.2001 53.9998 11.3001 54.1998 11.5001C54.3998 11.7001 54.4998 11.9001 54.4998 12.2001V12.7001C54.4998 13.0001 54.3998 13.2001 54.1998 13.4001C53.9998 13.6001 53.7998 13.7001 53.4998 13.7001H47.2998Z" stroke="black" stroke-width="0.5983"/>
<path d="M58.0996 13.7001C57.7996 13.7001 57.5997 13.6001 57.3997 13.4001C57.1997 13.2001 57.0996 13.0001 57.0996 12.7001V12.2001C57.0996 11.9001 57.1997 11.7001 57.3997 11.5001C57.5997 11.3001 57.7996 11.2001 58.0996 11.2001H59.6996C59.7996 11.2001 59.7996 11.2001 59.7996 11.1001V3.80008C59.7996 3.70008 59.7996 3.7001 59.6996 3.7001H58.3997C58.0997 3.7001 57.8996 3.60009 57.6996 3.40009C57.4996 3.20009 57.3997 3.0001 57.3997 2.7001C57.3997 2.4001 57.4996 2.20009 57.6996 2.00009C57.8996 1.80009 58.0997 1.6001 58.3997 1.6001C58.8997 1.5001 59.3996 1.3001 59.7996 1.1001C60.4996 0.800098 61.0996 0.600098 61.6996 0.600098H61.9996C62.2996 0.600098 62.4996 0.700085 62.6996 0.900085C62.8996 1.10009 62.9996 1.3001 62.9996 1.6001V11.1001C62.9996 11.2001 62.9996 11.2001 63.0996 11.2001H64.2996C64.5996 11.2001 64.7996 11.3001 64.9996 11.5001C65.1996 11.7001 65.2996 11.9001 65.2996 12.2001V12.7001C65.2996 13.0001 65.1996 13.2001 64.9996 13.4001C64.7996 13.6001 64.5996 13.7001 64.2996 13.7001H58.0996Z" stroke="black" stroke-width="0.5983"/>
<path d="M79.2002 9.2999C99.9002 8.9999 120.7 8.6999 141.4 8.3999" stroke="#4D4D4D" stroke-width="0.5983" stroke-miterlimit="10"/>
</svg>
