<svg width="397" height="88" viewBox="0 0 397 88" fill="none" xmlns="http://www.w3.org/2000/svg">
<path d="M341.239 78.8001C340.139 80.9001 337.038 82.7001 334.137 82.9001C310.627 84.0001 289.218 84.4001 268.61 84.2001C261.507 84.1001 254.404 84.2001 247.401 84.4001C235.596 84.6001 223.391 84.8001 211.486 84.0001C191.078 82.7001 170.37 83.1001 152.062 83.5001C135.956 83.9001 119.549 83.8001 103.642 83.8001H93.3382C84.9348 83.8001 75.9311 83.9001 66.7273 84.8001C64.6265 85.0001 61.2251 84.5001 59.8245 84.2001C58.3239 84.0001 56.4231 83.2001 55.7228 81.7001C55.1226 80.5001 55.3227 79.0001 55.5228 77.5001V77.2001C56.4231 70.1001 56.023 63.8001 54.1222 56.7001C53.2218 53.3001 53.5219 50.0001 53.8221 46.5001C54.0221 44.1001 54.3223 41.7001 54.1222 39.2001L54.0221 37.1001C53.9221 35.3001 53.8221 33.7001 53.622 31.8001C53.4219 29.3001 53.3219 26.7001 54.0221 24.4001C54.1222 23.9001 54.2222 23.5001 54.3223 23.1001C55.5228 24.1001 57.3235 24.2001 58.3239 24.2001C75.731 25.0001 93.3382 24.9001 107.944 24.0001C121.85 24.0001 135.856 23.7001 149.461 23.4001C173.371 22.9001 197.981 22.3001 222.291 23.7001C242.099 24.9001 262.407 25.2001 286.217 24.6001H287.217C297.722 24.4001 308.626 24.1001 319.431 24.8001H320.131C326.133 25.2001 333.636 25.6001 339.539 24.4001C340.039 24.3001 340.439 24.2001 340.839 24.0001C341.039 25.1001 340.939 26.2001 340.939 27.4001C340.839 29.0001 340.839 30.7001 341.239 32.3001C342.14 35.6001 342.14 38.3001 342.04 42.1001C342.04 43.6001 342.04 45.3001 342.04 47.2001C342.14 49.5001 341.94 51.7001 341.84 53.9001C341.64 56.5001 341.54 59.3001 341.74 62.1001C341.84 63.9001 342.14 65.6001 342.44 67.3001C342.64 68.5001 342.84 69.6001 343.04 70.8001C343.74 73.6001 342.34 76.7001 341.239 78.8001ZM386.758 47.3001C383.457 42.6001 380.155 37.7001 376.454 33.0001C375.653 32.0001 374.753 30.8001 374.553 29.6001C374.153 27.4001 376.054 25.2001 377.854 23.4001C381.156 19.9001 384.357 16.2001 387.458 12.6001C390.059 9.60008 392.66 6.50008 395.362 3.60008C395.962 2.90008 396.062 2.00008 395.662 1.30008C395.262 0.500082 394.461 8.16183e-05 393.461 0.100082C388.359 0.200082 383.257 1.00008 378.755 1.70008C370.151 2.20008 361.248 2.30008 352.244 1.80008L350.943 1.70008C339.039 1.00008 333.636 0.700081 321.131 2.30008C317.83 2.70008 316.729 3.10008 315.229 3.50008C314.328 3.80008 313.228 4.10008 311.427 4.50008C308.726 5.10008 307.226 6.30008 307.126 7.90008C307.126 8.10008 307.126 8.20008 307.126 8.40008C307.126 10.3001 307.025 12.1001 307.025 13.9001C306.925 16.6001 306.825 19.3001 307.025 22.1001C300.523 22.1001 294.02 22.2001 287.718 22.3001H286.717C263.008 22.8001 242.699 22.5001 222.991 21.4001C198.581 20.0001 173.871 20.5001 149.961 21.1001C136.356 21.4001 122.35 21.7001 108.444 21.7001C102.842 22.1001 96.7396 22.3001 90.337 22.4001C90.1369 19.8001 90.1369 17.2001 90.1369 14.6001C90.1369 12.4001 90.2369 10.2001 90.0368 7.80008C90.1369 5.10008 85.535 4.10008 83.8343 4.00008C81.9335 3.80008 74.9307 3.50008 73.0299 3.50008C60.2247 3.40008 48.9201 3.00008 38.0156 2.60008C27.0111 2.10008 15.7065 1.70008 2.80122 1.70008C2.30102 1.70008 1.30061 1.70008 0.700366 2.40008C0.300203 2.80008 -0.200002 3.80008 0.900448 5.40008C6.60278 13.5001 11.8049 19.2001 16.2067 22.6001C18.9078 24.7001 23.5097 28.7001 23.4096 33.0001C23.4096 35.4001 21.7089 37.5001 19.7081 39.8001C17.007 42.9001 14.2059 45.1001 11.3047 47.4001C8.40351 49.7001 5.40229 52.1001 2.60114 55.3001C1.70077 56.3001 0.700366 57.4001 0.300203 58.9001C-0.0999606 60.4001 0.200162 62.4001 1.80082 63.5001C2.80122 64.2001 4.10176 64.2001 5.00212 64.3001C15.8065 64.9001 26.6109 65.3001 37.5154 65.3001C42.9176 65.3001 48.2198 65.2001 53.622 65.1001C54.1222 69.0001 54.0221 72.9001 53.5219 77.1001V77.4001C53.3219 79.1001 53.0217 81.0001 53.9221 82.8001C54.8225 84.8001 57.0234 86.2001 59.8245 86.7001C61.9254 87.0001 64.2263 87.3001 66.1271 87.3001C66.5272 87.3001 67.0275 87.3001 67.3276 87.2001C76.5313 86.4001 85.435 86.3001 93.7384 86.3001H103.943C119.849 86.3001 136.256 86.3001 152.362 86.0001C170.57 85.6001 191.278 85.1001 211.586 86.5001C223.691 87.3001 235.896 87.1001 247.701 86.9001C254.604 86.8001 261.807 86.7001 268.81 86.7001C289.418 86.9001 310.827 86.5001 334.437 85.4001C338.238 85.2001 342.14 82.9001 343.64 80.1001C344.841 77.8001 346.342 74.3001 345.941 70.9001C345.841 69.7001 345.541 68.5001 345.341 67.3001C345.241 66.7001 345.141 66.0001 345.041 65.4001C349.543 65.5001 358.647 65.5001 366.15 65.4001C369.951 65.4001 373.253 65.3001 374.953 65.3001C380.856 65.3001 386.658 64.5001 392.46 63.7001C392.861 63.7001 393.161 63.7001 393.561 63.6001C394.561 63.6001 395.362 63.0001 395.862 62.2001C396.262 61.4001 396.262 60.4001 395.662 59.7001C392.36 55.5001 389.559 51.3001 386.758 47.3001ZM309.326 14.1001C309.326 13.2001 309.426 12.4001 309.426 11.5001C309.927 11.7001 310.327 12.0001 310.927 12.2001C315.629 13.8001 318.73 14.4001 322.032 15.1001C324.333 15.6001 326.734 16.1001 329.935 16.9001C334.036 18.0001 334.937 18.5001 337.538 20.0001C338.238 20.4001 338.939 20.8001 339.839 21.3001C340.339 21.6001 340.439 21.8001 340.439 21.7001C340.339 21.8001 339.939 22.1001 339.239 22.2001C333.636 23.3001 326.333 22.9001 320.431 22.5001H319.731C316.229 22.3001 312.628 22.2001 309.126 22.2001C309.126 19.4001 309.226 16.8001 309.326 14.1001ZM56.6232 19.3001C57.4235 18.6001 58.624 18.3001 59.7245 18.1001C63.1259 17.3001 67.2275 16.5001 71.1291 15.7001C75.0307 14.9001 79.1324 14.1001 82.6338 13.3001C83.7343 13.0001 85.8351 12.5001 87.5358 11.4001C87.5358 12.5001 87.5358 13.5001 87.5358 14.6001C87.5358 17.2001 87.4358 19.8001 87.7359 22.5001C78.4321 22.6001 68.5281 22.5001 58.8241 22.0001C57.7237 22.0001 56.5232 21.8001 56.123 21.2001C55.7228 20.6001 56.023 19.7001 56.6232 19.3001ZM5.00212 62.0001C4.2018 62.0001 3.50151 61.9001 3.10135 61.6001C2.40106 61.2001 2.30102 60.2001 2.5011 59.4001C2.80122 58.4001 3.60155 57.5001 4.30184 56.6001C7.00294 53.5001 9.80408 51.3001 12.7053 49.0001C15.6065 46.7001 18.6077 44.3001 21.4088 41.1001C23.2096 39.1001 25.6105 36.3001 25.7106 32.9001C25.8106 27.7001 20.7085 23.1001 17.6073 20.7001C13.4056 17.6001 8.40351 12.0001 2.90127 4.10008C2.80122 4.00008 2.70118 4.00008 2.70118 3.90008C2.70118 3.90008 2.70118 3.90008 2.80122 3.90008C15.6065 4.00008 26.9111 4.40008 37.9156 4.80008C48.9201 5.20008 60.2247 5.70008 73.1299 5.70008C74.9307 5.70008 81.8335 6.00008 83.4342 6.10008C85.535 6.30008 87.5358 7.20008 87.4358 7.70008C87.2357 9.50008 84.2345 10.5001 82.0336 11.0001C78.6322 11.8001 74.5305 12.6001 70.6289 13.4001C66.7273 14.2001 62.6257 15.0001 59.1242 15.8001C58.1238 16.0001 56.9233 16.3001 55.9229 16.9001C53.3219 18.0001 52.8216 20.1001 52.3214 22.2001C52.2214 22.7001 52.1214 23.2001 51.9213 23.6001C51.121 26.3001 51.221 29.1001 51.4211 31.8001C51.6212 33.7001 51.6212 35.3001 51.8212 37.1001L51.9213 39.2001C52.0213 41.5001 51.8212 43.9001 51.6212 46.2001C51.321 49.7001 50.9209 53.4001 51.9213 57.1001C52.4215 59.0001 52.8216 60.8001 53.1218 62.6001C37.1152 63.1001 21.0087 62.9001 5.00212 62.0001ZM341.239 78.8001C340.139 80.9001 337.038 82.7001 334.137 82.9001C310.627 84.0001 289.218 84.4001 268.61 84.2001C261.507 84.1001 254.404 84.2001 247.401 84.4001C235.596 84.6001 223.391 84.8001 211.486 84.0001C191.078 82.7001 170.37 83.1001 152.062 83.5001C135.956 83.9001 119.549 83.8001 103.642 83.8001H93.3382C84.9348 83.8001 75.9311 83.9001 66.7273 84.8001C64.6265 85.0001 61.2251 84.5001 59.8245 84.2001C58.3239 84.0001 56.4231 83.2001 55.7228 81.7001C55.1226 80.5001 55.3227 79.0001 55.5228 77.5001V77.2001C56.4231 70.1001 56.023 63.8001 54.1222 56.7001C53.2218 53.3001 53.5219 50.0001 53.8221 46.5001C54.0221 44.1001 54.3223 41.7001 54.1222 39.2001L54.0221 37.1001C53.9221 35.3001 53.8221 33.7001 53.622 31.8001C53.4219 29.3001 53.3219 26.7001 54.0221 24.4001C54.1222 23.9001 54.2222 23.5001 54.3223 23.1001C55.5228 24.1001 57.3235 24.2001 58.3239 24.2001C75.731 25.0001 93.3382 24.9001 107.944 24.0001C121.85 24.0001 135.856 23.7001 149.461 23.4001C173.371 22.9001 197.981 22.3001 222.291 23.7001C242.099 24.9001 262.407 25.2001 286.217 24.6001H287.217C297.722 24.4001 308.626 24.1001 319.431 24.8001H320.131C326.133 25.2001 333.636 25.6001 339.539 24.4001C340.039 24.3001 340.439 24.2001 340.839 24.0001C341.039 25.1001 340.939 26.2001 340.939 27.4001C340.839 29.0001 340.839 30.7001 341.239 32.3001C342.14 35.6001 342.14 38.3001 342.04 42.1001C342.04 43.6001 342.04 45.3001 342.04 47.2001C342.14 49.5001 341.94 51.7001 341.84 53.9001C341.64 56.5001 341.54 59.3001 341.74 62.1001C341.84 63.9001 342.14 65.6001 342.44 67.3001C342.64 68.5001 342.84 69.6001 343.04 70.8001C343.74 73.6001 342.34 76.7001 341.239 78.8001ZM393.461 61.0001C393.361 61.1001 393.361 61.1001 393.261 61.1001C392.861 61.1001 392.46 61.1001 391.96 61.2001C386.158 62.1001 380.455 62.8001 374.753 62.8001C373.052 62.8001 369.751 62.8001 365.95 62.9001C358.647 63.0001 348.843 63.0001 344.541 62.9001C344.541 62.6001 344.441 62.3001 344.441 62.0001C344.241 59.3001 344.441 56.8001 344.541 54.1001C344.641 51.9001 344.841 49.6001 344.741 47.3001C344.741 45.4001 344.741 43.8001 344.741 42.2001C344.741 38.4001 344.841 35.5001 343.841 31.9001C343.44 30.6001 343.54 29.1001 343.64 27.6001C343.74 25.6001 343.841 23.5001 342.84 21.5001C342.64 20.4001 341.54 19.8001 341.139 19.6001C340.239 19.1001 339.439 18.6001 338.838 18.3001C336.137 16.7001 335.037 16.1001 330.635 14.9001C327.334 14.0001 324.933 13.5001 322.532 13.0001C319.13 12.3001 316.229 11.7001 311.727 10.1001C310.527 9.70008 309.326 9.00008 309.426 8.30008C309.526 7.50008 311.027 7.10008 311.927 6.90008C313.828 6.40008 315.029 6.10008 315.929 5.80008C317.43 5.30008 318.33 5.10008 321.431 4.70008C333.636 3.10008 339.039 3.40008 350.743 4.00008L352.044 4.10008C361.148 4.60008 370.151 4.60008 378.955 4.00008C383.657 3.30008 388.559 2.50008 393.361 2.30008C390.66 5.30008 387.959 8.40008 385.357 11.4001C382.256 15.0001 379.055 18.7001 375.854 22.1001C373.753 24.4001 371.452 27.0001 372.052 30.2001C372.352 31.9001 373.453 33.4001 374.353 34.5001C378.054 39.1001 381.356 44.0001 384.557 48.7001C387.358 52.7001 390.159 56.9001 393.261 60.9001C393.461 60.9001 393.461 60.9001 393.461 61.0001Z" fill="url(#paint0_linear)"/>
<path d="M113.1 53C113.1 53 115.4 54.7 116.9 56C116.8 56.3 116.5 56.5 116 56.5H104.5V62.8C104.5 65.3 103.7 67.1 98.9 67.5C98.8 66.3 98.6 65.3 97.9 64.8C97.2 64.2 96.3 63.8 94.1 63.5V63C94.1 63 98.8 63.3 99.8 63.3C100.3 63.3 100.6 63.1 100.6 62.6V56.5H88.2L88 55.6H100.6V49.9H89.9L89.7 49H100.6V44C97 44.3 93.3 44.5 89.9 44.4L89.8 43.9C96.9 43 105.6 40.9 110 39L113.7 42.6C113.4 42.9 112.7 42.9 111.6 42.5C109.6 42.9 107.1 43.3 104.5 43.6V49H109.8L111.9 46.4C111.9 46.4 114.2 48.2 115.6 49.4C115.5 49.7 115.2 49.9 114.7 49.9H104.5V55.6H111L113.1 53Z" fill="white"/>
<path d="M140.7 63.3C142.1 63.5 143.7 63.5 145.5 63.5C147.2 63.5 151.2 63.5 153.1 63.5V63.9C151.9 64.2 151.4 65.4 151.3 66.8H145.3C138.3 66.8 134.6 65.4 132.4 59.6C131.1 62.7 128.9 65.6 125 67.5L124.8 67.2C128.7 63.6 129.9 58 130.1 53.6L134.9 54.4C134.8 54.8 134.4 55.1 133.7 55.1C133.5 56.3 133.2 57.6 132.7 58.8C133.8 60.7 135.2 61.9 137.1 62.6V49.9H132.8V51.1C132.8 51.5 131.2 52.2 129.8 52.2H129.3V39.8L133 41.3H144.6L146.3 39.5L149.8 42.2C149.6 42.4 149.2 42.7 148.6 42.8V50.7C148.6 50.9 146.8 51.7 145.6 51.7H145V49.8H140.8V55.8H145.3L147.4 53.2C147.4 53.2 149.8 54.9 151.2 56.1C151.1 56.4 150.8 56.6 150.3 56.6H140.8V63.3H140.7ZM144.9 49V42.2H132.8V49H144.9Z" fill="white"/>
<path d="M161 46.3C169.1 46.9 166.6 52.9 163.4 50.9C163 49.3 161.8 47.6 160.7 46.5L161 46.3ZM169.5 47C168.6 50 167 55.5 166.6 56.9C166.4 57.8 166.2 58.8 166.2 59.5C166.3 61.1 167.5 62.3 167.4 64.9C167.3 66.4 166.3 67.4 164.9 67.4C164.2 67.4 163.5 66.8999 163.3 65.7999C163.9 62.5999 163.8 59.6999 163.1 59.2999C162.7 58.9999 162.2 58.8999 161.6 58.7999V58.2H162.9C163.3 58.2 163.5 58.2 163.8 57.6C164.4 56.6 164.4 56.6 169 46.8L169.5 47ZM163.4 39.4C172 40.3 169.3 46.6 166 44.4C165.6 42.6 164.3 40.8 163.1 39.5L163.4 39.4ZM186.3 42.6C186.3 42.6 188.4 44.3 189.7 45.4C189.6 45.7 189.3 45.9 188.9 45.9H181.9L185.5 47.3C185.4 47.6 185.1 47.8 184.5 47.8C183.4 49.9 181.6 52.4 180 54.2C180.9 54.2 182.2 54.2 183.4 54.2C183.9 52.5 184.4 50.8 184.6 49.6L188.8 51.7C188.6 52 188.3 52.2 187.6 52.2C186.1 55.6 183.3 60.5 180.7 63.6C182 63.5 183.8 63.4 185.7 63.2C185.4 61.7 184.9 60.0999 184.3 58.7999L184.7 58.6C191.9 63.2 188.7 69.5 186 66.6C186.1 65.8 186 64.9 185.9 64.1C184.5 64.8 182.6 65.6 180.6 66.4C180.4 66.6 180.2 66.8 180 66.9L178.8 63.4C178.8 63.4 179.5 63.2 179.8 62.9C180.8 61.4 182.1 58.4 183.1 55.4C182.2 55.9 181.2 56.4 180.2 56.9C180 57.2 179.8 57.4 179.6 57.4L178 54.2C178 54.2 178.6 54 178.8 53.8C179.8 52.3 181 48.2 181.4 45.9H172.6L176.6 47.4C176.4 47.7 176 48 175.5 48C174.3 50 172.4 52.6 170.7 54.4C171.7 54.4 172.9 54.4 174.1 54.4C174.7 52.7 175.3 51 175.6 49.8L179.6 51.9C179.4 52.2 179.1 52.4 178.4 52.4C176.8 55.8 173.7 60.6999 170.9 63.9C172.2 63.8 173.9 63.7 175.7 63.5C175.5 61.9 175.1 60.3 174.7 59.1L175.1 58.9C181 63.9 178.2 69.3999 175.8 66.7999C175.9 65.9999 175.9 65.3 175.8 64.5C174.4 65.2 172.6 65.9999 170.6 66.7999C170.4 67.0999 170.1 67.3 169.8 67.4L168.6 63.9C168.6 63.9 169.3 63.7 169.6 63.4C170.8 61.9 172.2 58.9 173.4 56C172.5 56.4 171.5 56.8999 170.5 57.2999C170.3 57.4999 170.1 57.6999 169.9 57.7999L168.5 54.4C168.5 54.4 169.1 54.2 169.3 54C170.4 52.5 171.8 48.4 172.2 46.1H168.8L168.6 45.2H180C180.5 43.4 181.2 40.9 181.6 39.2L186.2 40.6C186.1 41 185.7 41.2 185 41.1C183.9 42.2 182.3 43.8 180.8 45.1H184.4L186.3 42.6ZM171.4 39.4C179.7 40.4 177 46.6 173.8 44.4C173.5 42.7 172.3 40.8 171.2 39.6L171.4 39.4Z" fill="white"/>
<path d="M197.5 45.8C204.8 47.1 202.1 52.6 199.3 50.4C199.1 48.8 198.2 47.1 197.2 45.9L197.5 45.8ZM204.8 45.9C204 49.2 202.6 55.3 202.3 56.7C202.1 57.6 202 58.6 202 59.4C202.1 61 203.2 62.1999 203.2 64.9C203.1 66.4 202.2 67.4 200.8 67.4C200.2 67.4 199.5 66.8999 199.3 65.7999C199.8 62.5999 199.7 59.7999 199.1 59.2999C198.7 58.9999 198.2 58.8999 197.6 58.7999V58.2H198.9C199.3 58.2 199.4 58.2 199.7 57.6C200.2 56.5 200.2 56.5 204.3 45.8L204.8 45.9ZM199.3 39.2C207.1 40.7 204.3 46.3 201.4 44.1C201.1 42.5 200 40.6 199.1 39.4L199.3 39.2ZM208.2 50V66.2999C208.2 66.6999 207.1 67.5 205.7 67.5H205.2V39.8L208.4 41.2H210.8L212.2 39.7L215.1 41.9C214.9 42.1 214.5 42.3 214 42.4V50.7C214 50.9 212.5 51.5 211.6 51.5H211V50H208.2ZM208.2 42.1V45.2H211V42.1H208.2ZM211 49.1V46H208.2V49.1H211ZM218.4 60C218.4 60 220 61.2999 221 62.2999C220.9 62.5999 220.6 62.7999 220.2 62.7999H209.2L209 62H213.1V58.1H209.9L209.7 57.2999H213.1V54H209.6L209.4 53.2H216.9L218.2 51.4C218.2 51.4 219.7 52.7 220.7 53.6C220.6 53.9 220.3 54.1 219.9 54.1H216V57.4H216.9L218.2 55.6C218.2 55.6 219.7 56.8 220.5 57.7C220.4 58 220.1 58.2 219.7 58.2H216V62H217L218.4 60ZM225.9 42C225.7 42.2 225.2 42.5 224.6 42.6V63.7999C224.6 65.9999 224.1 67.2 220.4 67.5C220.3 66.6 220.2 65.9 219.7 65.4C219.2 65 218.6 64.6 217.1 64.4V64C217.1 64 220 64.2 220.7 64.2C221.2 64.2 221.3 64 221.3 63.6V50H218.3V50.4C218.3 50.7 217.1 51.3 215.8 51.3H215.4V40L218.4 41.2H220.9L222.4 39.5L225.9 42ZM218.5 42.1V45.2H221.5V42.1H218.5ZM221.5 49.1V46H218.5V49.1H221.5Z" fill="white"/>
<path d="M242.7 43.1C242.7 43.1 244.3 44.4 245.3 45.3C245.2 45.6 244.9 45.8 244.5 45.8H234.1L233.9 45H241.3L242.7 43.1ZM240.6 48.8L241.9 47.1C241.9 47.1 243.4 48.3 244.3 49.2C244.2 49.5 243.9 49.7 243.5 49.7H235.1L234.9 48.9H240.6V48.8ZM241.9 51C241.9 51 243.4 52.2 244.3 53.1C244.2 53.4 243.9 53.6 243.5 53.6H235.1L234.9 52.8H240.5L241.9 51ZM243.7 64.9C243.7 65.1 242.2 65.8 241.1 65.8H240.6V64.3H238.2V66.2C238.2 66.5 236.9 67.2 235.6 67.2H235.1V55.3L238.3 56.6H240.3L241.7 55.1L244.7 57.3C244.5 57.5 244.2 57.7 243.6 57.8V64.9H243.7ZM236.3 39.6C244.1 40 241.3 45.8 238.2 43.8C237.9 42.3 236.9 40.7 236 39.8L236.3 39.6ZM240.6 63.5V57.4H238.2V63.5H240.6ZM261.6 59.3C261.4 59.6 261.1 59.7 260.3 59.7C259.3 61.1 258.1 62.2 256.7 63.2C258.6 63.6 260.6 63.8 262.6 64V64.4C261.3 64.8 260.5 65.8 260.3 67.4C257.8 66.9 255.4 66.1 253.5 65.1C250.7 66.3 247.3 67.1 243.5 67.5L243.3 67C246.4 66.3 249.2 65.3 251.6 63.9C249.9 62.7 248.5 61.2 247.5 59.2H245L244.7 58.3H256.8L258.5 56.8H249V57C249 57.2 248 57.9 246.5 57.9H246V50.5C245.4 51 244.7 51.4 244.1 51.7L243.7 51.4C245 49.7 246.5 46.8 247.5 44L248.6 44.5V42.7H244.7L244.4 41.8H248.5V39L252.4 39.4C252.3 39.7 252.1 40 251.5 40.1V43.7H251.6C252.7 43.7 253.5 43.9 254.1 44.1V39L258.1 39.4C258 39.7 257.9 40 257.2 40.1V41.9H258.7L260 40.1C260 40.1 261.5 41.3 262.3 42.3C262.2 42.6 261.9 42.8 261.5 42.8H257.2V44C257.2 44.2 256.1 44.6 255 44.7C256.2 46 254.2 47.9 252.5 46.5C252.5 45.6 252 44.6 251.6 44C251.5 44.2 250.2 44.6 249.1 44.6H249L251.3 45.6C251.1 45.9 250.7 46.2 250.1 46.1C249.9 46.4 249.6 46.7 249.4 47H257.7L259.1 45.3C259.1 45.3 260.6 46.5 261.6 47.4C261.5 47.7 261.2 47.9 260.8 47.9H255.3V49.9H257.3L258.6 48.4C258.6 48.4 260 49.5 260.9 50.3C260.8 50.6 260.5 50.8 260.1 50.8H255.3V52.8H257.3L258.6 51.3C258.6 51.3 260 52.4 260.9 53.2C260.8 53.5 260.5 53.7 260.1 53.7H255.3V55.8H258.2L259.7 54C259.7 54 261.4 55.2 262.5 56.2C262.4 56.5 262.1 56.7 261.7 56.7H258.9L261.6 59.3ZM248.2 59.2C249.5 60.7 251.4 61.7 253.7 62.5C254.9 61.5 255.9 60.4 256.7 59.2H248.2ZM252.3 47.9H249V49.9H252.2V47.9H252.3ZM252.3 50.9H249V52.9H252.2V50.9H252.3ZM249 55.9H252.2V53.8H249V55.9Z" fill="white"/>
<path d="M295.9 62.7001C295.9 62.7001 298.1 64.6001 299.3 65.8001C299.2 66.1001 298.9 66.3001 298.5 66.3001H278.4L278.2 65.4001H287.4V60.0001H281.2L281 59.2001H287.5V54.4001H284.6V55.2001C284.6 55.6001 283.1 56.4001 281.7 56.4001H281.2V51.1001C281.1 51.3001 280.8 51.4001 280.5 51.4001H277V58.9001C278.3 58.5001 279.8 58.1001 281.2 57.7001L281.3 58.0001C279.4 59.4001 276.4 61.5001 272.2 64.0001C272.1 64.4001 271.8 64.7001 271.5 64.8001L269.9 60.8001C270.7 60.6001 272 60.3001 273.6 59.9001V51.4001H270.6L270.4 50.6001H273.7V43.0001H270.6L270.4 42.1001H276.9L278.7 39.6001C278.7 39.6001 280.2 40.8001 281.3 41.9001V39.9001L284.9 41.4001H293.7L295.4 39.6001L298.7 42.2001C298.5 42.4001 298.1 42.7001 297.5 42.8001V54.7001C297.5 55.0001 295.8 55.8001 294.6 55.8001H294V54.5001H291V59.3001H293.2L295 56.8001C295 56.8001 297 58.5001 298.2 59.7001C298.1 60.0001 297.8 60.2001 297.4 60.2001H291V65.6001H294.2L295.9 62.7001ZM278.6 48.2001C278.6 48.2001 280.2 49.8001 281.1 50.9001V43.0001H280.9H277V50.5001H277.1L278.6 48.2001ZM284.5 42.2001V47.4001H287.4V42.2001H284.5ZM287.4 53.6001V48.3001H284.5V53.5001H287.4V53.6001ZM290.9 42.2001V47.4001H293.9V42.2001H290.9ZM293.9 53.6001V48.3001H290.9V53.5001H293.9V53.6001Z" fill="white"/>
<defs>
<linearGradient id="paint0_linear" x1="84.2836" y1="146.069" x2="312.411" y2="-82.1518" gradientUnits="userSpaceOnUse">
<stop stop-color="#DDBC82"/>
<stop offset="0.3054" stop-color="#9B7860"/>
<stop offset="0.6522" stop-color="#DDBC82"/>
<stop offset="1" stop-color="#9B7860"/>
</linearGradient>
</defs>
</svg>
