<svg width="316" height="18" viewBox="0 0 316 18" fill="none" xmlns="http://www.w3.org/2000/svg">
<path d="M4.5 14C3.5 14 2.5 13.7 1.4 13.2C1.2 13.1 1 12.8 1 12.6C1 12.5 1 12.5 1 12.4C1 12.2 1.1 12 1.2 11.8L1.4 11.5C1.6 11.3 1.8 11.1 2.1 11.1C2.2 11.1 2.2 11.1 2.3 11.1C2.5 11.1 2.7 11.2 2.9 11.3C3.5 11.6 4.1 11.8 4.6 11.8C5.4 11.8 5.8 11.5 5.8 11C5.8 10.9 5.8 10.8 5.7 10.8C5.6 10.8 5.6 10.7 5.5 10.6C5.4 10.5 5.3 10.5 5.3 10.4C5.2 10.3 5.1 10.3 5 10.2C4.8 10.1 4.7 10.1 4.6 10C4.5 10 4.4 9.9 4.2 9.8C4 9.7 3.9 9.7 3.8 9.6C3.5 9.5 3.1 9.3 2.9 9.2C2.7 9.1 2.3 8.8 2 8.6C1.7 8.4 1.5 8.1 1.4 7.8C1.2 7.5 1.2 7.1 1.2 6.7C1.2 5.7 1.6 5 2.3 4.4C3 3.8 4 3.5 5.1 3.5C6.1 3.5 7 3.7 7.9 4.2C8.1 4.3 8.3 4.5 8.3 4.8C8.3 4.9 8.3 4.9 8.3 5C8.3 5.2 8.2 5.4 8.1 5.6L7.9 5.8C7.7 6 7.5 6.2 7.2 6.2C7.1 6.2 7 6.2 7 6.2C6.8 6.2 6.6 6.2 6.4 6.1C6 5.9 5.6 5.8 5.2 5.8C4.5 5.8 4.1 6 4.1 6.5C4.1 6.6 4.1 6.6 4.1 6.7C4.1 6.8 4.2 6.8 4.2 6.9C4.2 7 4.3 7 4.3 7C4.3 7 4.4 7.1 4.5 7.1C4.6 7.1 4.7 7.2 4.7 7.2C4.8 7.2 4.9 7.3 5 7.3C5.1 7.3 5.2 7.4 5.3 7.4C5.4 7.4 5.5 7.5 5.6 7.5C5.7 7.5 5.9 7.6 5.9 7.6C6.3 7.7 6.6 7.9 6.9 8C7.2 8.1 7.4 8.3 7.7 8.6C8 8.9 8.2 9.1 8.3 9.5C8.4 9.8 8.5 10.2 8.5 10.7C8.5 11.7 8.1 12.5 7.4 13.1C6.7 13.7 5.9 14 4.5 14Z" stroke="black" stroke-width="0.5983"/>
<path d="M14.6002 14C13.4002 14 12.5002 13.7 11.9002 12.9C11.3002 12.3 11.0002 11.3 11.0002 10V6.3C11.0002 6.2 11.0002 6.2 10.9002 6.2H10.7002C10.4002 6.2 10.2002 6.1 10.0002 5.9C9.8002 5.7 9.7002 5.5 9.7002 5.2V4.8C9.7002 4.5 9.8002 4.3 10.0002 4C10.2002 3.8 10.4002 3.7 10.7002 3.6H11.1002C11.2002 3.6 11.2002 3.5 11.3002 3.5L11.4002 2C11.4002 1.7 11.6002 1.5 11.8002 1.3C12.0002 1.1 12.3002 1 12.5002 1H13.1002C13.4002 1 13.6002 1.1 13.8002 1.3C14.0002 1.5 14.1002 1.7 14.1002 2V3.5C14.1002 3.6 14.1002 3.6 14.2002 3.6H15.4002C15.7002 3.6 15.9002 3.7 16.1002 3.9C16.3002 4.1 16.4002 4.3 16.4002 4.6V5C16.4002 5.3 16.3002 5.5 16.1002 5.7C16.0002 6 15.8002 6.1 15.5002 6.1H14.3002C14.2002 6.1 14.2002 6.1 14.2002 6.2V10C14.2002 11 14.6002 11.5 15.4002 11.6C15.7002 11.6 15.9002 11.7 16.2002 11.8C16.4002 11.9 16.6002 12.1 16.6002 12.4L16.7002 12.7C16.7002 12.8 16.7002 12.9 16.7002 13C16.7002 13.2 16.6002 13.4 16.5002 13.5C16.3002 13.8 16.1002 13.9 15.9002 14C15.4002 14 15.0002 14 14.6002 14Z" stroke="black" stroke-width="0.5983"/>
<path d="M22.8998 14.0001C21.3998 14.0001 20.1998 13.5001 19.1998 12.6001C18.1998 11.7001 17.7998 10.4001 17.7998 8.70015C17.7998 7.90015 17.8998 7.20015 18.1998 6.50015C18.4998 5.80015 18.7998 5.30015 19.2998 4.80015C19.6998 4.40015 20.2998 4.00015 20.7998 3.80015C21.3998 3.60015 21.9998 3.40015 22.5998 3.40015C23.9998 3.40015 25.0998 3.90015 25.7998 4.80015C26.4998 5.70015 26.8998 6.90015 26.8998 8.30015C26.8998 8.40015 26.8998 8.50015 26.8998 8.60015C26.8998 8.90015 26.7998 9.10015 26.4998 9.30015C26.2998 9.50015 25.9998 9.60015 25.6998 9.60015H20.8998H20.7998V9.70015C21.0998 10.9001 21.8998 11.5001 23.2998 11.5001C23.6998 11.5001 24.0998 11.4001 24.4998 11.3001C24.5998 11.3001 24.7998 11.2001 24.8998 11.2001C24.9998 11.2001 25.1998 11.2001 25.2998 11.3001C25.5998 11.4001 25.7998 11.5001 25.8998 11.8001L25.9998 12.0001C26.0998 12.2001 26.1998 12.3001 26.1998 12.5001C26.1998 12.6001 26.1998 12.7001 26.0998 12.8001C25.9998 13.1001 25.8998 13.3001 25.5998 13.4001C24.6998 13.8001 23.7998 14.0001 22.8998 14.0001ZM20.7998 7.50015C20.7998 7.60015 20.7998 7.60015 20.8998 7.60015H24.0998C24.1998 7.60015 24.1998 7.60015 24.1998 7.50015C24.1998 7.00015 23.9998 6.60015 23.7998 6.30015C23.4998 6.00015 23.0998 5.90015 22.5998 5.90015C22.0998 5.90015 21.7998 6.00015 21.3998 6.30015C20.9998 6.60015 20.7998 7.00015 20.7998 7.50015Z" stroke="black" stroke-width="0.5983"/>
<path d="M29.9004 17.5C29.6004 17.5 29.4004 17.4 29.2004 17.2C29.0004 17 28.9004 16.8 28.9004 16.5V4.7C28.9004 4.4 29.0004 4.2 29.2004 4C29.4004 3.8 29.6004 3.7 29.9004 3.7H30.6004C30.9004 3.7 31.1004 3.8 31.3004 4C31.5004 4.2 31.6004 4.4 31.7004 4.6V4.7C31.7004 4.7 31.7004 4.7 31.8004 4.7C32.7004 3.9 33.7004 3.5 34.6004 3.5C35.8004 3.5 36.8004 4 37.5004 4.9C38.2004 5.8 38.6004 7.1 38.6004 8.6C38.6004 9.4 38.5004 10.2 38.2004 10.9C37.9004 11.6 37.6004 12.2 37.2004 12.6C36.8004 13.1 36.3004 13.4 35.8004 13.6C35.3004 13.8 34.8004 14 34.2004 14C33.4004 14 32.6004 13.7 31.9004 13C31.9004 13 31.9004 13 31.8004 13L31.9004 14.5V16.4C31.9004 16.7 31.8004 16.9 31.6004 17.1C31.4004 17.3 31.2004 17.4 30.9004 17.4H29.9004V17.5ZM33.6004 11.5C34.1004 11.5 34.5004 11.3 34.9004 10.8C35.2004 10.3 35.4004 9.6 35.4004 8.7C35.4004 7.8 35.3004 7.2 35.0004 6.7C34.6004 6.2 34.2004 6 33.7004 6C33.2004 6 32.7004 6.2 32.2004 6.7C32.1004 6.8 32.0004 6.9 32.0004 7V10.8C32.0004 10.9 32.0004 11 32.1004 11C32.6004 11.3 33.0004 11.5 33.6004 11.5Z" stroke="black" stroke-width="0.5983"/>
<path d="M42.3 14C41.8 14 41.3 13.8 41 13.4C40.7 13 40.5 12.6 40.5 12C40.5 11.4 40.7 11 41 10.6C41.3 10.2 41.8 10 42.3 10C42.8 10 43.3 10.2 43.7 10.6C44.1 11 44.2 11.4 44.2 12C44.2 12.6 44 13 43.7 13.4C43.4 13.8 42.8 14 42.3 14Z" stroke="black" stroke-width="0.5983"/>
<path d="M54.1996 12.2C53.2996 13.4 52.1996 14 50.7996 14C49.3996 14 48.1996 13.4 47.3996 12.2C46.5996 11 46.0996 9.30005 46.0996 7.10005C46.0996 4.90005 46.4996 3.20005 47.3996 2.00005C48.1996 0.800049 49.3996 0.300049 50.7996 0.300049C52.1996 0.300049 53.3996 0.900049 54.1996 2.00005C54.9996 3.10005 55.4996 4.80005 55.4996 7.00005C55.4996 9.30005 54.9996 11 54.1996 12.2ZM50.0996 11.4C50.2996 11.5 50.4996 11.6 50.7996 11.6C51.0996 11.6 51.2996 11.5 51.4996 11.4C51.6996 11.3 51.8996 11 51.9996 10.7C52.1996 10.4 52.2996 9.90005 52.3996 9.30005C52.4996 8.70005 52.4996 8.00005 52.4996 7.10005C52.4996 6.20005 52.4996 5.50005 52.3996 4.90005C52.2996 4.30005 52.1996 3.90005 51.9996 3.60005C51.7996 3.30005 51.6996 3.10005 51.4996 3.00005C51.2996 2.90005 51.0996 2.80005 50.7996 2.80005C50.4996 2.80005 50.2996 2.90005 50.0996 3.00005C49.8996 3.10005 49.6996 3.30005 49.5996 3.60005C49.4996 3.90005 49.2996 4.30005 49.1996 4.90005C49.0996 5.50005 49.0996 6.20005 49.0996 7.10005C49.0996 8.00005 49.0996 8.70005 49.1996 9.30005C49.2996 9.90005 49.3996 10.4 49.5996 10.7C49.6996 11 49.8996 11.2 50.0996 11.4Z" stroke="black" stroke-width="0.5983"/>
<path d="M58.5996 13.8001C58.2996 13.8001 58.0996 13.7001 57.8996 13.5001C57.6996 13.3001 57.5996 13.1001 57.5996 12.8001V12.3001C57.5996 12.0001 57.6996 11.8001 57.8996 11.6001C58.0996 11.4001 58.2996 11.3001 58.5996 11.3001H60.1996C60.2996 11.3001 60.2996 11.3001 60.2996 11.2001V3.8001C60.2996 3.7001 60.2996 3.7001 60.1996 3.7001H58.8996C58.5996 3.7001 58.3996 3.6001 58.1996 3.4001C57.9996 3.2001 57.8996 3.0001 57.8996 2.7001C57.8996 2.4001 57.9996 2.2001 58.1996 2.0001C58.3996 1.8001 58.5996 1.6001 58.8996 1.6001C59.3996 1.5001 59.8996 1.3001 60.2996 1.1001C60.9996 0.800098 61.5996 0.600098 62.1996 0.600098H62.4996C62.7996 0.600098 62.9996 0.700098 63.1996 0.900098C63.3996 1.1001 63.4996 1.3001 63.4996 1.6001V11.1001C63.4996 11.2001 63.4996 11.2001 63.5996 11.2001H64.7996C65.0996 11.2001 65.2996 11.3001 65.4996 11.5001C65.6996 11.7001 65.7996 11.9001 65.7996 12.2001V12.7001C65.7996 13.0001 65.6996 13.2001 65.4996 13.4001C65.2996 13.6001 65.0996 13.7001 64.7996 13.7001H58.5996V13.8001Z" stroke="black" stroke-width="0.5983"/>
<path d="M85.2998 8.90004C161.6 3.62396e-05 238.8 -0.299964 315 8.00004" stroke="#4D4D4D" stroke-width="0.5983" stroke-miterlimit="10"/>
</svg>
