<svg width="67" height="19" viewBox="0 0 67 19" fill="none" xmlns="http://www.w3.org/2000/svg">
<path d="M4 14.4004C3 14.4004 2 14.1004 0.9 13.6004C0.7 13.5004 0.5 13.2004 0.5 13.0004C0.5 12.9004 0.5 12.9004 0.5 12.8004C0.5 12.6004 0.6 12.4004 0.7 12.2004L0.9 11.9004C1.1 11.7004 1.3 11.5004 1.6 11.5004C1.7 11.5004 1.7 11.5004 1.8 11.5004C2 11.5004 2.2 11.6004 2.4 11.7004C3 12.0004 3.6 12.2004 4.1 12.2004C4.9 12.2004 5.3 11.9004 5.3 11.4004C5.3 11.3004 5.3 11.2004 5.2 11.2004C5.1 11.2004 5.1 11.1004 5 11.0004C4.9 10.9004 4.8 10.9004 4.8 10.8004C4.7 10.7004 4.6 10.7004 4.5 10.6004C4.3 10.5004 4.2 10.5004 4.1 10.4004C4 10.4004 3.9 10.3004 3.7 10.2004C3.5 10.1004 3.4 10.1004 3.3 10.0004C3 9.9004 2.6 9.7004 2.4 9.6004C2.2 9.5004 1.8 9.3004 1.6 9.0004C1.4 8.7004 1.1 8.50041 1 8.20041C0.8 7.90041 0.8 7.5004 0.8 7.1004C0.8 6.1004 1.2 5.40038 1.9 4.80038C2.6 4.20038 3.6 3.90039 4.7 3.90039C5.7 3.90039 6.6 4.1004 7.5 4.6004C7.7 4.7004 7.9 4.90041 7.9 5.20041C7.9 5.30041 7.9 5.30039 7.9 5.40039C7.9 5.60039 7.8 5.8004 7.7 6.0004L7.5 6.20041C7.3 6.40041 7.1 6.6004 6.8 6.6004C6.7 6.6004 6.6 6.6004 6.6 6.6004C6.4 6.6004 6.2 6.6004 6 6.5004C5.6 6.3004 5.2 6.20041 4.8 6.20041C4.1 6.20041 3.7 6.40039 3.7 6.90039C3.7 7.00039 3.7 7.0004 3.7 7.1004C3.7 7.2004 3.8 7.20038 3.8 7.30038C3.8 7.40038 3.9 7.40039 3.9 7.40039C3.9 7.40039 4 7.5004 4.1 7.5004C4.2 7.5004 4.3 7.6004 4.3 7.6004C4.4 7.6004 4.5 7.70041 4.6 7.70041C4.7 7.70041 4.8 7.80038 4.9 7.80038C5 7.80038 5.1 7.90039 5.2 7.90039C5.3 7.90039 5.5 8.0004 5.5 8.0004C5.9 8.1004 6.2 8.30039 6.5 8.40039C6.8 8.50039 7 8.7004 7.3 9.0004C7.6 9.3004 7.8 9.50039 7.9 9.90039C8 10.2004 8.1 10.6004 8.1 11.1004C8.1 12.1004 7.7 12.9004 7 13.5004C6.3 14.1004 5.3 14.4004 4 14.4004Z" stroke="#CC622D" stroke-miterlimit="10"/>
<path d="M13.9996 14.4004C12.7996 14.4004 11.8996 14.1004 11.2996 13.3004C10.6996 12.6004 10.3996 11.6004 10.3996 10.4004V6.6004C10.3996 6.5004 10.3996 6.5004 10.2996 6.5004H10.0996C9.79961 6.5004 9.59961 6.40041 9.39961 6.20041C9.19961 6.00041 9.09961 5.8004 9.09961 5.5004V5.20041C9.09961 4.90041 9.19961 4.70039 9.39961 4.40039C9.59961 4.20039 9.79961 4.1004 10.0996 4.0004H10.4996C10.5996 4.0004 10.5996 3.90039 10.6996 3.90039L10.8996 2.40039C10.8996 2.10039 11.0996 1.90041 11.2996 1.70041C11.4996 1.50041 11.7996 1.40039 12.0996 1.40039H12.6996C12.9996 1.40039 13.1996 1.50041 13.3996 1.70041C13.5996 1.90041 13.6996 2.10039 13.6996 2.40039V3.90039C13.6996 4.00039 13.6996 4.0004 13.7996 4.0004H14.9996C15.2996 4.0004 15.4996 4.10038 15.6996 4.30038C15.8996 4.50038 15.9996 4.7004 15.9996 5.0004V5.40039C15.9996 5.70039 15.8996 5.9004 15.6996 6.1004C15.4996 6.3004 15.2996 6.40039 14.9996 6.40039H13.7996C13.6996 6.40039 13.6996 6.4004 13.6996 6.5004V10.2004C13.6996 11.2004 14.0996 11.7004 14.8996 11.8004C15.1996 11.8004 15.3996 11.9004 15.6996 12.0004C15.8996 12.1004 16.0996 12.3004 16.0996 12.6004L16.1996 12.9004C16.1996 13.0004 16.1996 13.1004 16.1996 13.2004C16.1996 13.4004 16.0996 13.6004 15.9996 13.7004C15.7996 14.0004 15.5996 14.1004 15.3996 14.2004C14.8996 14.4004 14.4996 14.4004 13.9996 14.4004Z" stroke="#CC622D" stroke-miterlimit="10"/>
<path d="M22.2992 14.4003C20.7992 14.4003 19.5992 13.9003 18.5992 13.0003C17.5992 12.1003 17.1992 10.8003 17.1992 9.10031C17.1992 8.30031 17.2992 7.6003 17.5992 6.9003C17.8992 6.2003 18.1992 5.70032 18.6992 5.20032C19.0992 4.80032 19.6992 4.40032 20.1992 4.20032C20.7992 4.00032 21.3992 3.80029 21.9992 3.80029C23.3992 3.80029 24.4992 4.30032 25.1992 5.20032C25.8992 6.10032 26.2992 7.30032 26.2992 8.70032C26.2992 8.80032 26.2992 8.90031 26.2992 9.00031C26.2992 9.30031 26.1992 9.50032 25.8992 9.70032C25.6992 9.90032 25.3992 10.0003 25.0992 10.0003H20.2992H20.1992V10.1003C20.4992 11.3003 21.2992 11.9003 22.6992 11.9003C23.0992 11.9003 23.4992 11.8003 23.8992 11.7003C23.9992 11.7003 24.1992 11.6003 24.2992 11.6003C24.3992 11.6003 24.5992 11.6003 24.6992 11.7003C24.9992 11.8003 25.1992 11.9003 25.2992 12.2003L25.3992 12.3003C25.4992 12.5003 25.5992 12.6003 25.5992 12.8003C25.5992 12.9003 25.5992 13.0003 25.4992 13.1003C25.3992 13.4003 25.2992 13.6003 24.9992 13.7003C24.1992 14.2003 23.2992 14.4003 22.2992 14.4003ZM20.1992 7.9003C20.1992 8.0003 20.1992 8.00031 20.2992 8.00031H23.4992C23.5992 8.00031 23.5992 8.0003 23.5992 7.9003C23.5992 7.4003 23.3992 7.00032 23.1992 6.70032C22.8992 6.40032 22.4992 6.30029 21.9992 6.30029C21.4992 6.30029 21.1992 6.40032 20.7992 6.70032C20.3992 7.00032 20.1992 7.4003 20.1992 7.9003Z" stroke="#CC622D" stroke-miterlimit="10"/>
<path d="M29.4004 17.9004C29.1004 17.9004 28.9004 17.8004 28.7004 17.6004C28.5004 17.4004 28.4004 17.2004 28.4004 16.9004V5.1004C28.4004 4.8004 28.5004 4.60039 28.7004 4.40039C28.9004 4.20039 29.1004 4.1004 29.4004 4.1004H30.0004C30.3004 4.1004 30.5004 4.20039 30.7004 4.40039C30.9004 4.60039 31.0004 4.8004 31.1004 5.0004V5.1004C31.1004 5.1004 31.1004 5.1004 31.2004 5.1004C32.1004 4.3004 33.1004 3.90039 34.0004 3.90039C35.2004 3.90039 36.2004 4.40038 36.9004 5.30038C37.6004 6.20038 38.0004 7.5004 38.0004 9.0004C38.0004 9.8004 37.9004 10.6004 37.6004 11.3004C37.3004 12.0004 37.0004 12.6004 36.6004 13.0004C36.2004 13.5004 35.7004 13.8004 35.2004 14.0004C34.7004 14.2004 34.2004 14.4004 33.6004 14.4004C32.8004 14.4004 32.0004 14.1004 31.3004 13.4004C31.3004 13.4004 31.3004 13.4004 31.2004 13.4004L31.3004 14.9004V16.8004C31.3004 17.1004 31.2004 17.3004 31.0004 17.5004C30.8004 17.7004 30.6004 17.8004 30.3004 17.8004H29.4004V17.9004ZM33.0004 11.8004C33.5004 11.8004 33.9004 11.6004 34.3004 11.1004C34.6004 10.6004 34.8004 9.9004 34.8004 9.0004C34.8004 8.1004 34.7004 7.5004 34.4004 7.0004C34.1004 6.6004 33.7004 6.40039 33.2004 6.40039C32.7004 6.40039 32.2004 6.6004 31.7004 7.1004C31.6004 7.2004 31.6004 7.20038 31.6004 7.30038V11.1004C31.6004 11.2004 31.6004 11.3004 31.7004 11.3004C32.0004 11.7004 32.5004 11.8004 33.0004 11.8004Z" stroke="#CC622D" stroke-miterlimit="10"/>
<path d="M41.7004 14.4004C41.2004 14.4004 40.7004 14.2004 40.4004 13.8004C40.1004 13.4004 39.9004 13.0004 39.9004 12.4004C39.9004 11.8004 40.1004 11.4004 40.4004 11.0004C40.7004 10.6004 41.2004 10.4004 41.7004 10.4004C42.2004 10.4004 42.7004 10.6004 43.1004 11.0004C43.5004 11.4004 43.6004 11.8004 43.6004 12.4004C43.6004 13.0004 43.4004 13.4004 43.1004 13.8004C42.8004 14.2004 42.3004 14.4004 41.7004 14.4004Z" stroke="#CC622D" stroke-miterlimit="10"/>
<path d="M53.6996 12.6002C52.7996 13.8002 51.6996 14.4002 50.2996 14.4002C48.8996 14.4002 47.6996 13.8002 46.8996 12.6002C46.0996 11.4002 45.5996 9.70018 45.5996 7.50018C45.5996 5.30018 45.9996 3.60018 46.8996 2.40018C47.6996 1.20018 48.8996 0.700195 50.2996 0.700195C51.6996 0.700195 52.8996 1.30018 53.6996 2.40018C54.4996 3.50018 54.9996 5.20018 54.9996 7.40018C54.8996 9.70018 54.4996 11.4002 53.6996 12.6002ZM49.5996 11.7002C49.7996 11.8002 49.9996 11.9002 50.2996 11.9002C50.5996 11.9002 50.7996 11.8002 50.9996 11.7002C51.1996 11.6002 51.3996 11.3002 51.4996 11.0002C51.6996 10.7002 51.7996 10.2002 51.8996 9.60019C51.9996 9.00019 51.9996 8.30018 51.9996 7.40018C51.9996 6.50018 51.9996 5.8002 51.8996 5.2002C51.7996 4.6002 51.6996 4.20018 51.4996 3.90018C51.2996 3.60018 51.1996 3.40017 50.9996 3.30017C50.7996 3.20017 50.5996 3.10019 50.2996 3.10019C49.9996 3.10019 49.7996 3.20017 49.5996 3.30017C49.3996 3.40017 49.1996 3.60018 49.0996 3.90018C48.9996 4.20018 48.7996 4.6002 48.6996 5.2002C48.5996 5.8002 48.5996 6.50018 48.5996 7.40018C48.5996 8.30018 48.5996 9.00019 48.6996 9.60019C48.7996 10.2002 48.8996 10.7002 49.0996 11.0002C49.1996 11.4002 49.3996 11.6002 49.5996 11.7002Z" stroke="#CC622D" stroke-miterlimit="10"/>
<path d="M61 14.4002C59.7 14.4002 58.6 14.1002 57.8 13.4002C56.9 12.7002 56.5 11.9002 56.5 10.9002C56.5 9.50018 57.2 8.30019 58.6 7.60019C58.6 7.60019 58.6 7.60018 58.6 7.50018V7.40018C57.5 6.60018 56.9 5.50017 56.9 4.30017C56.9 3.20017 57.3 2.3002 58.1 1.7002C58.9 1.1002 59.9 0.700195 61.1 0.700195C62.3 0.700195 63.3 1.0002 64 1.7002C64.7 2.3002 65.1 3.20017 65.1 4.30017C65.1 4.90017 64.9 5.40018 64.6 5.90018C64.3 6.40018 63.9 6.8002 63.4 7.2002C63.4 7.2002 63.4 7.20017 63.4 7.30017C63.4 7.30017 63.4 7.30018 63.4 7.40018C64.9 8.20018 65.6 9.40018 65.6 10.9002C65.6 11.9002 65.2 12.8002 64.3 13.5002C63.4 14.2002 62.4 14.4002 61 14.4002ZM61.1 12.2002C61.6 12.2002 62 12.1002 62.3 11.8002C62.6 11.5002 62.8 11.2002 62.8 10.7002C62.8 10.2002 62.6 9.80018 62.2 9.50018C61.8 9.20018 61.2 8.80018 60.3 8.50018H60.2C60.2 8.50018 60.1 8.50019 60.1 8.60019C59.6 9.20019 59.3 9.80019 59.3 10.6002C59.3 11.1002 59.5 11.5002 59.8 11.8002C60.1 12.1002 60.6 12.2002 61.1 12.2002ZM61.7 6.30017C61.8 6.30017 61.9 6.3002 61.9 6.2002C62.3 5.6002 62.5 5.00017 62.5 4.30017C62.5 3.80017 62.4 3.4002 62.1 3.2002C61.8 2.9002 61.5 2.80017 61 2.80017C60.6 2.80017 60.3 2.9002 60 3.2002C59.7 3.5002 59.6 3.8002 59.6 4.2002C59.6 4.7002 59.8 5.10018 60.1 5.40018C60.5 5.80018 61 6.10017 61.7 6.30017Z" stroke="#CC622D" stroke-miterlimit="10"/>
</svg>
