<svg width="397" height="88" viewBox="0 0 397 88" fill="none" xmlns="http://www.w3.org/2000/svg">
<path d="M341.239 78.8C340.139 80.9 337.038 82.7 334.137 82.9C310.627 84 289.218 84.4 268.61 84.2C261.507 84.1 254.404 84.2 247.401 84.4C235.596 84.6 223.391 84.8 211.486 84C191.078 82.7 170.37 83.1 152.062 83.5C135.956 83.9 119.549 83.8 103.642 83.8H93.3382C84.9348 83.8 75.9311 83.9 66.7273 84.8C64.6265 85 61.2251 84.5 59.8245 84.2C58.3239 84 56.4231 83.2 55.7228 81.7C55.1226 80.5 55.3227 79 55.5228 77.5V77.2C56.4231 70.1 56.023 63.8 54.1222 56.7C53.2218 53.3 53.5219 50 53.8221 46.5C54.0221 44.1 54.3223 41.7 54.1222 39.2L54.0221 37.1C53.9221 35.3 53.8221 33.7 53.622 31.8C53.4219 29.3 53.3219 26.7 54.0221 24.4C54.1222 23.9 54.2222 23.5 54.3223 23.1C55.5228 24.1 57.3235 24.2 58.3239 24.2C75.731 25 93.3382 24.9 107.944 24C121.85 24 135.856 23.7 149.461 23.4C173.371 22.9 197.981 22.3 222.291 23.7C242.099 24.9 262.407 25.2 286.217 24.6H287.217C297.722 24.4 308.626 24.1 319.431 24.8H320.131C326.133 25.2 333.636 25.6 339.539 24.4C340.039 24.3 340.439 24.2 340.839 24C341.039 25.1 340.939 26.2 340.939 27.4C340.839 29 340.839 30.7 341.239 32.3C342.14 35.6 342.14 38.3 342.04 42.1C342.04 43.6 342.04 45.3 342.04 47.2C342.14 49.5 341.94 51.7 341.84 53.9C341.64 56.5 341.54 59.3 341.74 62.1C341.84 63.9 342.14 65.6 342.44 67.3C342.64 68.5 342.84 69.6 343.04 70.8C343.74 73.6 342.34 76.7 341.239 78.8ZM386.758 47.3C383.457 42.6 380.155 37.7 376.454 33C375.653 32 374.753 30.8 374.553 29.6C374.153 27.4 376.054 25.2 377.854 23.4C381.156 19.9 384.357 16.2 387.458 12.6C390.059 9.59996 392.66 6.49996 395.362 3.59996C395.962 2.89996 396.062 1.99996 395.662 1.29996C395.262 0.49996 394.461 -4.0452e-05 393.461 0.0999595C388.359 0.19996 383.257 0.99996 378.755 1.69996C370.151 2.19996 361.248 2.29996 352.244 1.79996L350.943 1.69996C339.039 0.99996 333.636 0.699959 321.131 2.29996C317.83 2.69996 316.729 3.09996 315.229 3.49996C314.328 3.79996 313.228 4.09996 311.427 4.49996C308.726 5.09996 307.226 6.29996 307.126 7.89996C307.126 8.09996 307.126 8.19996 307.126 8.39996C307.126 10.3 307.025 12.1 307.025 13.9C306.925 16.6 306.825 19.3 307.025 22.1C300.523 22.1 294.02 22.2 287.718 22.3H286.717C263.008 22.8 242.699 22.5 222.991 21.4C198.581 20 173.871 20.5 149.961 21.1C136.356 21.4 122.35 21.7 108.444 21.7C102.842 22.1 96.7396 22.3 90.337 22.4C90.1369 19.8 90.1369 17.2 90.1369 14.6C90.1369 12.4 90.2369 10.2 90.0368 7.79996C90.1369 5.09996 85.535 4.09996 83.8343 3.99996C81.9335 3.79996 74.9307 3.49996 73.0299 3.49996C60.2247 3.39996 48.9201 2.99996 38.0156 2.59996C27.0111 2.09996 15.7065 1.69996 2.80122 1.69996C2.30102 1.69996 1.30061 1.69996 0.700366 2.39996C0.300203 2.79996 -0.200002 3.79996 0.900448 5.39996C6.60278 13.5 11.8049 19.2 16.2067 22.6C18.9078 24.7 23.5097 28.7 23.4096 33C23.4096 35.4 21.7089 37.5 19.7081 39.8C17.007 42.9 14.2059 45.1 11.3047 47.4C8.40351 49.7 5.40229 52.1 2.60114 55.3C1.70077 56.3 0.700366 57.4 0.300203 58.9C-0.0999606 60.4 0.200162 62.4 1.80082 63.5C2.80122 64.2 4.10176 64.2 5.00212 64.3C15.8065 64.9 26.6109 65.3 37.5154 65.3C42.9176 65.3 48.2198 65.2 53.622 65.1C54.1222 69 54.0221 72.9 53.5219 77.1V77.4C53.3219 79.1 53.0217 81 53.9221 82.8C54.8225 84.8 57.0234 86.2 59.8245 86.7C61.9254 87 64.2263 87.3 66.1271 87.3C66.5272 87.3 67.0275 87.3 67.3276 87.2C76.5313 86.4 85.435 86.3 93.7384 86.3H103.943C119.849 86.3 136.256 86.3 152.362 86C170.57 85.6 191.278 85.1 211.586 86.5C223.691 87.3 235.896 87.1 247.701 86.9C254.604 86.8 261.807 86.7 268.81 86.7C289.418 86.9 310.827 86.5 334.437 85.4C338.238 85.2 342.14 82.9 343.64 80.1C344.841 77.8 346.342 74.3 345.941 70.9C345.841 69.7 345.541 68.5 345.341 67.3C345.241 66.7 345.141 66 345.041 65.4C349.543 65.5 358.647 65.5 366.15 65.4C369.951 65.4 373.253 65.3 374.953 65.3C380.856 65.3 386.658 64.5 392.46 63.7C392.861 63.7 393.161 63.7 393.561 63.6C394.561 63.6 395.362 63 395.862 62.2C396.262 61.4 396.262 60.4 395.662 59.7C392.36 55.5 389.559 51.3 386.758 47.3ZM309.326 14.1C309.326 13.2 309.426 12.4 309.426 11.5C309.927 11.7 310.327 12 310.927 12.2C315.629 13.8 318.73 14.4 322.032 15.1C324.333 15.6 326.734 16.1 329.935 16.9C334.036 18 334.937 18.5 337.538 20C338.238 20.4 338.939 20.8 339.839 21.3C340.339 21.6 340.439 21.8 340.439 21.7C340.339 21.8 339.939 22.1 339.239 22.2C333.636 23.3 326.333 22.9 320.431 22.5H319.731C316.229 22.3 312.628 22.2 309.126 22.2C309.126 19.4 309.226 16.8 309.326 14.1ZM56.6232 19.3C57.4235 18.6 58.624 18.3 59.7245 18.1C63.1259 17.3 67.2275 16.5 71.1291 15.7C75.0307 14.9 79.1324 14.1 82.6338 13.3C83.7343 13 85.8351 12.5 87.5358 11.4C87.5358 12.5 87.5358 13.5 87.5358 14.6C87.5358 17.2 87.4358 19.8 87.7359 22.5C78.4321 22.6 68.5281 22.5 58.8241 22C57.7237 22 56.5232 21.8 56.123 21.2C55.7228 20.6 56.023 19.7 56.6232 19.3ZM5.00212 62C4.2018 62 3.50151 61.9 3.10135 61.6C2.40106 61.2 2.30102 60.2 2.5011 59.4C2.80122 58.4 3.60155 57.5 4.30184 56.6C7.00294 53.5 9.80408 51.3 12.7053 49C15.6065 46.7 18.6077 44.3 21.4088 41.1C23.2096 39.1 25.6105 36.3 25.7106 32.9C25.8106 27.7 20.7085 23.1 17.6073 20.7C13.4056 17.6 8.40351 12 2.90127 4.09996C2.80122 3.99996 2.70118 3.99996 2.70118 3.89996C2.70118 3.89996 2.70118 3.89996 2.80122 3.89996C15.6065 3.99996 26.9111 4.39996 37.9156 4.79996C48.9201 5.19996 60.2247 5.69996 73.1299 5.69996C74.9307 5.69996 81.8335 5.99996 83.4342 6.09996C85.535 6.29996 87.5358 7.19996 87.4358 7.69996C87.2357 9.49996 84.2345 10.5 82.0336 11C78.6322 11.8 74.5305 12.6 70.6289 13.4C66.7273 14.2 62.6257 15 59.1242 15.8C58.1238 16 56.9233 16.3 55.9229 16.9C53.3219 18 52.8216 20.1 52.3214 22.2C52.2214 22.7 52.1214 23.2 51.9213 23.6C51.121 26.3 51.221 29.1 51.4211 31.8C51.6212 33.7 51.6212 35.3 51.8212 37.1L51.9213 39.2C52.0213 41.5 51.8212 43.9 51.6212 46.2C51.321 49.7 50.9209 53.4 51.9213 57.1C52.4215 59 52.8216 60.8 53.1218 62.6C37.1152 63.1 21.0087 62.9 5.00212 62ZM341.239 78.8C340.139 80.9 337.038 82.7 334.137 82.9C310.627 84 289.218 84.4 268.61 84.2C261.507 84.1 254.404 84.2 247.401 84.4C235.596 84.6 223.391 84.8 211.486 84C191.078 82.7 170.37 83.1 152.062 83.5C135.956 83.9 119.549 83.8 103.642 83.8H93.3382C84.9348 83.8 75.9311 83.9 66.7273 84.8C64.6265 85 61.2251 84.5 59.8245 84.2C58.3239 84 56.4231 83.2 55.7228 81.7C55.1226 80.5 55.3227 79 55.5228 77.5V77.2C56.4231 70.1 56.023 63.8 54.1222 56.7C53.2218 53.3 53.5219 50 53.8221 46.5C54.0221 44.1 54.3223 41.7 54.1222 39.2L54.0221 37.1C53.9221 35.3 53.8221 33.7 53.622 31.8C53.4219 29.3 53.3219 26.7 54.0221 24.4C54.1222 23.9 54.2222 23.5 54.3223 23.1C55.5228 24.1 57.3235 24.2 58.3239 24.2C75.731 25 93.3382 24.9 107.944 24C121.85 24 135.856 23.7 149.461 23.4C173.371 22.9 197.981 22.3 222.291 23.7C242.099 24.9 262.407 25.2 286.217 24.6H287.217C297.722 24.4 308.626 24.1 319.431 24.8H320.131C326.133 25.2 333.636 25.6 339.539 24.4C340.039 24.3 340.439 24.2 340.839 24C341.039 25.1 340.939 26.2 340.939 27.4C340.839 29 340.839 30.7 341.239 32.3C342.14 35.6 342.14 38.3 342.04 42.1C342.04 43.6 342.04 45.3 342.04 47.2C342.14 49.5 341.94 51.7 341.84 53.9C341.64 56.5 341.54 59.3 341.74 62.1C341.84 63.9 342.14 65.6 342.44 67.3C342.64 68.5 342.84 69.6 343.04 70.8C343.74 73.6 342.34 76.7 341.239 78.8ZM393.461 61C393.361 61.1 393.361 61.1 393.261 61.1C392.861 61.1 392.46 61.1 391.96 61.2C386.158 62.1 380.455 62.8 374.753 62.8C373.052 62.8 369.751 62.8 365.95 62.9C358.647 63 348.843 63 344.541 62.9C344.541 62.6 344.441 62.3 344.441 62C344.241 59.3 344.441 56.8 344.541 54.1C344.641 51.9 344.841 49.6 344.741 47.3C344.741 45.4 344.741 43.8 344.741 42.2C344.741 38.4 344.841 35.5 343.841 31.9C343.44 30.6 343.54 29.1 343.64 27.6C343.74 25.6 343.841 23.5 342.84 21.5C342.64 20.4 341.54 19.8 341.139 19.6C340.239 19.1 339.439 18.6 338.838 18.3C336.137 16.7 335.037 16.1 330.635 14.9C327.334 14 324.933 13.5 322.532 13C319.13 12.3 316.229 11.7 311.727 10.1C310.527 9.69996 309.326 8.99996 309.426 8.29996C309.526 7.49996 311.027 7.09996 311.927 6.89996C313.828 6.39996 315.029 6.09996 315.929 5.79996C317.43 5.29996 318.33 5.09996 321.431 4.69996C333.636 3.09996 339.039 3.39996 350.743 3.99996L352.044 4.09996C361.148 4.59996 370.151 4.59996 378.955 3.99996C383.657 3.29996 388.559 2.49996 393.361 2.29996C390.66 5.29996 387.959 8.39996 385.357 11.4C382.256 15 379.055 18.7 375.854 22.1C373.753 24.4 371.452 27 372.052 30.2C372.352 31.9 373.453 33.4 374.353 34.5C378.054 39.1 381.356 44 384.557 48.7C387.358 52.7 390.159 56.9 393.261 60.9C393.461 60.9 393.461 60.9 393.461 61Z" fill="url(#paint0_linear)"/>
<path d="M117.1 63.4C118.1 63.8 118.3 64.2 118.3 64.9C118.3 66.4 117 67.1 112 67.1H109C105.9 67.1 105.2 66.4 105.2 63.9V52.4H102C101.4 60 98.8 65.4 89.7 68L89.5 67.7C96.1 64.1 97.7 59 97.8 52.5H89.8L89.6 51.6H101.9V39.6L106.7 40C106.6 40.4 106.4 40.7 105.6 40.8V51.5H112.4L114.5 48.9C114.5 48.9 116.8 50.6 118.2 51.9C118.1 52.2 117.8 52.4 117.4 52.4H108.8V52.9V63C108.8 63.5 109 63.7 109.9 63.7H112.4C113.3 63.7 114.1 63.7 114.5 63.6C114.9 63.6 115 63.5 115.3 63.1C115.6 62.5 116.1 60.6 116.8 58.5H117.1V63.4ZM92.6 41.4C102.3 44.8 99 52.3 95.4 49.3C95.2 46.7 93.8 43.7 92.3 41.6L92.6 41.4ZM116.4 43.4C116.2 43.7 115.8 44 115.2 43.9C113 46.4 110.5 48.6 108.2 50.2L107.9 50C109 47.9 110.5 44.4 111.7 41.3L116.4 43.4Z" fill="white"/>
<path d="M153.5 49.2999C153.3 49.5999 153 49.5999 152.5 49.4999C151.8 49.7999 150.6 50.0999 149.4 50.2999C151.1 51.1999 153 51.7999 154.8 52.1999V52.4999C153.6 52.7999 152.7 53.7999 152.4 55.3999C151.8 55.0999 151.2 54.7999 150.6 54.4999V59.8999C150.6 60.0999 149 60.6999 147.9 60.6999H147.4V59.6999H145.7V64.1999C145.7 66.3999 145.2 67.5999 141.5 67.8999C141.4 66.9999 141.3 66.1999 141 65.7999C140.6 65.3999 140.1 64.9999 138.8 64.7999V64.3999C138.8 64.3999 141.2 64.5999 141.8 64.5999C142.3 64.5999 142.4 64.3999 142.4 64.0999V59.6999H140.3V60.2999C140.3 60.4999 139.4 60.9999 137.9 60.9999L141 62.6999C140.8 62.9999 140.5 63.1999 139.9 62.9999C138.1 64.7999 135.2 66.4999 132 67.2999L131.8 66.8999C134 65.3999 136.1 62.8999 137.2 60.9999H137.1V54.4999C136.1 55.0999 135 55.4999 133.8 55.8999L133.6 55.5999C135.5 54.3999 137 52.8999 138.2 51.0999C137.7 51.4999 136.8 51.4999 136 50.8999C136 49.7999 135.4 48.6999 134.8 47.8999L135.1 47.6999C138 48.0999 138.8 49.2999 138.7 50.1999C139.2 49.2999 139.7 48.2999 140.1 47.2999H134.6L134.4 46.3999H140.5C140.8 45.4999 141 44.5999 141.2 43.7999H133.6V51.2999C133.6 56.8999 133.1 63.5999 126.4 67.9999L126.1 67.6999C129.2 63.9999 130.2 59.5999 130.5 55.0999C129.9 56.0999 129.2 57.2999 128.3 58.5999C128.3 58.9999 128.1 59.3999 127.8 59.6999L125.9 56.1999C126.7 55.7999 128.6 54.5999 130.6 53.1999C130.6 52.5999 130.6 51.9999 130.6 51.2999V41.2999L134.2 42.8999H142L141.9 42.7999C141.6 41.5999 140.5 40.1999 139.7 39.3999L139.9 39.1999C145.3 38.8999 145.5 41.8999 144 42.7999H149.6L151.4 40.3999C151.4 40.3999 153.5 42.0999 154.7 43.1999C154.6 43.4999 154.3 43.6999 153.9 43.6999H142.4L145.8 44.4999C145.7 44.7999 145.4 44.9999 144.7 45.0999C144.5 45.4999 144.4 45.8999 144.2 46.2999H149.7L151.4 44.0999C151.4 44.0999 153.3 45.5999 154.4 46.5999C154.3 46.8999 154 47.0999 153.6 47.0999H150.8L153.5 49.2999ZM126.6 44.7999C132.6 48.2999 129.6 53.2999 127.4 50.8999C127.6 48.8999 127 46.4999 126.2 44.8999L126.6 44.7999ZM140.1 53.0999V55.5999H147.3V53.0999H140.1ZM147.3 58.8999V56.3999H140.1V58.8999H147.3ZM143.6 47.3999C142.7 49.0999 141.6 50.5999 140.1 52.0999L140.4 52.1999H147L147.4 51.7999C146.4 50.5999 145.5 49.0999 144.9 47.3999H143.6V47.3999ZM145.7 47.3999C146.4 48.2999 147.3 48.9999 148.3 49.6999C148.8 48.9999 149.4 47.9999 149.8 47.3999H145.7ZM147 61.5999C156.1 62.5999 154.1 68.8999 150.8 66.9999C150.2 65.0999 148.4 63.0999 146.7 61.7999L147 61.5999Z" fill="white"/>
<path d="M169.7 46.5999C169 49.6999 167.7 55.4999 167.4 56.8999C167.2 57.7999 167.1 58.7999 167.1 59.5999C167.2 61.0999 168.5 62.1999 168.3 64.7999C168.2 66.2999 167.2 67.2999 165.7 67.2999C165 67.2999 164.3 66.8999 164.1 65.7999C164.6 62.7999 164.5 59.9999 163.9 59.5999C163.5 59.2999 163.1 59.1999 162.4 59.0999V58.4999H163.7C164.1 58.4999 164.2 58.4999 164.5 57.8999C165 56.8999 165 56.8999 169.1 46.4999L169.7 46.5999ZM163.7 40.6999C171.8 43.2999 168.2 49.2999 165.2 46.4999C165.1 44.5999 164.3 42.3999 163.4 40.8999L163.7 40.6999ZM186 63.9999C186.8 64.1999 187.6 64.1999 188.6 64.1999H191.1V64.5999C190.3 64.7999 189.9 65.9999 189.9 67.3999H188.3C184.6 67.3999 182.2 65.8999 181 61.3999C180.2 63.7999 178.7 66.0999 175.7 67.9999L175.3 67.5999C177.8 64.9999 178.6 61.9999 178.9 58.8999C178.8 58.9999 178.6 59.0999 178.4 59.0999H175C175 59.3999 174.9 59.6999 174.8 59.9999C179.9 62.1999 177.4 65.8999 175.4 64.0999C175.3 63.0999 174.9 61.9999 174.5 61.0999C173.7 63.9999 171.9 66.3999 168.2 68.1999L167.8 67.6999C170.8 65.2999 171.8 62.3999 172.1 59.0999H169L168.8 58.1999H172.4C172.5 56.7999 172.5 55.3999 172.5 53.8999H172.3C171.4 55.4999 170.3 56.7999 169.1 57.7999L168.7 57.5999C169.5 55.5999 170.2 52.6999 170.5 49.7999L174.7 50.9999C174.6 51.3999 174.2 51.5999 173.5 51.5999C173.3 52.0999 173.1 52.5999 172.8 53.0999H175.3L176.7 51.1999C176.7 51.1999 178.2 52.4999 179.1 53.3999C179 53.6999 178.7 53.8999 178.3 53.8999H175.5C175.5 55.3999 175.4 56.7999 175.2 58.1999H175.8L177 56.3999C177 56.3999 178.2 57.5999 179 58.4999C179.2 56.9999 179.2 55.4999 179.2 53.9999L183 54.2999C182.9 54.6999 182.7 54.9999 182 55.0999C181.9 56.7999 181.8 58.5999 181.4 60.2999C181.9 61.2999 182.4 61.9999 183.1 62.5999V51.5999H178.8L178.6 50.6999H187.5L188.9 49.2999L191.4 51.6999C191.2 51.8999 190.8 51.9999 190.2 51.9999C189.4 52.9999 188.1 54.2999 187.1 55.0999L186.7 54.8999C187 53.9999 187.4 52.6999 187.6 51.5999H186V56.8999H186.8L188.2 54.8999C188.2 54.8999 189.8 56.2999 190.8 57.2999C190.7 57.5999 190.4 57.7999 190 57.7999H186V63.9999ZM173.2 49.6999C170.9 49.6999 170.5 49.0999 170.5 47.1999V39.7999L174.3 40.0999C174.3 40.4999 174 40.7999 173.4 40.8999V43.4999H175.9L177.3 41.6999C177.3 41.6999 178.8 42.9999 179.7 43.8999C179.6 44.1999 179.3 44.3999 178.9 44.3999H173.4V46.5999C173.4 46.8999 173.5 47.0999 174 47.0999H175.5C176 47.0999 176.6 47.0999 176.8 47.0999C177 47.0999 177.3 47.0999 177.5 46.9999C177.7 46.9999 178 46.8999 178.2 46.8999H178.5H178.6C179.4 47.1999 179.6 47.4999 179.6 48.0999C179.6 49.2999 178.5 49.6999 175.1 49.6999H173.2V49.6999ZM179.5 42.7999L179.2 41.8999H186L187.8 40.0999L190.8 42.9999C190.6 43.2999 190.3 43.2999 189.6 43.3999C188.6 44.3999 187 45.6999 185.5 46.6999C187.6 48.6999 186 51.1999 184 49.9999C183.4 48.2999 181.7 46.1999 180.4 44.8999L180.7 44.6999C182.4 44.9999 183.7 45.4999 184.6 45.9999C185.1 44.9999 185.7 43.7999 186 42.6999H179.5V42.7999Z" fill="white"/>
<path d="M218.8 52.0999C220.9 53.6999 224.8 54.6999 227.6 55.1999L227.5 55.5999C226.4 56.3999 225.8 57.3999 225.6 58.5999C222.7 57.3999 220 55.0999 218.2 52.6999C216 54.7999 212.7 56.9999 209 58.1999L208.8 57.8999C211.5 56.0999 214.1 53.0999 215.6 50.6999C215.2 50.7999 214.8 50.8999 214.2 50.8999C214.2 50.3999 214.2 49.8999 213.9 49.6999C213.7 49.4999 213.4 49.1999 212.7 49.0999V48.6999C212.7 48.6999 213.7 48.7999 214.1 48.7999C214.5 48.7999 214.5 48.5999 214.5 48.2999V47.0999C213.6 47.7999 212.5 48.5999 211.2 49.5999C211.1 49.9999 210.9 50.1999 210.6 50.3999L209.1 47.5999C210.1 47.3999 212.2 46.7999 214.4 46.0999V42.3999H209.7L209.6 42.1999C209.4 42.3999 209 42.5999 208.5 42.6999V64.2999C208.5 66.3999 208.1 67.4999 204.9 67.7999C204.8 66.8999 204.7 66.1999 204.4 65.7999C204 65.3999 203.5 64.9999 202.3 64.8999V64.3999C202.3 64.3999 204.5 64.5999 205 64.5999C205.5 64.5999 205.6 64.3999 205.6 63.9999V54.3999C205.2 55.0999 204.7 55.8999 204.1 56.7999C204.1 57.1999 203.9 57.4999 203.6 57.6999L202.8 55.9999C202.5 60.1999 201.7 64.5999 198.9 67.9999L198.5 67.7999C200.3 62.7999 200.2 56.5999 200.2 50.9999V40.1999L203.4 41.3999H205.4L206.7 39.8999L209.5 42.0999L209.3 41.4999H214L215.2 39.9999L218.2 42.1999C218 42.3999 217.6 42.6999 217.1 42.7999V48.3999C217.1 48.9999 217 49.4999 216.8 49.8999L220 51.4999C220.1 51.8999 219.7 52.0999 218.8 52.0999ZM203 50.8999C203 52.0999 203 53.3999 202.9 54.6999C203.6 54.3999 204.6 53.8999 205.7 53.2999V49.8999C205.4 50.0999 205.1 50.0999 204.6 49.8999C204.3 49.3999 203.6 48.7999 202.9 48.2999V50.8999H203ZM203 42.3999V47.1999C204.4 47.0999 205.2 47.3999 205.8 47.7999V42.3999H203ZM208.8 67.1999C214.3 65.7999 219.1 63.6999 223.2 59.7999L226.8 62.2999C226.5 62.5999 226.2 62.6999 225.5 62.4999C220.4 65.6999 215.1 67.0999 209 67.6999L208.8 67.1999ZM209.7 43.2999C215.3 42.6999 214.3 46.9999 212 45.9999C211.5 45.0999 210.4 43.9999 209.5 43.5999L209.7 43.2999ZM210.1 63.3999C213.9 61.9999 217.3 59.8999 220 56.8999L223.3 58.9999C223.1 59.2999 222.8 59.3999 222.1 59.1999C218.6 61.5999 214.5 63.0999 210.2 63.8999L210.1 63.3999ZM221 55.8999C220.8 56.1999 220.5 56.2999 219.9 56.0999C217.4 58.0999 214 59.5999 210.6 60.3999L210.3 59.8999C213.2 58.4999 215.8 56.3999 217.8 53.8999L221 55.8999ZM218.7 42.3999L218.4 41.5999H222.8L224 39.9999L227 42.1999C226.8 42.3999 226.4 42.6999 225.9 42.7999V48.6999C225.9 50.4999 225.5 51.1999 222.7 51.4999C222.7 50.8999 222.6 50.3999 222.4 50.0999C222.2 49.7999 221.9 49.5999 221.2 49.3999V48.9999C221.2 48.9999 222.2 49.0999 222.6 49.0999C222.9 49.0999 223 48.8999 223 48.5999V46.9999C222.2 47.5999 221.1 48.4999 219.8 49.3999C219.7 49.7999 219.5 49.9999 219.2 50.0999L217.6 47.5999C218.6 47.2999 220.7 46.7999 223 46.0999V42.4999H218.7V42.3999ZM218.2 43.3999C223.7 42.7999 222.6 46.8999 220.3 45.9999C219.9 45.1999 218.8 44.0999 218 43.6999L218.2 43.3999Z" fill="white"/>
<path d="M259.6 55.7C259.6 55.7 261.9 57.4 263.2 58.6C263.1 58.9 262.8 59.1 262.4 59.1H250.5C249.5 63.3 246.7 66.3 235.7 68L235.5 67.5C243.1 65.2 245.6 62.6 246.5 59H236.8L236.6 58.1H246.8C247 57 247 55.9 247.1 54.6L252.1 55C252 55.4 251.7 55.8 251 55.8C250.9 56.6 250.8 57.4 250.7 58.1H257.6L259.6 55.7ZM247.4 53.4V49.8H239L238.8 48.9H247.4V45.5H237.4L237.1 44.6H244.8C244.5 44.5 244.1 44.4 243.8 44.1C243.6 42.5 242.7 40.9 241.8 39.8L242 39.6C248.4 40.1 247.9 44 245.8 44.6H251.4C252 43.1 252.7 41 253.1 39.5L257.9 40.6C257.8 41 257.4 41.2 256.7 41.2C255.7 42.2 254 43.6 252.4 44.6H257.1L259 42.2C259 42.2 261.2 43.8 262.5 45C262.4 45.3 262.1 45.5 261.7 45.5H251.2V48.9H255.4L257.2 46.7C257.2 46.7 259.3 48.2 260.6 49.3C260.5 49.6 260.2 49.8 259.8 49.8H251.3V53.4H257.8L259.8 50.9C259.8 50.9 262 52.6 263.3 53.8C263.2 54.1 262.9 54.3 262.5 54.3H236L235.8 53.4H247.4ZM251.6 60C265.1 61.1 264.4 68.9 260.3 67.6C258.4 65 254.4 62 251.4 60.3L251.6 60Z" fill="white"/>
<path d="M298.8 43.2C298.6 43.4 298.2 43.7 297.6 43.8V58.1C297.6 58.3 295.8 59.1 294.5 59.1H293.9V56.9H287.6V66.9C287.6 67.1 286.4 68 284.5 68H283.8V56.9H277.6V58.3C277.6 58.7 276.1 59.5 274.5 59.5H274V40.8L277.9 42.4H293.6L295.3 40.5L298.8 43.2ZM277.6 43.2V49.1H283.8V43.2H277.6ZM283.8 56.1V50H277.6V56.1H283.8ZM287.6 43.2V49.1H293.9V43.2H287.6ZM293.9 56.1V50H287.6V56.1H293.9Z" fill="white"/>
<defs>
<linearGradient id="paint0_linear" x1="84.2836" y1="146.069" x2="312.411" y2="-82.1519" gradientUnits="userSpaceOnUse">
<stop stop-color="#DDBC82"/>
<stop offset="0.3054" stop-color="#9B7860"/>
<stop offset="0.6522" stop-color="#DDBC82"/>
<stop offset="1" stop-color="#9B7860"/>
</linearGradient>
</defs>
</svg>
