<svg width="66" height="19" viewBox="0 0 66 19" fill="none" xmlns="http://www.w3.org/2000/svg">
<path d="M3.7998 14.8999C2.7998 14.8999 1.79983 14.5999 0.699829 14.0999C0.499829 13.9999 0.299805 13.6999 0.299805 13.4999C0.299805 13.3999 0.299805 13.3999 0.299805 13.2999C0.299805 13.0999 0.399817 12.8999 0.499817 12.6999L0.699829 12.3999C0.899829 12.1999 1.09984 11.9999 1.39984 11.9999C1.49984 11.9999 1.49979 11.9999 1.59979 11.9999C1.79979 11.9999 1.99983 12.0999 2.19983 12.1999C2.79983 12.4999 3.39984 12.6999 3.89984 12.6999C4.69984 12.6999 5.09979 12.3999 5.09979 11.8999C5.09979 11.7999 5.09982 11.6999 4.99982 11.6999C4.89982 11.6999 4.8998 11.5999 4.7998 11.4999C4.6998 11.3999 4.59979 11.3999 4.59979 11.2999C4.49979 11.1999 4.3998 11.1999 4.2998 11.0999C4.0998 10.9999 3.99984 10.9999 3.89984 10.8999C3.79984 10.8999 3.69982 10.7999 3.49982 10.6999C3.29982 10.5999 3.19979 10.5999 3.09979 10.4999C2.79979 10.3999 2.39983 10.1999 2.19983 10.0999C1.99983 9.99991 1.59984 9.79991 1.39984 9.49991C1.19984 9.19991 0.899805 8.99991 0.799805 8.69991C0.599805 8.39991 0.599792 7.99991 0.599792 7.59991C0.599792 6.59991 0.999829 5.89991 1.69983 5.29991C2.39983 4.69991 3.39982 4.3999 4.49982 4.3999C5.49982 4.3999 6.3998 4.59991 7.2998 5.09991C7.4998 5.19991 7.69983 5.39991 7.69983 5.69991C7.69983 5.79991 7.69983 5.7999 7.69983 5.8999C7.69983 6.0999 7.59982 6.29991 7.49982 6.49991L7.2998 6.69991C7.0998 6.89991 6.89979 7.09991 6.59979 7.09991C6.49979 7.09991 6.39984 7.09991 6.39984 7.09991C6.19984 7.09991 5.9998 7.09991 5.7998 6.99991C5.3998 6.79991 4.99979 6.69991 4.59979 6.69991C3.89979 6.69991 3.49982 6.8999 3.49982 7.3999C3.49982 7.4999 3.49982 7.49991 3.49982 7.59991C3.49982 7.69991 3.59979 7.69991 3.59979 7.79991C3.59979 7.89991 3.69983 7.8999 3.69983 7.8999C3.69983 7.8999 3.79984 7.99991 3.89984 7.99991C3.99984 7.99991 4.09979 8.09991 4.09979 8.09991C4.19979 8.09991 4.29984 8.19991 4.39984 8.19991C4.49984 8.19991 4.59983 8.29991 4.69983 8.29991C4.79983 8.29991 4.89982 8.3999 4.99982 8.3999C5.09982 8.3999 5.2998 8.49991 5.2998 8.49991C5.6998 8.59991 5.9998 8.7999 6.2998 8.8999C6.5998 8.9999 6.79979 9.19991 7.09979 9.49991C7.39979 9.79991 7.59983 9.9999 7.69983 10.3999C7.79983 10.6999 7.89984 11.0999 7.89984 11.5999C7.89984 12.5999 7.4998 13.3999 6.7998 13.9999C6.0998 14.5999 5.1998 14.8999 3.7998 14.8999Z" stroke="black" stroke-width="0.5983"/>
<path d="M13.7994 14.8999C12.5994 14.8999 11.6994 14.5999 11.0994 13.7999C10.4994 13.0999 10.1994 12.0999 10.1994 10.8999V7.09991C10.1994 6.99991 10.1994 6.99991 10.0994 6.99991H9.89941C9.59941 6.99991 9.3994 6.89991 9.1994 6.69991C8.9994 6.49991 8.89941 6.29991 8.89941 5.99991V5.69991C8.89941 5.39991 8.9994 5.1999 9.1994 4.8999C9.3994 4.6999 9.59941 4.59991 9.89941 4.49991H10.2994C10.3994 4.49991 10.3994 4.3999 10.4994 4.3999L10.6994 2.8999C10.6994 2.5999 10.8994 2.39991 11.0994 2.19991C11.2994 1.99991 11.5994 1.8999 11.8994 1.8999H12.4994C12.7994 1.8999 12.9994 1.99991 13.1994 2.19991C13.3994 2.39991 13.4994 2.5999 13.4994 2.8999V4.3999C13.4994 4.4999 13.4994 4.49991 13.5994 4.49991H14.7994C15.0994 4.49991 15.2994 4.59991 15.4994 4.79991C15.6994 4.99991 15.7994 5.19991 15.7994 5.49991V5.8999C15.7994 6.1999 15.6994 6.39991 15.4994 6.59991C15.2994 6.79991 15.0994 6.8999 14.7994 6.8999H13.5994C13.4994 6.8999 13.4994 6.89991 13.4994 6.99991V10.6999C13.4994 11.6999 13.8994 12.1999 14.6994 12.2999C14.9994 12.2999 15.1994 12.3999 15.4994 12.4999C15.6994 12.5999 15.8994 12.7999 15.8994 13.0999L15.9994 13.3999C15.9994 13.4999 15.9994 13.5999 15.9994 13.6999C15.9994 13.8999 15.8994 14.0999 15.7994 14.1999C15.5994 14.4999 15.3994 14.5999 15.1994 14.6999C14.6994 14.7999 14.2994 14.8999 13.7994 14.8999Z" stroke="black" stroke-width="0.5983"/>
<path d="M22.1996 14.9C20.6996 14.9 19.4996 14.4 18.4996 13.5C17.4996 12.6 17.0996 11.3001 17.0996 9.60005C17.0996 8.80005 17.1996 8.10004 17.4996 7.40004C17.7996 6.70004 18.0996 6.20004 18.5996 5.70004C18.9996 5.30004 19.5996 4.90004 20.0996 4.70004C20.6996 4.50004 21.2997 4.30005 21.8997 4.30005C23.2997 4.30005 24.3996 4.80004 25.0996 5.70004C25.7996 6.60004 26.1996 7.80004 26.1996 9.20004C26.1996 9.30004 26.1996 9.40005 26.1996 9.50005C26.1996 9.80005 26.0996 10 25.7996 10.2C25.5996 10.4 25.2996 10.5 24.9996 10.5H20.1996H20.0996V10.6001C20.3996 11.8001 21.1996 12.4 22.5996 12.4C22.9996 12.4 23.3996 12.3 23.7996 12.2C23.8996 12.2 24.0996 12.1001 24.1996 12.1001C24.2996 12.1001 24.4996 12.1 24.5996 12.2C24.8996 12.3 25.0996 12.4 25.1996 12.7L25.2996 12.8C25.3996 13 25.4996 13.1 25.4996 13.3C25.4996 13.4 25.4997 13.5001 25.3997 13.6001C25.2997 13.9001 25.1997 14.1 24.8997 14.2C23.9997 14.7 23.0996 14.9 22.1996 14.9ZM19.9996 8.40004C19.9996 8.50004 19.9996 8.50005 20.0996 8.50005H23.2996C23.3996 8.50005 23.3997 8.50004 23.3997 8.40004C23.3997 7.90004 23.1996 7.50004 22.9996 7.20004C22.6996 6.90004 22.2996 6.80005 21.7996 6.80005C21.2996 6.80005 20.9996 6.90004 20.5996 7.20004C20.2996 7.50004 19.9996 7.90004 19.9996 8.40004Z" stroke="black" stroke-width="0.5983"/>
<path d="M29.2002 18.3C28.9002 18.3 28.7002 18.2 28.5002 18C28.3002 17.8 28.2002 17.6 28.2002 17.3V5.50005C28.2002 5.20005 28.3002 5.00005 28.5002 4.80005C28.7002 4.60005 28.9002 4.50005 29.2002 4.50005H29.9002C30.2002 4.50005 30.4002 4.60005 30.6002 4.80005C30.8002 5.00005 30.9002 5.20004 31.0002 5.40004V5.50005C31.0002 5.50005 31.0002 5.50005 31.1002 5.50005C32.0002 4.70005 33.0002 4.30005 33.9002 4.30005C35.1002 4.30005 36.1002 4.80004 36.8002 5.70004C37.5002 6.60004 37.9002 7.90004 37.9002 9.40004C37.9002 10.2 37.8002 11 37.5002 11.7C37.2002 12.4 36.9002 13 36.5002 13.4C36.1002 13.9 35.6002 14.2 35.1002 14.4C34.6002 14.6 34.1002 14.8 33.5002 14.8C32.7002 14.8 31.9002 14.5 31.2002 13.8C31.2002 13.8 31.2002 13.8 31.1002 13.8L31.2002 15.3V17.2C31.2002 17.5 31.1002 17.7 30.9002 17.9C30.7002 18.1 30.5002 18.2 30.2002 18.2H29.2002V18.3ZM32.8002 12.3C33.3002 12.3 33.7002 12.1001 34.1002 11.6001C34.4002 11.1001 34.6002 10.4 34.6002 9.50005C34.6002 8.60005 34.5002 8.00005 34.2002 7.50005C33.9002 7.10005 33.5002 6.90004 33.0002 6.90004C32.5002 6.90004 32.0002 7.10005 31.5002 7.60005C31.4002 7.70005 31.4002 7.70005 31.4002 7.80005V11.6001C31.4002 11.7001 31.4002 11.8 31.5002 11.8C31.9002 12.2 32.3002 12.3 32.8002 12.3Z" stroke="black" stroke-width="0.5983"/>
<path d="M41.5002 14.8999C41.0002 14.8999 40.5002 14.6999 40.2002 14.2999C39.9002 13.8999 39.7002 13.4999 39.7002 12.8999C39.7002 12.2999 39.9002 11.8999 40.2002 11.4999C40.5002 11.0999 41.0002 10.8999 41.5002 10.8999C42.0002 10.8999 42.5002 11.0999 42.9002 11.4999C43.3002 11.8999 43.4002 12.2999 43.4002 12.8999C43.4002 13.4999 43.2002 13.8999 42.9002 14.2999C42.6002 14.6999 42.1002 14.8999 41.5002 14.8999Z" stroke="black" stroke-width="0.5983"/>
<path d="M53.4994 13.1C52.5994 14.3 51.4994 14.8999 50.0994 14.8999C48.6994 14.8999 47.4994 14.3 46.6994 13.1C45.8994 11.9 45.3994 10.2 45.3994 7.99995C45.3994 5.79995 45.7994 4.09995 46.6994 2.89995C47.4994 1.69995 48.6994 1.19995 50.0994 1.19995C51.4994 1.19995 52.6994 1.79995 53.4994 2.89995C54.2994 3.99995 54.7994 5.69995 54.7994 7.89995C54.7994 10.1999 54.2994 11.9 53.4994 13.1ZM49.3994 12.2C49.5994 12.3 49.7994 12.3999 50.0994 12.3999C50.3994 12.3999 50.5994 12.3 50.7994 12.2C50.9994 12.1 51.1994 11.8 51.2994 11.5C51.4994 11.2 51.5994 10.7 51.6994 10.1C51.7994 9.49996 51.7994 8.79995 51.7994 7.89995C51.7994 6.99995 51.7994 6.29995 51.6994 5.69995C51.5994 5.09995 51.4994 4.69995 51.2994 4.39995C51.0994 4.09995 50.9994 3.89996 50.7994 3.79996C50.5994 3.69996 50.3994 3.59996 50.0994 3.59996C49.7994 3.59996 49.5994 3.69996 49.3994 3.79996C49.1994 3.89996 48.9994 4.09995 48.8994 4.39995C48.7994 4.69995 48.5994 5.09995 48.4994 5.69995C48.3994 6.29995 48.3994 6.99995 48.3994 7.89995C48.3994 8.79995 48.3994 9.49996 48.4994 10.1C48.5994 10.7 48.6994 11.2 48.8994 11.5C48.9994 11.9 49.1994 12.1 49.3994 12.2Z" stroke="black" stroke-width="0.5983"/>
<path d="M60.7998 14.8999C59.4998 14.8999 58.3998 14.5999 57.5998 13.8999C56.6998 13.1999 56.2998 12.3999 56.2998 11.3999C56.2998 9.99995 56.9998 8.79996 58.3998 8.09996C58.3998 8.09996 58.3998 8.09995 58.3998 7.99995V7.89995C57.2998 7.09995 56.6998 5.99996 56.6998 4.79996C56.6998 3.69996 57.0998 2.79995 57.8998 2.19995C58.6998 1.59995 59.6998 1.19995 60.8998 1.19995C62.0998 1.19995 63.0998 1.49995 63.7998 2.19995C64.4998 2.79995 64.8998 3.69996 64.8998 4.79996C64.8998 5.39996 64.6998 5.89995 64.3998 6.39995C64.0998 6.89995 63.6998 7.29995 63.1998 7.69995C63.1998 7.69995 63.1998 7.69996 63.1998 7.79996C63.1998 7.79996 63.1998 7.79995 63.1998 7.89995C64.6998 8.69995 65.3998 9.89995 65.3998 11.3999C65.3998 12.3999 64.9998 13.3 64.0998 14C63.1998 14.7 62.1998 14.8999 60.7998 14.8999ZM60.8998 12.7C61.3998 12.7 61.7998 12.6 62.0998 12.3C62.3998 12 62.5998 11.7 62.5998 11.2C62.5998 10.7 62.3998 10.3 61.9998 9.99995C61.5998 9.69995 60.9998 9.29995 60.0998 8.99995H59.9998C59.9998 8.99995 59.8998 8.99996 59.8998 9.09996C59.3998 9.69996 59.0998 10.3 59.0998 11.1C59.0998 11.6 59.2998 12 59.5998 12.3C59.8998 12.6 60.3998 12.7 60.8998 12.7ZM61.4998 6.79996C61.5998 6.79996 61.6998 6.79995 61.6998 6.69995C62.0998 6.09995 62.2998 5.49996 62.2998 4.79996C62.2998 4.29996 62.1998 3.89995 61.8998 3.69995C61.5998 3.39995 61.2998 3.29996 60.7998 3.29996C60.3998 3.29996 60.0998 3.39995 59.7998 3.69995C59.4998 3.99995 59.3998 4.29995 59.3998 4.69995C59.3998 5.19995 59.5998 5.59995 59.8998 5.89995C60.3998 6.19995 60.8998 6.49996 61.4998 6.79996Z" stroke="black" stroke-width="0.5983"/>
</svg>
