<svg width="218" height="18" viewBox="0 0 218 18" fill="none" xmlns="http://www.w3.org/2000/svg">
<path d="M3.7998 14.0001C2.7998 14.0001 1.79983 13.7001 0.699829 13.2001C0.499829 13.1001 0.299805 12.8001 0.299805 12.6001C0.299805 12.5001 0.299805 12.5001 0.299805 12.4001C0.299805 12.2001 0.399817 12.0001 0.499817 11.8001L0.699829 11.5001C0.899829 11.3001 1.09984 11.1001 1.39984 11.1001C1.49984 11.1001 1.49979 11.1001 1.59979 11.1001C1.79979 11.1001 1.99983 11.2001 2.19983 11.3001C2.79983 11.6001 3.39984 11.8001 3.89984 11.8001C4.69984 11.8001 5.09979 11.5001 5.09979 11.0001C5.09979 10.9001 5.09982 10.8001 4.99982 10.8001C4.89982 10.8001 4.8998 10.7001 4.7998 10.6001C4.6998 10.5001 4.59979 10.5001 4.59979 10.4001C4.49979 10.3001 4.3998 10.3001 4.2998 10.2001C4.1998 10.0001 3.99982 10.0001 3.99982 9.90015C3.89982 9.90015 3.79979 9.80015 3.59979 9.70015C3.39979 9.60015 3.29983 9.60015 3.19983 9.50015C2.89983 9.40015 2.4998 9.20015 2.2998 9.10015C2.0998 9.00015 1.69982 8.80015 1.49982 8.50015C1.29982 8.20015 0.999841 8.00015 0.899841 7.70015C0.699841 7.40015 0.699829 7.00015 0.699829 6.60015C0.699829 5.60015 1.0998 4.90015 1.7998 4.30015C2.4998 3.70015 3.49979 3.40015 4.59979 3.40015C5.59979 3.40015 6.49984 3.60015 7.39984 4.10015C7.59984 4.20015 7.7998 4.40015 7.7998 4.70015C7.7998 4.80015 7.7998 4.80015 7.7998 4.90015C7.7998 5.10015 7.69979 5.30015 7.59979 5.50015L7.39984 5.70015C7.19984 5.90015 6.99983 6.10015 6.69983 6.10015C6.59983 6.10015 6.49982 6.10015 6.49982 6.10015C6.29982 6.10015 6.09984 6.10015 5.89984 6.00015C5.49984 5.80015 5.09983 5.70015 4.69983 5.70015C3.99983 5.70015 3.59979 5.90015 3.59979 6.40015C3.59979 6.50015 3.59979 6.50015 3.59979 6.60015C3.59979 6.70015 3.69983 6.70015 3.69983 6.80015C3.69983 6.90015 3.7998 6.90015 3.7998 6.90015C3.7998 6.90015 3.89982 7.00015 3.99982 7.00015C4.09982 7.00015 4.19983 7.10015 4.19983 7.10015C4.29983 7.10015 4.39982 7.20015 4.49982 7.20015C4.59982 7.20015 4.6998 7.30015 4.7998 7.30015C4.8998 7.30015 4.99979 7.40015 5.09979 7.40015C5.19979 7.40015 5.39984 7.50015 5.39984 7.50015C5.79984 7.60015 6.09984 7.80015 6.39984 7.90015C6.69984 8.00015 6.89983 8.20015 7.19983 8.50015C7.49983 8.80015 7.6998 9.00015 7.7998 9.40015C7.8998 9.70015 7.99982 10.1001 7.99982 10.6001C7.99982 11.6001 7.59984 12.4001 6.89984 13.0001C6.19984 13.6001 5.1998 14.0001 3.7998 14.0001Z" stroke="black" stroke-width="0.5983"/>
<path d="M13.9 14C12.7 14 11.8 13.7 11.2 12.9C10.6 12.2 10.3 11.2 10.3 10V6.3C10.3 6.2 10.3 6.2 10.2 6.2H10C9.7 6.2 9.49999 6.1 9.29999 5.9C9.09999 5.7 9 5.5 9 5.2V4.8C9 4.5 9.09999 4.3 9.29999 4C9.49999 3.8 9.7 3.7 10 3.6H10.4C10.5 3.6 10.5 3.5 10.6 3.5L10.8 2C10.8 1.7 11 1.5 11.2 1.3C11.4 1.1 11.7 1 12 1H12.6C12.9 1 13.1 1.1 13.3 1.3C13.5 1.5 13.6 1.7 13.6 2V3.5C13.6 3.6 13.6 3.6 13.7 3.6H14.9C15.2 3.6 15.4 3.7 15.6 3.9C15.8 4.1 15.9 4.3 15.9 4.6V5C15.9 5.3 15.8 5.5 15.6 5.7C15.4 5.9 15.2 6 14.9 6H13.7C13.6 6 13.6 6 13.6 6.1V10C13.6 11 14 11.5 14.8 11.6C15.1 11.6 15.3 11.7 15.6 11.8C15.8 11.9 16 12.1 16 12.4L16.1 12.7C16.1 12.8 16.1 12.9 16.1 13C16.1 13.2 16 13.4 15.9 13.5C15.7 13.8 15.5 13.9 15.3 14C14.7 14 14.3 14 13.9 14Z" stroke="black" stroke-width="0.5983"/>
<path d="M22.1996 14.0001C20.6996 14.0001 19.4996 13.5001 18.4996 12.6001C17.4996 11.7001 17.0996 10.4001 17.0996 8.70015C17.0996 7.90015 17.1996 7.20015 17.4996 6.50015C17.7996 5.80015 18.0996 5.30015 18.5996 4.80015C18.9996 4.40015 19.5996 4.00015 20.0996 3.80015C20.6996 3.60015 21.2997 3.40015 21.8997 3.40015C23.2997 3.40015 24.3996 3.90015 25.0996 4.80015C25.7996 5.70015 26.1996 6.90015 26.1996 8.30015C26.1996 8.40015 26.1996 8.50015 26.1996 8.60015C26.1996 8.90015 26.0996 9.10015 25.7996 9.30015C25.5996 9.50015 25.2996 9.60015 24.9996 9.60015H20.1996H20.0996V9.70015C20.3996 10.9001 21.1996 11.5001 22.5996 11.5001C22.9996 11.5001 23.3996 11.4001 23.7996 11.3001C23.8996 11.3001 24.0996 11.2001 24.1996 11.2001C24.2996 11.2001 24.4996 11.2001 24.5996 11.3001C24.8996 11.4001 25.0996 11.5001 25.1996 11.8001L25.2996 11.9001C25.3996 12.1001 25.4996 12.2001 25.4996 12.4001C25.4996 12.5001 25.4997 12.6001 25.3997 12.7001C25.2997 13.0001 25.1997 13.2001 24.8997 13.3001C23.9997 13.8001 23.0996 14.0001 22.1996 14.0001ZM20.0996 7.50015C20.0996 7.60015 20.0996 7.60015 20.1996 7.60015H23.3997C23.4997 7.60015 23.4996 7.60015 23.4996 7.50015C23.4996 7.00015 23.2996 6.60015 23.0996 6.30015C22.7996 6.00015 22.3997 5.90015 21.8997 5.90015C21.3997 5.90015 21.0996 6.00015 20.6996 6.30015C20.2996 6.60015 20.0996 7.00015 20.0996 7.50015Z" stroke="black" stroke-width="0.5983"/>
<path d="M29.2002 17.5C28.9002 17.5 28.7002 17.4 28.5002 17.2C28.3002 17 28.2002 16.8 28.2002 16.5V4.7C28.2002 4.4 28.3002 4.2 28.5002 4C28.7002 3.8 28.9002 3.7 29.2002 3.7H29.9002C30.2002 3.7 30.4002 3.8 30.6002 4C30.8002 4.2 30.9002 4.4 31.0002 4.6V4.7C31.0002 4.7 31.0002 4.7 31.1002 4.7C32.0002 3.9 33.0002 3.5 33.9002 3.5C35.1002 3.5 36.1002 4 36.8002 4.9C37.5002 5.8 37.9002 7.1 37.9002 8.6C37.9002 9.4 37.8002 10.2 37.5002 10.9C37.2002 11.6 36.9002 12.2 36.5002 12.6C36.1002 13.1 35.6002 13.4 35.1002 13.6C34.6002 13.8 34.1002 14 33.5002 14C32.7002 14 31.9002 13.7 31.2002 13C31.2002 13 31.2002 13 31.1002 13L31.2002 14.5V16.4C31.2002 16.7 31.1002 16.9 30.9002 17.1C30.7002 17.3 30.5002 17.4 30.2002 17.4H29.2002V17.5ZM32.9002 11.5C33.4002 11.5 33.8002 11.3 34.2002 10.8C34.5002 10.3 34.7002 9.6 34.7002 8.7C34.7002 7.8 34.6002 7.2 34.3002 6.7C33.9002 6.2 33.5002 6 33.0002 6C32.5002 6 32.0002 6.2 31.5002 6.7C31.4002 6.8 31.4002 6.8 31.4002 6.9V10.7C31.4002 10.8 31.4002 10.9 31.5002 10.9C31.9002 11.3 32.3002 11.5 32.9002 11.5Z" stroke="black" stroke-width="0.5983"/>
<path d="M41.5998 14C41.0998 14 40.5998 13.8 40.2998 13.4C39.9998 13 39.7998 12.6 39.7998 12C39.7998 11.4 39.9998 11 40.2998 10.6C40.5998 10.2 41.0998 10 41.5998 10C42.0998 10 42.5998 10.2 42.9998 10.6C43.3998 11 43.4998 11.4 43.4998 12C43.4998 12.6 43.2998 13 42.9998 13.4C42.6998 13.8 42.0998 14 41.5998 14Z" stroke="black" stroke-width="0.5983"/>
<path d="M53.4994 12.2C52.5994 13.4 51.4994 14 50.0994 14C48.6994 14 47.4994 13.4 46.6994 12.2C45.8994 11 45.3994 9.30005 45.3994 7.10005C45.3994 4.90005 45.7994 3.20005 46.6994 2.00005C47.4994 0.800049 48.6994 0.300049 50.0994 0.300049C51.4994 0.300049 52.6994 0.900049 53.4994 2.00005C54.2994 3.10005 54.7994 4.80005 54.7994 7.00005C54.7994 9.30005 54.2994 11 53.4994 12.2ZM49.3994 11.4C49.5994 11.5 49.7994 11.6 50.0994 11.6C50.3994 11.6 50.5994 11.5 50.7994 11.4C50.9994 11.3 51.1994 11 51.2994 10.7C51.4994 10.4 51.5994 9.90005 51.6994 9.30005C51.7994 8.70005 51.7994 8.00005 51.7994 7.10005C51.7994 6.20005 51.7994 5.50005 51.6994 4.90005C51.5994 4.30005 51.4994 3.90005 51.2994 3.60005C51.0994 3.30005 50.9994 3.10005 50.7994 3.00005C50.5994 2.90005 50.3994 2.80005 50.0994 2.80005C49.7994 2.80005 49.5994 2.90005 49.3994 3.00005C49.1994 3.10005 48.9994 3.30005 48.8994 3.60005C48.7994 3.90005 48.5994 4.30005 48.4994 4.90005C48.3994 5.50005 48.3994 6.20005 48.3994 7.10005C48.3994 8.00005 48.3994 8.70005 48.4994 9.30005C48.5994 9.90005 48.6994 10.4 48.8994 10.7C48.9994 11 49.1994 11.2 49.3994 11.4Z" stroke="black" stroke-width="0.5983"/>
<path d="M60.4002 14.0001C58.9002 14.0001 57.6002 13.6001 56.6002 12.9001C56.4002 12.7001 56.2002 12.5001 56.2002 12.2001V12.1001C56.2002 11.8001 56.3002 11.6001 56.4002 11.4001L56.7002 11.1001C56.9002 10.9001 57.1002 10.8001 57.3002 10.7001H57.4002C57.6002 10.7001 57.8002 10.8001 58.0002 10.9001C58.6002 11.3001 59.3002 11.5001 60.0002 11.5001C60.6002 11.5001 61.1002 11.4001 61.5002 11.1001C61.9002 10.8001 62.0002 10.5001 62.0002 10.0001C62.0002 9.50015 61.8002 9.10015 61.5002 8.80015C61.2002 8.50015 60.5002 8.30015 59.6002 8.30015C59.3002 8.30015 59.1002 8.20015 58.9002 8.00015C58.7002 7.80015 58.6002 7.60015 58.6002 7.30015V6.90015C58.6002 6.60015 58.7002 6.40015 58.9002 6.20015C59.1002 6.00015 59.3002 5.90015 59.6002 5.80015C60.3002 5.70015 60.8002 5.50015 61.1002 5.20015C61.4002 4.90015 61.6002 4.50015 61.6002 4.10015C61.6002 3.60015 61.5002 3.30015 61.2002 3.10015C60.9002 2.90015 60.6002 2.70015 60.1002 2.70015C59.6002 2.70015 59.1002 2.90015 58.6002 3.20015C58.4002 3.30015 58.2002 3.40015 58.0002 3.40015H57.9002C57.6002 3.40015 57.4002 3.20015 57.2002 3.00015L56.9002 2.70015C56.7002 2.50015 56.7002 2.30015 56.7002 2.10015V2.00015C56.7002 1.70015 56.9002 1.50015 57.1002 1.40015C58.1002 0.700146 59.2002 0.400146 60.4002 0.400146C61.8002 0.400146 62.9002 0.700146 63.7002 1.30015C64.5002 1.90015 64.9002 2.80015 64.9002 4.00015C64.9002 5.40015 64.2002 6.30015 62.8002 6.90015C62.8002 6.90015 62.8002 6.90015 62.8002 7.00015C62.8002 7.10015 62.8002 7.00015 62.8002 7.10015C63.6002 7.30015 64.2002 7.70015 64.6002 8.30015C65.1002 8.80015 65.3002 9.50015 65.3002 10.3001C65.3002 11.1001 65.1002 11.8001 64.6002 12.4001C64.1002 13.0001 63.6002 13.4001 62.8002 13.7001C62.1002 13.9001 61.3002 14.0001 60.4002 14.0001Z" stroke="black" stroke-width="0.5983"/>
<path d="M81.9004 3.60007C127.1 0.100069 172.7 0.300069 217.9 4.30007" stroke="#4D4D4D" stroke-width="0.5983" stroke-miterlimit="10"/>
</svg>
