<svg width="66" height="19" viewBox="0 0 66 19" fill="none" xmlns="http://www.w3.org/2000/svg">
<path d="M4 14.2997C3 14.2997 2 13.9997 0.9 13.4997C0.7 13.3997 0.5 13.0997 0.5 12.8997C0.5 12.7997 0.5 12.7997 0.5 12.6997C0.5 12.4997 0.6 12.2997 0.7 12.0997L0.9 11.7997C1.1 11.5997 1.3 11.3997 1.6 11.3997C1.7 11.3997 1.7 11.3997 1.8 11.3997C2 11.3997 2.2 11.4997 2.4 11.5997C3 11.8997 3.6 12.0997 4.1 12.0997C4.9 12.0997 5.3 11.7997 5.3 11.2997C5.3 11.1997 5.3 11.0997 5.2 11.0997C5.1 11.0997 5.1 10.9997 5 10.8997C4.9 10.7997 4.8 10.7997 4.8 10.6997C4.7 10.5997 4.6 10.5997 4.5 10.4997C4.3 10.3997 4.2 10.3997 4.1 10.2997C4 10.2997 3.9 10.1997 3.7 10.0997C3.5 9.9997 3.4 9.99969 3.3 9.89969C3 9.79969 2.6 9.59969 2.4 9.49969C2.2 9.39969 1.8 9.19969 1.6 8.89969C1.4 8.59969 1 8.39969 0.9 7.99969C0.7 7.69969 0.7 7.29969 0.7 6.89969C0.7 5.89969 1.1 5.1997 1.8 4.5997C2.5 3.9997 3.5 3.69971 4.6 3.69971C5.6 3.69971 6.5 3.89969 7.4 4.39969C7.6 4.49969 7.8 4.69969 7.8 4.99969C7.8 5.09969 7.8 5.09971 7.8 5.19971C7.8 5.39971 7.7 5.59968 7.6 5.79968L7.4 5.99969C7.2 6.19969 7 6.39969 6.7 6.39969C6.6 6.39969 6.5 6.39969 6.5 6.39969C6.3 6.39969 6.1 6.39968 5.9 6.29968C5.5 6.09968 5.1 5.99969 4.7 5.99969C4 5.99969 3.6 6.19971 3.6 6.69971C3.6 6.79971 3.6 6.79969 3.6 6.89969C3.6 6.99969 3.7 6.9997 3.7 7.0997C3.7 7.1997 3.8 7.19971 3.8 7.19971C3.8 7.19971 3.9 7.29968 4 7.29968C4.1 7.29968 4.2 7.39969 4.2 7.39969C4.3 7.39969 4.4 7.49969 4.5 7.49969C4.6 7.49969 4.7 7.5997 4.8 7.5997C4.9 7.5997 5 7.69971 5.1 7.69971C5.2 7.69971 5.4 7.79968 5.4 7.79968C5.8 7.89968 6.1 8.09971 6.4 8.19971C6.7 8.29971 6.9 8.49968 7.2 8.79968C7.5 9.09968 7.7 9.29971 7.8 9.69971C7.9 9.99971 8 10.3997 8 10.8997C8 11.8997 7.6 12.6997 6.9 13.2997C6.2 13.8997 5.3 14.2997 4 14.2997Z" stroke="#CC622D" stroke-miterlimit="10"/>
<path d="M13.9996 14.2998C12.7996 14.2998 11.8996 13.9998 11.2996 13.1998C10.6996 12.4998 10.3996 11.4998 10.3996 10.2998V6.49982C10.3996 6.39982 10.3996 6.39981 10.2996 6.39981H10.0996C9.79961 6.39981 9.59961 6.29982 9.39961 6.09982C9.19961 5.89982 9.09961 5.69981 9.09961 5.39981V5.09982C9.09961 4.79982 9.19961 4.5998 9.39961 4.2998C9.59961 4.0998 9.79961 3.99981 10.0996 3.89981H10.4996C10.5996 3.89981 10.5996 3.7998 10.6996 3.7998L10.8996 2.2998C10.8996 1.9998 11.0996 1.79982 11.2996 1.59982C11.4996 1.39982 11.7996 1.2998 12.0996 1.2998H12.6996C12.9996 1.2998 13.1996 1.39982 13.3996 1.59982C13.5996 1.79982 13.6996 1.9998 13.6996 2.2998V3.7998C13.6996 3.8998 13.6996 3.89981 13.7996 3.89981H14.9996C15.2996 3.89981 15.4996 3.99983 15.6996 4.19983C15.8996 4.39983 15.9996 4.59981 15.9996 4.89981V5.2998C15.9996 5.5998 15.8996 5.79982 15.6996 5.99982C15.4996 6.19982 15.2996 6.2998 14.9996 6.2998H13.7996C13.6996 6.2998 13.6996 6.29981 13.6996 6.39981V10.0998C13.6996 11.0998 14.0996 11.5998 14.8996 11.6998C15.1996 11.6998 15.3996 11.7998 15.6996 11.8998C15.8996 11.9998 16.0996 12.1998 16.0996 12.4998L16.1996 12.7998C16.1996 12.8998 16.1996 12.9998 16.1996 13.0998C16.1996 13.2998 16.0996 13.4998 15.9996 13.5998C15.7996 13.8998 15.5996 13.9998 15.3996 14.0998C14.8996 14.2998 14.4996 14.2998 13.9996 14.2998Z" stroke="#CC622D" stroke-miterlimit="10"/>
<path d="M22.2992 14.2997C20.7992 14.2997 19.5992 13.7997 18.5992 12.8997C17.5992 11.9997 17.1992 10.6997 17.1992 8.99969C17.1992 8.19969 17.2992 7.49968 17.5992 6.79968C17.8992 6.09968 18.1992 5.5997 18.6992 5.0997C19.0992 4.6997 19.6992 4.2997 20.1992 4.0997C20.7992 3.8997 21.3992 3.69971 21.9992 3.69971C23.3992 3.69971 24.4992 4.1997 25.1992 5.0997C25.8992 5.9997 26.2992 7.1997 26.2992 8.5997C26.2992 8.6997 26.2992 8.79969 26.2992 8.89969C26.2992 9.19969 26.1992 9.3997 25.8992 9.5997C25.6992 9.7997 25.3992 9.89969 25.0992 9.89969H20.2992H20.1992V9.99969C20.4992 11.1997 21.2992 11.7997 22.6992 11.7997C23.0992 11.7997 23.4992 11.6997 23.8992 11.5997C23.9992 11.5997 24.1992 11.4997 24.2992 11.4997C24.3992 11.4997 24.5992 11.4997 24.6992 11.5997C24.9992 11.6997 25.1992 11.7997 25.2992 12.0997L25.3992 12.1997C25.4992 12.3997 25.5992 12.4997 25.5992 12.6997C25.5992 12.7997 25.5992 12.8997 25.4992 12.9997C25.3992 13.2997 25.2992 13.4997 24.9992 13.5997C24.1992 14.0997 23.2992 14.2997 22.2992 14.2997ZM20.1992 7.79968C20.1992 7.89968 20.1992 7.89969 20.2992 7.89969H23.4992C23.5992 7.89969 23.5992 7.89968 23.5992 7.79968C23.5992 7.29968 23.3992 6.8997 23.1992 6.5997C22.8992 6.2997 22.4992 6.19971 21.9992 6.19971C21.4992 6.19971 21.1992 6.2997 20.7992 6.5997C20.3992 6.8997 20.1992 7.29968 20.1992 7.79968Z" stroke="#CC622D" stroke-miterlimit="10"/>
<path d="M29.4004 17.7998C29.1004 17.7998 28.9004 17.6998 28.7004 17.4998C28.5004 17.2998 28.4004 17.0998 28.4004 16.7998V4.99982C28.4004 4.69982 28.5004 4.4998 28.7004 4.2998C28.9004 4.0998 29.1004 3.99982 29.4004 3.99982H30.0004C30.3004 3.99982 30.5004 4.0998 30.7004 4.2998C30.9004 4.4998 31.0004 4.69981 31.1004 4.89981V4.99982C31.1004 4.99982 31.1004 4.99982 31.2004 4.99982C32.1004 4.19982 33.1004 3.7998 34.0004 3.7998C35.2004 3.7998 36.2004 4.29983 36.9004 5.19983C37.6004 6.09983 38.0004 7.39981 38.0004 8.89981C38.0004 9.69981 37.9004 10.4998 37.6004 11.1998C37.3004 11.8998 37.0004 12.4998 36.6004 12.8998C36.2004 13.3998 35.7004 13.6998 35.2004 13.8998C34.7004 14.0998 34.2004 14.2998 33.6004 14.2998C32.8004 14.2998 32.0004 13.9998 31.3004 13.2998C31.3004 13.2998 31.3004 13.2998 31.2004 13.2998L31.3004 14.7998V16.6998C31.3004 16.9998 31.2004 17.1998 31.0004 17.3998C30.8004 17.5998 30.6004 17.6998 30.3004 17.6998H29.4004V17.7998ZM33.0004 11.7998C33.5004 11.7998 33.9004 11.5998 34.3004 11.0998C34.6004 10.5998 34.8004 9.89982 34.8004 8.99982C34.8004 8.09982 34.7004 7.49982 34.4004 6.99982C34.1004 6.59982 33.7004 6.39981 33.2004 6.39981C32.7004 6.39981 32.2004 6.59982 31.7004 7.09982C31.6004 7.19982 31.6004 7.1998 31.6004 7.2998V11.0998C31.6004 11.1998 31.6004 11.2998 31.7004 11.2998C32.0004 11.5998 32.5004 11.7998 33.0004 11.7998Z" stroke="#CC622D" stroke-miterlimit="10"/>
<path d="M41.7004 14.2998C41.2004 14.2998 40.7004 14.0998 40.4004 13.6998C40.1004 13.2998 39.9004 12.8998 39.9004 12.2998C39.9004 11.6998 40.1004 11.2998 40.4004 10.8998C40.7004 10.4998 41.2004 10.2998 41.7004 10.2998C42.2004 10.2998 42.7004 10.4998 43.1004 10.8998C43.5004 11.2998 43.6004 11.6998 43.6004 12.2998C43.6004 12.8998 43.4004 13.2998 43.1004 13.6998C42.8004 14.0998 42.3004 14.2998 41.7004 14.2998Z" stroke="#CC622D" stroke-miterlimit="10"/>
<path d="M47.1992 14.1C46.8992 14.1 46.6992 14 46.4992 13.8C46.2992 13.6 46.1992 13.4 46.1992 13.1V12.6C46.1992 12.3 46.2992 12.1 46.4992 11.9C46.6992 11.7 46.8992 11.6 47.1992 11.6H48.7992C48.8992 11.6 48.8992 11.6 48.8992 11.5V4.20001C48.8992 4.10001 48.8992 4.10001 48.7992 4.10001H47.4992C47.1992 4.10001 46.9992 3.99999 46.7992 3.79999C46.5992 3.59999 46.4992 3.40001 46.4992 3.10001C46.4992 2.80001 46.5992 2.59999 46.7992 2.39999C46.9992 2.19999 47.1992 2 47.4992 2C47.9992 1.9 48.4992 1.7 48.8992 1.5C49.5992 1.2 50.1992 1 50.7992 1H51.0992C51.3992 1 51.5992 1.09999 51.7992 1.29999C51.9992 1.49999 52.0992 1.7 52.0992 2V11.5C52.0992 11.6 52.0992 11.6 52.1992 11.6H53.3992C53.6992 11.6 53.8992 11.7 54.0992 11.9C54.2992 12.1 54.3992 12.3 54.3992 12.6V13.1C54.3992 13.4 54.2992 13.6 54.0992 13.8C53.8992 14 53.6992 14.1 53.3992 14.1H47.1992Z" stroke="#CC622D" stroke-miterlimit="10"/>
<path d="M60.6004 14.2999C59.1004 14.2999 57.8004 13.8999 56.8004 13.1999C56.6004 12.9999 56.4004 12.7999 56.4004 12.4999V12.3999C56.4004 12.0999 56.5004 11.8999 56.6004 11.6999L56.9004 11.3999C57.1004 11.1999 57.3004 11.0999 57.5004 10.9999H57.6004C57.8004 10.9999 58.0004 11.0999 58.2004 11.1999C58.8004 11.5999 59.5004 11.7999 60.2004 11.7999C60.8004 11.7999 61.3004 11.6999 61.7004 11.3999C62.1004 11.0999 62.2004 10.7999 62.2004 10.2999C62.2004 9.7999 62.0004 9.39991 61.7004 9.09991C61.4004 8.79991 60.7004 8.59991 59.8004 8.59991C59.5004 8.59991 59.3004 8.4999 59.1004 8.2999C58.9004 8.0999 58.8004 7.89991 58.8004 7.59991V7.3999C58.8004 7.0999 58.9004 6.89992 59.1004 6.69992C59.3004 6.49992 59.5004 6.3999 59.8004 6.2999C60.5004 6.1999 61.0004 5.99992 61.3004 5.69992C61.6004 5.39992 61.8004 4.99991 61.8004 4.59991C61.8004 4.09991 61.7004 3.79991 61.4004 3.59991C61.1004 3.39991 60.8004 3.19992 60.3004 3.19992C59.8004 3.19992 59.3004 3.39992 58.8004 3.69992C58.6004 3.79992 58.4004 3.8999 58.2004 3.8999H58.1004C57.8004 3.8999 57.6004 3.69991 57.4004 3.49991L57.1004 3.19992C56.9004 2.99992 56.9004 2.79991 56.9004 2.59991V2.49991C56.9004 2.19991 57.1004 1.9999 57.3004 1.8999C58.3004 1.1999 59.4004 0.899902 60.6004 0.899902C62.0004 0.899902 63.1004 1.1999 63.9004 1.7999C64.7004 2.3999 65.1004 3.29991 65.1004 4.49991C65.1004 5.89991 64.4004 6.7999 63.0004 7.3999C63.0004 7.3999 63.0004 7.39991 63.0004 7.49991C63.0004 7.59991 63.0004 7.49991 63.0004 7.59991C63.8004 7.79991 64.4004 8.1999 64.8004 8.7999C65.3004 9.2999 65.5004 9.9999 65.5004 10.7999C65.5004 11.5999 65.3004 12.2999 64.8004 12.8999C64.3004 13.4999 63.8004 13.8999 63.0004 14.1999C62.3004 14.1999 61.5004 14.2999 60.6004 14.2999Z" stroke="#CC622D" stroke-miterlimit="10"/>
</svg>
