<svg width="67" height="19" viewBox="0 0 67 19" fill="none" xmlns="http://www.w3.org/2000/svg">
<path d="M4 14.5003C3 14.5003 2 14.2003 0.9 13.7003C0.7 13.6003 0.5 13.3003 0.5 13.1003C0.5 13.0003 0.5 13.0003 0.5 12.9003C0.5 12.7003 0.6 12.5003 0.7 12.3003L0.9 12.0003C1.1 11.8003 1.3 11.6003 1.6 11.6003C1.7 11.6003 1.7 11.6003 1.8 11.6003C2 11.6003 2.2 11.7003 2.4 11.8003C3 12.1003 3.6 12.3003 4.1 12.3003C4.9 12.3003 5.3 12.0003 5.3 11.5003C5.3 11.4003 5.3 11.3003 5.2 11.3003C5.1 11.3003 5.1 11.0003 5 10.9003C4.9 10.8003 4.8 10.8003 4.8 10.7003C4.7 10.6003 4.6 10.6003 4.5 10.5003C4.3 10.4003 4.2 10.4003 4.1 10.3003C4 10.3003 3.9 10.2003 3.7 10.1003C3.5 10.0003 3.4 10.0003 3.3 9.90028C3 9.80028 2.6 9.60029 2.4 9.50029C2.2 9.40029 1.8 9.20028 1.6 8.90028C1.4 8.60028 1.1 8.4003 1 8.1003C0.8 7.8003 0.8 7.40029 0.8 7.00029C0.8 6.00029 1.2 5.30029 1.9 4.70029C2.6 4.10029 3.6 3.80029 4.7 3.80029C5.7 3.80029 6.6 4.00029 7.5 4.50029C7.7 4.60029 7.9 4.8003 7.9 5.1003C7.9 5.2003 7.9 5.20029 7.9 5.30029C7.9 5.50029 7.8 5.70028 7.7 5.90028L7.5 6.1003C7.3 6.3003 7.1 6.50029 6.8 6.50029C6.7 6.50029 6.6 6.50029 6.6 6.50029C6.4 6.50029 6.2 6.50028 6 6.40028C5.6 6.20028 5.2 6.1003 4.8 6.1003C4.1 6.1003 3.7 6.30029 3.7 6.80029C3.7 6.90029 3.7 6.90029 3.7 7.00029C3.7 7.10029 3.8 7.10029 3.8 7.20029C3.8 7.30029 3.9 7.30029 3.9 7.30029C3.9 7.30029 4 7.40028 4.1 7.40028C4.2 7.40028 4.3 7.50029 4.3 7.50029C4.4 7.50029 4.5 7.6003 4.6 7.6003C4.7 7.6003 4.8 7.70029 4.9 7.70029C5 7.70029 5.1 7.80029 5.2 7.80029C5.3 7.80029 5.5 7.90028 5.5 7.90028C5.9 8.00028 6.2 8.20029 6.5 8.30029C6.8 8.40029 7 8.60028 7.3 8.90028C7.6 9.20028 7.8 9.40029 7.9 9.80029C8 10.1003 8.1 10.5003 8.1 11.0003C8.1 12.0003 7.7 12.8003 7 13.4003C6.3 14.0003 5.3 14.5003 4 14.5003Z" stroke="#CC622D" stroke-miterlimit="10"/>
<path d="M13.9996 14.5C12.7996 14.5 11.8996 14.2 11.2996 13.4C10.6996 12.7 10.3996 11.7 10.3996 10.5V6.7C10.3996 6.6 10.3996 6.60001 10.2996 6.60001H10.0996C9.79961 6.60001 9.59961 6.5 9.39961 6.3C9.19961 6.1 9.09961 5.90001 9.09961 5.60001V5.3C9.09961 5 9.19961 4.8 9.39961 4.5C9.59961 4.3 9.79961 4.20001 10.0996 4.10001H10.4996C10.5996 4.10001 10.5996 4 10.6996 4L10.8996 2.5C10.8996 2.2 11.0996 2 11.2996 1.8C11.4996 1.6 11.7996 1.5 12.0996 1.5H12.6996C12.9996 1.5 13.1996 1.6 13.3996 1.8C13.5996 2 13.6996 2.2 13.6996 2.5V4C13.6996 4.1 13.6996 4.10001 13.7996 4.10001H14.9996C15.2996 4.10001 15.4996 4.19999 15.6996 4.39999C15.8996 4.59999 15.9996 4.80001 15.9996 5.10001V5.5C15.9996 5.8 15.8996 6 15.6996 6.2C15.4996 6.4 15.2996 6.5 14.9996 6.5H13.7996C13.6996 6.5 13.6996 6.50001 13.6996 6.60001V10.3C13.6996 11.3 14.0996 11.8 14.8996 11.9C15.1996 11.9 15.3996 12 15.6996 12.1C15.8996 12.2 16.0996 12.4 16.0996 12.7L16.1996 13C16.1996 13.1 16.1996 13.2 16.1996 13.3C16.1996 13.5 16.0996 13.7 15.9996 13.8C15.7996 14.1 15.5996 14.2 15.3996 14.3C14.8996 14.5 14.4996 14.5 13.9996 14.5Z" stroke="#CC622D" stroke-miterlimit="10"/>
<path d="M22.2992 14.4999C20.7992 14.4999 19.5992 13.9999 18.5992 13.0999C17.5992 12.1999 17.1992 10.8999 17.1992 9.19991C17.1992 8.39991 17.2992 7.69991 17.5992 6.99991C17.8992 6.29991 18.1992 5.79991 18.6992 5.29991C19.0992 4.89991 19.6992 4.49991 20.1992 4.29991C20.7992 4.09991 21.3992 3.8999 21.9992 3.8999C23.3992 3.8999 24.4992 4.39991 25.1992 5.29991C25.8992 6.19991 26.2992 7.39991 26.2992 8.79991C26.2992 8.89991 26.2992 8.99991 26.2992 9.09991C26.2992 9.39991 26.1992 9.59991 25.8992 9.79991C25.6992 9.99991 25.3992 10.0999 25.0992 10.0999H20.2992H20.1992V10.1999C20.4992 11.3999 21.2992 11.9999 22.6992 11.9999C23.0992 11.9999 23.4992 11.8999 23.8992 11.7999C23.9992 11.7999 24.1992 11.6999 24.2992 11.6999C24.3992 11.6999 24.5992 11.6999 24.6992 11.7999C24.9992 11.8999 25.1992 11.9999 25.2992 12.2999L25.3992 12.3999C25.4992 12.5999 25.5992 12.6999 25.5992 12.8999C25.5992 12.9999 25.5992 13.0999 25.4992 13.1999C25.3992 13.4999 25.2992 13.6999 24.9992 13.7999C24.1992 14.2999 23.2992 14.4999 22.2992 14.4999ZM20.1992 7.99991C20.1992 8.09991 20.1992 8.09991 20.2992 8.09991H23.4992C23.5992 8.09991 23.5992 8.09991 23.5992 7.99991C23.5992 7.49991 23.3992 7.09991 23.1992 6.79991C22.8992 6.49991 22.4992 6.3999 21.9992 6.3999C21.4992 6.3999 21.1992 6.49991 20.7992 6.79991C20.3992 7.09991 20.1992 7.49991 20.1992 7.99991Z" stroke="#CC622D" stroke-miterlimit="10"/>
<path d="M29.4004 18C29.1004 18 28.9004 17.9 28.7004 17.7C28.5004 17.5 28.4004 17.3 28.4004 17V5.2C28.4004 4.9 28.5004 4.7 28.7004 4.5C28.9004 4.3 29.1004 4.2 29.4004 4.2H30.0004C30.3004 4.2 30.5004 4.3 30.7004 4.5C30.9004 4.7 31.0004 4.90001 31.1004 5.10001V5.2C31.1004 5.2 31.1004 5.2 31.2004 5.2C32.1004 4.4 33.1004 4 34.0004 4C35.2004 4 36.2004 4.49999 36.9004 5.39999C37.6004 6.29999 38.0004 7.60001 38.0004 9.10001C38.0004 9.90001 37.9004 10.7 37.6004 11.4C37.3004 12.1 37.0004 12.7 36.6004 13.1C36.2004 13.6 35.7004 13.9 35.2004 14.1C34.7004 14.3 34.2004 14.5 33.6004 14.5C32.8004 14.5 32.0004 14.2 31.3004 13.5C31.3004 13.5 31.3004 13.5 31.2004 13.5L31.3004 15V16.9C31.3004 17.2 31.2004 17.4 31.0004 17.6C30.8004 17.8 30.6004 17.9 30.3004 17.9H29.4004V18ZM33.0004 12C33.5004 12 33.9004 11.8 34.3004 11.3C34.6004 10.8 34.8004 10.1 34.8004 9.2C34.8004 8.3 34.7004 7.7 34.4004 7.2C34.1004 6.8 33.7004 6.60001 33.2004 6.60001C32.7004 6.60001 32.2004 6.8 31.7004 7.3C31.6004 7.4 31.6004 7.4 31.6004 7.5V11.3C31.6004 11.4 31.6004 11.5 31.7004 11.5C32.0004 11.8 32.5004 12 33.0004 12Z" stroke="#CC622D" stroke-miterlimit="10"/>
<path d="M41.7004 14.5C41.2004 14.5 40.7004 14.3 40.4004 13.9C40.1004 13.5 39.9004 13.1 39.9004 12.5C39.9004 11.9 40.1004 11.5 40.4004 11.1C40.7004 10.7 41.2004 10.5 41.7004 10.5C42.2004 10.5 42.7004 10.7 43.1004 11.1C43.5004 11.5 43.6004 11.9 43.6004 12.5C43.6004 13.1 43.4004 13.5 43.1004 13.9C42.8004 14.3 42.3004 14.5 41.7004 14.5Z" stroke="#CC622D" stroke-miterlimit="10"/>
<path d="M53.6996 12.7003C52.7996 13.9003 51.6996 14.5003 50.2996 14.5003C48.8996 14.5003 47.6996 13.9003 46.8996 12.7003C46.0996 11.5003 45.5996 9.8003 45.5996 7.6003C45.5996 5.4003 45.9996 3.70029 46.8996 2.50029C47.6996 1.30029 48.8996 0.800293 50.2996 0.800293C51.6996 0.800293 52.8996 1.40029 53.6996 2.50029C54.4996 3.60029 54.9996 5.30029 54.9996 7.50029C54.8996 9.80029 54.4996 11.5003 53.6996 12.7003ZM49.5996 11.9003C49.7996 12.0003 49.9996 12.1003 50.2996 12.1003C50.5996 12.1003 50.7996 12.0003 50.9996 11.9003C51.1996 11.8003 51.3996 11.5003 51.4996 11.2003C51.6996 10.9003 51.7996 10.4003 51.8996 9.80029C51.9996 9.20029 51.9996 8.5003 51.9996 7.6003C51.9996 6.7003 51.9996 6.00028 51.8996 5.40028C51.7996 4.80028 51.6996 4.4003 51.4996 4.1003C51.2996 3.8003 51.1996 3.60029 50.9996 3.50029C50.7996 3.40029 50.5996 3.30029 50.2996 3.30029C49.9996 3.30029 49.7996 3.40029 49.5996 3.50029C49.3996 3.60029 49.1996 3.8003 49.0996 4.1003C48.9996 4.4003 48.7996 4.80028 48.6996 5.40028C48.5996 6.00028 48.5996 6.7003 48.5996 7.6003C48.5996 8.5003 48.5996 9.20029 48.6996 9.80029C48.7996 10.4003 48.8996 10.9003 49.0996 11.2003C49.1996 11.5003 49.3996 11.7003 49.5996 11.9003Z" stroke="#CC622D" stroke-miterlimit="10"/>
<path d="M64.8 1.70009C65.1 1.90009 65.2 2.10009 65.2 2.40009C65.2 2.70009 65.1 2.9001 64.9 3.1001L64.6 3.40009C64.4 3.60009 64.2 3.70009 63.9 3.70009H63.8C63.6 3.70009 63.3 3.60009 63.1 3.50009C62.7 3.30009 62.3 3.20009 61.9 3.20009C60.3 3.20009 59.5 4.40009 59.3 6.90009C59.3 6.90009 59.3 6.90009 59.4 6.90009C59.7 6.50009 60.1 6.20009 60.6 6.00009C61.1 5.80009 61.5 5.70009 61.9 5.70009C63.1 5.70009 64 6.00009 64.7 6.70009C65.4 7.40009 65.8 8.40009 65.8 9.80009C65.8 11.2001 65.4 12.3001 64.5 13.1001C63.7 13.9001 62.6 14.3001 61.4 14.3001C60.8 14.3001 60.1 14.2001 59.6 13.9001C59 13.6001 58.5 13.2001 58 12.7001C57.5 12.2001 57.1 11.5001 56.9 10.6001C56.6 9.7001 56.5 8.70009 56.5 7.50009C56.5 6.30009 56.6 5.30009 56.9 4.40009C57.2 3.50009 57.6 2.80009 58.1 2.20009C58.6 1.70009 59.2 1.20009 59.8 1.00009C60.4 0.700092 61.1 0.600098 61.8 0.600098C62.9 0.800098 63.9 1.10009 64.8 1.70009ZM61.3 12.2001C61.7 12.2001 62.1 12.0001 62.4 11.7001C62.7 11.3001 62.8 10.8001 62.8 10.1001C62.8 8.8001 62.3 8.20009 61.2 8.20009C60.5 8.20009 59.9 8.60009 59.4 9.30009C59.4 9.40009 59.3 9.50009 59.3 9.50009C59.7 11.3001 60.3 12.2001 61.3 12.2001Z" stroke="#CC622D" stroke-miterlimit="10"/>
</svg>
