<svg width="67" height="19" viewBox="0 0 67 19" fill="none" xmlns="http://www.w3.org/2000/svg">
<path d="M4 14.7002C3 14.7002 2 14.4002 0.9 13.9002C0.7 13.8002 0.5 13.5002 0.5 13.3002C0.5 13.2002 0.5 13.2002 0.5 13.1002C0.5 12.9002 0.6 12.7002 0.7 12.5002L0.9 12.2002C1.1 12.0002 1.3 11.8002 1.6 11.8002C1.7 11.8002 1.7 11.8002 1.8 11.8002C2 11.8002 2.2 11.9002 2.4 12.0002C3 12.3002 3.6 12.5002 4.1 12.5002C4.9 12.5002 5.3 12.2002 5.3 11.7002C5.3 11.6002 5.3 11.5002 5.2 11.5002C5.1 11.5002 5.1 11.4002 5 11.3002C4.9 11.2002 4.8 11.2002 4.8 11.1002C4.7 11.0002 4.6 11.0002 4.5 10.9002C4.3 10.8002 4.2 10.8002 4.1 10.7002C4 10.7002 3.9 10.6002 3.7 10.5002C3.5 10.4002 3.4 10.4002 3.3 10.3002C3 10.2002 2.6 10.0002 2.4 9.9002C2.2 9.8002 1.8 9.6002 1.6 9.3002C1.4 9.0002 1.1 8.8002 1 8.5002C0.8 8.2002 0.8 7.8002 0.8 7.4002C0.8 6.4002 1.2 5.7002 1.9 5.1002C2.6 4.5002 3.6 4.2002 4.7 4.2002C5.7 4.2002 6.6 4.4002 7.5 4.9002C7.7 5.0002 7.9 5.2002 7.9 5.5002C7.9 5.6002 7.9 5.6002 7.9 5.7002C7.9 5.9002 7.8 6.1002 7.7 6.3002L7.5 6.5002C7.3 6.7002 7.1 6.9002 6.8 6.9002C6.7 6.9002 6.6 6.9002 6.6 6.9002C6.4 6.9002 6.2 6.9002 6 6.8002C5.6 6.6002 5.2 6.5002 4.8 6.5002C4.1 6.5002 3.7 6.7002 3.7 7.2002C3.7 7.3002 3.7 7.3002 3.7 7.4002C3.7 7.5002 3.8 7.5002 3.8 7.6002C3.8 7.7002 3.9 7.7002 3.9 7.7002C3.9 7.7002 4 7.8002 4.1 7.8002C4.2 7.8002 4.3 7.9002 4.3 7.9002C4.4 7.9002 4.5 8.0002 4.6 8.0002C4.7 8.0002 4.8 8.1002 4.9 8.1002C5 8.1002 5.1 8.2002 5.2 8.2002C5.3 8.2002 5.5 8.3002 5.5 8.3002C5.9 8.4002 6.2 8.6002 6.5 8.7002C6.8 8.8002 7 9.0002 7.3 9.3002C7.6 9.6002 7.8 9.8002 7.9 10.2002C8 10.5002 8.1 10.9002 8.1 11.4002C8.1 12.4002 7.7 13.2002 7 13.8002C6.3 14.4002 5.3 14.7002 4 14.7002Z" stroke="#CC622D" stroke-miterlimit="10"/>
<path d="M13.9996 14.7002C12.7996 14.7002 11.8996 14.4002 11.2996 13.6002C10.6996 12.9002 10.3996 11.9002 10.3996 10.7002V6.9002C10.3996 6.8002 10.3996 6.8002 10.2996 6.8002H10.0996C9.79961 6.8002 9.59961 6.7002 9.39961 6.5002C9.19961 6.3002 9.09961 6.1002 9.09961 5.8002V5.5002C9.09961 5.2002 9.19961 5.0002 9.39961 4.7002C9.59961 4.5002 9.79961 4.4002 10.0996 4.3002H10.4996C10.5996 4.3002 10.5996 4.2002 10.6996 4.2002L10.8996 2.7002C10.8996 2.4002 11.0996 2.2002 11.2996 2.0002C11.4996 1.8002 11.7996 1.7002 12.0996 1.7002H12.6996C12.9996 1.7002 13.1996 1.8002 13.3996 2.0002C13.5996 2.2002 13.6996 2.4002 13.6996 2.7002V4.2002C13.6996 4.3002 13.6996 4.3002 13.7996 4.3002H14.9996C15.2996 4.3002 15.4996 4.4002 15.6996 4.6002C15.8996 4.8002 15.9996 5.0002 15.9996 5.3002V5.7002C15.9996 6.0002 15.8996 6.2002 15.6996 6.4002C15.4996 6.6002 15.2996 6.7002 14.9996 6.7002H13.7996C13.6996 6.7002 13.6996 6.7002 13.6996 6.8002V10.5002C13.6996 11.5002 14.0996 12.0002 14.8996 12.1002C15.1996 12.1002 15.3996 12.2002 15.6996 12.3002C15.8996 12.4002 16.0996 12.6002 16.0996 12.9002L16.1996 13.2002C16.1996 13.3002 16.1996 13.4002 16.1996 13.5002C16.1996 13.7002 16.0996 13.9002 15.9996 14.0002C15.7996 14.3002 15.5996 14.4002 15.3996 14.5002C14.8996 14.6002 14.4996 14.7002 13.9996 14.7002Z" stroke="#CC622D" stroke-miterlimit="10"/>
<path d="M22.2992 14.7001C20.7992 14.7001 19.5992 14.2001 18.5992 13.3001C17.5992 12.4001 17.1992 11.1001 17.1992 9.4001C17.1992 8.6001 17.2992 7.9001 17.5992 7.2001C17.8992 6.5001 18.1992 6.0001 18.6992 5.5001C19.0992 5.1001 19.6992 4.7001 20.1992 4.5001C20.7992 4.3001 21.3992 4.1001 21.9992 4.1001C23.3992 4.1001 24.4992 4.6001 25.1992 5.5001C25.8992 6.4001 26.2992 7.6001 26.2992 9.0001C26.2992 9.1001 26.2992 9.2001 26.2992 9.3001C26.2992 9.6001 26.1992 9.8001 25.8992 10.0001C25.6992 10.2001 25.3992 10.3001 25.0992 10.3001H20.2992H20.1992V10.4001C20.4992 11.6001 21.2992 12.2001 22.6992 12.2001C23.0992 12.2001 23.4992 12.1001 23.8992 12.0001C23.9992 12.0001 24.1992 11.9001 24.2992 11.9001C24.3992 11.9001 24.5992 11.9001 24.6992 12.0001C24.9992 12.1001 25.1992 12.2001 25.2992 12.5001L25.3992 12.6001C25.4992 12.8001 25.5992 12.9001 25.5992 13.1001C25.5992 13.2001 25.5992 13.3001 25.4992 13.4001C25.3992 13.7001 25.2992 13.9001 24.9992 14.0001C24.1992 14.4001 23.2992 14.7001 22.2992 14.7001ZM20.1992 8.1001C20.1992 8.2001 20.1992 8.2001 20.2992 8.2001H23.4992C23.5992 8.2001 23.5992 8.2001 23.5992 8.1001C23.5992 7.6001 23.3992 7.2001 23.1992 6.9001C22.8992 6.6001 22.4992 6.5001 21.9992 6.5001C21.4992 6.5001 21.1992 6.6001 20.7992 6.9001C20.3992 7.2001 20.1992 7.7001 20.1992 8.1001Z" stroke="#CC622D" stroke-miterlimit="10"/>
<path d="M29.4004 18.1001C29.1004 18.1001 28.9004 18.0001 28.7004 17.8001C28.5004 17.6001 28.4004 17.4001 28.4004 17.1001V5.3001C28.4004 5.0001 28.5004 4.8001 28.7004 4.6001C28.9004 4.4001 29.1004 4.3001 29.4004 4.3001H30.0004C30.3004 4.3001 30.5004 4.4001 30.7004 4.6001C30.9004 4.8001 31.0004 5.0001 31.1004 5.2001V5.3001C31.1004 5.3001 31.1004 5.3001 31.2004 5.3001C32.1004 4.5001 33.1004 4.1001 34.0004 4.1001C35.2004 4.1001 36.2004 4.6001 36.9004 5.5001C37.6004 6.4001 38.0004 7.7001 38.0004 9.2001C38.0004 10.0001 37.9004 10.8001 37.6004 11.5001C37.3004 12.2001 37.0004 12.8001 36.6004 13.2001C36.2004 13.7001 35.7004 14.0001 35.2004 14.2001C34.7004 14.4001 34.2004 14.6001 33.6004 14.6001C32.8004 14.6001 32.0004 14.3001 31.3004 13.6001C31.3004 13.6001 31.3004 13.6001 31.2004 13.6001L31.3004 15.1001V17.0001C31.3004 17.3001 31.2004 17.5001 31.0004 17.7001C30.8004 17.9001 30.6004 18.0001 30.3004 18.0001H29.4004V18.1001ZM33.0004 12.1001C33.5004 12.1001 33.9004 11.9001 34.3004 11.4001C34.6004 10.9001 34.8004 10.2001 34.8004 9.3001C34.8004 8.4001 34.7004 7.8001 34.4004 7.3001C34.1004 6.9001 33.7004 6.7001 33.2004 6.7001C32.7004 6.7001 32.2004 6.9001 31.7004 7.4001C31.6004 7.5001 31.6004 7.5001 31.6004 7.6001V11.4001C31.6004 11.5001 31.6004 11.6001 31.7004 11.6001C32.0004 11.9001 32.5004 12.1001 33.0004 12.1001Z" stroke="#CC622D" stroke-miterlimit="10"/>
<path d="M41.7004 14.7002C41.2004 14.7002 40.7004 14.5002 40.4004 14.1002C40.1004 13.7002 39.9004 13.3002 39.9004 12.7002C39.9004 12.1002 40.1004 11.7002 40.4004 11.3002C40.7004 10.9002 41.2004 10.7002 41.7004 10.7002C42.2004 10.7002 42.7004 10.9002 43.1004 11.3002C43.5004 11.7002 43.6004 12.1002 43.6004 12.7002C43.6004 13.3002 43.4004 13.7002 43.1004 14.1002C42.8004 14.5002 42.3004 14.7002 41.7004 14.7002Z" stroke="#CC622D" stroke-miterlimit="10"/>
<path d="M53.6996 12.9C52.7996 14.1 51.6996 14.7 50.2996 14.7C48.8996 14.7 47.6996 14.1 46.8996 12.9C46.0996 11.7 45.5996 10 45.5996 7.8C45.5996 5.6 45.9996 3.9 46.8996 2.7C47.6996 1.5 48.8996 1 50.2996 1C51.6996 1 52.8996 1.6 53.6996 2.7C54.4996 3.8 54.9996 5.5 54.9996 7.7C54.8996 9.9 54.4996 11.7 53.6996 12.9ZM49.5996 12C49.7996 12.1 49.9996 12.2 50.2996 12.2C50.5996 12.2 50.7996 12.1 50.9996 12C51.1996 11.9 51.3996 11.6 51.4996 11.3C51.6996 11 51.7996 10.5 51.8996 9.9C51.9996 9.3 51.9996 8.6 51.9996 7.7C51.9996 6.8 51.9996 6.1 51.8996 5.5C51.7996 4.9 51.6996 4.5 51.4996 4.2C51.2996 3.9 51.1996 3.7 50.9996 3.6C50.7996 3.5 50.5996 3.4 50.2996 3.4C49.9996 3.4 49.7996 3.5 49.5996 3.6C49.3996 3.7 49.1996 3.9 49.0996 4.2C48.9996 4.5 48.7996 4.9 48.6996 5.5C48.5996 6.1 48.5996 6.8 48.5996 7.7C48.5996 8.6 48.5996 9.3 48.6996 9.9C48.7996 10.5 48.8996 11 49.0996 11.3C49.1996 11.6 49.3996 11.9 49.5996 12Z" stroke="#CC622D" stroke-miterlimit="10"/>
<path d="M64.9992 8.7002C65.2992 8.7002 65.4992 8.8002 65.6992 9.0002C65.8992 9.2002 65.9992 9.4002 65.9992 9.7002V10.1002C65.9992 10.4002 65.8992 10.6002 65.6992 10.8002C65.4992 11.0002 65.2992 11.1002 64.9992 11.1002H64.6992C64.5992 11.1002 64.5992 11.1002 64.5992 11.2002V13.4002C64.5992 13.7002 64.4992 13.9002 64.2992 14.1002C64.0992 14.3002 63.8992 14.4002 63.5992 14.4002H62.6992C62.3992 14.4002 62.1992 14.3002 61.9992 14.1002C61.7992 13.9002 61.6992 13.7002 61.6992 13.4002V11.2002C61.6992 11.1002 61.6992 11.1002 61.5992 11.1002H57.1992C56.8992 11.1002 56.6992 11.0002 56.4992 10.8002C56.2992 10.6002 56.1992 10.4002 56.1992 10.1002V10.0002C56.1992 9.3002 56.3992 8.7002 56.6992 8.1002L60.2992 2.1002C60.4992 1.8002 60.6992 1.6002 60.9992 1.4002C61.2992 1.2002 61.5992 1.2002 61.8992 1.2002H63.6992C63.9992 1.2002 64.1992 1.3002 64.3992 1.5002C64.5992 1.7002 64.6992 1.9002 64.6992 2.2002V8.6002C64.6992 8.7002 64.6992 8.7002 64.7992 8.7002H64.9992ZM59.0992 8.6002C59.0992 8.7002 59.0992 8.7002 59.1992 8.7002H61.4992C61.5992 8.7002 61.5992 8.7002 61.5992 8.6002V6.8002C61.5992 6.7002 61.5992 5.8002 61.6992 3.9002C61.6992 3.9002 61.6992 3.9002 61.5992 3.9002C61.1992 4.8002 60.8992 5.5002 60.5992 6.1002L59.0992 8.6002Z" stroke="#CC622D" stroke-miterlimit="10"/>
</svg>
