<svg width="66" height="19" viewBox="0 0 66 19" fill="none" xmlns="http://www.w3.org/2000/svg">
<path d="M4 14.3002C3 14.3002 2 14.0002 0.9 13.5002C0.7 13.4002 0.5 13.1002 0.5 12.9002C0.5 12.8002 0.5 12.8002 0.5 12.7002C0.5 12.5002 0.6 12.3002 0.7 12.1002L0.9 11.8002C1.1 11.6002 1.3 11.4002 1.6 11.4002C1.7 11.4002 1.7 11.4002 1.8 11.4002C2 11.4002 2.2 11.5002 2.4 11.6002C3 11.9002 3.6 12.1002 4.1 12.1002C4.9 12.1002 5.3 11.8002 5.3 11.3002C5.3 11.2002 5.3 11.1002 5.2 11.1002C5.1 11.1002 5.1 11.0002 5 10.9002C4.9 10.8002 4.8 10.8002 4.8 10.7002C4.7 10.6002 4.6 10.6002 4.5 10.5002C4.3 10.4002 4.2 10.4002 4.1 10.3002C4 10.3002 3.9 10.2002 3.7 10.1002C3.5 10.0002 3.4 10.0002 3.3 9.90018C3 9.80018 2.6 9.60018 2.4 9.50018C2.2 9.40018 1.8 9.20018 1.6 8.90018C1.4 8.60018 1 8.40018 0.9 8.00018C0.7 7.70018 0.7 7.30018 0.7 6.90018C0.7 5.90018 1.1 5.20019 1.8 4.60019C2.5 4.00019 3.5 3.7002 4.6 3.7002C5.6 3.7002 6.5 3.90018 7.4 4.40018C7.6 4.50018 7.8 4.70018 7.8 5.00018C7.8 5.10018 7.8 5.1002 7.8 5.2002C7.8 5.4002 7.7 5.60017 7.6 5.80017L7.4 6.00018C7.2 6.20018 7 6.40018 6.7 6.40018C6.6 6.40018 6.5 6.40018 6.5 6.40018C6.3 6.40018 6.1 6.40017 5.9 6.30017C5.5 6.10017 5.1 6.00018 4.7 6.00018C4 6.00018 3.6 6.2002 3.6 6.7002C3.6 6.8002 3.6 6.80018 3.6 6.90018C3.6 7.00018 3.7 7.00019 3.7 7.10019C3.7 7.20019 3.8 7.2002 3.8 7.2002C3.8 7.2002 3.9 7.30017 4 7.30017C4.1 7.30017 4.2 7.40018 4.2 7.40018C4.3 7.40018 4.4 7.50018 4.5 7.50018C4.6 7.50018 4.7 7.60019 4.8 7.60019C4.9 7.60019 5 7.7002 5.1 7.7002C5.2 7.7002 5.4 7.80017 5.4 7.80017C5.8 7.90017 6.1 8.1002 6.4 8.2002C6.7 8.3002 6.9 8.50017 7.2 8.80017C7.5 9.10017 7.7 9.3002 7.8 9.7002C7.9 10.0002 8 10.4002 8 10.9002C8 11.9002 7.6 12.7002 6.9 13.3002C6.2 13.9002 5.3 14.3002 4 14.3002Z" stroke="#CC622D" stroke-miterlimit="10"/>
<path d="M13.9996 14.2998C12.7996 14.2998 11.8996 13.9998 11.2996 13.1998C10.6996 12.4998 10.3996 11.4998 10.3996 10.2998V6.49982C10.3996 6.39982 10.3996 6.39981 10.2996 6.39981H10.0996C9.79961 6.39981 9.59961 6.29982 9.39961 6.09982C9.19961 5.89982 9.09961 5.69981 9.09961 5.39981V5.09982C9.09961 4.79982 9.19961 4.5998 9.39961 4.2998C9.59961 4.0998 9.79961 3.99981 10.0996 3.89981H10.4996C10.5996 3.89981 10.5996 3.7998 10.6996 3.7998L10.8996 2.2998C10.8996 1.9998 11.0996 1.79982 11.2996 1.59982C11.4996 1.39982 11.7996 1.2998 12.0996 1.2998H12.6996C12.9996 1.2998 13.1996 1.39982 13.3996 1.59982C13.5996 1.79982 13.6996 1.9998 13.6996 2.2998V3.7998C13.6996 3.8998 13.6996 3.89981 13.7996 3.89981H14.9996C15.2996 3.89981 15.4996 3.99983 15.6996 4.19983C15.8996 4.39983 15.9996 4.59981 15.9996 4.89981V5.2998C15.9996 5.5998 15.8996 5.79982 15.6996 5.99982C15.4996 6.19982 15.2996 6.2998 14.9996 6.2998H13.7996C13.6996 6.2998 13.6996 6.29981 13.6996 6.39981V10.0998C13.6996 11.0998 14.0996 11.5998 14.8996 11.6998C15.1996 11.6998 15.3996 11.7998 15.6996 11.8998C15.8996 11.9998 16.0996 12.1998 16.0996 12.4998L16.1996 12.7998C16.1996 12.8998 16.1996 12.9998 16.1996 13.0998C16.1996 13.2998 16.0996 13.4998 15.9996 13.5998C15.7996 13.8998 15.5996 13.9998 15.3996 14.0998C14.8996 14.2998 14.4996 14.2998 13.9996 14.2998Z" stroke="#CC622D" stroke-miterlimit="10"/>
<path d="M22.2992 14.3002C20.7992 14.3002 19.5992 13.8002 18.5992 12.9002C17.5992 12.0002 17.1992 10.7002 17.1992 9.00018C17.1992 8.20018 17.2992 7.50017 17.5992 6.80017C17.8992 6.10017 18.1992 5.60019 18.6992 5.10019C19.0992 4.70019 19.6992 4.30019 20.1992 4.10019C20.7992 3.90019 21.3992 3.7002 21.9992 3.7002C23.3992 3.7002 24.4992 4.20019 25.1992 5.10019C25.8992 6.00019 26.2992 7.20019 26.2992 8.60019C26.2992 8.70019 26.2992 8.80018 26.2992 8.90018C26.2992 9.20018 26.1992 9.40019 25.8992 9.60019C25.6992 9.80019 25.3992 9.90018 25.0992 9.90018H20.2992H20.1992V10.0002C20.4992 11.2002 21.2992 11.8002 22.6992 11.8002C23.0992 11.8002 23.4992 11.7002 23.8992 11.6002C23.9992 11.6002 24.1992 11.5002 24.2992 11.5002C24.3992 11.5002 24.5992 11.5002 24.6992 11.6002C24.9992 11.7002 25.1992 11.8002 25.2992 12.1002L25.3992 12.2002C25.4992 12.4002 25.5992 12.5002 25.5992 12.7002C25.5992 12.8002 25.5992 12.9002 25.4992 13.0002C25.3992 13.3002 25.2992 13.5002 24.9992 13.6002C24.1992 14.1002 23.2992 14.3002 22.2992 14.3002ZM20.1992 7.80017C20.1992 7.90017 20.1992 7.90018 20.2992 7.90018H23.4992C23.5992 7.90018 23.5992 7.90017 23.5992 7.80017C23.5992 7.30017 23.3992 6.90019 23.1992 6.60019C22.8992 6.30019 22.4992 6.2002 21.9992 6.2002C21.4992 6.2002 21.1992 6.30019 20.7992 6.60019C20.3992 6.90019 20.1992 7.30017 20.1992 7.80017Z" stroke="#CC622D" stroke-miterlimit="10"/>
<path d="M29.4004 17.7998C29.1004 17.7998 28.9004 17.6998 28.7004 17.4998C28.5004 17.2998 28.4004 17.0998 28.4004 16.7998V4.99982C28.4004 4.69982 28.5004 4.4998 28.7004 4.2998C28.9004 4.0998 29.1004 3.99982 29.4004 3.99982H30.0004C30.3004 3.99982 30.5004 4.0998 30.7004 4.2998C30.9004 4.4998 31.0004 4.69981 31.1004 4.89981V4.99982C31.1004 4.99982 31.1004 4.99982 31.2004 4.99982C32.1004 4.19982 33.1004 3.7998 34.0004 3.7998C35.2004 3.7998 36.2004 4.29983 36.9004 5.19983C37.6004 6.09983 38.0004 7.39981 38.0004 8.89981C38.0004 9.69981 37.9004 10.4998 37.6004 11.1998C37.3004 11.8998 37.0004 12.4998 36.6004 12.8998C36.2004 13.3998 35.7004 13.6998 35.2004 13.8998C34.7004 14.0998 34.2004 14.2998 33.6004 14.2998C32.8004 14.2998 32.0004 13.9998 31.3004 13.2998C31.3004 13.2998 31.3004 13.2998 31.2004 13.2998L31.3004 14.7998V16.6998C31.3004 16.9998 31.2004 17.1998 31.0004 17.3998C30.8004 17.5998 30.6004 17.6998 30.3004 17.6998H29.4004V17.7998ZM33.0004 11.7998C33.5004 11.7998 33.9004 11.5998 34.3004 11.0998C34.6004 10.5998 34.8004 9.89982 34.8004 8.99982C34.8004 8.09982 34.7004 7.49982 34.4004 6.99982C34.1004 6.59982 33.7004 6.39981 33.2004 6.39981C32.7004 6.39981 32.2004 6.59982 31.7004 7.09982C31.6004 7.19982 31.6004 7.1998 31.6004 7.2998V11.0998C31.6004 11.1998 31.6004 11.2998 31.7004 11.2998C32.0004 11.5998 32.5004 11.7998 33.0004 11.7998Z" stroke="#CC622D" stroke-miterlimit="10"/>
<path d="M41.7004 14.2998C41.2004 14.2998 40.7004 14.0998 40.4004 13.6998C40.1004 13.2998 39.9004 12.8998 39.9004 12.2998C39.9004 11.6998 40.1004 11.2998 40.4004 10.8998C40.7004 10.4998 41.2004 10.2998 41.7004 10.2998C42.2004 10.2998 42.7004 10.4998 43.1004 10.8998C43.5004 11.2998 43.6004 11.6998 43.6004 12.2998C43.6004 12.8998 43.4004 13.2998 43.1004 13.6998C42.8004 14.0998 42.3004 14.2998 41.7004 14.2998Z" stroke="#CC622D" stroke-miterlimit="10"/>
<path d="M47.1992 14.1C46.8992 14.1 46.6992 14 46.4992 13.8C46.2992 13.6 46.1992 13.4 46.1992 13.1V12.6C46.1992 12.3 46.2992 12.1 46.4992 11.9C46.6992 11.7 46.8992 11.6 47.1992 11.6H48.7992C48.8992 11.6 48.8992 11.6 48.8992 11.5V4.20001C48.8992 4.10001 48.8992 4.10001 48.7992 4.10001H47.4992C47.1992 4.10001 46.9992 3.99999 46.7992 3.79999C46.5992 3.59999 46.4992 3.40001 46.4992 3.10001C46.4992 2.80001 46.5992 2.59999 46.7992 2.39999C46.9992 2.19999 47.1992 2 47.4992 2C47.9992 1.9 48.4992 1.7 48.8992 1.5C49.5992 1.2 50.1992 1 50.7992 1H51.0992C51.3992 1 51.5992 1.09999 51.7992 1.29999C51.9992 1.49999 52.0992 1.7 52.0992 2V11.5C52.0992 11.6 52.0992 11.6 52.1992 11.6H53.3992C53.6992 11.6 53.8992 11.7 54.0992 11.9C54.2992 12.1 54.3992 12.3 54.3992 12.6V13.1C54.3992 13.4 54.2992 13.6 54.0992 13.8C53.8992 14 53.6992 14.1 53.3992 14.1H47.1992Z" stroke="#CC622D" stroke-miterlimit="10"/>
<path d="M58.0996 14.1C57.7996 14.1 57.5996 14 57.3996 13.8C57.1996 13.6 57.0996 13.4 57.0996 13.1V12.6C57.0996 12.3 57.1996 12.1 57.3996 11.9C57.5996 11.7 57.7996 11.6 58.0996 11.6H59.6996C59.7996 11.6 59.7996 11.6 59.7996 11.5V4.20001C59.7996 4.10001 59.7996 4.10001 59.6996 4.10001H58.3996C58.0996 4.10001 57.8996 3.99999 57.6996 3.79999C57.4996 3.59999 57.3996 3.40001 57.3996 3.10001C57.3996 2.80001 57.4996 2.59999 57.6996 2.39999C57.8996 2.19999 58.0996 2 58.3996 2C58.8996 1.9 59.3996 1.7 59.7996 1.5C60.4996 1.2 61.0996 1 61.6996 1H61.9996C62.2996 1 62.4996 1.09999 62.6996 1.29999C62.8996 1.49999 62.9996 1.7 62.9996 2V11.5C62.9996 11.6 62.9996 11.6 63.0996 11.6H64.2996C64.5996 11.6 64.7996 11.7 64.9996 11.9C65.1996 12.1 65.2996 12.3 65.2996 12.6V13.1C65.2996 13.4 65.1996 13.6 64.9996 13.8C64.7996 14 64.5996 14.1 64.2996 14.1H58.0996Z" stroke="#CC622D" stroke-miterlimit="10"/>
</svg>
