<svg width="211" height="19" viewBox="0 0 211 19" fill="none" xmlns="http://www.w3.org/2000/svg">
<path d="M4.40039 14.8999C3.40039 14.8999 2.4004 14.5999 1.3004 14.0999C1.1004 13.9999 0.900391 13.6999 0.900391 13.4999C0.900391 13.3999 0.900391 13.3999 0.900391 13.2999C0.900391 13.0999 1.0004 12.8999 1.1004 12.6999L1.3004 12.3999C1.5004 12.1999 1.7004 11.9999 2.0004 11.9999C2.1004 11.9999 2.10039 11.9999 2.20039 11.9999C2.40039 11.9999 2.6004 12.0999 2.8004 12.1999C3.4004 12.4999 4.0004 12.6999 4.5004 12.6999C5.3004 12.6999 5.70039 12.3999 5.70039 11.8999C5.70039 11.7999 5.7004 11.6999 5.6004 11.6999C5.5004 11.6999 5.50039 11.5999 5.40039 11.4999C5.30039 11.3999 5.20039 11.3999 5.20039 11.2999C5.10039 11.1999 5.00039 11.1999 4.90039 11.0999C4.70039 10.9999 4.6004 10.9999 4.5004 10.8999C4.4004 10.8999 4.3004 10.7999 4.1004 10.6999C3.9004 10.5999 3.80039 10.5999 3.70039 10.4999C3.40039 10.3999 3.0004 10.1999 2.8004 10.0999C2.6004 9.99991 2.2004 9.79991 2.0004 9.49991C1.8004 9.19991 1.50039 8.99991 1.40039 8.69991C1.20039 8.39991 1.20039 7.99991 1.20039 7.59991C1.20039 6.59991 1.6004 5.89991 2.3004 5.29991C3.0004 4.69991 4.0004 4.3999 5.1004 4.3999C6.1004 4.3999 7.00039 4.59991 7.90039 5.09991C8.10039 5.19991 8.3004 5.39991 8.3004 5.69991C8.3004 5.79991 8.3004 5.7999 8.3004 5.8999C8.3004 6.0999 8.2004 6.29991 8.1004 6.49991L7.90039 6.69991C7.70039 6.89991 7.50039 7.09991 7.20039 7.09991C7.10039 7.09991 7.0004 7.09991 7.0004 7.09991C6.8004 7.09991 6.60039 7.09991 6.40039 6.99991C6.00039 6.79991 5.60039 6.69991 5.20039 6.69991C4.50039 6.69991 4.1004 6.8999 4.1004 7.3999C4.1004 7.4999 4.1004 7.49991 4.1004 7.59991C4.1004 7.69991 4.20039 7.69991 4.20039 7.79991C4.20039 7.89991 4.3004 7.8999 4.3004 7.8999C4.3004 7.8999 4.4004 7.99991 4.5004 7.99991C4.6004 7.99991 4.70039 8.09991 4.70039 8.09991C4.80039 8.09991 4.9004 8.19991 5.0004 8.19991C5.1004 8.19991 5.2004 8.29991 5.3004 8.29991C5.4004 8.29991 5.5004 8.3999 5.6004 8.3999C5.7004 8.3999 5.90039 8.49991 5.90039 8.49991C6.30039 8.59991 6.60039 8.7999 6.90039 8.8999C7.20039 8.9999 7.40039 9.19991 7.70039 9.49991C8.00039 9.79991 8.2004 9.9999 8.3004 10.3999C8.4004 10.6999 8.5004 11.0999 8.5004 11.5999C8.5004 12.5999 8.10039 13.3999 7.40039 13.9999C6.70039 14.5999 5.70039 14.8999 4.40039 14.8999Z" stroke="black" stroke-width="0.5983"/>
<path d="M14.4 14.8999C13.2 14.8999 12.3 14.5999 11.7 13.7999C11.1 13.0999 10.8 12.0999 10.8 10.8999V7.09991C10.8 6.99991 10.8 6.99991 10.7 6.99991H10.5C10.2 6.99991 10 6.89991 9.8 6.69991C9.6 6.49991 9.5 6.29991 9.5 5.99991V5.69991C9.5 5.39991 9.6 5.1999 9.8 4.8999C10 4.6999 10.2 4.59991 10.5 4.49991H10.9C11 4.49991 11 4.3999 11.1 4.3999L11.3 2.8999C11.3 2.5999 11.5 2.39991 11.7 2.19991C11.9 1.99991 12.2 1.8999 12.5 1.8999H13.1C13.4 1.8999 13.6 1.99991 13.8 2.19991C14 2.39991 14.1 2.5999 14.1 2.8999V4.3999C14.1 4.4999 14.1 4.49991 14.2 4.49991H15.4C15.7 4.49991 15.9 4.59991 16.1 4.79991C16.3 4.99991 16.4 5.19991 16.4 5.49991V5.8999C16.4 6.1999 16.3 6.39991 16.1 6.59991C15.9 6.79991 15.7 6.8999 15.4 6.8999H14.2C14.1 6.8999 14.1 6.89991 14.1 6.99991V10.6999C14.1 11.6999 14.5 12.1999 15.3 12.2999C15.6 12.2999 15.8 12.3999 16.1 12.4999C16.3 12.5999 16.5 12.7999 16.5 13.0999L16.6 13.3999C16.6 13.4999 16.6 13.5999 16.6 13.6999C16.6 13.8999 16.5 14.0999 16.4 14.1999C16.2 14.4999 16 14.5999 15.8 14.6999C15.3 14.7999 14.8 14.8999 14.4 14.8999Z" stroke="black" stroke-width="0.5983"/>
<path d="M22.7006 14.9C21.2006 14.9 20.0006 14.4 19.0006 13.5C18.0006 12.6 17.6006 11.3001 17.6006 9.60005C17.6006 8.80005 17.7006 8.10004 18.0006 7.40004C18.3006 6.70004 18.6006 6.20004 19.1006 5.70004C19.5006 5.30004 20.1006 4.90004 20.6006 4.70004C21.2006 4.50004 21.8006 4.30005 22.4006 4.30005C23.8006 4.30005 24.9006 4.80004 25.6006 5.70004C26.3006 6.60004 26.7006 7.80004 26.7006 9.20004C26.7006 9.30004 26.7006 9.40005 26.7006 9.50005C26.7006 9.80005 26.6006 10 26.3006 10.2C26.1006 10.4 25.8006 10.5 25.5006 10.5H20.7006H20.6006V10.6001C20.9006 11.8001 21.7006 12.4 23.1006 12.4C23.5006 12.4 23.9006 12.3 24.3006 12.2C24.4006 12.2 24.6006 12.1001 24.7006 12.1001C24.8006 12.1001 25.0006 12.1 25.1006 12.2C25.4006 12.3 25.6006 12.4 25.7006 12.7L25.8006 12.8C25.9006 13 26.0006 13.1 26.0006 13.3C26.0006 13.4 26.0006 13.5001 25.9006 13.6001C25.8006 13.9001 25.7006 14.1 25.4006 14.2C24.6006 14.7 23.6006 14.9 22.7006 14.9ZM20.6006 8.40004C20.6006 8.50004 20.6006 8.50005 20.7006 8.50005H23.9006C24.0006 8.50005 24.0006 8.50004 24.0006 8.40004C24.0006 7.90004 23.8006 7.50004 23.6006 7.20004C23.3006 6.90004 22.9006 6.80005 22.4006 6.80005C21.9006 6.80005 21.6006 6.90004 21.2006 7.20004C20.8006 7.50004 20.6006 7.90004 20.6006 8.40004Z" stroke="black" stroke-width="0.5983"/>
<path d="M29.8008 18.3C29.5008 18.3 29.3008 18.2 29.1008 18C28.9008 17.8 28.8008 17.6 28.8008 17.3V5.50005C28.8008 5.20005 28.9008 5.00005 29.1008 4.80005C29.3008 4.60005 29.5008 4.50005 29.8008 4.50005H30.5008C30.8008 4.50005 31.0008 4.60005 31.2008 4.80005C31.4008 5.00005 31.5008 5.20004 31.6008 5.40004V5.50005C31.6008 5.50005 31.6008 5.50005 31.7008 5.50005C32.6008 4.70005 33.6008 4.30005 34.5008 4.30005C35.7008 4.30005 36.7008 4.80004 37.4008 5.70004C38.1008 6.60004 38.5008 7.90004 38.5008 9.40004C38.5008 10.2 38.4008 11 38.1008 11.7C37.8008 12.4 37.5008 13 37.1008 13.4C36.7008 13.9 36.2008 14.2 35.7008 14.4C35.2008 14.6 34.7008 14.8 34.1008 14.8C33.3008 14.8 32.5008 14.5 31.8008 13.8C31.8008 13.8 31.8008 13.8 31.7008 13.8L31.8008 15.3V17.2C31.8008 17.5 31.7008 17.7 31.5008 17.9C31.3008 18.1 31.1008 18.2 30.8008 18.2H29.8008V18.3ZM33.4008 12.3C33.9008 12.3 34.3008 12.1001 34.7008 11.6001C35.0008 11.1001 35.2008 10.4 35.2008 9.50005C35.2008 8.60005 35.1008 8.00005 34.8008 7.50005C34.5008 7.10005 34.1008 6.90004 33.6008 6.90004C33.1008 6.90004 32.6008 7.10005 32.1008 7.60005C32.0008 7.70005 32.0008 7.70005 32.0008 7.80005V11.6001C32.0008 11.7001 32.0008 11.8 32.1008 11.8C32.4008 12.2 32.9008 12.3 33.4008 12.3Z" stroke="black" stroke-width="0.5983"/>
<path d="M42.1008 14.8999C41.6008 14.8999 41.1008 14.6999 40.8008 14.2999C40.5008 13.8999 40.3008 13.4999 40.3008 12.8999C40.3008 12.2999 40.5008 11.8999 40.8008 11.4999C41.1008 11.0999 41.6008 10.8999 42.1008 10.8999C42.6008 10.8999 43.1008 11.0999 43.5008 11.4999C43.9008 11.8999 44.0008 12.2999 44.0008 12.8999C44.0008 13.4999 43.8008 13.8999 43.5008 14.2999C43.2008 14.6999 42.6008 14.8999 42.1008 14.8999Z" stroke="black" stroke-width="0.5983"/>
<path d="M54.0004 13.1C53.1004 14.3 52.0004 14.8999 50.6004 14.8999C49.2004 14.8999 48.0004 14.3 47.2004 13.1C46.4004 11.9 45.9004 10.2 45.9004 7.99995C45.9004 5.79995 46.3004 4.09995 47.2004 2.89995C48.0004 1.69995 49.2004 1.19995 50.6004 1.19995C52.0004 1.19995 53.2004 1.79995 54.0004 2.89995C54.8004 3.99995 55.3004 5.69995 55.3004 7.89995C55.3004 10.1999 54.9004 11.9 54.0004 13.1ZM49.9004 12.2C50.1004 12.3 50.3004 12.3999 50.6004 12.3999C50.9004 12.3999 51.1004 12.3 51.3004 12.2C51.5004 12.1 51.7004 11.8 51.8004 11.5C52.0004 11.2 52.1004 10.7 52.2004 10.1C52.3004 9.49996 52.3004 8.79995 52.3004 7.89995C52.3004 6.99995 52.3004 6.29995 52.2004 5.69995C52.1004 5.09995 52.0004 4.69995 51.8004 4.39995C51.6004 4.09995 51.5004 3.89996 51.3004 3.79996C51.1004 3.69996 50.9004 3.59996 50.6004 3.59996C50.3004 3.59996 50.1004 3.69996 49.9004 3.79996C49.7004 3.89996 49.5004 4.09995 49.4004 4.39995C49.3004 4.69995 49.1004 5.09995 49.0004 5.69995C48.9004 6.29995 48.9004 6.99995 48.9004 7.89995C48.9004 8.79995 48.9004 9.49996 49.0004 10.1C49.1004 10.7 49.2004 11.2 49.4004 11.5C49.6004 11.9 49.7004 12.1 49.9004 12.2Z" stroke="black" stroke-width="0.5983"/>
<path d="M65.2004 2.10001C65.5004 2.30001 65.6004 2.5 65.6004 2.8C65.6004 3.1 65.5004 3.3 65.3004 3.5L65.0004 3.8C64.8004 4 64.6004 4.10001 64.3004 4.10001H64.2004C64.0004 4.10001 63.7004 3.99999 63.5004 3.89999C63.1004 3.69999 62.7004 3.60001 62.3004 3.60001C60.7004 3.60001 59.9004 4.8 59.7004 7.3C59.7004 7.3 59.7004 7.3 59.8004 7.3C60.1004 6.9 60.5004 6.59999 61.0004 6.39999C61.5004 6.19999 61.9004 6.10001 62.3004 6.10001C63.5004 6.10001 64.4004 6.40001 65.1004 7.10001C65.8004 7.80001 66.2004 8.8 66.2004 10.2C66.2004 11.6 65.8004 12.7 64.9004 13.5C64.1004 14.3 63.0004 14.7 61.8004 14.7C61.2004 14.7 60.5004 14.6 60.0004 14.3C59.4004 14 58.9004 13.6 58.4004 13.1C57.9004 12.6 57.5004 11.9 57.3004 11C57.0004 10.1 56.9004 9.09999 56.9004 7.89999C56.9004 6.69999 57.0004 5.7 57.3004 4.8C57.6004 3.9 58.0004 3.20001 58.5004 2.60001C59.0004 2.10001 59.6004 1.59999 60.2004 1.39999C60.8004 1.09999 61.5004 1 62.2004 1C63.2004 1.2 64.3004 1.50001 65.2004 2.10001ZM61.7004 12.5C62.1004 12.5 62.5004 12.3 62.8004 12C63.1004 11.6 63.2004 11.1 63.2004 10.4C63.2004 9.09999 62.7004 8.5 61.6004 8.5C60.9004 8.5 60.3004 8.90001 59.8004 9.60001C59.8004 9.70001 59.7004 9.8 59.7004 9.8C60.0004 11.6 60.7004 12.5 61.7004 12.5Z" stroke="black" stroke-width="0.5983"/>
<path d="M87.5996 11.5C128.7 11.2 169.7 11.4 210.8 12.1" stroke="#4D4D4D" stroke-width="0.5983" stroke-miterlimit="10"/>
</svg>
