<svg width="67" height="19" viewBox="0 0 67 19" fill="none" xmlns="http://www.w3.org/2000/svg">
<path d="M4 14.8002C3 14.8002 2 14.5002 0.9 14.0002C0.7 13.9002 0.5 13.6002 0.5 13.4002C0.5 13.3002 0.5 13.3002 0.5 13.2002C0.5 13.0002 0.6 12.8002 0.7 12.6002L0.9 12.3002C1.1 12.1002 1.3 11.9002 1.6 11.9002C1.7 11.9002 1.7 11.9002 1.8 11.9002C2 11.9002 2.2 12.0002 2.4 12.1002C3 12.4002 3.6 12.6002 4.1 12.6002C4.9 12.6002 5.3 12.3002 5.3 11.8002C5.3 11.7002 5.3 11.6002 5.2 11.6002C5.1 11.6002 5.1 11.3002 5 11.2002C5 11.1002 4.9 11.1002 4.8 11.0002C4.7 10.9002 4.6 10.9002 4.5 10.8002C4.3 10.7002 4.2 10.7002 4.1 10.6002C4 10.6002 3.9 10.5002 3.7 10.4002C3.5 10.3002 3.4 10.3002 3.3 10.2002C3 10.1002 2.6 9.90019 2.4 9.80019C2.2 9.70019 1.8 9.5002 1.6 9.2002C1.4 8.9002 1 8.80019 0.9 8.50019C0.7 8.20019 0.7 7.8002 0.7 7.4002C0.7 6.4002 1.1 5.70019 1.8 5.10019C2.5 4.50019 3.5 4.2002 4.6 4.2002C5.6 4.2002 6.5 4.4002 7.4 4.9002C7.6 5.0002 7.8 5.20019 7.8 5.50019C7.8 5.60019 7.8 5.6002 7.8 5.7002C7.8 5.9002 7.7 6.10019 7.6 6.30019L7.4 6.50019C7.2 6.80019 7 6.90019 6.7 7.00019C6.6 7.00019 6.5 7.00019 6.5 7.00019C6.3 7.00019 6.1 7.0002 5.9 6.9002C5.5 6.7002 5.1 6.60019 4.7 6.60019C4 6.60019 3.6 6.80019 3.6 7.30019C3.6 7.40019 3.6 7.40019 3.6 7.50019C3.6 7.60019 3.7 7.6002 3.7 7.7002C3.7 7.8002 3.8 7.80019 3.8 7.80019C3.8 7.80019 3.9 7.9002 4 7.9002C4.1 7.9002 4.2 8.00019 4.2 8.00019C4.3 8.00019 4.4 8.10019 4.5 8.10019C4.6 8.10019 4.7 8.2002 4.8 8.2002C4.9 8.2002 5 8.30019 5.1 8.30019C5.2 8.30019 5.4 8.4002 5.4 8.4002C5.8 8.5002 6.1 8.70019 6.4 8.80019C6.7 8.90019 6.9 9.1002 7.2 9.4002C7.5 9.7002 7.8 10.0002 8 10.3002C8.1 10.6002 8.2 11.0002 8.2 11.5002C8.2 12.5002 7.8 13.3002 7.1 13.9002C6.4 14.5002 5.3 14.8002 4 14.8002Z" stroke="#CC622D" stroke-miterlimit="10"/>
<path d="M13.9996 14.8003C12.7996 14.8003 11.8996 14.5003 11.2996 13.7003C10.6996 13.0003 10.3996 12.0003 10.3996 10.8003V7.00029C10.3996 6.90029 10.3996 6.9003 10.2996 6.9003H10.0996C9.79961 6.9003 9.59961 6.80029 9.39961 6.60029C9.19961 6.40029 9.09961 6.2003 9.09961 5.9003V5.60029C9.09961 5.30029 9.19961 5.10029 9.39961 4.80029C9.59961 4.60029 9.79961 4.5003 10.0996 4.4003H10.4996C10.5996 4.4003 10.5996 4.30029 10.6996 4.30029L10.8996 2.80029C10.8996 2.50029 11.0996 2.30029 11.2996 2.10029C11.4996 1.90029 11.7996 1.80029 12.0996 1.80029H12.6996C12.9996 1.80029 13.1996 1.90029 13.3996 2.10029C13.5996 2.30029 13.6996 2.50029 13.6996 2.80029V4.30029C13.6996 4.40029 13.6996 4.4003 13.7996 4.4003H14.9996C15.2996 4.4003 15.4996 4.50029 15.6996 4.70029C15.8996 4.90029 15.9996 5.1003 15.9996 5.4003V5.80029C15.9996 6.10029 15.8996 6.30029 15.6996 6.50029C15.4996 6.70029 15.2996 6.80029 14.9996 6.80029H13.7996C13.6996 6.80029 13.6996 6.8003 13.6996 6.9003V10.6003C13.6996 11.6003 14.0996 12.1003 14.8996 12.2003C15.1996 12.2003 15.3996 12.3003 15.6996 12.4003C15.8996 12.5003 16.0996 12.7003 16.0996 13.0003L16.1996 13.3003C16.1996 13.4003 16.1996 13.5003 16.1996 13.6003C16.1996 13.8003 16.0996 14.0003 15.9996 14.1003C15.7996 14.4003 15.5996 14.5003 15.3996 14.6003C14.8996 14.7003 14.4996 14.8003 13.9996 14.8003Z" stroke="#CC622D" stroke-miterlimit="10"/>
<path d="M22.2992 14.8002C20.7992 14.8002 19.5992 14.3002 18.5992 13.4002C17.5992 12.5002 17.1992 11.2002 17.1992 9.50019C17.1992 8.70019 17.2992 8.00019 17.5992 7.30019C17.8992 6.60019 18.1992 6.10019 18.6992 5.60019C19.0992 5.20019 19.6992 4.80019 20.1992 4.60019C20.7992 4.40019 21.3992 4.2002 21.9992 4.2002C23.3992 4.2002 24.4992 4.70019 25.1992 5.60019C25.8992 6.50019 26.2992 7.70019 26.2992 9.10019C26.2992 9.20019 26.2992 9.3002 26.2992 9.4002C26.2992 9.7002 26.1992 9.90019 25.8992 10.1002C25.6992 10.3002 25.3992 10.4002 25.0992 10.4002H20.2992H20.1992V10.5002C20.4992 11.7002 21.2992 12.3002 22.6992 12.3002C23.0992 12.3002 23.4992 12.2002 23.8992 12.1002C23.9992 12.1002 24.1992 12.0002 24.2992 12.0002C24.3992 12.0002 24.5992 12.0002 24.6992 12.1002C24.9992 12.2002 25.1992 12.3002 25.2992 12.6002L25.3992 12.7002C25.4992 12.9002 25.5992 13.0002 25.5992 13.2002C25.5992 13.3002 25.5992 13.4002 25.4992 13.5002C25.3992 13.8002 25.2992 14.0002 24.9992 14.1002C24.1992 14.6002 23.2992 14.8002 22.2992 14.8002ZM20.1992 8.30019C20.1992 8.40019 20.1992 8.4002 20.2992 8.4002H23.4992C23.5992 8.4002 23.5992 8.40019 23.5992 8.30019C23.5992 7.80019 23.3992 7.40019 23.1992 7.10019C22.8992 6.80019 22.4992 6.7002 21.9992 6.7002C21.4992 6.7002 21.1992 6.80019 20.7992 7.10019C20.3992 7.40019 20.1992 7.80019 20.1992 8.30019Z" stroke="#CC622D" stroke-miterlimit="10"/>
<path d="M29.4004 18.3003C29.1004 18.3003 28.9004 18.2003 28.7004 18.0003C28.5004 17.8003 28.4004 17.6003 28.4004 17.3003V5.50029C28.4004 5.20029 28.5004 5.00029 28.7004 4.80029C28.9004 4.60029 29.1004 4.50029 29.4004 4.50029H30.0004C30.3004 4.50029 30.5004 4.60029 30.7004 4.80029C30.9004 5.00029 31.0004 5.2003 31.1004 5.4003V5.50029C31.1004 5.50029 31.1004 5.50029 31.2004 5.50029C32.1004 4.70029 33.1004 4.30029 34.0004 4.30029C35.2004 4.30029 36.2004 4.80029 36.9004 5.70029C37.6004 6.60029 38.0004 7.9003 38.0004 9.4003C38.0004 10.2003 37.9004 11.0003 37.6004 11.7003C37.3004 12.4003 37.0004 13.0003 36.6004 13.4003C36.2004 13.9003 35.7004 14.2003 35.2004 14.4003C34.7004 14.6003 34.2004 14.8003 33.6004 14.8003C32.8004 14.8003 32.0004 14.5003 31.3004 13.8003C31.3004 13.8003 31.3004 13.8003 31.2004 13.8003L31.3004 15.3003V17.2003C31.3004 17.5003 31.2004 17.7003 31.0004 17.9003C30.8004 18.1003 30.6004 18.2003 30.3004 18.2003H29.4004V18.3003ZM33.0004 12.2003C33.5004 12.2003 33.9004 12.0003 34.3004 11.5003C34.6004 11.0003 34.8004 10.3003 34.8004 9.4003C34.8004 8.5003 34.7004 7.9003 34.4004 7.4003C34.1004 7.0003 33.7004 6.80029 33.2004 6.80029C32.7004 6.80029 32.2004 7.00029 31.7004 7.50029C31.6004 7.60029 31.6004 7.60029 31.6004 7.70029V11.5003C31.6004 11.6003 31.6004 11.7003 31.7004 11.7003C32.0004 12.1003 32.5004 12.2003 33.0004 12.2003Z" stroke="#CC622D" stroke-miterlimit="10"/>
<path d="M41.7004 14.8003C41.2004 14.8003 40.7004 14.6003 40.4004 14.2003C40.1004 13.8003 39.9004 13.4003 39.9004 12.8003C39.9004 12.2003 40.1004 11.8003 40.4004 11.4003C40.7004 11.0003 41.2004 10.8003 41.7004 10.8003C42.2004 10.8003 42.7004 11.0003 43.1004 11.4003C43.5004 11.8003 43.6004 12.2003 43.6004 12.8003C43.6004 13.4003 43.4004 13.8003 43.1004 14.2003C42.8004 14.6003 42.3004 14.8003 41.7004 14.8003Z" stroke="#CC622D" stroke-miterlimit="10"/>
<path d="M53.6996 13.0001C52.7996 14.2001 51.6996 14.8001 50.2996 14.8001C48.8996 14.8001 47.6996 14.2001 46.8996 13.0001C46.0996 11.8001 45.5996 10.1001 45.5996 7.9001C45.5996 5.7001 45.9996 4.0001 46.8996 2.8001C47.6996 1.6001 48.8996 1.1001 50.2996 1.1001C51.6996 1.1001 52.8996 1.7001 53.6996 2.8001C54.4996 3.9001 54.9996 5.6001 54.9996 7.8001C54.8996 10.1001 54.4996 11.8001 53.6996 13.0001ZM49.5996 12.1001C49.7996 12.2001 49.9996 12.3001 50.2996 12.3001C50.5996 12.3001 50.7996 12.2001 50.9996 12.1001C51.1996 12.0001 51.3996 11.7001 51.4996 11.4001C51.6996 11.1001 51.7996 10.6001 51.8996 10.0001C51.9996 9.4001 51.9996 8.7001 51.9996 7.8001C51.9996 6.9001 51.9996 6.2001 51.8996 5.6001C51.7996 5.0001 51.6996 4.6001 51.4996 4.3001C51.2996 4.0001 51.1996 3.8001 50.9996 3.7001C50.7996 3.6001 50.5996 3.5001 50.2996 3.5001C49.9996 3.5001 49.7996 3.6001 49.5996 3.7001C49.3996 3.8001 49.1996 4.0001 49.0996 4.3001C48.9996 4.6001 48.7996 5.0001 48.6996 5.6001C48.5996 6.2001 48.5996 6.9001 48.5996 7.8001C48.5996 8.7001 48.5996 9.4001 48.6996 10.0001C48.7996 10.6001 48.8996 11.1001 49.0996 11.4001C49.1996 11.8001 49.3996 12.0001 49.5996 12.1001Z" stroke="#CC622D" stroke-miterlimit="10"/>
<path d="M57.3004 14.5001C57.1004 14.5001 56.8004 14.4001 56.7004 14.2001C56.5004 14.0001 56.4004 13.8001 56.4004 13.6001C56.4004 13.0001 56.6004 12.5001 57.1004 12.1001C58.7004 10.6001 59.9004 9.3001 60.7004 8.3001C61.5004 7.2001 61.9004 6.3001 61.9004 5.4001C61.9004 4.8001 61.7004 4.3001 61.4004 4.0001C61.1004 3.7001 60.7004 3.5001 60.1004 3.5001C59.6004 3.5001 59.1004 3.7001 58.6004 4.1001C58.4004 4.3001 58.1004 4.4001 57.8004 4.4001C57.5004 4.4001 57.3004 4.3001 57.1004 4.1001L57.0004 3.8001C56.8004 3.6001 56.7004 3.4001 56.7004 3.1001C56.7004 2.8001 56.8004 2.6001 57.0004 2.4001C57.5004 1.9001 58.1004 1.6001 58.7004 1.4001C59.3004 1.2001 59.9004 1.1001 60.7004 1.1001C62.0004 1.1001 63.0004 1.5001 63.8004 2.2001C64.6004 3.0001 65.0004 4.0001 65.0004 5.2001C65.0004 7.1001 63.7004 9.3001 61.1004 11.9001C61.1004 11.9001 61.1004 11.9001 61.1004 12.0001C61.1004 12.0001 61.1004 12.0001 61.2004 12.0001C62.0004 11.9001 62.7004 11.8001 63.2004 11.8001H64.6004C64.9004 11.8001 65.1004 11.9001 65.3004 12.1001C65.5004 12.3001 65.6004 12.5001 65.6004 12.8001V13.4001C65.6004 13.7001 65.5004 13.9001 65.3004 14.1001C65.1004 14.3001 64.9004 14.4001 64.6004 14.4001H57.3004V14.5001Z" stroke="#CC622D" stroke-miterlimit="10"/>
</svg>
